<?xml version="1.0" encoding="utf-8"?>
<!-- Generator: Adobe Illustrator 17.0.0, SVG Export Plug-In . SVG Version: 6.00 Build 0)  -->
<!DOCTYPE svg PUBLIC "-//W3C//DTD SVG 1.1//EN" "http://www.w3.org/Graphics/SVG/1.1/DTD/svg11.dtd">
<svg version="1.1" id="Слой_1" xmlns="http://www.w3.org/2000/svg" xmlns:xlink="http://www.w3.org/1999/xlink" x="0px" y="0px"
	 width="406.831px" height="178.313px" viewBox="0 0 406.831 178.313" enable-background="new 0 0 406.831 178.313"
	 xml:space="preserve">
<g>
	<path fill="#FFFFFF" d="M396.463,137.406c-0.068-0.058-0.148-0.123-0.219-0.186c0.242-0.852,1.203-2.767,2.243-4.434
		c0.187-0.3,0.287-0.646,0.287-1V101.26c0-0.264-0.055-0.524-0.162-0.765c-0.518-1.168-6.267-11.646-48.184-19.974
		c-13.427-2.668-25.917-4.159-36.188-5.084c-0.182,1.292-0.514,2.536-1,3.702c10.299,0.912,22.901,2.392,36.453,5.085
		c36.318,7.216,44.168,16.002,45.306,17.559v29.47c-0.954,1.577-2.586,4.522-2.586,6.226c0,1.466,0.983,2.285,1.634,2.827
		c0.745,0.621,1.155,0.963,0.969,2.356c-0.176,1.318-0.809,1.987-1.864,1.989c-0.082-0.006-0.164-0.007-0.249-0.003l-30.082,1.65
		c0.875-3.232,1.317-6.559,1.317-9.923c0-21.029-17.109-38.138-38.139-38.138c-21.03,0-38.14,17.108-38.14,38.138
		c0,4.812,0.88,9.474,2.619,13.892l-1.251,0.068l-114.593-1.867v3.776l114.598,1.867c0.01,0,0.02,0,0.03,0
		c0.035,0,0.069-0.001,0.104-0.003l4.03-0.221c0.629-0.034,1.2-0.381,1.521-0.924c0.321-0.542,0.35-1.209,0.077-1.777
		c-2.23-4.648-3.36-9.632-3.36-14.811c0-18.947,15.415-34.362,34.364-34.362c18.948,0,34.364,15.415,34.364,34.362
		c0,3.867-0.649,7.68-1.929,11.332c-0.208,0.595-0.107,1.254,0.272,1.758c0.379,0.504,0.982,0.798,1.613,0.751l32.7-1.794
		c0.034,0.001,0.077,0.023,0.117,0.001c2.269,0,5.102-1.378,5.622-5.262C399.219,139.703,397.426,138.209,396.463,137.406z"/>
	<path fill="#FFFFFF" d="M157.489,36.786c-0.097,0.45-0.217,0.892-0.357,1.324c0.529,0.001,1.071,0.002,1.616,0.004
		C158.24,37.764,157.816,37.309,157.489,36.786z"/>
	<path fill="#FFFFFF" d="M116.369,147.519l-7.423-0.121c0.584-2.67,0.878-5.388,0.878-8.11c0-21.029-17.109-38.139-38.14-38.139
		c-21.03,0-38.139,17.109-38.139,38.139c0,2.178,0.188,4.354,0.559,6.5l-16.875-5.017l-6.525-9.32v-19.568l7.999-12.997
		c0.212-0.345,0.308-0.748,0.273-1.151c-0.552-6.407-0.812-14.136-0.284-15.641c1.321-1.753,9.364-10.056,16.917-16.099
		c3.145-2.516,6.486-4.847,9.435-6.902c5.989-4.177,8.073-5.712,8.329-7.498c0.239-1.676-0.684-2.779-2.745-3.281
		c-0.175-0.043-0.443-0.108-0.601-0.168c0-0.002,0-0.004,0-0.007c-0.013-0.289,0.006-0.447,0.021-0.523
		c0.336-0.19,1.403-0.393,2.352-0.574c0.826-0.157,1.79-0.341,2.904-0.604c7.974-1.889,53.85-6.478,76.073-7.841
		c-0.252-0.686-0.457-1.393-0.596-2.125c-0.812,1.176-2.166,1.949-3.703,1.949h-10.441c-1.641,0-3.062-0.887-3.848-2.198
		c-23.216,1.975-52.137,5.069-58.354,6.541c-1.051,0.249-1.961,0.422-2.74,0.569c-2.886,0.549-5.611,1.067-5.438,4.974
		c0.095,2.113,1.45,2.988,2.52,3.391c-1.35,1.132-3.808,2.847-5.891,4.299c-2.996,2.09-6.392,4.458-9.634,7.052
		c-7.989,6.391-16.315,15.008-17.69,16.934c-1.106,1.545-1.239,7.417-0.398,17.455l-7.953,12.923c-0.183,0.298-0.28,0.64-0.28,0.989
		v20.697c0,0.388,0.119,0.766,0.341,1.082l7.243,10.348c0.245,0.35,0.6,0.605,1.009,0.728l19.145,5.691
		c0.165,0.049,0.335,0.075,0.507,0.078l1.316,0.021c0.01,0,0.021,0,0.031,0c0.006,0,0.013,0,0.02,0c1.042,0,1.888-0.846,1.888-1.888
		c0-0.252-0.05-0.493-0.14-0.713c-0.644-2.653-0.97-5.379-0.97-8.105c0-18.948,15.415-34.363,34.363-34.363
		c18.949,0,34.364,15.415,34.364,34.363c0,3.181-0.447,6.357-1.329,9.439c-0.162,0.564-0.051,1.172,0.298,1.644
		c0.35,0.472,0.899,0.754,1.486,0.764l9.866,0.161V147.519z"/>
	<path fill="#FFFFFF" d="M173.785,38.397c13.698,0.501,29.524,1.828,44.167,5.197c11.731,2.699,24.57,8.523,35.912,14.522h7.905
		c-12.887-7.181-28.652-14.907-42.97-18.202c-14.115-3.247-29.245-4.625-42.591-5.196C176.096,36.329,175.148,37.695,173.785,38.397
		z"/>
	<path fill="#FFFFFF" d="M77.784,72.338c0.133-1.262,0.369-2.843,0.738-3.764c0.881-2.203,4.794-9.977,18.167-17.482
		c0.727-0.408,0.986-1.328,0.578-2.056c-0.408-0.727-1.328-0.986-2.056-0.577c-14.235,7.989-18.519,16.559-19.493,18.993
		c-0.847,2.113-1.056,5.885-1.077,6.308c-0.021,0.411,0.128,0.812,0.411,1.112c0.282,0.299,0.675,0.47,1.086,0.473
		c0.38,0.003,19.041,0.144,40.232,0.354v-3.021C98.698,72.503,82.794,72.376,77.784,72.338z"/>
	<path fill="#FFFFFF" d="M326.164,106.123c-17.446,0-31.64,14.192-31.64,31.638c0,17.446,14.193,31.641,31.64,31.641
		c17.446,0,31.639-14.194,31.639-31.641C357.804,120.315,343.61,106.123,326.164,106.123z M326.164,165.626
		c-15.364,0-27.864-12.5-27.864-27.865c0-15.363,12.5-27.862,27.864-27.862c15.364,0,27.864,12.499,27.864,27.862
		C354.028,153.126,341.529,165.626,326.164,165.626z"/>
	<path fill="#FFFFFF" d="M71.85,109.034c-17.445,0-31.639,14.193-31.639,31.639c0,17.446,14.193,31.641,31.639,31.641
		c17.446,0,31.64-14.194,31.64-31.641C103.49,123.227,89.296,109.034,71.85,109.034z M71.85,168.538
		c-15.364,0-27.863-12.5-27.863-27.865c0-15.364,12.5-27.863,27.863-27.863c15.364,0,27.864,12.499,27.864,27.863
		C99.714,156.038,87.214,168.538,71.85,168.538z"/>
	<path fill="#FFFFFF" d="M172.022,85.888h127.192c6.937,0,12.58-5.643,12.58-12.579c0-6.936-5.643-12.58-12.58-12.58H172.022V50.372
		c0-1.042-0.845-1.888-1.888-1.888h-49.265c-1.042,0-1.888,0.846-1.888,1.888v115.047h-13.005c-1.042,0-1.888,0.846-1.888,1.888
		c0,1.042,0.845,1.888,1.888,1.888h14.893h49.265h12.22c1.042,0,1.888-0.846,1.888-1.888c0-1.042-0.845-1.888-1.888-1.888h-10.333
		V85.888z M122.757,52.26h45.49v8.47H155.8c-3.062-2.834-7.144-4.582-11.635-4.582c-9.463,0-17.163,7.699-17.163,17.162
		c0,9.464,7.699,17.163,17.163,17.163c4.493,0,8.575-1.749,11.637-4.584h12.445v79.53h-45.49V52.26z M308.018,73.309
		c0,4.855-3.949,8.804-8.804,8.804h-16.419l15.411-17.608h1.008C304.069,64.505,308.018,68.454,308.018,73.309z M293.189,64.505
		l-15.411,17.608h-5.23l15.408-17.608H293.189z M267.532,82.113h-31.54l15.41-17.608h31.538L267.532,82.113z M246.385,64.505
		l-15.41,17.608h-4.637l15.408-17.608H246.385z M221.321,82.113h-32.134l15.409-17.608h32.132L221.321,82.113z M199.58,64.505
		l-15.409,17.608h-4.042l15.408-17.608H199.58z M175.113,82.113H158.87c1.549-2.578,2.458-5.583,2.458-8.804
		c0-3.221-0.908-6.227-2.458-8.805h31.651L175.113,82.113z M144.164,86.697c-7.382,0-13.387-6.006-13.387-13.388
		c0-7.382,6.005-13.387,13.387-13.387c7.382,0,13.388,6.005,13.388,13.387C157.553,80.691,151.547,86.697,144.164,86.697z"/>
	<path fill="#FFFFFF" d="M127.002,104.98c0,1.042,0.845,1.888,1.888,1.888h30.551c1.043,0,1.888-0.846,1.888-1.888
		s-0.845-1.888-1.888-1.888h-30.551C127.847,103.093,127.002,103.938,127.002,104.98z"/>
	<path fill="#FFFFFF" d="M144.165,44.938c6.076,0,11.02-4.942,11.02-11.018c0-6.076-4.944-11.02-11.02-11.02
		c-6.076,0-11.02,4.943-11.02,11.02C133.146,39.996,138.089,44.938,144.165,44.938z M136.921,33.921c0-3.994,3.25-7.244,7.244-7.244
		c3.995,0,7.245,3.25,7.245,7.244c0,3.993-3.25,7.242-7.245,7.242C140.171,41.163,136.921,37.914,136.921,33.921z"/>
	<path fill="#FFFFFF" d="M144.165,18.651c1.042,0,1.888-0.846,1.888-1.888V6.323c0-1.042-0.845-1.888-1.888-1.888
		c-1.043,0-1.888,0.846-1.888,1.888v10.44C142.278,17.805,143.123,18.651,144.165,18.651z"/>
	<path fill="#FFFFFF" d="M128.966,33.921c0-1.042-0.845-1.888-1.888-1.888h-10.441c-1.043,0-1.888,0.846-1.888,1.888
		s0.845,1.888,1.888,1.888h10.441C128.121,35.808,128.966,34.963,128.966,33.921z"/>
	<path fill="#FFFFFF" d="M133.914,20.725l-7.383-7.384c-0.737-0.736-1.933-0.736-2.669,0c-0.737,0.737-0.737,1.933-0.001,2.67
		l7.383,7.384c0.369,0.368,0.852,0.553,1.335,0.553s0.966-0.185,1.335-0.553C134.651,22.658,134.651,21.463,133.914,20.725z"/>
	<path fill="#FFFFFF" d="M159.409,34.41c0,1.042,0.845,1.888,1.888,1.888h10.442c1.042,0,1.888-0.846,1.888-1.888
		s-0.845-1.888-1.888-1.888h-10.442C160.254,32.522,159.409,33.368,159.409,34.41z"/>
	<path fill="#FFFFFF" d="M155.795,24.438c0.483,0,0.966-0.185,1.335-0.553l7.383-7.385c0.737-0.737,0.737-1.933,0-2.67
		c-0.737-0.736-1.932-0.736-2.669,0l-7.383,7.385c-0.737,0.737-0.737,1.933,0,2.67C154.829,24.254,155.312,24.438,155.795,24.438z"
		/>
</g>
</svg>
