<?xml version="1.0" encoding="utf-8"?>
<!-- Generator: Adobe Illustrator 17.0.0, SVG Export Plug-In . SVG Version: 6.00 Build 0)  -->
<!DOCTYPE svg PUBLIC "-//W3C//DTD SVG 1.1//EN" "http://www.w3.org/Graphics/SVG/1.1/DTD/svg11.dtd">
<svg version="1.1" id="Слой_1" xmlns="http://www.w3.org/2000/svg" xmlns:xlink="http://www.w3.org/1999/xlink" x="0px" y="0px"
	 width="406.831px" height="158.589px" viewBox="0 0 406.831 158.589" enable-background="new 0 0 406.831 158.589"
	 xml:space="preserve">
<g>
	<path fill="#516AAE" d="M15.05,109.142c0.245,0.35,0.6,0.605,1.009,0.728l19.145,5.691c0.165,0.049,0.335,0.075,0.507,0.078
		l1.316,0.021c0.01,0,0.021,0,0.031,0c0.006,0,0.012,0,0.02,0c1.042,0,1.888-0.846,1.888-1.888c0-0.252-0.05-0.493-0.14-0.713
		c-0.644-2.653-0.97-5.379-0.97-8.105c0-18.948,15.415-34.363,34.363-34.363c18.949,0,34.364,15.415,34.364,34.363
		c0,3.181-0.447,6.356-1.329,9.439c-0.162,0.564-0.051,1.172,0.298,1.644c0.35,0.472,0.899,0.754,1.486,0.764l10.273,0.168
		l-16.294,14.424c-6.088,5.391-6.657,14.73-1.267,20.818c2.798,3.16,6.825,4.973,11.047,4.973c3.602,0,7.072-1.316,9.771-3.707
		l40.443-35.797l128.756,2.099c0.01,0,0.02,0,0.03,0c0.035,0,0.069-0.001,0.104-0.003l4.03-0.221c0.629-0.034,1.2-0.381,1.522-0.924
		c0.321-0.542,0.35-1.209,0.077-1.777c-2.229-4.648-3.36-9.632-3.36-14.812c0-18.947,15.416-34.362,34.364-34.362
		s34.364,15.415,34.364,34.362c0,3.867-0.649,7.68-1.929,11.332c-0.208,0.595-0.107,1.254,0.272,1.758
		c0.379,0.504,0.984,0.792,1.613,0.751l32.7-1.794c0.034,0.001,0.075-0.006,0.117,0.002c2.269-0.001,5.102-1.379,5.622-5.263
		c0.462-3.459-1.331-4.953-2.294-5.756c-0.068-0.058-0.148-0.123-0.219-0.186c0.242-0.853,1.203-2.767,2.243-4.434
		c0.187-0.3,0.287-0.646,0.287-1V66.926c0-0.264-0.055-0.524-0.162-0.765c-0.518-1.168-6.267-11.646-48.184-19.974
		c-21.524-4.277-40.643-5.528-52.065-6.275c-5.078-0.332-9.088-0.595-10.413-0.957c-1.017-0.278-5.093-2.74-9.409-5.348
		c-13.347-8.061-38.19-23.066-59.743-28.026C197.59,0.578,173.411,0,157.114,0c-3.661,0-6.996,0.032-9.905,0.06
		c-2.239,0.022-4.226,0.04-5.912,0.04c-13.863,0-76.792,6.072-86.327,8.33c-1.051,0.249-1.961,0.422-2.74,0.569
		c-2.886,0.549-5.611,1.067-5.438,4.974c0.095,2.113,1.45,2.988,2.52,3.391c-1.35,1.132-3.807,2.847-5.891,4.299
		c-2.996,2.09-6.392,4.458-9.634,7.052c-7.989,6.391-16.315,15.008-17.69,16.934c-1.106,1.545-1.239,7.417-0.399,17.455
		L7.746,76.025c-0.183,0.298-0.28,0.64-0.28,0.989v20.697c0,0.388,0.119,0.766,0.341,1.082L15.05,109.142z M11.241,77.549
		l7.999-12.997c0.212-0.345,0.308-0.748,0.273-1.151C18.96,56.993,18.7,49.265,19.228,47.76c1.321-1.753,9.364-10.056,16.917-16.099
		c3.145-2.516,6.487-4.847,9.435-6.902c5.989-4.177,8.073-5.712,8.329-7.499c0.239-1.675-0.684-2.778-2.745-3.28
		c-0.175-0.043-0.443-0.108-0.601-0.168c-0.001-0.002-0.001-0.004-0.001-0.007c-0.013-0.289,0.006-0.447,0.021-0.523
		c0.336-0.19,1.403-0.393,2.352-0.574c0.826-0.157,1.79-0.341,2.904-0.604c9.418-2.23,71.713-8.229,85.457-8.229
		c1.697,0,3.695-0.02,5.948-0.041c2.898-0.027,6.221-0.059,9.869-0.059c9.553,0,21.845,0.208,34.719,1.395
		c-9.882,1.932-19.139,6.459-26.789,13.233c-6.442,5.702-11.405,12.633-14.671,20.323c-26.549-0.361-63.862-0.66-72.055-0.724
		c0.133-1.262,0.369-2.843,0.738-3.764c0.881-2.203,4.794-9.977,18.167-17.482c0.727-0.408,0.986-1.328,0.578-2.056
		c-0.408-0.727-1.327-0.986-2.056-0.577c-14.235,7.989-18.519,16.559-19.493,18.993c-0.847,2.113-1.056,5.885-1.077,6.308
		c-0.021,0.411,0.128,0.812,0.411,1.112c0.282,0.299,0.675,0.47,1.086,0.473c0.574,0.004,42.826,0.323,72.535,0.722
		c-1.803,5.03-2.912,10.343-3.246,15.825c-0.617,10.133,1.44,20.015,5.867,28.854l-30.328,26.848l-12.019-0.195
		c0.584-2.67,0.878-5.388,0.878-8.11c0-21.029-17.109-38.139-38.14-38.139c-21.03,0-38.139,17.109-38.139,38.139
		c0,2.178,0.188,4.354,0.559,6.5l-16.875-5.017l-6.524-9.32V77.549H11.241z M350.227,49.891
		c36.318,7.216,44.167,16.002,45.306,17.559v29.47c-0.955,1.578-2.586,4.522-2.586,6.226c0,1.466,0.983,2.285,1.634,2.827
		c0.745,0.621,1.155,0.963,0.969,2.356c-0.176,1.318-0.809,1.987-1.864,1.989c-0.082-0.006-0.164-0.008-0.249-0.003l-30.082,1.65
		c0.875-3.233,1.317-6.559,1.317-9.923c0-21.029-17.109-38.138-38.139-38.138s-38.14,17.108-38.14,38.138
		c0,4.812,0.88,9.474,2.619,13.892l-1.251,0.068l-68.658-1.119c7.081-2.41,13.68-6.208,19.383-11.257
		c16.625-14.721,22.569-37.066,17.262-57.2c10.4,0.573,17.494,0.973,17.733,0.986c0.029,0.001,0.058,0.002,0.087,0.002
		c0.795,0,1.461-0.621,1.506-1.425c0.047-0.833-0.59-1.546-1.423-1.593c-0.248-0.014-7.819-0.44-18.803-1.045
		c-2.339-7.196-6.147-14.039-11.475-20.056c-2.64-2.981-5.566-5.647-8.715-7.981c15.663,6.545,30.996,15.806,40.464,21.524
		c5.971,3.606,8.905,5.357,10.364,5.757c1.693,0.464,5.257,0.697,11.162,1.083C309.981,44.42,328.945,45.661,350.227,49.891z
		 M102.576,149.709c-4.01-4.53-3.587-11.479,0.943-15.49l50.153-44.397c1.851,3.139,4.014,6.126,6.483,8.915
		c2.463,2.782,5.183,5.278,8.092,7.498l-50.182,44.416c-2.008,1.778-4.589,2.758-7.269,2.758
		C107.654,153.408,104.658,152.06,102.576,149.709z M242.548,25.798c19.42,21.934,17.373,55.579-4.563,75.002
		c-9.725,8.608-22.221,13.35-35.192,13.349c-0.001,0-0.004,0-0.004,0c-15.22-0.001-29.729-6.53-39.807-17.914
		c-9.408-10.627-14.115-24.281-13.253-38.447s7.19-27.148,17.817-36.557c9.723-8.609,22.222-13.352,35.195-13.352
		C217.959,7.879,232.468,14.41,242.548,25.798z M171.396,108.487c3.551,2.345,7.354,4.274,11.328,5.77l-17.524-0.285
		L171.396,108.487z"/>
	<path fill="#516AAE" d="M155.394,58.132c-0.77,12.653,3.434,24.849,11.837,34.341c9.002,10.168,21.961,16,35.553,16
		c11.588,0,22.753-4.234,31.439-11.923c19.592-17.348,21.42-47.399,4.075-66.989c-9.003-10.171-21.961-16.005-35.552-16.005
		c-11.588,0-22.753,4.235-31.438,11.926C161.816,33.884,156.164,45.479,155.394,58.132z M202.746,17.331
		c12.511,0,24.439,5.369,32.726,14.731c2.859,3.229,5.143,6.771,6.877,10.496c-25.304-1.373-57.571-3.068-68.603-3.402
		c-2.192-0.066-5.161-0.133-8.696-0.199c2.309-3.938,5.243-7.535,8.761-10.649C181.804,21.229,192.081,17.331,202.746,17.331z
		 M202.784,104.697c-12.512,0-24.44-5.367-32.727-14.727c-7.735-8.737-11.605-19.963-10.896-31.609
		c0.353-5.792,1.818-11.343,4.276-16.412c4.207,0.075,7.719,0.15,10.216,0.227c11.221,0.339,44.501,2.093,69.992,3.479
		c6.162,16.453,1.995,35.744-11.926,48.069C223.726,100.801,213.449,104.697,202.784,104.697z"/>
	<path fill="#516AAE" d="M172.54,65.496l-0.622-1.257c-0.732-1.497-1.345-2.52-1.837-3.068c-0.493-0.549-1.178-0.97-2.057-1.264
		c0.512-0.316,0.936-0.683,1.269-1.1c0.333-0.415,0.809-1.177,1.429-2.284l0.378-0.659l0.476-0.868
		c0.684-1.229,1.343-1.844,1.977-1.844c0.041,0,0.107,0.003,0.195,0.013v-1.881l-0.317-0.013c-0.732,0-1.343,0.166-1.831,0.495
		c-0.488,0.329-0.972,0.905-1.452,1.727l-0.635,1.124l-0.77,1.317c-0.846,1.44-1.441,2.325-1.782,2.655
		c-0.342,0.33-0.851,0.494-1.525,0.494h-0.122v-7.8h-2.563v18.066h2.563v-8.35h1.243c1.081,0.724,2.145,2.15,3.192,4.278
		l1.024,2.097l0.792,1.597l0.195,0.378h2.722c-0.407-0.699-0.826-1.508-1.258-2.428C172.841,66.126,172.614,65.65,172.54,65.496z"/>
	<path fill="#516AAE" d="M182.612,51.284l-7.166,18.066h2.377l1.993-4.992h7.662l1.963,4.992h2.766l-7.056-18.066
		C185.151,51.284,182.612,51.284,182.612,51.284z M180.55,62.441l3.094-7.801l3.086,7.801H180.55z"/>
	<path fill="#516AAE" d="M198.2,65.811c-1.147-1.327-1.721-3.146-1.721-5.457c0-2.417,0.537-4.289,1.611-5.616
		c1.074-1.326,2.592-1.989,4.554-1.989c1.342,0,3.251,0.428,5.725,1.281v-2.404c-2.173-0.529-4.065-0.794-5.677-0.794
		c-2.84,0-5.04,0.829-6.598,2.485c-1.559,1.655-2.338,3.993-2.338,7.013c0,3.027,0.766,5.363,2.295,7.007
		c1.53,1.645,3.699,2.466,6.506,2.466c2.108,0,4.054-0.46,5.835-1.38v-2.197c-1.953,1.051-3.78,1.574-5.481,1.574
		C200.918,67.8,199.348,67.138,198.2,65.811z"/>
	<path fill="#516AAE" d="M221.907,65.496l-0.622-1.257c-0.732-1.497-1.345-2.52-1.837-3.068c-0.492-0.549-1.177-0.97-2.056-1.264
		c0.512-0.316,0.936-0.683,1.269-1.1c0.334-0.415,0.81-1.177,1.429-2.284l0.378-0.659l0.476-0.868
		c0.684-1.229,1.343-1.844,1.977-1.844c0.041,0,0.107,0.003,0.196,0.013v-1.881l-0.317-0.013c-0.732,0-1.343,0.166-1.831,0.495
		c-0.488,0.329-0.972,0.905-1.452,1.727l-0.635,1.124l-0.769,1.317c-0.847,1.44-1.44,2.325-1.782,2.655
		c-0.342,0.33-0.851,0.494-1.526,0.494h-0.122v-7.8h-2.564v18.066h2.564v-8.35h1.243c1.081,0.724,2.144,2.15,3.192,4.278
		l1.024,2.097l0.792,1.597l0.195,0.378h2.722c-0.406-0.699-0.826-1.508-1.257-2.428C222.208,66.126,221.98,65.65,221.907,65.496z"/>
	<path fill="#516AAE" d="M240.468,67.221c1.532-1.721,2.301-4.022,2.301-6.902c0-2.882-0.769-5.183-2.301-6.904
		c-1.534-1.722-3.583-2.582-6.146-2.582c-2.564,0-4.612,0.86-6.148,2.582c-1.534,1.722-2.301,4.022-2.301,6.904
		c0,2.88,0.767,5.182,2.301,6.902c1.535,1.722,3.583,2.582,6.148,2.582C236.885,69.803,238.934,68.942,240.468,67.221z
		 M230.11,65.878c-1.008-1.339-1.514-3.2-1.514-5.585c0-2.368,0.506-4.218,1.514-5.548c1.01-1.331,2.412-1.996,4.212-1.996
		c1.798,0,3.202,0.665,4.212,1.996c1.008,1.33,1.513,3.18,1.513,5.548c0,2.385-0.505,4.246-1.513,5.585
		c-1.01,1.339-2.414,2.008-4.212,2.008C232.522,67.886,231.12,67.217,230.11,65.878z"/>
	<path fill="#516AAE" d="M326.699,71.789c-17.446,0-31.64,14.192-31.64,31.638s14.193,31.641,31.64,31.641
		c17.446,0,31.639-14.194,31.639-31.641C358.338,85.981,344.145,71.789,326.699,71.789z M326.699,131.292
		c-15.364,0-27.864-12.5-27.864-27.865c0-15.363,12.5-27.862,27.864-27.862s27.864,12.499,27.864,27.862
		C354.563,118.792,342.063,131.292,326.699,131.292z"/>
	<path fill="#516AAE" d="M72.385,74.7c-17.445,0-31.639,14.193-31.639,31.639s14.193,31.641,31.639,31.641
		s31.64-14.194,31.64-31.641C104.024,88.894,89.831,74.7,72.385,74.7z M72.385,134.204c-15.364,0-27.863-12.5-27.863-27.865
		c0-15.364,12.5-27.863,27.863-27.863c15.364,0,27.864,12.499,27.864,27.863C100.249,121.704,87.749,134.204,72.385,134.204z"/>
</g>
</svg>
