<?xml version="1.0" encoding="utf-8"?>
<!-- Generator: Adobe Illustrator 17.0.0, SVG Export Plug-In . SVG Version: 6.00 Build 0)  -->
<!DOCTYPE svg PUBLIC "-//W3C//DTD SVG 1.1//EN" "http://www.w3.org/Graphics/SVG/1.1/DTD/svg11.dtd">
<svg version="1.1" id="Слой_1" xmlns="http://www.w3.org/2000/svg" xmlns:xlink="http://www.w3.org/1999/xlink" x="0px" y="0px"
	 width="406.831px" height="158.589px" viewBox="0 0 406.831 158.589" enable-background="new 0 0 406.831 158.589"
	 xml:space="preserve">
<g>
	<path fill="#516AAE" d="M396.997,113.377c-0.068-0.058-0.148-0.123-0.219-0.185c0.242-0.853,1.203-2.767,2.243-4.434
		c0.187-0.3,0.287-0.646,0.287-1V77.231c0-0.264-0.055-0.524-0.162-0.765c-0.518-1.168-6.267-11.646-48.184-19.974
		c-21.524-4.277-40.643-5.528-52.065-6.275c-5.078-0.332-9.088-0.595-10.413-0.957c-1.017-0.278-5.093-2.74-9.409-5.348
		c-13.347-8.061-38.19-23.066-59.743-28.026c-21.743-5.003-45.922-5.581-62.219-5.581c-3.661,0-6.996,0.032-9.905,0.06
		c-2.239,0.022-4.226,0.04-5.912,0.04c-13.863,0-76.793,6.072-86.327,8.33c-1.051,0.249-1.961,0.422-2.74,0.569
		c-2.886,0.549-5.611,1.067-5.438,4.974c0.095,2.113,1.45,2.988,2.52,3.391c-1.35,1.132-3.807,2.847-5.891,4.299
		c-2.996,2.09-6.392,4.458-9.634,7.052c-7.989,6.391-16.315,15.008-17.69,16.934c-1.105,1.545-1.239,7.417-0.398,17.455L7.746,86.33
		c-0.183,0.298-0.28,0.64-0.28,0.989v20.697c0,0.388,0.119,0.766,0.341,1.082l7.243,10.348c0.245,0.35,0.6,0.605,1.009,0.728
		l19.145,5.691c0.165,0.049,0.335,0.075,0.507,0.078l1.316,0.021c0.01,0,0.021,0,0.031,0c0.006,0,0.013,0,0.02,0
		c1.043,0,1.888-0.846,1.888-1.888c0-0.252-0.05-0.493-0.14-0.713c-0.644-2.653-0.97-5.379-0.97-8.105
		c0-18.948,15.415-34.363,34.363-34.363c18.949,0,34.364,15.415,34.364,34.363c0,3.181-0.447,6.356-1.329,9.439
		c-0.162,0.564-0.051,1.172,0.298,1.644c0.35,0.472,0.899,0.754,1.486,0.764l182.729,2.978c0.01,0,0.02,0,0.03,0
		c0.035,0,0.069-0.001,0.104-0.003l4.03-0.221c0.629-0.034,1.2-0.381,1.522-0.924c0.321-0.542,0.35-1.209,0.077-1.777
		c-2.229-4.648-3.36-9.632-3.36-14.812c0-18.947,15.415-34.362,34.364-34.362c18.948,0,34.364,15.415,34.364,34.362
		c0,3.867-0.649,7.68-1.929,11.332c-0.209,0.595-0.106,1.254,0.272,1.758c0.378,0.504,0.979,0.784,1.613,0.751l32.7-1.794
		c0.034,0.001,0.055,0.03,0.117,0.002c2.269-0.001,5.102-1.379,5.622-5.263C399.753,115.674,397.96,114.18,396.997,113.377z
		 M395.549,118.633c-0.176,1.318-0.809,1.987-1.864,1.989c-0.081-0.006-0.165-0.007-0.249-0.003l-30.082,1.65
		c0.875-3.232,1.317-6.559,1.317-9.923c0-21.029-17.109-38.138-38.139-38.138s-38.14,17.108-38.14,38.138
		c0,4.812,0.88,9.474,2.619,13.892l-1.251,0.068l-180.281-2.938c0.584-2.67,0.879-5.388,0.879-8.11
		c0-21.029-17.109-38.139-38.14-38.139c-21.03,0-38.139,17.109-38.139,38.139c0,2.178,0.188,4.354,0.559,6.5l-16.874-5.017
		l-6.524-9.32V87.854l7.999-12.997c0.212-0.345,0.308-0.748,0.273-1.151C18.96,67.299,18.7,59.57,19.228,58.065
		c1.321-1.753,9.364-10.056,16.917-16.099c3.145-2.516,6.487-4.847,9.435-6.902c5.989-4.177,8.073-5.712,8.329-7.499
		c0.239-1.675-0.684-2.778-2.745-3.28c-0.175-0.043-0.443-0.108-0.601-0.168c0-0.002,0-0.004,0-0.007
		c-0.013-0.289,0.006-0.447,0.021-0.522c0.335-0.191,1.403-0.394,2.352-0.574c0.826-0.157,1.79-0.341,2.904-0.605
		c9.418-2.23,71.713-8.228,85.457-8.228c1.697,0,3.695-0.019,5.948-0.041c2.898-0.027,6.221-0.059,9.869-0.059
		c16.113,0,40.005,0.568,61.373,5.485c20.965,4.824,45.472,19.626,58.638,27.578c5.971,3.606,8.905,5.357,10.364,5.757
		c1.693,0.464,5.257,0.697,11.162,1.083c11.331,0.741,30.294,1.982,51.577,6.212c36.318,7.216,44.168,16.002,45.306,17.559v29.47
		c-0.955,1.578-2.586,4.522-2.586,6.226c0,1.466,0.983,2.285,1.634,2.827C395.325,116.898,395.736,117.239,395.549,118.633z"/>
	<path fill="#516AAE" d="M275.652,54.701c-0.827-0.047-82.897-4.665-101.907-5.24c-17.466-0.529-84.131-1.065-95.427-1.152
		c0.133-1.262,0.369-2.843,0.738-3.764c0.881-2.203,4.794-9.977,18.167-17.483c0.727-0.408,0.986-1.328,0.578-2.056
		c-0.407-0.726-1.328-0.987-2.056-0.577C81.51,32.418,77.226,40.988,76.252,43.422c-0.847,2.113-1.056,5.885-1.077,6.308
		c-0.021,0.411,0.128,0.812,0.411,1.112c0.282,0.299,0.675,0.47,1.086,0.473c0.778,0.006,78.009,0.589,96.982,1.165
		c18.971,0.573,101.002,5.189,101.829,5.236c0.029,0.001,0.058,0.002,0.086,0.002c0.795,0,1.461-0.621,1.506-1.425
		C277.122,55.461,276.485,54.748,275.652,54.701z"/>
	<path fill="#516AAE" d="M358.338,113.732c0-17.445-14.193-31.638-31.639-31.638s-31.64,14.192-31.64,31.638
		s14.193,31.641,31.64,31.641C344.145,145.372,358.338,131.178,358.338,113.732z M326.699,85.869
		c15.364,0,27.864,12.499,27.864,27.862c0,15.365-12.5,27.865-27.864,27.865s-27.864-12.5-27.864-27.865
		C298.835,98.368,311.335,85.869,326.699,85.869z"/>
	<path fill="#516AAE" d="M72.385,148.284c17.446,0,31.64-14.194,31.64-31.641c0-17.445-14.193-31.639-31.64-31.639
		c-17.445,0-31.639,14.193-31.639,31.639C40.746,134.09,54.939,148.284,72.385,148.284z M72.385,88.78
		c15.364,0,27.864,12.499,27.864,27.863c0,15.365-12.5,27.865-27.864,27.865s-27.863-12.5-27.863-27.865
		C44.521,101.279,57.021,88.78,72.385,88.78z"/>
	<path fill="#516AAE" d="M152.195,79.299h-4.934v-9.867h9.867c1.096,0,1.645-0.548,1.645-1.645c0-1.096-0.548-1.645-1.645-1.645
		h-11.512c-1.096,0-1.645,0.549-1.645,1.645v13.156c0,1.097,0.548,1.644,1.645,1.644h6.578c1.362,0,2.525,0.483,3.488,1.445
		c0.963,0.964,1.445,2.127,1.445,3.488v3.289c0,1.379-0.478,2.546-1.433,3.501c-0.956,0.955-2.123,1.433-3.501,1.433h-6.578
		c-1.096,0-1.645,0.548-1.645,1.645s0.548,1.645,1.645,1.645h6.578c2.259,0,4.194-0.801,5.806-2.404
		c1.611-1.604,2.417-3.542,2.417-5.818v-3.289c0-2.259-0.802-4.194-2.405-5.806C156.41,80.105,154.47,79.299,152.195,79.299z"/>
	<path fill="#516AAE" d="M170.284,95.744c-0.831,0-1.362,0.415-1.595,1.246c-1.13,3.903-1.694,6.229-1.694,6.977
		c0,1.097,0.548,1.645,1.645,1.645c0.863,0,1.395-0.415,1.595-1.246c1.129-4.519,1.694-6.852,1.694-7.002
		C171.929,96.284,171.38,95.744,170.284,95.744z"/>
	<path fill="#516AAE" d="M194.952,74.365c0-2.259-0.802-4.194-2.405-5.806c-1.603-1.61-3.542-2.417-5.818-2.417h-6.578
		c-1.096,0-1.645,0.549-1.645,1.645c0,1.097,0.548,1.645,1.645,1.645h6.578c1.362,0,2.525,0.482,3.488,1.445
		c0.963,0.964,1.445,2.127,1.445,3.488c0,1.379-0.478,2.546-1.433,3.501c-0.956,0.955-2.123,1.433-3.501,1.433h-3.289
		c-1.096,0-1.645,0.548-1.645,1.645s0.548,1.644,1.645,1.644h3.289c1.362,0,2.525,0.483,3.488,1.445
		c0.963,0.964,1.445,2.127,1.445,3.488v3.289c0,1.379-0.478,2.546-1.433,3.501c-0.956,0.955-2.123,1.433-3.501,1.433h-6.578
		c-1.096,0-1.645,0.548-1.645,1.645s0.548,1.645,1.645,1.645h6.578c2.259,0,4.194-0.801,5.806-2.404
		c1.611-1.604,2.417-3.542,2.417-5.818v-3.289c0-2.724-1.097-4.917-3.289-6.578C193.855,79.282,194.952,77.09,194.952,74.365z"/>
	<path fill="#516AAE" d="M229.486,66.143c-0.498,0-0.914,0.191-1.246,0.573l-26.287,29.576c-0.282,0.316-0.423,0.682-0.423,1.097
		c0,0.433,0.162,0.814,0.486,1.146s0.71,0.498,1.159,0.498c0.498,0,0.913-0.19,1.246-0.573l26.287-29.576
		c0.283-0.315,0.424-0.681,0.424-1.097c0-0.448-0.162-0.835-0.486-1.158C230.322,66.305,229.935,66.143,229.486,66.143z"/>
	<path fill="#516AAE" d="M208.107,79.275c1.827,0,3.38-0.64,4.659-1.919c1.279-1.279,1.919-2.832,1.919-4.659
		c0-1.827-0.64-3.381-1.919-4.66c-1.279-1.278-2.832-1.918-4.659-1.918c-1.828,0-3.38,0.64-4.66,1.918
		c-1.279,1.279-1.918,2.833-1.918,4.66s0.639,3.38,1.918,4.659C204.727,78.635,206.28,79.275,208.107,79.275z M205.778,70.366
		c0.639-0.64,1.416-0.959,2.33-0.959c0.93,0,1.71,0.315,2.342,0.946c0.631,0.632,0.947,1.412,0.947,2.343
		c0,0.913-0.32,1.69-0.96,2.329c-0.64,0.64-1.417,0.96-2.33,0.96c-0.897,0-1.669-0.324-2.317-0.972s-0.972-1.421-0.972-2.317
		C204.818,71.782,205.138,71.006,205.778,70.366z"/>
	<path fill="#516AAE" d="M224.553,85.853c-1.828,0-3.381,0.64-4.66,1.918c-1.279,1.279-1.918,2.833-1.918,4.66
		s0.639,3.38,1.918,4.659c1.279,1.279,2.832,1.918,4.66,1.918s3.38-0.639,4.66-1.918c1.279-1.279,1.918-2.832,1.918-4.659
		c0-1.827-0.639-3.381-1.918-4.66C227.933,86.492,226.38,85.853,224.553,85.853z M226.882,94.76c-0.641,0.64-1.416,0.96-2.33,0.96
		c-0.897,0-1.669-0.324-2.317-0.973c-0.648-0.647-0.972-1.42-0.972-2.316c0-0.914,0.319-1.69,0.959-2.33s1.416-0.959,2.33-0.959
		c0.929,0,1.711,0.315,2.341,0.946c0.631,0.632,0.947,1.412,0.947,2.343C227.841,93.344,227.521,94.121,226.882,94.76z"/>
</g>
</svg>
