<?xml version="1.0" encoding="utf-8"?>
<!-- Generator: Adobe Illustrator 17.0.0, SVG Export Plug-In . SVG Version: 6.00 Build 0)  -->
<!DOCTYPE svg PUBLIC "-//W3C//DTD SVG 1.1//EN" "http://www.w3.org/Graphics/SVG/1.1/DTD/svg11.dtd">
<svg version="1.1" id="Слой_1" xmlns="http://www.w3.org/2000/svg" xmlns:xlink="http://www.w3.org/1999/xlink" x="0px" y="0px"
	 width="406.831px" height="158.589px" viewBox="0 0 406.831 158.589" enable-background="new 0 0 406.831 158.589"
	 xml:space="preserve">
<g>
	<path fill="#516AAE" d="M396.998,118.647c-0.068-0.058-0.148-0.123-0.219-0.186c0.242-0.853,1.203-2.767,2.243-4.434
		c0.187-0.3,0.287-0.646,0.287-1V82.501c0-0.264-0.055-0.524-0.162-0.765c-0.518-1.168-6.267-11.646-48.184-19.974
		c-21.524-4.277-40.643-5.528-52.065-6.275c-5.078-0.332-9.088-0.595-10.413-0.957c-1.017-0.278-5.093-2.74-9.409-5.348
		c-11.612-7.013-31.926-19.28-51.205-25.617v3.982c18.51,6.303,38.013,18.079,49.253,24.867c5.971,3.606,8.905,5.357,10.364,5.757
		c1.693,0.464,5.257,0.697,11.162,1.083c11.331,0.741,30.294,1.982,51.577,6.212c36.318,7.216,44.167,16.002,45.306,17.559v29.47
		c-0.955,1.578-2.586,4.522-2.586,6.226c0,1.466,0.983,2.285,1.634,2.827c0.745,0.621,1.155,0.963,0.969,2.356
		c-0.176,1.318-0.809,1.987-1.864,1.989c-0.082-0.007-0.164-0.007-0.249-0.003l-30.082,1.65c0.875-3.232,1.317-6.559,1.317-9.923
		c0-21.029-17.109-38.138-38.139-38.138s-38.14,17.108-38.14,38.138c0,4.812,0.88,9.474,2.619,13.892l-1.251,0.068l-62.085-1.012
		c-0.182,1.304-0.503,2.561-0.95,3.761l63.041,1.027c0.01,0,0.02,0,0.03,0c0.035,0,0.069-0.001,0.104-0.003l4.03-0.221
		c0.629-0.034,1.2-0.381,1.521-0.924c0.321-0.542,0.35-1.209,0.077-1.777c-2.23-4.648-3.36-9.632-3.36-14.811
		c0-18.947,15.416-34.362,34.364-34.362s34.364,15.415,34.364,34.362c0,3.867-0.649,7.68-1.929,11.332
		c-0.208,0.595-0.107,1.254,0.272,1.758c0.379,0.503,0.982,0.793,1.613,0.751l32.7-1.794c0.034,0.001,0.059-0.009,0.117,0.002
		c2.269-0.001,5.102-1.379,5.622-5.263C399.753,120.944,397.96,119.45,396.998,118.647z"/>
	<path fill="#516AAE" d="M146.342,129.24l-36.861-0.601c0.584-2.67,0.878-5.388,0.878-8.11c0-21.029-17.109-38.139-38.14-38.139
		c-21.03,0-38.139,17.109-38.139,38.139c0,2.178,0.188,4.354,0.559,6.5l-16.875-5.017l-6.524-9.32V93.124l7.999-12.997
		c0.212-0.345,0.308-0.748,0.273-1.151C18.96,72.569,18.7,64.84,19.228,63.335c1.321-1.753,9.364-10.056,16.917-16.099
		c3.145-2.516,6.487-4.847,9.435-6.902c5.989-4.177,8.073-5.712,8.329-7.499c0.239-1.675-0.684-2.778-2.745-3.28
		c-0.175-0.043-0.443-0.108-0.601-0.168c0-0.002,0-0.004,0-0.007c-0.013-0.289,0.006-0.447,0.021-0.523
		c0.335-0.19,1.403-0.393,2.352-0.574c0.826-0.157,1.79-0.341,2.904-0.604c9.418-2.23,71.713-8.229,85.456-8.229
		c1.448,0,3.128-0.015,4.986-0.032v-1.841c0-0.654,0.04-1.299,0.108-1.935c-1.902,0.018-3.618,0.032-5.093,0.032
		c-13.863,0-76.792,6.072-86.327,8.33c-1.051,0.249-1.961,0.422-2.74,0.569c-2.886,0.549-5.611,1.067-5.438,4.974
		c0.095,2.113,1.45,2.988,2.52,3.391c-1.35,1.132-3.807,2.847-5.891,4.299c-2.996,2.09-6.392,4.458-9.634,7.052
		c-7.989,6.391-16.315,15.008-17.69,16.934c-1.105,1.545-1.239,7.417-0.398,17.455L7.746,91.6c-0.183,0.298-0.28,0.64-0.28,0.989
		v20.697c0,0.388,0.119,0.766,0.341,1.082l7.243,10.348c0.245,0.35,0.6,0.605,1.009,0.728l19.145,5.691
		c0.165,0.049,0.336,0.075,0.507,0.078l1.316,0.021c0.01,0,0.021,0,0.031,0c0.006,0,0.014,0,0.02,0c1.042,0,1.888-0.846,1.888-1.888
		c0-0.252-0.05-0.493-0.14-0.713c-0.644-2.653-0.97-5.379-0.97-8.105c0-18.948,15.415-34.363,34.363-34.363
		c18.949,0,34.364,15.415,34.364,34.363c0,3.181-0.447,6.356-1.329,9.439c-0.162,0.564-0.051,1.172,0.298,1.644
		c0.35,0.472,0.899,0.754,1.486,0.764l39.956,0.651C146.644,131.811,146.427,130.544,146.342,129.24z"/>
	<path fill="#516AAE" d="M275.482,62.987c0.029,0.001,0.058,0.002,0.086,0.002c0.795,0,1.461-0.621,1.506-1.425
		c0.047-0.833-0.59-1.546-1.423-1.593c-0.435-0.024-23.375-1.315-47.781-2.617v3.025C252.208,61.676,275.048,62.962,275.482,62.987z
		"/>
	<path fill="#516AAE" d="M146.282,54.249c-26.145-0.337-60.184-0.61-67.964-0.67c0.133-1.262,0.369-2.843,0.738-3.764
		c0.881-2.203,4.794-9.977,18.167-17.482c0.727-0.408,0.986-1.328,0.578-2.056c-0.407-0.727-1.327-0.987-2.056-0.577
		C81.51,37.689,77.226,46.259,76.252,48.693c-0.847,2.113-1.056,5.885-1.077,6.308c-0.021,0.411,0.128,0.812,0.411,1.112
		c0.282,0.299,0.675,0.47,1.086,0.473c0.556,0.004,40.132,0.303,69.61,0.683V54.249z"/>
	<path fill="#516AAE" d="M358.338,119.002c0-17.445-14.193-31.638-31.639-31.638s-31.64,14.192-31.64,31.638
		s14.193,31.641,31.64,31.641C344.145,150.642,358.338,136.448,358.338,119.002z M326.699,146.867
		c-15.364,0-27.864-12.5-27.864-27.865c0-15.363,12.5-27.862,27.864-27.862s27.864,12.499,27.864,27.862
		C354.563,134.367,342.063,146.867,326.699,146.867z"/>
	<path fill="#516AAE" d="M72.385,153.554c17.446,0,31.64-14.194,31.64-31.641c0-17.445-14.193-31.639-31.64-31.639
		c-17.445,0-31.639,14.193-31.639,31.639C40.746,139.36,54.939,153.554,72.385,153.554z M72.385,94.05
		c15.364,0,27.864,12.499,27.864,27.863c0,15.365-12.5,27.865-27.864,27.865s-27.863-12.5-27.863-27.865
		C44.521,106.549,57.021,94.05,72.385,94.05z"/>
	<path fill="#516AAE" d="M223.259,128.946V18.461c0-7.403-6.024-13.427-13.429-13.427h-45.505c-7.406,0-13.431,6.023-13.431,13.427
		v110.484c0,7.404,6.025,13.428,13.431,13.428h45.505C217.234,142.374,223.259,136.35,223.259,128.946z M154.67,128.946V18.461
		c0-5.322,4.331-9.651,9.655-9.651h45.505c5.323,0,9.653,4.329,9.653,9.651v110.484c0,5.322-4.331,9.652-9.653,9.652h-45.505
		C159.001,138.598,154.67,134.268,154.67,128.946z"/>
	<path fill="#516AAE" d="M155.489,29.375c0,1.042,0.845,1.888,1.888,1.888h59.287c1.042,0,1.888-0.846,1.888-1.888
		s-0.845-1.888-1.888-1.888h-59.287C156.334,27.487,155.489,28.333,155.489,29.375z"/>
	<path fill="#516AAE" d="M177.715,17.819c0,2.364,1.924,4.287,4.289,4.287h10.148c2.364,0,4.288-1.923,4.288-4.287
		c0-2.366-1.923-4.291-4.288-4.291h-10.148C179.64,13.528,177.715,15.453,177.715,17.819z M192.152,18.331h-10.148
		c-0.283,0-0.514-0.229-0.514-0.512c0-0.284,0.23-0.516,0.514-0.516h10.148c0.283,0,0.512,0.232,0.512,0.516
		C192.664,18.101,192.435,18.331,192.152,18.331z"/>
	<path fill="#516AAE" d="M196.032,128.742c0-4.426-3.228-8.103-7.45-8.821h28.081c1.042,0,1.888-0.846,1.888-1.888
		s-0.845-1.888-1.888-1.888h-59.287c-1.042,0-1.888,0.846-1.888,1.888s0.845,1.888,1.888,1.888h28.196
		c-4.222,0.719-7.45,4.396-7.45,8.821c0,4.938,4.017,8.954,8.955,8.954S196.032,133.679,196.032,128.742z M181.897,128.742
		c0-2.857,2.324-5.183,5.18-5.183c2.856,0,5.18,2.325,5.18,5.183c0,2.855-2.324,5.179-5.18,5.179
		C184.221,133.92,181.897,131.597,181.897,128.742z"/>
	<path fill="#516AAE" d="M187.069,55.547c-1.9,0-3.44,1.54-3.44,3.44c0,1.449,0.898,2.684,2.166,3.19V93.07
		c0,0.69,0.56,1.25,1.25,1.25s1.25-0.56,1.25-1.25V62.193c1.293-0.494,2.215-1.738,2.215-3.205
		C190.51,57.087,188.97,55.547,187.069,55.547z"/>
	<path fill="#516AAE" d="M195.085,69.872c0.348,0,0.697-0.119,0.981-0.362c3.08-2.636,4.846-6.471,4.846-10.522
		s-1.767-7.886-4.848-10.521c-0.631-0.54-1.585-0.469-2.129,0.166c-0.542,0.634-0.468,1.587,0.166,2.129
		c2.409,2.062,3.791,5.06,3.791,8.227s-1.381,6.166-3.789,8.227c-0.633,0.543-0.708,1.496-0.165,2.129
		C194.236,69.693,194.66,69.872,195.085,69.872z"/>
	<path fill="#516AAE" d="M180.035,50.761c0.633-0.543,0.708-1.496,0.165-2.129c-0.542-0.635-1.496-0.707-2.129-0.166
		c-3.08,2.636-4.846,6.471-4.846,10.521s1.767,7.886,4.848,10.522c0.284,0.243,0.633,0.362,0.981,0.362
		c0.426,0,0.849-0.179,1.148-0.528c0.542-0.634,0.468-1.587-0.166-2.129c-2.409-2.062-3.79-5.06-3.79-8.227
		S177.626,52.822,180.035,50.761z"/>
	<path fill="#516AAE" d="M201.322,42.259c-0.633-0.54-1.585-0.469-2.129,0.166c-0.542,0.634-0.468,1.587,0.166,2.129
		c4.227,3.615,6.651,8.876,6.651,14.434c0,5.556-2.423,10.817-6.648,14.434c-0.634,0.543-0.707,1.496-0.165,2.13
		c0.299,0.349,0.722,0.527,1.147,0.527c0.348,0,0.697-0.119,0.982-0.362c4.896-4.191,7.704-10.289,7.704-16.729
		C209.031,52.546,206.221,46.449,201.322,42.259z"/>
	<path fill="#516AAE" d="M172.718,75.716c0.284,0.243,0.633,0.362,0.981,0.362c0.426,0,0.849-0.179,1.148-0.528
		c0.542-0.634,0.468-1.587-0.166-2.129c-4.227-3.616-6.651-8.877-6.651-14.434c0-5.558,2.423-10.818,6.648-14.434
		c0.633-0.542,0.708-1.495,0.166-2.129c-0.542-0.635-1.496-0.707-2.129-0.166c-4.896,4.19-7.705,10.287-7.705,16.729
		C165.009,65.428,167.819,71.525,172.718,75.716z"/>
</g>
</svg>
