<?xml version="1.0" encoding="utf-8"?>
<!-- Generator: Adobe Illustrator 17.0.0, SVG Export Plug-In . SVG Version: 6.00 Build 0)  -->
<!DOCTYPE svg PUBLIC "-//W3C//DTD SVG 1.1//EN" "http://www.w3.org/Graphics/SVG/1.1/DTD/svg11.dtd">
<svg version="1.1" id="Слой_1" xmlns="http://www.w3.org/2000/svg" xmlns:xlink="http://www.w3.org/1999/xlink" x="0px" y="0px"
	 width="406.831px" height="158.589px" viewBox="0 0 406.831 158.589" enable-background="new 0 0 406.831 158.589"
	 xml:space="preserve">
<polygon fill="#FFFFFF" points="234.644,129.439 141.068,127.915 137.352,131.631 238.483,133.278 "/>
<g>
	<path fill="#FFFFFF" d="M7.465,91.35v20.697c0,0.388,0.119,0.766,0.341,1.082l7.243,10.348c0.245,0.35,0.6,0.605,1.009,0.728
		l19.145,5.691c0.165,0.049,0.335,0.075,0.507,0.078l1.316,0.021c0.01,0,0.021,0,0.031,0c0.006,0,0.013-0.001,0.02,0
		c1.042,0,1.888-0.846,1.888-1.888c0-0.252-0.05-0.493-0.14-0.713c-0.644-2.653-0.97-5.379-0.97-8.105
		c0-18.948,15.415-34.363,34.363-34.363c18.949,0,34.364,15.415,34.364,34.363c0,3.181-0.447,6.356-1.329,9.439
		c-0.162,0.564-0.051,1.172,0.298,1.644c0.35,0.472,0.899,0.754,1.486,0.764l15.508,0.253l3.716-3.716L109.48,127.4
		c0.583-2.67,0.878-5.388,0.878-8.11c0-21.029-17.109-38.139-38.14-38.139c-21.03,0-38.139,17.109-38.139,38.139
		c0,2.178,0.188,4.354,0.559,6.5l-16.875-5.017l-6.524-9.32V91.885l7.999-12.997c0.212-0.345,0.308-0.748,0.273-1.151
		C18.96,71.329,18.7,63.6,19.228,62.096c1.321-1.753,9.364-10.056,16.917-16.099c3.145-2.516,6.486-4.847,9.435-6.902
		c5.989-4.177,8.073-5.712,8.329-7.498c0.239-1.676-0.684-2.779-2.745-3.281c-0.175-0.043-0.443-0.108-0.6-0.168
		c0-0.002,0-0.004,0-0.007c-0.013-0.289,0.006-0.447,0.021-0.523c0.335-0.19,1.403-0.393,2.352-0.574
		c0.826-0.157,1.79-0.341,2.904-0.604c7.149-1.693,44.763-5.557,68.484-7.32l-3.508-3.508c-23.997,1.88-58.938,5.518-65.847,7.154
		c-1.051,0.249-1.961,0.422-2.74,0.569c-2.886,0.549-5.611,1.067-5.439,4.974c0.095,2.113,1.45,2.988,2.52,3.391
		c-1.35,1.132-3.808,2.847-5.891,4.299c-2.996,2.09-6.392,4.458-9.634,7.052c-7.989,6.391-16.315,15.008-17.69,16.934
		c-1.106,1.545-1.239,7.417-0.399,17.455L7.746,90.361C7.562,90.659,7.465,91.001,7.465,91.35z"/>
	<path fill="#FFFFFF" d="M238.534,30.448c15.004,6.482,29.5,15.236,38.59,20.727c5.971,3.606,8.905,5.358,10.364,5.757
		c1.693,0.464,5.257,0.697,11.162,1.083c11.33,0.741,30.294,1.982,51.577,6.212c36.318,7.216,44.167,16.002,45.306,17.559v29.47
		c-0.955,1.577-2.586,4.522-2.586,6.226c0,1.466,0.983,2.285,1.634,2.827c0.745,0.621,1.155,0.963,0.969,2.356
		c-0.176,1.318-0.809,1.987-1.864,1.989c-0.083-0.007-0.164-0.008-0.249-0.003l-30.082,1.65c0.875-3.232,1.317-6.559,1.317-9.923
		c0-21.029-17.109-38.138-38.139-38.138c-21.03,0-38.14,17.108-38.14,38.138c0,4.812,0.88,9.474,2.619,13.892l-1.251,0.068
		l-39.821-0.649l3.839,3.84l35.988,0.586c0.01,0,0.02,0,0.03,0c0.035,0,0.069-0.001,0.104-0.003l4.03-0.221
		c0.629-0.034,1.2-0.381,1.522-0.924c0.321-0.542,0.35-1.209,0.077-1.777c-2.229-4.648-3.36-9.632-3.36-14.811
		c0-18.947,15.415-34.362,34.364-34.362c18.948,0,34.364,15.415,34.364,34.362c0,3.867-0.649,7.68-1.929,11.332
		c-0.208,0.595-0.106,1.254,0.272,1.758c0.379,0.503,0.983,0.791,1.613,0.751l32.7-1.794c0.034,0.001,0.079-0.023,0.117,0.001
		c2.269,0,5.102-1.378,5.622-5.262c0.462-3.459-1.331-4.953-2.294-5.756c-0.068-0.058-0.148-0.123-0.219-0.186
		c0.242-0.853,1.203-2.767,2.243-4.434c0.187-0.3,0.287-0.646,0.287-1V81.262c0-0.264-0.055-0.524-0.162-0.765
		c-0.518-1.168-6.267-11.646-48.184-19.974c-21.524-4.277-40.643-5.528-52.066-6.275c-5.077-0.332-9.087-0.595-10.412-0.957
		c-1.017-0.278-5.093-2.74-9.409-5.348c-8.905-5.378-22.929-13.845-37.677-20.36L238.534,30.448z"/>
	<path fill="#FFFFFF" d="M138.519,18.267c1.066-0.036,2.003-0.057,2.777-0.057c1.697,0,3.695-0.02,5.948-0.041
		c2.898-0.027,6.221-0.059,9.869-0.059c16.113,0,40.005,0.568,61.372,5.485c3.009,0.692,6.092,1.596,9.203,2.649l2.966-2.966
		c-3.821-1.358-7.62-2.512-11.322-3.363c-21.742-5.002-45.922-5.581-62.219-5.581c-3.661,0-6.996,0.032-9.905,0.06
		c-2.239,0.021-4.226,0.04-5.912,0.04c-1.558,0-3.74,0.077-6.392,0.217L138.519,18.267z"/>
	<path fill="#FFFFFF" d="M196.421,57.514l2.881-2.882c-11.14-0.556-20.543-0.989-25.557-1.141c-0.001,0-0.001,0-0.002,0l3.132,3.132
		C181.654,56.806,188.514,57.124,196.421,57.514z"/>
	<path fill="#FFFFFF" d="M158.385,53.18c-26.346-0.412-71.008-0.771-80.067-0.841c0.133-1.262,0.369-2.843,0.738-3.764
		c0.881-2.203,4.794-9.977,18.167-17.482c0.727-0.408,0.986-1.328,0.578-2.056c-0.407-0.727-1.328-0.986-2.056-0.577
		C81.509,36.45,77.225,45.019,76.252,47.454c-0.847,2.113-1.056,5.885-1.077,6.308c-0.021,0.411,0.128,0.812,0.411,1.112
		c0.282,0.299,0.675,0.47,1.086,0.473c0.66,0.005,56.323,0.425,84.784,0.904L158.385,53.18z"/>
	<path fill="#FFFFFF" d="M275.482,61.748c0.029,0.001,0.058,0.002,0.086,0.002c0.795,0,1.461-0.621,1.506-1.425
		c0.047-0.833-0.59-1.546-1.423-1.593c-0.52-0.029-33.15-1.866-62.034-3.368l-2.875,2.875
		C240.241,59.764,274.946,61.718,275.482,61.748z"/>
	<path fill="#FFFFFF" d="M326.699,86.125c-17.446,0-31.64,14.192-31.64,31.638c0,17.446,14.193,31.641,31.64,31.641
		c17.446,0,31.639-14.194,31.639-31.641C358.338,100.317,344.145,86.125,326.699,86.125z M326.699,145.628
		c-15.364,0-27.864-12.5-27.864-27.865c0-15.363,12.5-27.862,27.864-27.862c15.364,0,27.864,12.499,27.864,27.862
		C354.563,133.128,342.063,145.628,326.699,145.628z"/>
	<path fill="#FFFFFF" d="M72.385,89.036c-17.445,0-31.639,14.193-31.639,31.639c0,17.446,14.193,31.641,31.639,31.641
		c17.446,0,31.64-14.194,31.64-31.641C104.024,103.229,89.831,89.036,72.385,89.036z M72.385,148.54
		c-15.364,0-27.863-12.5-27.863-27.865c0-15.364,12.5-27.863,27.863-27.863c15.364,0,27.864,12.499,27.864,27.863
		C100.249,136.04,87.749,148.54,72.385,148.54z"/>
	<path fill="#FFFFFF" d="M184.424,74.365l-64.869,64.869c-0.737,0.737-0.737,1.933,0,2.67c0.368,0.368,0.852,0.553,1.334,0.553
		c0.483,0,0.966-0.185,1.335-0.553l64.869-64.869l64.869,64.869c0.368,0.368,0.852,0.553,1.334,0.553
		c0.483,0,0.966-0.185,1.334-0.553c0.737-0.737,0.737-1.933,0-2.67l-64.869-64.869l64.869-64.869c0.737-0.737,0.737-1.933,0-2.67
		c-0.736-0.736-1.933-0.736-2.669,0l-64.869,64.87l-64.87-64.87c-0.736-0.736-1.933-0.736-2.669,0c-0.737,0.737-0.737,1.933,0,2.67
		L184.424,74.365z"/>
</g>
</svg>
