<?xml version="1.0" encoding="utf-8"?>
<!-- Generator: Adobe Illustrator 17.0.0, SVG Export Plug-In . SVG Version: 6.00 Build 0)  -->
<!DOCTYPE svg PUBLIC "-//W3C//DTD SVG 1.1//EN" "http://www.w3.org/Graphics/SVG/1.1/DTD/svg11.dtd">
<svg version="1.1" id="Слой_1" xmlns="http://www.w3.org/2000/svg" xmlns:xlink="http://www.w3.org/1999/xlink" x="0px" y="0px"
	 width="406.831px" height="183.133px" viewBox="0 0 406.831 183.133" enable-background="new 0 0 406.831 183.133"
	 xml:space="preserve">
<g>
	<path fill="#FFFFFF" d="M396.998,143.188c-0.068-0.058-0.148-0.123-0.219-0.186c0.242-0.853,1.203-2.767,2.243-4.434
		c0.187-0.3,0.287-0.646,0.287-1v-30.527c0-0.264-0.055-0.524-0.162-0.765c-0.518-1.168-6.267-11.645-48.184-19.974
		c-21.524-4.277-40.643-5.528-52.066-6.275c-5.077-0.332-9.087-0.595-10.412-0.957c-1.017-0.278-5.093-2.74-9.409-5.348
		c-5.963-3.602-14.225-8.589-23.46-13.448c0.285,1.535,0.512,3.084,0.694,4.644c8.155,4.39,15.433,8.785,20.814,12.035
		c5.971,3.606,8.905,5.358,10.364,5.757c1.693,0.464,5.257,0.697,11.162,1.083c11.33,0.741,30.294,1.982,51.577,6.212
		c36.318,7.216,44.167,16.002,45.306,17.559v29.47c-0.955,1.577-2.586,4.522-2.586,6.226c0,1.466,0.983,2.285,1.634,2.827
		c0.745,0.621,1.155,0.963,0.969,2.356c-0.176,1.318-0.809,1.987-1.864,1.989c-0.082-0.006-0.164-0.007-0.249-0.003l-30.081,1.65
		c0.875-3.232,1.317-6.559,1.317-9.923c0-21.029-17.109-38.138-38.139-38.138c-21.03,0-38.14,17.108-38.14,38.138
		c0,4.812,0.88,9.474,2.619,13.892l-1.251,0.068L109.48,153.18c0.584-2.67,0.878-5.388,0.878-8.11
		c0-21.029-17.109-38.139-38.14-38.139c-21.03,0-38.139,17.109-38.139,38.139c0,2.178,0.188,4.354,0.559,6.5l-16.875-5.017
		l-6.524-9.32v-19.568l7.999-12.997c0.212-0.345,0.308-0.748,0.273-1.151C18.96,97.109,18.7,89.38,19.228,87.875
		c1.321-1.753,9.364-10.056,16.917-16.099c3.145-2.516,6.486-4.847,9.435-6.902c5.989-4.177,8.073-5.712,8.329-7.498
		c0.239-1.676-0.684-2.779-2.745-3.281c-0.175-0.043-0.443-0.108-0.601-0.168c0-0.002,0-0.004,0-0.007
		c-0.013-0.289,0.006-0.447,0.021-0.522c0.335-0.19,1.403-0.394,2.352-0.574c0.826-0.157,1.79-0.341,2.904-0.605
		c4.17-0.987,18.712-2.714,34.814-4.331c0.471-1.327,0.969-2.641,1.516-3.93c-17.055,1.694-32.804,3.546-37.2,4.587
		c-1.051,0.249-1.961,0.422-2.74,0.569c-2.886,0.549-5.611,1.067-5.438,4.974c0.095,2.113,1.45,2.988,2.52,3.391
		c-1.35,1.132-3.808,2.847-5.891,4.299c-2.996,2.09-6.392,4.458-9.634,7.052c-7.989,6.391-16.315,15.008-17.69,16.934
		c-1.105,1.545-1.239,7.417-0.398,17.455l-7.953,12.923c-0.183,0.298-0.28,0.64-0.28,0.989v20.697c0,0.388,0.119,0.766,0.341,1.082
		l7.243,10.348c0.245,0.35,0.6,0.605,1.009,0.727l19.145,5.691c0.165,0.049,0.336,0.075,0.507,0.078l1.316,0.021
		c0.01,0,0.021,0,0.031,0c0.006,0,0.013,0,0.02,0c1.042,0,1.888-0.846,1.888-1.888c0-0.252-0.05-0.493-0.14-0.713
		c-0.644-2.653-0.97-5.379-0.97-8.105c0-18.948,15.415-34.363,34.363-34.363c18.949,0,34.364,15.415,34.364,34.363
		c0,3.181-0.447,6.356-1.329,9.439c-0.162,0.564-0.051,1.172,0.298,1.643c0.35,0.472,0.899,0.754,1.486,0.764l182.729,2.978
		c0.01,0,0.02,0,0.03,0c0.035,0,0.069-0.001,0.104-0.003l4.03-0.221c0.629-0.034,1.2-0.381,1.521-0.924
		c0.321-0.542,0.35-1.209,0.077-1.777c-2.23-4.648-3.36-9.632-3.36-14.812c0-18.947,15.416-34.362,34.364-34.362
		c18.948,0,34.364,15.415,34.364,34.362c0,3.867-0.649,7.68-1.929,11.332c-0.208,0.595-0.106,1.254,0.272,1.758
		c0.379,0.503,0.981,0.791,1.613,0.751l32.7-1.794c0.034,0.001,0.064,0.04,0.117,0.001c2.269,0,5.102-1.378,5.622-5.262
		C399.753,145.485,397.96,143.991,396.998,143.188z"/>
	<path fill="#FFFFFF" d="M255.518,86.419c11.608,0.638,19.707,1.094,19.964,1.108c0.029,0.001,0.058,0.002,0.086,0.002
		c0.795,0,1.461-0.621,1.506-1.425c0.047-0.833-0.59-1.546-1.423-1.593c-0.254-0.015-8.194-0.461-19.613-1.09
		C255.889,84.429,255.711,85.426,255.518,86.419z"/>
	<path fill="#FFFFFF" d="M86.998,78.189c-3.935-0.032-6.956-0.057-8.68-0.069c0.133-1.262,0.369-2.843,0.738-3.764
		c0.596-1.49,2.592-5.532,7.951-10.312c0.152-1.494,0.369-2.97,0.614-4.434c-7.857,6.144-10.613,11.734-11.369,13.625
		c-0.847,2.113-1.056,5.885-1.077,6.308c-0.021,0.411,0.128,0.812,0.411,1.112c0.282,0.299,0.675,0.47,1.086,0.473
		c0.176,0.001,4.27,0.032,10.706,0.086C87.233,80.21,87.101,79.204,86.998,78.189z"/>
	<path fill="#FFFFFF" d="M358.338,143.542c0-17.445-14.193-31.638-31.639-31.638c-17.446,0-31.64,14.192-31.64,31.638
		c0,17.446,14.193,31.641,31.64,31.641C344.145,175.183,358.338,160.989,358.338,143.542z M326.699,115.68
		c15.364,0,27.864,12.499,27.864,27.862c0,15.365-12.5,27.865-27.864,27.865c-15.364,0-27.864-12.5-27.864-27.865
		C298.835,128.179,311.335,115.68,326.699,115.68z"/>
	<path fill="#FFFFFF" d="M104.024,146.454c0-17.445-14.193-31.639-31.64-31.639c-17.445,0-31.639,14.193-31.639,31.639
		c0,17.446,14.193,31.641,31.639,31.641C89.831,178.095,104.024,163.901,104.024,146.454z M72.385,118.591
		c15.364,0,27.864,12.499,27.864,27.863c0,15.365-12.5,27.865-27.864,27.865c-15.364,0-27.863-12.5-27.863-27.865
		C44.521,131.09,57.021,118.591,72.385,118.591z"/>
	<path fill="#FFFFFF" d="M90.637,72.145c0,35.962,29.256,65.219,65.217,65.219c2.74,0,5.436-0.189,8.088-0.52
		c2.113,0.263,4.257,0.423,6.427,0.478c5.117,1.294,10.47,1.988,15.984,1.988c35.961,0,65.217-29.257,65.217-65.219
		c0-35.399-28.359-64.279-63.55-65.17c-5.119-1.295-10.474-1.989-15.99-1.989c-2.74,0-5.436,0.189-8.088,0.519
		c-2.653-0.33-5.348-0.519-8.088-0.519C119.893,6.932,90.637,36.187,90.637,72.145z M247.796,74.091
		c0,33.88-27.562,61.443-61.442,61.443s-61.442-27.563-61.442-61.443c0-33.876,27.562-61.437,61.442-61.437
		S247.796,40.215,247.796,74.091z M121.137,74.091c0,24.476,13.56,45.836,33.555,56.989c-25.461-7.504-44.103-31.077-44.103-58.936
		c0-33.512,26.976-60.825,60.353-61.41C142.397,17.679,121.137,43.443,121.137,74.091z M106.814,72.145
		c0,27.921,17.64,51.79,42.356,61.073c-30.746-3.343-54.758-29.452-54.758-61.073c0-31.618,24.012-57.725,54.757-61.067
		C124.454,20.361,106.814,44.228,106.814,72.145z"/>
	<path fill="#FFFFFF" d="M207.192,95.194c1.042,0,1.888-0.846,1.888-1.888s-0.845-1.888-1.888-1.888h-30.898v-8.434h15.894
		c0.106,0,0.213-0.009,0.318-0.027c6.692-1.145,19.349-6.598,19.349-19.044c0-18.928-17.414-23.057-17.59-23.097
		c-0.136-0.03-0.274-0.046-0.413-0.046h-19.445c-1.042,0-1.888,0.846-1.888,1.888v36.551h-9.778c-1.042,0-1.888,0.846-1.888,1.888
		s0.845,1.888,1.888,1.888h9.778v8.434h-9.775c-1.042,0-1.888,0.846-1.888,1.888s0.845,1.888,1.888,1.888h9.775v18.261
		c0,1.042,0.845,1.888,1.888,1.888c1.042,0,1.888-0.846,1.888-1.888V95.194H207.192z M176.294,44.545h17.324
		c1.677,0.452,14.462,4.396,14.462,19.367c0,11.872-14.339,14.968-16.063,15.296h-15.723V44.545z"/>
</g>
</svg>
