<?xml version="1.0" encoding="utf-8"?>
<!-- Generator: Adobe Illustrator 17.0.0, SVG Export Plug-In . SVG Version: 6.00 Build 0)  -->
<!DOCTYPE svg PUBLIC "-//W3C//DTD SVG 1.1//EN" "http://www.w3.org/Graphics/SVG/1.1/DTD/svg11.dtd">
<svg version="1.1" id="Слой_1" xmlns="http://www.w3.org/2000/svg" xmlns:xlink="http://www.w3.org/1999/xlink" x="0px" y="0px"
	 width="406.831px" height="154.217px" viewBox="0 0 406.831 154.217" enable-background="new 0 0 406.831 154.217"
	 xml:space="preserve">
<path fill="#FFFFFF" d="M136.942,44.988l-0.222-1.511l0.055,1.455C136.832,44.96,136.889,44.981,136.942,44.988z"/>
<g>
	<path fill="#FFFFFF" d="M15.05,119.349c0.245,0.35,0.6,0.605,1.009,0.728l19.145,5.691c0.165,0.049,0.335,0.075,0.507,0.078
		l1.316,0.021c0.01,0,0.021,0,0.031,0c0.006,0,0.014,0,0.02,0c1.042,0,1.888-0.846,1.888-1.888c0-0.252-0.05-0.493-0.14-0.713
		c-0.644-2.653-0.97-5.379-0.97-8.105c0-18.948,15.415-34.363,34.363-34.363c18.949,0,34.364,15.415,34.364,34.363
		c0,3.181-0.447,6.356-1.329,9.439c-0.162,0.564-0.051,1.172,0.298,1.644c0.35,0.472,0.899,0.754,1.486,0.764l182.729,2.978
		c0.01,0,0.02,0,0.03,0c0.035,0,0.069-0.001,0.104-0.003l4.03-0.221c0.629-0.034,1.2-0.381,1.521-0.924
		c0.321-0.542,0.35-1.209,0.077-1.777c-2.229-4.648-3.36-9.632-3.36-14.812c0-18.947,15.415-34.362,34.364-34.362
		c18.948,0,34.364,15.415,34.364,34.362c0,3.867-0.649,7.68-1.929,11.332c-0.208,0.595-0.106,1.254,0.272,1.758
		c0.379,0.504,0.979,0.782,1.613,0.751l32.7-1.794c0.034,0.001,0.061-0.021,0.117,0.002c2.269-0.001,5.102-1.379,5.622-5.263
		c0.462-3.459-1.331-4.953-2.294-5.756c-0.068-0.058-0.148-0.123-0.219-0.186c0.242-0.853,1.203-2.767,2.243-4.434
		c0.187-0.3,0.287-0.646,0.287-1V77.133c0-0.264-0.055-0.524-0.162-0.765c-0.518-1.168-6.267-11.646-48.184-19.974
		c-21.524-4.277-40.643-5.528-52.065-6.275c-5.078-0.332-9.088-0.595-10.413-0.957c-1.017-0.278-5.093-2.74-9.409-5.348
		c-13.347-8.061-38.189-23.066-59.743-28.026c-21.743-5.003-45.922-5.581-62.219-5.581c-3.661,0-6.996,0.032-9.905,0.06
		c-2.239,0.021-4.226,0.04-5.912,0.04c-13.863,0-76.793,6.072-86.327,8.33c-1.051,0.249-1.961,0.422-2.74,0.569
		c-2.886,0.549-5.611,1.067-5.438,4.974c0.095,2.113,1.45,2.988,2.52,3.391c-1.35,1.132-3.807,2.847-5.891,4.299
		c-2.996,2.09-6.392,4.458-9.634,7.052c-7.989,6.391-16.315,15.008-17.69,16.934c-1.106,1.545-1.239,7.417-0.399,17.455
		L7.745,86.233c-0.183,0.298-0.28,0.64-0.28,0.989v20.697c0,0.388,0.119,0.766,0.341,1.082L15.05,119.349z M11.241,87.756
		l7.999-12.997c0.212-0.345,0.308-0.748,0.273-1.151c-0.552-6.407-0.812-14.136-0.284-15.641
		c1.321-1.753,9.364-10.056,16.917-16.099c3.145-2.516,6.487-4.847,9.435-6.902c5.989-4.177,8.073-5.712,8.329-7.499
		c0.239-1.675-0.684-2.778-2.745-3.28c-0.175-0.043-0.443-0.108-0.601-0.168c0-0.002,0-0.004,0-0.007
		c-0.013-0.289,0.006-0.447,0.021-0.523c0.335-0.19,1.403-0.393,2.352-0.574c0.826-0.157,1.79-0.341,2.904-0.604
		c9.418-2.23,71.713-8.228,85.457-8.228c1.697,0,3.695-0.02,5.948-0.041c2.898-0.027,6.221-0.059,9.869-0.059
		c2.242,0,4.648,0.014,7.164,0.046c-0.245,0.238-0.464,0.509-0.626,0.845c-0.165,0.346-0.461,0.4-0.716,0.148
		c-0.405-0.403-0.986-0.649-1.607-0.66c-0.917,0-1.744,0.434-2.268,1.192c-0.296,0.427-0.466,0.92-0.507,1.43
		c-0.254-0.107-0.519-0.161-0.795-0.161c-0.395,0-0.985,0.119-1.55,0.685c-0.479,0.477-0.742,1.127-0.728,1.773
		c-0.341-0.084-0.711-0.128-1.105-0.128c-2.143,0-4.604,1.225-5.85,2.912c-0.246,0.334-0.443,0.682-0.59,1.039
		c-1.555-2.147-3.038-3.234-4.42-3.234c-0.118,0-0.235,0.008-0.357,0.024c-1.342,0.182-2.131,1.354-2.828,2.389
		c-0.281,0.418-0.595,0.884-0.861,1.14c-0.475-0.242-1.049-0.365-1.707-0.365l-0.202,0.004c-0.497,0.021-0.912,0.184-1.214,0.302
		c-0.077,0.03-0.153,0.062-0.229,0.086c-0.196,0.063-0.478,0.147-0.664,0.147c-0.079,0-0.116-0.012-0.189-0.066
		c-0.307-0.224-0.704-0.353-1.089-0.353c-0.254,0-0.574,0.078-0.797,0.201c-0.476,0.262-0.946,0.532-1.46,0.828l-0.422,0.243
		c-0.417,0.239-0.695,0.663-0.749,1.14c-0.054,0.478,0.123,0.952,0.476,1.278c0.065,0.061,0.119,0.116,0.167,0.165
		c0.164,0.168,0.37,0.378,0.742,0.581c0.002,0.003,0.048,0.077,0.078,0.366c0.081,0.784,0.449,1.622,1.007,2.301
		c0.044,0.053,0.078,0.097,0.105,0.133c-0.006,0.009-0.013,0.018-0.019,0.027c-0.49,0.688-1.123,1.028-1.987,1.073
		c-0.218,0.01-0.435,0.042-0.65,0.077l-0.197,0.031c-0.515,0.069-0.958,0.399-1.173,0.871l-0.065,0.139
		c-0.183,0.389-0.183,0.837-0.017,1.231c0.167,0.395,0.503,0.702,0.908,0.843c0.062,0.069,0.159,0.359,0.223,0.551
		c0.039,0.117,0.079,0.233,0.121,0.351c0.215,0.588,0.669,1.108,1.209,1.397c0.011,0.122,0.025,0.248,0.043,0.379
		c-1.494,1.177-1.814,3.031-0.771,4.756c1.11,1.834,2.864,2.792,5.216,2.851c-0.056,0.045-0.126,0.095-0.214,0.151
		c-0.443,0.272-0.666,0.663-0.82,0.934c-0.238,0.344-0.322,0.771-0.233,1.179c0.088,0.408,0.342,0.762,0.701,0.976l0.122,0.075
		c0.189,0.118,0.381,0.232,0.584,0.323c0.169,0.075,0.332,0.113,0.484,0.137c-24.292-0.282-51.602-0.501-58.466-0.554
		c0.133-1.262,0.369-2.843,0.738-3.764c0.881-2.203,4.794-9.977,18.167-17.482c0.727-0.408,0.986-1.328,0.578-2.056
		c-0.408-0.726-1.327-0.986-2.056-0.577c-14.235,7.989-18.519,16.559-19.493,18.993c-0.847,2.113-1.056,5.885-1.077,6.308
		c-0.021,0.411,0.128,0.812,0.411,1.112c0.282,0.299,0.675,0.47,1.086,0.473c0.625,0.005,50.615,0.382,80.076,0.829
		c0.297,0.723,0.695,1.418,1.198,2.079c0.329,0.432,0.416,0.847,0.292,1.387l-0.396,1.702c-0.13,0.558,0.067,1.141,0.509,1.506
		c0.441,0.365,1.051,0.451,1.575,0.216c0.009-0.004,0.017-0.008,0.026-0.011c-0.019,0.662,0.387,1.707,1.34,1.97
		c0.303,0.087,0.559,0.384,0.95,0.863c0.118,0.145,0.236,0.288,0.357,0.426c0.1,0.114,0.248,0.284,0.336,0.408
		c-0.002,0.004-0.005,0.007-0.008,0.011c-0.371,0.451-0.448,1.075-0.198,1.603c0.249,0.528,0.781,0.864,1.365,0.864
		c0.145,0,0.271-0.004,0.387-0.008l0.219-0.005c1.972,0.304,2.63,0.702,2.931,1.778c0.162,0.578,0.662,1.617,2.196,2.086
		c0.703,0.213,1.138,0.673,1.411,1.492c0.295,0.887,0.812,1.535,1.579,1.984c0.556,0.325,1.003,0.787,1.409,1.454
		c0.367,0.605,1.019,1.115,1.7,1.329c1.328,0.417,1.832,0.783,2.076,1.51c0.158,0.474,0.564,0.821,1.044,0.956
		c0.483,0.14,1.021,0.009,1.403-0.312c0.129-0.094,0.354-0.256,0.54-0.54c0.036,0.014,0.078,0.033,0.124,0.06
		c0.114,0.065,0.225,0.134,0.336,0.203c0.264,0.163,0.529,0.323,0.796,0.45c0.325,0.159,0.656,0.192,0.877,0.192
		c0.373,0,0.713-0.09,0.994-0.257c0.914,0.289,1.748,1.284,1.944,2.357l0.194,0.998c0.085,0.435,0.356,0.809,0.741,1.025
		c0.385,0.217,0.846,0.255,1.261,0.103c0.371-0.138,0.661-0.152,0.983-0.043c-0.057,0.139-0.088,0.267-0.116,0.376
		c-0.159,0.536-0.008,1.116,0.391,1.508c0.4,0.392,0.984,0.528,1.516,0.359l1.888-0.599l0.226,0.36
		c0.222,0.357,0.444,0.715,0.687,1.052c0.022,0.031,0.039,0.057,0.052,0.078c-0.007,0.009-0.014,0.019-0.022,0.028
		c-0.574,0.702-0.613,1.911-0.085,2.642c0.391,0.539,1.166,1.084,2.013,1.084c0.029,0,0.177-0.004,0.206-0.006
		c0.08,0,0.124,0.006,0.131,0.005c0.019,0.021,0.073,0.09,0.146,0.253c0.264,0.586,0.817,1.106,1.474,1.39
		c0.26,0.113,0.529,0.171,0.8,0.171c0.751,0,1.244-0.405,1.542-0.762c0.5,0.638,0.757,1.201,0.801,1.749
		c0.102,1.266,0.458,2.678,0.801,4.044c0.179,0.713,0.356,1.411,0.483,2.055c0.172,0.855,0.547,1.665,0.879,2.38
		c0.267,0.576,0.715,1.542,0.604,1.814c-0.035,0.085-0.266,0.31-0.877,0.543c-2.17,0.799-2.642,3.956-2.148,6.731
		c0.483,2.713,1.793,4.332,3.504,4.332c2.171,0,3.541-2.578,4.383-4.518c0.145-0.333,0.357-0.742,0.588-1.189
		c0.801-1.556,1.708-3.314,1.631-4.86c0.201-0.391,0.331-0.769,0.439-1.082c0.054-0.156,0.123-0.356,0.179-0.479
		c0.118,0.017,0.304,0.064,0.447,0.102l0.262,0.066c0.217,0.052,0.514,0.122,0.853,0.122c0.686,0,1.301-0.296,1.738-0.839
		c0.613-0.771,0.656-1.681,0.129-2.698c-0.096-0.188-0.162-0.379-0.179-0.517c-0.035-0.295-0.047-0.594-0.06-0.892
		c-0.016-0.37-0.033-0.74-0.076-1.104c-0.083-0.714-0.54-1.298-0.94-1.605c-0.245-0.188-0.507-0.359-0.77-0.527
		c-0.293-0.188-0.57-0.364-0.743-0.54c-0.86-0.867-1.8-1.223-2.998-1.11l0.151,1.503l-0.26-1.52c0.02-0.203,0.169-0.533,0.313-0.852
		c0.108-0.24,0.216-0.48,0.329-0.776c0.11-0.264,0.369-0.879,0.091-1.564c0.001-0.009,0.006-0.088,0.126-0.319
		c0.262-0.507,0.527-1.012,0.793-1.517l0.696-1.329c0.271-0.521,0.548-0.822,0.899-0.979c0.066-0.029,0.133-0.045,0.209-0.063
		c0.559,0.987,1.408,1.641,2.452,1.89c0.722,0.173,1.415,0.815,2.15,1.495c0.893,0.826,1.905,1.764,3.281,2.14
		c0.396,0.108,0.822,0.163,1.269,0.163c1.345,0,3.147-0.535,3.802-2.044c0.283-0.652,0.54-1.979-0.918-3.539
		c-0.399-0.428-0.821-0.786-1.228-1.133c-0.246-0.208-0.492-0.416-0.723-0.637c-0.223-0.212-0.432-0.443-0.641-0.673
		c-0.454-0.498-0.968-1.062-1.625-1.507c-0.582-0.395-1.204-0.627-1.753-0.832c-0.369-0.138-0.718-0.268-0.991-0.424
		c-0.973-0.555-1.901-1.167-2.884-1.814l-0.893-0.586c-1.007-0.654-2.042-1.008-3.167-1.079c-0.317-0.021-0.655-0.11-0.928-0.247
		c-1.335-0.67-2.656-1.365-3.978-2.062l-1.771-0.93c-0.082-0.042-0.144-0.08-0.189-0.112c0.027-0.039,0.063-0.086,0.112-0.141
		c0.041-0.041,0.182-0.132,0.285-0.197c0.212-0.137,0.477-0.308,0.732-0.549c0.309-0.292,1.032-0.978,1.066-1.943
		c0.03-1.006-0.808-1.946-1.592-2.237c-0.581-0.22-1.33-0.286-2.038-0.24c-0.674,0.042-1.347,0.103-2.02,0.164
		c-1.058,0.096-2.057,0.187-3.058,0.205l-0.183,0.002c-1.164,0-1.946-0.223-2.535-0.721c-0.567-0.479-1.139-0.953-1.71-1.427
		c-0.829-0.687-1.658-1.374-2.471-2.079c-1.793-1.556-2.845-3.601-3.216-6.251c-0.204-1.456-0.632-2.832-1.251-4.166
		c29.371,1.348,89.028,4.704,89.732,4.744c0.029,0.001,0.058,0.002,0.086,0.002c0.795,0,1.461-0.621,1.506-1.425
		c0.047-0.833-0.59-1.546-1.423-1.593c-0.725-0.041-63.841-3.593-92.233-4.858l-0.896-0.576c-1.669-1.073-3.337-2.146-5.024-3.185
		c-0.952-0.587-1.517-1.111-1.889-1.75c-0.9-1.548-1.253-3.32-1.475-5.034c0.554,0.049,1.116-0.213,1.424-0.715l0.14-0.229
		c0.112-0.185,0.226-0.37,0.342-0.555c0.406-0.641,0.387-1.204,0.299-1.563c-0.129-0.529-0.471-0.959-1.017-1.278
		c-0.835-0.488-0.786-0.819-0.752-1.038l0.054-0.38c0.186-1.336,0.303-1.493,0.773-1.639c0.361-0.112,0.663-0.275,0.905-0.406
		c0.113-0.061,0.225-0.126,0.348-0.174c0.464-0.181,0.941-0.443,1.446-0.722c0.551-0.302,1.382-0.76,1.773-0.79
		c0.212,0,0.551,0.133,0.879,0.263c0.528,0.207,1.126,0.443,1.834,0.443c0.021,0,0.103-0.002,0.123-0.003
		c0.78-0.031,1.463-0.384,1.922-0.992c1.128-1.492,0.62-4.119,0.055-6.464c-0.041-0.171-0.075-0.31-0.097-0.412
		c-0.977-4.603-3.302-5.014-6.245-5.533c-0.529-0.094-1.11-0.195-1.749-0.331c-1.365-0.289-1.715-0.841-1.887-1.387
		c-0.055-0.179-0.266-0.683-0.782-1.04c13.788,0.491,29.777,1.81,44.561,5.212c20.965,4.824,45.472,19.626,58.638,27.578
		c5.971,3.606,8.905,5.357,10.364,5.757c1.693,0.464,5.257,0.697,11.162,1.083c11.331,0.741,30.294,1.982,51.577,6.212
		c36.318,7.216,44.168,16.002,45.306,17.559v29.47c-0.955,1.578-2.586,4.522-2.586,6.226c0,1.466,0.983,2.285,1.634,2.827
		c0.745,0.621,1.155,0.963,0.969,2.356c-0.176,1.318-0.809,1.987-1.864,1.989c-0.082-0.006-0.164-0.007-0.249-0.003l-30.081,1.65
		c0.875-3.232,1.317-6.559,1.317-9.923c0-21.029-17.109-38.138-38.139-38.138c-21.03,0-38.14,17.108-38.14,38.138
		c0,4.812,0.88,9.474,2.619,13.892l-1.251,0.068l-91.567-1.492c0.001-0.055,0.011-0.109,0.006-0.165
		c-0.016-0.185-0.039-0.366-0.061-0.546c-0.034-0.266-0.066-0.517-0.054-0.696c0.007-0.109,0.019-0.312,0.499-0.621
		c0.293-0.188,0.98-0.626,1.121-1.491c0.141-0.866-0.385-1.517-0.609-1.793l-0.232-0.279c-0.055-0.066-0.11-0.131-0.162-0.194
		c0.047-0.144,0.074-0.294,0.077-0.447c0.009-0.466-0.197-0.909-0.559-1.203l-0.211-0.168c-0.101-0.079-0.201-0.156-0.322-0.26
		c-0.07-0.269,0.332-1.181,0.574-1.726c0.557-1.262,1.25-2.832,0.757-4.441c-0.241-0.786-0.604-1.471-1.079-2.036
		c-0.811-0.965-1.887-1.496-3.028-1.496c-1.248,0-2.456,0.646-3.343,1.774c-1.574,0.453-2.69,0.529-3.793,0.27
		c-0.579-0.139-1.229-0.015-1.746,0.111c-0.241,0.06-0.476,0.151-0.708,0.248c-0.089,0.036-0.174,0.081-0.265,0.101
		c-0.553,0.093-0.968-0.132-1.005-0.22c-0.244-0.581-0.782-0.963-1.4-0.926c-0.043-0.047-0.098-0.111-0.165-0.194
		c-0.182-0.22-0.847-0.938-1.788-0.938c-0.062,0-0.158,0.006-0.219,0.013c-0.488,0.061-0.91,0.215-1.281,0.351
		c-0.119,0.043-0.24,0.088-0.365,0.129c-0.51,0.165-0.889,0.587-1.006,1.101c-0.003-0.003-0.006-0.007-0.01-0.012
		c-0.094-0.115-0.184-0.234-0.275-0.355l-0.133-0.176c-0.28-0.366-0.713-0.584-1.174-0.592c-0.501-0.01-0.901,0.196-1.193,0.553
		c-0.054,0.066-0.105,0.134-0.161,0.214c-1.358,0.682-1.803,1.915-2.135,2.834l-0.105,0.286c-0.583,1.557-0.072,3.095,1.301,3.915
		l0.116,0.066c0.383,0.771,1.097,1.219,1.987,1.219c0.203,0,0.419-0.026,0.637-0.058l0.107-0.015
		c0.191-0.027,0.382-0.058,0.573-0.089c0.384,0.487,1.059,0.918,1.773,0.834c0.335-0.032,0.554,0.026,1.227,0.838
		c0.353,0.423,1.091,1.152,2.068,1.284c0.407,0.058,0.727,0.22,1.141,0.582c1.133,0.987,2.307,1.468,3.589,1.468l0.423-0.01
		c1.029,0,1.696,0.265,2.271,1.66c0.115,0.279,0.346,0.832,0.84,1.175l-81.215-1.323c0.583-2.67,0.878-5.388,0.878-8.11
		c0-21.029-17.109-38.139-38.14-38.139c-21.03,0-38.139,17.109-38.139,38.139c0,2.178,0.188,4.354,0.559,6.5l-16.875-5.017
		l-6.524-9.32V87.756z M136.942,44.988c-0.053-0.007-0.11-0.027-0.167-0.056l-0.055-1.455L136.942,44.988z M141.858,46.749
		c0.621-0.535,0.757-1.34,0.787-1.66c0.002-0.014,0.003-0.025,0.004-0.036c1.158-0.265,1.932-1.002,2.237-2.135
		c0.068-0.255,0.212-0.401,0.443-0.45c0.615-0.132,1.273-0.169,1.892-0.09c1.342,0.166,2.56,0.83,3.722,2.029
		c0.466,0.482,0.947,0.951,1.383,1.376l0.491,0.48c0.417,0.41,1.033,0.545,1.582,0.342c0.093-0.034,0.181-0.07,0.262-0.106
		c0.739,0.345,1.476,1.165,1.447,1.884c-0.008,0.214-0.005,0.425,0.001,0.635c-5.605-0.084-11.915-0.165-18.466-0.242
		C139.444,48.659,140.758,47.683,141.858,46.749z M209.87,95.038c0.408,0.413,0.862,0.703,1.262,0.959
		c0.123,0.079,0.246,0.157,0.366,0.239c0.015,0.193,0.022,0.389,0.031,0.583c0.016,0.374,0.034,0.748,0.079,1.126
		c0.016,0.131,0.04,0.264,0.069,0.396c-0.241-0.026-0.497-0.034-0.763,0.001c-1.812,0.236-2.319,1.708-2.592,2.498
		c-0.098,0.284-0.19,0.552-0.313,0.765c-0.239,0.415-0.332,0.911-0.285,1.515c0.05,0.642-0.83,2.348-1.302,3.264
		c-0.266,0.516-0.507,0.988-0.674,1.371c-0.733,1.69-1.284,2.345-1.55,2.586c-0.263-0.389-0.631-1.348-0.708-2.711
		c-0.078-1.385,0.222-2.261,0.348-2.391c1.36-0.519,2.215-1.249,2.616-2.233c0.605-1.489-0.068-2.941-0.662-4.223
		c-0.274-0.59-0.556-1.199-0.657-1.701c-0.136-0.686-0.324-1.436-0.516-2.2c-0.313-1.246-0.638-2.534-0.72-3.551
		c-0.144-1.782-1.162-3.102-1.916-3.939c-0.492-0.546-1.191-0.86-1.918-0.86c-0.544,0-1.06,0.168-1.492,0.471
		c-0.452-0.611-1.039-1.001-1.754-1.164c0.268-0.869,0.092-1.78-0.531-2.652c-0.205-0.286-0.39-0.586-0.576-0.886l-0.301-0.48
		c-0.294-0.459-0.905-1.414-2.159-1.414c-0.323,0-0.635,0.066-0.932,0.15c-0.375-0.682-1.062-1.044-1.391-1.218
		c-0.649-0.343-1.322-0.525-2.001-0.541c-0.574-2.167-2.32-3.925-4.434-4.367c-0.308-0.07-0.961-0.137-1.447,0.067
		c-0.003-0.002-0.007-0.004-0.011-0.006c-0.143-0.089-0.285-0.176-0.431-0.259c-0.925-0.526-1.983-0.617-2.81-0.282
		c-0.981-1.024-2.251-1.425-2.99-1.662c-0.667-1.099-1.475-1.915-2.466-2.493c-0.098-0.058-0.162-0.104-0.238-0.333
		c-0.581-1.743-1.756-2.929-3.396-3.427c-0.105-0.031-0.165-0.067-0.181-0.058c-0.776-2.691-2.997-3.454-4.548-3.763
		c-0.155-0.928-0.785-1.648-1.106-2.017c-0.1-0.113-0.196-0.231-0.292-0.349c-0.389-0.477-0.886-1.084-1.633-1.508
		c-0.079-0.752-0.339-1.359-0.779-1.812c-0.265-0.273-0.581-0.475-0.934-0.598c0.233-1.313-0.07-2.565-0.884-3.633
		c-0.878-1.157-1.279-2.398-1.223-3.797c0.098-2.47-2.041-4.548-4.086-5.06c-0.25-0.06-0.578-0.056-0.8-0.011
		c-0.362-0.353-0.749-0.732-1.126-1.124c-1.639-1.691-3.497-2.677-5.519-2.927c-0.949-0.12-1.95-0.069-2.896,0.133
		c-1.321,0.28-2.33,1.23-2.725,2.595c-1.303,0.293-2.14,1.216-2.318,2.546c-0.094,0.077-0.186,0.151-0.276,0.221
		c0.01-0.157,0.009-0.317-0.002-0.482c-0.143-2.112-1.641-2.428-2.521-2.428l-0.194,0.004c-1.531,0.047-2.503-0.351-3.134-1.393
		c-0.302-0.498-0.221-0.658,0.195-0.916c0.917-0.569,1.28-1.448,1.023-2.477c-0.044-0.178-0.064-0.416-0.091-0.727
		c-0.08-0.938-0.58-1.659-1.415-2.056l-0.035-0.103c-0.011-0.034-0.023-0.069-0.035-0.104c1.034-0.375,1.912-1.05,2.589-2
		c1.224-1.719,0.464-3.011-0.214-3.833c-0.197-0.239-0.317-0.53-0.335-0.693c-0.022-0.215-0.065-0.624-0.24-1.084
		c0.734,0.103,1.502-0.077,2.075-0.262c0.133-0.043,0.267-0.095,0.4-0.146c0.094-0.037,0.186-0.082,0.314-0.098
		c0.202,0,0.316,0.028,0.33,0.032c1.046,0.577,2.122,0.521,3.03-0.14c0.714-0.518,1.245-1.306,1.713-2.001
		c0.214-0.318,0.55-0.817,0.771-1.038c0.438,0.214,1.512,1.188,2.854,3.427c0.408,0.681,0.817,1.169,1.286,1.533
		c0.361,0.282,0.78,0.432,1.211,0.432c1.041,0,1.846-0.847,1.871-1.969c0.008-0.34,0.019-0.853-0.142-1.375
		c-0.07-0.229-0.119-0.595,0.269-1.119c0.745-1.009,2.371-1.686,3.421-1.686c0.297,0,0.452,0.057,0.434,0.004
		c0.144,0.352,0.41,1.001,1.04,1.399c0.649,0.405,1.591,0.494,2.253,0.191c0.938-0.432,1.109-1.489,1.165-1.844
		c0.056-0.354,0.013-0.656-0.015-0.856l-0.017-0.013c0.009-0.091,0.022-0.22,0.025-0.375c0.916,0.083,1.757-0.336,2.177-1.105
		c0.276-0.508,0.371-1.163,0.27-1.751c0.484,0.25,1.016,0.383,1.56,0.383c1.294,0,2.466-0.75,3.085-1.979
		c0.015-0.001,0.034,0.006,0.05-0.001l0.15,0.002c0.483,0,0.946-0.062,1.354-0.115l0.367-0.047c0.187-0.021,0.378-0.062,0.567-0.104
		c0.066-0.015,0.13-0.033,0.181-0.043c0.703,0.126,1.392,0.094,2.067-0.094c0.186,0.278,0.469,0.577,0.898,0.817
		c0.653,1.567,1.991,2.573,3.982,2.995c0.676,0.143,1.29,0.251,1.849,0.351c2.764,0.487,3.262,0.575,3.816,3.185
		c0.025,0.121,0.065,0.289,0.115,0.493c0.52,2.163,0.583,3.179,0.528,3.656c-0.137-0.047-0.291-0.107-0.421-0.158
		c-0.599-0.236-1.378-0.533-2.268-0.461c-0.999,0.082-1.989,0.627-2.946,1.153c-0.417,0.229-0.81,0.445-1.086,0.553
		c-0.236,0.092-0.463,0.209-0.688,0.331c-0.141,0.076-0.287,0.155-0.365,0.18c-2.403,0.741-2.695,2.849-2.87,4.107l-0.049,0.344
		c-0.123,0.813-0.045,1.861,0.729,2.848c-0.486,0.303-0.948,0.891-1.159,2.005c-0.044,0.23-0.112,0.578-0.063,0.978
		c0.258,2.144,0.669,4.421,1.908,6.553c0.808,1.388,1.981,2.227,2.915,2.803c1.671,1.028,3.323,2.091,4.975,3.153l1.23,0.791
		c1.027,1.587,1.645,3.21,1.89,4.959c0.471,3.357,1.893,6.087,4.228,8.113c0.831,0.721,1.678,1.422,2.524,2.123
		c0.564,0.467,1.127,0.934,1.686,1.407c1.521,1.286,3.289,1.435,4.486,1.435l0.238-0.002c1.111-0.021,2.211-0.121,3.275-0.217
		c0.372-0.034,0.745-0.068,1.118-0.099c-0.025,0.026-0.05,0.054-0.075,0.082c-0.961,1.083-1.022,2.072-0.904,2.711
		c0.119,0.645,0.535,1.555,1.838,2.232l1.76,0.924c1.339,0.705,2.678,1.409,4.03,2.088c0.632,0.317,1.376,0.517,2.092,0.562
		c0.601,0.038,1.145,0.229,1.712,0.597l0.877,0.576c0.98,0.646,1.993,1.312,3.051,1.917c0.485,0.275,0.986,0.463,1.429,0.629
		c0.429,0.16,0.833,0.312,1.116,0.503c0.359,0.243,0.713,0.631,1.087,1.042c0.257,0.281,0.515,0.562,0.789,0.824
		c0.273,0.26,0.561,0.506,0.849,0.751c0.358,0.305,0.697,0.593,0.979,0.895c0.122,0.13,0.198,0.232,0.247,0.308
		c-0.185,0.093-0.517,0.193-0.925,0.193c-0.175,0-0.338-0.02-0.472-0.056c-0.663-0.182-1.326-0.795-2.027-1.444
		c-0.941-0.871-2.007-1.857-3.499-2.216c-0.158-0.038-0.345-0.12-0.522-0.434c-0.76-1.358-2.544-1.895-4.066-1.215
		c-0.992,0.44-1.761,1.206-2.355,2.346l-0.688,1.315c-0.27,0.512-0.539,1.023-0.805,1.539c-0.165,0.322-0.624,1.213-0.399,2.305
		c-0.064,0.165-0.139,0.329-0.213,0.493c-0.234,0.518-0.499,1.104-0.568,1.806c-0.085,0.885,0.18,1.716,0.749,2.342
		c0.653,0.72,1.605,1.074,2.668,0.973C209.486,94.79,209.558,94.723,209.87,95.038z M195.492,118.921
		c0.005,0.38,0.12,0.798,0.389,1.244c0.115,0.194,0.24,0.368,0.365,0.528c-0.577,0.536-0.944,1.165-1.098,1.879
		c-0.467-0.118-0.933-0.086-1.311,0.109c-0.094-0.009-0.364-0.151-0.543-0.245c-0.211-0.11-0.45-0.236-0.72-0.344
		c-0.989-2.256-2.623-3.353-4.989-3.353c-0.109,0-0.22,0.002-0.423,0.009c-0.542,0-1.022-0.217-1.604-0.725
		c-0.827-0.721-1.659-1.13-2.618-1.282c-0.054-0.036-0.155-0.119-0.254-0.237c-0.533-0.643-1.502-1.811-3.17-1.925
		c-0.476-0.568-1.137-0.875-1.906-0.875c-0.15,0-0.307,0.012-0.48,0.038l-0.247,0.039c-0.124,0.021-0.249,0.041-0.372,0.059
		c-0.282-0.387-0.67-0.602-0.912-0.734l-0.102-0.057c-0.045-0.027-0.067-0.047-0.073-0.049c-0.001-0.022,0-0.092,0.047-0.217
		l0.117-0.319c0.202-0.561,0.325-0.854,0.474-1.021c0.812,0.635,1.886,0.858,2.807,0.568c0.572-0.18,1.24-0.563,1.629-1.382
		c0.3,0.312,0.725,0.658,1.301,0.821c0.833,0.948,2.259,1.439,3.757,1.185c0.376-0.062,0.682-0.189,0.927-0.291
		c0.089-0.037,0.176-0.08,0.313-0.114c0.112-0.027,0.274-0.067,0.358-0.077c1.581,0.358,3.192,0.269,5.252-0.324
		c0.562-0.162,1.091-0.512,1.451-0.958c0.358-0.443,0.743-0.698,1.055-0.698c0.316,0,0.585,0.264,0.716,0.42
		c0.21,0.249,0.384,0.588,0.504,0.979c0.163,0.533-0.259,1.49-0.632,2.335C194.89,115.287,193.982,117.34,195.492,118.921z"/>
	<path fill="#FFFFFF" d="M326.699,81.997c-17.446,0-31.64,14.192-31.64,31.638c0,17.446,14.193,31.641,31.64,31.641
		c17.446,0,31.639-14.194,31.639-31.641C358.338,96.189,344.145,81.997,326.699,81.997z M326.699,141.5
		c-15.364,0-27.864-12.5-27.864-27.865c0-15.363,12.5-27.862,27.864-27.862c15.364,0,27.864,12.499,27.864,27.862
		C354.563,129,342.063,141.5,326.699,141.5z"/>
	<path fill="#FFFFFF" d="M72.385,84.908c-17.445,0-31.639,14.193-31.639,31.639c0,17.446,14.193,31.641,31.639,31.641
		c17.446,0,31.64-14.194,31.64-31.641C104.024,99.101,89.831,84.908,72.385,84.908z M72.385,144.412
		c-15.364,0-27.863-12.5-27.863-27.865c0-15.364,12.5-27.863,27.863-27.863c15.364,0,27.864,12.499,27.864,27.863
		C100.249,131.912,87.749,144.412,72.385,144.412z"/>
	<path fill="#FFFFFF" d="M144.059,98.657c-0.014,0-0.029,0.003-0.045,0.008l0.045,1.503L144.059,98.657z"/>
	<path fill="#FFFFFF" d="M138.249,82.113c0.089,0.71,0.658,1.244,1.342,1.314c0.024,0.1,0.045,0.199,0.066,0.299
		c0.128,0.599,0.298,1.391,0.884,2.099c0.002,0.303-0.023,0.606-0.048,0.909l-0.017,0.224c-0.562,0.223-0.954,0.771-0.954,1.404
		v1.006c0,0.406,0.164,0.795,0.454,1.079c0.12,0.117,0.257,0.212,0.405,0.283c-0.283,0.299-0.428,0.721-0.41,1.159
		c0.001,0.009,0.001,0.019,0.001,0.028l-0.072,0.254c-0.195,0.681-0.39,1.361-0.552,2.048c-0.111,0.465-0.05,0.876-0.01,1.147
		c0.008,0.055,0.019,0.108,0.021,0.164c0.006,0.124,0.021,0.257,0.038,0.389c-0.27,0.62-0.459,1.676,0.593,2.739
		c0.468,0.473,0.792,1.062,0.914,1.658c0.136,0.664,0.696,1.156,1.372,1.204c0.183,0.014,0.355,0.02,0.519,0.024
		c0.205,0.007,0.399,0.013,0.495,0.036c0.256,0.063,0.515,0.096,0.768,0.096c1.354,0,2.446-0.912,2.716-2.268
		c0.033-0.165,0.059-0.332,0.084-0.499c0.024-0.162,0.045-0.325,0.088-0.484c0.029-0.111,0.081-0.195,0.121-0.195
		c0.017,0,0.078,0.006,0.177,0.075c0.097,0.067,0.186,0.148,0.275,0.227c0.101,0.088,0.202,0.176,0.308,0.261
		c0.572,0.455,1.126,0.677,1.692,0.677c0,0,0,0,0.001,0c0.492,0,1.688-0.188,2.16-1.948c0.044-0.168,0.076-0.337,0.103-0.511
		l0.289-1.889c0.331-2.16,0.663-4.32,0.966-6.484c0.094-0.676-0.064-1.457-0.423-2.092c-0.054-0.094-0.099-0.174-0.134-0.241
		c0.035-0.05,0.079-0.111,0.135-0.188c0.145-0.197,0.286-0.396,0.425-0.602c0.438-0.652,0.506-1.544,0.228-2.979
		c-0.347-1.799-1.209-4.214-1.747-5.17c-0.609-1.082-1.366-2.429-2.923-2.429c-0.915,0-1.774,0.473-3.04,1.348
		c-0.262,0.181-0.521,0.368-0.78,0.555c-0.539,0.39-1.048,0.758-1.57,1.061c-0.617,0.356-0.95,0.432-1.12,0.432
		c-0.001,0-0.001,0-0.001,0c-0.1,0-0.36-0.003-1-0.71c-0.369-0.406-0.93-0.584-1.464-0.456c-0.535,0.125-0.959,0.531-1.108,1.06
		l-0.092,0.323c-0.08,0.281-0.165,0.578-0.262,0.936c-0.057,0.197-0.152,0.527-0.116,0.942c0.038,0.406,0.091,0.812,0.145,1.222
		L138.249,82.113z M147.276,78.77c0.595-0.41,0.945-0.618,1.135-0.72c0.171,0.252,0.391,0.642,0.479,0.798
		c0.309,0.55,1.1,2.637,1.415,4.263c0.095,0.488,0.111,0.763,0.11,0.896c-0.074,0.106-0.15,0.213-0.228,0.318
		c-1.011,1.373-1.055,2.207-0.195,3.715c0.031,0.055,0.056,0.155,0.057,0.18c-0.301,2.151-0.63,4.299-0.96,6.445l-0.172,1.125
		c-0.566-0.379-1.203-0.579-1.848-0.579c-1.43,0-2.652,0.981-3.04,2.438c-0.071,0.266-0.115,0.539-0.156,0.812
		c-0.008,0.051-0.015,0.101-0.023,0.152c-0.117-0.023-0.231-0.039-0.344-0.051c-0.274-0.644-0.664-1.253-1.166-1.814
		c0.153-0.474,0.094-0.919,0.055-1.212c-0.006-0.051-0.015-0.101-0.018-0.146c-0.007-0.153-0.027-0.31-0.05-0.465
		c-0.005-0.035-0.012-0.07-0.016-0.105c0.148-0.609,0.321-1.213,0.494-1.816l0.034-0.118c0.282-0.172,0.557-0.436,0.71-0.852
		c0.24-0.646,0.356-1.334,0.335-1.99c-0.014-0.467-0.145-1.115-0.679-1.585c0.141-0.317,0.241-0.705,0.275-1.179l0.023-0.307
		c0.032-0.406,0.062-0.812,0.057-1.222c-0.005-0.33-0.019-1.208-0.656-1.813c-0.136-0.128-0.2-0.404-0.294-0.845
		c-0.034-0.16-0.069-0.319-0.109-0.479c-0.088-0.35-0.211-0.834-0.479-1.262c0.822,0.015,1.683-0.249,2.699-0.837
		c0.656-0.38,1.252-0.811,1.828-1.227C146.791,79.114,147.033,78.939,147.276,78.77z M144.014,98.665
		c0.016-0.005,0.032-0.008,0.045-0.008l-0.001,1.511L144.014,98.665z"/>
</g>
</svg>
