<?xml version="1.0" encoding="utf-8"?>
<!-- Generator: Adobe Illustrator 17.0.0, SVG Export Plug-In . SVG Version: 6.00 Build 0)  -->
<!DOCTYPE svg PUBLIC "-//W3C//DTD SVG 1.1//EN" "http://www.w3.org/Graphics/SVG/1.1/DTD/svg11.dtd">
<svg version="1.1" id="Layer_2" xmlns="http://www.w3.org/2000/svg" xmlns:xlink="http://www.w3.org/1999/xlink" x="0px" y="0px"
	 width="392.387px" height="71.727px" viewBox="0 0 392.387 71.727" enable-background="new 0 0 392.387 71.727"
	 xml:space="preserve">
<g>
	<path fill="none" d="M301.872,29.729h-21.984c-1.042,0-1.888-0.846-1.888-1.888v-7.389l-11.877-2.156l3.539,3.538
		c0.353,0.354,0.553,0.834,0.553,1.335c0,0.501-0.199,0.981-0.553,1.335l-4.672,4.672c-0.354,0.354-0.834,0.553-1.335,0.553h-16.988
		c-0.274,0-0.545-0.06-0.793-0.175l-9.05-4.191l-3.408-1.579h-10.151h-4.532c-1.042,0-1.888-0.846-1.888-1.888v-2.265h-1.888
		c-1.042,0-1.888-0.846-1.888-1.888V6.418h-46.114L111.102,25.85c-0.686,0.235-1.443,0.062-1.955-0.448l-3.304-3.304
		c-0.354-0.355-0.553-0.834-0.553-1.335v-7.712l-2.656-2.656c-0.354-0.354-0.553-0.834-0.553-1.335V3.775h-37.75v38.992l5.446,1.651
		c1.38-12.23,11.783-21.769,24.377-21.769c13.53,0,24.538,11.008,24.538,24.538c0,4.047-0.991,7.865-2.733,11.234l5.298,1.607
		l171.239,3.698l-1.638-2.948h-24.183c-0.764,0-1.452-0.46-1.744-1.165c-0.292-0.706-0.131-1.518,0.409-2.058l9.437-9.438
		c0.355-0.354,0.834-0.553,1.335-0.553h20.395c-0.002-0.126-0.01-0.251-0.01-0.377c0-6.592,2.618-12.58,6.862-16.993L301.872,29.729
		z M254.219,58.891c-0.01,0-0.021,0-0.03,0l-118.16-2.265c-0.513-0.01-0.986-0.28-1.256-0.717l-10.948-17.743
		c-0.273-0.443-0.299-0.996-0.068-1.463c0.231-0.467,0.687-0.782,1.206-0.833l44.473-4.376c-0.044-0.562-0.086-1.125-0.086-1.698
		c0-11.776,9.58-21.358,21.356-21.358c11.777,0,21.358,9.581,21.358,21.358c0,11.776-9.581,21.357-21.358,21.357
		c-10.164,0-18.677-7.143-20.821-16.668l-42.219,4.153l9.245,14.983l117.337,2.249c0.833,0.016,1.496,0.705,1.48,1.539
		C255.712,58.233,255.039,58.891,254.219,58.891z"/>
	<path fill="none" d="M264.429,21.941c-0.12,1.142-0.48,2.338-1.085,3.541l2.314-2.314L264.429,21.941z"/>
	<path fill="none" d="M173.682,34.111c1.932,7.611,8.82,13.267,17.023,13.267c9.695,0,17.583-7.887,17.583-17.582
		c0-9.695-7.888-17.582-17.583-17.582c-9.694,0-17.581,7.887-17.581,17.582c0,0.448,0.034,0.889,0.067,1.329
		C173.269,32.148,173.437,33.144,173.682,34.111z M184.981,26.108c-0.743,0.73-1.938,0.721-2.669-0.023
		c-0.731-0.743-0.721-1.938,0.022-2.669l7.424-7.299c0.543-0.534,1.354-0.688,2.053-0.395c0.701,0.295,1.158,0.981,1.158,1.741
		V38.73h5.538c1.042,0,1.888,0.846,1.888,1.888s-0.846,1.888-1.888,1.888h-14.85c-1.042,0-1.888-0.846-1.888-1.888
		s0.846-1.888,1.888-1.888h5.536V21.967L184.981,26.108z"/>
	<path fill="none" d="M221.816,19.676c0.026,0.108,0.055,0.229,0.082,0.332h11.934c0.274,0,0.545,0.06,0.793,0.175l3.906,1.809
		c0.839-0.256,1.561-0.644,1.973-1.25c0.479-0.706,0.557-1.678,0.415-2.753c-2.22,0.308-7.016,0.913-10.392,0.913
		c-1.375,0-2.515-0.101-3.147-0.362c-2.206-0.913-4.618-4.539-4.971-6.756c-0.221-1.382,0.292-2.151,0.761-2.553
		c1.301-1.116,3.134-0.855,4.9-0.603c0.828,0.118,1.685,0.24,2.504,0.24c1.446,0,3.92-0.592,5.623-1.064
		c-1.671-1.405-4.082-2.167-7.922-2.167c-4.431,0-8.036,3.606-8.036,8.037c0,0.944,0.543,3.07,0.971,4.083
		C221.554,18.571,221.705,19.21,221.816,19.676z"/>
	<path fill="none" d="M94.154,26.426c-11.448,0-20.763,9.315-20.763,20.763c0,11.448,9.314,20.763,20.763,20.763
		c11.448,0,20.763-9.314,20.763-20.763C114.917,35.74,105.603,26.426,94.154,26.426z M94.154,63.733
		c-9.123,0-16.546-7.422-16.546-16.545h1.51c0,8.29,6.745,15.035,15.036,15.035V63.733z M94.154,56.626
		c-5.204,0-9.438-4.233-9.438-9.438s4.233-9.438,9.438-9.438c5.203,0,9.437,4.233,9.437,9.438S99.357,56.626,94.154,56.626z
		 M109.188,45.58c0-8.29-6.744-15.035-15.034-15.035v-1.51c9.122,0,16.544,7.422,16.544,16.545H109.188z"/>
	<path fill="none" d="M321.036,42.28c-2.706,0-4.907,2.202-4.907,4.908c0,2.706,2.201,4.908,4.907,4.908
		c2.707,0,4.909-2.202,4.909-4.908C325.945,44.482,323.743,42.28,321.036,42.28z"/>
	<path fill="none" d="M381.084,53.999h-24.983c-1.048,0-1.897-0.85-1.897-1.897c0-1.048,0.85-1.897,1.897-1.897h11.101
		l-21.933-6.874c0.199,1.258,0.306,2.546,0.306,3.858c0,3-0.543,5.875-1.533,8.534l6.442,1.32c0.878,0.18,1.509,0.952,1.509,1.849
		v4.906h36.619v-9.813h-7.382C381.181,53.988,381.134,53.999,381.084,53.999z"/>
	<path fill="none" d="M261.433,20.629c-0.05-0.362-0.155-0.7-0.317-1.013c-0.104,0.205-0.211,0.407-0.317,0.607
		c-0.373,0.708-0.727,1.376-0.917,2.058c-0.133,0.477-0.493,0.859-0.962,1.021c-0.468,0.16-0.987,0.083-1.387-0.211
		c-0.102-0.074-0.193-0.164-0.277-0.265c-0.927,0.67-1.676,1.712-2.305,3.126h4.551C260.924,24.059,261.64,22.122,261.433,20.629z"
		/>
	<path fill="none" d="M227.645,11.618c-0.677-0.097-1.721-0.251-2.24-0.181c0.246,1.137,1.935,3.817,3.13,4.311
		c1.061,0.408,6.695-0.038,11.625-0.705c-0.276-0.795-0.584-1.574-0.864-2.282l-0.192-0.485c-0.271-0.688-0.562-1.323-0.886-1.913
		c-1.132,0.344-5.194,1.524-7.643,1.524C229.541,11.888,228.533,11.744,227.645,11.618z"/>
	<path fill="none" d="M321.036,26.426c-11.448,0-20.763,9.315-20.763,20.763c0,11.448,9.314,20.763,20.763,20.763
		c11.448,0,20.763-9.314,20.763-20.763C341.799,35.74,332.484,26.426,321.036,26.426z M321.038,64.537
		c-9.123,0-16.546-7.422-16.546-16.545h1.51c0,8.29,6.745,15.035,15.036,15.035V64.537z M321.036,56.626
		c-5.203,0-9.436-4.233-9.436-9.438s4.233-9.438,9.436-9.438c5.205,0,9.439,4.233,9.439,9.438S326.241,56.626,321.036,56.626z
		 M336.072,46.384c0-8.29-6.744-15.035-15.034-15.035v-1.51c9.122,0,16.544,7.422,16.544,16.545H336.072z"/>
	<path fill="none" d="M94.154,42.28c-2.706,0-4.908,2.202-4.908,4.908c0,2.706,2.202,4.908,4.908,4.908
		c2.706,0,4.907-2.202,4.907-4.908C99.062,44.482,96.86,42.28,94.154,42.28z"/>
	<path fill="#FFFFFF" d="M21.328,3.397h32.818c0.834,0,1.51-0.676,1.51-1.51c0-0.834-0.676-1.51-1.51-1.51H21.328
		c-0.834,0-1.51,0.676-1.51,1.51C19.818,2.722,20.494,3.397,21.328,3.397z"/>
	<path fill="#FFFFFF" d="M35.839,20.796c0-0.834-0.676-1.51-1.51-1.51H1.51c-0.834,0-1.51,0.676-1.51,1.51
		c0,0.834,0.676,1.51,1.51,1.51h32.819C35.163,22.306,35.839,21.63,35.839,20.796z"/>
	<path fill="#FFFFFF" d="M55.219,42.079H35.894c-0.834,0-1.51,0.676-1.51,1.51s0.676,1.51,1.51,1.51h19.325
		c0.834,0,1.51-0.676,1.51-1.51S56.053,42.079,55.219,42.079z"/>
	<path fill="#FFFFFF" d="M254.247,55.871L136.91,53.622l-9.245-14.983l42.219-4.153c2.145,9.525,10.657,16.668,20.821,16.668
		c11.777,0,21.358-9.581,21.358-21.357c0-11.776-9.581-21.358-21.358-21.358c-11.776,0-21.356,9.581-21.356,21.358
		c0,0.573,0.042,1.137,0.086,1.698l-44.473,4.376c-0.519,0.051-0.975,0.366-1.206,0.833c-0.231,0.467-0.205,1.02,0.068,1.463
		l10.948,17.743c0.27,0.437,0.743,0.707,1.256,0.717l118.16,2.265c0.01,0,0.021,0,0.03,0c0.82,0,1.493-0.657,1.509-1.48
		C255.743,56.576,255.08,55.887,254.247,55.871z M190.705,12.214c9.695,0,17.583,7.887,17.583,17.582
		c0,9.695-7.888,17.582-17.583,17.582c-8.203,0-15.092-5.655-17.023-13.267c-0.245-0.968-0.413-1.963-0.49-2.986
		c-0.033-0.441-0.067-0.881-0.067-1.329C173.124,20.101,181.011,12.214,190.705,12.214z"/>
	<path fill="#FFFFFF" d="M183.658,38.73c-1.042,0-1.888,0.846-1.888,1.888s0.846,1.888,1.888,1.888h14.85
		c1.042,0,1.888-0.846,1.888-1.888s-0.846-1.888-1.888-1.888h-5.538V17.464c0-0.761-0.457-1.446-1.158-1.741
		c-0.699-0.293-1.51-0.139-2.053,0.395l-7.424,7.299c-0.743,0.73-0.754,1.926-0.022,2.669c0.73,0.743,1.926,0.753,2.669,0.023
		l4.213-4.142V38.73H183.658z"/>
	<path fill="#FFFFFF" d="M390.499,50.209l-10.676-0.005l-35.648-11.173c-3.37-9.531-12.468-16.381-23.139-16.381
		c-5.346,0-10.295,1.724-14.329,4.638l-3.982-1.248c-0.183-0.058-0.373-0.087-0.564-0.087h-20.386v-7.077
		c0-0.912-0.652-1.694-1.551-1.857l-19.371-3.516c-0.814-0.147-1.626,0.25-2.009,0.981c-0.355,0.68-0.245,1.49,0.236,2.071
		c-0.003,0.015-0.011,0.026-0.014,0.041c-0.145,0.714-0.531,1.443-0.939,2.217c-0.066,0.125-0.133,0.25-0.198,0.377
		c-0.063,0.012-0.127,0.027-0.188,0.048c-2.705,0.876-4.65,2.97-5.943,6.401c-0.039,0.103-0.065,0.208-0.08,0.313h-4.635
		l-5.134-2.378c0.402-0.336,0.762-0.708,1.053-1.137c2.133-3.14,0.38-7.562-0.9-10.79l-0.188-0.477
		c-2.392-6.075-6.343-8.553-13.638-8.553c-6.097,0-11.056,4.96-11.056,11.057c0,0.602,0.118,1.385,0.29,2.181h-0.665V4.53
		c0-1.042-0.846-1.888-1.888-1.888h-48.321c-0.211,0-0.421,0.035-0.62,0.105l-55.036,19.148l-1.914-1.914v-7.712
		c0-0.501-0.199-0.981-0.553-1.335l-2.656-2.656v-6.39c0-1.042-0.846-1.888-1.888-1.888H62.443c-1.042,0-1.888,0.846-1.888,1.888
		v42.28c0,0.831,0.544,1.565,1.34,1.807l7.749,2.35c0.597,13.005,11.36,23.402,24.51,23.402c8.086,0,15.268-3.933,19.741-9.984
		l6.514,1.976c0.165,0.05,0.335,0.077,0.507,0.08l174.786,3.774c0.014,0.001,0.027,0.001,0.041,0.001c0.008,0,0.015,0,0.02,0
		c1.043,0,1.888-0.846,1.888-1.888c0-0.425-0.141-0.817-0.377-1.133l-3.654-6.578c-0.333-0.599-0.965-0.971-1.65-0.971h-20.736
		l5.663-5.663h19.961c1.979,11.559,12.065,20.386,24.18,20.386c9.152,0,17.145-5.04,21.362-12.487l5.818,1.192v5.254
		c0,1.042,0.846,1.888,1.888,1.888h40.395c1.042,0,1.888-0.846,1.888-1.888V52.097C392.387,51.055,391.541,50.209,390.499,50.209z
		 M264.429,21.941l1.228,1.227l-2.314,2.314C263.948,24.279,264.309,23.083,264.429,21.941z M257.255,22.827
		c0.084,0.101,0.176,0.19,0.277,0.265c0.399,0.294,0.919,0.371,1.387,0.211c0.469-0.162,0.829-0.544,0.962-1.021
		c0.19-0.682,0.544-1.35,0.917-2.058c0.106-0.2,0.213-0.402,0.317-0.607c0.162,0.312,0.268,0.65,0.317,1.013
		c0.207,1.493-0.509,3.43-1.932,5.324h-4.551C255.579,24.539,256.328,23.497,257.255,22.827z M239.103,12.276l0.192,0.485
		c0.28,0.708,0.588,1.487,0.864,2.282c-4.93,0.667-10.564,1.113-11.625,0.705c-1.195-0.494-2.884-3.175-3.13-4.311
		c0.52-0.07,1.563,0.084,2.24,0.181c0.889,0.126,1.896,0.269,2.93,0.269c2.448,0,6.511-1.181,7.643-1.524
		C238.54,10.953,238.832,11.589,239.103,12.276z M228.275,5.638c3.84,0,6.251,0.762,7.922,2.167
		c-1.703,0.472-4.177,1.064-5.623,1.064c-0.819,0-1.676-0.122-2.504-0.24c-1.767-0.252-3.6-0.513-4.9,0.603
		c-0.469,0.401-0.982,1.171-0.761,2.553c0.353,2.217,2.765,5.843,4.971,6.756c0.633,0.262,1.772,0.362,3.147,0.362
		c3.376,0,8.172-0.605,10.392-0.913c0.142,1.075,0.064,2.047-0.415,2.753c-0.412,0.606-1.134,0.994-1.973,1.25l-3.906-1.809
		c-0.248-0.115-0.519-0.175-0.793-0.175h-11.934c-0.027-0.103-0.056-0.224-0.082-0.332c-0.111-0.466-0.263-1.104-0.606-1.918
		c-0.428-1.013-0.971-3.139-0.971-4.083C220.239,9.243,223.845,5.638,228.275,5.638z M94.154,67.951
		c-11.448,0-20.763-9.314-20.763-20.763c0-11.448,9.314-20.763,20.763-20.763c11.448,0,20.763,9.315,20.763,20.763
		C114.917,58.637,105.603,67.951,94.154,67.951z M296.508,47.565h-20.395c-0.501,0-0.98,0.199-1.335,0.553l-9.437,9.438
		c-0.54,0.54-0.701,1.352-0.409,2.058c0.292,0.705,0.98,1.165,1.744,1.165h24.183l1.638,2.948l-171.239-3.698l-5.298-1.607
		c1.742-3.369,2.733-7.188,2.733-11.234c0-13.53-11.008-24.538-24.538-24.538c-12.594,0-22.997,9.538-24.377,21.769l-5.446-1.651
		V3.775h37.75v5.284c0,0.501,0.199,0.981,0.553,1.335l2.656,2.656v7.712c0,0.501,0.199,0.98,0.553,1.335l3.304,3.304
		c0.512,0.511,1.27,0.684,1.955,0.448l55.853-19.432h46.114v11.325c0,1.042,0.846,1.888,1.888,1.888h1.888v2.265
		c0,1.042,0.846,1.888,1.888,1.888h4.532h10.151l3.408,1.579l9.05,4.191c0.248,0.115,0.518,0.175,0.793,0.175h16.988
		c0.501,0,0.98-0.199,1.335-0.553l4.672-4.672c0.353-0.354,0.553-0.834,0.553-1.335c0-0.501-0.199-0.98-0.553-1.335l-3.539-3.538
		L278,20.452v7.389c0,1.042,0.846,1.888,1.888,1.888h21.984l1.488,0.467c-4.244,4.413-6.862,10.401-6.862,16.993
		C296.498,47.314,296.506,47.439,296.508,47.565z M321.036,67.951c-11.448,0-20.763-9.314-20.763-20.763
		c0-11.448,9.314-20.763,20.763-20.763c11.448,0,20.763,9.315,20.763,20.763C341.799,58.637,332.484,67.951,321.036,67.951z
		 M388.611,63.798h-36.619v-4.906c0-0.897-0.631-1.669-1.509-1.849l-6.442-1.32c0.99-2.659,1.533-5.534,1.533-8.534
		c0-1.312-0.106-2.601-0.306-3.858l21.933,6.874h-11.101c-1.048,0-1.897,0.85-1.897,1.897c0,1.048,0.85,1.897,1.897,1.897
		l32.511-0.015V63.798z"/>
	<path fill="#FFFFFF" d="M94.154,37.751c-5.204,0-9.438,4.233-9.438,9.438s4.233,9.438,9.438,9.438c5.203,0,9.437-4.233,9.437-9.438
		S99.357,37.751,94.154,37.751z M94.154,52.097c-2.706,0-4.908-2.202-4.908-4.908c0-2.706,2.202-4.908,4.908-4.908
		c2.706,0,4.907,2.202,4.907,4.908C99.062,49.895,96.86,52.097,94.154,52.097z"/>
	<path fill="#FFFFFF" d="M321.036,37.751c-5.203,0-9.436,4.233-9.436,9.438s4.233,9.438,9.436,9.438
		c5.205,0,9.439-4.233,9.439-9.438S326.241,37.751,321.036,37.751z M321.036,52.097c-2.706,0-4.907-2.202-4.907-4.908
		c0-2.706,2.201-4.908,4.907-4.908c2.707,0,4.909,2.202,4.909,4.908C325.945,49.895,323.743,52.097,321.036,52.097z"/>
	<path fill="#FFFFFF" d="M79.118,47.188h-1.51c0,9.123,7.423,16.545,16.546,16.545v-1.51C85.863,62.224,79.118,55.479,79.118,47.188
		z"/>
	<path fill="#FFFFFF" d="M94.154,29.035v1.51c8.29,0,15.034,6.745,15.034,15.035h1.51C110.698,36.457,103.276,29.035,94.154,29.035z
		"/>
	<path fill="#FFFFFF" d="M306.002,47.992h-1.51c0,9.123,7.423,16.545,16.546,16.545v-1.51
		C312.747,63.027,306.002,56.282,306.002,47.992z"/>
	<path fill="#FFFFFF" d="M321.038,29.839v1.51c8.29,0,15.034,6.745,15.034,15.035h1.51C337.582,37.261,330.16,29.839,321.038,29.839
		z"/>
</g>
</svg>
