<?xml version="1.0" encoding="utf-8"?>
<!-- Generator: Adobe Illustrator 17.0.0, SVG Export Plug-In . SVG Version: 6.00 Build 0)  -->
<!DOCTYPE svg PUBLIC "-//W3C//DTD SVG 1.1//EN" "http://www.w3.org/Graphics/SVG/1.1/DTD/svg11.dtd">
<svg version="1.1" id="Слой_1" xmlns="http://www.w3.org/2000/svg" xmlns:xlink="http://www.w3.org/1999/xlink" x="0px" y="0px"
	 width="406.831px" height="154.217px" viewBox="0 0 406.831 154.217" enable-background="new 0 0 406.831 154.217"
	 xml:space="preserve">
<g>
	<path fill="#FFFFFF" d="M396.997,114.706c-0.068-0.058-0.148-0.123-0.219-0.186c0.242-0.853,1.203-2.767,2.243-4.434
		c0.187-0.3,0.287-0.646,0.287-1V78.559c0-0.264-0.055-0.524-0.162-0.765c-0.518-1.168-6.267-11.646-48.184-19.974
		c-21.524-4.277-40.642-5.528-52.065-6.275c-5.078-0.332-9.088-0.595-10.413-0.957c-1.017-0.278-5.093-2.74-9.409-5.348
		c-13.347-8.061-38.189-23.066-59.743-28.026c-0.614-0.142-1.236-0.267-1.854-0.401l31.531,15.001
		c1.006,0.403,1.84,1.132,2.399,2.046c10.123,5.197,19.276,10.724,25.715,14.612c5.971,3.606,8.905,5.357,10.364,5.757
		c1.693,0.464,5.257,0.697,11.162,1.083c11.331,0.741,30.294,1.982,51.577,6.212c36.318,7.216,44.168,16.002,45.306,17.559v29.47
		c-0.954,1.578-2.586,4.522-2.586,6.226c0,1.466,0.983,2.285,1.634,2.827c0.745,0.621,1.155,0.963,0.969,2.356
		c-0.176,1.318-0.809,1.987-1.864,1.989c-0.082-0.006-0.164-0.007-0.249-0.003l-30.082,1.65c0.875-3.232,1.317-6.559,1.317-9.923
		c0-21.029-17.109-38.138-38.139-38.138c-21.03,0-38.14,17.108-38.14,38.138c0,4.812,0.88,9.474,2.619,13.892l-1.251,0.068
		l-37.691-0.614c0.037,0.403,0.06,0.812,0.06,1.225c0,0.872-0.091,1.723-0.254,2.549l37.892,0.617c0.01,0,0.02,0,0.03,0
		c0.035,0,0.069-0.001,0.104-0.003l4.03-0.221c0.629-0.034,1.2-0.381,1.521-0.924c0.321-0.542,0.35-1.209,0.077-1.777
		c-2.23-4.648-3.36-9.632-3.36-14.811c0-18.947,15.415-34.362,34.364-34.362c18.948,0,34.364,15.415,34.364,34.362
		c0,3.867-0.649,7.68-1.929,11.332c-0.208,0.595-0.107,1.254,0.272,1.758c0.379,0.503,0.982,0.788,1.613,0.751l32.7-1.794
		c0.034,0.001,0.077-0.035,0.117,0.002c2.269-0.001,5.102-1.379,5.622-5.263C399.753,117.002,397.96,115.508,396.997,114.706z"/>
	<path fill="#FFFFFF" d="M114.118,124.774l-4.638-0.076c0.584-2.67,0.878-5.388,0.878-8.11c0-21.029-17.109-38.139-38.14-38.139
		c-21.03,0-38.139,17.109-38.139,38.139c0,2.178,0.188,4.354,0.559,6.5l-16.875-5.017l-6.525-9.32V89.182l7.999-12.997
		c0.212-0.345,0.308-0.748,0.273-1.151c-0.552-6.407-0.812-14.136-0.284-15.641c1.321-1.753,9.364-10.056,16.917-16.099
		c3.145-2.516,6.487-4.847,9.435-6.902c5.989-4.177,8.073-5.712,8.329-7.499c0.239-1.675-0.684-2.778-2.745-3.28
		c-0.175-0.043-0.443-0.108-0.601-0.168c0-0.002,0-0.004,0-0.007c-0.013-0.289,0.006-0.447,0.021-0.522
		c0.336-0.19,1.403-0.394,2.352-0.574c0.826-0.157,1.79-0.341,2.904-0.604c9.418-2.231,71.713-8.229,85.456-8.229
		c1.697,0,3.695-0.019,5.948-0.041c1.648-0.016,3.447-0.031,5.35-0.043l8.258-3.778c-1.283-0.008-2.538-0.013-3.74-0.013
		c-3.661,0-6.996,0.032-9.905,0.06c-2.239,0.021-4.226,0.04-5.912,0.04c-13.863,0-76.792,6.072-86.327,8.33
		c-1.051,0.249-1.961,0.422-2.74,0.569c-2.886,0.549-5.611,1.067-5.438,4.974c0.095,2.113,1.45,2.988,2.52,3.391
		c-1.35,1.132-3.807,2.847-5.891,4.299c-2.996,2.09-6.392,4.458-9.634,7.052c-7.989,6.391-16.315,15.008-17.69,16.934
		c-1.105,1.545-1.239,7.417-0.398,17.455L7.745,87.659c-0.183,0.298-0.28,0.64-0.28,0.989v20.697c0,0.388,0.119,0.766,0.341,1.082
		l7.243,10.348c0.245,0.35,0.6,0.606,1.009,0.728l19.145,5.691c0.165,0.049,0.335,0.075,0.507,0.078l1.316,0.021
		c0.01,0,0.021,0,0.031,0c0.006,0,0.013-0.001,0.02,0c1.042,0,1.888-0.846,1.888-1.888c0-0.252-0.05-0.493-0.14-0.713
		c-0.644-2.653-0.97-5.379-0.97-8.106c0-18.948,15.415-34.363,34.363-34.363c18.949,0,34.364,15.415,34.364,34.363
		c0,3.181-0.447,6.356-1.329,9.439c-0.162,0.564-0.051,1.172,0.298,1.644c0.35,0.472,0.899,0.754,1.486,0.764l6.62,0.107
		c-0.002-0.1-0.015-0.195-0.015-0.296C113.642,127.043,113.813,125.881,114.118,124.774z"/>
	<path fill="#FFFFFF" d="M242.035,57.2c18.364,0.996,33.1,1.826,33.447,1.846c0.029,0.001,0.058,0.002,0.086,0.002
		c0.795,0,1.461-0.621,1.506-1.425c0.047-0.833-0.59-1.546-1.423-1.593c-0.349-0.02-15.172-0.853-33.617-1.854V57.2z"/>
	<path fill="#FFFFFF" d="M121.702,50.027c-19.525-0.2-37.923-0.348-43.383-0.39c0.133-1.262,0.369-2.843,0.738-3.764
		c0.881-2.203,4.794-9.976,18.167-17.482c0.727-0.408,0.986-1.328,0.578-2.056c-0.408-0.726-1.328-0.986-2.056-0.577
		C81.51,33.748,77.225,42.317,76.252,44.751c-0.847,2.113-1.056,5.885-1.077,6.308c-0.021,0.411,0.128,0.812,0.411,1.112
		c0.282,0.299,0.675,0.47,1.086,0.473c0.409,0.003,21.939,0.165,45.03,0.403V50.027z"/>
	<path fill="#FFFFFF" d="M358.338,115.06c0-17.445-14.193-31.638-31.639-31.638c-17.446,0-31.64,14.192-31.64,31.638
		c0,17.446,14.193,31.641,31.64,31.641C344.145,146.701,358.338,132.506,358.338,115.06z M326.699,87.198
		c15.364,0,27.864,12.499,27.864,27.862c0,15.365-12.5,27.865-27.864,27.865c-15.364,0-27.864-12.5-27.864-27.865
		C298.835,99.697,311.335,87.198,326.699,87.198z"/>
	<path fill="#FFFFFF" d="M104.024,117.972c0-17.445-14.193-31.639-31.64-31.639c-17.445,0-31.639,14.193-31.639,31.639
		c0,17.446,14.193,31.641,31.639,31.641C89.831,149.613,104.024,135.418,104.024,117.972z M72.385,90.109
		c15.364,0,27.864,12.499,27.864,27.863c0,15.365-12.5,27.865-27.864,27.865c-15.364,0-27.863-12.5-27.863-27.865
		C44.521,102.608,57.021,90.109,72.385,90.109z"/>
	<path fill="#FFFFFF" d="M249.017,128.247c0-5.524-4.503-10.026-10.095-10.18V38.345h8.207c0.882,0,1.647-0.611,1.841-1.472
		c0.194-0.861-0.234-1.741-1.03-2.12L184.952,4.787c-0.504-0.239-1.088-0.243-1.596-0.013l-65.499,29.967
		c-0.807,0.37-1.248,1.251-1.059,2.118c0.189,0.868,0.956,1.486,1.844,1.486h6.171v79.975c-4.608,1.041-8.059,5.092-8.059,9.927
		c0,5.622,4.66,10.196,10.387,10.196h111.489C244.358,138.443,249.017,133.869,249.017,128.247z M238.631,134.667H127.141
		c-3.646,0-6.611-2.88-6.611-6.421c0-3.539,2.966-6.419,6.611-6.419h109.894h1.596c3.645,0,6.611,2.88,6.611,6.419
		C245.242,131.788,242.276,134.667,238.631,134.667z M238.768,34.57h-1.733h-109.73l56.82-25.996L238.768,34.57z M235.147,38.345
		v79.707H128.589V38.345H235.147z"/>
	<path fill="#FFFFFF" d="M170.948,80.914h-7.926c-1.042,0-1.888,0.846-1.888,1.888s0.845,1.888,1.888,1.888h7.926v6.495h-7.923
		c-1.042,0-1.888,0.846-1.888,1.888c0,1.042,0.845,1.888,1.888,1.888h7.923v15.062c0,1.042,0.845,1.888,1.888,1.888
		c1.042,0,1.888-0.846,1.888-1.888V94.96h25.691c1.042,0,1.888-0.846,1.888-1.888c0-1.042-0.845-1.888-1.888-1.888h-25.691V84.69
		h13.07c0.106,0,0.213-0.009,0.318-0.027c5.716-0.978,16.525-5.645,16.525-16.314c0-16.16-14.88-19.688-15.031-19.722
		c-0.136-0.03-0.274-0.046-0.414-0.046h-16.357c-1.042,0-1.888,0.846-1.888,1.888V80.914z M200.862,68.348
		c0,9.688-11.713,12.271-13.241,12.566h-12.897V52.356h14.237C190.547,52.778,200.862,55.999,200.862,68.348z"/>
	<path fill="#FFFFFF" d="M131.481,111.969c0,1.042,0.845,1.888,1.888,1.888c1.043,0,1.888-0.846,1.888-1.888V43.306
		c0-1.042-0.845-1.888-1.888-1.888c-1.042,0-1.888,0.846-1.888,1.888V111.969z"/>
	<path fill="#FFFFFF" d="M140.481,111.969c0,1.042,0.845,1.888,1.888,1.888c1.043,0,1.888-0.846,1.888-1.888V43.306
		c0-1.042-0.845-1.888-1.888-1.888c-1.042,0-1.888,0.846-1.888,1.888V111.969z"/>
	<path fill="#FFFFFF" d="M149.481,111.969c0,1.042,0.845,1.888,1.888,1.888c1.043,0,1.888-0.846,1.888-1.888V43.306
		c0-1.042-0.845-1.888-1.888-1.888c-1.042,0-1.888,0.846-1.888,1.888V111.969z"/>
	<path fill="#FFFFFF" d="M210.481,111.969c0,1.042,0.845,1.888,1.888,1.888c1.043,0,1.888-0.846,1.888-1.888V43.306
		c0-1.042-0.845-1.888-1.888-1.888c-1.042,0-1.888,0.846-1.888,1.888V111.969z"/>
	<path fill="#FFFFFF" d="M219.481,111.969c0,1.042,0.845,1.888,1.888,1.888c1.043,0,1.888-0.846,1.888-1.888V43.306
		c0-1.042-0.845-1.888-1.888-1.888c-1.042,0-1.888,0.846-1.888,1.888V111.969z"/>
	<path fill="#FFFFFF" d="M228.481,111.969c0,1.042,0.845,1.888,1.888,1.888c1.043,0,1.888-0.846,1.888-1.888V43.306
		c0-1.042-0.845-1.888-1.888-1.888c-1.042,0-1.888,0.846-1.888,1.888V111.969z"/>
</g>
</svg>
