<?xml version="1.0" encoding="utf-8"?>
<!-- Generator: Adobe Illustrator 17.0.0, SVG Export Plug-In . SVG Version: 6.00 Build 0)  -->
<!DOCTYPE svg PUBLIC "-//W3C//DTD SVG 1.1//EN" "http://www.w3.org/Graphics/SVG/1.1/DTD/svg11.dtd">
<svg version="1.1" id="Слой_1" xmlns="http://www.w3.org/2000/svg" xmlns:xlink="http://www.w3.org/1999/xlink" x="0px" y="0px"
	 width="406.831px" height="154.217px" viewBox="0 0 406.831 154.217" enable-background="new 0 0 406.831 154.217"
	 xml:space="preserve">
<path fill="#516AAE" d="M129.21,52.748h118.86c0.562,0,1.078-0.312,1.338-0.811s0.222-1.101-0.099-1.562
	c-1.296-1.862-12.841-18.258-18.939-20.545c-7.036-2.64-28.002-3.477-39.873-3.741c-2.714-0.061-5.374-0.091-7.903-0.091
	c-25.618,0-41.606,3-47.523,8.918c-8.863,8.863-7.403,16.321-7.337,16.635C127.88,52.248,128.497,52.748,129.21,52.748z
	 M191.973,29.148c14.978,0.373,26.553,1.238,33.109,2.449v18.131h-33.109L191.973,29.148L191.973,29.148z M245.134,49.728h-17.031
	V32.275c0.445,0.125,0.857,0.253,1.207,0.384C233.131,34.091,240.913,43.95,245.134,49.728z M188.952,29.082v20.646h-38.74V31.55
	C159.298,29.628,172.364,28.779,188.952,29.082z M137.205,37.051c1.936-1.936,5.298-3.534,9.986-4.782v17.459h-16.576
	C130.657,47.57,131.497,42.76,137.205,37.051z"/>
<g>
	<path fill="#516AAE" d="M81.309,113.219c0.37-0.379,0.564-0.896,0.535-1.426c-0.031-0.546-0.05-1.094-0.05-1.647
		c0-15.893,12.929-28.821,28.821-28.821c15.893,0,28.822,12.929,28.822,28.821c0,1.152-0.074,2.314-0.228,3.555
		c-0.004,0.035,0.001,0.068-0.002,0.104c-0.006,0.088-0.011,0.176-0.004,0.264c0.003,0.048,0.014,0.094,0.021,0.141
		c0.012,0.078,0.023,0.156,0.044,0.232c0.016,0.056,0.039,0.107,0.059,0.16s0.033,0.106,0.058,0.157
		c0.005,0.011,0.015,0.019,0.02,0.029c0.067,0.132,0.145,0.257,0.243,0.371c0.008,0.009,0.019,0.016,0.026,0.025
		c0.025,0.028,0.055,0.051,0.082,0.077c0.087,0.088,0.182,0.166,0.283,0.234c0.04,0.025,0.079,0.051,0.12,0.073
		c0.109,0.062,0.223,0.111,0.343,0.149c0.031,0.011,0.06,0.025,0.091,0.033c0.139,0.037,0.281,0.062,0.427,0.067l13.296,0.441
		l150.944,4.011l2.468,0.066c0.017,0.001,0.034,0.001,0.051,0.001c0.006,0,0.012,0,0.02,0c1.042,0,1.888-0.846,1.888-1.888
		c0-0.233-0.043-0.457-0.12-0.663c-0.417-1.972-0.628-3.977-0.628-5.966c0-15.893,12.929-28.822,28.822-28.822
		c15.892,0,28.821,12.93,28.821,28.822c0,2.6-0.356,5.198-1.06,7.723c-0.156,0.561-0.045,1.161,0.3,1.628
		c0.345,0.468,0.887,0.75,1.467,0.766l5.786,0.155c0.017,0.001,0.034,0.001,0.051,0.001c0.634,0,1.228-0.319,1.577-0.851
		c0.15-0.228,1.715-2.646,3.449-6.537c2.31,0.166,5.243,0.326,7.967,0.326c6.069,0,7.91-0.764,8.808-1.912
		c1.305-1.67,2.539-4.605,1.718-7.382c-0.434-1.467-1.614-3.444-4.777-4.536c-0.999-0.345-2.389-0.512-4.249-0.512
		c-1.624,0-3.462,0.129-5.258,0.311c0.478-2.812,0.749-5.806,0.675-8.913c-0.314-13.171-5.814-19.091-8.021-20.944V58.589
		c0-0.975-0.742-1.788-1.711-1.879c-0.078-0.008-1.451-0.136-3.735-0.348l1.394-6.492c0.09-0.42,0.034-0.857-0.158-1.241
		c-0.106-0.213-2.666-5.229-7.549-6.117c-1.761-0.317-3.362,0.457-4.284,2.077c-1.326,2.333-1.124,6.207,0.416,7.972
		c0.328,0.376,0.714,0.658,1.137,0.837c-0.342,0.604-0.782,1.311-1.255,2.019c-14.884-1.354-37.388-3.349-45.832-3.817
		c-12.025-0.667-52.812-3.832-58.973-4.312l-18.773-21.959c-1.15-1.506-10.203-10.556-61.271-10.556
		c-58.996,0-77.318,9.198-82.458,13.152c-2.328,1.791-5.118,5.416-8.072,9.253c-2.745,3.566-6.503,8.448-8.193,9.063
		c-1.212,0.44-4.478,1.187-8.259,2.051c-8.477,1.937-20.086,4.589-27.578,7.836c-11.556,5.008-16.558,10.625-21.292,18.638
		c-0.816,1.381-1.595,3.246-2.33,5.388c-0.019,0.051-0.038,0.102-0.053,0.154c-3.625,10.67-6.123,28.174-6.248,29.062
		c-0.075,0.53,0.08,1.067,0.424,1.478c0.345,0.41,0.847,0.655,1.383,0.673l68.151,2.266
		C80.424,113.792,80.939,113.598,81.309,113.219z M68.28,51.972c4.224-0.965,7.275-1.662,8.709-2.184
		c2.538-0.923,5.431-4.51,9.894-10.308c2.677-3.477,5.445-7.072,7.382-8.563c4.833-3.719,22.319-12.369,80.156-12.369
		c50.29,0,58.21,8.998,58.237,9.023c0.038,0.056,0.079,0.109,0.123,0.16l19.324,22.604c0.325,0.381,0.789,0.616,1.288,0.655
		c0.467,0.036,46.84,3.657,59.837,4.379c8.507,0.472,31.43,2.507,46.276,3.86c0.32,0.117,0.658,0.148,0.984,0.089
		c4.799,0.438,8.661,0.796,10.751,0.99v8.31c-3.969-2.17-11.915-5.384-24.992-6.081c-21.276-1.134-44.087-0.06-62.418,0.803
		c-5.376,0.253-10.454,0.492-15.046,0.655c-19.302,0.69-110.962,6.982-120.079,7.609c-4.49-5.244-11.271-8.944-20.505-11.204
		c-20.617-5.043-70.782,7.714-71.286,7.845c-10.341,2.656-28.142,7.607-35.776,9.74c0.225-0.476,0.452-0.911,0.682-1.3
		c4.444-7.52,8.875-12.471,19.543-17.095C48.534,56.484,60.417,53.769,68.28,51.972z M364.52,50.482
		c-0.285-0.362-1.049-1.084-2.46-0.776c-0.17-0.541-0.284-1.509-0.087-2.445c0.156-0.741,0.415-1.016,0.467-1.042
		c0.001,0,0.043-0.009,0.141,0.009c2.293,0.417,3.897,2.556,4.538,3.563l-1.688,7.858c-0.018,0.082-0.021,0.163-0.027,0.244
		l-3.075-0.251C365.959,52.337,365.068,51.182,364.52,50.482z M378.418,101.482c-2.559,0.359-4.483,0.713-4.645,0.743
		c-0.895,0.165-1.543,0.945-1.543,1.856v8.387c0,0.967,0.73,1.777,1.692,1.877c0.023,0.003,0.104,0.011,0.209,0.021
		c-0.831,1.761-1.575,3.114-2.047,3.925l-2.365-0.063c0.425-2.112,0.64-4.258,0.64-6.405c0-17.975-14.623-32.598-32.597-32.598
		c-17.974,0-32.597,14.623-32.597,32.598c0,1.558,0.115,3.124,0.341,4.68l-151.076-4.015l-7.741-0.257
		c5.415-4.807,12.771-14.955,6.912-32.014c-0.612-1.781-1.386-3.445-2.31-5.005c16.953-1.163,99.478-6.795,117.629-7.442
		c4.613-0.165,9.702-0.404,15.089-0.658c18.245-0.858,40.953-1.929,62.039-0.804c18.212,0.971,25.732,7.105,25.854,7.207
		c0.048,0.041,0.101,0.07,0.152,0.105c0.023,0.017,0.042,0.04,0.066,0.056c0.278,0.18,6.811,4.553,7.143,18.503
		C379.339,95.427,378.993,98.562,378.418,101.482z M390.637,104.771c1.338,0.462,2.12,1.129,2.389,2.038
		c0.371,1.255-0.237,2.856-0.984,3.871c-0.287,0.137-1.553,0.578-5.921,0.578c-3.664,0-7.842-0.313-10.116-0.511v-5.077
		c2.575-0.424,7.834-1.205,11.615-1.205C389.475,104.465,390.307,104.657,390.637,104.771z M19.459,82.376
		c4.767-1.338,26.523-7.426,38.394-10.475c17.126-4.396,53.679-11.692,69.45-7.834c12.312,3.013,19.746,8.696,22.727,17.375
		c5.627,16.385-2.197,25.269-6.823,28.868c0-0.055,0.005-0.11,0.005-0.165c0-17.974-14.624-32.597-32.598-32.597
		c-17.907,0-32.488,14.516-32.596,32.397l-64.029-2.129C14.748,102.943,16.815,90.58,19.459,82.376z"/>
	<path fill="#516AAE" d="M338.382,85.934c-14.753,0-26.755,12.002-26.755,26.755s12.002,26.755,26.755,26.755
		s26.755-12.002,26.755-26.755S353.134,85.934,338.382,85.934z M338.382,135.668c-12.671,0-22.98-10.309-22.98-22.979
		s10.309-22.979,22.98-22.979c12.671,0,22.98,10.309,22.98,22.979S351.053,135.668,338.382,135.668z"/>
	<path fill="#516AAE" d="M110.533,84.43c-14.752,0-26.755,12.002-26.755,26.755s12.002,26.756,26.755,26.756
		s26.755-12.003,26.755-26.756C137.289,96.432,125.286,84.43,110.533,84.43z M110.533,134.165c-12.671,0-22.979-10.309-22.979-22.98
		s10.309-22.979,22.979-22.979c12.671,0,22.98,10.309,22.98,22.979C133.513,123.857,123.205,134.165,110.533,134.165z"/>
	<path fill="#516AAE" d="M183.66,76.971c-0.449,0-0.889,0.217-1.321,0.648l-6.428,6.429c-0.316,0.315-0.474,0.697-0.474,1.146
		c0,1.097,0.548,1.645,1.645,1.645c0.448,0,0.831-0.157,1.146-0.474l3.788-3.787v25.64c0,1.097,0.548,1.645,1.645,1.645
		c1.096,0,1.645-0.548,1.645-1.645V78.616C185.305,77.52,184.756,76.971,183.66,76.971z"/>
	<path fill="#516AAE" d="M200.105,76.971c-2.276,0-4.215,0.802-5.818,2.404c-1.603,1.604-2.404,3.543-2.404,5.818v3.289
		c0,2.276,0.801,4.216,2.404,5.818c1.603,1.604,3.542,2.404,5.818,2.404h4.809c-0.415,3.521-2.392,6.429-5.931,8.721
		c-0.797,0.516-1.794,0.972-2.99,1.371c-0.548,0.183-0.822,0.656-0.822,1.42c0,0.433,0.166,0.814,0.498,1.146
		c0.333,0.332,0.714,0.498,1.146,0.498c0.797,0,2.035-0.523,3.712-1.569c5.199-3.239,7.799-7.65,7.799-13.231v-9.917
		c0-2.275-0.797-4.206-2.392-5.793C204.341,77.765,202.398,76.971,200.105,76.971z M205.039,93.416h-4.934
		c-1.379,0-2.546-0.478-3.501-1.433c-0.956-0.955-1.433-2.122-1.433-3.501v-3.289c0-1.361,0.481-2.524,1.445-3.488
		c0.963-0.963,2.126-1.445,3.488-1.445s2.525,0.482,3.488,1.445c0.963,0.964,1.445,2.127,1.445,3.488v8.223H205.039z"/>
	<path fill="#516AAE" d="M223.128,90.127h-4.809c0.232-1.977,1.071-3.878,2.517-5.706c1.827-2.309,3.962-3.771,6.404-4.385
		c0.548-0.133,0.822-0.606,0.822-1.421c0-1.096-0.548-1.645-1.645-1.645c-0.349,0-0.847,0.125-1.495,0.374
		c-2.276,0.914-4.378,2.459-6.304,4.635c-2.475,2.808-3.712,6.071-3.712,9.792v9.917c0,2.276,0.797,4.207,2.392,5.793
		c1.595,1.587,3.538,2.38,5.831,2.38c2.275,0,4.215-0.797,5.818-2.392s2.405-3.539,2.405-5.831V98.35c0-2.292-0.79-4.235-2.367-5.83
		C227.405,90.925,225.453,90.127,223.128,90.127z M228.062,101.639c0,1.362-0.478,2.525-1.433,3.488
		c-0.956,0.964-2.123,1.445-3.501,1.445c-1.379,0-2.546-0.478-3.501-1.433c-0.956-0.955-1.433-2.122-1.433-3.501v-8.223h4.934
		c1.362,0,2.525,0.478,3.488,1.433c0.963,0.956,1.445,2.122,1.445,3.501L228.062,101.639L228.062,101.639z"/>
	<path fill="#516AAE" d="M254.374,85.194c0-2.275-0.802-4.215-2.405-5.818c-1.603-1.603-3.542-2.404-5.818-2.404
		c-3.339,0-6.03,1.969-8.073,5.905c-0.1,0.199-0.149,0.424-0.149,0.673c0,1.097,0.548,1.645,1.645,1.645
		c0.648,0,1.121-0.266,1.42-0.797c1.578-2.758,3.297-4.137,5.158-4.137c1.362,0,2.525,0.482,3.488,1.445
		c0.963,0.964,1.445,2.127,1.445,3.488c0,0.931-0.274,1.836-0.822,2.716l-12.06,19.36c-0.183,0.3-0.274,0.615-0.274,0.947
		c0,1.097,0.548,1.645,1.645,1.645h13.156c1.096,0,1.645-0.548,1.645-1.645s-0.548-1.645-1.645-1.645h-10.216l10.366-16.645
		C253.875,88.333,254.374,86.755,254.374,85.194z"/>
</g>
</svg>
