<?xml version="1.0" encoding="utf-8"?>
<!-- Generator: Adobe Illustrator 17.0.0, SVG Export Plug-In . SVG Version: 6.00 Build 0)  -->
<!DOCTYPE svg PUBLIC "-//W3C//DTD SVG 1.1//EN" "http://www.w3.org/Graphics/SVG/1.1/DTD/svg11.dtd">
<svg version="1.1" id="Layer_1" xmlns="http://www.w3.org/2000/svg" xmlns:xlink="http://www.w3.org/1999/xlink" x="0px" y="0px"
	 width="392px" height="143px" viewBox="0 0 392 143" enable-background="new 0 0 392 143" xml:space="preserve">
<g>
	<g>
		<path fill="#FFFFFF" d="M135.363,10.857c6.183,0.374,7.749,7.019,6.626,16.35c1.54,1.711,2.878,3.667,3.948,5.81
			c3.15-16.004,0.605-25.365-8.988-26.402c-8.145-0.876-20.61,3.667-31.582,14.84h6.131
			C119.696,14.511,128.56,10.441,135.363,10.857"/>
		<path fill="#FFFFFF" d="M125.807,24.762c-11.288,0-18.335,10.326-18.335,23.051c0,14.107,7.404,23.065,18.335,23.065
			c11.36,0,18.283-10.31,18.283-23.065C144.09,34.195,136.988,24.762,125.807,24.762 M125.807,65.586
			c-5.615,0-8.563-8.7-8.563-17.773c0-9.074,3.106-17.773,8.563-17.773c5.357,0,8.6,8.699,8.6,17.773
			C134.406,56.886,131.528,65.586,125.807,65.586"/>
		<polygon fill="#FFFFFF" points="15.804,52.975 15.804,25.813 6.729,25.813 6.729,70.044 11.884,70.044 27.607,43.067 
			27.607,70.044 36.682,70.044 36.682,25.813 31.353,25.813 		"/>
		<polygon fill="#FFFFFF" points="67.484,44.665 55.828,44.665 55.828,25.755 46.756,25.755 46.756,70.017 55.828,70.017 
			55.828,49.884 67.484,49.884 67.484,70.017 76.556,70.017 76.556,25.755 67.484,25.755 		"/>
		<path fill="#FFFFFF" d="M227.728,25.755H220.2h-5.771h-5.084v6.442l1.31,0.604c2.128-1.051,5.651-2.949,8.467-2.949h0.016v40.164
			h9.665V29.853h0.006c2.947,0,6.471,1.712,8.55,2.977l1.229-0.632v-6.442h-5.084H227.728z"/>
		<path fill="#FFFFFF" d="M108.299,25.755h-5.081H89.915l0,0H86.55v44.261h9.074V29.853h1.791c4.227,0,7.312,1.366,9.655,3.294
			l1.229-0.633V25.755z"/>
		<path fill="#FFFFFF" d="M280.819,25.755l-0.835,0.977l2.522,4.889l-12.221,38.395h6.147l3.86-12.684h10.692l3.933,12.684h10.067
			l-14.086-44.261H280.819z M281.88,52.141l3.684-12.079l3.775,12.079H281.88z"/>
		<path fill="#FFFFFF" d="M255.56,25.453c-5.296,0-7.412,0.303-12.164,0.303v44.261h9.074V54.903h2.234
			c8.981,0,16.401-5.955,16.401-14.884C271.105,30.975,264.756,25.453,255.56,25.453 M253.95,50.071h-1.48V30.499h2.603
			c3.89,0,7.039,2.964,7.039,9.695C262.111,46.807,258.575,50.071,253.95,50.071"/>
		<polygon fill="#FFFFFF" points="337.656,70.017 325.915,46.634 337.382,25.755 330.94,25.755 322.835,40.51 315.415,25.755 
			305.869,25.755 317.323,48.56 305.521,70.017 311.975,70.017 320.397,54.687 328.108,70.017 		"/>
		<path fill="#FFFFFF" d="M168.097,30.443c2.416,0,4.89,2.142,6.018,5.362h1.203l1.141-9.445c-2.069-0.793-5.551-1.598-8.849-1.598
			c-12.073,0-20.334,10.326-20.334,23.065c0,13.201,6.881,23.05,19.865,23.05c3.271,0,6.872-0.861,9.317-3.09v-9.679h-1.087
			c-2.141,4.302-4.65,6.311-7.64,6.311c-6.487,0-10.542-7.935-10.542-16.606C157.189,39.142,161.784,30.443,168.097,30.443"/>
		<path fill="#FFFFFF" d="M198.143,30.443c2.424,0,4.91,1.853,6.017,5.362h1.203l1.144-9.445c-2.071-0.793-5.551-1.598-8.852-1.598
			c-12.07,0-20.341,10.326-20.341,23.065c0,13.201,6.889,23.05,19.872,23.05c3.272,0,6.875-0.861,9.32-3.09v-9.679h-1.086
			c-1.971,4.098-4.651,6.311-7.643,6.311c-6.486,0-10.541-7.935-10.541-16.606C187.235,39.142,191.832,30.443,198.143,30.443"/>
		<path fill="#FFFFFF" d="M387.035,74.79c-3.56-3.294-11.385,1.74-16.754,7.462c-3.977,4.256-8.9,11.577-12.955,17.974
			c-5.545,4.217-12.897,9.724-15.249,11.331c-2.997,2.042-5.02,3.081-6.184,2.518c-1.402-0.689-1.877-3.625-2.115-6.024
			c1.783-0.216,3.353-0.445,5.587-1.612c3.264-1.679,4.962-4.945,2.969-7.318c-1.647-1.939-4.932-1.235-7.973,0.893l1.799-2.789
			c0,0,0.589-0.446,0.766-0.546c6.126-4.143,11.736-7.91,15.006-10.743c4.194-3.624,8.874-8.412,6.292-11.144
			c-3.35-3.538-11.638,1.754-16.986,7.507c-3.913,4.154-8.559,11.271-12.541,17.572c-6.198,4.241-18.055,12.306-19.664,13.544
			c-1.61,1.193-2.401,0.174-1.273-1.596c0.576-0.949,1.351-2.216,2.108-3.523c0,0,2.919-4.558,4.685-7.349v0.015l0.887-1.408
			c0.093-0.144,0.174-0.276,0.238-0.389l0.679-1.078h-5.763l-1.273,2.068h0.008c-0.152,0.245-0.264,0.419-0.264,0.419
			c-0.421-0.835-0.936-1.539-1.642-2.026c-2.46-1.771-7.915-1.035-12.115,2.616c-4.321,3.177-15.006,11.186-16.975,12.25
			c-2.328,1.252-4.421-0.447-2.3-3.622c0.588-0.862,4.874-4.731,8.102-7.334c-0.013-0.016-1.457-1.868-1.457-1.884
			c-3.726,1.985-6.883,0.906-7.56-1.555c0.108-0.071,1.646-1.396,1.646-1.396s-2.449-3.407-2.449-3.434
			c-2.854,1.207-3.288,3.708-3.184,5.088c-5.684,4.632-15.963,12.511-17.816,13.792c-1.325,0.906-2.209,0.174-1.231-1.251
			c0.243-0.403,13.134-20.852,13.977-22.116h14.948l2.193-3.682l-14.884-0.014c2.64-4.199,7.282-11.562,7.282-11.562h-5.75
			c0,0-3.834,6.055-7.326,11.562L206.42,86.02l-2.193,3.682h56.016c-1.633,2.588-3.337,5.275-4.882,7.736l-17.025,8.025
			c-0.021-1.526,0.086-2.648,0.589-3.999c0.301-0.834,0.77-1.396,1.28-1.884l1.299-1.092l-3.845-2.95l-19.455,9.925
			c-0.022-1.526,0.15-2.648,0.646-3.999c0.287-0.807,0.733-1.368,1.216-1.855l1.314-1.093l-3.838-3.062
			c0,0-14.984,9.345-21.505,13.372c3.105-5.261,2.602-9.246,0.977-10.669c-2.315-2.042-6.99-0.978-10.972,2.273l-18.55,11.703
			l8.721-14.048h-5.701c0,0-1.229,1.997-1.517,2.487c-0.223-0.748-0.591-1.368-1.15-1.755c-2.956-2.271-8.341-1.51-12.502,2.071
			c-2.582,1.883-15.346,11.173-17.406,12.668c-2.115,1.567-3.085,0.43-1.693-1.74c1.463-2.216,3.791-5.91,4.913-7.723
			c1.387-2.326,1.128-5.247-0.605-6.111c-1.783-0.848-4.73-0.832-8.765,2.131c-0.661,0.4-1.02,0.701-1.61,1.22
			c0.329-0.618,2.295-4.441,2.295-4.441l-2.243,0.303c-0.08,0.014-0.158,0.014-0.246,0.027c-4.091,0.559-7.319,1.107-12.172,1.235
			c-0.288,0.015-0.625,0.015-0.965,0.03c5.084-6.271,9.922-13.893,14.23-22.707c-1.885,0.49-3.904,0.749-6.069,0.749
			c-0.064,0-0.105-0.015-0.145-0.015c-4.498,8.456-9.554,15.774-14.824,21.715c-8.527-1.008-18.822-5.509-20.505-23.713h-4.983
			c0.877,14.882,8.636,24.399,22.921,26.414c-11.604,11.679-17.881,14.095-26.473,14.095c-8.607,0-13.855-6.946-13.855-17.961
			h-6.176c0,12.969,6.715,21.51,19.766,21.728c10.985,0,23.209-5.524,33.654-17.372c0.462,0,0.921,0,1.366-0.016
			c3.049-0.143,5.933-0.273,9.147-0.732c-0.54,1.009-1.305,2.129-2.533,4.142c-1.48,2.343-7.802,12.194-7.802,12.194l5.81,0.015
			c0,0,2.688-4.315,4.257-6.772c1.877-2.876,4.205-5.005,5.729-6.283c3.049-2.634,5.515-3.695,6.228-3.537
			c0.467,0.084,0.97,1.062-0.052,2.616c-1.071,1.554-4.205,5.737-5.649,8.411c-1.288,2.329-1.13,5.393,1.89,6.041
			c2.422,0.487,4.573-0.851,7.277-2.763c1.51-1.107,6.687-4.933,10.941-8.066c-1.675,3.898-1.444,7.865,1.021,9.675
			c2.164,1.642,5.048,1.039,8.268-1.192c-0.301,0.634-0.641,1.294-0.982,2.002c-5.23,3.09-8.271,4.7-13.368,9.044
			c-3.759,3.248-5.405,7.332-3.126,9.562c3.549,3.507,9.808-1.225,14.464-7.868c1.791-2.616,7.578-11.561,7.578-11.561l16.689-10.44
			c-2.048,4.058-1.813,8.299,0.705,10.385c2.566,2.084,5.989,1.089,9.261-1.886l22.058-13.96c-0.094,0.385-0.23,0.603-0.23,1.12
			c-0.021,2.07,0.272,3.564,0.376,6.141c0,0-4.05,2.112-5.273,2.686c-1.838,0.835-3.63,2.403-3.435,4.573
			c0.158,2.101,1.919,3.466,4.473,3.466c3.86,0,8.413-2.675,8.706-10.167v-0.517l15.711-7.982c-0.15,0.391-0.418,0.938-0.426,1.8
			c-0.106,2.07,0.226,3.564,0.316,6.141c0,0-4.039,2.112-5.255,2.686c-1.805,0.835-3.625,2.403-3.394,4.573
			c0.137,2.101,1.893,3.466,4.487,3.466c3.845,0,8.369-2.675,8.693-10.167v-0.517l15.023-7.061
			c-2.602,4.112-4.464,7.031-4.464,7.031c-0.2,0.316-0.625,0.979-0.855,1.396c-2.826,4.987-2.142,8.283,0.972,8.283
			c2.466,0,4.275-1.338,6.982-3.252c1.83-1.324,10.331-8.253,15.692-12.711c1.187,2.026,3.653,2.776,6.953,2.242
			c-4.327,3.02-5.854,4.128-7.915,6.457c-0.855,0.962-1.353,2.042-1.353,3.051c0,2.556,1.532,4.213,4.379,4.213
			c2.453,0,4.286-1.151,7.019-3.062c1.454-1.053,6.268-4.575,10.489-7.71c-1.646,3.81-1.286,7.71,1.115,9.665
			c2.352,1.927,7.378-0.261,9.938-3.264c-0.39,2.456,0.329,4.371,2.413,4.371c2.409,0,4.257-1.338,6.953-3.252
			c1.524-1.119,8.493-5.882,14.27-9.808c-1.097,1.726-7.191,11.304-7.531,11.85c-0.028,0.043-0.052,0.087-0.072,0.114l-0.454,0.721
			h0.843c0.023,0,0.042,0,0.062,0h4.13c0.013,0,0.028,0,0.033,0h0.68l0.946-1.468c1.236-1.883,4.545-7.016,4.545-7.016
			c0.353,3.478,1.415,8.629,4.262,9.132c3.186,0.559,5.826-1.312,8.839-3.336c2.156-1.54,7.16-5.308,11.827-8.889
			c-1.921,3.047-6.37,10.036-6.653,10.524c-0.062,0.089-0.105,0.173-0.15,0.247l-0.51,0.805h0.879c0.008,0,0.018,0,0.028,0h3.803
			c0.014,0,0.028,0,0.05,0h0.928l0.602-0.935c0.023-0.046,0.052-0.071,0.08-0.117c0.125-0.186,0.646-1.006,1.305-2.054l0.111-0.188
			l0,0c1.446-2.302,3.44-5.494,3.44-5.494c1.514-1.552,2.938-3.062,4.133-4.214c2.696-2.644,4.731-3.735,5.426-3.577
			c0.482,0.084,0.332,1.062-0.694,2.616c-1.074,1.554-4.213,5.737-5.673,8.411c-1.288,2.329-1.678,5.119,1.335,5.867
			c2.359,0.546,5.188-0.993,7.938-2.761c1.346-0.849,3.94-2.747,4.916-3.681c-0.006,0-1.421-1.697-1.413-1.712
			c-1.776,1.625-4.48,3.378-5.805,4.156c-2.292,1.337-2.989,0.659-1.595-1.511c1.395-2.216,3.767-5.91,4.866-7.723
			c1.438-2.326,1.88-5.247,0.072-6.111c-1.731-0.848-4.887,0.129-8.584,3.105c-0.207,0.217-0.562,0.462-0.79,0.68l2.883-4.546
			c0.158-0.114,0.293-0.172,0.453-0.272c5.914-4.087,12.151-8.141,15.358-11.017C383.957,83.057,390.024,77.522,387.035,74.79
			 M344.429,85.415c3.596-4.529,9.764-11.057,11.982-8.987c1.175,1.08-0.423,3.539-6.593,8.543c-3.65,2.962-7.98,6.154-11.688,8.425
			C339.998,90.981,342.809,87.373,344.429,85.415 M154.4,126.527c-2.271,3.952-6.464,8.687-8.973,7.261
			c-1.432-0.774-0.236-3.665,4.221-7.59c2.351-2.044,7.785-5.408,7.785-5.408C156.342,122.919,155.24,124.974,154.4,126.527
			 M163.726,107.992c-3.329,5.595-7.205,7.477-8.542,6.47c-1.395-1.021-0.244-4.773,2.817-8.915c3.036-4.126,6.061-6.125,7.638-5.42
			C167.736,101.12,166.373,103.592,163.726,107.992 M192.656,109.23c-3.062,4.124-6.103,6.054-7.498,5.032
			c-1.33-1.02,0.086-4.573,3.155-8.715c3.064-4.126,5.546-6.125,6.909-5.116C196.592,101.437,195.736,105.06,192.656,109.23
			 M209.467,116.232c-1.25,0.044-1.963-0.704-2.027-1.595c-0.102-1.039,0.409-1.585,1.346-2.088
			c0.552-0.316,4.853-2.575,4.853-2.575C213.351,114.85,211.278,116.174,209.467,116.232 M229.541,116.232
			c-1.229,0.044-1.935-0.704-1.999-1.595c-0.094-1.039,0.425-1.585,1.33-2.088c0.555-0.316,4.869-2.575,4.869-2.575
			C233.466,114.85,231.397,116.174,229.541,116.232 M304.077,108.107c-2.825,4.858-6.792,7.045-8.166,6.038
			c-1.346-1.004-0.555-4.112,2.364-8.31c2.927-4.285,5.651-6.343,7.586-5.538C307.832,101.132,307.191,102.773,304.077,108.107
			 M330.656,106.037c0.607-1.207,2.066-2.661,3.611-3.868c1.473-1.18,4.379-2.647,5.098-1.309c0.762,1.439-0.301,3.667-3.106,4.675
			C334.471,106.18,332.24,106.326,330.656,106.037 M378.435,85.057c-3.733,3.021-8.154,6.026-10.865,7.807
			c2.123-2.946,4.02-5.407,5.667-7.448c3.632-4.529,9.95-10.999,12.12-8.885C386.216,77.364,384.647,80.051,378.435,85.057"/>
	</g>
</g>
</svg>
