<?xml version="1.0" encoding="utf-8"?>
<!-- Generator: Adobe Illustrator 17.0.0, SVG Export Plug-In . SVG Version: 6.00 Build 0)  -->
<!DOCTYPE svg PUBLIC "-//W3C//DTD SVG 1.1//EN" "http://www.w3.org/Graphics/SVG/1.1/DTD/svg11.dtd">
<svg version="1.1" id="Слой_1" xmlns="http://www.w3.org/2000/svg" xmlns:xlink="http://www.w3.org/1999/xlink" x="0px" y="0px"
	 width="319.277px" height="406.024px" viewBox="0 0 319.277 406.024" enable-background="new 0 0 319.277 406.024"
	 xml:space="preserve">
<g>
	<path fill="#FFFFFF" d="M124.044,232.458c0.599,2.133,1.795,3.214,3.556,3.214c0,0,0,0,0,0c0.592,0,1.238-0.128,2.093-0.415
		c14.253-4.796,28.762-9.63,42.794-14.305l14.92-4.974c0.429-0.143,0.849-0.316,1.407-0.549c0.282-0.118,0.604-0.253,0.991-0.408
		c0.706-0.284,1.172-0.964,1.183-1.725c0.011-0.761-0.436-1.453-1.134-1.757c-0.293-0.128-0.508-0.229-0.676-0.308
		c-0.33-0.155-0.615-0.288-0.97-0.372c-7.406-1.765-15.331-2.626-24.229-2.635h-0.089c-14.21,0-27.851,2.91-40.544,8.648
		c-2.787,1.258-3.584,3.149-2.51,5.951C122.102,226.128,123.181,229.369,124.044,232.458z M124.901,220.315
		c12.202-5.517,25.32-8.313,38.99-8.313v-1.887l0.086,1.887c6.779,0.007,12.961,0.522,18.736,1.563l-11.419,3.806
		c-14.034,4.676-28.546,9.511-42.804,14.309c-0.314,0.105-0.526,0.16-0.668,0.189c-0.04-0.098-0.089-0.236-0.143-0.429
		c-0.894-3.2-2.01-6.552-3.317-9.965c-0.156-0.408-0.199-0.633-0.21-0.737C124.238,220.666,124.445,220.521,124.901,220.315z"/>
	<path fill="#FFFFFF" d="M225.777,252.501c1.635,0,3.257-0.264,4.821-0.785c7.967-2.656,12.288-11.301,9.633-19.271
		c-2.078-6.23-7.885-10.416-14.449-10.416c-1.635,0-3.257,0.264-4.821,0.785c-7.968,2.658-12.288,11.302-9.631,19.268
		C213.405,248.315,219.212,252.501,225.777,252.501z M222.154,226.396c1.179-0.394,2.399-0.592,3.627-0.592
		c4.937,0,9.305,3.148,10.868,7.835c1.998,5.995-1.253,12.498-7.246,14.495c-1.178,0.394-2.398,0.593-3.626,0.593
		c-4.938,0-9.304-3.15-10.867-7.839C212.911,234.896,216.161,228.394,222.154,226.396z"/>
	<path fill="#FFFFFF" d="M105.295,277.435c-2.078-6.23-7.884-10.417-14.448-10.417c-1.635,0-3.256,0.265-4.82,0.785
		c-3.86,1.288-6.988,4.001-8.808,7.64c-1.819,3.64-2.113,7.769-0.825,11.628c2.078,6.233,7.884,10.421,14.448,10.421
		c1.635,0,3.258-0.265,4.822-0.786C103.632,294.048,107.952,285.404,105.295,277.435z M94.469,293.123
		c-1.179,0.394-2.399,0.593-3.628,0.593c-4.937,0-9.304-3.15-10.867-7.84c-0.968-2.902-0.748-6.008,0.621-8.745
		c1.368-2.737,3.721-4.778,6.625-5.746c1.178-0.394,2.398-0.592,3.626-0.592c4.937,0,9.304,3.149,10.867,7.836
		C103.712,284.623,100.463,291.125,94.469,293.123z"/>
	<path fill="#FFFFFF" d="M309.25,368.884c2.198-1.325,2.71-3.084,2.752-4.325c0.146-4.271-5.071-8.513-6.962-9.907
		c-0.066-0.946-0.282-1.8-0.52-2.414c-0.064-0.165-0.151-0.319-0.258-0.461c-2.848-3.736-6.348-5.791-10.403-6.108
		c-2.377-0.186-4.812,0.249-7.248,1.11c3.588-19.466-0.501-37.018-10.901-46.157c-5.558-4.884-15.458-9.493-31.402-4.565
		c-1.51-5.587-7.291-13.329-11.522-17.335c2.172-1.149,4.276-2.374,6.279-3.669c20.349-13.154,30.607-31.381,26.755-47.063
		c0.081-0.374,0.054-0.773-0.11-1.15l-0.299-0.699c-0.185-0.438-0.315-0.74-0.468-1.036c-3.147-6.073-5.593-11.177-6.082-16.928
		c-0.269-3.169-1.753-4.902-3.511-6.022c0.004-0.159-0.005-0.321-0.044-0.483c-5.28-22.058-11.583-24.063-26.808-28.908
		c-2.881-0.917-6.072-1.934-9.664-3.212c7.746-7.378,13.85-16.59,17.599-27.135c0.713,0.065,1.429,0.099,2.14,0.099
		c12.958,0,23.499-10.542,23.499-23.5c0-12.959-10.542-23.502-23.499-23.502c-0.71,0-1.426,0.033-2.14,0.099
		c-9.881-27.795-36.101-46.359-65.734-46.359c-1.571,0-3.131,0.063-4.682,0.167c-0.415-0.199-0.899-0.252-1.372-0.104
		c-0.376,0.116-0.753,0.222-1.131,0.32c-1.796,0.185-3.576,0.44-5.337,0.763c-4.176,0.135-8.335-0.807-12.132-2.809
		c-5.766-3.041-10.003-8.146-11.931-14.372c-3.122-10.086,2.543-20.831,12.628-23.953c7.871-2.438,16.254,1.987,18.689,9.856
		c1.887,6.094-1.538,12.588-7.634,14.476c-4.679,1.448-9.662-1.181-11.111-5.858c-1.096-3.545,0.896-7.32,4.44-8.416
		c0.996-0.309,1.554-1.365,1.246-2.361c-0.308-0.997-1.366-1.549-2.361-1.246c-5.533,1.712-8.642,7.605-6.931,13.14
		c2.065,6.665,9.167,10.412,15.835,8.348c8.084-2.503,12.626-11.116,10.124-19.198c-3.051-9.857-13.552-15.392-23.411-12.347
		c-12.074,3.737-18.856,16.601-15.119,28.676c2.226,7.19,7.119,13.084,13.777,16.595c1.449,0.765,2.945,1.388,4.471,1.885
		c-19.624,6.522-35.792,21.583-43.332,41.551c-0.871-0.098-1.74-0.147-2.599-0.147c-12.958,0-23.5,10.543-23.5,23.501
		c0,12.959,10.542,23.502,23.5,23.502c0.556,0,1.124-0.021,1.701-0.064c4.376,13.118,12.321,24.226,22.559,32.411
		c-7.467,2.725-9.535,7.849-11.379,12.447c-0.992,2.475-1.929,4.812-3.622,6.898c-4.425,5.456-10.528,9.172-16.99,13.104
		c-5.905,3.595-11.998,7.321-17.048,12.587c-0.463-0.119-0.947-0.185-1.445-0.185c-1.216,0-2.416,0.361-3.469,1.046
		c-1.82,1.182-2.834,3.105-2.86,5.008c-1.088,0.065-2.155,0.403-3.102,1.018c-1.308,0.85-2.252,2.108-2.658,3.546
		c-0.351,1.242-0.266,2.491,0.224,3.606c-0.638,0.175-1.255,0.441-1.828,0.814c-1.308,0.85-2.252,2.108-2.658,3.546
		c-0.411,1.453-0.227,2.918,0.499,4.145c-0.866,0.143-1.706,0.463-2.467,0.957c-1.308,0.85-2.252,2.108-2.658,3.546
		c-0.432,1.527-0.214,3.07,0.621,4.354l2.944,4.457c-0.923,0.949-1.845,1.891-2.776,2.87c-1.984,2.091-3.778,4.471-2.062,8.516
		c1.249,2.947,0.925,4.016-1.927,6.351c-1.051,0.864-1.664,2.637-1.367,3.951c0.196,0.868,0.387,1.739,0.579,2.609
		c0.878,3.996,1.787,8.127,3.136,12.092c0.693,2.036,2.254,3.666,3.631,5.104c0.366,0.382,0.73,0.761,1.072,1.143
		c0.767,0.856,2.144,1.477,3.274,1.477c0.297,0,0.582-0.04,0.846-0.12c2.851-0.854,5.642-1.788,8.561-2.772
		c4.243,5.916,11.129,9.599,18.688,9.599c0.596,0,1.19-0.026,1.783-0.072c0.372,1.069,0.646,2.278,0.878,3.439
		c-14.41,5.084-21.969,8.479-30.291,21.143c-1.798,2.638-3.21,5.863-4.575,8.981c-2.893,6.609-5.63,12.848-11.531,13.358
		c-7.939-0.791-16.399-3.615-22.124-7.4c-4.979-3.292-8.304-2.44-9.843-1.641c-2.047,1.064-3.312,3.231-3.384,5.796
		c-0.047,1.689,0.448,3.764,1.737,5.811c-2.388,0.075-4.346,0.938-5.488,2.562c-0.544,0.774-1.824,3.19,0.211,6.667
		c-1.304,0.656-2.288,1.883-2.742,3.56c-0.707,2.611,0.071,5.776,2.183,7.925c-0.277,0.307-0.47,0.612-0.601,0.868
		c-0.767,1.498-0.541,3.344,0.607,4.937c0.99,1.375,2.836,2.695,5.41,3.046c0.042,0.893,0.394,1.818,1.06,2.718
		c3.43,4.643,15.409,8.896,25.76,11.054c3.627,0.756,10.188,1.895,16.783,1.895c5.362,0,10.747-0.753,14.593-3.076
		c2.895-1.748,5.641-4.845,5.156-10.185c8.401-1.582,22.102-5.744,28.634-16.441c3.092,0.63,6.916,0.989,11.039,0.989
		c9.751,0,21.133-2.014,28.3-7.161c5.036,0.377,10.098,0.638,15.117,0.638c16.835,0,33.138-2.931,46.078-14.006
		c1.455,0.509,3.214,0.749,5.169,0.749c6.032,0,13.823-2.215,19.63-5.322c-0.012,1.247,0.036,2.484,0.157,3.699
		c0.701,7.016,3.534,12.332,8.177,15.432c0.009,0.094,0.018,0.188,0.041,0.281c0.644,2.574,0.217,7.507-0.16,11.858
		c-0.469,5.409-0.874,10.081,0.274,12.377c2.281,4.988,6.363,8.171,11.804,9.205c1.266,0.24,2.581,0.356,3.927,0.356
		c7.133,0,15.112-3.284,20.95-8.816c5.193-3.156,10.161-2.825,14.963-2.504c4.079,0.276,8.295,0.56,12.243-1.443
		c1.021-0.518,1.705-1.386,1.928-2.444c0.016-0.075,0.029-0.15,0.04-0.226c1.41,0.252,2.939-0.092,4.301-1.85
		c1.351-1.742,0.789-3.603-0.381-5.365c0.639-0.294,1.18-0.766,1.582-1.393c0.057-0.089,0.106-0.183,0.147-0.279
		c1.041-2.445,0.17-4.38-1.227-6.057C309.187,368.921,309.218,368.903,309.25,368.884z M158.955,245.62l11.932,16.276l-0.001,0.001
		l0.422,0.575l0.325,0.443c0.094,0.128,0.202,0.24,0.319,0.337c0.343,0.285,0.771,0.435,1.205,0.435
		c0.387,0,0.778-0.119,1.114-0.365c0.413-0.303,0.665-0.743,0.744-1.211c0.047-0.283,0.025-0.574-0.059-0.854
		c-0.046-0.151-0.112-0.297-0.197-0.436c-0.028-0.046-0.048-0.094-0.081-0.138l-0.741-1.011c-0.002-0.003-0.003-0.006-0.005-0.009
		L162,243.388c-0.001-0.002-0.003-0.004-0.005-0.006l-2.983-4.069c-0.677-0.923-0.476-2.226,0.447-2.902
		c0.923-0.676,2.226-0.477,2.912,0.459l16.141,21.66l-0.114,0.069c0.111,0.087,0.229,0.161,0.355,0.22
		c0.648,0.697,1.724,0.817,2.505,0.236c0.836-0.623,1.008-1.806,0.386-2.642l-0.402-0.54l-15.834-21.248
		c-0.001-0.002-0.003-0.003-0.004-0.005l-1.116-1.522c-0.677-0.924-0.477-2.226,0.447-2.902c0.924-0.68,2.226-0.476,2.902,0.446
		l16.787,22.899c0.128,0.174,0.284,0.312,0.452,0.429c0.052,0.036,0.104,0.072,0.158,0.102l1.467,1.97
		c0.371,0.497,0.939,0.76,1.515,0.76c0.196,0,0.392-0.03,0.582-0.093c0.001,0,0.002,0,0.003,0c0.189-0.062,0.373-0.155,0.541-0.281
		c0.728-0.542,0.952-1.508,0.587-2.301c-0.054-0.117-0.121-0.232-0.201-0.341l-15.28-20.512c-0.328-0.447-0.462-0.995-0.378-1.544
		c0.085-0.548,0.377-1.029,0.824-1.357c0.448-0.327,0.998-0.462,1.544-0.378c0.548,0.084,1.031,0.377,1.312,0.759l14.821,22.16
		l0.169,0.253c0.178,0.266,0.415,0.464,0.679,0.606c-0.113,0.198-0.197,0.417-0.233,0.655c-0.04,0.26-0.109,0.562-0.191,0.883
		c-0.016,0.061-0.035,0.127-0.052,0.191c-1.058,3.91-4.784,11.431-6.805,12.957c-7.956,6.008-13.89,7.945-16.708,5.455
		c-2.396-2.117-2.071-6.646-1.61-7.448c0.003-0.005,0.004-0.01,0.007-0.015c0.042-0.067,0.072-0.14,0.104-0.212
		c0.019-0.042,0.044-0.083,0.06-0.126c0.019-0.052,0.027-0.105,0.041-0.158c0.018-0.066,0.04-0.132,0.05-0.198
		c0.003-0.022,0.001-0.046,0.004-0.067c0.012-0.098,0.021-0.194,0.017-0.292c-0.003-0.073-0.018-0.145-0.029-0.219
		c-0.007-0.046-0.008-0.093-0.019-0.139c-0.013-0.059-0.038-0.114-0.057-0.172c-0.007-0.019-0.012-0.038-0.02-0.057
		c-0.015-0.039-0.024-0.081-0.041-0.119c-0.018-0.041-0.045-0.078-0.067-0.118c-0.038-0.07-0.075-0.142-0.122-0.207
		c-0.003-0.005-0.005-0.01-0.008-0.015l-11.932-16.276c-0.677-0.924-0.477-2.226,0.447-2.902
		C156.977,244.496,158.279,244.699,158.955,245.62z M163.884,265.754c-0.812,2.878-0.38,8.04,2.745,10.898
		c1.545,1.413,3.438,2.119,5.671,2.119c0.067,0,0.136-0.006,0.204-0.007c7.301,6.457,16.562,9.136,26.325,9.136
		c5.522,0,11.201-0.865,16.773-2.369c-10.985,5.611-26.081,10.108-42.694,12.494c-25.349,3.643-47.811,1.419-60.082-5.944
		c-0.333-0.199-0.702-0.284-1.062-0.267c1.442-3.153,2.182-6.632,2.087-10.185l49.558-16.523L163.884,265.754z M237.014,271.881
		c-17.779,11.493-43.352,17.758-59.7,5.911c3.173-1.129,6.809-3.234,10.896-6.321c3.488-2.635,7.957-12.918,8.504-16.47
		c0.052-0.338,0.003-0.665-0.111-0.963l10.402-3.468c4.235,5.985,11.159,9.718,18.769,9.718c2.469,0,4.92-0.399,7.283-1.186
		c5.833-1.945,10.56-6.045,13.309-11.545c1.747-3.495,2.554-7.289,2.417-11.088l13.694-6.136
		C265.56,246.765,251.105,262.773,237.014,271.881z M208.567,228.66c2.298-4.597,6.249-8.023,11.126-9.648
		c1.978-0.66,4.027-0.994,6.09-0.994c8.291,0,15.625,5.288,18.249,13.16c1.626,4.876,1.257,10.094-1.042,14.691
		c-2.298,4.598-6.249,8.024-11.126,9.65c-1.977,0.659-4.026,0.994-6.089,0.994c-8.292,0-15.627-5.29-18.252-13.164
		C205.898,238.474,206.268,233.258,208.567,228.66z M107.653,138.554c-0.248-0.799-0.985-1.329-1.802-1.329
		c-0.086,0-0.174,0.006-0.262,0.019c-0.948,0.132-1.878,0.198-2.767,0.198c-10.876,0-19.725-8.85-19.725-19.727
		c0-10.877,8.848-19.726,19.725-19.726c1.155,0,2.336,0.108,3.511,0.318c0.913,0.165,1.807-0.357,2.115-1.23
		c7.809-22.16,26.747-38.202,49.197-42.742c0.314,0.299,0.726,0.499,1.193,0.525c6.509,0.362,12.486,3.238,16.832,8.098
		c4.345,4.859,6.539,11.12,6.175,17.629c-0.587,10.541-9.645,18.655-20.181,18.053c-8.225-0.461-14.543-7.526-14.085-15.751
		c0.171-3.086,1.535-5.921,3.839-7.981c2.304-2.06,5.281-3.109,8.36-2.928c2.368,0.132,4.543,1.178,6.125,2.946
		c1.582,1.769,2.38,4.048,2.247,6.416c-0.206,3.704-3.402,6.549-7.093,6.342c-1.058-0.055-1.932,0.739-1.99,1.779
		c-0.058,1.041,0.739,1.932,1.779,1.99c2.803,0.146,5.496-0.786,7.587-2.657c2.091-1.869,3.33-4.442,3.486-7.243
		c0.188-3.376-0.949-6.623-3.203-9.144c-2.254-2.521-5.354-4.012-8.729-4.199c-4.094-0.217-8.031,1.152-11.086,3.884
		c-3.056,2.733-4.865,6.492-5.093,10.585c-0.574,10.302,7.34,19.152,17.643,19.73c0.432,0.023,0.86,0.036,1.288,0.036
		c12.06-0.001,22.194-9.461,22.873-21.647c0.419-7.516-2.113-14.745-7.131-20.356c-2.932-3.278-6.509-5.768-10.474-7.36
		c0.892-0.036,1.788-0.056,2.686-0.056c28.521,0,53.7,18.181,62.654,45.24c0.291,0.879,1.175,1.412,2.09,1.271
		c1.039-0.167,2.092-0.251,3.129-0.251c10.876,0,19.724,8.85,19.724,19.727c0,10.876-8.848,19.725-19.724,19.725
		c-1.042,0-2.094-0.084-3.129-0.25c-0.912-0.14-1.8,0.393-2.09,1.271c-3.793,11.463-10.506,21.322-19.143,28.892
		c-0.146,0.128-0.291,0.259-0.438,0.386c-11.693,10.064-26.839,15.962-43.073,15.962c-13.971,0-27.066-4.309-37.866-11.854
		c-0.223-0.278-0.518-0.487-0.854-0.604C120.693,164.387,112.017,152.648,107.653,138.554z M97.054,209.239
		c6.452-3.927,13.123-7.987,17.959-13.95c2.053-2.531,3.141-5.246,4.194-7.872c2.044-5.096,3.692-9.152,11.648-11.043
		c11.381,7.894,25.154,12.4,39.842,12.4c16.887,0,32.661-6.036,44.939-16.366c4.455,1.638,8.3,2.864,11.715,3.951
		c14.379,4.575,19.12,6.094,23.709,23.893c-4.383-1.526-9.179-2.254-14.886-2.254c-1.058,0-2.181,0.025-3.336,0.075
		c-9.074,0.395-18.647,2.28-30.13,5.933c-2.425,0.773-4.329,1.118-6.173,1.118c-1.601,0-3.196-0.27-4.877-0.824
		c-8.143-2.688-16.828-4.052-25.816-4.052c-8.603,0-17.511,1.19-27.234,3.635c-12.027,3.025-23.943,8.116-36.111,15.431
		c0.663-1.152,0.854-2.513,0.53-3.884c-0.343-1.454-1.231-2.754-2.502-3.658c-1.102-0.785-2.375-1.2-3.681-1.2
		c-1.807,0-3.413,0.799-4.406,2.192l-8.63,12.108l-2.638-4.063C85.815,216.104,91.517,212.609,97.054,209.239z M94.029,224.74
		c-1.637,1.111-3.278,2.251-4.928,3.443c-0.707,0.512-1.413,1.051-2.121,1.578l-0.963-1.484l9.495-13.322
		c0.275-0.386,0.76-0.608,1.331-0.608c0.509,0,1.039,0.178,1.492,0.5c0.516,0.368,0.887,0.896,1.018,1.45
		c0.064,0.273,0.123,0.799-0.202,1.255L94.029,224.74z M75.185,222.628c0.44-0.285,0.929-0.437,1.413-0.437
		c0.616,0,1.127,0.244,1.402,0.668l13.474,20.758c0.305,0.47,0.222,0.992,0.146,1.263c-0.154,0.548-0.548,1.059-1.081,1.404
		c-0.784,0.512-1.766,0.538-2.391,0.16l-10.345-15.676l-3.553-5.474C73.741,224.509,74.169,223.288,75.185,222.628z M95.192,242.71
		c-0.135-0.4-0.315-0.785-0.55-1.147l-1.433-2.208c5.769-4.156,12.036-8.216,19.006-12.314l0.16,0.478
		c0.984,2.936,1.919,5.722,2.79,8.512C108.479,238.281,101.748,240.529,95.192,242.71z M68.143,230.06
		c0.155-0.548,0.549-1.061,1.08-1.406c0.44-0.285,0.929-0.436,1.413-0.436c0.616,0,1.127,0.243,1.411,0.682l15.078,22.848
		c0.305,0.47,0.222,0.992,0.146,1.262c-0.155,0.549-0.548,1.061-1.08,1.406c-0.999,0.648-2.317,0.537-2.824-0.245l-0.373-0.565
		c-0.03-0.049-0.055-0.102-0.087-0.15l-11.963-18.657c-0.325-0.501-0.738-0.927-1.207-1.282l-1.449-2.195
		C67.984,230.852,68.067,230.329,68.143,230.06z M63.881,238.026c0.155-0.548,0.548-1.061,1.081-1.406
		c0.44-0.285,0.929-0.437,1.413-0.437c0.616,0,1.126,0.244,1.397,0.66L79.736,255.5c0.304,0.47,0.222,0.992,0.146,1.262
		c-0.154,0.548-0.548,1.06-1.081,1.405c-0.998,0.648-2.327,0.522-2.81-0.223l-11.964-18.659
		C63.722,238.818,63.805,238.295,63.881,238.026z M59.254,246.673c0.155-0.548,0.548-1.061,1.081-1.406
		c0.44-0.285,0.929-0.436,1.413-0.436c0.616,0,1.126,0.244,1.411,0.682l8.573,12.978c0.305,0.47,0.222,0.992,0.146,1.262
		c-0.154,0.548-0.548,1.059-1.081,1.405c-0.999,0.647-2.316,0.536-2.824-0.244L59.4,247.933
		C59.095,247.465,59.178,246.943,59.254,246.673z M62.693,294.779c-0.14-0.041-0.342-0.142-0.41-0.203
		c-0.37-0.413-0.763-0.824-1.158-1.236c-1.16-1.211-2.36-2.463-2.783-3.709c-1.281-3.765-2.167-7.791-3.023-11.686
		c-0.187-0.848-0.373-1.695-0.564-2.542c0.015-0.099,0.072-0.258,0.123-0.342c3.511-2.89,5.111-5.579,2.946-10.69
		c-0.789-1.858-0.448-2.576,1.324-4.443c0.728-0.766,1.446-1.496,2.169-2.242l3.499,5.296c0.971,1.495,2.679,2.388,4.569,2.388
		c1.216,0,2.416-0.361,3.468-1.045c0.959-0.622,1.717-1.467,2.216-2.439c0.709,0.316,1.494,0.495,2.319,0.495
		c1.216,0,2.416-0.361,3.469-1.046c1.109-0.72,1.934-1.743,2.414-2.911c0.482,0.13,0.987,0.204,1.508,0.204
		c1.215,0,2.415-0.361,3.468-1.045c1.309-0.849,2.253-2.108,2.659-3.547c0.364-1.291,0.26-2.59-0.282-3.737
		c0.689-0.172,1.357-0.446,1.972-0.846c1.035-0.67,1.828-1.603,2.322-2.672c7.195-2.392,14.616-4.868,21.978-7.348
		c1.304-0.435,2.56-2.288,2.111-3.757c-0.952-3.092-1.972-6.135-3.052-9.356l-0.895-2.673c-0.179-0.538-0.591-0.967-1.121-1.168
		c-0.532-0.201-1.123-0.153-1.614,0.131c-7.826,4.523-14.795,8.99-21.172,13.576l-2.111-3.252c0.758-0.566,1.516-1.143,2.273-1.691
		c16.516-11.939,32.287-19.69,48.216-23.698c9.418-2.368,18.025-3.52,26.314-3.52c8.585,0,16.872,1.299,24.632,3.86
		c2.069,0.684,4.052,1.016,6.061,1.016c2.249,0,4.507-0.4,7.318-1.296c11.155-3.548,20.418-5.378,29.148-5.759
		c1.102-0.048,2.169-0.071,3.173-0.071c6.224,0,11.236,0.908,15.774,2.859c2.271,0.976,2.978,1.842,3.149,3.861
		c0.53,6.23,3.208,11.94,5.648,16.706c-0.016,0.489,0.159,0.98,0.538,1.358c0.024,0.04,0.043,0.081,0.062,0.12
		c0.003,0.006,0.007,0.014,0.01,0.02l-13.061,5.853c-0.182-0.861-0.399-1.72-0.682-2.567c-3.138-9.415-11.911-15.741-21.83-15.741
		c-2.47,0-4.921,0.399-7.284,1.188c-5.833,1.944-10.559,6.043-13.309,11.542c-2.749,5.499-3.193,11.74-1.248,17.571
		c0.311,0.934,0.693,1.829,1.111,2.698l-9.758,3.254l-14.654-21.907c-0.924-1.262-2.284-2.087-3.83-2.325
		c-1.546-0.232-3.089,0.142-4.35,1.064c-0.583,0.428-1.061,0.955-1.442,1.544l-0.339-0.462c-1.908-2.603-5.579-3.167-8.179-1.259
		c-1.675,1.228-2.5,3.185-2.371,5.118c-1.017,0.096-2.021,0.451-2.903,1.097c-2.492,1.827-3.109,5.269-1.482,7.843
		c-0.674,0.182-1.328,0.482-1.924,0.92c-2.603,1.907-3.168,5.576-1.26,8.18l8.504,11.601l-47.646,15.886
		c-0.187-0.943-0.428-1.885-0.739-2.82c-3.14-9.417-11.913-15.744-21.831-15.744c-2.469,0-4.92,0.399-7.283,1.188
		c-12.04,4.015-18.572,17.075-14.559,29.116c0.327,0.979,0.728,1.917,1.171,2.826C67.632,293.216,65.173,294.032,62.693,294.779z
		 M72.588,288.339c-3.354-10.065,2.105-20.984,12.172-24.34c1.978-0.66,4.026-0.994,6.089-0.994c8.29,0,15.624,5.289,18.25,13.162
		c3.354,10.067-2.104,20.986-12.168,24.341c-1.978,0.66-4.027,0.994-6.09,0.994C82.549,301.502,75.214,296.212,72.588,288.339z
		 M107.059,366.753c7.107-13.208,4.813-26.408-6.725-38.318c-0.726-0.748-1.92-0.768-2.669-0.042
		c-0.748,0.725-0.768,1.92-0.042,2.669c10.439,10.776,12.457,22.213,6.041,34.021c-0.22,0.183-0.407,0.412-0.529,0.691
		c-4.965,11.35-19.104,15.621-27.476,17.185c-0.358-1.134-0.837-2.344-1.464-3.64c-0.454-0.939-1.583-1.334-2.521-0.878
		c-0.938,0.454-1.331,1.582-0.877,2.52c4.4,9.1-0.026,11.773-1.481,12.652c-11.978,7.23-47.454-2.53-52.149-8.884
		c-0.458-0.619-0.366-0.702-0.06-0.976c0.623-0.557,0.806-1.456,0.45-2.211c-0.356-0.757-1.169-1.189-1.991-1.062
		c-2.507,0.381-4.146-0.513-4.841-1.477c-0.352-0.488-0.377-0.879-0.31-1.01c0.078-0.152,0.513-0.38,1.39-0.38
		c0.943,0,1.742-0.696,1.87-1.631c0.128-0.934-0.453-1.819-1.361-2.074c-2.832-0.794-3.676-3.671-3.197-5.442
		c0.405-1.498,1.456-1.409,2.211-1.213c0.825,0.218,1.691-0.148,2.115-0.888c0.424-0.739,0.299-1.671-0.303-2.273
		c-1.9-1.9-2.704-3.733-2.047-4.667c0.736-1.046,3.664-1.629,7.869,0.352c0.913,0.433,2,0.068,2.472-0.822
		c0.472-0.891,0.162-1.994-0.705-2.509c-3.921-2.324-5.256-5.378-5.199-7.46c0.034-1.192,0.526-2.123,1.352-2.552
		c1.367-0.712,3.56-0.187,6.02,1.439c6.349,4.197,15.334,7.199,24.036,8.03c0.027,0.003,0.053-0.002,0.081-0.001
		c0.033,0.002,0.063,0.01,0.097,0.01c0.045,0,0.091-0.002,0.137-0.005c0.017-0.001,0.031-0.005,0.047-0.007
		c0.018-0.001,0.036-0.004,0.054-0.006c8.191-0.652,11.673-8.596,14.745-15.613c1.355-3.097,2.635-6.022,4.253-8.396
		c7.95-12.098,14.902-14.953,29.799-20.17c20.059-3.957,41.458,32.427,45.592,49.598
		C132.991,367.239,116.903,368.414,107.059,366.753z M145.386,360.338c-4.447-18.279-26.231-54.794-48.215-52.581
		c-0.209-1.038-0.448-2.116-0.771-3.167c0.579-0.145,1.155-0.309,1.725-0.5c5.197-1.733,9.364-5.154,12.103-9.449
		c0.155,0.269,0.371,0.506,0.655,0.677c9.458,5.676,23.527,8.137,38.876,8.137c30.03,0,64.943-9.424,79.751-22.63
		c3.88,3.327,9.819,11.339,11.128,16.059c-10.807,1.735-24.283,11.718-32.199,24.101c-6.078,9.509-7.862,18.947-5.073,26.65
		C187.746,361.161,166.37,361.861,145.386,360.338z M307.544,365.492c-0.731-0.174-2.292-1.155-2.832-1.496
		c-0.897-0.564-1.307-0.822-1.951-0.822c-0.726,0-1.387,0.416-1.701,1.07c-0.314,0.653-0.226,1.43,0.227,1.996
		c0.972,1.216,2.075,2.254,3.048,3.17c2.178,2.051,2.894,2.907,2.667,3.833c-0.001,0-0.002,0-0.003,0
		c-0.413,0-1.606-0.474-2.805-1.871c-0.666-0.776-1.829-0.883-2.623-0.236c-0.794,0.645-0.93,1.804-0.307,2.615
		c0.584,0.76,1.298,1.542,1.989,2.299c0.974,1.066,2.788,3.053,2.797,3.671c-0.458,0.591-0.667,0.859-3.01-0.892
		c-0.189-0.142-0.374-0.279-0.553-0.409c-0.768-0.555-1.83-0.453-2.479,0.236c-0.65,0.69-0.687,1.756-0.087,2.489
		c0.522,0.638,1.026,1.624,1.077,2.07c-3.008,1.499-6.353,1.274-10.222,1.014c-5.184-0.348-11.06-0.745-17.332,3.135
		c-0.002,0.001-0.004,0.004-0.007,0.005c-0.047,0.03-0.089,0.069-0.134,0.103c-0.058,0.044-0.119,0.085-0.17,0.134
		c-0.001,0.002-0.003,0.003-0.005,0.004c-6.012,5.788-14.955,8.93-21.741,7.641c-4.247-0.807-7.3-3.184-9.103-7.125
		c-0.7-1.401-0.267-6.403,0.081-10.422c0.422-4.874,0.859-9.914,0.062-13.101c-0.089-0.357-0.279-0.662-0.527-0.899
		c-0.047-0.568-0.343-1.11-0.861-1.439c-4.813-3.062-6.319-8.669-6.735-12.833c-0.209-2.092-0.175-4.278,0.056-6.468
		c0.012-0.062,0.013-0.126,0.018-0.19c0.792-7.151,3.758-14.306,7.896-18.285c0.751-0.723,0.775-1.917,0.053-2.669
		c-0.723-0.75-1.918-0.774-2.669-0.052c-4.634,4.455-7.924,12.018-8.937,19.764c-6.852,4.455-18.246,7.195-23.396,5.747
		c-0.06-0.116-0.132-0.227-0.219-0.332c-0.019-0.075-0.034-0.151-0.062-0.226c-2.579-6.633-0.953-15.051,4.578-23.703
		c7.708-12.057,21.457-21.983,31.302-22.599c0.024-0.001,0.047-0.009,0.071-0.012c0.04-0.004,0.08-0.009,0.121-0.016
		c0.044-0.007,0.088-0.016,0.131-0.026c0.041-0.01,0.081-0.021,0.121-0.033c0.021-0.007,0.043-0.008,0.064-0.016
		c12.254-4.301,22.555-3.214,29.79,3.142c9.608,8.442,13.26,25.972,9.303,44.659c-0.036,0.17-0.04,0.338-0.03,0.504
		c-6.853,3.663-13.431,9.96-18.38,14.699c-1.125,1.076-2.161,2.069-3.091,2.926c-0.767,0.705-0.817,1.899-0.111,2.667
		c0.372,0.404,0.88,0.609,1.39,0.609c0.457,0,0.915-0.165,1.277-0.499c0.947-0.87,2.002-1.881,3.146-2.977
		c7.195-6.889,18.064-17.302,26.843-16.614c2.893,0.227,5.351,1.662,7.504,4.389c0.17,0.588,0.536,2.235-0.356,3.127
		c-1.341,1.343-3.29,2.103-8.428-1.393c-0.864-0.589-2.037-0.363-2.622,0.499c-0.586,0.862-0.363,2.036,0.499,2.622
		c2.306,1.568,8.43,5.733,13.221,0.94c0.283-0.283,0.523-0.585,0.726-0.898c2.451,2.07,4.167,4.386,4.121,5.712
		C308.223,364.612,308.209,365.014,307.544,365.492z"/>
	<path fill="#FFFFFF" d="M52.174,364.082c-0.902-0.525-2.056-0.221-2.582,0.679c-2.807,4.811-8.083,10.085-13.543,11.023
		c-2.774,0.481-5.334-0.257-7.607-2.179c-0.796-0.675-1.987-0.573-2.66,0.221c-0.673,0.796-0.574,1.987,0.222,2.66
		c2.509,2.123,5.389,3.214,8.434,3.214c0.741,0,1.493-0.064,2.251-0.195c7.114-1.222,13.154-7.681,16.165-12.841
		C53.379,365.763,53.074,364.608,52.174,364.082z"/>
	<path fill="#FFFFFF" d="M290.456,373.988c-3.364,1.495-7.741,1.467-10.646-0.069c-1.888-0.998-3.031-2.527-3.398-4.544
		c-0.186-1.025-1.166-1.706-2.195-1.52c-1.025,0.186-1.706,1.17-1.519,2.195c0.576,3.169,2.426,5.66,5.348,7.206
		c2.022,1.068,4.491,1.605,7.015,1.605c2.37,0,4.788-0.474,6.929-1.425c0.953-0.423,1.382-1.538,0.958-2.491
		C292.524,373.994,291.409,373.564,290.456,373.988z"/>
	<path fill="#FFFFFF" d="M137.606,115.93c1.043,0,1.888-0.846,1.888-1.888c0-3.35,2.725-6.074,6.075-6.074s6.075,2.725,6.075,6.074
		c0,1.042,0.845,1.888,1.888,1.888c1.043,0,1.888-0.846,1.888-1.888c0-5.431-4.419-9.85-9.851-9.85c-5.432,0-9.851,4.419-9.851,9.85
		C135.718,115.084,136.563,115.93,137.606,115.93z"/>
	<path fill="#FFFFFF" d="M186.705,115.93c1.043,0,1.888-0.846,1.888-1.888c0-3.35,2.725-6.074,6.075-6.074s6.075,2.725,6.075,6.074
		c0,1.042,0.845,1.888,1.888,1.888c1.042,0,1.888-0.846,1.888-1.888c0-5.431-4.419-9.85-9.851-9.85c-5.432,0-9.85,4.419-9.85,9.85
		C184.818,115.084,185.663,115.93,186.705,115.93z"/>
	<path fill="#FFFFFF" d="M164.846,135.041c1.043,0,1.888-0.846,1.888-1.888c0-2.186,1.778-3.963,3.963-3.963
		c2.185,0,3.963,1.777,3.963,3.963c0,1.042,0.845,1.888,1.888,1.888c1.042,0,1.888-0.846,1.888-1.888
		c0-4.267-3.472-7.738-7.738-7.738s-7.738,3.472-7.738,7.738C162.958,134.196,163.803,135.041,164.846,135.041z"/>
	<path fill="#FFFFFF" d="M236.947,128.836c-1.042,0-1.888,0.846-1.888,1.888c0,1.042,0.845,1.888,1.888,1.888
		c7.499,0,13.6-6.102,13.6-13.601c0-7.498-6.101-13.599-13.6-13.599c-1.042,0-1.888,0.846-1.888,1.888s0.845,1.888,1.888,1.888
		c5.417,0,9.824,4.406,9.824,9.823C246.771,124.429,242.363,128.836,236.947,128.836z"/>
	<path fill="#FFFFFF" d="M104.835,107.202c1.042,0,1.888-0.846,1.888-1.888s-0.845-1.888-1.888-1.888
		c-7.499,0-13.6,6.102-13.6,13.601c0,7.498,6.101,13.599,13.6,13.599c1.042,0,1.888-0.846,1.888-1.888
		c0-1.042-0.845-1.888-1.888-1.888c-5.417,0-9.824-4.406-9.824-9.823C95.011,111.609,99.418,107.202,104.835,107.202z"/>
	<path fill="#FFFFFF" d="M149.456,143.324c0-1.042-0.845-1.888-1.888-1.888c-1.043,0-1.888,0.846-1.888,1.888
		c0,11.291,10.92,20.549,24.636,21.189c0.123,0.025,0.25,0.038,0.38,0.038c0.191,0,0.379-0.009,0.568-0.012
		c0.189,0.003,0.378,0.012,0.568,0.012c0.13,0,0.257-0.013,0.38-0.038c13.717-0.641,24.635-9.898,24.635-21.189
		c0-1.042-0.845-1.888-1.888-1.888c-1.043,0-1.888,0.846-1.888,1.888c0,9.475-9.732,17.204-21.809,17.441
		C159.189,160.528,149.456,152.798,149.456,143.324z"/>
</g>
</svg>
