<?xml version="1.0" encoding="utf-8"?>
<!-- Generator: Adobe Illustrator 17.0.0, SVG Export Plug-In . SVG Version: 6.00 Build 0)  -->
<!DOCTYPE svg PUBLIC "-//W3C//DTD SVG 1.1//EN" "http://www.w3.org/Graphics/SVG/1.1/DTD/svg11.dtd">
<svg version="1.1" id="Слой_1" xmlns="http://www.w3.org/2000/svg" xmlns:xlink="http://www.w3.org/1999/xlink" x="0px" y="0px"
	 width="363.855px" height="345.783px" viewBox="0 0 363.855 345.783" enable-background="new 0 0 363.855 345.783"
	 xml:space="preserve">
<g>
	<path fill="#FFFFFF" d="M56.378,189.73l-0.623-1.257c-0.732-1.497-1.344-2.52-1.837-3.068c-0.493-0.549-1.178-0.97-2.057-1.264
		c0.513-0.316,0.935-0.684,1.269-1.1c0.334-0.415,0.811-1.177,1.43-2.284l0.377-0.659l0.477-0.868
		c0.684-1.23,1.344-1.844,1.978-1.844c0.041,0,0.106,0.003,0.195,0.013v-1.881l-0.317-0.013c-0.732,0-1.342,0.166-1.831,0.495
		c-0.487,0.329-0.972,0.905-1.452,1.727l-0.635,1.124l-0.77,1.317c-0.846,1.44-1.44,2.325-1.782,2.655
		c-0.342,0.33-0.851,0.494-1.525,0.494h-0.122v-7.8h-2.564v18.066h2.564v-8.35h1.242c1.081,0.724,2.145,2.15,3.192,4.278
		l1.024,2.097l0.791,1.597l0.195,0.378h2.723c-0.408-0.699-0.826-1.508-1.258-2.428C56.679,190.359,56.451,189.884,56.378,189.73z"
		/>
	<path fill="#FFFFFF" d="M66.449,175.518l-7.166,18.066h2.377l1.993-4.992h7.662l1.963,4.992h2.766l-7.057-18.066H66.449z
		 M64.388,186.675l3.094-7.801l3.086,7.801H64.388z"/>
	<path fill="#FFFFFF" d="M82.038,190.045c-1.147-1.327-1.722-3.146-1.722-5.457c0-2.417,0.537-4.289,1.611-5.616
		c1.074-1.326,2.593-1.989,4.554-1.989c1.342,0,3.251,0.428,5.725,1.281v-2.404c-2.173-0.529-4.064-0.794-5.676-0.794
		c-2.841,0-5.04,0.829-6.598,2.485c-1.559,1.655-2.339,3.993-2.339,7.013c0,3.027,0.766,5.363,2.296,7.007
		c1.529,1.645,3.699,2.466,6.506,2.466c2.108,0,4.054-0.46,5.836-1.38v-2.197c-1.953,1.051-3.781,1.574-5.482,1.574
		C84.756,192.033,83.185,191.371,82.038,190.045z"/>
	<path fill="#FFFFFF" d="M103.977,191.609l0.792,1.597l0.194,0.378h2.722c-0.406-0.699-0.826-1.508-1.257-2.428
		c-0.382-0.797-0.61-1.272-0.684-1.427l-0.622-1.257c-0.732-1.497-1.346-2.52-1.838-3.068c-0.492-0.549-1.178-0.97-2.057-1.264
		c0.513-0.316,0.936-0.684,1.27-1.1c0.334-0.415,0.81-1.177,1.429-2.284l0.378-0.659l0.477-0.868
		c0.684-1.23,1.343-1.844,1.977-1.844c0.041,0,0.106,0.003,0.195,0.013v-1.881l-0.316-0.013c-0.732,0-1.344,0.166-1.832,0.495
		c-0.488,0.329-0.972,0.905-1.451,1.727l-0.636,1.124l-0.769,1.317c-0.848,1.44-1.44,2.325-1.783,2.655
		c-0.342,0.33-0.85,0.494-1.525,0.494h-0.122v-7.8h-2.563v18.066h2.563v-8.35h1.243c1.08,0.724,2.145,2.15,3.191,4.278
		L103.977,191.609z"/>
	<path fill="#FFFFFF" d="M118.159,194.036c2.563,0,4.612-0.86,6.146-2.582c1.532-1.721,2.301-4.022,2.301-6.902
		c0-2.882-0.769-5.183-2.301-6.904c-1.534-1.722-3.583-2.582-6.146-2.582c-2.564,0-4.612,0.86-6.147,2.582
		c-1.534,1.722-2.301,4.022-2.301,6.904c0,2.88,0.767,5.182,2.301,6.902C113.547,193.176,115.595,194.036,118.159,194.036z
		 M113.947,178.979c1.01-1.331,2.412-1.996,4.212-1.996c1.798,0,3.202,0.665,4.212,1.996c1.008,1.33,1.513,3.18,1.513,5.548
		c0,2.385-0.505,4.246-1.513,5.585c-1.01,1.339-2.414,2.008-4.212,2.008c-1.8,0-3.202-0.669-4.212-2.008
		c-1.008-1.339-1.514-3.2-1.514-5.585C112.434,182.158,112.94,180.309,113.947,178.979z"/>
	<path fill="#FFFFFF" d="M211.649,83.047c9.095-3.225,18.607-0.862,18.7-0.838c1.011,0.256,2.039-0.348,2.299-1.357
		c0.26-1.009-0.347-2.038-1.356-2.299c-0.432-0.11-10.693-2.683-20.904,0.935c-10.521,3.731-12.817,10.104-12.909,10.373
		c-0.335,0.978,0.181,2.031,1.154,2.38c0.207,0.073,0.42,0.108,0.628,0.108c0.771,0,1.498-0.479,1.78-1.24
		C201.115,90.907,202.981,86.119,211.649,83.047z"/>
	<path fill="#FFFFFF" d="M243.507,147.161c6.145,0,11.145-5,11.145-11.145c0-1.042-0.845-1.888-1.888-1.888
		c-1.043,0-1.888,0.846-1.888,1.888c0,4.064-3.306,7.37-7.369,7.37c-4.064,0-7.37-3.306-7.37-7.37c0-1.042-0.845-1.888-1.888-1.888
		c-1.042,0-1.888,0.846-1.888,1.888C232.361,142.161,237.361,147.161,243.507,147.161z"/>
	<path fill="#FFFFFF" d="M210.876,102.35c0,3.909,2.33,6.971,5.305,6.971c2.974,0,5.304-3.062,5.304-6.971
		c0-0.877-0.123-1.709-0.339-2.476c4.276,1.077,7.32,2.963,7.362,2.989c0.312,0.196,0.66,0.29,1.004,0.29
		c0.627,0,1.241-0.312,1.599-0.882c0.556-0.882,0.29-2.048-0.591-2.604c-0.278-0.175-6.512-4.031-14.278-4.286
		c-0.02,0-0.04-0.004-0.061-0.004c-0.02,0-0.038,0.003-0.057,0.004c-0.468-0.014-0.94-0.018-1.419-0.003
		c-8.809,0.275-12.113,4.576-12.25,4.759c-0.615,0.826-0.445,1.98,0.371,2.61c0.817,0.63,1.997,0.475,2.638-0.33
		c0.08-0.101,1.663-2.014,5.845-2.869C211.031,100.402,210.876,101.348,210.876,102.35z M216.181,105.545
		c-0.539,0-1.529-1.213-1.529-3.195c0-1.982,0.99-3.196,1.529-3.196c0.539,0,1.528,1.214,1.528,3.196
		C217.709,104.332,216.72,105.545,216.181,105.545z"/>
	<path fill="#FFFFFF" d="M212.073,154.27c-0.71-0.762-1.905-0.805-2.667-0.094c-0.763,0.711-0.804,1.905-0.093,2.668
		c8.803,9.442,21.251,14.857,34.154,14.857c12.47,0,24.194-4.856,33.011-13.674c0.737-0.737,0.737-1.933,0-2.67
		c-0.736-0.736-1.933-0.736-2.669,0c-8.105,8.105-18.881,12.568-30.342,12.568C231.607,167.926,220.165,162.948,212.073,154.27z"/>
	<path fill="#FFFFFF" d="M276.934,95.379c-0.486-0.016-0.965-0.012-1.441,0.001c-0.012,0-0.023-0.002-0.035-0.002
		c-0.012,0-0.024,0.002-0.036,0.003c-7.785,0.24-14.024,4.111-14.303,4.287c-0.882,0.556-1.147,1.722-0.591,2.604
		c0.358,0.569,0.972,0.882,1.599,0.882c0.344,0,0.691-0.094,1.004-0.29c0.043-0.027,3.074-1.913,7.362-2.989
		c-0.216,0.767-0.339,1.599-0.339,2.476c0,3.909,2.33,6.971,5.304,6.971c2.975,0,5.305-3.062,5.305-6.971
		c0-1.002-0.155-1.947-0.433-2.801c4.143,0.848,5.736,2.732,5.843,2.865c0.626,0.819,1.797,0.982,2.625,0.365
		c0.836-0.623,1.008-1.806,0.386-2.642C289.047,99.955,285.743,95.654,276.934,95.379z M275.458,105.545
		c-0.539,0-1.528-1.213-1.528-3.195c0-1.982,0.989-3.196,1.528-3.196c0.539,0,1.529,1.214,1.529,3.196
		C276.987,104.332,275.997,105.545,275.458,105.545z"/>
	<path fill="#FFFFFF" d="M261.291,82.209c0.095-0.024,9.564-2.4,18.7,0.838c8.63,3.06,10.517,7.818,10.607,8.06
		c0.274,0.772,1.001,1.256,1.779,1.256c0.203,0,0.41-0.033,0.613-0.102c0.986-0.339,1.511-1.412,1.172-2.398
		c-0.092-0.27-2.388-6.643-12.909-10.373c-10.21-3.62-20.473-1.047-20.904-0.935c-1.009,0.261-1.617,1.29-1.357,2.299
		C259.252,81.861,260.282,82.465,261.291,82.209z"/>
	<path fill="#FFFFFF" d="M337.403,217.467c-0.901-1.302-1.717-2.48-2.415-3.526c-0.003-0.005-0.008-0.009-0.012-0.015
		c-0.017-0.025-0.037-0.048-0.056-0.072c-0.036-0.047-0.075-0.091-0.114-0.134c-0.024-0.026-0.045-0.058-0.07-0.083
		c-0.019-0.018-0.041-0.033-0.061-0.051c-0.045-0.041-0.093-0.078-0.142-0.113c-0.03-0.023-0.057-0.048-0.087-0.068
		c-0.02-0.012-0.042-0.021-0.061-0.033c-0.054-0.032-0.11-0.061-0.167-0.087c-0.036-0.017-0.069-0.036-0.105-0.05
		c-0.006-0.003-0.012-0.008-0.018-0.01c-24.086-9.235-44.439-9.349-50.827-9.104v-20.846c0-0.078-0.014-0.151-0.023-0.227
		c3.573-3.812,6.884-7.831,9.789-11.844c7.932-10.955,9.855-20.351,11.128-26.567c0.9-4.395,1.439-6.714,2.929-7.247
		c6.312-2.26,16.606-10.14,19.097-22.588c2.353-11.77,3.086-19.441-6.547-26.698c-0.871-0.655-1.715-1.189-2.534-1.612
		c0.478-6.106,2.981-40.618-0.348-53.53c-2.536-9.828-11.975-21.908-30.862-26.333c-15.34-3.594-25.416-4.412-36.068-4.584
		C249.697,2.017,249.563,2,249.425,2c-1.007,0-1.997,0.003-2.98,0.009C245.462,2.003,244.473,2,243.466,2
		c-0.138,0-0.272,0.017-0.402,0.045c-10.652,0.172-20.728,0.99-36.068,4.584c-18.887,4.425-28.326,16.504-30.862,26.333
		c-2.91,11.284-1.222,40.942-0.409,52.612c-2.444-0.695-5.273,0.15-8.432,2.53c-9.634,7.258-8.9,14.929-6.547,26.698
		c2.491,12.448,12.785,20.328,19.097,22.588c1.49,0.533,2.029,2.852,2.929,7.247c1.273,6.217,3.196,15.612,11.128,26.567
		c2.465,3.404,5.222,6.812,8.182,10.098v23.145c-1.943-0.074-5.183-0.113-9.421,0.125c-0.051-0.004-0.1-0.016-0.151-0.016
		c-0.143,0-0.281,0.02-0.415,0.049c-9.201,0.561-22.876,2.432-38.276,7.991V79.457c0-1.042-0.845-1.888-1.888-1.888H21.264
		c-1.043,0-1.888,0.846-1.888,1.888v2.581c-0.778-0.269-1.612-0.417-2.478-0.417c-1.683,0-3.338,0.516-4.788,1.492
		c-3.679,2.477-4.851,7.197-2.613,10.523l9.878,14.679v4.304l-0.363-0.2c-0.985-0.543-2.108-0.83-3.249-0.83
		c-2.835,0-5.518,1.672-7.002,4.364c-1.609,2.92-1.377,6.319,0.327,8.649c-1.637,0.721-3.061,2.013-4.001,3.719
		c-2.14,3.885-1.025,8.618,2.497,10.559l0.282,0.152c-1.116,0.747-2.082,1.774-2.778,3.037c-2.14,3.885-1.025,8.618,2.477,10.548
		l1.339,0.748c-1.558,0.734-2.911,1.99-3.815,3.631c-2.14,3.885-1.025,8.618,2.498,10.56l11.79,6.376v109.834
		c0,1.042,0.845,1.888,1.888,1.888H151.93c1.042,0,1.888-0.846,1.888-1.888v-2.675c2.766,2.317,6.914,4.385,11.055,4.385
		c0.758,0,1.515-0.069,2.263-0.219c0.129-0.026,0.259-0.058,0.389-0.088c15.65,23.837,42.073,36.897,56.558,42.588
		c14.428,5.669,32.253,9.146,49.819,9.146c18.454,0,36.622-3.838,50.258-13.003c19.041-12.798,30.274-27.637,33.386-44.104
		C362.478,253.693,346.167,230.128,337.403,217.467z M295.275,269.189c-15.772,1.896-33.051,1.61-53.128-0.787
		c-34.362-4.106-69.741-33.903-70.094-34.203c-0.258-0.22-0.56-0.349-0.871-0.407c-1.466-2.25-2.886-4.135-4.043-5.305l-11.005-12.7
		c13.589-4.771,25.87-6.607,34.565-7.262c1.406,19.686,22.712,34.384,50.929,34.985c0.097,0.015,0.194,0.029,0.295,0.029
		c0.252,0,0.5-0.01,0.751-0.013c0.251,0.003,0.499,0.013,0.751,0.013c0.101,0,0.198-0.015,0.295-0.029
		c28.371-0.605,49.753-15.46,50.948-35.309c8.635,0.651,20.803,2.469,34.274,7.166c-10.085,6.224-16.288,14.612-21.346,22.13
		c-6.387,9.493-8.334,16.908-10.397,24.76C296.611,264.5,295.998,266.812,295.275,269.189z M23.151,281.878V175.973l5.266,2.848
		c0.984,0.543,2.107,0.829,3.248,0.829c2.835,0,5.519-1.672,7.002-4.363c0.937-1.699,1.277-3.609,0.989-5.433
		c0.201,0.017,0.401,0.038,0.603,0.038c2.835,0,5.519-1.672,7.002-4.363c1.017-1.844,1.34-3.938,0.91-5.896
		c-0.01-0.044-0.025-0.086-0.035-0.13c2.587-0.236,4.979-1.833,6.347-4.315c1.017-1.844,1.34-3.938,0.91-5.896
		c-0.449-2.045-1.654-3.699-3.406-4.664l-0.509-0.275c1.215-0.755,2.261-1.848,3.005-3.197c1.017-1.844,1.34-3.938,0.91-5.896
		c-0.449-2.045-1.655-3.699-3.395-4.657l-28.846-15.9V81.345h126.891v143.217h-30.946c-4.501,0-8.163,3.662-8.163,8.163
		c0,1.615,0.478,3.119,1.291,4.388h-2.676c-4.501,0-8.163,3.662-8.163,8.163c0,3.306,1.979,6.152,4.812,7.436
		c-1.131,1.4-1.812,3.179-1.812,5.115c0,4.501,3.662,8.163,8.163,8.163h4.128c-0.813,1.269-1.291,2.773-1.291,4.388
		c0,4.501,3.662,8.163,8.163,8.163h26.494v3.338H23.151z M8.185,158.702c0.849-1.54,2.381-2.535,3.905-2.535
		c0.553,0,1.072,0.132,1.555,0.397l20.832,11.264c0.835,0.46,1.42,1.284,1.647,2.319c0.246,1.121,0.05,2.34-0.552,3.432
		c-1.157,2.099-3.649,3.136-5.46,2.139L9.28,164.453C7.476,163.459,6.985,160.879,8.185,158.702z M8.185,143.775
		c0.849-1.54,2.382-2.535,3.905-2.535c0.553,0,1.072,0.132,1.534,0.386L43.07,158.07c0.835,0.46,1.42,1.284,1.647,2.319
		c0.246,1.121,0.05,2.34-0.552,3.432c-0.849,1.54-2.382,2.535-3.906,2.535c-0.553,0-1.072-0.131-1.533-0.385L9.28,149.526
		C7.476,148.532,6.985,145.952,8.185,143.775z M8.185,130.026c0.849-1.54,2.381-2.535,3.905-2.535c0.553,0,1.072,0.132,1.554,0.397
		l36.647,19.84c0.835,0.46,1.42,1.284,1.647,2.319c0.246,1.121,0.05,2.34-0.552,3.432c-1.158,2.099-3.652,3.136-5.459,2.139
		l-0.904-0.489c-0.08-0.049-0.156-0.104-0.239-0.149l-29.446-16.444c-0.739-0.407-1.556-0.671-2.4-0.777l-3.659-1.98
		C7.476,134.783,6.985,132.203,8.185,130.026z M15.764,115.123c0.553,0,1.072,0.132,1.542,0.391l32.986,18.182
		c0.835,0.46,1.42,1.284,1.647,2.319c0.246,1.121,0.05,2.34-0.552,3.432c-0.849,1.54-2.382,2.535-3.906,2.535
		c-0.169,0-0.328-0.035-0.49-0.06l-25.341-13.72l-8.696-4.793c-1.804-0.994-2.294-3.574-1.095-5.751
		C12.707,116.118,14.24,115.123,15.764,115.123z M179.79,33.905c2.26-8.76,10.82-19.56,28.068-23.601
		c16.559-3.879,26.868-4.454,38.588-4.52c11.72,0.066,22.029,0.642,38.588,4.52c17.248,4.041,25.808,14.841,28.068,23.601
		c3.012,11.683,0.879,43.685,0.303,51.45c-1.125-0.08-2.185,0.113-3.174,0.584c-5.125,2.446-5.579,11.387-5.613,12.397
		c-0.003,0.089,0,0.178,0.009,0.266c0.372,3.507-0.175,7.027-0.865,7.343c-0.085,0.022-0.537-0.036-1.37-0.589V63.434
		c0-0.632-0.316-1.222-0.842-1.571c-0.526-0.35-1.192-0.413-1.775-0.17c-0.149,0.062-15.041,6.27-25.243,8.441l-1.125,0.241
		c-10.156,2.176-21.666,4.645-42.873-2.561c-21.3-7.237-27.792-24.951-27.854-25.126c-0.333-0.949-1.351-1.476-2.314-1.187
		c-3.917,1.153-11.325,5.586-11.325,14.11c0,1.69,0.092,4.104,0.208,7.158c0.465,12.229,1.433,37.674-4.006,42.072
		c-1.295,1.048-1.958,1.143-2.07,1.103c-0.691-0.315-1.237-3.836-0.866-7.343c0.009-0.088,0.013-0.177,0.009-0.266
		c-0.026-0.757-0.288-5.958-2.568-9.551C179.208,81.682,176.697,45.898,179.79,33.905z M186.469,143.881
		c-1.042-5.092-1.795-8.771-5.354-10.045c-5.504-1.97-14.484-8.861-16.667-19.773c-2.357-11.788-2.554-17.163,5.117-22.942
		c1.632-1.229,3.913-2.531,5.509-1.774c0.367,0.174,0.693,0.449,0.991,0.785c0.007,0.086,0.013,0.158,0.016,0.2
		c0.056,0.683,0.472,1.242,1.043,1.527c0.971,2.193,1.348,5.117,1.413,6.485c-0.23,2.268-0.604,9.047,2.827,10.916
		c1.753,0.956,3.855,0.455,6.251-1.481c6.375-5.157,6.166-25.133,5.405-45.151c-0.11-2.896-0.205-5.396-0.205-7.015
		c0-5.798,4.56-8.711,7.05-9.87c2.299,5.032,10.253,19.123,29.453,25.647c22.196,7.542,34.773,4.845,44.879,2.678l1.12-0.24
		c8.029-1.708,18.484-5.676,23.298-7.59v40.074c0,0.033,0.008,0.062,0.01,0.096c0.003,0.065,0.009,0.13,0.02,0.195
		c0.009,0.06,0.021,0.117,0.036,0.176c0.015,0.06,0.034,0.118,0.055,0.176c0.021,0.058,0.043,0.113,0.069,0.167
		c0.027,0.056,0.056,0.109,0.088,0.163c0.031,0.052,0.065,0.102,0.101,0.15c0.036,0.048,0.075,0.095,0.116,0.141
		c0.044,0.048,0.09,0.093,0.138,0.137c0.024,0.021,0.043,0.047,0.068,0.067c2.396,1.938,4.498,2.438,6.251,1.481
		c3.431-1.869,3.057-8.647,2.827-10.916c0.1-2.086,0.913-7.783,3.464-8.998c1.598-0.758,3.877,0.546,5.509,1.774
		c7.67,5.779,7.474,11.154,5.117,22.942c-2.183,10.912-11.163,17.804-16.667,19.773c-3.559,1.274-4.312,4.953-5.354,10.045
		c-1.28,6.252-3.033,14.814-10.487,25.109c-14.271,19.711-33.38,33.477-46.468,33.477c-0.014,0-0.027,0.004-0.041,0.004
		c-0.014,0-0.027-0.004-0.041-0.004c-13.088,0-32.197-13.766-46.468-33.477C189.502,158.695,187.749,150.133,186.469,143.881z
		 M243.425,206.242c0.014,0,0.027-0.004,0.041-0.004c0.014,0,0.027,0.004,0.041,0.004c11.535,0,24.751-8.409,35.984-19.36v19.237
		c0,0.03,0.007,0.059,0.009,0.088c0.002,0.025-0.003,0.05-0.001,0.075c0.001,0.011,0.004,0.02,0.005,0.029
		c-0.003,0.045-0.013,0.087-0.013,0.133c0,12.465-15.439,21.546-36.817,21.755c-21.378-0.209-36.817-9.29-36.817-21.755v-21.138
		C217.417,197.017,231.343,206.242,243.425,206.242z M202.173,208.238c1.268,13.719,17.075,23.255,39.517,23.723
		c0.077,0.01,0.153,0.023,0.232,0.023c0.253,0,0.5-0.008,0.751-0.01c0.251,0.002,0.498,0.01,0.751,0.01
		c0.08,0,0.155-0.014,0.232-0.023c22.621-0.472,38.507-10.154,39.552-24.049c1.573-0.057,4.213-0.093,7.689,0.061
		c-1.089,18.06-21.403,31.529-48.224,31.778c-26.662-0.247-46.897-13.558-48.207-31.455
		C197.962,208.143,200.608,208.181,202.173,208.238z M12.43,91.661c-1.15-1.708-0.408-4.228,1.655-5.616
		c0.864-0.581,1.836-0.889,2.813-0.889c0.976,0,1.841,0.312,2.478,0.872v15.953L12.43,91.661z M156.372,278.315
		c0.6-0.316,1.013-0.938,1.013-1.663c0-1.042-0.845-1.888-1.888-1.888h-31.949c-2.419,0-4.388-1.968-4.388-4.388
		c0-2.42,1.968-4.388,4.388-4.388h30.949h1c1.042,0,1.888-0.846,1.888-1.888s-0.845-1.888-1.888-1.888h-1h-30.949h-11
		c-2.419,0-4.388-1.968-4.388-4.388c0-2.42,1.968-4.388,4.388-4.388h41.949c1.042,0,1.888-0.846,1.888-1.888
		c0-1.042-0.845-1.888-1.888-1.888h-41.949h-3c-2.419,0-4.388-1.968-4.388-4.388c0-2.42,1.968-4.388,4.388-4.388h9.548h34.949h0.452
		c1.042,0,1.888-0.846,1.888-1.888s-0.845-1.888-1.888-1.888h-0.452h-34.949c-2.419,0-4.388-1.968-4.388-4.388
		c0-2.42,1.968-4.388,4.388-4.388h34.949c1.042,0,1.888-0.846,1.888-1.888c0-1.042-0.845-1.888-1.888-1.888h-0.228v-5.684
		l10.511,12.13c0.029,0.034,0.059,0.066,0.092,0.099c3.698,3.697,11.57,17.874,11.642,22.893c0.233,16.477-3.2,26.262-9.667,27.555
		C162.745,282.287,158.766,280.254,156.372,278.315z M353.836,279.094c-2.918,15.438-13.611,29.459-31.782,41.673
		c-25.537,17.164-67.922,14.742-96.591,3.477c-13.952-5.481-39.296-17.976-54.419-40.594c4.755-3.129,9.056-11.071,8.792-29.702
		c-0.04-2.832-1.739-7.393-3.993-11.954c11.837,8.887,38.72,26.913,65.855,30.156c11.487,1.373,22.083,2.068,32.022,2.068
		c20.333,0,37.909-2.912,54.685-8.889c0.982-0.35,1.495-1.43,1.145-2.412c-0.35-0.981-1.432-1.493-2.411-1.145
		c-8.908,3.174-18.065,5.451-27.766,6.876c0.535-1.857,1.015-3.668,1.478-5.433c1.979-7.533,3.847-14.65,9.877-23.611
		c5.376-7.991,11.522-16.247,22.089-22.14c0.464,0.678,0.953,1.387,1.482,2.15C342.748,231.822,358.476,254.544,353.836,279.094z"/>
</g>
</svg>
