<?xml version="1.0" encoding="utf-8"?>
<!-- Generator: Adobe Illustrator 17.0.0, SVG Export Plug-In . SVG Version: 6.00 Build 0)  -->
<!DOCTYPE svg PUBLIC "-//W3C//DTD SVG 1.1//EN" "http://www.w3.org/Graphics/SVG/1.1/DTD/svg11.dtd">
<svg version="1.1" id="Слой_1" xmlns="http://www.w3.org/2000/svg" xmlns:xlink="http://www.w3.org/1999/xlink" x="0px" y="0px"
	 width="177.108px" height="326.506px" viewBox="0 0 177.108 326.506" enable-background="new 0 0 177.108 326.506"
	 xml:space="preserve">
<g>
	<path fill="#FFFFFF" d="M59.826,148.315c3.031,2.265,6.724,3.441,10.976,3.494c4.55,0.059,9.1,0.046,13.649,0.035
		c1.847-0.005,3.694-0.01,5.541-0.01h0.322c1.995,0.001,3.99,0.011,5.985,0.02c2.064,0.01,4.128,0.02,6.192,0.02
		c2.879,0,5.263-0.02,7.502-0.061c10.311-0.194,17.598-7.396,17.719-17.516c0.157-13.03,0.155-26.422-0.005-39.804
		c-0.12-10-7.439-17.359-17.405-17.498c-6.364-0.09-12.919-0.136-19.48-0.136c-6.677,0-13.569,0.047-20.484,0.141
		c-9.982,0.135-17.307,7.491-17.416,17.493c-0.141,12.673-0.142,25.691-0.001,39.8C52.977,140.131,55.365,144.98,59.826,148.315z
		 M55.94,94.527c0.093-8.428,6.029-14.394,14.437-14.507c6.901-0.093,13.779-0.141,20.443-0.141c6.548,0,13.088,0.046,19.438,0.136
		c8.394,0.117,14.327,6.086,14.428,14.514c0.159,13.358,0.161,26.726,0.005,39.731c-0.103,8.528-6.032,14.369-14.756,14.533
		c-2.219,0.042-4.585,0.061-7.445,0.061c-2.059,0-4.118-0.011-6.177-0.02c-1.999-0.01-3.999-0.02-5.998-0.02h-0.323
		c-1.85,0-3.699,0.004-5.548,0.009c-4.535,0.012-9.071,0.023-13.604-0.034c-3.651-0.046-6.662-0.992-9.206-2.894
		c-3.73-2.789-5.646-6.703-5.695-11.632C55.799,120.177,55.8,107.179,55.94,94.527z"/>
	<path fill="#FFFFFF" d="M141.25,5.767H34.976c-15.904,0-28.844,12.936-28.844,28.836v258.034c0,15.901,12.939,28.839,28.844,28.839
		H141.25c15.905,0,28.846-12.938,28.846-28.839V34.603C170.096,18.702,157.155,5.767,141.25,5.767z M166.32,292.637
		c0,13.82-11.247,25.064-25.07,25.064H34.976c-13.823,0-25.068-11.243-25.068-25.064V34.603c0-13.818,11.246-25.061,25.068-25.061
		H141.25c13.824,0,25.07,11.242,25.07,25.061V292.637z"/>
	<path fill="#FFFFFF" d="M157.475,58.204H19.018c-1.043,0-1.888,0.846-1.888,1.888V267.15c0,1.043,0.845,1.888,1.888,1.888h138.458
		c1.043,0,1.888-0.845,1.888-1.888V60.092C159.363,59.05,158.518,58.204,157.475,58.204z M155.588,265.263H20.905V61.98h134.683
		V265.263z"/>
	<path fill="#FFFFFF" d="M76.262,40.593H99.96c4.133,0,7.495-3.36,7.495-7.49c0-4.136-3.362-7.5-7.495-7.5H76.262
		c-4.132,0-7.493,3.364-7.493,7.5C68.769,37.232,72.13,40.593,76.262,40.593z M76.262,29.378H99.96c2.051,0,3.72,1.671,3.72,3.725
		c0,2.049-1.668,3.715-3.72,3.715H76.262c-2.05,0-3.718-1.666-3.718-3.715C72.544,31.049,74.211,29.378,76.262,29.378z"/>
	<path fill="#FFFFFF" d="M88.112,273.76c-10.141,0-18.392,8.254-18.392,18.398c0,10.142,8.25,18.393,18.392,18.393
		c10.142,0,18.393-8.251,18.393-18.393C106.505,282.014,98.254,273.76,88.112,273.76z M88.112,306.775
		c-8.06,0-14.616-6.558-14.616-14.617c0-8.064,6.557-14.623,14.616-14.623c8.06,0,14.617,6.56,14.617,14.623
		C102.729,300.218,96.172,306.775,88.112,306.775z"/>
	<path fill="#FFFFFF" d="M51.698,40.593c4.133,0,7.496-3.36,7.496-7.49c0-4.136-3.363-7.5-7.496-7.5c-4.13,0-7.49,3.364-7.49,7.5
		C44.208,37.232,47.568,40.593,51.698,40.593z M51.698,29.378c2.052,0,3.721,1.671,3.721,3.725c0,2.049-1.669,3.715-3.721,3.715
		c-2.048,0-3.715-1.666-3.715-3.715C47.983,31.049,49.65,29.378,51.698,29.378z"/>
	<rect x="34.696" y="174.737" fill="#FFFFFF" width="1.985" height="15.375"/>
	<path fill="#FFFFFF" d="M40.307,190.112h2.008v-6.639c0-0.342,0.046-0.684,0.137-0.934c0.342-1.118,1.369-2.054,2.691-2.054
		c1.894,0,2.556,1.483,2.556,3.263v6.364h2.007v-6.593c0-3.787-2.372-4.699-3.9-4.699c-1.825,0-3.102,1.026-3.65,2.076H42.11
		l-0.114-1.825h-1.779c0.068,0.912,0.091,1.848,0.091,2.988V190.112z"/>
	<path fill="#FFFFFF" d="M56.867,190.066c1.711,0,2.896-0.821,3.513-1.848h0.046v1.232c0,2.782-1.506,3.855-3.559,3.855
		c-1.369,0-2.51-0.41-3.239-0.866l-0.502,1.528c0.89,0.593,2.35,0.912,3.673,0.912c1.392,0,2.942-0.319,4.015-1.323
		c1.072-0.958,1.574-2.509,1.574-5.041v-6.41c0-1.346,0.045-2.235,0.091-3.034h-1.757l-0.091,1.665h-0.046
		c-0.479-0.912-1.528-1.916-3.444-1.916c-2.532,0-4.973,2.122-4.973,5.862C52.167,187.74,54.129,190.066,56.867,190.066z
		 M57.482,180.395c1.46,0,2.441,0.958,2.807,2.121c0.091,0.274,0.113,0.57,0.113,0.913v1.984c0,0.342-0.045,0.73-0.159,1.072
		c-0.434,1.277-1.552,2.053-2.783,2.053c-2.167,0-3.262-1.802-3.262-3.969C54.198,182.014,55.566,180.395,57.482,180.395z"/>
	<path fill="#FFFFFF" d="M70.209,190.363c2.669,0,5.498-1.779,5.498-5.862c0-3.377-2.145-5.681-5.315-5.681
		c-3.057,0-5.475,2.167-5.475,5.862C64.917,188.173,67.221,190.363,70.209,190.363z M70.346,180.326
		c2.373,0,3.308,2.372,3.308,4.243c0,2.486-1.437,4.288-3.354,4.288c-1.961,0-3.352-1.825-3.352-4.243
		C66.948,182.516,67.974,180.326,70.346,180.326z"/>
	<path fill="#FFFFFF" d="M80.199,183.52c0.137-2.304,0.251-4.882,0.297-6.798h0.046c0.433,1.825,1.049,3.81,1.779,5.976l2.486,7.323
		h1.505l2.715-7.46c0.775-2.121,1.414-4.038,1.939-5.84h0.068c-0.023,1.916,0.114,4.494,0.228,6.639l0.389,6.752h1.938
		l-0.958-15.375h-2.532l-2.737,7.436c-0.685,1.939-1.231,3.627-1.62,5.179h-0.068c-0.388-1.598-0.912-3.285-1.551-5.179
		l-2.623-7.436h-2.532l-1.072,15.375h1.894L80.199,183.52z"/>
	<path fill="#FFFFFF" d="M101.207,190.363c2.669,0,5.498-1.779,5.498-5.862c0-3.377-2.145-5.681-5.315-5.681
		c-3.057,0-5.475,2.167-5.475,5.862C95.915,188.173,98.218,190.363,101.207,190.363z M101.343,180.326
		c2.373,0,3.308,2.372,3.308,4.243c0,2.486-1.437,4.288-3.354,4.288c-1.961,0-3.353-1.825-3.353-4.243
		C97.945,182.516,98.971,180.326,101.343,180.326z"/>
	<path fill="#FFFFFF" d="M110.968,188.287h0.068c0.821,1.46,2.099,2.076,3.695,2.076c2.464,0,4.95-1.962,4.95-5.908
		c0.022-3.354-1.916-5.635-4.653-5.635c-1.78,0-3.058,0.799-3.765,2.03h-0.046v-6.935h-1.984v13.345
		c0,0.982-0.045,2.099-0.091,2.852h1.733L110.968,188.287z M111.218,183.702c0-0.319,0.069-0.593,0.114-0.821
		c0.411-1.528,1.688-2.464,3.057-2.464c2.145,0,3.285,1.894,3.285,4.106c0,2.532-1.255,4.243-3.354,4.243
		c-1.46,0-2.623-0.958-3.011-2.35c-0.046-0.229-0.092-0.48-0.092-0.73V183.702z"/>
	<rect x="122.211" y="179.071" fill="#FFFFFF" width="2.008" height="11.041"/>
	<path fill="#FFFFFF" d="M123.169,177.201c0.799,0,1.301-0.548,1.277-1.232c0-0.707-0.479-1.255-1.231-1.255
		c-0.729,0-1.255,0.548-1.255,1.255C121.96,176.653,122.462,177.201,123.169,177.201z"/>
	<rect x="127.549" y="173.916" fill="#FFFFFF" width="2.008" height="16.196"/>
	<path fill="#FFFFFF" d="M137.563,190.341c1.757,0,2.966-0.365,3.673-0.684l-0.342-1.438c-0.753,0.319-1.62,0.57-3.057,0.57
		c-2.008,0-3.741-1.117-3.787-3.832h7.756c0.022-0.205,0.068-0.524,0.068-0.936c0-2.03-0.958-5.201-4.562-5.201
		c-3.216,0-5.178,2.623-5.178,5.954C132.134,188.105,134.165,190.341,137.563,190.341z M137.153,180.258
		c2.258,0,2.806,1.984,2.783,3.262h-5.863C134.233,182.128,135.122,180.258,137.153,180.258z"/>
	<path fill="#FFFFFF" d="M42.296,200.94h91.847c9.839,0,17.843-8.004,17.843-17.843c0-9.839-8.004-17.843-17.843-17.843H42.296
		c-9.839,0-17.843,8.004-17.843,17.843C24.453,192.936,32.457,200.94,42.296,200.94z M42.296,168.273h91.847
		c8.173,0,14.823,6.649,14.823,14.823c0,8.174-6.649,14.823-14.823,14.823H42.296c-8.173,0-14.823-6.649-14.823-14.823
		C27.473,174.923,34.123,168.273,42.296,168.273z"/>
	<path fill="#FFFFFF" d="M74.925,138.765h4.993c0.535,0,1.029-0.282,1.301-0.743l13.627-23.113v22.347c0,0.834,0.676,1.51,1.51,1.51
		h9.362c0.834,0,1.51-0.676,1.51-1.51V91.689c0-0.834-0.676-1.51-1.51-1.51h-5.409c-0.534,0-1.028,0.282-1.3,0.741L85.59,113.63
		V90.857c0-0.834-0.676-1.51-1.51-1.51h-9.155c-0.834,0-1.51,0.676-1.51,1.51v46.397C73.415,138.089,74.091,138.765,74.925,138.765z
		 M76.435,92.367h6.135v26.786c0,0.681,0.455,1.277,1.112,1.457c0.658,0.179,1.353-0.103,1.698-0.688l15.792-26.724h3.037v42.547
		h-6.342v-26.371c0-0.681-0.456-1.277-1.113-1.457c-0.657-0.181-1.353,0.103-1.698,0.69l-16.001,27.138h-2.62V92.367z"/>
</g>
</svg>
