<?xml version="1.0" encoding="utf-8"?>
<!-- Generator: Adobe Illustrator 17.0.0, SVG Export Plug-In . SVG Version: 6.00 Build 0)  -->
<!DOCTYPE svg PUBLIC "-//W3C//DTD SVG 1.1//EN" "http://www.w3.org/Graphics/SVG/1.1/DTD/svg11.dtd">
<svg version="1.1" id="Слой_1" xmlns="http://www.w3.org/2000/svg" xmlns:xlink="http://www.w3.org/1999/xlink" x="0px" y="0px"
	 width="327.711px" height="384.337px" viewBox="0 0 327.711 384.337" enable-background="new 0 0 327.711 384.337"
	 xml:space="preserve">
<g>
	<path fill="#516AAE" d="M84.532,200.156c4.281,0.001,8.562,0.022,12.842,0.043c0.649-1.35,1.366-2.608,2.138-3.768
		c-0.694-0.004-1.388-0.004-2.082-0.007c-4.299-0.021-8.598-0.041-12.897-0.043h-0.645c-3.999,0-7.997,0.01-11.997,0.021
		c-3.996,0.01-7.992,0.02-11.988,0.02c-6.771,0-12.302-0.029-17.404-0.095c-8.176-0.104-14.934-2.234-20.662-6.516
		c-8.409-6.287-12.728-15.094-12.835-26.177C8.699,133.241,8.7,105.192,9.004,77.879C9.209,59.212,22.876,45.48,41.501,45.228
		c14.874-0.201,29.711-0.303,44.098-0.303c14.131,0,28.254,0.098,41.976,0.292c2.098,0.029,4.122,0.23,6.073,0.573
		c0.021-1.303,0.056-2.578,0.104-3.821c-1.975-0.316-4.016-0.497-6.123-0.527c-13.74-0.193-27.88-0.292-42.029-0.292
		c-14.404,0-29.258,0.102-44.149,0.303C20.69,41.734,5.458,57.036,5.23,77.837c-0.306,27.339-0.307,55.415-0.003,85.834
		c0.118,12.148,5.08,22.232,14.35,29.163c6.301,4.71,13.997,7.155,22.875,7.268c5.119,0.064,10.665,0.095,17.452,0.095
		c4,0,7.999-0.01,11.998-0.02c3.996-0.01,7.991-0.02,11.987-0.02L84.532,200.156L84.532,200.156z"/>
	<path fill="#516AAE" d="M97.564,171.96h20.197c1.042,0,1.888-0.846,1.888-1.888V71.77c0-1.042-0.845-1.888-1.888-1.888h-11.669
		c-0.668,0-1.286,0.353-1.625,0.928l-31.5,53.307V69.978c0-1.042-0.845-1.888-1.888-1.888h-19.75c-1.042,0-1.888,0.846-1.888,1.888
		v100.095c0,1.042,0.845,1.888,1.888,1.888h10.772c0.668,0,1.287-0.354,1.626-0.929l31.949-54.191v53.232
		C95.677,171.114,96.522,171.96,97.564,171.96z M61.023,168.185h-7.807v-96.32h15.976v59.155c0,0.851,0.569,1.597,1.39,1.82
		c0.82,0.228,1.689-0.129,2.122-0.86l34.465-58.323h8.704v94.527H99.452v-58.262c0-0.852-0.57-1.597-1.391-1.821
		c-0.822-0.223-1.691,0.129-2.123,0.862L61.023,168.185z"/>
	<path fill="#516AAE" d="M174.739,88.427c-0.205,0.001-0.407,0.008-0.614,0.002c-3.227-0.101-6.175-1.616-8.255-3.033
		c-0.104-0.091-0.218-0.166-0.337-0.23c-1.665-1.176-2.69-2.225-2.713-2.248c-0.721-0.752-1.914-0.777-2.666-0.058
		c-0.754,0.721-0.78,1.915-0.06,2.669c0.11,0.115,1.335,1.377,3.324,2.772c0.691,0.754,2.568,2.417,6.185,3.313
		c0.446,2.912,2.384,5.041,4.776,5.041c2.35,0,4.259-2.06,4.747-4.895c4.493-0.874,7.868-2.763,8.658-3.234
		c2.982-1.334,5.138-2.547,5.34-2.661c0.907-0.514,1.225-1.665,0.711-2.572c-0.514-0.906-1.666-1.224-2.573-0.712
		C191.158,82.64,181.153,88.229,174.739,88.427z M174.378,92.88c-0.146,0-0.433-0.238-0.677-0.696
		c0.105,0.005,0.2,0.015,0.307,0.019c0.221,0.007,0.441,0.01,0.66,0.01c0.128,0,0.252-0.01,0.38-0.012
		C174.805,92.648,174.522,92.88,174.378,92.88z"/>
	<path fill="#516AAE" d="M132.437,78.634c-8.53,6.429-7.887,13.193-5.813,23.57c2.196,10.975,11.275,17.924,16.843,19.918
		c1.179,0.422,1.659,2.508,2.407,6.157c1.116,5.453,2.804,13.694,9.766,23.311c2.142,2.958,4.535,5.919,7.105,8.774v19.892
		c-5.852-0.2-23.441,0.005-44.217,7.959c-1.432,0.461-18.037,6.221-19.393,25.2c-0.982,13.74,1.545,23.266,3.094,27.642h-1.908
		c-10.411,0-18.881,8.471-18.881,18.882c0,0.138,0.015,0.275,0.045,0.409l20.348,91.568c0.115,10.312,8.539,18.668,18.879,18.668
		h158.691c10.34,0,18.765-8.355,18.879-18.668l20.348-91.568c0.03-0.134,0.045-0.272,0.045-0.409
		c0-10.411-8.47-18.882-18.882-18.882H297.2c1.55-4.376,4.076-13.901,3.094-27.642c-1.357-18.979-17.961-24.739-19.393-25.2
		c-20.366-7.797-37.682-8.148-43.868-7.971v-21.55c2.014-2.332,3.903-4.721,5.629-7.105c6.962-9.616,8.649-17.857,9.765-23.311
		c0.747-3.649,1.227-5.735,2.407-6.157c5.567-1.994,14.647-8.943,16.843-19.918c2.075-10.377,2.719-17.142-5.812-23.57
		c-0.723-0.545-1.424-0.985-2.109-1.35c0.444-5.721,2.571-35.488-0.323-46.712c-2.233-8.656-10.537-19.293-27.148-23.185
		c-13.413-3.143-22.229-3.861-31.542-4.013c-0.124-0.026-0.253-0.04-0.385-0.04c-0.88,0-1.745,0.003-2.604,0.008
		c-0.859-0.005-1.724-0.008-2.604-0.008c-0.132,0-0.261,0.014-0.385,0.04c-9.312,0.151-18.128,0.87-31.542,4.013
		c-16.608,3.891-24.913,14.527-27.147,23.185c-2.526,9.798-1.104,35.337-0.386,45.745C137.556,75.845,135.126,76.609,132.437,78.634
		z M166.52,164.35c1.686,1.688,3.428,3.316,5.209,4.854c8.849,7.644,18.66,13.105,27.386,13.105c0.012,0,0.024-0.003,0.036-0.004
		c0.012,0.001,0.024,0.004,0.036,0.004c9.278,0,19.782-6.177,29.053-14.583c1.72-1.561,3.399-3.193,5.018-4.882v18.089l-4.878,2.634
		l-28.666,15.48l-27.985-15.112l-5.209-2.813L166.52,164.35L166.52,164.35z M196.031,228.556l2.46,2.633
		c0.08,0.119,0.169,0.232,0.279,0.335c0.364,0.341,0.827,0.509,1.288,0.509c0.505,0,1.008-0.201,1.38-0.599l2.648-2.834
		l7.197,12.457h-22.474L196.031,228.556z M200.078,227.358l-10.182-10.896h9.763c0.129,0.028,0.262,0.044,0.398,0.044h10.161
		L200.078,227.358z M200.456,212.73c-0.129-0.027-0.262-0.044-0.398-0.044h-10.394l10.05-8.538l10.102,8.582H200.456z
		 M164.095,184.103l7.634,4.123l25.003,13.502l-24.808,21.076l-18.718-33.654l-2.58-4.639
		C157.805,183.813,162.741,184.02,164.095,184.103z M102.899,213.685c1.22-17.068,16.15-21.688,16.781-21.875
		c0.05-0.015,0.099-0.031,0.147-0.05c9.952-3.815,19.238-5.783,26.74-6.78l2.541,4.568l20.635,37.101
		c0.274,0.494,0.756,0.839,1.312,0.94c0.112,0.02,0.225,0.03,0.337,0.03c0.444,0,0.878-0.157,1.222-0.449l12.331-10.477l8.391,8.98
		l-8.889,15.384h-72.34h-5.839C105.063,238.019,101.852,228.348,102.899,213.685z M299.794,244.832
		c8.263,0,14.997,6.668,15.105,14.905l-20.346,91.557c-0.03,0.134-0.045,0.272-0.045,0.409c0,8.329-6.776,15.105-15.105,15.105
		H120.712c-8.329,0-15.105-6.776-15.105-15.105c0-0.138-0.015-0.275-0.045-0.409l-20.346-91.557
		c0.108-8.237,6.842-14.905,15.104-14.905h11.788h102.293c0.056,0.005,0.11,0.021,0.166,0.021s0.11-0.017,0.166-0.021h72.775
		H299.794z M279.6,191.76c0.048,0.018,0.098,0.035,0.147,0.05c0.155,0.045,15.556,4.729,16.781,21.875
		c1.048,14.666-2.166,24.338-3.37,27.372h-5.65h-71.867l-8.863-15.341l8.108-8.678l11.926,10.132
		c0.344,0.292,0.778,0.449,1.222,0.449c0.112,0,0.225-0.01,0.337-0.03c0.556-0.102,1.038-0.446,1.312-0.94l20.646-37.12l2.532-4.554
		C260.356,185.972,269.637,187.941,279.6,191.76z M248.805,184.506l-2.575,4.63l-18.726,33.668l-24.808-21.076l25.995-14.039
		l6.643-3.587C236.687,184.019,241.622,183.808,248.805,184.506z M143.731,31.516c1.958-7.588,9.384-16.945,24.353-20.452
		c14.446-3.386,23.442-3.888,33.67-3.945c10.228,0.058,19.225,0.56,33.67,3.945c14.972,3.507,22.397,12.864,24.354,20.452
		c2.597,10.071,0.799,37.531,0.273,44.668c-0.935-0.03-1.823,0.138-2.654,0.534c-0.363,0.173-0.69,0.393-1.003,0.631
		c-3.655,2.785-4.01,9.582-4.039,10.41c-0.003,0.089,0,0.179,0.009,0.267c0.276,2.572-0.024,5.553-0.605,6.151
		c-0.106-0.017-0.39-0.094-0.874-0.401V48.525c0-1.014-0.802-1.847-1.815-1.886c-10.172-0.396-27.449-0.199-28.898,5.509
		c-0.739,2.91,2.064,5.755,9.088,9.223c0.455,0.226,0.77,0.417,0.983,0.567c-4.01,2.455-27.128,4.091-42.319-1.071
		c-18.497-6.284-24.141-21.661-24.194-21.812c-0.332-0.948-1.348-1.474-2.315-1.187c-3.482,1.025-10.069,4.97-10.069,12.561
		c0,1.482,0.081,3.593,0.182,6.265c0.32,8.416,1.005,26.506-1.743,33.873c-0.457,1.226-1.006,2.164-1.67,2.702
		c-0.929,0.752-1.425,0.885-1.575,0.909c-0.578-0.597-0.877-3.577-0.604-6.152c0.009-0.088,0.013-0.178,0.009-0.266
		c-0.023-0.666-0.256-5.2-2.248-8.398C143.222,73.078,141.042,41.943,143.731,31.516z M139.276,80.123
		c0.268,0.128,0.512,0.325,0.738,0.571c0.002,0.029,0.006,0.076,0.008,0.096c0.054,0.648,0.432,1.188,0.959,1.484
		c0.761,1.762,1.121,4.105,1.187,5.492c-0.087,0.869-0.193,2.463-0.046,4.135c0.198,2.252,0.853,4.646,2.642,5.621
		c0.542,0.295,1.121,0.428,1.728,0.428c1.139-0.001,2.389-0.519,3.739-1.554c0.087-0.067,0.172-0.122,0.26-0.193
		c5.657-4.577,5.479-22.099,4.812-39.653c-0.096-2.528-0.179-4.712-0.179-6.122c0-4.771,3.646-7.255,5.81-8.309
		c2.153,4.61,9.189,16.686,25.778,22.321c16.127,5.48,44.936,4.67,47.424-1.334c0.455-1.098,0.645-3.223-3.202-5.121
		c-6.12-3.021-6.968-4.634-7.078-4.934c1.164-1.788,11.711-2.982,23.256-2.699v44.383c0,0.033,0.008,0.062,0.01,0.096
		c0.003,0.065,0.009,0.13,0.02,0.195c0.009,0.06,0.021,0.117,0.036,0.176c0.015,0.059,0.034,0.117,0.055,0.176
		c0.021,0.058,0.043,0.113,0.069,0.167c0.027,0.056,0.056,0.109,0.088,0.163c0.031,0.052,0.064,0.102,0.101,0.15
		c0.036,0.048,0.075,0.095,0.116,0.141c0.043,0.047,0.089,0.093,0.138,0.137c0.024,0.021,0.043,0.047,0.068,0.067
		c2.176,1.759,4.102,2.205,5.727,1.319c3.117-1.698,2.801-7.718,2.596-9.756c0.105-2.176,0.923-6.706,2.892-7.643
		c0.276-0.132,0.584-0.172,0.906-0.162c1.179,0.031,2.584,0.876,3.663,1.688c6.595,4.97,6.42,9.617,4.381,19.814
		c-1.888,9.438-9.654,15.399-14.413,17.104c-3.236,1.159-3.941,4.6-4.832,8.955c-1.114,5.442-2.64,12.896-9.124,21.852
		c-1.848,2.553-3.791,4.987-5.793,7.288c-0.003,0.004-0.006,0.008-0.01,0.012c-1.812,2.082-3.673,4.053-5.563,5.895
		c-10.066,9.807-20.908,15.964-29.053,15.964c-0.012,0-0.024,0.003-0.036,0.004c-0.012-0.001-0.024-0.004-0.036-0.004
		c-7.697,0-17.803-5.503-27.386-14.384c-1.948-1.806-3.875-3.748-5.755-5.814c-0.003-0.004-0.005-0.007-0.009-0.01
		c-2.526-2.778-4.969-5.775-7.268-8.95c-6.485-8.956-8.011-16.41-9.126-21.852c-0.892-4.356-1.596-7.796-4.832-8.955
		c-4.759-1.704-12.525-7.666-14.413-17.104c-2.038-10.197-2.212-14.845,4.382-19.814C136.081,80.616,137.988,79.514,139.276,80.123z
		"/>
	<path fill="#516AAE" d="M162.532,76.814c0.122-0.139,3.091-3.39,10.994-3.185c8.354,0.21,15.324,5.07,15.391,5.118
		c0.332,0.236,0.714,0.35,1.092,0.35c0.59,0,1.171-0.276,1.54-0.794c0.605-0.85,0.405-2.027-0.444-2.632
		c-0.32-0.228-7.947-5.576-17.484-5.815c-9.878-0.244-13.804,4.32-13.967,4.516c-0.662,0.791-0.557,1.957,0.225,2.631
		C160.661,77.674,161.848,77.585,162.532,76.814z"/>
	<path fill="#516AAE" d="M191.095,118.809c-1.042,0-1.888,0.846-1.888,1.888c0,5.502,4.477,9.979,9.979,9.979
		c5.501,0,9.978-4.477,9.978-9.979c0-1.042-0.845-1.888-1.888-1.888c-1.042,0-1.888,0.846-1.888,1.888
		c0,3.421-2.782,6.203-6.202,6.203c-3.421,0-6.204-2.782-6.204-6.203C192.982,119.654,192.137,118.809,191.095,118.809z"/>
	<path fill="#516AAE" d="M225.731,140.452c-7.075,5.091-16.515,7.893-26.582,7.893c-10.411,0-20.43-3.123-27.489-8.569
		c-0.825-0.638-2.01-0.483-2.647,0.341c-0.637,0.825-0.484,2.011,0.342,2.648c7.819,6.033,18.401,9.356,29.794,9.356
		c10.852,0,21.075-3.056,28.787-8.605c0.846-0.608,1.038-1.788,0.43-2.635C227.758,140.036,226.578,139.844,225.731,140.452z"/>
	<path fill="#516AAE" d="M208.094,86.839c0.202,0.114,2.359,1.326,5.342,2.662c0.793,0.473,4.165,2.358,8.654,3.233
		c0.489,2.834,2.398,4.894,4.749,4.894c2.391,0,4.328-2.129,4.775-5.039c3.613-0.896,5.491-2.559,6.183-3.313
		c1.99-1.396,3.216-2.659,3.326-2.774c0.72-0.754,0.694-1.948-0.06-2.669s-1.949-0.693-2.668,0.06
		c-0.023,0.023-1.029,1.061-2.673,2.229c-0.147,0.076-0.287,0.167-0.412,0.282c-2.071,1.406-4.997,2.898-8.219,2.999
		c-0.209,0.007-0.414-0.001-0.621-0.001c-6.416-0.194-16.412-5.789-16.515-5.848c-0.905-0.513-2.059-0.194-2.572,0.712
		C206.869,85.173,207.187,86.324,208.094,86.839z M226.551,93.186c0.218,0,0.438-0.003,0.657-0.01
		c0.106-0.003,0.202-0.014,0.307-0.019c-0.244,0.457-0.53,0.695-0.676,0.695c-0.145,0-0.427-0.232-0.67-0.679
		C226.297,93.177,226.422,93.186,226.551,93.186z"/>
	<path fill="#516AAE" d="M211.207,80.069c0.377,0,0.757-0.112,1.088-0.347c0.069-0.049,7.041-4.909,15.395-5.12
		c7.859-0.188,10.834,3.007,10.991,3.182c0.671,0.782,1.851,0.882,2.644,0.22c0.8-0.669,0.906-1.859,0.237-2.659
		c-0.163-0.194-4.106-4.763-13.967-4.516c-9.535,0.24-17.165,5.588-17.484,5.815c-0.849,0.603-1.048,1.779-0.446,2.629
		C210.033,79.791,210.615,80.069,211.207,80.069z"/>
	<path fill="#516AAE" d="M316.788,375.647H83.327c-1.043,0-1.888,0.846-1.888,1.888s0.845,1.888,1.888,1.888h233.461
		c1.042,0,1.888-0.846,1.888-1.888S317.831,375.647,316.788,375.647z"/>
	<path fill="#516AAE" d="M200.058,291.078c-8.456,0-15.337,6.881-15.337,15.338c0,8.457,6.88,15.337,15.337,15.337
		s15.337-6.88,15.337-15.337C215.395,297.959,208.514,291.078,200.058,291.078z M200.058,317.978
		c-6.375,0-11.561-5.187-11.561-11.562c0-6.376,5.186-11.562,11.561-11.562s11.562,5.187,11.562,11.562
		C211.619,312.791,206.433,317.978,200.058,317.978z"/>
</g>
</svg>
