<?xml version="1.0" standalone="no"?>
<!DOCTYPE svg PUBLIC "-//W3C//DTD SVG 1.1//EN" "http://www.w3.org/Graphics/SVG/1.1/DTD/svg11.dtd" >
<svg xmlns="http://www.w3.org/2000/svg">
<metadata>
<json>
<![CDATA[
{
	"fontFamily": "icon",
	"fontURL": "http://skreets.ru",
	"designer": "Alexander Zharikov",
	"designerURL": "http://skreets.ru/about.html",
	"license": "GNU",
	"licenseURL": "http://www.gnu.org/licenses/gpl",
	"description": "Wed developer icons\nFont generated by IcoMoon.",
	"copyright": "2016 skreets",
	"majorVersion": 2,
	"minorVersion": 12,
	"version": "Version 2.12",
	"fontId": "icon",
	"psName": "icon",
	"subFamily": "Regular",
	"fullName": "icon"
}
]]>
</json>
</metadata>
<defs>
<font id="icon" horiz-adv-x="1024">
<font-face units-per-em="1024" ascent="870.850439882698" descent="-153.14956011730206" />
<missing-glyph horiz-adv-x="1024" />
<glyph unicode="&#x20;" horiz-adv-x="0" d="" />
<glyph unicode="&#x3c;" glyph-name="arrow-right" data-tags="arrow-right" horiz-adv-x="366" d="M367.429 314.659q0-7.915-6.787-14.699l-293.941-293.941q-5.652-5.652-13.564-5.652t-14.699 5.652l-31.659 31.659q-6.787 6.787-6.787 14.699t6.787 14.699l247.589 247.589-247.589 248.721q-6.787 5.652-6.787 13.564t6.787 14.699l31.659 31.659q5.652 6.787 14.699 6.787t13.564-6.787l293.941-293.941q6.787-5.652 6.787-14.699z" />
<glyph unicode="&#x3e;" glyph-name="arrow-double-right" data-tags="arrow-double-right" horiz-adv-x="589" d="M354.118 314.684q0-7.625-6.536-14.166l-283.297-283.297q-5.447-5.447-13.076-5.447t-14.166 5.447l-30.51 30.51q-6.536 6.536-6.536 14.166t6.536 14.166l238.623 238.623-238.623 239.712q-6.536 5.447-6.536 13.076t6.536 14.166l30.51 30.51q5.447 6.536 14.166 6.536t13.076-6.536l283.297-283.297q6.536-5.447 6.536-14.166zM587.293 314.684q0-7.625-5.447-14.166l-283.297-283.297q-6.536-5.447-14.166-5.447t-14.166 5.447l-30.51 30.51q-5.447 6.536-5.447 14.166t5.447 14.166l238.623 238.623-238.623 239.712q-5.447 5.447-5.447 13.076t5.447 14.166l30.51 30.51q6.536 6.536 14.166 6.536t14.166-6.536l283.297-283.297q5.447-5.447 5.447-14.166z" />
<glyph unicode="&#x43;" glyph-name="comment" data-tags="comment" horiz-adv-x="1085" d="M954.879 829.231h-824.531c-71.509 0-129.473-57.965-129.473-129.386v-501.438c0-71.553 57.965-129.439 129.473-129.439h110.943v-218.935c0-26.924 21.894-48.81 48.876-48.81 13.791 0 26.263 5.682 35.112 14.823h0.065l252.191 252.919h377.352c71.488 0 129.473 57.888 129.473 129.44v501.438c-0.011 71.423-57.998 129.386-129.483 129.386z" />
<glyph unicode="&#x46;" glyph-name="forum" data-tags="forum" horiz-adv-x="1596" d="M607.535 819.399c-322.75 0-584.4-175.524-584.4-392.156 0-116.778 76.121-221.555 196.779-293.393-25.68-47.588-76.433-108.316-181.383-190.639-17.142-13.432-38.553-32.879 30.76-19.029 116.060 23.22 239.913 82.4 334.328 135.46 63.5-15.878 132.174-24.574 203.932-24.574 322.735 0 584.386 175.524 584.386 392.156s-261.666 392.172-584.4 392.172zM1567.044-164.167c-90.085 70.652-102.939 110.56-107.335 139.559 62.844 45.531 101.289 106.447 101.289 173.404 0 124.615-132.952 228.256-308.82 250.789-14.569-178.252-169.291-325.867-390.084-390.644 67.986-69.547 185.154-115.5 318.372-115.5 57.36 0 111.698 8.569 160.487 23.81 51.376-32.926 139.28-83.413 217.489-99.030 35.794-7.168 17.453 10.672 8.601 17.608z" />
<glyph unicode="&#x4e;" glyph-name="no" data-tags="no" d="M672.319 315.227l355.691-355.691-158.313-158.313-355.691 355.691-355.691-355.691-158.313 158.313 355.691 355.691-355.691 355.691 158.313 158.313 355.691-355.691 355.691 355.691 158.313-158.313z" />
<glyph unicode="&#x50;" glyph-name="play" data-tags="play" horiz-adv-x="882" d="M441.016 756.245q119.248 0 221.022-59.624t160.369-160.369 58.596-221.022-58.596-221.022-160.369-160.369-221.022-59.624-222.050 59.624-159.341 160.369-59.624 221.022 59.624 221.022 159.341 160.369 222.050 59.624zM661.011 283.359q18.504 10.28 18.504 31.868t-18.504 31.868l-312.515 182.986q-17.476 11.308-35.98 1.028-18.504-11.308-18.504-31.868v-368.027q0-20.56 18.504-31.868 9.252-4.112 17.476-4.112 10.28 0 18.504 5.14z" />
<glyph unicode="&#x52;" glyph-name="reply" data-tags="reply" d="M677.554 27.086v202.469h-350.421c-180.69 0-327.132-146.408-327.132-327.061v342.694c0 180.55 146.478 327.026 327.132 327.026h350.421v155.751l350.456-350.491-350.456-350.386z" />
<glyph unicode="&#x53;" glyph-name="star" data-tags="star" d="M1022.076 415.775l-259.335-231.851 73.592-339.971c1.227-5.642-1.023-11.518-5.703-14.942-2.542-1.813-5.525-2.837-8.594-2.837-2.513 0-5.059 0.645-7.338 1.959l-300.676 175.015-300.676-174.957c-5.030-2.895-11.257-2.575-15.936 0.819-4.679 3.361-6.901 9.181-5.674 14.913l73.533 339.971-259.335 231.851c-4.297 3.919-5.936 9.971-4.151 15.408 1.784 5.496 6.666 9.414 12.425 10.029l346.081 35.113 140.339 318.307c4.679 10.553 22.075 10.553 26.752 0l140.31-318.307 346.11-35.113c5.732-0.616 10.612-4.443 12.454-10.029 1.755-5.437 0.117-11.431-4.18-15.379z" />
<glyph unicode="&#x59;" glyph-name="yes" data-tags="yes" horiz-adv-x="1211" d="M1211.732 756.142q-256.942-228.164-616.66-770.826l-118.192-183.97q-147.998 184.998-476.884 513.883l109.97 109.97 293.941-256.942q154.165 154.165 286.747 279.552t211.72 192.193 134.636 114.081 79.137 60.638l21.583 14.389q4.111 0 11.305-2.056t26.722-19.527 35.972-51.388z" />
<glyph unicode="&#x63;" glyph-name="crash" data-tags="crash" horiz-adv-x="1241" d="M612.335 359.091l10.616 67.311c-37.020 5.841-72.086-19.671-77.927-56.691l67.311-10.617zM1157.658 408.876c-7.365 0.414-13.589 2.165-18.516 5.341l-20.255-13.589-15.392 23.691c-2.75-4.11-6.483-7.287-11.294-9.44-1.778 4.136-3.711 8.259-5.72 12.358-4.941 14.33-9.065 28.968-12.891 43.895-18.013 73.461-37.995 142.639-60.621 217.421-6.004 23.91-26.128 46.447-49.65 55.021-83.885 30.16-193.691 47.071-306.868 62.321-0.181 0.013-0.336 0.039-0.547 0.064v-0.026c-0.168 0.013-0.271 0.026-0.452 0.052-113.463 12.853-224.099 23.251-312.807 14.496-24.909-2.582-49.925-19.515-61.593-41.222-40.197-67.001-76.481-129.218-111.88-196.037-7.339-13.524-14.94-26.752-23.226-39.433-2.971-3.474-5.824-7.016-8.596-10.566-9 7.145-11.931 17.738-9.543 31.159 37.305 23.497 26.195 79.267-25.623 83.029-41.183 3.008-67.792-6.198-79.203-23.845-2.738-4.123-3.216-6.745-3.24-11.655 0.322-27.465 21.913-40.718 51.647-48.432 12.126-3.124 15.327-2.462 20.436-15.495 6.081-15.456 11.539-41.546 17.712-58.962-6.586-13.331-11.97-27.139-15.884-41.521-12.732-28.217-30.212-50.157-46.292-73.056-20.993-29.889-29.812-57.806-36.372-93.961-6.938-39.044-9.973-83.963-9.298-133.808 0 0 0.572-65.64 29.566-123.681-1.489-62.398 2.165-120.101 9.195-178.169 2.372-19.954 11.97-33.405 29.135-40.352h61.49c16.714 0.155 31.197-3.241 44.647 7.989 23.509 19.813 17.428 58.962 17.738 86.179v33.026l359.773-44.581c13.202-1.636 26.088 4.851 32.627 16.455l0.65 1.154 318.797-58.649c23.472-25.766 57.937-41.639 98.966-41.639 86.79 0 169.493 70.361 184.73 157.135 9.129 52.051-8.196 98.045-42.156 126.651 2.854 17.596 5.083 34.662 6.224 50.754 2.462 36.659 0.74 65.912-12.306 100.029-9.998 26.115-21.603 51.685-27.061 82.134-0.297 14.887-2.114 29.605-5.251 44.114 3.917 5.875 8.014 13.059 12.163 20.372 4.76-2.738 9.181-5.394 12.824-7.937 11.501-7.95 10.102-10.919 10.412-23.432 0.65-30.719 8.583-54.772 35.243-61.4 4.825-1.115 7.455-1.232 12.099 0.491 19.813 7.067 34.882 30.861 41.415 71.618 8.222 51.245-43.438 74.87-74.949 43.945zM927.852 697.799c24.079-6.521 27.4-13.123 36.1-35.558 21.913-61.102 37.175-116.537 53.321-177.597 2.776-10.567 0.129-21.823-7.081-30.044-7.21-8.209-18.039-12.279-28.877-10.881-64.097 8.299-159.275 20.308-262.104 33.142l51.974 64.396 36.672-44.334-18.129 47.007 185.457-39.745-172.204 63.591 25.972 153.764c32.91-6.951 65.498-14.728 98.9-23.742zM227.16 582.559c30.564 55.279 58.896 105.295 95.077 159.197 13.915 19.618 18.736 25.21 43.688 25.663 94.478 1.623 180.827-4.046 283.371-15.977v0.039c60.453-7.963 114.902-16.74 168.21-27.608l-59.545-142.859-32.183 23.548 3.749 16.249-29.032 2.243-7.675 5.6 2.582 49.030-40.379-21.383-74.55 54.526 54.682-61.374-39.263-8.727 53.218-6.938 61.18-68.661-112.621-51.739 155.009 30.552-44.192-65.717c-167.301 20.85-352.538 43.583-456.431 55.889-10.855 1.295-20.359 7.885-25.352 17.609-4.994 9.697-4.839 21.281 0.463 30.836zM696.067 346.377c-7.28-46.155-50.696-77.741-96.851-70.461s-77.741 50.696-70.461 96.851c7.28 46.155 50.696 77.741 96.851 70.461s77.741-50.696 70.461-96.851zM135.016 172.861c-2.114-17.015-17.596-29.084-34.623-26.984-16.856 2.088-28.942 17.583-26.841 34.61 2.101 16.882 17.596 28.929 34.456 26.841 17.001-2.114 29.096-17.583 27.009-34.467zM173.436 261.776c-41.067 5.096-70.491 42.883-65.395 83.963 5.109 41.209 42.844 70.517 83.911 65.42 41.235-5.122 70.685-42.728 65.575-83.95-5.095-41.067-42.87-70.542-84.092-65.433zM873.042-50.886c-38.979-14.316-82.018-19.193-127.921-18.918-12.758 0.064-16.688 0.064-29.902 0.843l-135.416 26.415c0 0-3.203-6.483-6.599-13.318-3.827-7.69-21.939-14.071-28.955-13.098-113.541 15.754-232.89 45.683-308.036 96.982-42.052 28.594-53.024 56.485-30.198 88.215 16.287 25.558 34.83 50.067 54.333 74.003 19.063 25.339 48.849 38.474 92.52 36.19 74.119-3.956 151.665-12.371 228.754-20.295l0.013 0.039c38.317-5.561 90.562-28.296 119.739-52.607 5.952-0.909-4.201 50.767 1.739 49.847 31.886-5.070 63.371-10.45 94.052-16.468 42.909-8.441 68.597-28.451 80.877-57.69 13.059-27.97 36.229-73.226 45.776-101.947 14.445-36.345-3.022-60.698-50.767-78.19zM977.375 163.59c-30.706 9.818-51.831 38.513-52.142 70.929l53.269 19.542-48.484 7.834c12.073 31.615 44.425 52.309 79.501 47.953 41.079-5.096 70.517-42.715 65.407-83.937-0.701-5.641-2.127-11.010-3.981-16.146l-65.691 12.681-27.878-58.856zM1033.535 30.235c-17.015 2.101-29.084 17.596-26.984 34.636 2.088 16.882 17.583 28.929 34.61 26.802 16.882-2.088 28.955-17.557 26.868-34.443-2.101-17.014-17.583-29.109-34.494-26.997zM1120.493-12.22c1.128-8.312 0.986-17.131-0.624-26.299-7.223-41.132-41.521-75.561-81.341-85.206 40.081 34.765 68.467 84.559 81.966 111.506zM612.335 359.091l-10.616-67.311c37.020-5.841 72.086 19.671 77.927 56.691l-67.311 10.617z" />
<glyph unicode="&#x66;" glyph-name="facebook" data-tags="facebook" horiz-adv-x="589" d="M560.331 821.485v-162.667h-96.273q-53.117 0-71.927-22.133t-18.81-66.396v-117.297h181.479l-24.346-182.585h-157.133v-469.188h-189.225v469.188h-157.133v182.585h157.133v135.003q0 115.083 64.182 178.159t171.518 63.075q90.739 0 140.535-7.748z" />
<glyph unicode="&#x69;" glyph-name="instagram" data-tags="instagram" horiz-adv-x="882" d="M781.504 10.937v372.139h-77.1q11.308-35.98 11.308-75.044 0-72.988-37.008-133.641t-99.716-96.632-137.753-35.98q-113.080 0-193.266 78.128t-80.184 188.126q0 39.064 11.308 75.044h-81.212v-372.139q0-14.392 10.28-24.672t25.7-10.28h612.694q14.392 0 24.672 10.28t10.28 24.672zM619.079 317.283q0 70.932-52.428 121.304t-125.416 50.372-124.388-50.372-52.428-121.304 52.428-121.304 124.388-50.372q74.016 0 125.416 50.372t52.428 121.304zM781.504 523.913v94.576q0 15.42-11.308 27.756t-27.756 11.308h-100.744q-16.448 0-27.756-11.308t-11.308-27.756v-94.576q0-17.476 11.308-28.784t27.756-11.308h100.744q16.448 0 27.756 11.308t11.308 28.784zM881.222 643.162v-655.87q0-46.26-32.896-79.156t-80.184-33.924h-654.842q-46.26 0-80.184 33.924t-32.896 79.156v655.87q0 46.26 32.896 79.156t80.184 33.924h654.842q46.26 0 80.184-33.924t32.896-79.156z" />
<glyph unicode="&#x70;" glyph-name="pay-post" data-tags="pay-post" horiz-adv-x="1057" d="M131.702 518.451l66.351-3.774c-46.437-52.412-74.842-121.212-75.379-196.737-0.568-79.957 30.207-152.826 80.828-206.961l-73.133 4.159c-39.718 57.735-62.764 127.796-62.235 203.187 0.525 74.444 23.964 143.364 63.57 200.123zM675.749 374.228c0-38.774-12.116-68.421-36.345-88.956-24.233-20.54-58.687-30.804-103.37-30.804h-32.772v-128.137h-76.39v360.264h115.077c43.696 0 76.917-9.406 99.673-28.214 22.747-18.812 34.125-46.86 34.125-84.149zM503.258 317.059h25.136c23.49 0 41.063 4.641 52.731 13.923 11.66 9.278 17.496 22.794 17.496 40.537 0 17.901-4.893 31.128-14.661 39.675-9.777 8.539-25.096 12.814-45.956 12.814h-34.744l-0.004-106.943zM925.503 517.623l-66.26-3.77c46.378-52.343 74.744-121.054 75.274-196.473 0.568-79.855-30.166-152.626-80.722-206.687l73.041 4.155c39.667 57.658 62.679 127.631 62.15 202.918-0.521 74.345-23.925 143.168-63.485 199.858zM528.566 643.804c-181.469 0-328.577-147.106-328.577-328.577s147.106-328.577 328.577-328.577 328.577 147.106 328.577 328.577-147.106 328.577-328.577 328.577zM528.566 36.568c-153.902 0-278.659 124.757-278.659 278.659s124.757 278.659 278.659 278.659 278.659-124.757 278.659-278.659-124.761-278.659-278.659-278.659z" />
<glyph unicode="&#x71;" glyph-name="send" data-tags="send" d="M1009.579 821.042q19.454-13.311 15.359-36.861l-145.397-877.494q-3.072-16.383-18.431-25.598-8.191-5.12-18.431-5.12-6.144 0-13.311 3.072l-259.050 106.488-138.229-168.947q-10.239-13.311-27.646-13.311-7.167 0-12.287 2.048-11.263 4.096-17.407 13.311t-7.167 21.502v199.663l493.527 604.109-610.252-528.339-226.285 93.177q-20.478 8.191-22.526 30.718-1.024 23.55 18.431 33.789l950.192 548.817q9.215 5.12 18.431 5.12 11.263 0 20.478-6.144z" />
<glyph unicode="&#x72;" glyph-name="rubl" data-tags="rubl" horiz-adv-x="723" d="M-0.503 352.245h100.023v505.749h247.942q87.345 0 148.629-14.791t109.184-47.189q54.947-36.633 85.939-95.091t30.99-140.176q0-63.391-23.248-121.152t-62.692-98.614q-50.713-49.307-119.745-75.367t-174.691-26.059h-111.291v-85.939h443.766v-112.698h-443.766v-169.052h-131.014v169.052h-100.023v112.698h100.023v87.345h-100.023v111.291zM585.556 557.924q0 50.713-17.606 88.045t-52.831 61.286q-32.398 21.13-73.253 29.585t-102.835 8.454h-108.475v-394.458h90.16q78.892 0 127.49 13.385t82.415 45.784q28.177 29.585 41.562 64.808t13.385 83.113z" />
<glyph unicode="&#x73;" glyph-name="search" data-tags="search" d="M766.895 171.307l261.114-262.142-107.94-107.94-261.114 261.114q-108.968-74.016-238.498-74.016-173.733 0-297.095 123.36t-123.36 297.095 123.36 297.095 297.095 123.36 297.095-123.36 123.36-297.095q0-130.556-74.016-237.47zM700.075 408.776q0 116.164-81.212 198.406t-198.406 82.24-198.406-82.24-82.24-198.406 82.24-197.378 198.406-82.24 198.406 82.24 81.212 197.378z" />
<glyph unicode="&#x74;" glyph-name="twitter" data-tags="twitter" horiz-adv-x="954" d="M953.732 611.078q-40.144-58.59-97.653-100.908 0-8.677 0-24.954 0-79.207-22.786-157.329t-69.444-150.82-111.757-126.949-156.244-88.974-196.389-32.553q-163.841 0-299.467 87.889 20.614-2.169 46.656-2.169 136.712 0 243.045 83.546-64.017 1.086-113.929 39.063t-69.444 96.567q20.614-3.254 36.89-3.254 26.040 0 52.081 6.509-68.357 14.107-112.843 67.275t-44.486 124.779v2.169q41.231-22.786 88.974-24.954-40.144 27.123-64.017 69.444t-23.869 93.311q0 53.167 27.123 98.737 73.781-90.057 177.945-144.31t225.686-59.676q-5.423 22.786-5.423 44.486 0 81.376 57.507 137.798t137.798 57.507q85.719 0 143.223-61.844 66.188 13.023 123.696 47.743-21.7-69.444-85.719-108.503 56.421 6.509 112.843 30.381z" />
<glyph unicode="&#x75;" glyph-name="user" data-tags="user" horiz-adv-x="1003" d="M512.13 208.23c-171.185 0-310.472 139.288-310.472 310.472s139.288 310.531 310.472 310.531c171.185 0 310.531-139.288 310.531-310.531 0-171.185-139.288-310.472-310.531-310.472zM512.13 709.254c-105.048 0-190.553-85.501-190.553-190.613 0-105.048 85.441-190.553 190.553-190.553s190.613 85.441 190.613 190.553c0 105.17-85.501 190.613-190.613 190.613zM1000.86-198.777h-998.809l0.9 60.917c3.838 251.951 227.427 457.013 498.446 457.013 22.306 0 44.671-1.318 66.496-4.077 242.837-30.099 428.473-224.849 431.95-452.996l1.019-60.858zM129.826-78.859h743.142c-30.7 141.326-158.594 254.889-319.766 274.916-16.908 2.098-34.176 3.178-51.744 3.178-183.057-0.059-337.574-120.159-371.631-278.094z" />
<glyph unicode="&#x76;" glyph-name="vkontakte" data-tags="vkontakte" horiz-adv-x="1101" d="M1090.293 581.241q13.206-36.576-85.34-166.615-13.206-18.288-36.576-48.765-44.7-55.881-50.799-74.167-10.157-23.372 7.115-45.716 10.157-12.19 46.733-46.733v0h1.016v-1.016l1.016-1.016q80.256-74.167 108.711-124.967 2.034-3.050 4.066-7.115t3.050-15.238 0-19.304-14.222-15.238-33.528-7.115l-145.286-3.050q-13.206-2.034-31.494 3.050t-29.462 13.206l-11.172 6.1q-17.272 12.19-39.627 36.576t-38.61 43.687-34.544 33.528-32.51 8.129q-1.016 0-4.066-2.034t-10.157-8.129-12.19-16.256-9.143-29.462-4.066-44.7q0-8.129-2.034-15.238t-4.066-10.157l-2.034-3.050q-10.157-11.172-30.478-12.19h-65.018q-40.645-3.050-82.29 9.143t-75.185 29.462-57.915 37.594-40.645 32.51l-14.222 14.222q-5.082 5.082-15.238 17.272t-40.645 50.799-59.942 86.357-69.084 118.867-74.167 154.428q-4.066 9.143-4.066 15.238t2.034 9.143l2.034 3.050q9.143 11.172 32.51 11.172l155.444 1.016q7.115-1.016 13.206-4.066t9.143-4.066l3.050-2.034q9.143-6.1 13.206-18.288 11.172-28.444 26.415-58.928t23.372-45.716l9.143-16.256q16.256-34.544 31.494-58.928t27.429-38.61 23.372-22.354 19.304-8.129 15.238 3.050q1.016 1.016 3.050 3.050t7.115 12.19 7.115 26.415 5.082 46.733 0 70.1q-1.016 23.372-5.082 41.659t-7.115 26.415l-4.066 6.1q-14.222 19.304-47.749 24.387-8.129 2.034 3.050 14.222 9.143 10.157 21.338 17.272 29.462 14.222 135.123 13.206 46.733-1.016 76.199-7.115 12.19-3.050 19.304-8.129t12.19-13.206 5.082-18.288 2.034-26.415 0-30.478-2.034-40.645 0-46.733q0-6.1-1.016-23.372t0-27.429 2.034-22.354 6.1-22.354 13.206-14.222q4.066-1.016 9.143-2.034t15.238 6.1 21.338 19.304 29.462 38.61 38.61 60.956q33.528 58.928 60.956 127 2.034 6.1 5.082 10.157t6.1 6.1l2.034 2.034 3.050 1.016t8.129 2.034 11.172 0l162.557 1.016q22.354 3.050 36.576-1.016t17.272-10.157z" />
<glyph unicode="&#x79;" glyph-name="youtube" data-tags="youtube" d="M734.684 315.227q0 21.588-16.448 30.84l-294.011 184.014q-17.476 11.308-37.008 1.028t-19.532-31.868v-368.027q0-21.588 19.532-31.868 9.252-4.112 17.476-4.112 11.308 0 19.532 5.14l294.011 184.014q16.448 9.252 16.448 30.84zM1028.697 315.227q0-55.512-1.028-86.352t-4.112-78.128-13.364-84.296q-9.252-42.148-39.064-70.932t-71.96-32.896q-126.444-14.392-384.475-14.392t-384.475 14.392q-41.12 4.112-71.96 32.896t-40.092 70.932q-7.196 37.008-12.336 84.296t-4.112 78.128-1.028 86.352 1.028 86.352 4.112 78.128 13.364 84.296q9.252 42.148 39.064 70.932t71.96 32.896q126.444 14.392 384.475 14.392t384.475-14.392q41.12-4.112 71.96-32.896t40.092-70.932q8.224-37.008 12.336-84.296t4.112-78.128 1.028-86.352z" />
<glyph unicode="&#xe800;" glyph-name="pin" data-tags="pin" horiz-adv-x="858" d="M589.050-6.539q0-23.644-15.42-39.064t-38.036-15.42q-21.588 0-38.036 16.448l-173.733 173.733-323.823-242.61 242.61 323.823-172.705 173.733q-24.672 23.644-12.336 57.568 14.392 32.896 49.344 32.896 161.397 0 277.563 58.596 92.52 46.26 155.229 175.79 9.252 24.672 37.008 32.896t51.4-13.364l213.826-214.854q21.588-23.644 14.392-51.4t-32.896-37.008q-130.556-64.764-176.818-156.257-57.568-113.080-57.568-275.507z" />
<glyph unicode="&#xe801;" glyph-name="lock" data-tags="lock" horiz-adv-x="600" d="M598.302 404.664v-365.971q0-32.896-32.896-32.896h-532.51q-32.896 0-32.896 32.896v365.971q0 10.28 3.084 17.476t7.196 10.28 12.336 5.14 13.364 2.056 16.448 0 14.392-1.028v130.556h1.028q9.252 89.436 76.072 144.949t157.285 54.484 155.229-63.736 72.988-156.257h1.028l2.056-109.996q4.112 0 15.42 1.028t15.42 0 13.364-2.056 12.336-5.14 6.168-10.28 3.084-17.476zM432.792 571.201q0 52.428-38.036 76.072t-93.548 23.644q-54.484 0-94.576-25.7t-40.092-79.156v-127.472h266.255v132.613z" />
<glyph unicode="&#xe803;" glyph-name="megaphone" data-tags="megaphone" horiz-adv-x="885" d="M814.184 469.429q59.624-141.865 68.876-265.227t-40.092-143.921q-28.784-12.336-62.708 3.084t-66.82 41.12-101.772 42.148-153.173 8.224q-28.784-4.112-43.176-19.532t-6.168-38.036q22.616-57.568 47.288-111.024 4.112-10.28 24.672-22.616t24.672-20.56q14.392-34.952-22.616-47.288-51.4-22.616-104.856-41.12-30.84-10.28-55.512 43.176-32.896 78.128-59.624 135.697-6.168 12.336-34.952 17.476t-47.288 31.868q-30.84-10.28-39.064-14.392-34.952-12.336-76.072 12.336t-55.512 61.68q-17.476 32.896-5.14 81.212t44.204 62.708q129.528 53.456 218.966 111.024t127.472 105.884 60.652 94.576 25.7 80.184 15.42 60.652 37.008 37.008q49.344 20.56 133.641-71.96t145.977-234.386zM785.399 161.027q8.224 4.112 10.28 39.064t-11.308 100.744-42.148 131.585q-28.784 67.848-68.876 126.444t-68.876 86.352-37.008 23.644-10.28-43.176 10.28-107.94 41.12-136.725 69.904-122.332 69.904-78.128 37.008-19.532z" />
<glyph unicode="&#xe900;" glyph-name="rubl-light" data-tags="rubl-light" horiz-adv-x="820" d="M478.322 250.099c167.105 0 303.947 136.843 303.947 303.947s-136.843 303.947-303.947 303.947h-309.211v-502.631h-131.579v-105.263h131.579v-109.212h-131.579v-105.263h131.579v-202.632h105.263v202.632h377.631v105.263h-377.631v109.212h203.947zM274.375 752.73h203.947c109.212 0 198.684-89.474 198.684-198.684s-89.474-198.684-198.684-198.684h-203.947v397.368z" />
<glyph unicode="&#xe901;" glyph-name="rubl-thin" data-tags="rubl-thin" horiz-adv-x="820" d="M493.629 288.1c156.653 0 284.947 128.294 284.947 284.947s-128.294 284.947-284.947 284.947h-290.35v-515.876h-162.055v-54.019h162.055v-152.603h-162.055v-54.019h162.055v-248.486h54.019v248.486h482.114v54.019h-482.114v152.603h236.331zM257.298 803.975h236.331c126.944 0 230.929-103.985 230.929-230.929s-103.985-230.929-230.929-230.929h-236.331v461.857z" />
<glyph unicode="&#xe902;" glyph-name="camera" data-tags="camera" horiz-adv-x="1509" d="M1212.821 730.527l-182.795-182.795v54.628c0 121.967-77.567 220.842-173.342 220.842h-683.369c-95.775 0-173.342-98.875-173.342-220.842v-574.265c0-121.967 77.567-220.842 173.342-220.842h683.369c95.697 0 173.342 98.875 173.342 220.842v59.126l182.795-182.795c65.401-65.401 196.666-68.112 236.030 0 62.068 107.555 54.862 771.241 0 826.103-55.635 55.635-170.629 65.401-236.030 0z" />
<glyph unicode="&#xe903;" glyph-name="pdf" data-tags="pdf" horiz-adv-x="2523" d="M878.147-182.736c54.828-7.902 141.102-15.642 258.818-15.642 196.088 0 360.734 47.087 462.648 133.359 94.173 86.272 164.645 211.732 164.645 407.82 0 172.545-70.631 298.004-172.545 376.377-101.915 70.473-219.474 109.658-415.563 109.658-109.815 0-219.632-7.902-305.747-23.544h7.902v-988.027zM1097.779 640.646c15.642 0 54.828 7.902 101.915 7.902 196.088 0 321.547-109.815 321.547-321.547 0-243.018-141.102-352.834-345.091-352.834-23.544 0-62.729 0-78.372 7.902v658.58zM2140.634 217.183h360.734v188.188h-360.734v227.375h384.277v188.188h-611.651v-1003.669h227.375zM227.31 185.897c23.544-7.902 47.087-7.902 78.372-7.902 133.359 0 250.918 31.445 329.29 101.915 62.886 54.828 94.173 133.359 94.173 235.275s-46.93 188.188-109.658 235.275c-62.729 54.828-164.803 78.372-305.904 78.372s-235.275-7.902-305.747-23.544h-7.902v-980.126h227.375v360.734zM227.31 648.547c15.642 7.902 47.087 7.902 94.173 7.902 117.559 0 180.289-54.828 180.289-149.002 0-101.915-78.372-164.645-196.088-164.645-39.186 0-62.729 0-78.372 7.902v297.846z" />
<glyph unicode="&#xe904;" glyph-name="photo" data-tags="photo" horiz-adv-x="1284" d="M128.464-198.776h1028.007c35.95 0 66.37 12.881 91.258 38.559 24.809 25.678 37.292 55.701 37.292 89.916v578.279c0 35.95-12.404 66.37-37.292 91.258-24.809 24.809-55.229 37.292-91.258 37.292h-154.229c-24.018 0-41.085 12.881-51.435 38.559l-38.559 118.199c-8.453 23.939-25.6 35.95-51.278 35.95h-436.929c-25.678 0-42.825-12.011-51.357-35.95l-38.559-118.279c-10.271-25.678-27.418-38.559-51.435-38.559h-154.229c-34.289 0-64.237-12.404-89.916-37.292-25.678-24.809-38.559-55.229-38.559-91.179v-578.279c0-34.289 12.881-64.237 38.559-89.916 25.678-25.757 55.701-38.559 89.916-38.559zM1112.86 507.974c12.011 0 22.282-4.266 30.814-12.881 8.532-8.532 12.881-18.882 12.881-30.814 0-12.011-4.266-22.676-12.881-32.156-8.532-9.402-18.882-14.144-30.814-14.144-12.011 0-22.676 4.266-32.156 12.881-9.402 8.532-14.144 19.673-14.144 33.423 0 29.153 15.407 43.695 46.3 43.695zM415.037 478.423c62.576 62.498 138.348 93.785 227.472 93.785s164.896-31.288 227.472-93.785c62.576-62.576 93.785-138.348 93.785-227.472s-31.288-164.896-93.785-227.472c-62.576-62.576-138.348-93.785-227.472-93.785s-164.896 31.288-227.472 93.785c-62.498 62.576-93.785 138.348-93.785 227.472s31.288 164.896 93.785 227.472z" />
<glyph unicode="&#xe905;" glyph-name="upload" data-tags="upload" horiz-adv-x="1458" d="M1102.801 827.913c-10.824 0-15.152-4.328-21.524-10.7l-328.883-421.355c-6.493-6.493-6.493-17.197 0-27.897 4.328-10.7 15.033-17.197 21.524-17.197h193.362c-4.209-412.698-214.886-505.17-262.145-543.891-10.7-4.328-10.7-4.328 0-4.328 324.555 0 533.069 234.247 537.396 548.098h191.317c10.7 0 21.524 6.493 19.361 17.197 6.493 10.7 6.493 21.524 0 27.897l-329.003 421.476c-4.209 6.372-10.7 10.7-21.405 10.7zM709.343 260.454c-4.209 10.7-15.033 17.197-21.405 17.197h-193.482c4.328 412.698 214.886 505.17 262.265 545.935 10.7 4.328 10.7 4.328 0 4.328-324.675 0-533.069-234.247-537.396-548.098h-191.317c-10.7 0-21.524-6.493-21.524-17.197-6.493-10.7-6.493-21.524 0-27.897l331.047-421.355c4.328-6.493 10.7-10.7 21.524-10.7s15.033 4.209 21.405 8.536l328.883 421.355c6.493 6.372 4.328 17.197 0 27.897z" />
<glyph unicode="&#xe906;" glyph-name="pen" data-tags="pen" horiz-adv-x="693" d="M42.831 70.754c33.778 107.021 69.83 211.811 126.185 306.406 72.105 118.264 163.332 219.687 281.643 294.025 21.397 13.519 45.067 25.902 66.462 38.283 1.137-2.275 1.137-4.505-1.137-5.645l-1.137-1.137c-63.093-39.377-116.034-88.908-163.332-145.263-79.981-94.638-141.937-200.522-191.509-314.283-60.816-136.293-102.515-279.367-117.172-428.087-1.137-6.784 9.014-10.151 12.382-3.368l94.638 177.99c1.137 2.275 2.275 4.505 3.368 6.74 2.231 2.275 4.505 4.505 7.877 6.74 47.297 29.273 95.776 56.311 140.798 87.859 60.816 42.792 114.897 92.364 159.964 149.812 5.645 5.645 56.311 64.232 101.378 174.621 1.137 1.137 1.137 3.368 2.275 4.505 0 1.137 0 1.137 1.137 2.275 11.289 27.038 21.397 57.448 30.41 91.226l-131.786-6.74c0 0 141.937 48.434 154.319 99.147 1.137 2.231 1.137 6.74 2.275 10.151 6.74 28.176 12.382 60.816 20.303 83.35 1.137 11.245 20.259 70.967 43.929 107.021 5.599 6.784-1.137 19.165-12.425 19.165-45.067-1.137-129.554-4.505-203.893-27.038-43.929-11.245-87.859-31.547-129.554-52.943-197.154-102.515-315.42-261.34-334.584-486.673-5.645-64.232 2.275-128.416 23.67-189.278 2.231-5.599 13.519-14.613 13.519 1.137z" />
<glyph unicode="&#xe907;" glyph-name="add-blog" data-tags="add-blog" horiz-adv-x="1083" d="M953.784 829.12h-824.346c-71.493 0-129.444-57.953-129.444-129.356v-501.33c0-71.535 57.953-129.409 129.444-129.409h110.917v-218.885c0-26.917 21.888-48.798 48.863-48.798 13.787 0 26.255 5.684 35.104 14.818h0.065l252.137 252.865h377.268c71.47 0 129.444 57.875 129.444 129.408v501.331c-0.012 71.404-57.983 129.356-129.456 129.356zM771.437 391.408h-149.587v-148.809h-125.496v148.809h-148.809v125.496h148.809v149.587h125.496v-149.587h149.587v-125.496z" />
<glyph unicode="&#xe908;" glyph-name="add-forum" data-tags="add-forum" horiz-adv-x="1336" d="M669.527 829.233c-368.666 0-667.538-200.493-667.538-447.943 0-133.389 86.951-253.075 224.773-335.13-29.335-54.36-87.306-123.724-207.186-217.76-19.58-15.344-44.036-37.559 35.136-21.732 132.57 26.522 274.043 94.125 381.889 154.732 72.534-18.14 150.975-28.068 232.942-28.068 368.648 0 667.52 200.493 667.52 447.943s-298.891 447.961-667.536 447.961zM893.76 341.688h-158.96v-158.132h-133.362v158.132h-158.132v133.362h158.132v158.96h133.362v-158.96h158.96v-133.362z" />
<glyph unicode="&#xe909;" glyph-name="chat" data-tags="chat" d="M928.175 83.183c99.834 178.633 73.561 409.818-78.799 562.177-183.9 183.871-481.604 183.871-665.505 0-183.871-183.9-183.871-481.604 0-665.505 152.358-152.358 383.543-178.633 562.177-77.051l241.689-59.535-59.563 239.914zM311.816 251.399c-33.287 0-61.311 28.020-61.311 61.311s28.020 61.282 61.311 61.282 61.282-28.020 61.282-61.282-27.991-61.311-61.282-61.311zM516.725 251.399c-33.287 0-61.311 28.020-61.311 61.311s28.020 61.282 61.311 61.282 61.311-28.020 61.311-61.282-28.020-61.311-61.311-61.311zM721.634 251.399c-33.287 0-61.282 28.020-61.282 61.311s28.020 61.282 61.282 61.282 61.311-28.020 61.311-61.282-28.049-61.311-61.311-61.311z" />
<glyph unicode="&#xe90a;" glyph-name="comments" data-tags="comments" horiz-adv-x="1336" d="M669.527 829.233c-368.665 0-667.538-200.495-667.538-447.944 0-133.39 86.952-253.074 224.773-335.131-29.336-54.36-87.306-123.726-207.187-217.76-19.579-15.344-44.036-37.558 35.135-21.733 132.57 26.522 274.043 94.125 381.89 154.732 72.534-18.139 150.975-28.068 232.943-28.068 368.647 0 667.52 200.495 667.52 447.944s-298.891 447.962-667.538 447.962z" />
<glyph unicode="&#xe90b;" glyph-name="blog" data-tags="blog" horiz-adv-x="1083" d="M59.242 657.778v-446.601c0-63.725 51.643-115.276 115.314-115.276h336.080l224.663-225.26c7.887-8.149 18.984-13.205 31.273-13.205 24.025 0 43.528 19.493 43.528 43.469v194.988h98.809c63.686 0 115.314 51.559 115.314 115.276v446.601c0 63.609-51.627 115.236-115.314 115.236h-734.347c-63.667 0-115.314-51.627-115.324-115.236z" />
<glyph unicode="&#xe90c;" glyph-name="star2" data-tags="star" horiz-adv-x="1081" d="M540.437-0.166l-333.709-198.091 85.345 378.564-291.552 256.133 386.381 35.858 153.53 356.45 153.498-356.45 386.418-35.858-291.543-256.133 85.337-378.564z" />
<glyph unicode="&#xe90d;" glyph-name="eyes" data-tags="eyes" horiz-adv-x="1819" d="M1818.389 318.61c-0.037 0.766-0.108 1.489-0.164 2.236-0.037 0.381-0.054 0.764-0.090 1.127-0.054 0.546-0.144 1.091-0.217 1.62-0.073 0.639-0.144 1.272-0.254 1.891-0.017 0.073-0.037 0.164-0.037 0.235-2.236 14.058-8.858 27.241-19.005 37.387-58.010 68.757-127.020 129.948-197.193 185.828-151.132 120.418-323.976 221.162-514.771 261.713-110.272 23.422-221.233 24.423-332.086 4.598-100.833-18.041-198.012-55.535-288.972-102.016-142.367-72.739-272.386-173.026-385.678-285.461-20.965-20.802-41.825-42.042-60.88-64.647-25.387-30.075-25.387-65.701 0-95.778 58.010-68.757 127.020-129.931 197.193-185.828 151.149-120.418 323.994-221.143 514.788-261.694 110.272-23.44 221.252-24.44 332.105-4.62 100.813 18.041 197.993 55.535 288.972 102.016 142.367 72.756 272.386 173.026 385.678 285.461 20.965 20.821 41.825 42.042 60.88 64.647 10.147 10.166 16.765 23.332 19.005 37.405 0 0.073 0.019 0.164 0.037 0.235 0.11 0.639 0.181 1.254 0.254 1.891 0.073 0.529 0.164 1.074 0.217 1.62 0.037 0.381 0.054 0.747 0.090 1.127 0.054 0.729 0.127 1.453 0.164 2.218 0.054 1.127 0.090 2.255 0.090 3.4s-0.073 2.255-0.127 3.382zM909.248-34.663c-193.248 0-349.89 156.643-349.89 349.89 0 193.229 156.643 349.89 349.89 349.89s349.89-156.643 349.89-349.89-156.643-349.89-349.89-349.89zM1025.066 315.226c0-63.963-51.854-115.819-115.819-115.819s-115.819 51.854-115.819 115.819c0 63.963 51.854 115.819 115.819 115.819s115.819-51.854 115.819-115.819z" />
<glyph unicode="&#xe90e;" glyph-name="date" data-tags="date" horiz-adv-x="955" d="M72.995-125.782h165.508v165.508h-165.508v-165.508zM275.517-125.782h182.987v165.508h-182.987v-165.508zM72.995 76.722h165.508v182.987h-165.508v-182.987zM275.517 76.722h182.987v182.987h-182.987v-182.987zM72.995 296.721h165.508v165.508h-165.508v-165.508zM495.498-125.782h184.015v165.508h-184.015v-165.508zM275.517 296.721h182.987v165.508h-182.987v-165.508zM715.498-125.782h165.508v165.508h-165.508v-165.508zM495.498 76.722h184.015v182.987h-184.015v-182.987zM294.023 572.221v165.508c0 4.805-2.056 8.917-6.169 12.337s-8.225 5.476-12.337 6.169h-37.012c-4.805 0-8.917-2.056-12.337-6.169s-5.476-8.225-6.169-12.337v-165.508c0-4.805 2.056-9.253 6.169-13.365s8.225-5.833 12.337-5.141h37.012c4.805 0 8.917 1.72 12.337 5.141s5.476 7.889 6.169 13.365zM715.498 76.722h165.508v182.987h-165.508v-182.987zM495.498 296.721h184.015v165.508h-184.015v-165.508zM715.498 296.721h165.508v165.508h-165.508v-165.508zM734.004 572.221v165.508c0 4.805-1.72 8.917-5.141 12.337s-7.889 5.476-13.365 6.169h-35.984c-5.476 0-9.945-2.056-13.365-6.169s-5.141-8.225-5.141-12.337v-165.508c0-4.805 1.72-9.253 5.141-13.365s7.889-5.833 13.365-5.141h35.984c5.476 0 9.945 1.72 13.365 5.141s5.141 7.889 5.141 13.365zM955.032 609.232v-735.032c0-19.87-7.532-37.012-22.618-51.405s-32.207-21.59-51.405-21.59h-808.011c-19.87 0-37.012 7.197-51.405 21.59s-21.59 31.519-21.59 51.405v735.032c0 19.87 7.197 37.012 21.59 51.405s31.519 21.59 51.405 21.59h74.023v55.517c0 25.367 8.917 46.94 26.731 64.77s39.404 26.731 64.77 26.731h37.012c25.367 0 46.94-8.917 64.77-26.731s26.731-39.404 26.731-64.77v-55.517h219.999v55.517c0 25.367 9.253 46.94 27.759 64.77 18.506 17.813 40.096 26.731 64.77 26.731h35.984c25.367 0 46.94-8.917 64.77-26.731 17.813-17.813 27.066-39.404 27.759-64.77v-55.517h72.995c19.87 0 37.012-7.197 51.405-21.59s21.859-31.535 22.551-51.405v0z" />
<glyph unicode="&#xe90f;" glyph-name="time" data-tags="time" d="M514.004 829.233c141.535 0 262.586-50.269 363.154-150.851 100.567-100.567 150.836-221.618 150.836-363.154s-50.269-262.586-150.836-363.154c-100.567-100.567-221.618-150.851-363.154-150.851s-262.586 50.269-363.154 150.851c-100.567 100.567-150.851 221.604-150.851 363.14s50.269 262.586 150.851 363.154c100.567 100.567 221.618 150.865 363.154 150.865v0 0zM514.004-87.071c111.75 0 206.733 39.475 284.95 118.439s117.333 173.574 117.333 283.817c0 111.75-39.115 206.733-117.333 284.95s-173.201 117.333-284.95 117.333c-110.257 0-204.853-39.115-283.817-117.333s-118.439-173.201-118.439-284.95c0-110.257 39.475-204.853 118.439-283.817s173.574-118.439 283.817-118.439v0 0zM554.226 605.748v-272.663l167.603-167.603-55.868-55.868-189.967 189.967v306.166h78.231z" />
<glyph unicode="&#xe910;" glyph-name="location" data-tags="location" horiz-adv-x="727" d="M725.527 469.376c0 198.632-162.52 359.872-362.747 359.872-200.243 0-362.78-160.926-362.78-359.872s362.747-668.137 362.747-668.137 362.78 469.488 362.78 668.137zM181.539 466.468c0 100.28 81.259 181.539 181.539 181.539s181.539-81.259 181.539-181.539c0-100.28-81.259-181.539-181.539-181.539s-181.539 81.259-181.539 181.539v0z" />
<glyph unicode="&#xe911;" glyph-name="meeting" data-tags="meeting" horiz-adv-x="1214" d="M637.561 111.066c27.233 28.766 58.918 50.6 94.665 66.148-64.514 87.635-123.978 155.863-291.772 155.863-469.123 0-440.109-531.804-440.109-531.804h533.933c-0.941 23.814-3.616 196.957 103.282 309.795zM421.245 405.314c117.094 0 211.91 94.714 211.91 211.91 0 117.045-94.765 212.009-211.91 212.009s-212.158-94.964-212.158-212.009c0-117.193 95.014-211.91 212.158-211.91zM908.29 215.635c79.168 0 143.237 63.968 143.237 143.139s-64.068 143.337-143.237 143.337c-79.267 0-143.337-64.218-143.337-143.337s64.068-143.139 143.337-143.139zM922.254 154.636c-311.626 0-292.167-353.364-292.167-353.364h584.584c0 0 19.113 353.364-292.416 353.364z" />
<glyph unicode="&#xe912;" glyph-name="upload2" data-tags="upload" d="M794.87 51.988v0c71.873 76.879 107.019 167.562 105.334 272.026s-39.281 193.488-112.841 267.021c-60.176 60.176-132.049 96.928-215.619 110.313l5.006 127.887c117.004-13.384 217.305-61.834 300.876-145.433 98.614-100.301 148.752-220.65 150.438-361.052 1.661-140.427-45.975-261.593-142.929-363.554l110.313-107.809-346.008-20.051v366.056l145.433-145.407zM378.65 801.674l-2.527-366.083-142.929 145.433c-71.873-76.879-106.965-167.562-105.308-272.026 1.688-104.464 39.281-193.488 112.841-267.021 60.176-60.176 131.205-96.928 213.117-110.313l-2.501-130.388c-120.35 16.702-220.65 65.996-300.876 147.934-98.614 100.301-148.778 220.65-150.438 361.052s45.975 261.593 142.929 363.554l-110.313 107.809 346.008 20.051z" />
<glyph unicode="&#xe913;" glyph-name="att" data-tags="att" d="M514.004 829.233c-283.274 0-514.004-230.731-514.004-514.004s230.731-514.004 514.004-514.004 514.004 230.731 514.004 514.004-230.731 514.004-514.004 514.004zM514.004-83.411c-219.309 0-398.639 178.189-398.639 398.639 0 219.309 178.189 398.639 398.639 398.639 219.309 0 398.639-178.189 398.639-398.639 0-219.309-179.331-398.639-398.639-398.639zM514.004 617.92c-83.382 0-76.531-81.098-76.531-114.223l12.564-257.002c0-33.124 28.556-60.538 63.964-60.538s63.964 27.415 63.964 60.538l12.564 255.86c0 33.124 0 115.366-76.531 115.366zM577.97 76.501c0-35.325-28.638-63.964-63.964-63.964s-63.964 28.638-63.964 63.964c0 35.325 28.638 63.964 63.964 63.964s63.964-28.638 63.964-63.964z" />
<glyph unicode="&#xe914;" glyph-name="like" data-tags="like" horiz-adv-x="1046" d="M16.46 403.154h224.692v-578.359h-224.692v578.359zM1016.136 203.127c-8.379 14.355-9.547 26.782-7.738 38.244 2.403 8.094 4.692 15.834 6.74 23.057 3.402 9.142 11.665 31.878 12.154 61.15 3.205 38.533-29.51 70.244-71.243 70.244h-230.704c-38.533 0-70.244 35.723-70.244 74.255s49.96 121.571 54.209 214.705c6.5 143.462-138.451 128.379-138.451 128.379l0.083-0.034c0 0-22.095-10.060-22.095-26.103v-89.288c0-52.126-27.387-107.253-62.185-156.533-29.51-41.783-67.803-95.063-95.823-123.048-28.909-22.499-60.305-53.16-98.835-53.16v-514.939c0 0 64.199-32.115 160.496-32.115h359.129c4.809 0 138.962-5.172 121.488 108.892-5.248 34.368 87.443 60.389 66.873 122.206-24.214 72.648 62.547 74.696 16.153 154.079z" />
<glyph unicode="&#xe915;" glyph-name="attention" data-tags="attention" d="M0 829.233h1028.010v-1028.010l-514.004 140.382-514.004-140.382z" />
<glyph unicode="&#xe916;" glyph-name="car" data-tags="car" horiz-adv-x="3227" d="M2437.057 56.55c0-141.021 114.307-255.314 255.328-255.328 141.021 0 255.328 114.307 255.328 255.328 0 141.007-114.321 255.314-255.328 255.328-141.021 0-255.328-114.307-255.328-255.328zM2453.498 56.55c0 131.935 106.951 238.887 238.887 238.887s238.887-106.951 238.873-238.887c0-131.921-106.951-238.887-238.873-238.873-131.935-0.014-238.901 106.951-238.887 238.873zM2463.632 56.55c0-126.323 102.416-228.74 228.753-228.753 126.337 0.014 228.74 102.416 228.753 228.74-0.014 126.351-102.402 228.753-228.753 228.753-126.337 0-228.753-102.416-228.753-228.74zM2508.475 144.73l53.761-25.319c8.137-3.825 13.037-13.704 10.916-21.939l-4.872-18.826c-2.121-8.234-11.208-14.487-20.183-13.903l-59.262 3.909c1.579 27.13 8.471 52.827 19.637 76.078zM2575.803 223.852l34.263-48.443c5.192-7.341 4.604-18.34-1.311-24.467l-13.51-14c-5.905-6.127-16.886-7.090-24.411-2.163l-49.643 32.59c14.389 22.179 32.966 41.367 54.612 56.483zM2675.078 259.735l5.456-59.038c0.824-8.947-5.192-18.187-13.371-20.531l-18.701-5.359c-8.179-2.344-18.173 2.302-22.221 10.328l-26.699 53.023c22.999 11.779 48.513 19.303 75.536 21.577zM2629.272 68.748c4.858 4.844 12.713 4.844 17.571 0 4.844-4.858 4.844-12.713 0-17.557-4.858-4.844-12.713-4.844-17.571 0-4.844 4.844-4.844 12.699 0 17.557zM2683.815-2.921c-4.844 4.858-4.844 12.713 0 17.557 4.858 4.844 12.713 4.844 17.557 0 4.844-4.858 4.844-12.713 0-17.557s-12.699-4.844-17.557 0zM2657.715 59.956c0 19.15 15.52 34.67 34.67 34.67s34.67-15.52 34.67-34.67-15.52-34.67-34.67-34.67-34.67 15.533-34.67 34.67zM2701.372 105.274c-4.858-4.844-12.713-4.844-17.557 0-4.844 4.858-4.844 12.713 0 17.557 4.858 4.844 12.713 4.844 17.557 0 4.858-4.844 4.858-12.713 0-17.557zM2780.592 240.447l-25.25-53.621c-3.825-8.137-13.704-13.037-21.939-10.902l-18.826 4.872c-8.234 2.121-14.487 11.208-13.903 20.183l3.909 59.137c27.089-1.621 52.784-8.499 76.009-19.665zM2737.913 68.748c4.858 4.844 12.713 4.844 17.557 0 4.858-4.858 4.858-12.713 0-17.557s-12.713-4.844-17.557 0-4.858 12.699 0 17.557zM2861.682 170.229l-48.92-33.343c-7.424-5.067-18.423-4.284-24.439 1.732l-13.746 13.746c-6.016 6.016-6.799 17.015-1.732 24.439l33.358 48.948c21.869-14.723 40.741-33.623 55.478-55.52zM2895.806 70.41l-58.997-4.409c-8.961-0.671-18.103 5.511-20.308 13.718l-5.039 18.785c-2.205 8.221 2.612 18.131 10.717 22.037l53.343 25.708c11.375-23.156 18.465-48.766 20.28-75.842zM2875.541-33.123l-53.357 25.708c-8.095 3.909-12.926 13.815-10.717 22.037l5.039 18.785c2.205 8.221 11.333 14.389 20.308 13.718l58.997-4.409c-1.815-27.075-8.906-52.7-20.266-75.842zM2807.654-111.644l-33.79 48.653c-5.122 7.382-4.437 18.395 1.519 24.467l13.635 13.875c5.974 6.072 16.959 6.951 24.425 1.954l49.212-32.91c-14.542-22.067-33.258-41.103-55.006-56.038zM2708.128-146.76l-4.941 59.081c-0.755 8.961 5.345 18.145 13.537 20.433l18.743 5.192c8.193 2.274 18.159-2.455 22.123-10.522l26.199-53.176c-23.056-11.583-48.624-18.938-75.661-21.004zM2685.378-159.782c0 3.992 3.237 7.229 7.229 7.229s7.229-3.237 7.229-7.229-3.237-7.229-7.229-7.229c-4.006 0-7.229 3.237-7.229 7.229zM2602.726-126.634l25.764 53.496c3.909 8.095 13.815 12.926 22.037 10.717l18.785-5.039c8.221-2.205 14.389-11.333 13.718-20.294l-4.423-59.123c-27.075 1.788-52.7 8.878-75.884 20.239zM2523.144-57.226l49.087 33.456c7.424 5.067 18.423 4.284 24.439-1.732l13.746-13.746c6.030-6.016 6.799-17.015 1.746-24.439l-33.442-49.059c-21.925 14.723-40.825 33.609-55.576 55.52zM2489.047 40.918l59.192 4.941c8.961 0.755 18.145-5.345 20.419-13.551l5.192-18.729c2.274-8.207-2.455-18.159-10.522-22.123l-53.302-26.255c-11.569 23.071-18.91 48.653-20.975 75.717zM4.159 167.019c13.523-63.88 36.791-112.325 71.641-118.061 10.564-1.801 108.32-9.059 241.356-18.368-0.755 8.221-1.297 16.622-1.297 25.108 0 149.158 120.909 270.066 270.108 270.066 149.115 0 270.066-120.909 270.066-270.066 0-20.85-2.552-41.047-7.035-60.559 162.542-10.244 293.123-17.849 318.803-17.849 75.466 0 1041.659-27.13 1041.659-27.13l242.292-16.372c-18.576 36.68-29.297 77.991-29.297 121.928 0 149.158 120.909 270.066 270.066 270.066s270.108-120.909 270.108-270.066c0-56.916-17.669-109.618-47.72-153.163l39.973-2.667c0 0 164.594 3.784 207.204 27.089 42.597 23.226 65.834 65.834 65.834 137.475s-9.698 172.354-73.582 234.295c-63.88 61.968-180.030 114.237-364.009 141.37-183.938 27.089-346.577 48.374-431.785 94.865-85.207 46.461-257.518 150.999-369.816 201.356-112.325 50.3-300.116 92.898-422.112 92.898-121.956 0-411.868 6.35-547.138-20.711-136.526-27.301-374.506-112.869-486.76-147.748-112.325-34.85-238.147-65.792-333.054-58.076-94.865 7.762-116.148 15.506-112.256-9.67 3.895-25.136 17.418-29.043 15.506-44.507s-17.46-50.356-31.025-71.641c-13.523-21.313 1.982-34.878 0-61.968-1.913-27.089-42.597-50.314-50.314-83.252s-30.983-100.67-17.418-164.635zM2900.747 364.69c27.089 8.582 106.408-10.971 173.289-39.82 59.192-25.542 136.498-95.842 74.559-101.648 0 0-60.057-4.83-127.804 54.223-54.964 47.901-133.888 82.849-120.043 87.244zM1710.517 411.488c20.962-1.913 49.129-0.866 66.042 0.042 2.89 11.907 13.523 20.781 26.296 20.781 14.977 0 27.089-12.115 27.089-27.089s-12.088-27.089-27.089-27.089c-9.517 0-17.849 4.941-22.693 12.338l-15.506-1.69c0 0-56.414-0.977-70.914 6.785-14.459 7.734-15.116 18.868 16.775 15.927zM1649.372 755.721c14.181-1.339 151.251-4.465 219.71-23.156 86.786-23.657 221.775-97.977 317.212-158.858 74.879-47.762 0-64.537 0-64.537s-424.067 8.373-468.575 14.181c-25.75 3.349-28.066 25.18-28.066 25.18s-51.949 177.476-57.141 192.981c-5.178 15.464 2.584 15.464 16.858 14.209zM1060.851 462.529c20.67-3.964 48.809-5.738 65.681-6.461 4.034 11.541 15.506 19.373 28.251 18.103 14.864-1.478 25.75-14.751 24.314-29.645-1.519-14.894-14.751-25.792-29.617-24.314-9.517 0.977-17.321 6.672-21.396 14.542l-15.659-0.181c0 0-56.233 4.576-69.909 13.704-13.69 9.128-13.176 20.266 18.34 14.25zM940.668 656.305c49.601 34.263 163.841 83.868 345.713 106.408 58.73 7.285 211.419 18.687 219.682-16.052l46.489-194.936c0 0 9.017-19.373-16.803-19.373-25.792 0-508.576 14.209-508.576 14.209s-86.532 6.461-107.133 45.192c-20.711 38.717-9.855 43.516 20.628 64.551zM180.338 420.1c21.313 30.372 13.565 58.73-13.523 64.537-27.13 5.78 32.896 24.523 32.896 24.523s207.204 12.268 257.561 14.181c50.314 1.954 40.658-21.285 11.611-40.658-29.071-19.373-249.8-117.991-249.8-117.991-120.742-54.865-60.030 25.037-38.745 55.409zM330.806 58.142c0-141.021 114.307-255.314 255.328-255.328 141.021 0 255.328 114.307 255.328 255.328 0 141.007-114.321 255.314-255.328 255.328-141.021 0-255.328-114.321-255.328-255.328zM347.247 58.142c0 131.935 106.951 238.887 238.887 238.887s238.887-106.951 238.873-238.887c0-131.921-106.951-238.887-238.873-238.873-131.935-0.014-238.887 106.951-238.887 238.873zM357.381 58.142c0-126.323 102.416-228.74 228.753-228.753 126.337 0.014 228.74 102.416 228.753 228.74-0.014 126.351-102.402 228.753-228.753 228.753-126.337 0-228.753-102.416-228.753-228.74zM402.224 146.321l53.761-25.319c8.137-3.825 13.037-13.704 10.916-21.939l-4.872-18.826c-2.121-8.234-11.208-14.487-20.183-13.903l-59.262 3.909c1.593 27.13 8.471 52.827 19.637 76.078zM469.553 225.442l34.263-48.443c5.192-7.341 4.604-18.34-1.311-24.467l-13.51-14c-5.905-6.127-16.886-7.090-24.411-2.163l-49.643 32.59c14.389 22.179 32.98 41.367 54.612 56.483zM568.842 261.312l5.456-59.038c0.824-8.947-5.192-18.187-13.371-20.531l-18.701-5.359c-8.179-2.344-18.173 2.302-22.221 10.328l-26.699 53.023c22.985 11.794 48.513 19.317 75.536 21.577zM523.035 70.34c4.858 4.844 12.713 4.844 17.571 0 4.844-4.858 4.844-12.713 0-17.557-4.858-4.844-12.713-4.844-17.571 0-4.844 4.83-4.844 12.699 0 17.557zM577.578-1.329c-4.844 4.858-4.844 12.713 0 17.557 4.858 4.844 12.713 4.844 17.557 0 4.844-4.858 4.844-12.713 0-17.557-4.858-4.844-12.713-4.844-17.557 0zM551.48 61.547c0 19.15 15.52 34.67 34.67 34.67s34.67-15.52 34.67-34.67-15.52-34.67-34.67-34.67-34.67 15.533-34.67 34.67zM595.136 106.865c-4.858-4.844-12.713-4.844-17.557 0-4.844 4.858-4.844 12.713 0 17.557 4.858 4.844 12.713 4.844 17.557 0 4.858-4.844 4.858-12.713 0-17.557zM674.356 242.038l-25.25-53.621c-3.825-8.137-13.704-13.037-21.939-10.902l-18.826 4.872c-8.234 2.121-14.487 11.208-13.903 20.183l3.909 59.137c27.089-1.621 52.77-8.499 76.009-19.665zM631.676 70.34c4.858 4.844 12.713 4.844 17.557 0 4.858-4.858 4.858-12.713 0-17.557s-12.713-4.844-17.557 0-4.858 12.699 0 17.557zM755.446 171.821l-48.92-33.343c-7.424-5.067-18.423-4.284-24.439 1.732l-13.746 13.746c-6.016 6.016-6.799 17.015-1.732 24.439l33.358 48.948c21.869-14.723 40.741-33.623 55.478-55.52zM789.57 72.001l-58.997-4.409c-8.961-0.671-18.103 5.511-20.308 13.718l-5.039 18.785c-2.205 8.221 2.612 18.131 10.717 22.037l53.343 25.708c11.361-23.156 18.465-48.766 20.28-75.842zM769.305-31.532l-53.357 25.708c-8.095 3.909-12.926 13.815-10.717 22.037l5.039 18.785c2.205 8.221 11.333 14.389 20.308 13.718l58.997-4.409c-1.815-27.075-8.906-52.7-20.266-75.842zM701.418-110.053l-33.79 48.653c-5.122 7.382-4.437 18.395 1.519 24.467l13.621 13.875c5.974 6.072 16.959 6.951 24.425 1.954l49.212-32.91c-14.542-22.067-33.244-41.103-54.992-56.038zM601.878-145.17l-4.941 59.081c-0.755 8.961 5.345 18.159 13.537 20.433l18.743 5.192c8.193 2.274 18.159-2.455 22.123-10.522l26.199-53.176c-23.056-11.583-48.61-18.938-75.661-21.004zM579.128-158.191c0 3.992 3.237 7.229 7.229 7.229s7.229-3.237 7.229-7.229-3.237-7.229-7.229-7.229-7.229 3.237-7.229 7.229zM496.488-125.042l25.764 53.496c3.909 8.095 13.815 12.926 22.037 10.717l18.785-5.039c8.221-2.205 14.389-11.333 13.718-20.294l-4.423-59.123c-27.075 1.788-52.714 8.878-75.884 20.239zM416.907-55.635l49.087 33.456c7.424 5.067 18.423 4.284 24.439-1.732l13.746-13.746c6.030-6.016 6.799-17.015 1.746-24.439l-33.442-49.059c-21.925 14.723-40.825 33.609-55.576 55.52zM382.81 42.496l59.192 4.941c8.961 0.755 18.145-5.345 20.419-13.551l5.192-18.729c2.274-8.207-2.455-18.159-10.522-22.123l-53.302-26.255c-11.569 23.085-18.924 48.667-20.975 75.717z" />
<glyph unicode="&#xe917;" glyph-name="track" data-tags="track" horiz-adv-x="1930" d="M597.96-65.907c0 73.411-59.31 132.758-132.758 132.758-64.535 0-118.099-46.076-129.976-107.33-11.877 61.235-65.507 107.33-130.23 107.33-73.201 0-132.502-59.366-132.502-132.758 0-73.221 59.31-132.672 132.502-132.672 64.732 0 118.354 46.161 130.23 107.225 11.877-61.065 65.441-107.225 129.976-107.225 73.459-0.009 132.758 59.451 132.758 132.672zM204.999-129.526c-34.974 0-63.488 28.448-63.488 63.61s28.542 63.789 63.488 63.789c35.209 0 63.789-28.627 63.789-63.789s-28.589-63.61-63.789-63.61zM465.184-129.526c-34.993 0-63.507 28.448-63.507 63.61s28.514 63.789 63.507 63.789c35.162 0 63.761-28.627 63.761-63.789s-28.599-63.61-63.761-63.61zM1368.634-51.57c0-25.003-20.28-45.283-45.283-45.283h-628.001c-25.022 0-45.302 20.28-45.302 45.283v71.051h718.588v-71.051zM1635.591-2.315c35.096 0 63.704-28.561 63.704-63.808 0-35.143-28.599-63.61-63.704-63.61-35.059 0-63.526 28.477-63.526 63.61 0 35.246 28.467 63.808 63.526 63.808zM1635.591 66.662c-73.287 0-132.587-59.282-132.587-132.758 0-73.201 59.31-132.672 132.587-132.672 73.459 0 132.823 59.451 132.823 132.672 0 73.497-59.366 132.758-132.823 132.758v0zM1929.478 66.87c0 29.42-47.689 237.926-47.689 237.926-5.469 31.238-321.438 82.436-321.438 82.436l-65.76 189.84h43.719l-5.404 14.647c-7.375 20.412-24.186 35.918-45.217 41.549-8.168 2.253-14.732 4.056-14.732 4.291 0 0-11.281 29.777-24.317 58.338-4.915 10.544-12.431 19.402-22.043 25.815-116.724 78.276-345.886 108.621-368.373 107.48h-31.219c-9.868 0-18.29-7.441-19.468-17.327l-6.15-50.301c-7.563-61.902-11.318-65.526-11.318-127.806v-477.936h-400.159l-27.89 40.284c-7.309 10.544-19.336 16.854-32.162 16.854h-278.475c-12.848 0-24.872-6.3-32.162-16.854l-27.89-40.284h-191.321v-150.754h38.701c27.571 64.667 91.727 110.072 166.298 110.072h260.167c47.574 0 90.547-18.825 122.883-48.822h839.517v-132.436h51.801c0 104.781 64.967 178.042 158.101 178.042 93.35 0 158.404-73.259 158.404-178.042v-11.149h18.271v-1.31h20.731v1.31h14.365c44.424 0 80.427 43.142 80.427 80.295-0.009 37.256-0.188 34.429-0.188 63.836zM1201.091 232.508c0-4.736-3.906-8.638-8.619-8.638-4.783 0-8.657 3.924-8.657 8.638v211.638c0 4.765 3.906 8.619 8.657 8.619 4.736 0 8.619-3.859 8.619-8.619v-211.638zM1275.661 426.584c-13.018 1.887-22.9 12.628-23.58 25.815l-6.669 123.779h200.574l61.987-183.512-232.314 33.918zM1880.534 66.87h-31.068c-17.712 0-34.88 5.62-49.339 15.778l-40.368 28.683h95.030c14.281 0 25.749-11.516 25.749-25.646v-18.816z" />
<glyph unicode="&#xe918;" glyph-name="future" data-tags="future" horiz-adv-x="2328" d="M2039.812 65.285c116.594-24.533 238.047-2.255 286.582 30.145-0.806 3.072-1.101 5.964-2.171 9.1-9.384 27.51-57.264 74.499-131.868 127.312l-8.241-4.3c-118.022-61.48-140.394-131.707-144.304-162.256zM34.297 463.259c-26.756-76.308-34.297-159.652-34.297-219.499 0-97.241 35.888-134.971 47.731-210.506h2.871c2.065 0 199.882 1.344 318.276 88.236-66.606 45.262-242.931 175.816-334.577 341.769zM1074.915 212.533c-328.233 138.297-386.566 394.34-443.85 427.156-55.051 31.503-93.584 23.241-178.157-76.575 66.3-21.429 105.429-77.93 134.779-106.836 178.718-175.762 373.707-271.255 536.123-312.874-2.118 50.146-48.897 69.127-48.897 69.127zM2143.746 7.884c-46.778 0-95.027 5.422-140.151 17.098l-17.551 4.574-1.876 15.528c-0.595 5.053-12.15 122.546 162.267 217.625-84.126 54.245-192.964 111.762-316.072 159.301 0.106 1.175 0.169 2.361 0.169 3.547 0 38.632-52.433 72.251-130.004 90.069-201.1 174.026-629.348 313.604-879.015 313.604-334.514 0-501.771-32.826-607.654-89.815-55.705-29.966-84.985-83.352-98.289-143.382-21.355-20.010-38.917-43.823-53.376-69.794l10.264-21.048c99.443-202.255 352.246-361.154 354.82-362.722l25.029-15.591-21.048-19.416c-128.668-118.276-363.992-121.157-379.744-121.189 0-1.070 0.074-2.013 0.074-3.040v-67.028h2241.018c9.532 48.618 30.402 85.981 36.514 125.808-48.355-21.651-114.971-34.128-185.382-34.128zM1450.898 109.287c-141.475-68.978-611.816-15.496-1001.338 404.35-11.703 12.636-31.989 26.651-56.701 40.399 41.078 104.135 149.27 185.403 361.758 185.403 376.248 0 573.556-128.775 727.975-226.078l-78.47-105.84c203.918-173.803 116.551-264.232 46.778-298.234zM2209.909-122.267h-2076.038c-45.569 0-82.654-13.157-82.654-29.396v-17.689c0-16.26 37.042-29.417 82.623-29.417h2076.080c45.633 0 82.623 13.157 82.623 29.417v17.689c-0.011 16.229-36.989 29.396-82.633 29.396z" />
<glyph unicode="&#xe919;" glyph-name="law" data-tags="law" horiz-adv-x="864" d="M362.847 603.276c-0.626 4.101-4.423 6.918-8.524 6.313l-173.971-26.098c-3.488-0.53-6.033-3.375-6.334-6.742l-173.109-315.692c-0.083-0.154-0.134-0.3-0.209-0.467-0.071-0.175-0.154-0.342-0.217-0.521-0.146-0.351-0.23-0.709-0.309-1.081-0.029-0.175-0.083-0.342-0.104-0.521-0.063-0.413-0.071-0.83-0.063-1.235 0.008-0.134-0.008-0.259 0-0.392 0.042-0.542 0.146-1.068 0.3-1.569 0.008-0.029 0-0.063 0.021-0.104 0.342-1.081 8.745-26.845 35.477-52.621 24.437-23.544 69.519-51.603 145.642-51.603s121.205 28.059 145.63 51.603c26.732 25.776 35.131 51.549 35.489 52.621 0.008 0.042 0 0.071 0.021 0.104 0.154 0.505 0.246 1.039 0.288 1.569 0.008 0.125 0 0.238 0 0.363 0.008 0.413 0 0.843-0.063 1.264-0.021 0.175-0.071 0.342-0.104 0.505-0.071 0.363-0.175 0.718-0.3 1.081-0.071 0.188-0.154 0.363-0.23 0.551-0.071 0.154-0.113 0.3-0.196 0.447l-169.454 309.094 164.013 24.592c4.101 0.626 6.918 4.435 6.313 8.537zM20.173 264.949l161.29 294.179 161.29-294.167-322.579-0.013zM863.805 331.987c0 0.104-0.008 0.196 0 0.288 0.008 0.447 0 0.885-0.063 1.318-0.029 0.188-0.071 0.342-0.113 0.521-0.071 0.351-0.167 0.709-0.288 1.060-0.071 0.196-0.154 0.384-0.238 0.584-0.071 0.146-0.113 0.288-0.188 0.426l-173.121 315.708c-0.008 0.134 0 0.267-0.021 0.413-0.626 4.101-4.393 6.905-8.537 6.313l-173.963-26.085c-4.101-0.613-6.926-4.435-6.304-8.537 0.563-3.717 3.759-6.388 7.414-6.388 0.371 0 0.747 0.021 1.122 0.083l159.786 23.966-167.49-305.478c-0.083-0.134-0.125-0.28-0.188-0.426-0.092-0.196-0.175-0.384-0.246-0.584-0.125-0.351-0.217-0.697-0.288-1.060-0.042-0.175-0.083-0.33-0.113-0.505-0.063-0.447-0.071-0.893-0.050-1.339 0-0.092-0.008-0.196-0.008-0.28 0.050-0.551 0.154-1.089 0.309-1.623 0.008-0.021 0.008-0.042 0.008-0.063 0.342-1.089 8.758-26.865 35.489-52.629 24.437-23.544 69.519-51.59 145.63-51.59 76.124 0 121.226 28.050 145.642 51.59 26.74 25.764 35.143 51.54 35.489 52.629 0 0.021 0 0.042 0.008 0.063 0.171 0.538 0.275 1.072 0.325 1.627zM521.057 340.076l161.29 294.167 161.302-294.167h-322.592zM486.361-29.536l-0.004 811.568c0 26.023-21.179 47.197-47.197 47.197l-14.82 0.004c-26.023-0.013-47.193-21.183-47.197-47.197l0.004-580.396 0.004-109.22-0.004-140.481v-2.833c0-5.24 4.247-9.488 9.488-9.488h8.232v-128.907c0-5.24 4.247-9.488 9.488-9.488h58.128c5.24 0 9.488 4.247 9.488 9.488v128.907h4.898c5.24 0 9.488 4.247 9.488 9.488l0.004 21.358zM425.436 822.186l12.625-0.004c22.172 0 40.208-18.041 40.208-40.208v-167.075h-93.042v167.080c0.004 22.167 18.037 40.2 40.204 40.208zM443.396 74.799l-17.574 0.029c-22.176 0.004-15.325-0.067-40.592 0l0.004 119.674-0.004 93.042v22.222h93.042v-234.934c-22.205-0.067-12.709-0.025-34.876-0.029z" />
<glyph unicode="&#xe91a;" glyph-name="sport" data-tags="sport" horiz-adv-x="4730" d="M2416.327 595.544c-28.061 59.889-88.978 98.555-155.109 98.555-25.135 0-49.533-5.464-72.562-16.212-41.406-19.404-72.766-53.77-88.321-96.815-11.176-30.846-13.040-63.453-6.181-94.706l344.505-41.757c1.965 6.385 3.604 12.978 4.583 20.081 5.056 37.231-4.257 82.508-26.915 130.856zM468.155 467.063l26.159 193.775c2.826 20.856-12.057 37.908-33.117 37.908h-422.941c-21.064 0-38.254-17.194-38.254-38.254v-472.371c0-21.064 17.194-38.254 38.254-38.254h127.703c17.929 161.681 142.808 291.615 302.197 317.2zM2827.928 415.319l-0.51-0.265c14.736-27.388 8.453-50.107 7.922-51.806-9.415-31.254-42.287-55.775-74.935-55.775h-184.463c-35.841 0-65.048 29.187-65.048 65.048v9.313l-497.713 60.301c-20.897 2.516-38.010 21.839-38.010 42.903v112.476c0 21.064 12.159 38.254 26.976 38.254 14.838 0 26.976 17.194 26.976 38.254v116.957c0.061 21.064-17.133 38.254-38.193 38.254h-85.475c-21.064 0-53.977-7.001-73.236-15.596l-1037.323-462.445c45.583-50.782 77.084-114.523 88.158-184.912l80.032 37.908c41.551 19.731 110.1 36.558 156.031 38.356l980.932 38.931c56.84 2.067 106.293-41.202 112.208-97.021l33.365-315.767c1.39-13.345 0.163-26.324-3.397-38.419h862.030c21 0 29.863 23.437 12.607 35.474l-129.606 91.045c-17.194 12.057-14.165 23.682 6.797 25.749l265.865 26.467c-9.272 31.971-14.308 65.704-14.308 100.623 0 141.417 81.567 264.023 200.059 323.607h-545.751c-21 0-53.443-8.024-71.987-17.908zM2151.587-182.545c12.465 0 23.539 4.689 31.111 13.182 7.674 8.493 11.176 20.081 9.847 32.485l-33.427 315.767c-2.887 27.078-27.449 49.186-54.793 49.186l-2.006-0.061-980.932-38.931c-38.46-1.533-100.419-16.742-135.236-33.26l-98.515-46.648c-0.163-110.918-50.474-210.313-129.401-276.632l1392.758-15.086zM4691.707 185.437l-846.126 196.866c76.060-66.421 124.202-163.953 124.202-272.62 0-11.013-0.575-21.879-1.492-32.607l447.912 26.874c-1.329-4.073-2.21-8.351-2.21-12.709v-55.306h202.475v80.134l74.259 4.42c21 1.288 38.214 14.471 38.214 29.313s-16.681 30.886-37.231 35.637zM2564.539 372.519c0-6.222 5.301-11.482 11.482-11.482h184.463c8.966 0 20.244 8.147 23.335 16.681 1.187 11.074-12.669 36.455-74.507 57.108-65.602 21.879-101.809 25.135-117.469 25.135-7.368 0-10.662-0.718-10.703-0.718-7.719-2.475-16.538-14.41-16.538-23.784v-62.919h-0.061zM525.672-198.777c170.094 0 308.46 138.367 308.46 308.399s-138.367 308.46-308.46 308.46c-170.033 0-308.399-138.367-308.399-308.46s138.347-308.399 308.399-308.399zM525.672 276.522c92.17 0 166.901-74.772 166.901-166.901 0-92.17-74.711-166.901-166.901-166.901s-166.901 74.711-166.901 166.901c0 92.191 74.711 166.901 166.901 166.901zM3916.299 109.683c0 170.094-138.367 308.46-308.399 308.46s-308.399-138.367-308.399-308.46 138.367-308.399 308.399-308.399c170.012 0 308.399 138.306 308.399 308.399zM3607.879-57.258c-92.17 0-166.901 74.711-166.901 166.901 0 92.129 74.711 166.901 166.901 166.901 92.17 0 166.901-74.772 166.901-166.901s-74.711-166.901-166.901-166.901zM4411.841-17.611c-23.478 0-59.583 4.832-82.282 11.013l-74.609 20.387c-18.177 4.954-49.329 9.109-68.118 9.109h-130.445c-6.222 0-11.482-5.26-11.482-11.482v-188.945c0-6.222 5.26-11.482 11.482-11.482h580.405c6.181 0 11.482 5.26 11.482 11.482v148.459c0 6.222-5.301 11.482-11.482 11.482l-224.928-0.020z" />
<glyph unicode="&#xe91b;" glyph-name="garage" data-tags="garage" horiz-adv-x="1401" d="M701.505 829.233l-701.505-415.011h132.041v-612.998h1138.855v609.723h132.026l-701.416 414.959v3.326zM1073.703-167.954h-744.485v58.963h744.5v-58.963h-0.015zM1073.703-78.175h-744.485v59.008h744.5v-59.008h-0.015zM1073.703 11.641h-744.485v59.008h744.5v-59.008h-0.015zM1073.703 101.448h-744.485v58.993h744.5v-58.993h-0.015zM1073.703 191.227h-744.485v59.008h744.5v-59.008h-0.015zM1073.703 345.254v-64.182h-744.485v64.182h744.485z" />
<glyph unicode="&#xe91c;" glyph-name="technical-work" data-tags="technical-work" horiz-adv-x="752" d="M485.766 415.243c0-18.86-16.197-34.151-36.174-34.151s-36.174 15.291-36.174 34.151c0 18.86 16.197 34.151 36.174 34.151s36.174-15.291 36.174-34.151zM367.855 415.243c0-18.86-16.197-34.151-36.174-34.151s-36.174 15.291-36.174 34.151c0 18.86 16.197 34.151 36.174 34.151s36.174-15.291 36.174-34.151zM661.986 474.275c-3.931 18.545-9.653 36.288-16.904 53.194-8.854-4.007-17.553-6.638-25.567-8.394 8.546-19.461 14.842-40.257 18.469-62.163l2.555-15.53 14.922 4.999c2.175 0.726 4.387 1.106 6.448 1.106 20.149 0 37.816-31.291 37.816-67.006 0-35.68-17.667-67.006-37.816-67.006-6.030 0-11.983 2.825-17.705 8.394l-14.234 13.968-7.516-18.469c-39.801-97.611-133.518-160.651-238.839-160.651-67.884 0-129.971 26.217-176.258 69.489l34.839 20.34c2.825 1.642 5.227 3.703 7.212 5.992 3.053-4.657 6.638-9.235 11.029-13.584 17.975-17.857 43.386-27.666 75.823-29.269 8.892-0.456 18.279-0.266 28.2 0.494 7.478 0.612 13.052 7.136 12.477 14.614-0.612 7.478-7.212 13.052-14.614 12.477-37.74-2.977-65.482 3.969-82.499 20.72-20.226 19.917-18.811 48.233-18.773 48.768 0.494 7.44-5.113 13.93-12.553 14.462-0.114 0-0.228 0.038-0.342 0.038-7.326 0.38-13.66-5.189-14.196-12.553-0.038-0.688-0.574-8.816 1.372-20.111-5.075 0.228-10.455-0.916-15.416-3.817l-42.74-24.879c-26.863 35.794-44.724 78.952-49.914 126.344l-1.41 12.976-12.976-1.068-1.604-0.19c-21.218 0-39.839 33.657-39.839 72.006s18.621 72.006 39.839 72.006c9.12 0 16.484-6.334 21.066-11.637l12.938-15.074 9.12 17.629c10.455 20.187 23.278 38.581 38.044 54.912-5.075 9.197-8.892 18.165-11.713 26.635-15.873-16.18-29.954-34.343-41.823-54.301-8.546 5.688-17.857 8.622-27.628 8.622-37.356 0-66.664-43.386-66.664-98.832 0-50.791 24.613-91.467 57.468-97.917 7.022-46.823 25.263-89.596 51.743-125.773l-51.134-29.802c-12.173-7.098-17.059-21.408-10.915-31.977 6.144-10.531 20.986-13.318 33.197-6.22l58.27 33.961c51.628-51.058 122.529-82.232 200.336-82.232 110.624 0 209.723 63 256.85 161.948 6.832-3.433 14.044-5.189 21.484-5.189 36.25 0 64.642 41.173 64.642 93.757 0.038 52.582-28.316 93.757-64.566 93.796zM698.276 671.292c-18.127 50.868-115.738 115.662-222.202 147.486-23.43 7.022-47.165 10.455-72.504 10.455-31.749 0-64.3-5.341-94.71-11.105l-1.296-0.266-4.733 0.038c-60.406 0-100.207-13.812-115.049-39.991-21.484-37.854 11.029-93.109 11.371-93.642l2.711-4.539-1.106-5.189c-0.304-1.448-3.243-17.287 2.023-39.839 1.909-8.242 4.961-17.401 9.615-27.053 12.781-26.597 37.892-57.202 86.392-84.103 30.832-17.097 66.778-25.795 106.845-25.795 86.43 0 163.666 40.486 164.466 40.907l0.494 0.228c4.463 2.137 9.691 2.517 17.553 3.053 5.341 0.38 11.791 0.84 18.887 1.985 8.204 1.296 17.249 3.547 26.407 7.63 24.001 10.683 48.729 34.037 61.017 86.928l0.574 2.441 1.41 2.061c5.227 7.786 5.84 17.059 1.832 28.316zM718.958 79.251c-40.486 37.318-103.526 34.763-140.883-5.688-8.508-9.235-14.922-19.613-19.309-30.604l-264.215-44.647-0.266 1.030-15.644 60.901c-4.999 19.499-20.378 34.459-40.105 39.037-4.007 0.954-8.128 1.41-12.211 1.41-4.463 0-8.93-0.574-13.28-1.68-11.143-2.825-20.872-9.006-28.008-17.477-3.167 0.574-6.372 0.84-9.577 0.84-4.463 0-8.93-0.574-13.242-1.642-14.044-3.509-25.833-12.287-33.235-24.689-3.395-5.688-5.649-11.831-6.794-18.165-3.433-0.19-6.87-0.688-10.227-1.566-0.84-0.228-1.642-0.456-2.441-0.688l-1.524 5.878c-5.037 19.499-20.416 34.459-40.105 39.037-4.007 0.916-8.128 1.41-12.211 1.41-4.463 0-8.93-0.574-13.28-1.642-14.044-3.509-25.871-12.287-33.235-24.689-7.326-12.325-9.425-26.749-5.878-40.603l16.18-63c0.456-1.794 1.068-3.547 1.718-5.303l-5.265-0.992c-12.173-2.289-18.811-21.294-14.804-42.47l4.809-25.491c3.969-21.142 17.097-36.443 29.269-34.151l60.558 11.447 3.627-13.090c6.794-24.423 31.749-40.831 62.163-40.831v0c7.786 0 15.644 1.106 23.354 3.205l64.794 17.975c36.365 10.075 60.444 41.785 54.796 72.158v0.038l3.969 0.726 267.687 45.18c2.365-2.711 4.885-5.341 7.592-7.824 40.486-37.318 103.526-34.763 140.883 5.688 37.395 40.564 34.839 103.64-5.649 140.96zM47.967 58.378c2.597 0.65 5.189 0.954 7.748 0.954 2.403 0 4.771-0.266 7.098-0.802 11.029-2.555 20.264-10.953 23.278-22.552l10.227-39.839c3.627 8.74 11.257 15.796 21.256 18.317 2.555 0.65 5.151 0.954 7.71 0.954 2.403 0 4.771-0.266 7.098-0.802 6.718-1.566 12.781-5.303 17.173-10.607l-4.425 17.211c-4.235 16.599 5.878 33.505 22.666 37.664 2.597 0.65 5.189 0.954 7.71 0.954 2.403 0 4.771-0.266 7.060-0.802 4.771-1.106 9.235-3.319 12.976-6.41 2.137 11.561 10.839 21.446 23.087 24.537 2.597 0.65 5.189 0.954 7.748 0.954 2.403 0 4.771-0.266 7.098-0.802 11.029-2.555 20.264-10.915 23.278-22.552l15.644-60.978 0.494-1.985c4.273-16.599-5.878-33.467-22.666-37.664-2.555-0.65-5.151-0.954-7.71-0.954-2.403 0-4.771 0.266-7.098 0.802-4.771 1.106-9.235 3.319-12.976 6.41-2.137-11.561-10.839-21.408-23.087-24.499-2.597-0.65-5.151-0.954-7.71-0.954-2.403 0-4.771 0.266-7.098 0.802-6.718 1.566-12.781 5.303-17.211 10.607l4.425-17.173c4.273-16.599-5.878-33.505-22.666-37.702-2.555-0.65-5.189-0.954-7.71-0.954-2.441 0-4.809 0.266-7.098 0.84-11.029 2.555-20.264 10.953-23.278 22.552l-10.227 39.839c-3.627-8.74-11.257-15.796-21.256-18.317-2.597-0.65-5.189-0.954-7.748-0.954-2.403 0-4.771 0.266-7.098 0.802-8.778 2.023-16.332 7.786-20.606 15.873-1.106 2.099-2.023 4.273-2.673 6.68l-16.142 62.961c-4.197 16.523 5.954 33.391 22.704 37.588zM245.44-162.068l-64.794-18.013c-6.296-1.756-12.705-2.597-19.043-2.597v0c-23.087 0-41.861 11.675-46.708 29.076l-1.106 4.007 175.418 33.121c-1.068-19.651-18.773-38.733-43.77-45.599zM704.42-37.669l-65.444-20.416-50.37 46.477 15.036 66.892 65.444 20.416 50.37-46.477-15.036-66.892z" />
<glyph unicode="&#xe91d;" glyph-name="exit" data-tags="exit" horiz-adv-x="1174" d="M0 829.233v-1028.010h734.293v146.858h-587.435v734.293h587.435v146.858h-734.293zM881.151 388.657h-587.435v-146.858h587.435v-146.858l293.717 220.288-293.717 220.288v-146.858z" />
<glyph unicode="&#xe91e;" glyph-name="fire" data-tags="fire" horiz-adv-x="858" d="M13.49 188.358c7.555 30.962 26.426 80.435 56.631 148.406s46.833 123.095 49.851 165.387c29.454-54.367 46.453-109.132 50.973-164.255 111.775 138.961 169.92 300.568 174.453 484.842 7.555-4.534 16.983-10.954 28.321-19.254 11.331-8.311 33.224-25.293 65.698-50.973s60.415-53.612 83.834-83.834c23.405-30.205 46.453-66.454 69.102-108.755s35.495-86.841 38.52-133.669c11.331 27.184 18.492 57.011 21.519 89.479s-0.376 62.679-10.199 90.62c11.331-9.067 26.803-23.782 46.453-44.185 19.631-20.387 40.785-48.718 63.434-84.952s43.805-73.633 63.434-112.152 31.342-83.076 35.112-133.669 0.376-98.551-10.199-143.867-37.766-93.265-81.567-143.867c-43.805-50.591-101.2-95.906-172.191-135.934 48.34 97.416 57.761 202.397 28.321 314.927s-87.593 198.991-174.453 259.406c7.555-32.473 3.394-85.708-12.465-159.717s-40.404-130.651-73.633-169.92c5.292 47.583 6.804 86.085 4.534 115.553-2.263 29.454-6.804 51.725-13.604 66.832l-11.331 19.254c-9.067-52.859-31.718-105.727-67.972-158.585-19.631-28.698-34.358-54.743-44.185-78.17-9.823-23.405-13.227-53.612-10.199-90.62s14.359-76.663 33.981-118.933c-101.953 57.387-170.299 115.553-205.039 174.453-34.684 58.884-43.741 127.605-27.125 206.151v0z" />
<glyph unicode="&#xe91f;" glyph-name="edit" data-tags="edit" d="M187.478 826.87c-13.895-1.537-24.279-13.412-23.987-27.354v-134.604h-134.604c-0.818 0.048-1.684 0.048-2.546 0-14.853-0.675-26.345-13.316-25.671-28.17s13.316-26.345 28.17-25.671h134.604v-134.604c-0.192-14.853 11.68-27.111 26.537-27.307s27.111 11.68 27.307 26.537c0 0.24 0 0.531 0 0.77v134.604h134.604c14.853-0.192 27.111 11.68 27.307 26.537s-11.68 27.111-26.537 27.307c-0.24 0-0.531 0-0.77 0h-134.604v134.604c0.335 14.853-11.489 27.16-26.345 27.498-1.106 0-2.306-0.048-3.46-0.144zM796.129 799.515l-680.57-680.618 228.827-228.827 680.618 680.57-228.876 228.876zM89.024 68.854l-60.141-265.411 265.411 60.141-205.271 205.271z" />
<glyph unicode="&#xe920;" glyph-name="garbage" data-tags="garbage" horiz-adv-x="882" d="M138.903-125.81c4.488-40.28 40.995-72.967 81.527-72.967h440.575c40.577 0 77.079 32.645 81.527 72.967l65.332 587.896h-734.293l65.332-587.896zM220.431 682.375l55.052 146.858h330.432l55.052-146.858h146.858c73.473 0 73.473-146.858 73.473-146.858h-881.151c0 0 0 146.858 73.43 146.858h146.858zM293.859 682.375h293.717l-36.715 73.43h-220.288l-36.715-73.43z" />
<glyph unicode="&#xe921;" glyph-name="notify" data-tags="notify" horiz-adv-x="898" d="M446.633-173.925c72.038 0 130.523 43.657 130.523 93.592h-261.102c0-49.964 58.382-93.592 130.575-93.592zM760.286 236.493c-18.79 82.359-1.354 127.578-23.457 207.671-29.163 107.12-87.336 190.287-212.206 221.823v78.137c0 35.759-12.432 61.874-48.217 61.874h-52.543c-35.629 0-49.051-26.142-49.051-61.874v-78.45c-124.869-32.266-183.796-135.475-213.144-242.596-21.97-80.17-0.442-92.969-19.105-175.275-23.013-100.682-252.395-265.505-12.119-265.505 89.291 0 243.691 0 243.691 0s303.531 0 392.772 0c240.433 0.052 16.368 153.539-6.619 254.22z" />
<glyph unicode="&#xe922;" glyph-name="filter" data-tags="filter" horiz-adv-x="1022" d="M817.842 477.045c0-12.49-10.22-22.711-22.711-22.711h-567.781c-12.49 0-22.711 10.22-22.711 22.711v22.711c0 12.49 10.22 22.711 22.711 22.711h567.781c12.49 0 22.711-10.22 22.711-22.711v-22.711zM749.708 295.355c0-12.49-10.22-22.711-22.711-22.711h-431.513c-12.49 0-22.711 10.22-22.711 22.711v22.711c0 12.49 10.22 22.711 22.711 22.711h431.513c12.49 0 22.711-10.22 22.711-22.711v-22.711zM681.574 113.664c0-12.49-10.22-22.711-22.711-22.711h-295.246c-12.49 0-22.711 10.22-22.711 22.711v22.711c0 12.49 10.22 22.711 22.711 22.711h295.246c12.49 0 22.711-10.22 22.711-22.711v-22.711zM511.24 760.935c244.202 0 442.869-198.666 442.869-442.869s-198.666-442.869-442.869-442.869-442.869 198.666-442.869 442.869 198.666 442.869 442.869 442.869zM511.24 829.071c-282.222 0-511.004-228.782-511.004-511.004s228.782-511.004 511.004-511.004 511.004 228.782 511.004 511.004-228.782 511.004-511.004 511.004v0z" />
<glyph unicode="&#xe923;" glyph-name="pv" data-tags="pv" horiz-adv-x="823" d="M809.426 327.973l-770.425-444.559c-17.267-8.622-36.683 2.15-36.683 21.587v889.118c0 19.418 19.418 30.21 36.683 21.587l770.425-444.559c15.116-10.796 15.116-32.364 0-43.155z" />
<glyph unicode="&#xe924;" glyph-name="mc" data-tags="mc" horiz-adv-x="823" d="M534.688 16.497l82.222 82.222v123.332h123.332l82.222 82.222h-287.777zM0.242 16.497h427.557l86.332 82.222h-431.667v657.777h657.777v-431.667l82.222 78.111v435.777h-822.222zM452.466 304.275v82.222h82.222v82.222h-82.222v82.222h-82.222v-82.222h-82.222v-82.222h82.222v-82.222z" />
<glyph unicode="&#xe925;" glyph-name="cards" data-tags="cards" horiz-adv-x="1275" d="M231.425 96.235l39.892-146.745 146.728 39.892-39.875 146.745-146.745-39.892zM1272.347 186.956l-160.96 592.212c-13.094 48.162-62.936 76.71-111.098 63.616l-933.493-253.718c-48.162-13.094-76.71-62.919-63.616-111.098l160.96-592.212c13.094-48.162 62.936-76.71 111.098-63.616l933.493 253.718c48.179 13.094 76.71 62.936 63.616 111.098zM51.87 491.196c-5.809 21.364 6.811 43.389 28.173 49.198l933.493 253.718c21.364 5.809 43.389-6.811 49.198-28.173l20.362-74.926-1010.863-274.742-20.362 74.926zM262.027-129.189c-21.364-5.809-43.389 6.811-49.198 28.173l-104.034 382.784 1010.863 274.742 104.034-382.784c5.809-21.364-6.811-43.389-28.173-49.198l-933.493-253.718z" />
<glyph unicode="&#xe926;" glyph-name="note" data-tags="note" horiz-adv-x="822" d="M410.802 139.77c-27.655 0-53.51-0.634-77.757-1.718 7.009-20.671 21.993-37.589 41.309-47.185 10.994-5.463 23.334-8.609 36.448-8.609s25.454 3.147 36.448 8.609c19.325 9.595 34.31 26.522 41.309 47.185-24.247 1.084-50.102 1.718-77.757 1.718zM808.845 146.146h0.016c-170.212 222.286-42.041 563.925-324.238 612.235-1.281 39.652-33.858 71.538-73.821 71.538s-72.54-31.886-73.821-71.538c-282.197-48.31-154.025-389.95-324.238-612.235h0.016c-8.167-9.186-12.758-19.48-12.758-31.023 0-103.809 368.752-106.808 410.802-106.808s410.802 2.999 410.802 106.808c0 11.543-4.591 21.837-12.758 31.023zM410.802 797.054c20.401 0 37.242-14.995 40.413-34.517-12.766 1.052-26.16 1.653-40.413 1.653s-27.647-0.601-40.413-1.653c3.171 19.521 20.016 34.517 40.413 34.517zM410.802 57.61c-212.82 0-341.82 35.757-360.381 57.512 18.56 21.755 147.569 57.512 360.381 57.512s341.82-35.757 360.381-57.512c-18.56-21.755-147.56-57.512-360.381-57.512z" />
<glyph unicode="&#xe927;" glyph-name="password" data-tags="password" horiz-adv-x="822" d="M753.165 400.789h-51.338v145.458c0 165.121-134.351 299.471-299.471 299.471s-299.471-134.351-299.471-299.471v-145.458h-34.224c-37.802 0-68.451-30.649-68.451-68.451v-444.93c0-37.802 30.649-68.451 68.451-68.451h684.506c37.802 0 68.451 30.649 68.451 68.451v444.93c0 37.802-30.649 68.451-68.451 68.451zM462.249 41.422c0-28.356-22.981-51.338-51.338-51.338s-51.338 22.981-51.338 51.338v136.902c0 28.356 22.981 51.338 51.338 51.338s51.338-22.981 51.338-51.338v-136.902zM205.559 400.789v145.458c0 108.511 88.285 196.796 196.796 196.796s196.796-88.285 196.796-196.796v-145.458h-393.591z" />
<glyph unicode="&#xe928;" glyph-name="usr" data-tags="usr" horiz-adv-x="822" d="M26.588-15.266c0 0.012 0 0.023 0 0.038 0 150.406 86.469 280.613 212.407 343.625l2.219 1.006c38.11-51.877 98.884-85.169 167.433-85.169 69.217 0 130.503 33.944 168.122 86.093l0.417 0.612c129.809-63.478 217.627-194.563 217.627-346.159 0-0.017 0-0.031 0-0.049v0.002h-768.23zM408.626 323.119c-98.593 0.015-178.511 79.943-178.511 178.538 0 98.603 79.933 178.538 178.538 178.538s178.538-79.933 178.538-178.538c0-0.003 0-0.006 0-0.009v0c-0.009-98.601-79.944-178.529-178.543-178.529-0.006 0-0.013 0-0.018 0h0.001z" />
<glyph unicode="&#xe929;" glyph-name="setting" data-tags="setting" horiz-adv-x="822" d="M353.532 743.167l-28.586-99.758c-25.935-7.147-50.627-17.319-73.506-30.338l-90.426 50.173-81.089-81.089 50.173-90.428c-13.016-22.872-23.19-47.569-30.338-73.506l-99.76-28.584v-114.347l99.76-28.586c7.145-25.938 17.321-50.624 30.338-73.506l-50.173-90.426 81.089-81.089 90.426 50.173c22.876-13.017 47.568-23.191 73.506-30.338l28.586-99.758h114.347l28.586 99.758c25.935 7.145 50.627 17.319 73.506 30.338l90.426-50.173 81.089 81.089-50.173 90.426c13.016 22.879 23.19 47.567 30.338 73.506l99.76 28.586v114.347l-99.76 28.584c-7.147 25.934-17.321 50.631-30.338 73.506l50.173 90.428-81.089 81.089-90.426-50.173c-22.876 13.017-47.568 23.189-73.506 30.338l-28.586 99.758h-114.347zM410.701 519.148c102.442 0 186.686-84.243 186.686-186.686s-84.243-186.686-186.686-186.686c-102.442 0-186.686 84.243-186.686 186.686s84.243 186.686 186.686 186.686zM410.701 407.132c-41.906 0-74.671-32.772-74.671-74.671s32.771-74.671 74.671-74.671c41.906 0 74.671 32.772 74.671 74.671s-32.771 74.671-74.671 74.671z" />
<glyph unicode="&#xe92a;" glyph-name="dpdf" data-tags="dpdf" horiz-adv-x="822" d="M704.249 580.546c-11.559 4.656-23.499 8.061-35.683 10.312v223.706c0 17.31-14.098 31.4-31.408 31.4h-552.259c-17.318 0-31.408-14.090-31.408-31.4v-396.739c0-4.602 1.046-8.939 2.834-12.868h-47.519c-2.733 0-5.345-1.222-7.1-3.312-1.763-2.1-2.511-4.866-2.032-7.562l11.071-62.798c0.777-4.426 4.639-7.654 9.132-7.654h445.626c30.641-62.344 94.601-105.445 168.615-105.445 103.649 0 187.965 84.299 187.965 187.948-0.008 77.156-46.264 145.63-117.831 174.415zM72.049 814.566c0 7.091 5.777 12.842 12.852 12.842h552.242c7.1 0 12.86-5.76 12.86-12.842v-221.253c-5.253 0.437-10.564 0.751-15.894 0.751-94.693 0-174.871-70.775-186.515-164.601-0.945-7.672-1.433-15.522-1.433-23.364 0-0.379 0.068-0.743 0.068-1.138h-361.327c-7.083 0-12.852 5.785-12.852 12.868v396.739zM27.666 342.153l-7.801 44.249h427.355c1.612-15.396 5.269-30.167 10.388-44.249h-429.942zM634.107 236.707c-93.405 0-169.407 75.985-169.407 169.389 0 7.066 0.445 14.157 1.289 21.064 10.48 84.578 82.74 148.346 168.109 148.346 21.879 0 43.144-4.081 63.187-12.175 64.518-25.935 106.222-87.655 106.222-157.231 0.016-93.396-75.985-169.389-169.397-169.389zM697.512 398.375l-54.122-54.132v146.119c0 5.118-4.148 9.274-9.283 9.274s-9.283-4.14-9.283-9.274v-146.086l-54.106 54.114c-3.644 3.636-9.485 3.636-13.12 0-3.636-3.644-3.636-9.485 0-13.129l69.888-69.888c0.877-0.886 1.906-1.595 3.086-2.074 0.97-0.403 1.973-0.541 3.011-0.608 0.177 0 0.303-0.101 0.496-0.101h0.034c1.214 0 2.402 0.244 3.548 0.726 0.81 0.327 1.465 0.877 2.124 1.415 0.286 0.21 0.617 0.311 0.877 0.575l69.94 69.94c3.627 3.644 3.627 9.485 0 13.129-3.61 3.618-9.451 3.618-13.095 0zM418.991 373.561h-115.934c-5.109 0-9.274-4.148-9.274-9.283s4.157-9.283 9.274-9.283h115.934c5.127 0 9.292 4.14 9.292 9.283-0.026 5.135-4.165 9.283-9.292 9.283zM361.017 783.875c7.612 0 13.818 6.181 13.818 13.801s-6.197 13.818-13.818 13.818c-7.604 0-13.809-6.189-13.809-13.818 0-7.604 6.197-13.801 13.809-13.801z" />
<glyph unicode="&#xe92b;" glyph-name="quick" data-tags="quick" horiz-adv-x="1368" d="M984.282 621.229c-30.362 0-54.959-24.597-54.959-54.959v-183.746c0-17.285 8.11-33.537 21.946-43.927 9.614-7.231 21.253-11.033 33.011-11.033 5.103 0 10.222 0.71 15.241 2.144l144.416 41.68c29.142 8.428 45.988 38.891 37.558 68.052-8.413 29.177-38.891 45.804-68.052 37.558l-74.236-21.44v110.714c0.019 30.362-24.579 54.959-54.924 54.959zM776.139 749.928h-721.204c-30.362 0-54.959-24.597-54.959-54.959s24.597-54.959 54.959-54.959h721.204c30.362 0 54.959 24.597 54.959 54.959s-24.597 54.959-54.959 54.959zM776.139 529.382h-583.004c-30.362 0-54.959-24.597-54.959-54.959s24.597-54.959 54.959-54.959h583.007c30.362 0 54.959 24.597 54.959 54.959s-24.601 54.959-54.963 54.959zM776.139 308.784h-375.705c-30.362 0-54.959-24.597-54.959-54.959s24.597-54.959 54.959-54.959h375.709c30.362 0 54.959 24.597 54.959 54.959s-24.601 54.959-54.963 54.959zM1369.028 456.099c0 212.149-172.58 384.746-384.746 384.746-30.362 0-54.959-24.597-54.959-54.959s24.597-54.959 54.959-54.959c151.12 0 274.136-122.606 274.83-273.567-0.004 0-0.006 0-0.006 0 0.004-0.53 0.017-1.054 0.019-1.585-0.004-0.53-0.017-1.054-0.019-1.585 0.004 0 0.006 0 0.006 0-0.695-150.956-123.711-273.567-274.83-273.567-30.362 0-54.959-24.597-54.959-54.959s24.597-54.959 54.959-54.959c212.166 0 384.746 172.597 384.746 384.746 0 0.107-0.004 0.215-0.004 0.318 0 0.107 0.004 0.211 0.004 0.318z" />
<glyph unicode="&#xe92c;" glyph-name="microphone" data-tags="microphone" horiz-adv-x="822" d="M319.598 845.964h182.578c58.819 0 106.505-47.684 106.505-106.505v-456.447c0-58.819-47.684-106.505-106.505-106.505h-182.578c-58.819 0-106.505 47.684-106.505 106.505v456.447c0 58.819 47.684 106.505 106.505 106.505zM669.541 191.723c0-42.016-34.058-76.074-76.074-76.074v0h-365.158c-42.016 0-76.074 34.058-76.074 76.074v0 214.225h-91.289v-214.225c0-92.431 74.932-167.363 167.363-167.363v0h136.934v-114.111h-106.505v-91.289h304.298v91.289h-106.505v114.111h136.934c92.431 0 167.363 74.932 167.363 167.363v0 214.225h-91.289z" />
<glyph unicode="&#xe92d;" glyph-name="phone" data-tags="phone" horiz-adv-x="821" d="M618.682 851.982h-352.398c-39.051 0-70.725-31.673-70.725-70.725v-884.554c0-39.051 31.673-70.725 70.725-70.725h352.398c39.051 0 70.725 31.673 70.725 70.725v884.554c0 39.051-31.673 70.725-70.725 70.725zM468.392-143.079h-51.818c-13.839 0-25.047 11.211-25.047 25.047s11.211 25.047 25.047 25.047h51.818c13.839 0 25.047-11.211 25.047-25.047s-11.211-25.047-25.047-25.047zM677.49-64.986h-470.025v820.701h470.025v-820.701z" />
<glyph unicode="&#xe92e;" glyph-name="gift" data-tags="gift" horiz-adv-x="880" d="M532.95 220.189v-380.189h223.902c36.059 0 65.645 29.459 65.645 65.277v315.295c-2.549-0.269-5.127-0.382-7.804-0.382h-281.743zM814.679 519.834h-281.729v-276.63h281.743c36.158 0 65.787 29.402 65.787 65.404v145.807c-0.014 35.974-29.643 65.419-65.801 65.419zM789.937 622.954c55.15 48.678 4.56 159.064-110.697 214.809-81.621 39.5-157.874-117.156-195.519-211.976-4.291 2.252-8.852 3.725-13.965 4.277l-43.041 4.405c-51.638 103.786-148.725 265.257-235.189 222.471-125.356-62.232-172.802-183.41-106.236-236.266 55.122-43.608 160.268-80.134 292.733-75.715 2.974-16.457 16.429-29.827 33.906-31.569l45.194-4.674c21.103-2.139 40.194 13.256 42.361 34.232l1.062 10.452c134.873-11.642 239.226 25.139 289.391 69.554zM382.186 600.492l-0.368-3.753c-73.987 49.754-136.785 109.692-170.281 151.147-37.093 45.888-22.179 77.443 36.045 56.439 42.899-15.353 108.403-128.939 140.142-187.942-2.861-4.66-4.858-10.013-5.538-15.891zM502.019 604.5c18.001 35.308 91.025 172.575 138.91 183.268 54.881 12.322 70.616-19.686 36.739-58.45-32.844-37.872-97.781-91.776-174.176-130.157-0.397 1.87-0.793 3.597-1.473 5.339zM0 454.416v-145.793c0-36.002 29.572-65.404 65.758-65.404h281.87v276.616h-281.884c-36.172 0-65.744-29.445-65.744-65.419zM57.955 220.572v-315.295c0-35.832 29.586-65.277 65.617-65.277h224.043v380.189h-281.87c-2.691 0-5.24 0.127-7.79 0.382z" />
<glyph unicode="&#xe92f;" glyph-name="print" data-tags="print" horiz-adv-x="819" d="M587.173 574.252h-432.638v104.742c0 13.46-10.912 24.372-24.381 24.372s-24.372-10.912-24.372-24.372v-129.123c0-13.46 10.912-24.372 24.372-24.372h457.019c13.469 0 24.372 10.912 24.372 24.372 0 13.469-10.902 24.381-24.372 24.381zM314.718 235.084h-184.564c-13.46 0-24.372-10.912-24.372-24.372v-184.554c0-13.46 10.912-24.372 24.372-24.372h184.554c13.46 0 24.372 10.912 24.372 24.372v184.545c0.009 13.46-10.902 24.381-24.362 24.381zM290.337 50.53h-135.802v135.792h135.802v-135.792zM130.154 447.884h289.875c13.46 0 24.381 10.912 24.381 24.372s-10.921 24.381-24.381 24.381h-289.875c-13.46 0-24.372-10.912-24.372-24.372s10.912-24.381 24.372-24.381zM587.173 318.126h-457.019c-13.46 0-24.372-10.912-24.372-24.372 0-13.469 10.912-24.381 24.372-24.381h457.019c13.469 0 24.372 10.912 24.372 24.381 0 13.46-10.902 24.372-24.372 24.372zM587.173 405.364h-457.019c-13.46 0-24.372-10.912-24.372-24.372s10.912-24.372 24.372-24.372h457.019c13.469 0 24.372 10.912 24.372 24.372s-10.902 24.372-24.372 24.372zM587.173 230.358h-197.474c-13.46 0-24.381-10.902-24.381-24.372 0-13.46 10.912-24.372 24.381-24.372h197.474c13.469 0 24.372 10.912 24.372 24.372s-10.902 24.372-24.372 24.372zM587.173 142.589h-197.474c-13.46 0-24.381-10.912-24.381-24.372 0-13.469 10.912-24.372 24.381-24.372h197.474c13.469 0 24.372 10.902 24.372 24.372 0 13.46-10.902 24.372-24.372 24.372zM587.173 54.83h-197.474c-13.46 0-24.381-10.902-24.381-24.372 0-13.46 10.912-24.372 24.381-24.372h197.474c13.469 0 24.372 10.912 24.372 24.372 0 13.469-10.902 24.372-24.372 24.372zM587.173 493.635h-88.148c-13.469 0-24.372-10.912-24.372-24.372s10.902-24.372 24.372-24.372h88.148c13.469 0 24.372 10.912 24.372 24.372s-10.902 24.372-24.372 24.372zM794.631 411.341h-77.302v231.119c0 6.498-2.585 12.721-7.199 17.297l-128.972 128.12c-4.566 4.537-10.742 7.086-17.173 7.086h-539.616c-13.46 0-24.372-10.912-24.372-24.372v-837.182c0-13.46 10.912-24.372 24.372-24.372h719.434c41.459 0 75.199 33.74 75.199 75.199v402.734c0 13.469-10.912 24.372-24.372 24.372zM642.348 658.373h-62.45v62.043l62.45-62.043zM48.751 746.207h482.404v-112.216c0-13.46 10.902-24.372 24.372-24.372h113.059v-625.395c0-9.311 1.781-18.205 4.897-26.455h-624.732v788.438zM770.259-15.775c0-14.587-11.869-26.455-26.455-26.455-14.606 0-26.475 11.869-26.475 26.455v378.362h52.93v-378.362z" />
<glyph unicode="&#xe930;" glyph-name="corp" data-tags="corp" horiz-adv-x="819" d="M390.725 664.548c3.045 2.029 6.089 2.029 6.089 2.029 20.297-38.566 71.041-59.878 71.041-59.878 75.101-30.446 126.859-16.238 126.859-16.238 18.268-1.015 21.312-21.312 21.312-21.312l-12.178-61.907c13.194 42.624 27.401 35.521 27.401 35.521 25.372-35.521-16.238-71.041-16.238-71.041-40.595-101.487-127.874-127.874-127.874-127.874h-9.134c-16.238 4.060-32.475 11.163-45.669 21.312-2.029-7.104-5.074-14.208-8.119-21.312l20.297-13.194c35.521-19.283 59.878-6.089 59.878-6.089 19.283 8.119 47.699 26.386 47.699 26.386 53.789-57.847 154.26-16.238 154.26-16.238-43.64 19.283-59.878 51.758-65.967 80.175 26.386-20.297 64.952-5.074 64.952-5.074-28.417-10.149-60.892 42.624-65.967 51.758 0 1.015 1.015 1.015 1.015 2.029 27.401 31.461 23.343 60.892 23.343 60.892-1.015 32.475-21.312 28.417-21.312 28.417 16.238 113.665-17.252 154.26-17.252 154.26-93.368 106.562-225.302 45.669-225.302 45.669-35.521-15.223-55.818-39.58-66.981-65.967 17.252 0 33.491-3.045 46.684-10.149-1.015-1.015 5.074-5.074 11.163-12.178zM503.376 297.164h-44.655l-22.327-22.327 20.297-22.327c16.238-6.089 29.432-13.194 42.624-20.297l-4.060 10.149 29.432 34.506-21.312 20.297zM819.002 52.578c-1.015-1.015 1.015 135.993-26.386 162.38 0 0-18.268 23.343-59.878 40.595 0 0-133.963 42.624-138.023 43.64 0 0 2.029-58.863-33.491-119.756 23.343-30.446 27.401-55.818 27.401-55.818v-105.547c67.996 5.074 144.112 16.238 230.376 34.506zM111.635 417.933c0 1.015 0-8.119 5.074-17.252 4.060-9.134 14.208-18.268 29.432-22.327 1.015-6.089 5.074-20.297 12.178-38.566 9.134-23.343 25.372-50.744 51.758-71.041 2.029-2.029 27.401-26.386 72.056-26.386 19.283 0 40.595 4.060 65.967 16.238 0 0 16.238 8.119 34.506 27.401 17.252 19.283 36.535 48.714 44.655 91.339 4.060 0 10.149 2.029 17.252 6.089 9.134 6.089 18.268 16.238 21.312 35.521 0 0 0 10.149-4.060 21.312-2.029 5.074-5.074 11.163-10.149 15.223-4.060 3.045-9.134 6.089-15.223 7.104h1.015l8.119 53.789c6.089 83.219-51.758 104.533-51.758 104.533-1.015 27.401-25.372 44.655-25.372 44.655-46.684 27.401-144.112-9.134-144.112-9.134-75.101-18.268-92.353-70.027-92.353-70.027-23.343-53.789 0-120.77 2.029-126.859-2.029-1.015-5.074-3.045-8.119-6.089-7.104-7.104-14.208-18.268-14.208-35.521zM139.036 453.454c1.015 0 2.029 1.015 2.029 1.015h1.015l9.134 3.045c1.015 53.789 21.312 80.175 21.312 80.175 27.401-1.015 69.012 5.074 69.012 5.074 32.475 1.015 95.398 33.491 95.398 33.491 23.343 16.238 38.566-4.060 38.566-4.060 32.475-28.417 39.58-118.74 39.58-118.74l11.163 1.015c1.015 0 2.029 0 3.045 0 6.089 0 10.149-2.029 14.208-5.074 5.074-4.060 8.119-12.178 10.149-18.268 1.015-3.045 1.015-6.089 1.015-8.119 0-1.015 0-2.029 0-2.029-3.045-16.238-10.149-24.357-17.252-28.417s-13.194-5.074-15.223-5.074h-5.074l-1.015-4.060c-7.104-42.624-25.372-72.056-42.624-90.324-8.119-9.134-16.238-15.223-22.327-19.283-3.045-2.029-5.074-4.060-7.104-4.060l-2.029-1.015c-23.343-11.163-44.655-15.223-61.907-15.223-21.312 0-37.55 6.089-48.714 12.178-5.074 3.045-10.149 6.089-12.178 8.119-1.015 1.015-1.015 1.015-2.029 2.029-25.372 19.283-40.595 45.669-49.729 67.996-4.060 11.163-7.104 21.312-9.134 28.417-1.015 3.045-1.015 6.089-2.029 8.119 0 1.015 0 2.029 0 2.029v1.015l-1.015 3.045-4.060 1.015c-15.223 3.045-22.327 11.163-26.386 18.268-3.045 7.104-3.045 14.208-3.045 14.208 0 15.223 5.074 23.343 10.149 28.417 3.045 2.029 5.074 4.060 7.104 5.074zM446.543 242.361l-120.77-194.855-5.074 1.015-15.223 85.25h-2.029c10.149 6.089 17.252 17.252 17.252 29.432 0 19.283-15.223 34.506-33.491 34.506s-33.491-15.223-33.491-34.506c0-13.194 7.104-23.343 17.252-29.432h-1.015l-13.194-85.25h-6.089l-121.785 193.841c0 0-101.487-32.475-128.889-129.904v-109.607c0 0 238.495-155.276 577.464 0v108.591c0 0-13.194 84.235-130.919 130.919z" />
<glyph unicode="&#xe931;" glyph-name="check" data-tags="check" horiz-adv-x="1372" d="M1220.639 864.001l-75.581-76.246c-208.338-208.792-430.622-445.776-638.744-657.472l-370.542 304.992-135.773-165.206 82.268-68.224 439.431-361.841 68.224 68.893c230.49 230.985 480.189 501.101 706.298 727.7l75.581 76.246-151.161 151.157z" />
<glyph unicode="&#xe932;" glyph-name="raiting" data-tags="raiting" horiz-adv-x="819" d="M409.501 864l136.489-244.997 273.013-55.321-188.657-206.739 32.24-279.187-253.086 117.226-253.088-117.226 32.242 279.187-188.657 206.739 273.013 55.321z" />
<glyph unicode="&#xe933;" glyph-name="ar" data-tags="ar" horiz-adv-x="629" d="M512.745 864c-292.38 0-512.745-139.523-512.745-525.144v-498.842h179.646v367.252h268.691v-367.265h180.201c0 0 0.108 691.903 0.162 1024h-115.956zM448.337 344.568c0 0-208.019 0-268.677 0 0 211.945 77.714 344.293 268.677 344.293v-344.293zM512.745 864c-292.38 0-512.745-139.523-512.745-525.144v-498.842h179.646v367.252h268.691v-367.265h180.201c0 0 0.108 691.903 0.162 1024h-115.956zM448.337 344.568c0 0-208.019 0-268.677 0 0 211.945 77.714 344.293 268.677 344.293v-344.293z" />
<glyph unicode="&#xe934;" glyph-name="mail" data-tags="mail" horiz-adv-x="1552" d="M9.209 816.475c-6.258-12.619-9.411-26.552-9.196-40.634v-847.683c-0.211-12.541 2.246-24.981 7.21-36.502l425.319 549.593-423.333 375.226zM877.515 227.66c-58.509-51.601-146.303-51.501-204.692 0.241l-192.115 170.42-427.354-551.865c11.059-4.473 22.908-6.661 34.834-6.44h1375.85c12.775-0.211 25.446 2.344 37.139 7.496l-434.535 547.327-189.128-167.179zM834.45 276.014l660.064 583.24c-9.804 3.342-20.118 4.941-30.475 4.726h-1375.85c-10.376 0.189-20.707-1.443-30.521-4.824l658.279-582.931c33.791-29.962 84.609-30.049 118.504-0.211zM1115.422 437.943l430.653-543.819c4.262 10.831 6.349 22.397 6.137 34.035v847.68c0.215 14.098-2.945 28.044-9.216 40.673l-427.575-378.568z" />
<glyph unicode="&#xe935;" glyph-name="link" data-tags="link" horiz-adv-x="797" d="M720.737 715.744l-0.002 0.009c-35.504 28.583-81.146 45.879-130.828 45.879-64.118 0-121.508-28.808-159.933-74.187l-0.253-0.306-61.253-73.312c-7.561-9.002-12.155-20.717-12.155-33.505 0-28.86 23.396-52.256 52.256-52.256 16.072 0 30.45 7.256 40.036 18.671l0.066 0.080 61.256 73.321c19.244 22.851 47.87 37.27 79.864 37.27 26.571 0 50.819-9.945 69.225-26.315l-0.106 0.092c20.928-19.488 33.977-47.199 33.977-77.957 0-26.328-9.56-50.422-25.399-69.002l0.124 0.149-128.526-153.771c-6.765-7.816-14.551-14.499-23.209-19.918l-0.428-0.25c-15.586-9.812-34.543-15.634-54.859-15.634-30.040 0-57.107 12.728-76.102 33.086l-0.056 0.061c-9.562 10.207-23.124 16.566-38.171 16.566-28.862 0-52.26-23.397-52.26-52.26 0-13.742 5.304-26.245 13.976-35.574l-0.030 0.032c38.21-40.919 92.479-66.425 152.704-66.425 12.523 0 24.789 1.103 36.706 3.217l-1.259-0.185c12.171 2.162 22.754 4.952 32.985 8.497l-1.5-0.452c37.386 12.853 68.84 34.862 92.756 63.403l0.264 0.323 127.036 152.048c30.745 36.887 49.409 84.781 49.409 137.034 0 7.281-0.362 14.477-1.070 21.571l0.072-0.896c-5.356 57.131-33.413 106.823-74.937 140.598l-0.376 0.297zM344.685 151.154l-54.742-65.523c-19.664-23.772-49.167-38.805-82.181-38.805-24.074 0-46.281 7.994-64.112 21.471l0.268-0.194c-24.304 19.249-39.755 48.758-39.755 81.875 0 25.446 9.122 48.761 24.274 66.854l-0.133-0.163 130.499 156.125c6.765 7.814 14.552 14.494 23.211 19.91l0.428 0.25c15.597 9.869 34.582 15.726 54.936 15.726 25.446 0 48.753-9.155 66.809-24.35l-0.158 0.129c4.084-3.424 7.762-6.997 11.164-10.82l0.092-0.106c9.608-10.834 23.564-17.628 39.106-17.628 0.249 0 0.497 0.002 0.746 0.005h-0.038c15.588 0.228 29.472 7.335 38.782 18.413l0.065 0.079 0.625 0.752c7.555 8.907 12.149 20.533 12.149 33.232 0 13.17-4.941 25.186-13.070 34.295l0.044-0.051c-38.403 43.337-94.203 70.516-156.35 70.516-64.148 0-121.533-28.957-159.796-74.512l-0.262-0.32-129.184-154.636c-29.963-35.975-48.151-82.676-48.151-133.625 0-62.852 27.68-119.24 71.514-157.637l0.241-0.207c35.726-30.969 82.673-49.841 134.027-49.841 6.342 0 12.616 0.288 18.811 0.851l-0.797-0.058q9.774 0.789 19.398 2.484c51.361 9.22 95.384 35.598 126.923 72.876l0.26 0.315 54.56 65.306c7.561 9.002 12.155 20.717 12.155 33.505 0 28.86-23.396 52.256-52.256 52.256-16.072 0-30.45-7.256-40.036-18.671l-0.066-0.080z" />
<glyph unicode="&#xf0ed;" glyph-name="download" data-tags="download" horiz-adv-x="1100" d="M733.282 313.976q0 8.216-5.135 13.351t-13.351 5.135h-128.375v201.293q0 8.216-5.135 13.351t-12.324 5.135h-110.916q-7.189 0-12.324-5.135t-5.135-13.351v-201.293h-128.375q-8.216 0-13.351-5.135t-5.135-13.351 5.135-13.351l201.293-201.293q5.135-5.135 13.351-5.135t13.351 5.135l201.293 201.293q5.135 6.162 5.135 13.351zM1099.923 185.601q0-91.403-63.674-155.077t-156.104-64.701h-623.393q-105.781 0-181.78 74.971t-74.971 181.78q0 73.944 40.053 137.618t107.835 94.484q-1.027 17.459-1.027 24.648 0 121.186 86.268 207.455t207.455 86.268q89.349 0 163.293-50.323t107.835-132.483q41.080 35.945 95.511 35.945 60.593 0 103.727-43.134t43.134-103.727q0-44.161-23.621-79.079 73.944-17.459 122.213-78.052t47.242-136.591z" />
</font>
</defs>
</svg>
