<svg width="483" height="134" viewBox="0 0 483 134" fill="none" xmlns="http://www.w3.org/2000/svg">
<g clip-path="url(#clip0_724_722)">
<path d="M131.945 133.818H459.432L469.928 82.4962H204.362C161.83 82.4716 137.715 108.213 131.945 133.818Z" fill="#BF8F50"/>
<path d="M185.435 118.514C184.767 118.514 184.305 118.329 184.062 117.961C183.819 117.592 183.758 117.088 183.88 116.449L187.123 100.935C187.354 99.7552 188.059 99.1652 189.225 99.1652C189.735 99.1652 190.136 99.2758 190.416 99.5094C190.695 99.7429 190.926 100.124 191.108 100.665L194.522 111.101L202.564 100.37C202.868 99.9396 203.196 99.6323 203.548 99.4479C203.9 99.2635 204.338 99.1652 204.848 99.1652C205.48 99.1652 205.941 99.3496 206.209 99.7183C206.476 100.087 206.549 100.591 206.415 101.23L203.196 116.744C202.941 117.924 202.224 118.514 201.058 118.514C200.438 118.514 199.989 118.329 199.721 117.961C199.442 117.592 199.381 117.088 199.527 116.449L201.544 106.725L195.506 114.801C195.263 115.121 195.008 115.355 194.765 115.502C194.522 115.65 194.206 115.711 193.841 115.711C193.113 115.711 192.614 115.33 192.335 114.556L189.602 106.799L187.549 116.731C187.281 117.924 186.577 118.514 185.435 118.514Z" fill="white"/>
<path d="M215.818 118.612C214.105 118.612 212.623 118.28 211.372 117.617C210.12 116.953 209.173 115.994 208.541 114.74C207.897 113.486 207.63 111.974 207.715 110.204C207.824 108.041 208.335 106.123 209.246 104.451C210.157 102.779 211.372 101.464 212.915 100.517C214.445 99.5708 216.231 99.0914 218.272 99.0914C220.009 99.0914 221.491 99.4233 222.743 100.087C223.994 100.751 224.929 101.71 225.561 102.964C226.193 104.217 226.472 105.717 226.375 107.475C226.266 109.663 225.755 111.593 224.857 113.265C223.958 114.937 222.731 116.252 221.188 117.199C219.633 118.145 217.847 118.612 215.818 118.612ZM216.073 115.072C217.264 115.072 218.284 114.752 219.159 114.101C220.034 113.449 220.714 112.564 221.224 111.446C221.734 110.327 222.014 109.024 222.087 107.549C222.172 105.889 221.844 104.648 221.115 103.849C220.386 103.05 219.341 102.644 217.993 102.644C216.802 102.644 215.782 102.964 214.919 103.603C214.057 104.242 213.376 105.115 212.866 106.246C212.368 107.377 212.076 108.68 212.003 110.167C211.918 111.827 212.234 113.068 212.963 113.867C213.704 114.666 214.737 115.072 216.073 115.072Z" fill="white"/>
<path d="M233.312 118.563C232.656 118.563 232.182 118.354 231.891 117.924C231.599 117.494 231.526 116.891 231.696 116.129L234.454 102.841H230.105C229.534 102.841 229.109 102.718 228.793 102.46C228.477 102.201 228.343 101.87 228.368 101.439C228.404 100.8 228.611 100.296 228.987 99.9396C229.364 99.5831 229.874 99.3987 230.518 99.3987H243.65C244.853 99.3987 245.436 99.8535 245.388 100.763C245.351 101.402 245.157 101.919 244.78 102.275C244.404 102.644 243.905 102.828 243.262 102.828H238.597L235.742 116.461C235.426 117.862 234.624 118.563 233.312 118.563Z" fill="white"/>
<path d="M252.822 118.612C251.11 118.612 249.627 118.28 248.376 117.617C247.125 116.953 246.177 115.994 245.546 114.74C244.902 113.486 244.634 111.974 244.719 110.204C244.829 108.041 245.339 106.123 246.25 104.451C247.161 102.779 248.376 101.464 249.919 100.517C251.462 99.5708 253.236 99.0914 255.276 99.0914C257.014 99.0914 258.496 99.4233 259.747 100.087C260.998 100.751 261.934 101.71 262.566 102.964C263.197 104.217 263.477 105.717 263.38 107.475C263.27 109.663 262.76 111.593 261.861 113.265C260.962 114.937 259.735 116.252 258.192 117.199C256.649 118.145 254.863 118.612 252.822 118.612ZM253.09 115.072C254.28 115.072 255.301 114.752 256.175 114.101C257.05 113.462 257.73 112.564 258.241 111.446C258.751 110.327 259.03 109.024 259.103 107.549C259.188 105.889 258.86 104.648 258.131 103.849C257.402 103.05 256.358 102.644 255.009 102.644C253.819 102.644 252.798 102.964 251.936 103.603C251.073 104.242 250.393 105.115 249.883 106.246C249.372 107.377 249.093 108.68 249.02 110.167C248.935 111.827 249.251 113.068 249.98 113.867C250.709 114.666 251.741 115.072 253.09 115.072Z" fill="white"/>
<path d="M266.295 118.563C265.639 118.563 265.177 118.354 264.898 117.924C264.619 117.494 264.558 116.891 264.704 116.129L267.765 101.476C268.044 100.099 268.883 99.411 270.256 99.411H275.747C277.921 99.411 279.537 99.8781 280.582 100.825C281.627 101.771 282.112 103.087 282.015 104.783C281.906 106.934 281.177 108.594 279.816 109.761C278.468 110.929 276.561 111.519 274.094 111.519H269.745L268.725 116.486C268.458 117.862 267.644 118.563 266.295 118.563ZM270.462 108.286H274.447C276.743 108.286 277.946 107.229 278.055 105.115C278.14 103.468 277.144 102.644 275.078 102.644H271.628L270.462 108.286Z" fill="white"/>
<path d="M283.923 118.563C283.218 118.563 282.732 118.342 282.453 117.899C282.173 117.457 282.125 116.854 282.295 116.092L285.393 101.243C285.672 99.8412 286.498 99.1528 287.834 99.1528C288.527 99.1528 289.001 99.3741 289.268 99.8166C289.535 100.259 289.596 100.862 289.426 101.624L288.296 106.996H296.97L298.197 101.255C298.476 99.8535 299.29 99.1651 300.615 99.1651C301.307 99.1651 301.793 99.3741 302.072 99.8043C302.352 100.235 302.4 100.837 302.218 101.636L299.145 116.449C298.841 117.862 298.027 118.575 296.703 118.575C295.998 118.575 295.512 118.354 295.257 117.911C295.002 117.469 294.953 116.867 295.111 116.104L296.278 110.462H287.579L286.34 116.449C286.061 117.85 285.247 118.563 283.923 118.563Z" fill="white"/>
<path d="M304.915 118.317C304.186 118.317 303.664 118.108 303.348 117.702C303.02 117.297 302.935 116.719 303.081 115.981L306.142 101.218C306.264 100.554 306.531 100.05 306.92 99.6937C307.308 99.3372 307.843 99.1528 308.499 99.1528C309.191 99.1528 309.677 99.3495 309.981 99.7552C310.285 100.161 310.358 100.726 310.212 101.464L309.046 107.02H312.204C314.379 107.02 315.97 107.5 316.979 108.471C317.987 109.442 318.461 110.659 318.376 112.146C318.279 114.15 317.574 115.686 316.262 116.731C314.962 117.789 313.103 118.317 310.674 118.317H304.915V118.317ZM307.369 115.096H310.953C313.2 115.096 314.367 114.199 314.464 112.38C314.5 111.642 314.294 111.101 313.832 110.757C313.371 110.413 312.593 110.229 311.5 110.229H308.402L307.369 115.096ZM321.437 118.563C320.769 118.563 320.271 118.366 319.967 117.961C319.663 117.555 319.591 116.989 319.749 116.252L322.895 101.144C323.162 99.8166 323.94 99.1528 325.227 99.1528C325.92 99.1528 326.418 99.3495 326.722 99.7552C327.025 100.161 327.111 100.726 326.965 101.464L323.818 116.572C323.551 117.899 322.761 118.563 321.437 118.563Z" fill="white"/>
<path d="M329.613 118.317C328.058 118.317 327.439 117.543 327.742 115.981L330.779 101.402C331.047 100.062 331.848 99.3864 333.197 99.3864H342.32C343.45 99.3864 343.997 99.8289 343.948 100.702C343.912 101.316 343.718 101.783 343.353 102.128C342.989 102.472 342.515 102.632 341.932 102.632H334.448L333.525 107.057H340.134C341.251 107.057 341.786 107.5 341.737 108.372C341.701 108.999 341.506 109.479 341.142 109.823C340.778 110.167 340.316 110.339 339.745 110.339H332.845L331.861 115.06H339.028C340.158 115.06 340.705 115.502 340.656 116.375C340.62 116.989 340.425 117.457 340.061 117.801C339.696 118.145 339.223 118.317 338.639 118.317H329.613V118.317Z" fill="white"/>
<path d="M352.707 118.514C352.039 118.514 351.578 118.329 351.335 117.961C351.092 117.592 351.031 117.088 351.152 116.449L354.396 100.935C354.639 99.7552 355.331 99.1652 356.51 99.1652C357.02 99.1652 357.421 99.2758 357.7 99.5094C357.98 99.7429 358.211 100.124 358.393 100.665L361.807 111.101L369.849 100.37C370.153 99.9396 370.481 99.6323 370.833 99.4479C371.185 99.2635 371.623 99.1652 372.133 99.1652C372.765 99.1652 373.226 99.3496 373.493 99.7183C373.761 100.087 373.834 100.591 373.7 101.23L370.481 116.744C370.226 117.924 369.509 118.514 368.343 118.514C367.723 118.514 367.273 118.329 367.006 117.961C366.727 117.592 366.666 117.088 366.812 116.449L368.828 106.725L362.791 114.801C362.548 115.121 362.293 115.355 362.05 115.502C361.807 115.65 361.491 115.711 361.126 115.711C360.397 115.711 359.899 115.33 359.62 114.556L356.886 106.799L354.833 116.731C354.554 117.924 353.862 118.514 352.707 118.514Z" fill="white"/>
<path d="M374.66 118.563C373.931 118.563 373.421 118.329 373.105 117.85C372.789 117.383 372.862 116.805 373.299 116.117L383.601 100.579C383.929 100.075 384.269 99.7183 384.634 99.4971C384.998 99.2758 385.46 99.1652 386.007 99.1652C387.1 99.1652 387.792 99.7429 388.072 100.886L391.765 116.055C391.971 116.891 391.886 117.53 391.522 117.948C391.158 118.366 390.647 118.575 390.016 118.575C389.432 118.575 388.995 118.428 388.679 118.133C388.376 117.838 388.157 117.371 388.035 116.756L387.537 114.211H378.73L376.762 117.358C376.239 118.157 375.547 118.563 374.66 118.563ZM385.29 103.824L380.783 110.966H386.833L385.351 103.824H385.29Z" fill="white"/>
<path d="M402.662 118.612C400.961 118.612 399.467 118.293 398.179 117.641C396.891 117.002 395.895 116.031 395.203 114.74C394.51 113.449 394.207 111.851 394.316 109.934C394.389 108.409 394.693 106.996 395.227 105.693C395.749 104.39 396.478 103.234 397.402 102.238C398.325 101.243 399.443 100.468 400.755 99.915C402.067 99.3618 403.537 99.0791 405.189 99.0791C406.112 99.0791 407.011 99.1897 407.886 99.4233C408.773 99.6569 409.562 100.001 410.279 100.468C410.741 100.751 410.996 101.132 411.057 101.611C411.117 102.091 411.02 102.533 410.789 102.964C410.559 103.394 410.231 103.701 409.83 103.898C409.429 104.095 409.004 104.07 408.578 103.812C407.91 103.406 407.278 103.123 406.695 102.964C406.112 102.816 405.505 102.73 404.885 102.73C403.61 102.73 402.528 103.037 401.629 103.652C400.73 104.267 400.038 105.115 399.54 106.172C399.042 107.229 398.762 108.434 398.689 109.761C398.592 111.556 398.932 112.847 399.698 113.671C400.463 114.482 401.666 114.887 403.306 114.887C403.853 114.887 404.411 114.826 404.958 114.691C405.505 114.556 406.076 114.334 406.659 114.027C407.206 113.757 407.667 113.72 408.056 113.904C408.445 114.088 408.712 114.396 408.858 114.801C409.004 115.207 409.004 115.65 408.87 116.104C408.736 116.559 408.396 116.928 407.874 117.223C407.108 117.666 406.246 118.01 405.298 118.231C404.363 118.502 403.476 118.612 402.662 118.612Z" fill="white"/>
<path d="M426.121 118.563C425.453 118.563 424.967 118.354 424.675 117.948C424.384 117.543 424.311 116.953 424.457 116.203L427.239 102.828H421.432L420.654 106.614C420.205 108.729 419.658 110.536 419.014 112.036C418.358 113.535 417.58 114.801 416.669 115.809C415.758 116.817 414.677 117.653 413.426 118.293C412.903 118.563 412.405 118.649 411.943 118.575C411.482 118.489 411.117 118.206 410.862 117.702C410.607 117.198 410.559 116.731 410.741 116.289C410.911 115.846 411.251 115.477 411.761 115.17C412.6 114.691 413.353 114.052 414.009 113.265C414.665 112.478 415.248 111.458 415.746 110.216C416.244 108.975 416.694 107.413 417.094 105.533L417.969 101.402C418.249 100.062 419.05 99.3864 420.387 99.3864H429.753C430.494 99.3864 431.029 99.583 431.357 99.9887C431.685 100.394 431.77 100.972 431.624 101.722L428.526 116.572C428.235 117.899 427.445 118.563 426.121 118.563Z" fill="white"/>
<path d="M432.62 118.563C431.891 118.563 431.381 118.329 431.065 117.85C430.749 117.383 430.822 116.805 431.26 116.117L441.562 100.579C441.89 100.075 442.23 99.7183 442.594 99.4971C442.959 99.2758 443.42 99.1652 443.967 99.1652C445.06 99.1652 445.753 99.7429 446.032 100.886L449.725 116.055C449.932 116.891 449.847 117.53 449.482 117.948C449.118 118.366 448.608 118.575 447.976 118.575C447.393 118.575 446.955 118.428 446.64 118.133C446.336 117.838 446.117 117.371 445.996 116.756L445.486 114.236H436.678L434.71 117.383C434.2 118.157 433.507 118.563 432.62 118.563ZM443.25 103.824L438.743 110.966H444.793L443.311 103.824H443.25Z" fill="white"/>
<path d="M255.604 64.4014H232.777L229.68 52.8955H197.194L189.638 64.4014H167.71L186.273 37.9967H225.828L220.58 17.9351H220.216L219.074 19.6069C210.218 33.0551 201.203 33.0551 189.735 33.0551L212.003 1.37683H236.726L255.604 64.4014Z" fill="#BF8F50"/>
<path d="M338.882 22.4465C340.365 15.0832 339.138 10.0186 335.214 6.62581C330.002 2.02834 321.024 1.37683 308.924 1.37683H275.176L272.151 16.3739H305.535C314.379 16.3739 319.372 16.6443 318.096 22.9997C316.967 28.6174 313.504 30.0802 303.044 30.0802H289.778L291.552 21.3033C277.52 21.3033 269.551 28.6789 267.133 41.2789L262.468 64.4014H282.866L286.923 44.2537H298.112L309.301 64.4014H333.841L320.502 41.955C332.225 39.0047 337.024 31.6414 338.882 22.4465Z" fill="#BF8F50"/>
<path d="M347.168 1.37683L344.046 16.8287H410.559L413.681 1.37683H347.168Z" fill="#BF8F50"/>
<path d="M368.027 21.7704L359.426 64.4014H379.823L384.403 41.7091C387.634 25.5197 377.928 21.7704 368.027 21.7704Z" fill="#BF8F50"/>
<path d="M72.9874 49.81C60.353 48.9495 44.2926 49.81 39.6398 49.81C25.3653 49.81 19.449 44.6593 21.9637 32.2314C24.5027 19.6191 32.3385 15.7469 46.5158 15.7469C60.7903 15.7469 66.7188 20.8115 64.2162 33.2394C63.1228 38.6482 61.665 41.9058 58.5671 44.4872C69.4643 44.4872 83.0585 41.8689 85.7919 28.519C87.3105 20.074 85.4761 11.3216 78.7822 6.26927C72.1127 1.29073 62.5154 0 49.6987 0C36.8699 0 26.7624 1.29073 18.0762 6.25698C8.05367 12.0591 3.3036 21.7212 1.06828 32.7723C-1.17919 43.9095 -0.292354 53.3994 7.3855 59.1893C14.0186 64.3399 25.0494 65.6183 37.8782 65.6183C53.7077 65.6183 76.4254 63.8728 90.1411 75.2312C96.6162 58.7221 93.0567 51.6661 72.9874 49.81Z" fill="#BF8F50"/>
<path d="M107.271 1.37683L100.371 35.612C99.6906 38.9802 99.2168 42.0902 99.0589 44.9421H101.294C110.223 44.4135 119.517 41.3035 122.761 25.7532L127.681 1.38912H107.271V1.37683Z" fill="#BF8F50"/>
<path d="M157.821 1.37683L151.03 35.0588C148.856 45.8518 143.352 49.8715 132.249 49.8715C132.249 49.8715 107.004 49.8715 99.1561 49.8715C100.869 64.9054 118.752 65.6922 130.475 65.6922C142.113 65.6922 149.913 64.6842 158.599 58.796C165.936 53.7314 168.864 45.9132 170.942 35.612L177.842 1.37683H157.821V1.37683Z" fill="#BF8F50"/>
<path d="M420.824 1.37683L417.714 16.8287H449.288L449.179 17.3819L407.91 48.8512L404.776 64.4014H418.783L479.89 16.8287L483 1.37683H420.824Z" fill="#BF8F50"/>
<path d="M433.714 64.4014H473.634L476.804 48.8881H455.605C442.74 48.8881 435.451 56.6693 433.714 64.4014Z" fill="#BF8F50"/>
</g>
<defs>
<clipPath id="clip0_724_722">
<rect width="483" height="133.818" fill="white"/>
</clipPath>
</defs>
</svg>
