<?xml version="1.0" encoding="utf-8"?>
<!-- Generator: Adobe Illustrator 17.0.0, SVG Export Plug-In . SVG Version: 6.00 Build 0)  -->
<!DOCTYPE svg PUBLIC "-//W3C//DTD SVG 1.1//EN" "http://www.w3.org/Graphics/SVG/1.1/DTD/svg11.dtd">
<svg version="1.1" id="Layer_1" xmlns="http://www.w3.org/2000/svg" xmlns:xlink="http://www.w3.org/1999/xlink" x="0px" y="0px"
	 width="432.5px" height="88px" viewBox="14.5 -96.5 432.5 88" enable-background="new 14.5 -96.5 432.5 88" xml:space="preserve">
<g>
	<g>
		<path fill="#FFFFFF" d="M20.632-29.24h6.051c1.193,0,3.169-0.056,3.169,0.814c0,0.353,0.04,0.648-0.166,1.075l-1.276,2.703
			c-0.205,0.463-0.782,1.409-3.622,1.501l-0.082,0.129c1.729-0.036,2.758,0.557,2.387,1.372l-1.688,3.574
			c-0.287,0.611-1.111,1.797-4.899,1.797H14.5L20.632-29.24z M19.603-17.515c0.823,0,1.564-0.242,1.77-0.665l1.646-3.521
			c0.288-0.572-0.41-0.777-0.987-0.777h-0.535l-2.345,4.964L19.603-17.515L19.603-17.515z M22.484-23.665
			c1.071,0,1.606-0.259,1.771-0.593l1.44-3.093c0.165-0.391-0.371-0.648-1.111-0.648H24.13l-2.057,4.334
			C22.073-23.665,22.484-23.665,22.484-23.665z"/>
		<path fill="#FFFFFF" d="M35.285-29.24h6.339c1.028,0,3.045-0.056,3.045,0.927c0,0.314-0.082,0.592-0.247,0.963l-2.099,4.463
			c-0.369,0.779-1.029,1.983-4.651,1.983h-2.264l-2.18,4.63h-4.075L35.285-29.24z M36.478-22.09c0.782,0,1.482-0.204,1.687-0.629
			l2.223-4.669c0.288-0.572-0.577-0.667-1.069-0.667h-0.536l-2.799,5.965H36.478z"/>
		<path fill="#FFFFFF" d="M54.094-18.367c-0.371,0.777-1.195,2.093-4.611,2.093h-2.799c-0.945,0-2.922-0.076-2.922-1.132
			c0-0.314,0.123-0.609,0.288-0.961l4.157-8.779c0.371-0.779,1.194-2.094,4.61-2.094h2.799c0.947,0,2.879,0.075,2.879,1.13
			c0,0.315-0.082,0.611-0.246,0.964L54.094-18.367z M47.92-17.941c-0.042,0.092-0.042,0.167-0.042,0.239
			c0,0.131,0.411,0.242,0.783,0.242c0.494,0,1.028-0.242,1.151-0.481l4.568-9.632c0.125-0.222-0.204-0.482-0.74-0.482
			c-0.865,0-1.071,0.334-1.153,0.482L47.92-17.941z"/>
		<path fill="#FFFFFF" d="M73.643-29.24l-2.758,5.799h0.083l4.651-5.799h4.075l-5.844,6.203l0.164,6.763h-4.075l0.412-5.799h-0.083
			l-2.758,5.799h-4.074l2.757-5.799H66.11l-5.103,5.799h-4.073l6.584-6.763v-6.203h4.073l-0.865,5.799h0.083l2.757-5.799
			C69.566-29.24,73.643-29.24,73.643-29.24z"/>
		<path fill="#FFFFFF" d="M77.841-17.515h0.288c1.811,0,2.263-0.574,2.471-1.038l5.061-10.687h10.002l-5.557,11.725h1.029
			l-1.606,3.407h-4.074l1.029-2.166H81.34l-1.03,2.166h-4.075L77.841-17.515z M84.673-18.553c-0.164,0.315-0.536,0.852-1.359,1.038
			h2.717l4.979-10.483h-1.85L84.673-18.553z"/>
		<path fill="#FFFFFF" d="M100.108-29.24h9.55l-0.576,1.241h-5.475l-2.017,4.26h5.474l-0.617,1.242h-5.473l-2.347,4.981h5.556
			l-0.576,1.241h-9.632L100.108-29.24z"/>
		<path fill="#FFFFFF" d="M113.607-29.24h4.074l-2.592,5.501h1.853l2.592-5.501h4.076l-6.135,12.966h-4.073l2.922-6.223h-1.853
			l-2.922,6.223h-4.075L113.607-29.24z"/>
		<path fill="#FFFFFF" d="M128.219-29.24h4.075l-2.592,5.501h1.851l2.594-5.501h4.075l-6.132,12.966h-4.076l2.922-6.223h-1.852
			l-2.922,6.223h-4.075L128.219-29.24z"/>
		<path fill="#FFFFFF" d="M147.729-18.367c-0.371,0.777-1.194,2.093-4.608,2.093h-2.8c-0.946,0-2.922-0.076-2.922-1.132
			c0-0.314,0.123-0.609,0.287-0.961l4.158-8.779c0.371-0.779,1.194-2.094,4.61-2.094h2.799c0.946,0,2.88,0.075,2.88,1.13
			c0,0.315-0.081,0.611-0.247,0.964L147.729-18.367z M141.554-17.941c-0.041,0.092-0.041,0.167-0.041,0.239
			c0,0.131,0.411,0.242,0.783,0.242c0.493,0,1.028-0.242,1.151-0.481l4.569-9.632c0.125-0.222-0.206-0.482-0.741-0.482
			c-0.864,0-1.07,0.334-1.152,0.482L141.554-17.941z"/>
		<path fill="#FFFFFF" d="M157.441-29.24h9.549l-0.575,1.241h-5.475l-2.018,4.26h5.475l-0.617,1.242h-5.475l-2.345,4.981h5.556
			l-0.576,1.241h-9.631L157.441-29.24z"/>
		<path fill="#FFFFFF" d="M187.857-20.813l-1.234,2.612c-0.287,0.593-0.699,1.927-4.568,1.927h-2.799
			c-1.523,0-2.965,0.056-2.965-0.944c0-0.353,0.082-0.631,0.249-1.001l4.321-9.11c0.37-0.816,0.863-1.91,4.526-1.91h2.798
			c1.154,0,3.048,0,3.048,0.927c0,0.314-0.125,0.592-0.289,0.963l-1.07,2.26h-4.076l1.194-2.537
			c0.125-0.278-0.493-0.428-0.822-0.428c-0.372,0-1.029,0.225-1.111,0.428l-4.611,9.761c-0.123,0.241,0.289,0.407,0.742,0.407
			s1.07-0.187,1.193-0.407l1.399-2.946h4.075V-20.813z"/>
		<path fill="#FFFFFF" d="M195.965-29.24h4.074l-5.556,11.725h1.894l5.558-11.725h4.074l-5.557,11.725h1.029l-1.605,3.407h-4.075
			l1.029-2.166h-6.999L195.965-29.24z"/>
		<path fill="#FFFFFF" d="M210.453-29.24h9.548l-0.575,1.241h-5.474l-2.017,4.26h5.473l-0.616,1.242h-5.476l-2.345,4.981h5.556
			l-0.575,1.241h-9.63L210.453-29.24z"/>
		<path fill="#FFFFFF" d="M223.952-29.24h10.044l-6.131,12.966h-4.076l5.557-11.725h-1.894l-5.557,11.725h-4.075L223.952-29.24z"/>
		<path fill="#FFFFFF" d="M238.112-18.274c-0.907,1.87-3.541,2-4.815,2h-2.102l0.577-1.241c1.194,0.019,2.06-0.37,2.307-0.87
			l5.145-10.854h10.001l-6.133,12.966h-4.075l5.558-11.725h-1.854L238.112-18.274z"/>
		<path fill="#FFFFFF" d="M253.835-29.24h9.55l-0.578,1.241h-5.473l-2.02,4.26h5.475l-0.615,1.242h-5.476l-2.345,4.981h5.556
			l-0.575,1.241h-9.633L253.835-29.24z"/>
		<path fill="#FFFFFF" d="M267.335-29.24h4.075l-2.596,5.501h1.853l2.594-5.501h4.075l-6.132,12.966h-4.075l2.922-6.223h-1.853
			l-2.921,6.223H261.2L267.335-29.24z"/>
		<path fill="#FFFFFF" d="M281.945-29.24h4.075l-3.58,7.52l5.927-7.52h4.073l-6.13,12.966h-4.076l3.457-7.297l-5.804,7.297h-4.076
			L281.945-29.24z"/>
		<path fill="#FFFFFF" d="M297.051-29.24h9.551l-0.577,1.241h-5.476l-2.017,4.26h5.474l-0.617,1.242h-5.474l-2.345,4.981h5.556
			l-0.577,1.241h-9.632L297.051-29.24z"/>
		<path fill="#FFFFFF" d="M327.468-20.813l-1.235,2.612c-0.289,0.593-0.698,1.927-4.569,1.927h-2.798
			c-1.524,0-2.966,0.056-2.966-0.944c0-0.353,0.082-0.631,0.248-1.001l4.322-9.11c0.371-0.816,0.863-1.91,4.526-1.91h2.8
			c1.151,0,3.045,0,3.045,0.927c0,0.314-0.122,0.592-0.288,0.963l-1.069,2.26h-4.075l1.193-2.537
			c0.123-0.278-0.492-0.428-0.821-0.428c-0.372,0-1.029,0.225-1.113,0.428l-4.609,9.761c-0.123,0.241,0.288,0.407,0.742,0.407
			c0.45,0,1.067-0.187,1.192-0.407l1.397-2.946h4.078L327.468-20.813L327.468-20.813z"/>
		<path fill="#FFFFFF" d="M340.225-17.515h0.289c1.809,0,2.263-0.574,2.47-1.038l5.06-10.687h10.003l-5.557,11.725h1.028
			l-1.603,3.407h-4.076l1.03-2.166h-5.146l-1.029,2.166h-4.075L340.225-17.515z M347.058-18.553
			c-0.165,0.315-0.534,0.852-1.359,1.038h2.718l4.979-10.483h-1.852L347.058-18.553z"/>
		<path fill="#FFFFFF" d="M367.391-18.367c-0.373,0.777-1.194,2.093-4.61,2.093h-2.8c-0.947,0-2.922-0.076-2.922-1.132
			c0-0.314,0.124-0.609,0.289-0.961l4.155-8.779c0.371-0.779,1.194-2.094,4.611-2.094h2.799c0.947,0,2.88,0.075,2.88,1.13
			c0,0.315-0.083,0.611-0.246,0.964L367.391-18.367z M361.216-17.941c-0.042,0.092-0.042,0.167-0.042,0.239
			c0,0.131,0.414,0.242,0.783,0.242c0.494,0,1.028-0.242,1.15-0.481l4.571-9.632c0.122-0.222-0.206-0.482-0.743-0.482
			c-0.863,0-1.068,0.334-1.149,0.482L361.216-17.941z"/>
		<path fill="#FFFFFF" d="M377.102-29.24h6.338c1.029,0,3.048-0.056,3.048,0.927c0,0.314-0.082,0.592-0.247,0.963l-2.099,4.463
			c-0.369,0.779-1.029,1.983-4.653,1.983h-2.264l-2.181,4.63h-4.074L377.102-29.24z M378.298-22.09c0.78,0,1.479-0.204,1.686-0.629
			l2.224-4.669c0.288-0.572-0.579-0.667-1.073-0.667h-0.532l-2.8,5.965H378.298z"/>
		<path fill="#FFFFFF" d="M395.913-18.367c-0.371,0.777-1.192,2.093-4.609,2.093h-2.801c-0.944,0-2.92-0.076-2.92-1.132
			c0-0.314,0.122-0.609,0.288-0.961l4.157-8.779c0.369-0.779,1.192-2.094,4.608-2.094h2.799c0.949,0,2.882,0.075,2.882,1.13
			c0,0.315-0.082,0.611-0.249,0.964L395.913-18.367z M389.738-17.941c-0.039,0.092-0.039,0.167-0.039,0.239
			c0,0.131,0.41,0.242,0.78,0.242c0.494,0,1.03-0.242,1.153-0.481l4.567-9.632c0.123-0.222-0.205-0.482-0.74-0.482
			c-0.865,0-1.069,0.334-1.152,0.482L389.738-17.941z"/>
		<path fill="#FFFFFF" d="M405.63-29.24h8.271l-0.576,1.241h-4.199l-5.558,11.725h-4.074L405.63-29.24z"/>
		<path fill="#FFFFFF" d="M422.211-18.367c-0.368,0.777-1.189,2.093-4.607,2.093h-2.799c-0.946,0-2.922-0.076-2.922-1.132
			c0-0.314,0.123-0.609,0.289-0.961l4.156-8.779c0.369-0.779,1.194-2.094,4.608-2.094h2.8c0.947,0,2.882,0.075,2.882,1.13
			c0,0.315-0.083,0.611-0.249,0.964L422.211-18.367z M416.04-17.941c-0.041,0.092-0.041,0.167-0.041,0.239
			c0,0.131,0.411,0.242,0.781,0.242c0.493,0,1.03-0.242,1.152-0.481l4.568-9.632c0.123-0.222-0.205-0.482-0.74-0.482
			c-0.865,0-1.071,0.334-1.154,0.482L416.04-17.941z"/>
		<path fill="#FFFFFF" d="M431.927-29.24h4.075l-3.58,7.52l5.926-7.52h4.074l-6.132,12.966h-4.075l3.459-7.297l-5.807,7.297h-4.073
			L431.927-29.24z M437.317-31.573L437.03-31c-0.041,0.073-0.041,0.148,0,0.223c0.164,0.222,0.537,0.241,0.824,0.241
			c0.615,0,1.151-0.278,1.232-0.464l0.29-0.573h2.964l-0.247,0.519c-0.37,0.815-1.729,1.166-3.375,1.166h-2.346
			c-0.575,0-1.811-0.037-2.264-0.593c-0.123-0.166-0.123-0.351,0-0.573l0.246-0.519C434.354-31.573,437.317-31.573,437.317-31.573z"
			/>
	</g>
	<g>
		<g>
			<g>
				<path fill="#FFFFFF" d="M351.056-80.898l3.125-6.689h-20.379l-2.523,5.314l-0.004,0.006c-0.225,0.527-0.545,0.879-0.958,1.113
					c-0.416,0.233-0.941,0.344-1.57,0.344h-0.154l-2.579,5.5h1.985l-3.027,6.53l-0.005,0.012c-0.085,0.252-0.172,0.5-0.276,0.749
					l-0.02,0.047l-0.027,0.06l-6.405,13.79l-0.001,0.006c-0.369,0.899-0.561,1.76-0.561,2.572c-0.002,0.786,0.181,1.525,0.556,2.19
					c0.297,0.603,0.781,1.201,1.452,1.694c1.832,1.439,4.157,2.122,6.838,2.121h8.231l0.013-0.002
					c0.839-0.084,2.461-0.184,4.83-0.468l0.136-0.018l3.052-6.607h-0.38c-1.303,0.001-2.266-0.13-2.866-0.381
					c-0.301-0.123-0.506-0.273-0.636-0.437c-0.129-0.167-0.189-0.348-0.191-0.584c-0.001-0.203,0.053-0.445,0.165-0.726
					l9.606-20.546h4.81l2.675-5.589L351.056-80.898L351.056-80.898z M52.447-63.619l-0.065,0.14l-3.766,8.226l-0.005,0.02
					c-0.025,0.098-0.109,0.216-0.296,0.346c-0.183,0.128-0.456,0.259-0.8,0.387c-0.798,0.257-1.48,0.431-2.329,0.431
					c-0.966,0.004-1.708-0.191-2.062-0.551l-0.018-0.02l-0.022-0.014c-0.128-0.085-0.16-0.159-0.162-0.229
					c0.001-0.042,0.012-0.093,0.054-0.159l0.009-0.013l10.638-23.594c0.139-0.276,0.528-0.611,1.208-0.856l0.005-0.002l0.008-0.004
					c0.574-0.246,1.355-0.338,2.221-0.337c1.029,0,1.692,0.167,2.173,0.471c0.069,0.075,0.119,0.137,0.147,0.183
					c0.032,0.054,0.036,0.078,0.037,0.094c-0.001,0.018-0.005,0.049-0.05,0.115l-0.011,0.019l-2.745,6.168h25.625l1.671-3.62
					l2.743-6.156l-0.143-0.118c-0.888-0.726-1.789-1.353-2.681-1.974l-0.008-0.007l-0.008-0.006
					c-2.159-1.261-4.412-2.332-6.758-3.064h-0.003c-4.762-1.433-10.323-2.149-16.59-2.151h-2.048
					c-6.73,0.001-12.662,0.896-17.784,2.779c-5.118,1.795-8.309,4.143-9.603,6.924L19.137-53.923l-0.001,0.004
					c-0.315,0.759-0.48,1.49-0.48,2.189c-0.001,0.968,0.32,1.876,0.958,2.69c0.638,0.817,1.586,1.545,2.852,2.206
					c3.373,1.924,8.593,2.805,15.39,2.807h2.061c4.566,0,9.758-0.449,15.578-1.342h0.003c6.622-1.078,11.899-2.235,15.84-3.399
					l0.107-0.031l1.67-3.738l0.004-0.016c0.106-0.336,0.225-0.658,0.363-0.959l1.305-2.763l3.288-7.345L52.447-63.619L52.447-63.619
					z M126.203-66.508l0.289-0.596l1.521-3.262l0.004-0.011c0.117-0.326,0.179-0.651,0.179-0.97
					c0.001-0.539-0.174-1.054-0.506-1.535c-0.33-0.478-0.813-0.924-1.443-1.352c-0.418-0.316-1.019-0.612-1.693-0.897
					c-3.056-1.3-7.086-1.987-12.188-1.987h-4.5c-1.762,0-3.329,0.104-4.983,0.193l-0.006,0.001h-0.004
					c-3.253,0.302-6.206,0.89-9.075,1.785l-0.004,0.001c-2.071,0.687-3.759,1.423-5.042,2.231c-1.281,0.806-2.167,1.686-2.602,2.678
					l-5.956,12.601l-1.462,3.093l-1.596,3.567l-0.005,0.025c-0.045,0.203-0.067,0.407-0.067,0.608
					c-0.002,0.695,0.272,1.356,0.796,1.95c0.524,0.596,1.291,1.134,2.308,1.625c0.12,0.064,0.232,0.093,0.325,0.119
					c0.094,0.025,0.168,0.048,0.235,0.084l0.006,0.004l0.007,0.002c2.978,1.388,7.093,1.968,12.096,1.969h4.599
					c1.66-0.001,3.423,0.001,5.005-0.192c3.246-0.297,6.204-0.886,9.059-1.766l0.005-0.001h-0.001
					c4.043-1.32,6.51-2.806,7.583-4.642l0.005-0.01l5.322-11.441L126.203-66.508z M108.627-69.475l-0.007,0.012l-0.006,0.013
					l-6.266,13.391l-1.605,3.6c-0.107,0.175-0.318,0.337-0.693,0.456c-0.382,0.124-0.924,0.196-1.64,0.195
					c-0.639,0-1.092-0.082-1.46-0.175c-0.091-0.066-0.166-0.128-0.21-0.178c-0.025-0.029-0.041-0.051-0.047-0.064
					c-0.001-0.006-0.003-0.008-0.004-0.01l0.001-0.002l6.257-13.391l1.708-3.618l0.001-0.002c0.059-0.141,0.261-0.314,0.672-0.437
					c0.406-0.123,0.995-0.198,1.757-0.198c0.564,0,1.001,0.056,1.273,0.14c0.136,0.043,0.226,0.092,0.268,0.129
					c0.042,0.041,0.035,0.044,0.038,0.054C108.661-69.554,108.658-69.524,108.627-69.475z M275.407-71.602
					c0.001-1.136-0.687-2.139-1.91-2.976l-0.023-0.016l-0.026-0.011c-0.276-0.106-0.61-0.312-0.919-0.516l-0.009-0.007l-0.011-0.005
					c-2.512-1.326-6.311-1.979-11.294-1.98h-1.52c-3.779,0-7.471,0.334-11.048,0.984c-3.054,0.536-5.977,1.397-8.809,2.381
					c-0.991,0.319-2.305,0.874-4.037,1.729l-0.076,0.038l-2.777,5.816h18.874l1.413-2.844l0.005-0.017
					c0.023-0.078,0.108-0.179,0.277-0.284c0.165-0.105,0.399-0.205,0.666-0.307l0.002-0.001l0.004-0.002
					c0.489-0.202,0.966-0.205,1.637-0.204c0.324,0,0.583,0.001,0.778,0.036c0.197,0.037,0.324,0.092,0.448,0.214l0.04,0.042
					l0.054,0.018c0.095,0.031,0.146,0.067,0.169,0.094c0.021,0.026,0.029,0.042,0.031,0.092c0,0.032-0.007,0.079-0.027,0.139
					l-1.514,3.329l-7.347,1.592l-10.821,2.379c-2.079,0.433-4.271,1.308-6.559,2.493l-0.005,0.004l-0.007,0.004
					c-1.642,0.979-2.972,1.843-3.865,2.848c-0.79,0.765-1.352,1.548-1.798,2.312l-0.007,0.011l-0.006,0.009
					c-0.441,0.97-0.67,1.895-0.67,2.767c-0.004,1.58,0.768,2.964,2.276,4.036v0.1l0.104,0.073c2.413,1.673,6.223,2.538,11.528,2.539
					c1.113,0,2.637-0.228,4.695-0.552c0.974-0.161,1.793-0.351,2.444-0.558c0.316-0.099,0.592-0.201,0.828-0.308l-0.216,0.551
					h17.227l11.42-24.528C275.278-70.6,275.407-71.108,275.407-71.602z M250.309-54.007c-0.044,0.06-0.204,0.179-0.422,0.276
					c-0.352,0.165-0.841,0.312-1.246,0.414c-0.203,0.051-0.385,0.092-0.52,0.121c-0.067,0.014-0.122,0.025-0.161,0.031
					c-0.021,0.004-0.037,0.006-0.047,0.008h-0.002c-1.391,0.004-2.438-0.128-2.979-0.507l-0.004-0.004l-0.003-0.002
					c-0.308-0.198-0.453-0.426-0.456-0.706c0-0.139,0.037-0.3,0.129-0.482c0.393-0.762,1.43-1.503,3.232-2.036h0.005l0.638-0.211
					c1.146-0.202,2.389-0.473,3.621-0.751L250.309-54.007z M238.149-87.57H219.43l-0.341,0.74l-0.668,1.425l-3.142,6.768h18.797
					L238.149-87.57z M210.166-80.208h0.02l0.298-0.638l3.15-6.724h-18.598l-5.421,11.631c-2.454-0.539-5.322-0.752-8.831-0.856
					h-1.573c-3.283,0-6.468,0.683-9.324,1.927l0,0c-2.965,1.246-4.836,2.844-5.809,4.717l-0.003,0.006l-8.567,18.402
					c-0.277,0.574-0.421,1.136-0.421,1.68c-0.002,1.118,0.623,2.106,1.775,2.877c0.447,0.34,0.819,0.58,1.381,0.817
					c1.606,0.689,3.879,1.03,6.593,1.032c2.363,0,4.507-0.109,6.401-0.229h0.008l0.005-0.001c1.924-0.221,3.379-0.442,4.498-0.558
					c0.161,0.004,0.568,0.1,1.06,0.505l0.067,0.054h17.177l1.005-2.16l13.887-29.851L210.166-80.208z M186.273-68.78l-7.286,15.462
					c-0.209,0.4-0.505,0.688-0.94,0.894c-0.438,0.204-1.025,0.315-1.791,0.314c-0.586,0.002-1.014-0.069-1.263-0.181
					c-0.125-0.056-0.201-0.117-0.246-0.177c-0.044-0.059-0.065-0.118-0.065-0.207c-0.001-0.101,0.035-0.247,0.128-0.424l0.002-0.005
					l7.303-15.808c0.215-0.3,0.509-0.602,1.13-0.904c0.544-0.219,1.067-0.319,1.594-0.32c0.324,0,0.58,0.028,0.774,0.096
					c0.195,0.071,0.334,0.17,0.469,0.355l0.013,0.018l0.015,0.016c0.177,0.178,0.218,0.305,0.223,0.488
					C186.333-69.057,186.312-68.929,186.273-68.78z M213.281-74.366l-0.065,0.14l-13.351,28.66h18.823l13.379-28.799L213.281-74.366
					L213.281-74.366z M320.916-70.274c0.11-0.365,0.168-0.719,0.168-1.065c0.001-0.632-0.202-1.225-0.605-1.755
					c-0.229-0.433-0.561-0.779-1.072-1.087c-1.655-1.259-4.231-1.847-7.887-1.848c-2.933,0-5.667,0.202-8.11,0.503
					c-2.326,0.256-4.169,0.456-5.519,0.594c-1.348,0.134-2.211,0.208-2.538,0.207c-0.235,0-0.445-0.023-0.608-0.067
					c-0.164-0.039-0.278-0.102-0.328-0.154l-0.015-0.014l-0.019-0.013c-0.177-0.122-0.234-0.262-0.232-0.337
					c0-0.029,0.006-0.049,0.015-0.064l0.18-0.354h-11.861l-14.088,30.163h18.605l10.597-22.653c0.188-0.406,0.501-0.716,0.955-0.936
					c0.453-0.22,1.051-0.342,1.777-0.342c0.522-0.002,0.898,0.075,1.11,0.189c0.106,0.057,0.173,0.121,0.214,0.185
					c0.041,0.063,0.063,0.136,0.063,0.235c0,0.119-0.035,0.275-0.123,0.464l-10.684,22.857h18.608l4.731-10.2l0.004-0.005
					c0.036-0.09,0.063-0.17,0.093-0.242l0.011-0.025l0.024-0.147l0.011-0.023l6.518-14.047L320.916-70.274z M159.661-66.665
					l4.506-9.681h-0.382c-1.006,0.001-2.016,0-2.936,0.104c-1.677,0.125-3.041,0.232-4.3,0.457l-0.012,0.001l-0.012,0.005
					c-0.743,0.21-1.881,0.525-3.16,1.042l-0.307-0.936h-17.825l-3.111,6.686l-0.004,0.01c-0.103,0.298-0.205,0.583-0.33,0.843
					l-1.409,2.888l-1.974,4.237l-5.289,11.444h-0.001c-0.041,0.082-0.112,0.183-0.182,0.309l-0.004,0.006l-1.713,3.684h18.823
					l8.066-17.3c0.546-1.214,1.753-2.161,3.662-2.812c1.905-0.647,4.496-0.986,7.736-0.986L159.661-66.665L159.661-66.665z"/>
			</g>
		</g>
		<g>
			<path fill="#FFFFFF" d="M378.217-49.562c-3.673,0.363-9.589,0.953-15.555,1.555c-7.846,0.793-15.795,1.619-18.73,1.981
				l33.406,1.457c-0.073-0.414-0.098-0.853-0.111-1.283C377.195-46.967,377.579-48.372,378.217-49.562z"/>
			<path fill="#FFFFFF" d="M389.248-65.279c-0.038-0.281-0.045-0.588,0.081-0.973c0.343-1.051,1.001-2.038,1.771-3.101
				c0.006-0.006,0.013-0.004,0.02-0.006c0.012-0.02,0.026-0.041,0.038-0.057c0.018-0.03,0.037-0.061,0.054-0.09
				c-2.196,0.175-9.279,0.745-16.448,1.342c-6.901,0.571-13.909,1.175-16.607,1.466l30.95,1.907l0.17-0.312
				c-0.011-0.051-0.019-0.105-0.026-0.16C389.25-65.268,389.248-65.273,389.248-65.279z"/>
			<path fill="#FFFFFF" d="M395.449-87.127c0.204-0.227,0.433-0.449,0.687-0.665c-3.411,0.177-22.147,1.157-22.542,1.298
				l20.692,1.182c0.051-0.101,0.102-0.203,0.152-0.3C394.712-86.148,395-86.627,395.449-87.127z"/>
		</g>
		<g>
			<path fill="#FFFFFF" d="M440.609-69.413c-0.974-0.427-2.214-0.63-3.459-0.785c-0.342-0.044-1.956-0.147-2-0.149
				c-0.825-0.045-1.924-0.024-2.102-0.02c-1.49,0.03-3.065,0.097-4.719,0.401c-0.719,0.134-1.524,0.29-2.186,0.496
				c-0.763,0.232-1.076,0.248-1.674,0.425c-1.142,0.336-1.686,0.764-2.554,1.201l-0.822,0.478c-0.431,0.208-0.849,0.313-1.111,0.423
				c0,0-0.752,0.075-1.383,0.652c-0.036,0.035-0.07,0.066-0.104,0.097c-0.026,0.024-0.941,0.85-0.941,0.85l1.364-1.561
				c0,0-0.713,0.07-1.297,0.505c-0.59,0.436-1.588,1.312-1.588,1.309c0.002,0,0.004-0.002,0.004-0.005
				c0.011-0.079,0.276-0.547,0.276-0.547c0.075-0.117,0.161-0.235,0.263-0.348c0.268-0.301,0.958-0.902,0.958-0.902
				c-0.422,0.024-0.8,0.067-1.052,0.106c-0.904,0.131-0.287,0.031-0.842,0.153c-0.156-0.023-0.304-0.045-0.454-0.073
				c-0.402-0.078-0.771-0.174-0.986-0.412c-0.213-0.229-0.332-0.506-0.509-0.759c-0.091-0.137-0.244-0.22-0.281-0.368
				c-0.002-0.016-0.01-0.036-0.013-0.056c0.004-0.036,0.091-0.681,0.21-1.008c0.011-0.036,0.029-0.081,0.048-0.128
				c-0.025-0.002-0.122,0.016-0.286-0.033c-0.202-0.057-0.451-0.24-0.451-0.24s0.037-0.057,0.044-0.068
				c0.103-0.166,0.328-0.478,0.524-0.478c0.024,0,0.045,0.001,0.066,0.011c0.06,0.026,0.041,0.035,0.159,0.035
				c0.122-0.001,0.374-0.118,0.374-0.118s0.376-0.553,0.387-0.582c0.016-0.03-0.026-0.05-0.026-0.05l-0.755-0.141l-0.004-0.002
				c0,0-0.422-0.381-0.381-0.517c0.004-0.013,0.041-0.02,0.079-0.02c0.045,0,0.11,0.011,0.192,0.033
				c0.267,0.075,0.522,0.098,0.734,0.098c0.279,0,0.488-0.039,0.565-0.057c0.075-0.063,0.262-0.216,0.264-0.221
				c0.024-0.071-0.01-0.158-0.158-0.284c-0.364-0.296-0.671-0.732-0.691-0.78c0.014,0.01,0.036,0.023,0.064,0.049
				c0.314,0.269,1.304,0.456,1.304,0.456l0.685-0.175c0.066-0.037,0.134-0.075,0.198-0.112c0.049-0.02,0.169-0.103,0.174-0.105
				c0.026-0.07,0.019-0.134-0.112-0.178c-0.19-0.066-0.233-0.131-0.435-0.257c-0.199-0.125-0.582-0.572-0.616-0.604
				c0.104,0.073,0.232,0.157,0.389,0.239c0.483,0.254,1.17,0.352,1.17,0.352l0.197-0.155c0,0,0.164-0.139,0.534-0.223l0.373-0.014
				c0.025-0.004,0.257-0.038,0.363-0.054c0.141-0.002,0.253-0.004,0.339-0.004c0.082,0,0.145,0.001,0.192,0.001
				c0.138-0.046,0.266-0.086,0.387-0.124c0,0,1.315-0.21,2.014-0.332c0.657-0.116,1.309-0.236,1.877-0.365
				c0.555-0.125,1.022-0.247,1.345-0.387c0.853-0.263,1.529-0.418,2.727-0.996c1.216-0.583,2.116-1.2,3.188-1.838
				c1.082-0.639,1.657-0.946,2.395-1.505c0.365-0.281,0.825-0.66,1.238-1.045c0.417-0.388,0.783-0.769,0.989-1.108
				c0.584-0.984,0.769-1.927,0.768-2.725c0-0.24-0.018-0.465-0.042-0.676c-0.033-0.239-0.173-0.749-0.449-1.34
				c-0.281-0.58-0.685-1.219-1.299-1.601c-0.622-0.393-1.075-0.559-1.881-0.666c-0.318-0.045-0.716-0.085-1.155-0.088
				c-0.797-0.008-2.265,0.389-2.265,0.389c-0.911,0.264-1.734,0.636-2.541,1c-1.335,0.604-2.859,1.714-3.482,2.221
				c-1.611,1.126-3.02,2.521-4.228,3.883c-1.256,1.333-2.48,3.035-3.075,4.036l-0.11,0.185c0,0-0.35,0.322-0.35,0.324l-0.002,0.001
				c-0.002,0.001-0.007,0.005-0.007,0.005c-0.06,0.033-0.369,0.173-0.553,0.488c-0.011,0.018-0.023,0.033-0.031,0.05
				c0,0-0.004,0.001-0.005,0.001c-0.296,0.154-0.564,0.369-0.798,0.615c-0.004,0.001-0.155,0.172-0.224,0.254
				c-0.411,0.238-0.75,0.506-1.075,0.779c-0.292,0.055-0.685,0.4-0.97,0.523c-0.062,0.031-0.201,0.056-0.301,0.094
				c-0.23,0.084-0.448,0.245-0.758,0.33c-0.508,0.143-1.047,0.213-1.656,0.413c-0.756,0.251-1.727,0.762-2.041,0.792
				c-0.315,0.028-0.651,0.041-0.839,0.045c-0.147,0.005-0.152-0.005-0.399-0.005c-0.247,0-0.793,0.205-1.244,0.316
				c0,0-0.295,0.063-0.408,0.072c-0.112,0.007-0.37-0.019-0.37-0.019c-0.242-0.084-0.461-0.208-0.682-0.277
				c-0.371-0.121-0.61-0.247-0.697-0.507c0,0,0.031-0.235-0.038-0.355c-0.068-0.118-0.111-0.133-0.111-0.133
				c-0.001,0-0.001,0-0.001,0s0.137-0.19,0.155-0.309c0.017-0.117-0.06-0.363-0.06-0.363s-0.503,0.577-1.452,1.247
				c-0.438,0.305-0.811,0.402-1.078,0.438c-0.167,0.024-0.515-0.039-0.515-0.039l0.147,0.408h-0.002
				c-0.007,0.004-0.326,0.113-0.908,0.11c0,0-0.364,0.016-0.641-0.072c-0.273-0.088-0.216-0.205-0.216-0.205l1.345-0.316
				l0.189-0.334l-0.328-0.29l-1.255-0.279l0.997-0.404l-2.186-0.783c0.01,0.014,0.051,0.809,0.214,1.138c-0.001,0-0.001,0-0.001,0
				c-0.042,0.043-0.081,0.082-0.117,0.123c-0.069,0.078-0.23,0.294-0.251,0.324c-0.155,0.234-0.378,0.752-0.398,0.785
				c-0.022,0.029-0.219,0.319-0.24,0.369c-0.124,0.25-0.245,0.441-0.37,0.636c-0.026,0.039-0.327,0.479-0.337,0.482
				c-0.393,0.518-0.736,0.991-1.045,1.488c-0.312,0.498-0.57,0.994-0.749,1.505c-0.133,0.373-0.133,0.664-0.1,0.934v0.018
				c0.062,0.497,0.229,0.908-0.072,1.532c-0.004,0.001-0.005,0.002-0.007,0.005c-0.066,0.043-0.136,0.085-0.202,0.128
				c-0.012,0.007-0.02,0.012-0.032,0.022c-0.069,0.043-0.135,0.09-0.202,0.133c-0.011,0.008-0.022,0.014-0.03,0.022
				c-0.139,0.092-0.276,0.187-0.413,0.284c-0.007,0.007-0.017,0.013-0.026,0.019c-0.066,0.05-0.133,0.099-0.201,0.146
				c-0.005,0.005-0.01,0.008-0.016,0.013c-0.136,0.101-0.267,0.207-0.4,0.312c-0.005,0.005-0.012,0.011-0.019,0.016
				c-0.133,0.109-0.26,0.217-0.385,0.327l-0.002,0.002c-0.062,0.054-0.123,0.11-0.18,0.168c-0.004,0.004-0.007,0.007-0.012,0.011
				c-0.119,0.111-0.232,0.228-0.342,0.343c0,0-0.001,0.002-0.001,0.005c-0.055,0.057-0.109,0.115-0.157,0.176
				c-0.002,0.001-0.004,0.001-0.007,0.004c-0.1,0.117-0.192,0.234-0.282,0.353c-0.001,0.002-0.002,0.006-0.005,0.01
				c-0.07,0.093-0.135,0.189-0.195,0.287c-0.118,0.189-0.217,0.382-0.291,0.574c-0.143,0.374-0.332,0.885-0.321,1.223
				c0.001,0.138,0.08,0.251,0.086,0.412c0.014,0.457-0.039,1.033-0.137,1.519c-0.061,0.302-0.001,0.609-0.199,0.959
				c-0.016,0.025-0.039,0.049-0.065,0.076c-0.014,0.013-0.029,0.025-0.044,0.038l-0.001,0.002c-0.013,0.013-0.026,0.026-0.039,0.038
				c-0.06,0.053-0.112,0.1-0.117,0.119c-0.02,0.019-0.029,0.033-0.02,0.038c0.561-0.159,1.016-0.215,1.401-0.215
				c0.277,0,0.518,0.028,0.737,0.069c0.675,0.128,1.124,0.359,1.192,0.874c-0.004,0-0.006,0.001-0.01,0c-0.007,0-0.013,0-0.019,0
				c-0.013-0.001-0.027-0.001-0.041-0.002c-0.002,0-0.005-0.001-0.01-0.001h-0.001c-0.006,0-0.01,0.001-0.018,0.002
				c-0.011,0.001-0.026,0.001-0.042,0.006c0.001,0.01,0.001,0.019,0.002,0.026c0,0,0,0,0,0.002
				c-0.008,0.001-0.014,0.002-0.021,0.004c0.01,0.131,0.107,0.439,0.259,0.493c0.062-0.118,0.453-0.306,0.501-0.362
				c0.051-0.033,0.086-0.076,0.115-0.119c0.033-0.045,0.058-0.094,0.084-0.146c0-0.002,0.001-0.002,0.001-0.005
				c0.008-0.017,0.014-0.032,0.019-0.045v-0.002c0.017-0.005,0.028-0.006,0.035-0.006c0.019,0,0.019,0.012,0.023,0.018
				c0.002,0.012,0.004,0.024,0.019,0.024c0.005,0,0.011-0.001,0.018-0.004c0.112-0.086,0.196-0.192,0.383-0.252
				c0.336-0.38,0.961-0.624,1.479-0.919c0.066-0.001,0.134-0.008,0.216-0.023c0.18-0.23,0.421-0.266,0.684-0.369
				c-0.005,0,0.021-0.016,0.064-0.035c0.047-0.017,0.111-0.031,0.19-0.031c0.103,0,0.229,0.027,0.361,0.125
				c0.053,0.179,0.357,0.076,0.512,0.135c0.156,0.06,0.244,0.239,0.387,0.359c0.38,0.326,0.849,0.572,1.194,0.9l-0.006,0.001
				c0.048,0.047,0.11,0.106,0.166,0.159c0.205,0.229,0.404,0.472,0.697,0.688c0.131,0.088,0.254,0.229,0.363,0.38
				c0.055,0.079,0.252,0.158,0.429,0.248c0.017,0.011,0.037,0.024,0.049,0.038c0.084,0.098,0.07,0.061,0.156,0.185l0.011,0.25
				c-0.069,0.167-0.14,0.352-0.011,0.459c-0.011,0.091-0.025,0.189-0.069,0.304c-0.011,0.025-0.03,0.176-0.049,0.379
				c-0.008,0.069-0.011,0.136-0.019,0.207c-0.007,0.137-0.018,0.279-0.023,0.419c0,0.056-0.007,0.11-0.007,0.158
				c-0.001,0.186,0,0.357,0.018,0.491h0.025c0.032,0.285,0.082,0.57,0.17,0.82c0.423,1.244,1.278,2.207,2.048,3.181
				c0.749,0.948,1.765,1.643,2.823,2.412c1.01,0.731,2.139,1.28,3.539,1.716c0.776,0.235,1.703,0.417,2.756,0.417
				c0.749,0,1.561-0.09,2.427-0.32c0.627-0.161,0.935-0.339,1.413-0.58c0.298-0.155,0.626-0.293,0.882-0.438
				c0.768-0.438,1.401-0.977,1.851-1.574c0.097-0.123,0.184-0.25,0.26-0.376c0.005-0.005,0.008-0.01,0.011-0.016
				c0.039-0.067,0.08-0.136,0.116-0.204c0.004-0.008,0.01-0.017,0.014-0.023c0.033-0.067,0.066-0.133,0.096-0.201
				c0.004-0.01,0.01-0.022,0.014-0.031c0.029-0.068,0.057-0.134,0.081-0.199c0.004-0.01,0.01-0.022,0.013-0.034
				c0.023-0.067,0.045-0.136,0.066-0.204c0.002-0.008,0.006-0.019,0.006-0.03c0.02-0.069,0.039-0.138,0.052-0.209
				c0.001-0.01,0.002-0.017,0.005-0.026c0.014-0.071,0.026-0.143,0.036-0.216c0-0.006,0-0.011,0.001-0.016
				c0.011-0.076,0.016-0.153,0.019-0.229c0.067-1.598-1.062-2.4-2.069-3.007c-0.98-0.585-1.975-1.076-3.021-1.577
				c-0.002,0-0.004-0.001-0.006-0.001c-0.067-0.036-0.837-0.423-2.066-1.008c-0.579-0.326-1.477-0.725-2.187-1.007
				c-0.004-0.002-0.006-0.005-0.01-0.006c-0.026-0.01-0.051-0.02-0.078-0.03c-0.006,0-0.014-0.005-0.02-0.006
				c-0.021-0.011-0.045-0.022-0.067-0.029c-0.011-0.004-0.02-0.007-0.031-0.012c-0.02-0.006-0.041-0.016-0.059-0.023
				c-0.011-0.004-0.024-0.008-0.035-0.013c-0.019-0.007-0.036-0.013-0.054-0.022c-0.013-0.004-0.025-0.007-0.036-0.013
				c-0.018-0.005-0.035-0.012-0.051-0.017c-0.011-0.005-0.024-0.01-0.038-0.014c-0.013-0.005-0.027-0.01-0.042-0.014
				c-0.013-0.004-0.026-0.011-0.041-0.013c-0.011-0.005-0.024-0.01-0.036-0.014c-0.016-0.005-0.027-0.01-0.039-0.014
				s-0.024-0.006-0.036-0.012c-0.014-0.002-0.027-0.007-0.042-0.012c-0.008-0.002-0.017-0.006-0.026-0.01
				c-0.019-0.005-0.041-0.012-0.06-0.019c-0.211-0.125-0.825-0.34-1.133-0.368c-0.127-0.036-0.301-0.068-0.534-0.208
				c-0.095-0.106-0.121-0.225-0.22-0.338c-0.459,0.042-1.306,0.21-1.837,0.252c-0.029,0-0.053,0.006-0.079,0.008
				c-0.022,0.001-0.042,0.005-0.063,0.011c-0.006,0.001-0.013,0.001-0.022,0.002c-0.013,0.001-0.026,0.005-0.041,0.006
				c-0.011,0.005-0.022,0.006-0.029,0.01c-0.012,0.002-0.026,0.005-0.041,0.008c-0.008,0.002-0.02,0.005-0.027,0.008
				c-0.016,0.002-0.03,0.006-0.044,0.011c-0.008,0.002-0.02,0.005-0.031,0.01c-0.013,0.002-0.025,0.006-0.037,0.01
				c-0.013,0.002-0.024,0.005-0.036,0.01c-0.014,0.002-0.026,0.008-0.039,0.012c-0.014,0.005-0.024,0.007-0.037,0.012
				c-0.011,0.004-0.025,0.008-0.038,0.013c-0.012,0.002-0.024,0.008-0.036,0.011c-0.014,0.005-0.029,0.011-0.044,0.013
				c-0.011,0.006-0.022,0.011-0.035,0.012c-0.016,0.006-0.029,0.012-0.044,0.017c-0.012,0.004-0.023,0.008-0.034,0.014
				c-0.023,0.006-0.042,0.013-0.064,0.021c-0.017,0.006-0.031,0.011-0.047,0.019c-0.014,0.006-0.027,0.011-0.041,0.017
				c-0.014,0.004-0.029,0.011-0.042,0.014c-0.012,0.005-0.024,0.008-0.038,0.014c-0.013,0.004-0.026,0.01-0.04,0.014
				c-0.013,0.006-0.026,0.011-0.039,0.016c-0.012,0.007-0.024,0.012-0.037,0.017c-0.013,0.004-0.025,0.011-0.039,0.016
				c-0.013,0.006-0.024,0.01-0.038,0.017c-0.013,0.005-0.026,0.011-0.038,0.016c-0.011,0.006-0.023,0.012-0.036,0.016
				c-0.013,0.005-0.025,0.01-0.039,0.016c-0.011,0.006-0.024,0.01-0.037,0.016c-0.011,0.006-0.024,0.011-0.036,0.015
				c-0.013,0.006-0.024,0.011-0.035,0.014c-0.013,0.005-0.026,0.012-0.039,0.018c-0.012,0.005-0.019,0.01-0.031,0.013
				c-0.014,0.007-0.03,0.014-0.043,0.02c-0.007,0.002-0.014,0.005-0.023,0.01c-0.022,0.008-0.042,0.019-0.065,0.029
				c-0.005,0.001-0.008,0.004-0.013,0.005c-0.018,0.008-0.033,0.016-0.05,0.024c-0.005,0.004-0.011,0.005-0.016,0.006
				c-0.014,0.007-0.03,0.014-0.044,0.02c-0.006,0.002-0.01,0.007-0.015,0.008c-0.012,0.006-0.025,0.013-0.037,0.018
				c-0.006,0.002-0.012,0.007-0.018,0.01c-0.012,0.004-0.025,0.008-0.035,0.013c-0.005,0.002-0.01,0.007-0.013,0.007
				c-0.013,0.006-0.025,0.012-0.037,0.019c-0.005,0-0.005,0.002-0.006,0.002c-0.013,0.005-0.025,0.012-0.036,0.017
				c-0.004,0.001-0.004,0.002-0.006,0.004c-0.038,0.017-0.07,0.031-0.091,0.042c0.203-0.174,0.974-0.813,1.572-0.928
				c0.169-0.031,0.222-0.06,0.192-0.076c0,0,0,0,0.001,0c0.007-0.001,0.011-0.005,0.016-0.007c0,0,0.002-0.001,0.002-0.002
				c0.004-0.002,0.006-0.005,0.006-0.006s0.002-0.001,0.002-0.001c0.001-0.004,0.001-0.005-0.002-0.005c0-0.001,0-0.004-0.001-0.005
				c-0.001,0-0.002-0.001-0.006-0.004c-0.001-0.001-0.004-0.001-0.006-0.001c-0.002-0.004-0.007-0.004-0.013-0.005
				c0-0.001-0.002-0.001-0.005-0.002c-0.005,0-0.014,0-0.022-0.001c-0.001,0-0.001,0-0.001,0c-0.032-0.005-0.08-0.005-0.136-0.002
				c-0.02,0.001-0.041,0.002-0.06,0.004c-0.008,0-0.017,0-0.024,0c-0.013,0.002-0.029,0.004-0.042,0.006
				c-0.012,0.001-0.023,0.002-0.036,0.004c-0.025,0.002-0.053,0.007-0.078,0.01c-0.351,0.051-0.843,0.177-1.26,0.435
				c-0.215,0.13-0.333,0.185-0.395,0.195c-0.006,0.001-0.011,0-0.017,0c-0.006-0.002-0.011-0.002-0.017-0.004
				c-0.001-0.001-0.002-0.005-0.004-0.006c-0.002-0.004-0.005-0.007-0.005-0.013c0-0.001-0.001-0.001-0.001-0.004
				c0.001-0.01,0.004-0.016,0.007-0.026c0.001,0,0.001-0.002,0.001-0.004c0.005-0.011,0.012-0.023,0.019-0.033
				c0.094-0.141,0.293-0.345,0.293-0.345s0.909-0.713,1.804-0.887c0.763-0.154,1.041-0.512,1.105-0.613
				c0.025-0.035,0.036-0.056,0.036-0.056s-0.002,0-0.005,0c-0.004,0-0.295-0.029-0.522-0.029l-0.622,0.035
				c-0.241,0.027-0.509,0.084-0.674,0.153c-0.019,0.008-0.745,0.298-0.747,0.3c-0.482,0.183-1.017,0.37-1.29,0.469
				c-0.005,0.001-0.146,0.05-0.167,0.057c0.123-0.122,0.595-0.558,1.632-1.065c0.982-0.479,1.287-0.586,1.5-0.611
				c0.161-0.023,0.279,0.02,0.279,0.02l0.012-0.199c0,0-0.164-0.283,0.043-0.558c0.165-0.219,0.229-0.296,0.447-0.467
				c0.388-0.308,1.157-0.549,1.771-0.804c0.441-0.186,0.89-0.369,1.317-0.533c0.463-0.179,0.93-0.332,1.349-0.517
				c0.462-0.204,0.845-0.425,1.241-0.579c0.527-0.332,0.991-0.434,1.416-0.484c0.595-0.035,1.874-0.095,2.723-0.192
				c0.324-0.038,0.897-0.118,0.897-0.118s0.964-0.217,1.28-0.213c0.302,0.002,0.492,0.074,0.855,0.096
				c0.376,0.023,0.785,0.014,1.026,0.119c0.511,0.228,0.802,0.213,1.225,0.478c0.406,0.25,1.045,0.651,1.697,0.832
				c2.723,0.746,4.756,0.633,7.473,0.669c0.038,0,0.075,0,0.117,0c0.9,0,2.166-0.122,3.218-0.251
				c1.279-0.163,2.598-0.365,4.168-0.836c2.151-0.641,3.526-1.538,4.317-2.673c0,0,0.592-0.703,0.814-2.006
				C442.632-68.23,441.654-68.957,440.609-69.413z"/>
			<path fill="#FFFFFF" d="M395.983-77.444c0.244,0.94,0.412,1.183,0.642,1.494c0.232,0.31,0.622,0.756,1.409,1.069
				c0.813,0.324,1.282,0.344,2.288,0.344c0.09,0,0.306-0.029,0.306-0.029s-0.388-0.162-1.032-0.365
				c-0.48-0.149-0.785-0.306-0.894-0.367l1.865-0.055c0,0-1.249-0.171-1.742-0.386c-0.079-0.032-0.263-0.123-0.367-0.178
				c0.336,0.027,1.488,0.106,1.488,0.106s-0.171-0.498-0.18-0.624c0.283,0.06,0.551,0.085,0.809,0.085
				c0.566,0,1.072-0.124,1.538-0.252c1.608-0.443,2.329-1.297,3.201-2.453c0.994-1.106,1.936-2.428,2.479-3.57
				c0.147-0.309,0.283-0.595,0.394-0.915c0.387-1.114,0.626-2.265,0.621-3.112c-0.007-0.767-0.182-1.32-0.603-1.945
				c-0.362-0.536-0.757-0.926-1.557-1.211c-0.328-0.116-1.026-0.189-1.225-0.191c-0.769-0.013-1.858,0.192-1.94,0.215
				c-1.798,0.457-3.265,1.396-4.196,2.4c-0.234,0.248-0.422,0.492-0.589,0.74c-0.166,0.242-0.313,0.488-0.454,0.745
				c-0.486,0.896-1.023,2.065-1.352,2.947c-0.169,0.451-0.455,1.354-0.455,1.362c-0.006,0.001-0.189,0.685-0.202,0.74
				c-0.279,1.077-0.413,1.706-0.339,2.571C395.91-77.999,395.918-77.692,395.983-77.444z"/>
			<path fill="#FFFFFF" d="M390.244-54.308c0.084-0.221,0.356-0.479,0.455-0.708c-0.11-0.035-0.074-0.3-0.029-0.399
				c-0.43-0.296-1.005-0.519-1.601-0.596c-0.467-0.064-0.942-0.042-1.372,0.101c-0.079,0.032-0.221,0.098-0.393,0.185
				c0.259-0.045,0.714-0.101,1.12-0.055c0.032,0.002,0.06,0.006,0.091,0.01c1.143,0.154,1.361,0.848,1.361,0.848
				s-0.874-0.312-1.485-0.394c-0.043-0.005-0.082-0.008-0.122-0.014c-0.609-0.049-1.486,0.121-1.486,0.121l-1.106,0.327
				c0,0,1.432-0.17,2.208-0.065c0.112,0.018,0.215,0.036,0.293,0.063c0.621,0.228,1.072,0.761,1.072,0.761s-0.459-0.352-1.359-0.475
				c-0.133-0.016-0.275-0.028-0.429-0.035c-0.916-0.038-1.776,0.174-2.335,0.363l-0.018-0.002c-0.705,0.211-1.255,0.517-1.708,0.877
				c-0.051,0.037-0.137,0.119-0.137,0.119c-0.653,0.562-1.088,1.22-1.455,1.825c-0.722,1.193-1.183,2.655-1.177,3.795
				c0.005,0.617,0.032,1.25,0.213,1.802c0.328,1.01,0.833,2.231,2.897,2.286c2.478,0.069,3.758-1.088,4.461-2.689
				c0.339-0.781,0.574-1.476,0.872-2.215c0,0,0.281-0.627,0.413-0.959c0.127-0.289,0.26-0.582,0.352-0.826
				c0.273-0.72,0.583-1.499,0.61-2.114c0.019-0.133,0.026-0.256,0.019-0.358c-0.037-0.173-0.163-0.656-0.33-0.791
				C390.106-53.692,390.205-54.258,390.244-54.308z"/>
		</g>
		<g>
			<path d="M430.645-79.572c-0.031-0.035-0.063-0.068-0.092-0.103c0.171-0.143,0.338-0.289,0.505-0.433
				c0.071,0.073,0.032,0.038,0.105,0.11c0.033,0.033,0.039,0.053,0.095,0.043c0.01-0.001,0.017-0.001,0.025-0.002
				C431.091-79.834,430.883-79.713,430.645-79.572z"/>
			<path d="M431.659-80.206c-0.129,0.018-0.239,0.031-0.28,0.035c-0.05-0.056-0.054-0.063-0.104-0.118
				c0.1-0.087,0.271-0.223,0.37-0.306c0.062,0.062,0.147,0.146,0.235,0.229C431.805-80.31,431.731-80.257,431.659-80.206z"/>
			<path d="M432.436-80.801c-0.085-0.11-0.156-0.216-0.203-0.285c0.13-0.104,0.257-0.207,0.386-0.312
				c0.051,0.062,0.036,0.044,0.094,0.109c0.017,0.026,0.103,0.047,0.103,0.047c0.01-0.002,0.072-0.006,0.152-0.012
				C432.804-81.109,432.625-80.953,432.436-80.801z"/>
			<path d="M433.188-81.457c-0.115,0.006-0.242,0.017-0.282,0.02l-0.107-0.107c0.055-0.048,0.215-0.173,0.273-0.22
				c0.048,0.057,0.13,0.143,0.199,0.225C433.245-81.513,433.216-81.485,433.188-81.457z"/>
			<path d="M433.825-82.148c-0.03,0.051-0.087,0.123-0.164,0.208c-0.056-0.073-0.106-0.136-0.142-0.185
				c0.117-0.092,0.23-0.183,0.344-0.27c0.029,0.03,0.041,0.051,0.057,0.073C433.892-82.263,433.86-82.207,433.825-82.148z"/>
			<path d="M434.263-84.768c-0.357-0.028-0.665,0.059-0.781,0.091c-0.106,0.018-0.211,0.072-0.207,0.151
				c0.005,0.104,0.209,0.045,0.303,0.058c0.168-0.004,0.493,0.03,0.777,0.191c0.019,0.318-0.002,0.624-0.061,0.925
				c-0.786-0.933-1.877-0.521-2.12-0.436c-0.117,0.027-0.221,0.091-0.209,0.173c0.013,0.107,0.222,0.007,0.322,0.012
				c0.312-0.026,1.139,0.023,1.411,0.72c-0.287,0.213-0.598,0.45-0.713,0.539c-0.91-0.946-2.111-0.463-2.388-0.358
				c-0.133,0.036-0.251,0.111-0.234,0.204c0.018,0.118,0.256,0,0.373,0c0.339-0.041,1.236-0.018,1.586,0.671
				c-0.316,0.253-0.671,0.534-0.804,0.639c-1.059-0.967-2.392-0.322-2.692-0.186c-0.137,0.048-0.262,0.137-0.24,0.227
				c0.028,0.117,0.279-0.024,0.399-0.038c0.384-0.081,1.423-0.162,1.814,0.592c-0.443,0.365-0.958,0.791-1.032,0.855l-0.01,0.002
				c-1.174-0.928-2.559-0.173-2.87-0.016c-0.147,0.059-0.27,0.155-0.244,0.245c0.034,0.121,0.294-0.043,0.423-0.066
				c0.401-0.107,1.49-0.258,1.948,0.478c-0.273,0.233-0.65,0.515-1.009,0.829c-0.03-0.031-0.038-0.031-0.07-0.056
				c-1.546-0.841-3.063,0.205-3.396,0.429c-0.066,0.035-0.124,0.076-0.168,0.119c-0.192-0.021-0.381-0.049-0.566-0.079
				c3.384-2.87,6.803-5.389,10.203-7.534C434.123-85.165,434.207-84.945,434.263-84.768z"/>
			<path d="M432.512-86.067c0.028,0.018,0.09,0.066,0.191,0.016l0.005-0.004h0.006c0.068-0.045,0.085-0.101,0.085-0.142
				c0.005-0.039-0.006-0.085-0.019-0.121c-0.022-0.061-0.048-0.118-0.073-0.172c0.029-0.017,0.057-0.032,0.086-0.05
				c0.185,0.066,0.344,0.154,0.57,0.292c0.044,0.029,0.092,0.067,0.136,0.11c-0.008,0.03-0.008,0.062-0.011,0.092
				c0.006,0.081,0.02,0.156,0.042,0.221c0.007,0.019,0.01,0.034,0.02,0.053c-0.251,0.152-0.504,0.313-0.75,0.471
				c-0.053-0.075-0.112-0.173-0.198-0.225c-0.046-0.025-0.084-0.043-0.142-0.016c-0.074,0.038-0.078,0.088-0.087,0.131
				c-0.016,0.115,0.023,0.272,0.041,0.354c-0.309,0.202-0.62,0.402-0.924,0.608c-0.062-0.074-0.125-0.172-0.219-0.228
				c-0.041-0.021-0.078-0.041-0.141-0.018c-0.069,0.041-0.076,0.091-0.082,0.129c-0.014,0.121,0.03,0.293,0.054,0.381
				c-0.396,0.261-0.787,0.53-1.182,0.805c0-0.002-0.002-0.002-0.005-0.007h-0.005l-0.014-0.004
				c-0.075-0.012-0.172-0.141-0.266-0.202c-0.029-0.021-0.083-0.027-0.128-0.008c-0.066,0.038-0.102,0.094-0.116,0.145
				c-0.007,0.051-0.006,0.097,0.007,0.137c0.024,0.092,0.075,0.162,0.118,0.229c-0.464,0.331-0.929,0.668-1.398,1.007
				c-0.129-0.036-0.282-0.072-0.358-0.153c0,0-0.154-0.085-0.203-0.063c-0.082,0.046-0.106,0.109-0.125,0.159
				c-0.002,0.032,0.021,0.154,0.032,0.168c0.044,0.082,0.107,0.176,0.178,0.242c-0.647,0.481-1.294,0.979-1.94,1.485
				c-0.16-0.047-0.342-0.166-0.523-0.181c-0.023-0.007-0.061-0.01-0.104,0.008c-0.063,0.028-0.092,0.08-0.103,0.128
				c-0.014,0.054-0.008,0.081-0.006,0.118c0.001,0.011,0.001,0.018,0.004,0.025c0.005,0.032,0.019,0.049,0.025,0.062
				c0.038,0.07,0.117,0.179,0.174,0.258c-0.678,0.541-1.421,1.175-2.138,1.794c-0.562-0.168-1.04-0.406-1.339-0.727
				c0.491-0.395,0.983-0.787,1.47-1.164c0.018,0.072,0.047,0.176,0.075,0.241c0.007,0.017,0.018,0.034,0.044,0.063
				c0.026,0.02,0.059,0.047,0.111,0.055c0.029,0,0.049-0.001,0.076-0.016c0.049-0.019,0.084-0.063,0.098-0.099
				c0.028-0.056,0.031-0.098,0.035-0.134c0.006-0.165,0.025-0.327,0.049-0.486c0.7-0.545,1.404-1.077,2.106-1.591
				c0,0.006,0.005,0.014,0.005,0.019c0.016,0.072,0.036,0.157,0.063,0.219c0.008,0.011,0.02,0.037,0.048,0.06
				c0.026,0.022,0.059,0.037,0.094,0.045l0.004,0.002h0.002c0.024,0.004,0.056,0,0.093-0.017c0.061-0.022,0.097-0.088,0.103-0.142
				c0.048-0.167,0.043-0.38,0.072-0.534c0.51-0.37,1.017-0.731,1.53-1.078c0.019,0.072,0.049,0.173,0.082,0.24
				c0.006,0.016,0.061,0.09,0.115,0.104c0.01,0,0.053,0.045,0.119,0.008c0.112-0.061,0.115-0.252,0.115-0.252
				s0.012-0.288,0.027-0.419c0.427-0.289,0.855-0.577,1.279-0.857c0.035,0.082,0.078,0.177,0.15,0.233
				c0.02,0.016,0.043,0.03,0.065,0.039c0.042,0.008,0.081,0.002,0.123-0.012c0.06-0.03,0.111-0.098,0.104-0.159
				c0.001-0.101,0.001-0.259-0.025-0.374c0.369-0.236,0.742-0.473,1.113-0.704c0.06,0.088,0.141,0.208,0.259,0.246
				c0.036,0.008,0.078,0.007,0.119-0.012c0.063-0.024,0.107-0.094,0.105-0.151c0-0.057-0.008-0.112-0.029-0.166
				c-0.015-0.06-0.039-0.112-0.06-0.164c0.296-0.184,0.6-0.363,0.893-0.542C432.378-86.193,432.433-86.122,432.512-86.067z"/>
			<path d="M421.222-79.858c0.333-0.37,1.282-1.4,1.52-2.71c0.361-0.319,0.733-0.616,1.111-0.879l0.044-0.032l0.039-0.031
				c0.202-0.165,0.481-0.377,0.806-0.609c-0.078,0.662-0.379,1.341-0.57,1.692c-0.098,0.175-0.451,0.537-0.325,0.593
				c0.097,0.041,0.298-0.141,0.456-0.339c0.268-0.343,1.022-1.291,1.174-2.448c0.406-0.261,0.836-0.519,1.243-0.726
				c-0.053,0.554-0.253,1.093-0.392,1.394c-0.081,0.171-0.389,0.528-0.262,0.571c0.102,0.033,0.276-0.148,0.413-0.342
				c0.201-0.284,0.695-1.025,0.867-1.919c0.382-0.171,0.769-0.342,1.168-0.494c-0.05,0.356-0.142,0.676-0.22,0.878
				c-0.063,0.168-0.328,0.519-0.201,0.551c0.098,0.026,0.256-0.152,0.373-0.342c0.129-0.217,0.41-0.686,0.57-1.274
				c0.389-0.154,0.769-0.219,0.971-0.246c0,0-0.048,0.17-0.07,0.236c-0.06,0.168-0.322,0.513-0.193,0.547
				c0.102,0.025,0.258-0.153,0.367-0.344c0.067-0.112,0.176-0.3,0.285-0.537c0.059-0.016,0.109-0.027,0.134-0.035
				c0.195-0.036,0.417-0.054,0.654-0.054c0.002,0,0.007,0,0.011,0c-0.002,0.049,0.01,0.084,0.048,0.093
				c0.053,0.016,0.113-0.023,0.177-0.088c0.152,0.008,0.31,0.023,0.483,0.044c-3.536,2.049-7.097,4.5-10.647,7.33
				c-0.061-0.118-0.115-0.236-0.159-0.355C421.141-79.771,421.183-79.815,421.222-79.858z"/>
			<path d="M416.277-50.037c0.166,0.116,0.307,0.226,0.424,0.338c-0.001,0-0.001,0.001-0.002,0.001
				c-0.191-0.056-0.379-0.115-0.574-0.178C416.173-49.93,416.225-49.983,416.277-50.037z"/>
			<path d="M415.765-50.368c0.06,0.035,0.116,0.068,0.17,0.105c-0.086,0.093-0.174,0.189-0.235,0.251
				c-0.125-0.043-0.351-0.105-0.48-0.151c0.036-0.033,0.13-0.14,0.164-0.172c0.09-0.018,0.204-0.042,0.322-0.067
				C415.724-50.39,415.745-50.378,415.765-50.368z"/>
			<path d="M415.001-50.804c0.161,0.087,0.32,0.178,0.479,0.269c-0.033,0.01-0.066,0.016-0.102,0.022
				c-0.016,0.005-0.038,0.011-0.057,0.02c-0.045,0.017-0.091,0.049-0.122,0.085c-0.051,0.054-0.106,0.106-0.155,0.162
				c-0.135-0.051-0.266-0.1-0.406-0.158C414.752-50.536,414.875-50.67,415.001-50.804z"/>
			<path d="M414.607-51.015c-0.122,0.142-0.296,0.327-0.399,0.436c-0.102-0.045-0.303-0.118-0.411-0.167
				c0.149-0.161,0.171-0.188,0.271-0.223c0.088-0.016,0.264-0.056,0.444-0.093C414.545-51.047,414.576-51.031,414.607-51.015z"/>
			<path d="M413.639-51.504c0.209,0.101,0.417,0.207,0.625,0.312c-0.073,0.018-0.146,0.031-0.219,0.049
				c-0.029,0.006-0.049,0.013-0.073,0.026c-0.041,0.016-0.086,0.046-0.117,0.078c-0.069,0.071-0.137,0.142-0.204,0.209
				c-0.161-0.07-0.313-0.149-0.465-0.229C413.332-51.208,413.484-51.355,413.639-51.504z"/>
			<path d="M413.208-51.716c-0.153,0.153-0.349,0.334-0.45,0.429c-0.123-0.069-0.324-0.19-0.436-0.264
				c0.045-0.048,0.119-0.128,0.229-0.184c0.092-0.017,0.258-0.051,0.442-0.086C413.064-51.785,413.138-51.751,413.208-51.716z"/>
			<path d="M412.069-52.263c0.22,0.105,0.442,0.209,0.639,0.303c-0.039,0.01-0.072,0.017-0.094,0.023
				c-0.024,0.002-0.055,0.008-0.09,0.029c-0.041,0.017-0.121,0.062-0.147,0.092c-0.076,0.073-0.124,0.112-0.203,0.181
				c-0.158-0.1-0.297-0.197-0.453-0.302C411.787-51.999,411.931-52.135,412.069-52.263z"/>
			<path d="M411.4-52.583c0.078,0.041,0.169,0.081,0.261,0.125c-0.165,0.124-0.324,0.248-0.364,0.283
				c-0.107-0.111-0.205-0.168-0.309-0.288C410.988-52.462,411.178-52.517,411.4-52.583z"/>
			<path d="M410.507-53.043c0.134,0.069,0.254,0.137,0.35,0.198l0.068,0.039l0.069,0.035c0,0,0.032,0.014,0.086,0.039
				c-0.07,0.023-0.123,0.037-0.134,0.043c-0.043,0.018-0.09,0.05-0.125,0.081c-0.092,0.08,0.093-0.082-0.006,0
				c-0.112-0.097-0.285-0.279-0.426-0.423C410.429-53.034,410.469-53.039,410.507-53.043z"/>
			<path d="M407.727-52.4c0.076-0.02,0.154-0.044,0.235-0.075c0.401-0.127,0.789-0.246,0.991-0.309
				c0.045,0.045,0.121,0.011,0.192-0.047c0.081-0.016,0.164-0.035,0.244-0.049c0.072,0.134,0.211,0.333,0.22,0.339l0.14,0.148
				c0.139,0.147,0.285,0.283,0.424,0.404l0.137,0.112c-0.984,0.623-1.946,0.701-2.284,0.689c-0.129,0.01-0.287-0.087-0.419,0.028
				c-0.107,0.087-0.042,0.148,0.069,0.173c0.216,0.079,1.137,0.457,3.069-0.545c0.103,0.074,0.198,0.141,0.281,0.202l0.193,0.128
				c0.115,0.072,0.227,0.147,0.35,0.219l0.112,0.069c-0.891,0.597-1.865,0.774-2.234,0.81c-0.142,0.023-0.346-0.039-0.462,0.076
				c-0.096,0.094-0.005,0.139,0.13,0.144c0.257,0.041,1.332,0.235,3.069-0.748c0.105,0.053,0.21,0.112,0.327,0.166l0.235,0.117
				c0.11,0.049,0.226,0.103,0.35,0.158l0.014,0.005c-0.762,0.534-1.647,0.793-2.012,0.868c-0.155,0.044-0.413,0.024-0.503,0.145
				c-0.076,0.09,0.045,0.113,0.204,0.098c0.285-0.002,1.398,0,2.846-0.888c0.117,0.049,0.238,0.096,0.357,0.14l0.27,0.1
				c0.085,0.034,0.176,0.064,0.271,0.092l0.019,0.01c-0.654,0.491-1.439,0.783-1.783,0.884c-0.161,0.057-0.448,0.068-0.513,0.187
				c-0.059,0.092,0.082,0.1,0.256,0.067c0.283-0.037,1.37-0.152,2.595-0.952c0.103,0.03,0.204,0.062,0.3,0.091l0.305,0.087
				c0.091,0.029,0.184,0.056,0.275,0.081l0.171,0.045c-0.615,0.491-1.368,0.811-1.711,0.925c-0.158,0.067-0.466,0.099-0.521,0.214
				c-0.039,0.091,0.112,0.09,0.288,0.049c0.291-0.054,1.385-0.229,2.527-1.035c0.08,0.019,0.152,0.038,0.228,0.056l0.204,0.048
				c0.018,0.105,0.023,0.213,0.018,0.331c-0.002,0.087-0.017,0.177-0.034,0.267c-0.331,0.244-0.652,0.427-0.851,0.525
				c-0.153,0.088-0.485,0.172-0.492,0.283c-0.008,0.084,0.165,0.049,0.344-0.023c0.142-0.047,0.459-0.149,0.85-0.333
				c-0.122,0.262-0.297,0.521-0.521,0.767c-4.298-0.737-8.359-2.514-9.897-4.631C406.943-51.983,407.313-52.213,407.727-52.4z"/>
			<path d="M405.645-50.629c0.031-0.002,0.067-0.014,0.091-0.023c0.147-0.054,0.282-0.099,0.423-0.143
				c0.031,0.035,0.066,0.072,0.1,0.109c0.328,0.37,0.72,0.708,1.158,1.025c-0.073,0.043-0.167,0.101-0.236,0.155
				c-0.018,0.014-0.054,0.043-0.075,0.074c-0.023,0.025-0.036,0.048-0.047,0.072c0.001,0-0.004,0.008-0.006,0.016
				c-0.005,0.045,0.007,0.092,0.125,0.06c0.177-0.03,0.393-0.122,0.546-0.166c0.386,0.253,0.807,0.497,1.268,0.718
				c-0.08,0.052-0.181,0.117-0.252,0.175c-0.018,0.016-0.056,0.044-0.079,0.079c-0.014,0.02-0.017,0.032-0.027,0.045
				c-0.001,0.008-0.001,0.01-0.001,0.017c-0.005,0.013-0.022,0.049,0.022,0.074c0.035,0.016,0.087,0.014,0.152-0.01
				c0.007-0.002,0.019-0.006,0.035-0.013c0.007-0.002,0.01-0.007,0.023-0.01h-0.001l0.017-0.006l0.021-0.005l0.03-0.014
				c0.002,0,0.01-0.004,0.013-0.01c0.049-0.019,0.098-0.041,0.148-0.056c0.086-0.033,0.177-0.057,0.269-0.088
				c0.406,0.189,0.838,0.37,1.292,0.539c-0.082,0.066-0.186,0.15-0.23,0.232c-0.005,0.008-0.014,0.02-0.018,0.034
				c-0.005,0.01-0.006,0.019-0.007,0.03c0.011,0.047,0.044,0.101,0.195,0.061c0.012-0.004,0.023-0.01,0.039-0.018
				c0.111-0.045,0.278-0.115,0.412-0.196c0.412,0.148,0.848,0.285,1.294,0.417c-0.059,0.073-0.16,0.174-0.185,0.262
				c-0.006,0.024-0.008,0.039-0.008,0.056c0.016,0.051,0.078,0.091,0.211,0.055c0.016-0.004,0.036-0.01,0.049-0.016
				c0.15-0.067,0.264-0.16,0.358-0.233c0.371,0.105,0.755,0.205,1.15,0.298c-0.05,0.075-0.115,0.166-0.14,0.247
				c-0.007,0.03-0.025,0.094,0.069,0.121c0.05,0.013,0.105,0.002,0.159-0.013c0.013-0.005,0.03-0.013,0.05-0.017
				c0.142-0.068,0.239-0.159,0.313-0.227c0.454,0.104,0.924,0.204,1.403,0.299c-0.025,0.047-0.079,0.135-0.099,0.215
				c-0.005,0.024-0.006,0.047-0.002,0.072c-0.134,0.091-0.272,0.177-0.418,0.26c-0.129,0.072-0.274,0.14-0.426,0.214
				c-0.029,0.012-0.057,0.025-0.086,0.041c-0.082-0.017-0.16-0.031-0.238-0.048c0.064-0.06,0.181-0.168,0.203-0.254
				c0.01-0.024,0.004-0.045-0.007-0.066c-0.037-0.05-0.131-0.055-0.23-0.024c-0.178,0.056-0.353,0.17-0.454,0.246
				c-0.369-0.076-0.725-0.155-1.075-0.24c0.064-0.069,0.165-0.165,0.193-0.253c0.004-0.007,0.004-0.01,0.004-0.016
				c0.01-0.039,0.002-0.072-0.032-0.087c-0.038-0.012-0.096-0.001-0.15,0.016c-0.168,0.055-0.364,0.166-0.467,0.23
				c-0.422-0.105-0.826-0.214-1.222-0.326c0.073-0.08,0.174-0.178,0.205-0.276c0,0,0.002,0,0-0.002c0-0.002,0.005-0.002,0.006-0.006
				c0.011-0.044,0.007-0.072-0.026-0.082c-0.03-0.016-0.086-0.004-0.141,0.016c-0.162,0.057-0.355,0.162-0.462,0.228
				c-0.476-0.146-0.941-0.297-1.379-0.459c0.007-0.005,0.01-0.016,0.013-0.02l0.007-0.007v-0.006
				c-0.002-0.011,0.001-0.023,0.007-0.034c0.026-0.073,0.125-0.168,0.166-0.256c0-0.002,0.006-0.01,0.007-0.013
				c0.019-0.075-0.075-0.091-0.183-0.067c-0.018,0-0.029,0.01-0.038,0.011c-0.183,0.067-0.295,0.164-0.377,0.24
				c-0.493-0.186-0.955-0.386-1.382-0.6c0.022-0.061,0.041-0.142,0.072-0.216c0.022-0.048,0.047-0.094,0.078-0.127l0.027-0.026
				h-0.007l0.005-0.004l0.002-0.005c0.002-0.008,0.006-0.013,0.004-0.014c0.007-0.014,0.008-0.027,0.02-0.031
				c0.006-0.011,0.011-0.024,0.017-0.029c0.02-0.075-0.074-0.079-0.157-0.063l-0.005,0.005h-0.007
				c-0.012,0.002-0.027,0.007-0.036,0.012c-0.023,0.008-0.041,0.017-0.062,0.025c-0.072,0.029-0.116,0.065-0.129,0.075
				c-0.074,0.062-0.156,0.133-0.228,0.203c-0.551-0.287-1.042-0.594-1.478-0.93c0.001-0.002,0.005-0.006,0.005-0.011
				c0.056-0.118,0.164-0.271,0.226-0.4c0.014-0.031,0.026-0.061,0.033-0.088c0.028-0.057,0.002-0.092-0.081-0.082
				c-0.032,0.008-0.063,0.016-0.091,0.029c-0.022,0.006-0.035,0.013-0.047,0.02l-0.006,0.004h-0.004
				c-0.063,0.03-0.113,0.069-0.115,0.072c-0.074,0.054-0.16,0.128-0.241,0.198c-0.135-0.139-0.203-0.393-0.223-0.687
				C405.371-50.238,405.501-50.431,405.645-50.629z"/>
			<path d="M404.752-48.998c1.802,1.706,5.041,2.854,9.13,3.593c-0.183,0.086-0.362,0.151-0.622,0.22
				c-0.112,0.03-0.222,0.054-0.333,0.08c-0.072-0.139-0.16-0.229-0.214-0.277c-0.068-0.068-0.176-0.112-0.272-0.053
				c-0.127,0.067-0.008,0.246,0.019,0.318c0.007,0.027,0.014,0.061,0.019,0.1c-0.4,0.067-0.799,0.101-1.195,0.107
				c0.096-0.541-0.149-0.887-0.265-0.99c-0.082-0.074-0.205-0.118-0.32-0.054c-0.146,0.081,0.042,0.256,0.067,0.337
				c0.041,0.118,0.039,0.381-0.049,0.694c-0.431-0.025-0.866-0.087-1.296-0.183c0.232-0.713-0.112-1.199-0.252-1.32
				c-0.086-0.076-0.227-0.125-0.353-0.051c-0.162,0.092,0.062,0.208,0.096,0.296c0.055,0.141,0.129,0.491-0.043,0.929
				c-0.022-0.006-0.042-0.011-0.062-0.017c-0.466-0.143-0.897-0.303-1.299-0.476c0.348-0.759-0.032-1.225-0.158-1.358
				c-0.081-0.086-0.214-0.137-0.346-0.066c-0.174,0.093,0.044,0.221,0.064,0.312c0.036,0.146,0.057,0.478-0.094,0.865
				c-0.449-0.222-0.861-0.47-1.254-0.746c0.43-0.81,0.042-1.21-0.09-1.354c-0.075-0.081-0.202-0.133-0.34-0.059
				c-0.167,0.092,0.041,0.213,0.06,0.302c0.031,0.148,0.034,0.427-0.104,0.765c-0.263-0.19-0.511-0.374-0.75-0.556
				C404.498-48.035,404.575-48.494,404.752-48.998z"/>
			<path d="M438.486-63.794c-0.001-0.001-0.001-0.001-0.001-0.001c-0.07-0.091-0.182-0.152-0.285-0.075
				c-0.068,0.05-0.054,0.133-0.022,0.215c-0.303,0.129-0.639,0.254-1.013,0.375c-0.113-0.331-0.337-0.512-0.439-0.594
				c-0.095-0.08-0.236-0.123-0.336-0.041c-0.128,0.106,0.108,0.215,0.15,0.312c0.054,0.097,0.11,0.259,0.133,0.471
				c-0.361,0.104-0.709,0.195-1.053,0.273c-0.036-0.697-0.523-0.99-0.702-1.097c-0.119-0.075-0.279-0.105-0.385-0.011
				c-0.138,0.115,0.143,0.205,0.203,0.3c0.118,0.16,0.265,0.499,0.246,0.943c-0.505,0.103-1.007,0.18-1.529,0.256
				c0.045-0.996-0.627-1.287-0.863-1.405c-0.146-0.073-0.339-0.104-0.457,0.004c-0.15,0.134,0.186,0.225,0.263,0.321
				c0.142,0.17,0.31,0.625,0.281,1.177c-0.818,0.097-1.551,0.162-2.142,0.192c-0.032-1.089-0.982-1.34-1.298-1.432
				c-0.184-0.056-0.415-0.06-0.537,0.062c-0.157,0.149,0.254,0.193,0.363,0.278c0.214,0.166,0.537,0.551,0.571,1.109
				c-0.355-0.005-0.696-0.006-1.032-0.007c-0.056,0-0.109-0.004-0.164-0.004c-0.287-0.092-0.537-0.217-0.782-0.395
				c-0.505-0.368-0.761-0.807-0.847-1.268c4.698-0.533,8.852-0.64,12.338-0.314C438.948-64.029,438.73-63.909,438.486-63.794z"/>
			<path d="M440.522-65.391c-0.017,0.011-0.032,0.022-0.047,0.034c-0.136,0.113-0.328,0.315-0.417,0.42
				c-0.32-0.036-0.635-0.073-0.959-0.096c0.08-0.129,0.17-0.284,0.209-0.416c0.018-0.056,0.031-0.104-0.012-0.128
				c-0.067-0.016-0.129,0.037-0.174,0.069c-0.147,0.113-0.343,0.336-0.435,0.439c-0.418-0.029-0.849-0.053-1.286-0.074
				c0.002-0.002,0.002-0.002,0.005-0.011c0-0.002,0.001-0.007,0.001-0.01c0,0,0-0.002,0-0.01c-0.011-0.068,0.11-0.276,0.153-0.412
				c0.01-0.047,0-0.091-0.041-0.099c-0.06-0.018-0.133,0.012-0.202,0.055c-0.061,0.049-0.11,0.098-0.152,0.151
				c-0.094,0.104-0.164,0.221-0.226,0.319c-0.527-0.016-1.066-0.021-1.616-0.021c0.001-0.134-0.019-0.276,0.045-0.412
				c0.006-0.021,0.024-0.049,0.034-0.068c-0.007,0-0.013,0-0.023,0.001c0.001-0.016,0.002-0.026,0.013-0.039
				c0.019-0.044,0.012-0.088-0.037-0.101c-0.078-0.016-0.157,0.034-0.219,0.068c-0.035,0.031-0.068,0.053-0.09,0.081
				c-0.017,0.014-0.024,0.023-0.035,0.037c-0.029,0.03-0.043,0.05-0.056,0.069c-0.076,0.118-0.148,0.25-0.197,0.369
				c-0.777,0.013-1.576,0.038-2.404,0.084c-0.013-0.152,0.028-0.383-0.029-0.521c-0.004-0.024-0.018-0.048-0.06-0.062
				c-0.062-0.012-0.133,0.02-0.184,0.054c-0.062,0.043-0.097,0.076-0.128,0.108c-0.013,0.013-0.019,0.018-0.026,0.03
				c-0.031,0.032-0.042,0.053-0.055,0.072c-0.06,0.091-0.135,0.246-0.192,0.358c-1.229,0.082-2.509,0.199-3.832,0.35
				c-0.001-0.06,0-0.15-0.005-0.242c-0.011-0.106-0.011-0.205-0.097-0.248c-0.011-0.008-0.028-0.014-0.045-0.019
				c-0.066-0.011-0.137,0.023-0.19,0.054l-0.002,0.001c-0.002,0-0.005,0.004-0.008,0.005c-0.048,0.038-0.093,0.076-0.136,0.121
				c0,0-0.001,0.002-0.005,0.008c-0.036,0.031-0.048,0.059-0.055,0.073c-0.06,0.101-0.121,0.229-0.147,0.328
				c-0.121,0.017-0.245,0.034-0.368,0.049c0.065-0.479,0.257-0.961,0.494-1.407c0.005-0.012,0.012-0.024,0.018-0.034
				c1.204-0.167,2.378-0.303,3.506-0.407c-0.069,0.084-0.159,0.196-0.211,0.275c-0.011,0.017-0.029,0.044-0.041,0.08
				c-0.006,0.038-0.024,0.08-0.006,0.125c0.012,0.019,0.03,0.029,0.059,0.035c0.049,0.011,0.109-0.008,0.153-0.035
				c0.07-0.029,0.113-0.073,0.16-0.106c0.177-0.145,0.348-0.29,0.527-0.429c0.929-0.075,1.828-0.134,2.705-0.167
				c-0.01,0.008-0.012,0.016-0.022,0.024c-0.068,0.081-0.149,0.18-0.199,0.253c-0.011,0.02-0.035,0.052-0.045,0.097
				c-0.014,0.033-0.02,0.07-0.014,0.105c0,0,0,0.001,0,0.004c0,0,0.002,0.004,0.005,0.004c0.01,0.02,0.024,0.038,0.055,0.048
				c0.056,0.011,0.14-0.02,0.201-0.07c0.208-0.129,0.432-0.339,0.615-0.481c0.622-0.019,1.231-0.023,1.825-0.019
				c-0.074,0.093-0.172,0.216-0.236,0.306c-0.014,0.029-0.04,0.062-0.055,0.111c-0.008,0.028-0.016,0.055-0.014,0.078
				c0.004,0.008-0.013,0.07,0.051,0.086c0.005,0,0.012,0,0.02,0.006c0.091,0,0.153-0.049,0.207-0.098
				c0.018-0.017,0.035-0.031,0.051-0.051h0.005c0.007-0.004,0.01-0.005,0.013-0.008c0-0.002,0.002-0.002,0.01-0.005
				c0.002-0.005,0.005-0.008,0.006-0.008c0.007-0.008,0.014-0.019,0.019-0.024c0,0,0-0.002,0.007-0.002
				c0.139-0.133,0.295-0.26,0.449-0.38c0.49,0.012,0.971,0.028,1.437,0.054c-0.079,0.112-0.174,0.242-0.217,0.362
				c-0.008,0.029-0.017,0.056-0.018,0.085c0.001,0.041,0.022,0.068,0.06,0.076c0.044,0.023,0.142-0.012,0.207-0.084
				c0.116-0.106,0.297-0.266,0.427-0.413c0.398,0.031,0.789,0.061,1.177,0.1c-0.088,0.149-0.207,0.334-0.22,0.475
				c0.006,0.038,0.02,0.068,0.05,0.076c0.051,0.024,0.14-0.008,0.21-0.081c0.066-0.06,0.13-0.127,0.189-0.201
				c0.063-0.078,0.124-0.154,0.178-0.226c0.131,0.013,0.262,0.03,0.392,0.048C440.893-66.072,440.754-65.733,440.522-65.391z"/>
			<path d="M427.841-66.803c0.432-0.54,0.954-1.044,1.44-1.535c0.216-0.149,0.435-0.316,0.657-0.501
				c0.724-0.082,1.432-0.128,2.118-0.157c-0.687,0.511-1.403,0.911-1.771,1.078c-0.21,0.096-0.666,0.193-0.699,0.322
				c-0.025,0.102,0.205,0.063,0.447-0.011c0.418-0.135,1.597-0.475,2.86-1.415c0.053-0.001,0.111-0.002,0.165-0.002
				c0.228-0.004,0.453-0.006,0.672-0.006c0.529,0,1.058,0.011,1.587,0.039c-0.549,0.383-1.102,0.664-1.414,0.805
				c-0.192,0.086-0.598,0.162-0.626,0.288c-0.023,0.098,0.183,0.069,0.404,0.006c0.34-0.107,1.255-0.362,2.282-1.059
				c0.339,0.025,0.683,0.055,1.029,0.092c0.173,0.019,0.342,0.038,0.505,0.059c-0.388,0.248-0.746,0.43-0.972,0.531
				c-0.173,0.08-0.553,0.149-0.58,0.266c-0.022,0.09,0.172,0.068,0.376,0.011c0.272-0.084,0.935-0.267,1.712-0.73
				c0.444,0.07,0.839,0.158,1.195,0.255c-0.141,0.08-0.266,0.146-0.363,0.195c-0.167,0.085-0.535,0.165-0.547,0.279
				c-0.017,0.081,0.177,0.057,0.368-0.002c0.17-0.062,0.498-0.167,0.904-0.363c0.168,0.056,0.327,0.115,0.472,0.179
				c0.113,0.049,0.217,0.099,0.308,0.148c-0.133,0.057-0.246,0.119-0.25,0.18c0,0.086,0.191,0.045,0.386-0.031
				c0.022-0.008,0.043-0.018,0.069-0.03c0.339,0.222,0.473,0.432,0.511,0.657C437.406-67.647,432.95-67.494,427.841-66.803z"/>
			<path d="M406.073-88.595c0.116,0.011,0.233,0.037,0.438,0.116c0.288,0.106,0.431,0.254,0.57,0.498
				c-0.308,0.356-0.511,0.641-0.617,0.795c-0.147,0.215-0.219,0.42-0.046,0.394c0.225-0.024,0.414-0.423,0.595-0.602
				c0.061-0.067,0.16-0.16,0.247-0.25c0.143,0.29,0.227,0.548,0.254,0.822c-0.946,0.801-1.398,1.464-1.594,1.743
				c-0.142,0.21-0.216,0.411-0.044,0.392c0.222-0.023,0.414-0.419,0.591-0.596c0.209-0.214,0.578-0.555,1.036-0.93
				c-0.036,0.387-0.119,0.83-0.244,1.305c-1.527,1.046-2.188,1.991-2.43,2.331c-0.14,0.203-0.22,0.4-0.045,0.384
				c0.226-0.015,0.417-0.402,0.595-0.577c0.3-0.301,0.887-0.837,1.656-1.369c-0.019,0.056-0.032,0.107-0.051,0.161
				c-0.091,0.259-0.205,0.507-0.337,0.782c-0.148,0.304-0.336,0.638-0.548,0.977c-0.577,0.397-1.017,0.773-1.348,1.106
				c-0.219-0.104-0.459-0.215-0.739-0.326C405.333-84.03,406.008-86.445,406.073-88.595z"/>
			<path d="M403.091-84.179c-0.105-0.002-0.178-0.004-0.332,0.013c-0.019,0.005-0.119,0.006-0.139,0.008
				c0.162-0.484,0.293-0.954,0.398-1.417c0.181-0.082,0.443-0.189,0.615-0.341c0.037-0.029,0.059-0.059,0.076-0.085
				c0.037-0.062,0.044-0.136-0.087-0.136c-0.019,0-0.053,0.005-0.085,0.01c-0.14,0.019-0.296,0.07-0.429,0.111
				c0.072-0.368,0.122-0.731,0.162-1.087c0.149-0.081,0.309-0.159,0.463-0.264c0.045-0.03,0.124-0.08,0.159-0.14
				c0.016-0.026,0.018-0.044,0.027-0.066c0.001-0.066-0.053-0.09-0.124-0.087c-0.012,0-0.031,0.005-0.055,0.007
				c-0.139,0.025-0.3,0.088-0.435,0.137c0.018-0.283,0.014-0.552,0.014-0.827c0.177-0.056,0.349-0.125,0.53-0.173
				c0.192-0.049,0.381-0.084,0.57-0.111c0.351-0.054,0.647-0.017,0.647-0.017c0,0.296-0.013,0.602-0.039,0.915
				c-0.152,0.066-0.357,0.152-0.524,0.27c-0.06,0.043-0.109,0.087-0.133,0.123c-0.039,0.065,0.02,0.096,0.081,0.099
				c0.068,0.007,0.152-0.004,0.242-0.018c0.104-0.013,0.216-0.033,0.291-0.052c-0.048,0.388-0.11,0.783-0.195,1.186
				c-0.163,0.074-0.375,0.164-0.55,0.282c-0.069,0.044-0.123,0.091-0.146,0.13c-0.041,0.062,0.017,0.09,0.08,0.099
				c0.066,0.002,0.151-0.002,0.235-0.016c0.105-0.012,0.209-0.034,0.283-0.05c-0.121,0.514-0.277,1.035-0.454,1.57
				c-0.018,0.007-0.03,0.016-0.045,0.023l-0.008,0.008l-0.011,0.007c-0.122,0.105-0.384,0.211-0.586,0.338
				c-0.062,0.036-0.105,0.078-0.128,0.115c-0.034,0.06-0.029,0.109,0.018,0.135c0.048,0.017,0.098,0.018,0.153,0.011
				c0.136-0.02,0.293-0.079,0.425-0.127c-0.238,0.626-0.368,0.983-0.688,1.634c-0.042,0.1-0.082,0.176-0.121,0.251
				c-0.332-0.109-0.688-0.195-1.053-0.261c0.053-0.027,0.109-0.055,0.15-0.081c0.085-0.066,0.146-0.142,0.148-0.145
				c0.025-0.061,0.008-0.101-0.079-0.106c-0.017,0-0.1-0.007-0.106-0.007c-0.131-0.005-0.251-0.041-0.361-0.073
				c0.272-0.577,0.307-0.735,0.509-1.292c0.14-0.043,0.32-0.097,0.485-0.187c0.042-0.026,0.086-0.051,0.121-0.081
				c0.045-0.038,0.076-0.072,0.103-0.109C403.194-84.107,403.21-84.181,403.091-84.179z"/>
			<path d="M398.187-82.524c0.02-0.051,0.047-0.117,0.067-0.172c0.966-0.056,1.791,0.107,1.932,0.278
				c0.082,0.062,0.061,0.277,0.272,0.203c0.162-0.059,0.195-0.174,0.161-0.273c-0.024-0.214-0.285-0.894-2.11-0.835
				c0.139-0.32,0.289-0.653,0.447-0.982c0.983-0.122,1.699-0.029,1.896,0.091c0.107,0.045,0.155,0.241,0.363,0.143
				c0.16-0.073,0.156-0.185,0.088-0.266c-0.093-0.162-0.547-0.648-2.065-0.539c0.076-0.146,0.147-0.292,0.221-0.425
				c0.115-0.208,0.227-0.402,0.356-0.591c0.634-0.105,1.146-0.076,1.365-0.041c0.148,0.007,0.3,0.135,0.469,0.021
				c0.137-0.086,0.069-0.164-0.048-0.211c-0.135-0.072-0.547-0.308-1.388-0.276c0.03-0.032,0.047-0.062,0.076-0.097
				c0.382-0.41,0.861-0.774,1.385-1.093c0.203-0.149,0.479-0.267,0.574-0.315c-0.058,1.73-0.515,3.71-1.415,5.759
				c-0.829-0.064-1.595-0.051-2.093-0.005c-0.269,0.024-0.503,0.056-0.721,0.09C398.075-82.212,398.125-82.366,398.187-82.524z"/>
			<path d="M383.74-51.888c0.162-0.068,0.333-0.13,0.509-0.19c-0.048,0.07-0.091,0.137-0.136,0.187
				c-0.197,0.203-0.556,0.537-1.038,0.891C383.266-51.295,383.478-51.602,383.74-51.888z"/>
			<path d="M383.175-44.924c-0.219-0.05-0.386-0.128-0.518-0.229c0.068-0.093,0.115-0.167,0.148-0.219
				c0.078-0.115,0.106-0.226-0.005-0.216c-0.124,0.006-0.21,0.18-0.296,0.288c-0.136-0.155-0.231-0.349-0.32-0.585
				c0.309-0.308,0.467-0.558,0.547-0.682c0.09-0.137,0.123-0.269-0.005-0.254c-0.166,0.008-0.27,0.266-0.382,0.381
				c-0.069,0.066-0.159,0.15-0.269,0.245c-0.005-0.014-0.011-0.029-0.017-0.044c-0.05-0.164-0.082-0.356-0.105-0.562
				c0.589-0.503,0.851-0.92,0.97-1.103c0.1-0.155,0.139-0.306-0.007-0.295c-0.19,0.017-0.309,0.308-0.438,0.436
				c-0.121,0.125-0.308,0.3-0.553,0.497c-0.006-0.118-0.007-0.239-0.007-0.356c-0.002-0.134,0.007-0.271,0.022-0.416
				c0.997-0.728,1.395-1.368,1.558-1.623c0.104-0.178,0.152-0.343-0.014-0.333c-0.208,0.017-0.34,0.344-0.488,0.499
				c-0.184,0.186-0.508,0.483-0.937,0.803c0.111-0.449,0.278-0.922,0.493-1.372c1.376-0.877,1.869-1.693,2.054-1.993
				c0.029-0.052,0.055-0.103,0.069-0.15c0.112-0.03,0.223-0.061,0.336-0.086c-0.168,0.282-0.326,0.56-0.474,0.833
				C383.174-48.984,382.761-46.777,383.175-44.924z"/>
			<path d="M384.776-48.508L384.776-48.508c0,0,0.074,0,0.08,0c0.078-0.006,0.159,0.013,0.246,0.026
				c-0.079,0.345-0.134,0.682-0.168,1.009c-0.083,0.032-0.192,0.066-0.296,0.123c-0.029,0.02-0.054,0.036-0.075,0.051
				c-0.026,0.025-0.036,0.042-0.047,0.062c-0.023,0.038-0.033,0.1,0.085,0.1c0.054-0.002,0.13-0.004,0.213-0.007
				c0.031-0.005,0.066-0.006,0.096-0.01c-0.017,0.28-0.012,0.551,0,0.815c-0.111,0.054-0.269,0.117-0.374,0.211
				c-0.013,0.017-0.023,0.029-0.032,0.047c-0.025,0.039-0.025,0.106,0.103,0.104c0.007,0,0.016-0.004,0.024-0.006
				c0.106-0.005,0.214-0.035,0.304-0.065c0.02,0.209,0.056,0.414,0.098,0.613c-0.09,0.044-0.181,0.094-0.273,0.153
				c-0.023,0.016-0.069,0.045-0.091,0.086c-0.008,0.018-0.016,0.035-0.016,0.055c0.011,0.043,0.066,0.06,0.129,0.052
				c0.005,0,0.005,0,0.01,0c0.112-0.011,0.219-0.044,0.311-0.075c0.01,0.048,0.025,0.096,0.039,0.146
				c-0.339,0.1-0.724,0.152-1.156,0.158c-0.017-0.062-0.034-0.125-0.047-0.189c0.096-0.039,0.221-0.086,0.316-0.156
				c0.033-0.024,0.066-0.05,0.074-0.073c0.028-0.043,0-0.069-0.047-0.074c-0.043-0.007-0.087-0.007-0.14-0.002
				c-0.088,0.006-0.191,0.025-0.263,0.038c-0.042-0.216-0.07-0.438-0.086-0.666c0.102-0.042,0.227-0.094,0.333-0.168
				c0.035-0.028,0.073-0.051,0.088-0.082c0.024-0.033-0.008-0.063-0.054-0.07c-0.036-0.007-0.082-0.005-0.128-0.002
				c-0.092,0.01-0.185,0.024-0.257,0.038c-0.012-0.287-0.002-0.589,0.026-0.896c0.006-0.006,0.034-0.022,0.034-0.022
				c0.058-0.057,0.223-0.128,0.349-0.209c0.043-0.02,0.065-0.047,0.075-0.07c0.024-0.05,0.01-0.087-0.045-0.104
				c-0.031-0.007-0.066-0.008-0.097-0.007c-0.1,0.013-0.196,0.044-0.276,0.078c0.046-0.365,0.122-0.738,0.22-1.114
				c0.133-0.106,0.294-0.238,0.404-0.284l0.065-0.043c0.013-0.008,0.027-0.014,0.042-0.025c0.049-0.023,0.08-0.055,0.091-0.085
				c0.026-0.043,0.006-0.078-0.029-0.099h-0.005c0,0-0.057-0.008-0.081-0.005c-0.012-0.004-0.115,0.02-0.124,0.023
				c-0.075,0.024-0.16,0.056-0.24,0.092c0.165-0.531,0.376-1.083,0.642-1.654c0.173-0.124,0.373-0.155,0.549-0.302
				c0.041-0.025,0.069-0.054,0.088-0.087c0.014-0.025,0.01-0.051-0.007-0.071c-0.035-0.019-0.203-0.004-0.204-0.004
				c-0.065,0.018-0.176,0.044-0.262,0.073c0.06-0.11,0.19-0.326,0.247-0.435c0.103-0.193,0.215-0.394,0.328-0.59
				c0,0,1.103-0.319,1.174-0.295c-0.153,0.266-0.306,0.527-0.441,0.792c-0.193,0.373-0.37,0.738-0.521,1.091
				c-0.066,0.011-0.142,0.025-0.216,0.05c-0.016,0.002-0.06,0.013-0.099,0.037c-0.041,0.023-0.08,0.049-0.116,0.074
				c-0.025,0.029-0.053,0.05-0.062,0.074c-0.019,0.028-0.019,0.067,0.03,0.08c0.074,0.056,0.22,0.061,0.296,0.08
				c-0.171,0.436-0.314,0.869-0.42,1.284c-0.07,0.017-0.162,0.038-0.238,0.06c-0.025,0.005-0.068,0.022-0.111,0.049
				c-0.03,0.016-0.057,0.032-0.079,0.049c-0.006,0.006-0.056,0.037-0.075,0.079c-0.002,0.006-0.005,0.013-0.005,0.02
				C384.678-48.539,384.691-48.508,384.776-48.508z"/>
			<path d="M388.826-51.377l-0.013,0.03c-0.883,0.138-1.191-0.342-1.256-0.535c-0.032-0.063,0.013-0.228-0.112-0.196
				c-0.098,0.032-0.136,0.119-0.131,0.199c-0.023,0.19-0.158,1.053,1.253,1.084c-0.067,0.165-0.122,0.302-0.169,0.42l-0.094,0.253
				c-0.042,0.11-0.08,0.222-0.117,0.328l-0.001,0.007c-0.014,0.037-0.033,0.076-0.048,0.117c-0.897,0.225-1.259-0.209-1.344-0.383
				c-0.037-0.05-0.008-0.195-0.123-0.155c-0.084,0.029-0.107,0.1-0.102,0.169c0,0.161-0.044,0.916,1.302,0.88
				c0.014-0.004,0.03-0.005,0.048-0.007c-0.051,0.118-0.09,0.203-0.094,0.219c-0.097,0.235-0.183,0.462-0.271,0.69
				c-0.682,0.116-1.076-0.173-1.197-0.302c-0.055-0.037-0.06-0.174-0.174-0.129c-0.085,0.031-0.09,0.103-0.061,0.166
				c0.041,0.133,0.179,0.715,1.268,0.701c-0.087,0.221-0.171,0.439-0.263,0.662c-0.484,0.033-0.82-0.123-0.939-0.205
				c-0.067-0.031-0.103-0.141-0.207-0.097c-0.075,0.036-0.07,0.098-0.025,0.149c0.061,0.094,0.271,0.469,1.022,0.503
				c-0.004,0.012-0.008,0.025-0.014,0.039c-0.093,0.209-0.195,0.399-0.305,0.572c-0.203-0.022-0.357-0.067-0.432-0.101
				c-0.073-0.017-0.13-0.111-0.229-0.061c-0.075,0.039-0.054,0.087-0.004,0.125c0.051,0.05,0.187,0.195,0.502,0.276
				c-0.202,0.26-0.43,0.476-0.691,0.644c-0.527-1.822-0.048-4.021,1.195-6.365c0.127-0.241,0.257-0.475,0.405-0.721
				c0.022-0.043,0.048-0.075,0.074-0.105c0.482,0.091,1.062,0.349,1.494,0.694C388.928-51.673,388.878-51.524,388.826-51.377z"/>
		</g>
	</g>
</g>
</svg>
