<?xml version="1.0" encoding="utf-8"?>
<!-- Generator: Adobe Illustrator 17.0.0, SVG Export Plug-In . SVG Version: 6.00 Build 0)  -->
<!DOCTYPE svg PUBLIC "-//W3C//DTD SVG 1.1//EN" "http://www.w3.org/Graphics/SVG/1.1/DTD/svg11.dtd">
<svg version="1.1" id="Слой_1" xmlns="http://www.w3.org/2000/svg" xmlns:xlink="http://www.w3.org/1999/xlink" x="0px" y="0px"
	 width="859.717px" height="487.113px" viewBox="858.344 394.964 859.717 487.113"
	 enable-background="new 858.344 394.964 859.717 487.113" xml:space="preserve">
<g>
	<rect x="953.155" y="408.36" fill="#FFFFFF" width="669.5" height="431"/>
	<g>
		<g>
			<path fill="#C4C4C4" d="M1233.899,853.744c0,0.776,2.071,2.58,5.505,2.58h97.84c3.417,0,5.496-1.803,5.496-2.58
				c0-3.391,2.744-6.152,6.143-6.152h287.404v-424.44c0-15.539-12.649-28.187-28.187-28.187h-639.56
				c-15.539,0-28.179,12.64-28.179,28.187v424.449h287.404C1231.155,847.592,1233.899,850.361,1233.899,853.744z M957.754,423.151
				c0-5.945,4.84-10.785,10.785-10.785h639.551c5.945,0,10.793,4.84,10.793,10.785v412.077H957.754V423.151z"/>
			<path fill="#C4C4C4" d="M1674.56,882.078c27.834,0,43.277-10.854,43.277-10.854l0.224-0.034v-17.437h-369.187
				c0,4.789-5.229,8.714-11.639,8.714h-97.84c-6.402,0-11.639-3.926-11.639-8.714H858.568v17.437l-0.224,0.034
				c0,0,15.453,10.854,43.286,10.854H1674.56z"/>
		</g>
		<circle fill="#939393" cx="1288.203" cy="403.718" r="3.344"/>
	</g>
</g>
</svg>
