<svg width="25" height="25" viewBox="0 0 25 25" fill="none" xmlns="http://www.w3.org/2000/svg">
<path d="M0.099841 0.409208C0.305373 0.0178963 0.760577 -0.116177 1.11657 0.109747L12.719 7.47304C13.075 7.69896 13.197 8.19933 12.9914 8.59064C12.7859 8.98195 12.3307 9.11603 11.9747 8.8901L0.372272 1.52681C0.0162811 1.30089 -0.105691 0.80052 0.099841 0.409208Z" fill="white" fill-opacity="0.3"/>
<path d="M12.0086 8.59079C11.803 8.19948 11.925 7.69911 12.281 7.47319L23.8834 0.109897C24.2394 -0.116027 24.6946 0.0180462 24.9002 0.409358C25.1057 0.80067 24.9837 1.30104 24.6277 1.52696L13.0253 8.89025C12.6693 9.11618 12.2141 8.9821 12.0086 8.59079Z" fill="white" fill-opacity="0.3"/>
<path d="M0.099841 9.36374C0.305373 9.01591 0.760577 8.89673 1.11657 9.09755L12.719 15.6427C13.075 15.8435 13.197 16.2883 12.9914 16.6361C12.7859 16.984 12.3307 17.1031 11.9747 16.9023L0.372272 10.3572C0.0162811 10.1563 -0.105691 9.71157 0.099841 9.36374Z" fill="white" fill-opacity="0.5"/>
<path d="M12.0086 16.6363C11.803 16.2884 11.925 15.8437 12.281 15.6428L23.8834 9.09769C24.2394 8.89686 24.6946 9.01604 24.9002 9.36387C25.1057 9.71171 24.9837 10.1565 24.6277 10.3573L13.0253 16.9024C12.6693 17.1033 12.2141 16.9841 12.0086 16.6363Z" fill="white" fill-opacity="0.5"/>
<path d="M0.099841 17.3637C0.305373 17.0159 0.760577 16.8967 1.11657 17.0976L12.719 23.6427C13.075 23.8435 13.197 24.2883 12.9914 24.6361C12.7859 24.984 12.3307 25.1031 11.9747 24.9023L0.372272 18.3572C0.0162811 18.1563 -0.105691 17.7116 0.099841 17.3637Z" fill="white"/>
<path d="M12.0086 24.6363C11.803 24.2884 11.925 23.8437 12.281 23.6428L23.8834 17.0977C24.2394 16.8969 24.6946 17.016 24.9002 17.3639C25.1057 17.7117 24.9837 18.1565 24.6277 18.3573L13.0253 24.9024C12.6693 25.1033 12.2141 24.9841 12.0086 24.6363Z" fill="white"/>
</svg>
