<svg width="236" height="81" viewBox="0 0 236 81" fill="none" xmlns="http://www.w3.org/2000/svg">
<path d="M103.484 30.8289V36.8357H100.733V23.3994H103.484V29.9002H103.524L108.432 23.3994H111.48V23.5967L106.335 30.2559L111.738 36.6382V36.8357H108.531L103.524 30.8289H103.484Z" fill="white"/>
<path d="M117.278 37.1307C114.012 37.1307 112.251 34.8388 112.251 32.0722C112.251 29.3058 114.012 27.0137 117.278 27.0137C120.603 27.0137 122.325 29.3058 122.325 32.0722C122.325 34.8388 120.603 37.1307 117.278 37.1307ZM117.278 34.9373C118.683 34.9373 119.594 33.989 119.594 32.0722C119.594 30.1557 118.683 29.2073 117.278 29.2073C115.912 29.2073 114.982 30.1557 114.982 32.0722C114.982 33.989 115.912 34.9373 117.278 34.9373Z" fill="white"/>
<path d="M129.944 32.272L132.932 27.3125H135.446V36.8365H132.853V31.3829H132.814L130.973 34.5644H128.855L127.034 31.3829H126.994V36.8365H124.401V27.3125H126.915L129.904 32.272H129.944Z" fill="white"/>
<path d="M143.579 32.272L146.568 27.3125H149.082V36.8365H146.489V31.3829H146.449L144.608 34.5644H142.491L140.67 31.3829H140.63V36.8365H138.037V27.3125H140.551L143.539 32.272H143.579Z" fill="white"/>
<path d="M153.89 32.8427C153.989 34.1866 154.86 34.9966 156.285 34.9966C157.393 34.9966 158.402 34.7398 159.333 34.4036L159.946 36.3204C158.996 36.7748 157.61 37.1304 156.087 37.1304C152.782 37.1304 151.178 34.858 151.178 32.0524C151.178 29.3451 152.841 27.0137 155.948 27.0137C159.036 27.0137 160.401 28.8909 160.401 31.1235C160.401 31.7363 160.323 32.5066 160.263 32.8427H153.89ZM157.947 31.1831C157.967 31.0843 157.967 30.9858 157.967 30.8867C157.967 29.8198 157.472 28.9505 155.967 28.9505C154.622 28.9505 153.949 30.0372 153.889 31.1831H157.947Z" fill="white"/>
<path d="M164.398 27.3103L164.774 28.1599H164.814C165.467 27.666 166.457 27.0137 167.862 27.0137C170.613 27.0137 172.018 29.3058 172.018 32.0722C172.018 34.8388 170.613 37.1307 167.862 37.1307C166.516 37.1307 165.764 36.5577 165.15 36.1428H165.111V40.7469H162.439V27.3106H164.398V27.3103ZM165.111 34.3644C165.606 34.6805 166.338 34.9373 167.031 34.9373C168.614 34.9373 169.287 33.7714 169.287 32.0722C169.287 30.3728 168.614 29.2073 167.031 29.2073C166.338 29.2073 165.606 29.4642 165.111 29.7803V34.3644Z" fill="white"/>
<path d="M176.292 27.3131V31.2254C176.292 31.7786 176.668 32.1737 177.618 32.1737C178.469 32.1737 179.003 32.0552 179.34 31.8376V27.3128H181.932V36.8368H179.34V33.8331C178.687 34.1297 177.934 34.268 176.826 34.268C174.827 34.268 173.699 32.9637 173.699 31.4227V27.3125H176.292V27.3131Z" fill="white"/>
<path d="M186.741 32.8427C186.84 34.1866 187.711 34.9966 189.136 34.9966C190.244 34.9966 191.254 34.7398 192.184 34.4036L192.797 36.3204C191.848 36.7748 190.462 37.1304 188.938 37.1304C185.633 37.1304 184.03 34.858 184.03 32.0524C184.03 29.3451 185.692 27.0137 188.8 27.0137C191.887 27.0137 193.253 28.8909 193.253 31.1235C193.253 31.7363 193.174 32.5066 193.115 32.8427H186.741ZM190.799 31.1831C190.818 31.0843 190.818 30.9858 190.818 30.8867C190.818 29.8198 190.324 28.9505 188.819 28.9505C187.473 28.9505 186.801 30.0372 186.741 31.1831H190.799Z" fill="white"/>
<path d="M199.862 27.0137C201.03 27.0137 202.198 27.3496 202.831 27.5866L202.296 29.622C201.742 29.4441 201.03 29.2071 200.179 29.2071C198.734 29.2071 197.526 29.9974 197.526 32.0719C197.526 34.1468 198.694 34.9371 200.179 34.9371C201.03 34.9371 201.742 34.7 202.296 34.5222L202.831 36.5572C202.198 36.7946 201.03 37.1302 199.862 37.1302C196.616 37.1302 194.795 35.1544 194.795 32.0716C194.795 28.9897 196.616 27.0137 199.862 27.0137Z" fill="white"/>
<path d="M207.5 32.6674V36.8365H204.868V27.3125H207.5V31.8573H207.54L210.925 27.3125H213.795V27.4505L210.074 32.1336L213.973 36.6982V36.8365H211.024L207.54 32.6674H207.5Z" fill="white"/>
<path d="M218.188 33.2799L221.751 27.3125H224.68V36.8365H222.087V30.8689H222.028L218.465 36.8365H215.536V27.3125H218.128V33.2799H218.188Z" fill="white"/>
<path d="M229.488 32.8427C229.587 34.1866 230.458 34.9966 231.883 34.9966C232.992 34.9966 234.001 34.7398 234.931 34.4036L235.545 36.3204C234.595 36.7748 233.209 37.1304 231.685 37.1304C228.38 37.1304 226.777 34.858 226.777 32.0524C226.777 29.3451 228.44 27.0137 231.547 27.0137C234.634 27.0137 236 28.8909 236 31.1235C236 31.7363 235.921 32.5066 235.861 32.8427H229.488ZM233.545 31.1831C233.565 31.0843 233.565 30.9858 233.565 30.8867C233.565 29.8198 233.07 28.9505 231.566 28.9505C230.221 28.9505 229.547 30.0372 229.488 31.1831H233.545Z" fill="white"/>
<path d="M108.412 54.5199C108.412 54.8162 108.432 54.8755 108.729 54.8755H109.421V56.6932C109.006 56.7722 108.61 56.8315 108.036 56.8315C107.007 56.8315 106.473 56.4366 106.136 55.7053H106.096C105.463 56.2391 104.196 56.8908 103.029 56.8908C100.891 56.8908 99.8022 55.6263 99.8022 53.8873C99.8022 51.773 101.148 50.7651 104.513 50.7651H105.8V50.3304C105.8 49.1449 104.75 48.9671 104.177 48.9671C103.128 48.9671 101.94 49.2434 101.01 49.6586L100.377 47.6233C101.386 47.1689 102.831 46.7734 104.316 46.7734C107.067 46.7734 108.412 48.1765 108.412 50.6265V54.5199ZM104.79 52.4845C103.029 52.4845 102.356 52.939 102.356 53.6505C102.356 54.4408 102.811 54.7965 103.623 54.7965C104.316 54.7965 105.245 54.5399 105.8 54.1445V52.4845H104.79Z" fill="white"/>
<path d="M115.933 47.0723C118.05 47.0723 119.396 47.8425 119.396 49.641C119.396 50.807 118.782 51.38 118.07 51.7159V51.7356C119.04 52.032 119.832 52.7235 119.832 53.9092C119.832 55.7862 118.525 56.5966 116.131 56.5966H111.262V47.0725H115.933V47.0723ZM113.854 50.9055H115.339C116.546 50.9055 116.764 50.4511 116.764 49.9176C116.764 49.4039 116.566 48.91 115.339 48.91H113.854V50.9055ZM113.854 54.6993H115.774C116.902 54.6993 117.199 54.2248 117.199 53.6521C117.199 53.0791 116.902 52.5849 115.774 52.5849H113.854V54.6993Z" fill="white"/>
<path d="M129.291 47.0723V49.1073H126.421V56.5963H123.828V49.1073H120.998V47.0723H129.291Z" fill="white"/>
<path d="M135.366 56.8905C132.101 56.8905 130.339 54.5986 130.339 51.832C130.339 49.0656 132.101 46.7734 135.366 46.7734C138.692 46.7734 140.414 49.0656 140.414 51.832C140.414 54.5986 138.692 56.8905 135.366 56.8905ZM135.366 54.6971C136.772 54.6971 137.682 53.7487 137.682 51.832C137.682 49.9155 136.772 48.9671 135.366 48.9671C134.001 48.9671 133.07 49.9155 133.07 51.832C133.07 53.7487 134.001 54.6971 135.366 54.6971Z" fill="white"/>
<path d="M148.033 52.0317L151.021 47.0723H153.535V56.5963H150.942V51.1426H150.902L149.062 54.3242H146.944L145.123 51.1426H145.084V56.5963H142.491V47.0723H145.004L147.993 52.0317H148.033Z" fill="white"/>
<path d="M160.638 56.8905C157.372 56.8905 155.611 54.5986 155.611 51.832C155.611 49.0656 157.372 46.7734 160.638 46.7734C163.964 46.7734 165.685 49.0656 165.685 51.832C165.685 54.5986 163.964 56.8905 160.638 56.8905ZM160.638 54.6971C162.044 54.6971 162.954 53.7487 162.954 51.832C162.954 49.9155 162.043 48.9671 160.638 48.9671C159.273 48.9671 158.342 49.9155 158.342 51.832C158.342 53.7487 159.273 54.6971 160.638 54.6971Z" fill="white"/>
<path d="M170.118 48.9259C170.731 48.2344 171.82 47.6812 173.245 47.6812C175.976 47.6812 177.52 49.5582 177.52 52.226C177.52 54.775 175.838 56.8891 172.513 56.8891C169.108 56.8891 167.465 54.775 167.465 51.1983C167.465 45.883 168.692 43.6896 171.721 43.0573C173.225 42.7412 176.154 42.6424 177.025 42.4844V44.8951C176.233 45.1127 173.74 45.1127 172.513 45.3298C170.494 45.7052 170.098 46.8906 170.038 48.9259H170.118ZM172.513 49.8743C171.088 49.8743 170.197 50.7242 170.197 52.2257C170.197 53.7273 171.088 54.6957 172.513 54.6957C173.898 54.6957 174.789 53.7273 174.789 52.2257C174.789 50.7242 173.918 49.8743 172.513 49.8743Z" fill="white"/>
<path d="M182.308 53.0396L185.871 47.0723H188.8V56.5963H186.207V50.6289H186.148L182.585 56.5963H179.656V47.0723H182.249V53.0396H182.308Z" fill="white"/>
<path d="M198.062 49.107H195.133L194.915 51.7551C194.598 55.8452 193.213 56.7346 190.541 56.7346V54.5807C191.609 54.5807 192.342 54.1461 192.5 51.5378L192.738 47.0723H200.675V56.5963H198.062V49.107Z" fill="white"/>
<path d="M205.918 53.0396L209.481 47.0723H212.41V56.5963H209.817V50.6289H209.758L206.195 56.5963H203.266V47.0723H205.859V53.0396H205.918Z" fill="white"/>
<path d="M40.0704 76.321C20.1472 76.321 3.80569 59.8945 3.80569 40.0042C3.80569 35.5344 4.58939 31.2882 6.10053 27.3212L27.3107 69.9514C27.5903 70.5136 27.9262 70.9571 28.5977 70.9571C29.2694 70.9571 29.6392 70.5026 29.8849 69.9514L39.6226 48.1056C39.7349 47.8824 39.8465 47.6586 40.0704 47.6586C40.2944 47.6586 40.406 47.8824 40.518 48.1056L50.256 69.9514C50.5017 70.5021 50.8718 70.9571 51.5432 70.9571C52.2147 70.9571 52.5514 70.512 52.8302 69.9514L74.0406 27.3212C75.5515 31.2882 76.3349 35.5344 76.3349 40.0042C76.3352 59.8945 59.9934 76.321 40.0704 76.321ZM40.0704 31.7912C39.8465 31.7912 39.7349 31.5676 39.6226 31.3441L28.2061 5.75484C31.8998 4.41386 35.9292 3.68763 40.0704 3.68763C44.2117 3.68763 48.2411 4.41386 51.9351 5.75484L40.518 31.3441C40.4058 31.5674 40.2944 31.7912 40.0704 31.7912ZM28.4854 58.0505C28.2615 58.0505 28.1496 57.8273 28.0379 57.604L9.56978 20.4492C12.8717 15.4206 17.2928 11.1744 22.6094 8.21297L35.8726 37.7137C36.0965 38.2723 36.4324 38.384 36.8802 38.384H43.2601C43.7079 38.384 44.0435 38.2723 44.2677 37.7137L57.5312 8.21297C62.8478 11.1744 67.2698 15.4206 70.5711 20.4492L52.103 57.604C51.991 57.8273 51.8788 58.0505 51.6552 58.0505C51.431 58.0505 51.3196 57.8273 51.2073 57.604L44.268 41.7361C44.0438 41.1775 43.7082 41.0657 43.2604 41.0657H36.8805C36.4327 41.0657 36.0968 41.1775 35.8729 41.7361L28.9335 57.604C28.8213 57.8273 28.7096 58.0505 28.4854 58.0505ZM40.0704 80.0083C62.2323 80.0083 80.1409 62.1293 80.1409 40.0042C80.1409 17.879 62.2323 0 40.0704 0C17.9086 0 0 17.879 0 40.0042C0 62.1293 17.9083 80.0083 40.0704 80.0083Z" fill="white"/>
</svg>
