<svg width="221" height="40" viewBox="0 0 221 40" fill="none" xmlns="http://www.w3.org/2000/svg">
<g clip-path="url(#clip0)">
<path d="M100.415 14.8398H95.1377V34.164H100.415V14.8398Z" fill="black"/>
<path d="M87.6644 14.8391L82.5002 28.899L77.3359 14.8391H72.063L79.1647 34.1633H80.5675H84.4306H85.8356L92.9357 14.8391H87.6644Z" fill="black"/>
<path d="M119.037 19.0972V14.8393H112.72V9.50879H107.449V14.8393H103.278V19.0972H107.449V27.4102C107.449 31.6999 109.597 34.5609 115.066 34.5609C117.183 34.5609 119.037 33.7896 119.037 33.7896L118.398 29.6139C118.398 29.6139 117.359 29.9222 116.083 29.9222C114.518 29.9222 112.72 29.2509 112.72 27.0843V19.0972H119.037Z" fill="black"/>
<path d="M68.1368 34.1639H73.7502L63.3523 5.85864H62.5111H60.5849H59.2827L48.8848 34.1639H54.4992L56.4824 28.7635H66.1477L68.1368 34.1639ZM58.0477 24.4981L61.3207 15.6014L64.5884 24.4981H58.0477Z" fill="black"/>
<path d="M131.13 14.3445C125.416 14.3445 120.78 18.8816 120.78 24.4691C120.78 30.0605 125.416 34.5943 131.13 34.5943C136.841 34.5943 141.483 30.0599 141.483 24.4691C141.483 18.8816 136.841 14.3445 131.13 14.3445ZM131.13 29.7453C128.194 29.7453 125.81 27.4146 125.81 24.5412C125.81 21.6662 128.194 19.3345 131.13 19.3345C134.072 19.3345 136.451 21.6662 136.451 24.5412C136.451 27.4141 134.072 29.7453 131.13 29.7453Z" fill="black"/>
<path d="M101.179 9.17913C101.179 11.0574 99.6561 12.5775 97.781 12.5775C95.9 12.5775 94.3794 11.0574 94.3794 9.17913C94.3794 7.30406 95.9 5.78076 97.781 5.78076C99.6561 5.78076 101.179 7.30406 101.179 9.17913Z" fill="black"/>
<path d="M17.7691 8.88321C17.7691 13.7904 13.793 17.7696 8.8859 17.7696C3.97875 17.7696 0 13.7904 0 8.88321C0 3.97822 3.97875 0 8.8859 0C13.793 0 17.7691 3.97822 17.7691 8.88321Z" fill="#55ADE7"/>
<path d="M40.0017 29.1922C40.0017 35.1617 35.1607 40.0005 29.1907 40.0005C23.2234 40.0005 18.3872 35.1622 18.3872 29.1922C18.3872 23.2222 23.2234 18.3828 29.1907 18.3828C35.1607 18.3828 40.0017 23.2222 40.0017 29.1922Z" fill="#9FC762"/>
<path d="M36.1504 8.88316C36.1504 12.7258 33.0344 15.8429 29.1907 15.8429C25.3518 15.8429 22.2363 12.7258 22.2363 8.88316C22.2363 5.0421 25.3518 1.92773 29.1907 1.92773C33.0344 1.92773 36.1504 5.0421 36.1504 8.88316Z" fill="#D96C6C"/>
<path d="M13.9195 29.1923C13.9195 31.9721 11.6647 34.2216 8.88597 34.2216C6.10724 34.2216 3.85242 31.9721 3.85242 29.1923C3.85242 26.4125 6.10724 24.1631 8.88597 24.1631C11.6647 24.1631 13.9195 26.4125 13.9195 29.1923Z" fill="#8072B0"/>
<path d="M167.88 34.1521H165.468C165.201 34.1521 164.982 34.0833 164.809 33.9461C164.635 33.8084 164.509 33.6379 164.429 33.4335L162.83 29.1971H154.558L152.959 33.4335C152.888 33.611 152.764 33.7756 152.586 33.9262C152.408 34.0774 152.191 34.1527 151.933 34.1527H149.509L157.116 14.97H160.273L167.88 34.1521ZM161.991 26.9589L159.34 19.9519C159.243 19.6856 159.136 19.3769 159.021 19.0267C158.905 18.6755 158.794 18.2957 158.687 17.8875C158.59 18.3049 158.486 18.6889 158.374 19.0402C158.264 19.3909 158.155 19.6991 158.048 19.9659L155.411 26.9595H161.991V26.9589Z" fill="black"/>
<path d="M176.41 14.9695C177.636 14.9695 178.683 15.0873 179.554 15.3229C180.424 15.5579 181.139 15.893 181.699 16.3287C182.258 16.7633 182.669 17.2937 182.931 17.9203C183.193 18.5464 183.324 19.25 183.324 20.0315C183.324 20.485 183.255 20.9217 183.118 21.344C182.98 21.7657 182.766 22.161 182.478 22.5295C182.189 22.8979 181.827 23.2293 181.392 23.5219C180.957 23.815 180.442 24.0592 179.847 24.255C182.564 24.8322 183.924 26.2753 183.924 28.5845C183.924 29.4021 183.77 30.1497 183.464 30.8296C183.157 31.509 182.713 32.0947 182.132 32.588C181.55 33.0807 180.833 33.4647 179.98 33.7401C179.127 34.0155 178.155 34.1532 177.063 34.1532H170.029V14.9695H176.41ZM173.146 17.4077V23.4019H176.264C177.596 23.4019 178.59 23.1443 179.247 22.6295C179.905 22.1148 180.233 21.373 180.233 20.4048C180.233 19.3479 179.925 18.5846 179.307 18.114C178.69 17.6433 177.724 17.4077 176.41 17.4077H173.146V17.4077ZM177.01 31.6886C177.711 31.6886 178.304 31.6063 178.788 31.4417C179.271 31.2777 179.667 31.0534 179.973 30.7694C180.28 30.4848 180.502 30.1497 180.64 29.7635C180.778 29.3773 180.846 28.9621 180.846 28.5178C180.846 27.6115 180.537 26.8993 179.92 26.3797C179.303 25.8606 178.328 25.6003 176.996 25.6003H173.146V31.6886H177.01Z" fill="black"/>
<path d="M200.338 17.5675H194.357V34.1522H191.252V17.5675H185.258V14.9695H200.338V17.5675Z" fill="black"/>
<path d="M220.083 24.561C220.083 25.9821 219.851 27.2918 219.389 28.4902C218.928 29.6892 218.277 30.7214 217.438 31.5874C216.599 32.4539 215.591 33.1306 214.414 33.619C213.237 34.1079 211.929 34.3521 210.492 34.3521C209.061 34.3521 207.757 34.1079 206.582 33.619C205.405 33.1306 204.395 32.4539 203.551 31.5874C202.707 30.7214 202.054 29.6892 201.593 28.4902C201.131 27.2913 200.9 25.9815 200.9 24.561C200.9 23.1399 201.131 21.8301 201.593 20.6312C202.054 19.4322 202.707 18.3978 203.551 17.527C204.395 16.6572 205.405 15.9774 206.582 15.489C207.757 15.0005 209.061 14.7563 210.492 14.7563C211.929 14.7563 213.237 15.0005 214.414 15.489C215.591 15.9774 216.599 16.6572 217.438 17.527C218.277 18.3978 218.928 19.4322 219.389 20.6312C219.851 21.8301 220.083 23.1404 220.083 24.561ZM216.898 24.561C216.898 23.4594 216.75 22.4691 216.452 21.5907C216.154 20.7108 215.728 19.9653 215.174 19.3521C214.618 18.7394 213.946 18.2693 213.155 17.9401C212.364 17.6115 211.476 17.4479 210.492 17.4479C209.514 17.4479 208.63 17.612 207.841 17.9401C207.05 18.2688 206.375 18.7394 205.815 19.3521C205.256 19.9653 204.825 20.7113 204.523 21.5907C204.221 22.4691 204.07 23.4599 204.07 24.561C204.07 25.6712 204.221 26.6657 204.523 27.5452C204.825 28.4241 205.256 29.1685 205.815 29.7763C206.375 30.3847 207.05 30.8505 207.841 31.1748C208.63 31.4992 209.514 31.6611 210.492 31.6611C211.476 31.6611 212.364 31.4992 213.155 31.1748C213.946 30.851 214.618 30.3847 215.174 29.7763C215.728 29.1685 216.154 28.4241 216.452 27.5452C216.75 26.6663 216.898 25.6712 216.898 24.561Z" fill="black"/>
</g>
<defs>
<clipPath id="clip0">
<rect width="220.083" height="40" fill="white"/>
</clipPath>
</defs>
</svg>
