<svg width="429" height="467" viewBox="0 0 429 467" fill="none" xmlns="http://www.w3.org/2000/svg">
<path d="M16 268.06C16 263.443 28.2581 259.701 43.3793 259.701V467H16V268.06Z" fill="white"/>
<path d="M57.069 217.907C57.069 213.29 69.3271 209.548 84.4483 209.548V467H57.069V217.907Z" fill="white"/>
<path d="M98.1379 167.754C98.1379 163.137 110.396 159.395 125.517 159.395V467H98.1379V167.754Z" fill="white"/>
<path d="M139.207 117.601C139.207 112.984 151.465 109.242 166.586 109.242V467H139.207V117.601Z" fill="white"/>
<path d="M385.621 284.778C400.742 284.778 413 288.52 413 293.136V467H385.621V284.778Z" fill="white"/>
<path d="M344.552 234.625C359.673 234.625 371.931 238.367 371.931 242.983V467H344.552V234.625Z" fill="white"/>
<path d="M303.483 184.472C318.604 184.472 330.862 188.214 330.862 192.83V467H303.483V184.472Z" fill="white"/>
<path d="M262.414 134.319C277.535 134.319 289.793 138.061 289.793 142.677V467H262.414V134.319Z" fill="white"/>
<path d="M221.345 84.1656C236.466 84.1656 248.724 87.908 248.724 92.5244V467H221.345V84.1656Z" fill="white"/>
<path d="M180.276 67.4479C180.276 62.8315 192.534 59.0891 207.655 59.0891V467H180.276V67.4479Z" fill="white"/>
<g clip-path="url(#clip0)">
<path d="M242.25 25.3702H227.749C223.905 25.3702 220.79 29.3877 220.79 32.9995V73.3292C220.79 76.9399 223.905 79.8692 227.749 79.8692H242.25C246.093 79.8692 249.21 76.941 249.21 73.3292V32.9995C249.208 29.3877 246.093 25.3702 242.25 25.3702ZM247.991 41.8108V55.3278L244.625 55.7345V50.1655L247.991 41.8108ZM246.225 37.8536C244.972 42.3728 243.488 47.7147 243.488 47.7147H226.51L223.769 37.8536C223.771 37.8536 234.725 34.3565 246.225 37.8536ZM225.412 50.5305V55.7356L222.045 55.3312V42.1746L225.412 50.5305ZM222.045 69.3314V57.3278L225.412 57.7252V67.2225L222.045 69.3314ZM223.966 72.7428L226.701 68.8772H243.683L246.42 72.7428H223.966ZM244.625 66.8598V57.738L247.991 57.3266V68.9699L244.625 66.8598Z" fill="white"/>
</g>
<g clip-path="url(#clip1)">
<path d="M407.25 225.513H392.749C388.905 225.513 385.79 229.53 385.79 233.142V273.472C385.79 277.083 388.905 280.012 392.749 280.012H407.25C411.093 280.012 414.21 277.084 414.21 273.472V233.142C414.208 229.53 411.093 225.513 407.25 225.513ZM412.991 241.954V255.471L409.625 255.877V250.308L412.991 241.954ZM411.225 237.996C409.972 242.516 408.488 247.858 408.488 247.858H391.51L388.769 237.996C388.771 237.996 399.725 234.499 411.225 237.996ZM390.412 250.673V255.878L387.045 255.474V242.317L390.412 250.673ZM387.045 269.474V257.471L390.412 257.868V267.365L387.045 269.474ZM388.966 272.886L391.701 269.02H408.683L411.42 272.886H388.966ZM409.625 267.003V257.881L412.991 257.469V269.113L409.625 267.003Z" fill="white"/>
</g>
<g clip-path="url(#clip2)">
<path d="M365.25 175.712H350.749C346.905 175.712 343.79 179.73 343.79 183.342V223.671C343.79 227.282 346.905 230.211 350.749 230.211H365.25C369.093 230.211 372.21 227.283 372.21 223.671V183.342C372.208 179.73 369.093 175.712 365.25 175.712ZM370.991 192.153V205.67L367.625 206.077V200.508L370.991 192.153ZM369.225 188.196C367.972 192.715 366.488 198.057 366.488 198.057H349.51L346.769 188.196C346.771 188.196 357.725 184.698 369.225 188.196ZM348.412 200.873V206.078L345.045 205.673V192.517L348.412 200.873ZM345.045 219.673V207.67L348.412 208.067V217.565L345.045 219.673ZM346.966 223.085L349.701 219.219H366.683L369.42 223.085H346.966ZM367.625 217.202V208.08L370.991 207.669V219.312L367.625 217.202Z" fill="white"/>
</g>
<g clip-path="url(#clip3)">
<path d="M324.25 126.851H309.749C305.905 126.851 302.79 130.869 302.79 134.48V174.81C302.79 178.421 305.905 181.35 309.749 181.35H324.25C328.093 181.35 331.21 178.422 331.21 174.81V134.48C331.208 130.869 328.093 126.851 324.25 126.851ZM329.991 143.292V156.809L326.625 157.215V151.646L329.991 143.292ZM328.225 139.334C326.972 143.854 325.488 149.196 325.488 149.196H308.51L305.769 139.334C305.771 139.334 316.725 135.837 328.225 139.334ZM307.412 152.011V157.216L304.045 156.812V143.655L307.412 152.011ZM304.045 170.812V158.809L307.412 159.206V168.703L304.045 170.812ZM305.966 174.224L308.701 170.358H325.683L328.42 174.224H305.966ZM326.625 168.341V159.219L329.991 158.807V170.451L326.625 168.341Z" fill="white"/>
</g>
<g clip-path="url(#clip4)">
<path d="M283.25 75.171H268.749C264.905 75.171 261.79 79.1885 261.79 82.8003V123.13C261.79 126.741 264.905 129.67 268.749 129.67H283.25C287.093 129.67 290.21 126.742 290.21 123.13V82.8003C290.208 79.1885 287.093 75.171 283.25 75.171ZM288.991 91.6116V105.129L285.625 105.535V99.9663L288.991 91.6116ZM287.225 87.6544C285.972 92.1736 284.488 97.5155 284.488 97.5155H267.51L264.769 87.6544C264.771 87.6544 275.725 84.1572 287.225 87.6544ZM266.412 100.331V105.536L263.045 105.132V91.9754L266.412 100.331ZM263.045 119.132V107.129L266.412 107.526V117.023L263.045 119.132ZM264.966 122.544L267.701 118.678H284.683L287.42 122.544H264.966ZM285.625 116.661V107.539L288.991 107.127V118.771L285.625 116.661Z" fill="white"/>
</g>
<g clip-path="url(#clip5)">
<path d="M160.25 49.8008H145.749C141.905 49.8008 138.79 53.8182 138.79 57.4301V97.7597C138.79 101.37 141.905 104.3 145.749 104.3H160.25C164.093 104.3 167.21 101.372 167.21 97.7597V57.4301C167.208 53.8182 164.093 49.8008 160.25 49.8008ZM165.991 66.2413V79.7583L162.625 80.165V74.596L165.991 66.2413ZM164.225 62.2841C162.972 66.8033 161.488 72.1452 161.488 72.1452H144.51L141.769 62.2841C141.771 62.2841 152.725 58.787 164.225 62.2841ZM143.412 74.961V80.1662L140.045 79.7618V66.6052L143.412 74.961ZM140.045 93.762V81.7583L143.412 82.1558V91.653L140.045 93.762ZM141.966 97.1734L144.701 93.3077H161.683L164.42 97.1734H141.966ZM162.625 91.2903V82.1685L165.991 81.7572V93.4004L162.625 91.2903Z" fill="white"/>
</g>
<g clip-path="url(#clip6)">
<path d="M77.2502 150.342H62.749C58.9051 150.342 55.79 154.359 55.79 157.971V198.301C55.79 201.912 58.9051 204.841 62.749 204.841H77.2502C81.0929 204.841 84.2104 201.913 84.2104 198.301V157.971C84.208 154.359 81.0929 150.342 77.2502 150.342ZM82.9908 166.783V180.3L79.6254 180.706V175.137L82.9908 166.783ZM81.2249 162.825C79.9719 167.345 78.4884 172.686 78.4884 172.686H61.5096L58.7695 162.825C58.7707 162.825 69.7252 159.328 81.2249 162.825ZM60.4121 175.502V180.707L57.0454 180.303V167.146L60.4121 175.502ZM57.0454 194.303V182.3L60.4121 182.697V192.194L57.0454 194.303ZM58.9655 197.715L61.7008 193.849H78.6832L81.4197 197.715H58.9655ZM79.6254 191.832V182.71L82.9908 182.298V193.942L79.6254 191.832Z" fill="white"/>
</g>
<g clip-path="url(#clip7)">
<path d="M36.2502 200.143H21.749C17.9051 200.143 14.79 204.16 14.79 207.772V248.102C14.79 251.712 17.9051 254.642 21.749 254.642H36.2502C40.0929 254.642 43.2104 251.714 43.2104 248.102V207.772C43.208 204.16 40.0929 200.143 36.2502 200.143ZM41.9908 216.583V230.1L38.6254 230.507V224.938L41.9908 216.583ZM40.2249 212.626C38.9719 217.145 37.4884 222.487 37.4884 222.487H20.5096L17.7695 212.626C17.7707 212.626 28.7252 209.129 40.2249 212.626ZM19.4121 225.303V230.508L16.0454 230.104V216.947L19.4121 225.303ZM16.0454 244.104V232.1L19.4121 232.498V241.995L16.0454 244.104ZM17.9655 247.515L20.7008 243.65H37.6832L40.4197 247.515H17.9655ZM38.6254 241.632V232.511L41.9908 232.099V243.742L38.6254 241.632Z" fill="white"/>
</g>
<g clip-path="url(#clip8)">
<path d="M118.25 99.6016H103.749C99.9051 99.6016 96.79 103.619 96.79 107.231V147.56C96.79 151.171 99.9051 154.101 103.749 154.101H118.25C122.093 154.101 125.21 151.172 125.21 147.56V107.231C125.208 103.619 122.093 99.6016 118.25 99.6016ZM123.991 116.042V129.559L120.625 129.966V124.397L123.991 116.042ZM122.225 112.085C120.972 116.604 119.488 121.946 119.488 121.946H102.51L99.7695 112.085C99.7707 112.085 110.725 108.588 122.225 112.085ZM101.412 124.762V129.967L98.0454 129.563V116.406L101.412 124.762ZM98.0454 143.563V131.559L101.412 131.957V141.454L98.0454 143.563ZM99.9655 146.974L102.701 143.109H119.683L122.42 146.974H99.9655ZM120.625 141.091V131.969L123.991 131.558V143.201L120.625 141.091Z" fill="white"/>
</g>
<g clip-path="url(#clip9)">
<path d="M160.25 49.8008H145.749C141.905 49.8008 138.79 53.8182 138.79 57.4301V97.7597C138.79 101.37 141.905 104.3 145.749 104.3H160.25C164.093 104.3 167.21 101.372 167.21 97.7597V57.4301C167.208 53.8182 164.093 49.8008 160.25 49.8008ZM165.991 66.2413V79.7583L162.625 80.165V74.596L165.991 66.2413ZM164.225 62.2841C162.972 66.8033 161.488 72.1452 161.488 72.1452H144.51L141.769 62.2841C141.771 62.2841 152.725 58.787 164.225 62.2841ZM143.412 74.961V80.1662L140.045 79.7618V66.6052L143.412 74.961ZM140.045 93.762V81.7583L143.412 82.1558V91.653L140.045 93.762ZM141.966 97.1734L144.701 93.3077H161.683L164.42 97.1734H141.966ZM162.625 91.2903V82.1685L165.991 81.7572V93.4004L162.625 91.2903Z" fill="white"/>
</g>
<g clip-path="url(#clip10)">
<path d="M201.25 0H186.749C182.905 0 179.79 4.01743 179.79 7.6293V47.9589C179.79 51.5696 182.905 54.499 186.749 54.499H201.25C205.093 54.499 208.21 51.5708 208.21 47.9589V7.6293C208.208 4.01743 205.093 0 201.25 0ZM206.991 16.4405V29.9575L203.625 30.3643V24.7952L206.991 16.4405ZM205.225 12.4834C203.972 17.0025 202.488 22.3444 202.488 22.3444H185.51L182.769 12.4834C182.771 12.4834 193.725 8.98621 205.225 12.4834ZM184.412 25.1602V30.3654L181.045 29.961V16.8044L184.412 25.1602ZM181.045 43.9612V31.9576L184.412 32.355V41.8522L181.045 43.9612ZM182.966 47.3726L185.701 43.507H202.683L205.42 47.3726H182.966ZM203.625 41.4895V32.3678L206.991 31.9564V43.5997L203.625 41.4895Z" fill="white"/>
</g>
<defs>
<clipPath id="clip0">
<rect width="58" height="54.499" fill="white" transform="translate(206 25.3702)"/>
</clipPath>
<clipPath id="clip1">
<rect width="58" height="54.499" fill="white" transform="translate(371 225.513)"/>
</clipPath>
<clipPath id="clip2">
<rect width="58" height="54.499" fill="white" transform="translate(329 175.712)"/>
</clipPath>
<clipPath id="clip3">
<rect width="58" height="54.499" fill="white" transform="translate(288 126.851)"/>
</clipPath>
<clipPath id="clip4">
<rect width="58" height="54.499" fill="white" transform="translate(247 75.171)"/>
</clipPath>
<clipPath id="clip5">
<rect width="58" height="54.499" fill="white" transform="translate(124 49.8008)"/>
</clipPath>
<clipPath id="clip6">
<rect width="58" height="54.499" fill="white" transform="translate(41 150.342)"/>
</clipPath>
<clipPath id="clip7">
<rect width="58" height="54.499" fill="white" transform="translate(0 200.143)"/>
</clipPath>
<clipPath id="clip8">
<rect width="58" height="54.499" fill="white" transform="translate(82 99.6016)"/>
</clipPath>
<clipPath id="clip9">
<rect width="58" height="54.499" fill="white" transform="translate(124 49.8008)"/>
</clipPath>
<clipPath id="clip10">
<rect width="58" height="54.499" fill="white" transform="translate(165)"/>
</clipPath>
</defs>
</svg>
