<svg width="300" height="460" viewBox="0 0 300 460" fill="none" xmlns="http://www.w3.org/2000/svg">
<path d="M0 378.951C0.0563455 398.838 7.14459 413.58 19.9537 420.47L60.1208 442.07C57.0895 435.069 54.892 424.982 54.8619 414.296C54.6891 358.01 105.215 290.138 156.573 278.08L106.17 250.953H105.922C96.1033 250.953 85.4504 253.984 74.2417 259.977C33.1659 281.922 -0.134254 335.291 0.00133527 378.947L0 378.951Z" fill="url(#paint0_linear_1127_124)"/>
<path d="M112.664 138.529C112.758 138.724 112.908 138.797 112.908 139.19L113.119 243.12L167.935 272.601L167.304 66.0845C167.255 51.0819 178.84 34.3964 190.875 28.4377C190.966 28.3925 191.048 28.3508 191.138 28.3056L139.488 0.507233C136.465 -1.05355 131.176 1.3137 128.441 3.2012C119.419 9.14193 112.435 21.1797 112.435 30.673L112.664 138.529Z" fill="url(#paint1_linear_1127_124)"/>
<path d="M290.18 90.155C284.155 84.0022 275.429 80.7871 265.227 81.1137C221.684 82.0106 209.393 44.5205 208.093 40.2206C206.504 34.398 201.692 34.3355 196.174 37.2659C186.587 42.4071 178.121 55.4846 178.121 66.0307L178.823 281.358C178.831 284.173 175.909 286.37 173.422 286.37C119.157 286.37 65.4985 360.249 65.6716 414.265C65.7204 430.329 70.8178 447.904 85.7455 455.844C98.6977 462.747 116.194 461.009 135.007 450.942C176.154 428.963 209.517 375.493 209.387 331.741V331.512C209.387 228.382 209.939 500.128 208.692 119.051C208.68 115.248 213.004 112.926 216.542 114.539C225.385 118.602 235.79 120.514 247.22 120.184C259.469 119.868 269.631 128.301 269.631 140.631C269.631 148.042 266.156 155.338 260.999 161.029C258.846 163.427 256.345 167.161 255.222 169.299C248.58 181.854 249.925 197.049 263.962 189.61C266.859 188.063 269.796 185.675 272.456 182.716C287.699 165.905 296.999 146.836 299.37 127.55C301.488 111.626 298.228 98.361 290.185 90.1544L290.18 90.155Z" fill="url(#paint2_linear_1127_124)"/>
<path d="M240.666 182.063C240.801 177.436 242.308 171.068 245.38 165.127C246.999 162.027 249.73 157.96 252.54 154.699C256.676 150.145 258.054 146.912 258.584 142.804C259.594 134.767 254.936 130.338 247.942 130.258C247.803 130.258 247.683 130.22 247.541 130.223C237.384 130.466 228.026 129.212 219.549 126.532L219.688 172.232L240.52 183.383C240.52 182.959 240.652 182.493 240.667 182.062L240.666 182.063Z" fill="url(#paint3_linear_1127_124)"/>
<defs>
<linearGradient id="paint0_linear_1127_124" x1="150" y1="0" x2="150" y2="460" gradientUnits="userSpaceOnUse">
<stop stop-color="#7CC0FF"/>
<stop offset="1" stop-color="#4A5DC0"/>
</linearGradient>
<linearGradient id="paint1_linear_1127_124" x1="150" y1="0" x2="150" y2="460" gradientUnits="userSpaceOnUse">
<stop stop-color="#7CC0FF"/>
<stop offset="1" stop-color="#4A5DC0"/>
</linearGradient>
<linearGradient id="paint2_linear_1127_124" x1="150" y1="0" x2="150" y2="460" gradientUnits="userSpaceOnUse">
<stop stop-color="#7CC0FF"/>
<stop offset="1" stop-color="#4A5DC0"/>
</linearGradient>
<linearGradient id="paint3_linear_1127_124" x1="150" y1="0" x2="150" y2="460" gradientUnits="userSpaceOnUse">
<stop stop-color="#7CC0FF"/>
<stop offset="1" stop-color="#4A5DC0"/>
</linearGradient>
</defs>
</svg>
