<?xml version="1.0" encoding="utf-8"?>
<!-- Generator: Adobe Illustrator 17.0.0, SVG Export Plug-In . SVG Version: 6.00 Build 0)  -->
<!DOCTYPE svg PUBLIC "-//W3C//DTD SVG 1.1//EN" "http://www.w3.org/Graphics/SVG/1.1/DTD/svg11.dtd">
<svg version="1.1" id="Слой_1" xmlns="http://www.w3.org/2000/svg" xmlns:xlink="http://www.w3.org/1999/xlink" x="0px" y="0px"
	 width="82.36px" height="82.425px" viewBox="0 0 82.36 82.425" enable-background="new 0 0 82.36 82.425" xml:space="preserve">
<g>
	<g>
		<polygon fill="#E0002A" points="82.36,82.425 0,0.065 34.23,0 82.302,48.072 		"/>
	</g>
	<g>
		<path fill="#FFFFFF" d="M29.612,6.993l2.016,2.016c0.919,0.919,1.454,1.717,1.608,2.392c0.154,0.677-0.055,1.3-0.625,1.871
			c-0.387,0.386-0.796,0.612-1.224,0.679c-0.431,0.065-0.821-0.025-1.172-0.277l-0.044,0.044c0.319,0.503,0.444,0.97,0.374,1.402
			c-0.069,0.434-0.312,0.858-0.728,1.275c-0.591,0.592-1.265,0.837-2.023,0.742c-0.758-0.095-1.503-0.51-2.236-1.243l-2.424-2.424
			L29.612,6.993z M27.331,12.022l-1.688,1.689l0.895,0.895c0.378,0.378,0.729,0.584,1.054,0.619
			c0.325,0.035,0.637-0.095,0.936-0.394c0.538-0.538,0.422-1.191-0.346-1.959L27.331,12.022z M28.42,10.933l0.797,0.797
			c0.372,0.372,0.699,0.584,0.981,0.635c0.283,0.053,0.556-0.055,0.822-0.321c0.248-0.248,0.336-0.518,0.262-0.806
			c-0.075-0.29-0.307-0.632-0.7-1.024l-0.722-0.722L28.42,10.933z"/>
		<path fill="#FFFFFF" d="M35.687,21.974c-0.674,0.673-1.402,0.956-2.189,0.846c-0.784-0.108-1.616-0.602-2.493-1.479l-1.773-1.773
			l6.478-6.478l1.374,1.374l-2.486,2.486l0.443,0.442c0.831,0.831,1.301,1.646,1.414,2.448
			C36.565,20.638,36.31,21.351,35.687,21.974z M31.73,19.816l0.359,0.36c0.452,0.451,0.857,0.707,1.216,0.768
			c0.359,0.061,0.689-0.059,0.99-0.361c0.301-0.302,0.416-0.618,0.344-0.951c-0.073-0.332-0.363-0.752-0.871-1.261l-0.297-0.296
			L31.73,19.816z M35.82,26.156l-1.369-1.369l6.478-6.478l1.369,1.37L35.82,26.156z"/>
		<path fill="#FFFFFF" d="M48.023,25.404l-1.135,1.134l-2.721-2.721l-5.343,5.344l-1.374-1.374l6.478-6.479L48.023,25.404z"/>
		<path fill="#FFFFFF" d="M51.669,35.51c-1.072,1.073-2.162,1.632-3.27,1.674c-1.107,0.045-2.157-0.429-3.15-1.421
			c-0.993-0.993-1.467-2.043-1.422-3.151c0.044-1.108,0.606-2.201,1.684-3.278c1.078-1.078,2.169-1.635,3.27-1.671
			c1.101-0.036,2.151,0.445,3.146,1.44c0.995,0.995,1.471,2.043,1.424,3.143C53.305,33.347,52.745,34.435,51.669,35.51z
			 M46.941,30.783c-0.724,0.723-1.132,1.406-1.223,2.047c-0.092,0.64,0.135,1.234,0.682,1.781c1.096,1.097,2.372,0.916,3.828-0.54
			c1.459-1.459,1.644-2.733,0.554-3.824c-0.547-0.546-1.143-0.775-1.788-0.684C48.35,29.653,47.665,30.059,46.941,30.783z"/>
		<path fill="#FFFFFF" d="M50.136,38.187l0.501,0.5c1.285-0.429,2.48-0.946,3.583-1.553c1.103-0.607,2.21-1.346,3.32-2.213
			l3.775,3.775l-5.335,5.335l0.864,0.863l-3.031,3.032l-1.325-1.325l1.888-1.887l-4.059-4.061l-1.888,1.889l-1.325-1.325
			L50.136,38.187z M57.487,37.155c-0.771,0.582-1.644,1.14-2.621,1.677c-0.976,0.536-1.904,0.97-2.785,1.301l2.53,2.529l4.191-4.191
			L57.487,37.155z"/>
		<path fill="#FFFFFF" d="M62.007,52.344l-1.369-1.37l2.796-2.796l-2.565-2.565l-2.796,2.796l-1.374-1.374l6.478-6.478l1.374,1.374
			l-2.539,2.539l2.565,2.565l2.539-2.539l1.369,1.369L62.007,52.344z"/>
		<path fill="#FFFFFF" d="M72.769,56.61c-1.072,1.073-2.162,1.632-3.27,1.676c-1.108,0.044-2.158-0.43-3.151-1.422
			c-0.993-0.993-1.466-2.043-1.422-3.151c0.044-1.108,0.607-2.201,1.684-3.278c1.078-1.078,2.168-1.635,3.27-1.669
			c1.101-0.036,2.15,0.444,3.145,1.439s1.471,2.044,1.424,3.143C74.405,54.447,73.844,55.535,72.769,56.61z M68.042,51.883
			c-0.724,0.724-1.132,1.406-1.223,2.047c-0.091,0.642,0.135,1.234,0.682,1.781c1.096,1.097,2.372,0.916,3.828-0.54
			c1.459-1.459,1.644-2.733,0.554-3.824c-0.546-0.546-1.143-0.775-1.788-0.684C69.45,50.752,68.765,51.16,68.042,51.883z"/>
	</g>
</g>
</svg>
