<svg width="40" height="57" viewBox="0 0 40 57" fill="none" xmlns="http://www.w3.org/2000/svg">
<path d="M17.8827 0.110099C13.3511 0.588385 9.07831 2.62988 5.84988 5.85763C-1.94996 13.6575 -1.94996 26.3496 5.84988 34.1494C13.6497 41.9493 26.3419 41.9493 34.1417 34.1494C37.3701 30.921 39.4109 26.6475 39.8899 22.116C40.3614 17.6513 39.3083 13.113 36.9249 9.33736C36.6135 8.84422 35.9616 8.69695 35.4691 9.00837C34.976 9.3198 34.8287 9.9717 35.1401 10.4642C39.6291 17.5756 38.6043 26.7009 32.6494 32.6565C25.6724 39.6335 14.3199 39.6335 7.34283 32.6565C0.365807 25.6795 0.365807 14.3269 7.34283 7.34991C13.2978 1.39566 22.423 0.370859 29.5345 4.85985C30.0276 5.17128 30.6795 5.02334 30.9903 4.53086C31.3017 4.03772 31.1544 3.38582 30.6613 3.07506C26.8857 0.691743 22.348 -0.361431 17.8827 0.110099Z" fill="#CCCCCC"/>
<path d="M32.6487 7.35058C33.0602 7.76199 33.7303 7.76199 34.1417 7.35058C34.5531 6.93917 34.5531 6.26903 34.1417 5.85763C33.7303 5.44622 33.0602 5.44622 32.6487 5.85763C32.238 6.26903 32.238 6.93917 32.6487 7.35058Z" fill="#BC0023"/>
<path d="M6.63383 46.8223C6.24711 46.8223 5.86625 46.877 5.49125 46.9863C5.12016 47.0957 4.75297 47.2266 4.38969 47.3789L3.81547 45.9141C4.72172 45.5117 5.67289 45.3105 6.66898 45.3105C7.93851 45.3105 8.91898 45.7012 9.61039 46.4824C10.3057 47.2598 10.6534 48.3418 10.6534 49.7285C10.6534 51.1426 10.2959 52.2285 9.58109 52.9863C8.87016 53.7402 7.84281 54.1172 6.49906 54.1172C5.57328 54.1172 4.72953 53.9707 3.96781 53.6777V52.1543C4.91703 52.4551 5.72562 52.6055 6.39359 52.6055C7.13969 52.6055 7.70805 52.4238 8.09867 52.0605C8.4932 51.6973 8.70805 51.1523 8.7432 50.4258H5.02836V48.9375H8.73148C8.70805 48.2734 8.50883 47.7559 8.13383 47.3848C7.75883 47.0098 7.25883 46.8223 6.63383 46.8223ZM16.0934 54H14.277V46.9453H11.9509V45.4336H18.4196V46.9453H16.0934V54ZM25.3421 54L24.721 51.9609H21.598L20.9769 54H19.0198L22.0433 45.3984H24.264L27.2991 54H25.3421ZM24.2874 50.4375C23.7132 48.5898 23.389 47.5449 23.3148 47.3027C23.2445 47.0605 23.1937 46.8691 23.1624 46.7285C23.0335 47.2285 22.6644 48.4648 22.055 50.4375H24.2874ZM35.5224 54H33.7119V46.9453H30.5595V54H28.7431V45.4336H35.5224V54Z" fill="#999999"/>
<path d="M22.0102 28L17.9387 27.9895C16.6462 27.9895 16 27.5827 16 26.7691C16 25.8526 16.7212 25.3947 18.1642 25.3947C18.3007 25.3947 18.4513 25.3982 18.6158 25.4052V16.3074C18.0207 16.7177 17.6349 16.9228 17.457 16.9228C17.074 16.9228 16.7408 16.7863 16.4572 16.5125C16.1729 16.2388 16.0315 15.9209 16.0315 15.5589C16.0315 15.1829 16.2605 14.7964 16.7184 14.4001L17.8771 13.5593L19.1283 12.5538C19.6408 12.1848 20.1365 12 20.6154 12C21.2309 12 21.5382 12.369 21.5382 13.1076C21.5382 13.9212 21.5039 15.0667 21.436 16.5433C21.3674 18.02 21.3338 20.1295 21.3338 22.8713V25.3534H22.0109C22.4071 25.3534 22.7404 25.4801 23.0107 25.7329C23.2809 25.9856 23.4161 26.3007 23.4161 26.6767C23.4161 27.0527 23.2809 27.3671 23.0107 27.6205C22.7404 27.874 22.4071 28 22.0102 28Z" fill="#BC0023"/>
</svg>
