<svg width="40" height="57" viewBox="0 0 40 57" fill="none" xmlns="http://www.w3.org/2000/svg">
<path d="M17.8827 0.110099C13.3511 0.588385 9.07831 2.62988 5.84988 5.85763C-1.94996 13.6575 -1.94996 26.3496 5.84988 34.1494C13.6497 41.9493 26.3419 41.9493 34.1417 34.1494C37.3701 30.921 39.4109 26.6475 39.8899 22.116C40.3614 17.6513 39.3083 13.113 36.9249 9.33736C36.6135 8.84422 35.9616 8.69695 35.4691 9.00837C34.976 9.3198 34.8287 9.9717 35.1401 10.4642C39.6291 17.5756 38.6043 26.7009 32.6494 32.6565C25.6724 39.6335 14.3199 39.6335 7.34283 32.6565C0.365807 25.6795 0.365807 14.3269 7.34283 7.34991C13.2978 1.39566 22.423 0.370859 29.5345 4.85985C30.0276 5.17128 30.6795 5.02334 30.9903 4.53086C31.3017 4.03772 31.1544 3.38582 30.6613 3.07506C26.8857 0.691743 22.348 -0.361431 17.8827 0.110099Z" fill="#CCCCCC"/>
<path d="M32.6487 7.35058C33.0602 7.76199 33.7303 7.76199 34.1417 7.35058C34.5531 6.93917 34.5531 6.26903 34.1417 5.85763C33.7303 5.44622 33.0602 5.44622 32.6487 5.85763C32.238 6.26903 32.238 6.93917 32.6487 7.35058Z" fill="#BC0023"/>
<path d="M6.63383 46.8223C6.24711 46.8223 5.86625 46.877 5.49125 46.9863C5.12016 47.0957 4.75297 47.2266 4.38969 47.3789L3.81547 45.9141C4.72172 45.5117 5.67289 45.3105 6.66898 45.3105C7.93851 45.3105 8.91898 45.7012 9.61039 46.4824C10.3057 47.2598 10.6534 48.3418 10.6534 49.7285C10.6534 51.1426 10.2959 52.2285 9.58109 52.9863C8.87016 53.7402 7.84281 54.1172 6.49906 54.1172C5.57328 54.1172 4.72953 53.9707 3.96781 53.6777V52.1543C4.91703 52.4551 5.72562 52.6055 6.39359 52.6055C7.13969 52.6055 7.70805 52.4238 8.09867 52.0605C8.4932 51.6973 8.70805 51.1523 8.7432 50.4258H5.02836V48.9375H8.73148C8.70805 48.2734 8.50883 47.7559 8.13383 47.3848C7.75883 47.0098 7.25883 46.8223 6.63383 46.8223ZM16.0934 54H14.277V46.9453H11.9509V45.4336H18.4196V46.9453H16.0934V54ZM25.3421 54L24.721 51.9609H21.598L20.9769 54H19.0198L22.0433 45.3984H24.264L27.2991 54H25.3421ZM24.2874 50.4375C23.7132 48.5898 23.389 47.5449 23.3148 47.3027C23.2445 47.0605 23.1937 46.8691 23.1624 46.7285C23.0335 47.2285 22.6644 48.4648 22.055 50.4375H24.2874ZM35.5224 54H33.7119V46.9453H30.5595V54H28.7431V45.4336H35.5224V54Z" fill="#999999"/>
<path d="M24.6898 27.9894C24.4884 27.9894 24.1755 27.9603 23.7529 27.9006C23.3286 27.8424 23.0248 27.8126 22.8399 27.8126L19.2846 27.802C18.9784 27.802 18.5145 27.8353 17.8937 27.9006C17.273 27.9674 16.8058 28 16.4913 28C16.4029 28 16.2733 27.9858 16.1041 27.9581C15.9349 27.9304 15.8061 27.9163 15.717 27.9163C14.9914 27.9163 14.4994 27.6636 14.2419 27.1576C14.0809 26.8389 14 26.3463 14 25.6813C14 24.3854 14.3343 23.3009 15.0038 22.4273C15.5197 21.7551 16.3542 21.0823 17.5066 20.4102C18.5945 19.7935 19.6792 19.1803 20.7589 18.5699C22.0326 17.7729 22.669 16.8687 22.669 15.8566C22.669 15.5933 22.4148 15.3322 21.9071 15.0717C21.3995 14.8126 20.9034 14.682 20.4196 14.682C19.5653 14.682 18.6598 15.0092 17.7055 15.665C16.7496 16.3194 16.095 16.6473 15.7401 16.6473C15.3125 16.6473 14.9377 16.5571 14.6158 16.3769C14.213 16.1554 14.0116 15.8467 14.0116 15.4514C14.0116 15.0284 14.213 14.665 14.6158 14.3598C15.5915 13.6182 16.4417 13.0774 17.1673 12.7381C18.2157 12.2463 19.2995 12 20.4196 12C21.8139 12 23.0719 12.3151 24.192 12.9461C25.474 13.6671 26.1145 14.6097 26.1145 15.7736C26.1145 16.9517 25.8 17.9532 25.171 18.7779C24.679 19.4365 23.9015 20.0774 22.8374 20.7012C21.8295 21.2484 20.8225 21.7928 19.8146 22.3336C18.2833 23.193 17.4604 24.1739 17.3481 25.2761C17.7914 25.2278 18.4443 25.1725 19.3069 25.11C21.0239 25.0341 22.253 24.9957 22.9951 24.9957C23.6885 24.9957 24.3736 25.1242 25.0505 25.3804C25.8892 25.6991 26.3077 26.1079 26.3077 26.6075C26.3077 26.9681 26.1583 27.2832 25.8603 27.5536C25.5483 27.8439 25.157 27.9894 24.6898 27.9894Z" fill="#BC0023"/>
</svg>
