<svg width="70" height="70" viewBox="0 0 70 70" fill="none" xmlns="http://www.w3.org/2000/svg">
<g clip-path="url(#clip0)">
<path d="M64.1667 5.47168H5.83333C2.61193 5.47168 0 8.08361 0 11.305V64.1667C0 67.3881 2.61193 70 5.83333 70H64.1667C67.3881 70 70 67.3881 70 64.1667V11.305C70 8.08361 67.3881 5.47168 64.1667 5.47168Z" fill="#F3F3F3"/>
<path d="M64.1667 5.47168H5.83333C2.61193 5.47168 0 8.08361 0 11.305V23.0228H70V11.305C70 8.08361 67.3881 5.47168 64.1667 5.47168Z" fill="#F3705A"/>
<path d="M20.6164 14.2479C20.6164 16.7315 18.5994 18.7454 16.1161 18.7454C13.6327 18.7454 11.6155 16.7315 11.6155 14.2479C11.6155 11.7615 13.6325 9.74756 16.1158 9.74756C18.5994 9.74756 20.6164 11.7601 20.6164 14.2479Z" fill="white"/>
<path d="M58.3845 14.2479C58.3845 16.7315 56.3706 18.7454 53.8842 18.7454C51.4006 18.7454 49.3867 16.7315 49.3867 14.2479C49.3867 11.7615 51.4006 9.74756 53.8842 9.74756C56.3703 9.74756 58.3845 11.7601 58.3845 14.2479Z" fill="white"/>
<path d="M16.1947 0C14.5175 0 13.1556 1.3622 13.1556 3.03917V12.8378C13.1556 14.5178 14.5178 15.8769 16.1947 15.8769C17.8717 15.8769 19.2339 14.5178 19.2339 12.8378V3.03917C19.2339 1.3622 17.8733 0 16.1947 0Z" fill="#415A6B"/>
<path d="M57.0033 3.03917C57.0033 1.3622 55.6442 0 53.9642 0C52.287 0 50.925 1.3622 50.925 3.03917V12.8378C50.925 14.5178 52.2872 15.8769 53.9642 15.8769C55.6442 15.8769 57.0033 14.5178 57.0033 12.8378V3.03917Z" fill="#415A6B"/>
<path d="M17.6757 49.627V53.2609H3.93469V48.514C3.93469 47.7722 4.05579 47.1399 4.29823 46.6175C4.54019 46.095 4.85473 45.6636 5.24089 45.3227C5.62706 44.982 6.06596 44.7135 6.55829 44.5165C7.05016 44.3198 7.54226 44.1724 8.03459 44.0737C8.52646 43.9754 8.99989 43.9145 9.45396 43.8919C9.90803 43.8693 10.3019 43.8504 10.6351 43.835C11.6648 43.8049 12.4028 43.7139 12.8497 43.5624C13.2963 43.4112 13.5198 43.0629 13.5198 42.5176C13.5198 42.3813 13.4932 42.2415 13.4402 42.0973C13.387 41.9536 13.2659 41.8173 13.0769 41.6885C12.8875 41.56 12.6035 41.454 12.2253 41.3705C11.8466 41.2874 11.3316 41.2457 10.6808 41.2457C9.68146 41.2457 8.69353 41.3215 7.71679 41.4727C6.74006 41.6241 5.75959 41.8285 4.77563 42.0859V38.3383C5.59323 38.0961 6.43719 37.9106 7.30823 37.7818C8.17856 37.6533 9.08319 37.5886 10.0224 37.5886H10.84C12.1574 37.5886 13.2475 37.7214 14.1106 37.9862C14.9737 38.2513 15.6665 38.6109 16.1889 39.0652C16.7113 39.5195 17.0781 40.0456 17.2905 40.6437C17.5023 41.2419 17.6085 41.8666 17.6085 42.5173V42.8127C17.6085 43.5547 17.4911 44.1833 17.2564 44.6978C17.0214 45.2128 16.7148 45.6405 16.3366 45.9812C15.9579 46.3218 15.5302 46.5871 15.0533 46.7761C14.5763 46.9656 14.088 47.1093 13.5884 47.2078C13.0888 47.3063 12.6079 47.3704 12.1462 47.4008C11.6842 47.4313 11.2793 47.454 10.931 47.4689C9.87093 47.4995 9.12146 47.5902 8.68233 47.7414C8.24296 47.8929 8.02363 48.2335 8.02363 48.7634V49.6265H17.6757V49.627Z" fill="#666666"/>
<path d="M19.9014 45.0616C19.9014 44.0322 20.0071 43.0631 20.2195 42.1545C20.4313 41.2459 20.7986 40.4549 21.321 39.7811C21.8435 39.1074 22.5437 38.5738 23.422 38.1799C24.3 37.7863 25.413 37.5894 26.7607 37.5894H27.5783C28.9109 37.5894 30.0202 37.7863 30.9061 38.1799C31.7916 38.5738 32.4956 39.1077 33.0185 39.7811C33.5407 40.4552 33.9077 41.2462 34.1201 42.1545C34.3319 43.0631 34.4376 44.0322 34.4376 45.0616V46.2428C34.4376 47.2727 34.3319 48.2415 34.1201 49.1501C33.9077 50.0587 33.5409 50.8499 33.0185 51.5236C32.4958 52.1974 31.7916 52.7313 30.9061 53.1247C30.0202 53.5183 28.9109 53.7153 27.5783 53.7153H26.7607C25.413 53.7153 24.3002 53.5181 23.422 53.1247C22.5437 52.7311 21.8435 52.1972 21.321 51.5236C20.7986 50.8499 20.4316 50.0587 20.2195 49.1501C20.0071 48.2415 19.9014 47.2727 19.9014 46.2428V45.0616ZM23.9894 45.6524C23.9894 46.2281 24.0044 46.7846 24.0349 47.3217C24.065 47.8593 24.1826 48.3323 24.387 48.7413C24.5914 49.1501 24.9055 49.4756 25.3297 49.718C25.7534 49.9602 26.3666 50.0813 27.1693 50.0813C27.9563 50.0813 28.566 49.9602 28.9977 49.718C29.4294 49.4758 29.7474 49.1501 29.9516 48.7413C30.1562 48.3323 30.2733 47.8593 30.3039 47.3217C30.334 46.7843 30.3494 46.2278 30.3494 45.6524C30.3494 45.077 30.334 44.5245 30.3039 43.9944C30.2733 43.4645 30.1562 42.995 29.9516 42.5862C29.7474 42.1774 29.4294 41.8521 28.9977 41.6095C28.566 41.3675 27.9563 41.2462 27.1693 41.2462C26.3666 41.2462 25.7534 41.3675 25.3297 41.6095C24.9057 41.8519 24.5914 42.1774 24.387 42.5862C24.1826 42.995 24.0653 43.4645 24.0349 43.9944C24.0044 44.5245 23.9894 45.077 23.9894 45.6524Z" fill="#666666"/>
<path d="M50.4035 49.6636V53.2976H36.6625V48.5506C36.6625 47.8089 36.7836 47.1765 37.026 46.6541C37.268 46.1317 37.5825 45.7002 37.9687 45.3593C38.3548 45.0187 38.7937 44.7501 39.2861 44.5532C39.7779 44.3565 40.27 44.2088 40.7624 44.1103C41.2542 44.0121 41.7277 43.9514 42.1817 43.9288C42.6358 43.9061 43.0294 43.8872 43.3629 43.8721C44.3923 43.8417 45.1304 43.751 45.5772 43.5995C46.0236 43.4483 46.2471 43.0997 46.2471 42.5547C46.2471 42.4184 46.2207 42.2784 46.1678 42.1344C46.1143 41.9907 45.9935 41.8544 45.8042 41.7254C45.6148 41.5971 45.3308 41.4909 44.9526 41.4076C44.5739 41.3248 44.0589 41.2828 43.4081 41.2828C42.4088 41.2828 41.4208 41.3586 40.4441 41.51C39.4674 41.6615 38.4869 41.8659 37.5029 42.1232V38.3754C38.3205 38.1335 39.1645 37.948 40.0355 37.8189C40.9059 37.6904 41.8105 37.626 42.7497 37.626H43.5673C44.8847 37.626 45.9746 37.7587 46.8379 38.0233C47.701 38.2886 48.3938 38.648 48.916 39.1023C49.4384 39.5563 49.8054 40.0827 50.0178 40.6808C50.2294 41.279 50.3356 41.9037 50.3356 42.5547V42.8498C50.3356 43.5921 50.2182 44.2204 49.9835 44.7349C49.7485 45.2499 49.4419 45.6776 49.0637 46.0183C48.685 46.3589 48.2575 46.6242 47.7806 46.8132C47.3034 47.0027 46.815 47.1464 46.3157 47.2449C45.8159 47.3434 45.335 47.4075 44.8732 47.4379C44.4112 47.4684 44.0062 47.4911 43.658 47.506C42.5982 47.5366 41.8485 47.6273 41.4096 47.7785C40.9703 47.93 40.7509 48.2706 40.7509 48.8005V49.6636H50.4035V49.6636Z" fill="#999999"/>
<path d="M53.5374 53.2976V49.6636H58.7613V43.3494L53.9919 46.1431V42.2819L61.9412 37.626H62.8497V49.6636H66.7334V53.2976H53.5374Z" fill="#999999"/>
</g>
<defs>
<clipPath id="clip0">
<rect width="70" height="70" fill="white"/>
</clipPath>
</defs>
</svg>
