<svg width="80" height="80" viewBox="0 0 80 80" fill="none" xmlns="http://www.w3.org/2000/svg">
<path d="M20 0C17.25 0 15 2.25 15 5V75C15 77.75 17.25 80 20 80H70C72.75 80 75 77.75 75 75V20L55 0H20Z" fill="#E2E5E7"/>
<path d="M60 20H75L55 0V15C55 17.75 57.25 20 60 20Z" fill="#B0B7BD"/>
<path d="M75 35L60 20H75V35Z" fill="#CAD1D8"/>
<path d="M65 65C65 66.375 63.875 67.5 62.5 67.5H7.5C6.125 67.5 5 66.375 5 65V40C5 38.625 6.125 37.5 7.5 37.5H62.5C63.875 37.5 65 38.625 65 40V65Z" fill="#50BEE8"/>
<path d="M14.465 60C13.805 60 13.085 59.6375 13.085 58.76V47.4075C13.085 46.6875 13.805 46.1675 14.465 46.1675H19.0425C28.1775 46.1675 27.975 60 19.22 60H14.465V60ZM15.725 48.605V57.56H19.0425C24.44 57.56 24.6775 48.605 19.0425 48.605H15.725Z" fill="white"/>
<path d="M35.6249 60.2C31.9274 60.36 28.0874 57.9 28.0874 53.0025C28.0874 48.085 31.9249 45.6675 35.6249 45.6675C39.1224 45.845 42.7799 48.265 42.7799 53.0025C42.7799 57.7425 39.1224 60.2 35.6249 60.2ZM35.4049 48.2675C33.1649 48.2675 30.7274 49.8475 30.7274 53.005C30.7274 56.145 33.1674 57.745 35.4049 57.745C37.7049 57.745 40.1624 56.145 40.1624 53.005C40.1624 49.845 37.7049 48.2675 35.4049 48.2675Z" fill="white"/>
<path d="M45.1324 52.9824C45.1324 49.1249 47.5525 45.8074 52.15 45.8074C53.89 45.8074 55.27 46.3274 56.7275 47.5874C57.2675 48.0849 57.3275 48.9649 56.7875 49.5249C56.2475 50.0024 55.4275 49.9449 54.9475 49.4649C54.13 48.6049 53.29 48.3674 52.15 48.3674C49.0725 48.3674 47.5949 50.5474 47.5949 52.9849C47.5949 55.4649 49.0525 57.7424 52.15 57.7424C53.29 57.7424 54.35 57.2799 55.27 56.4624C55.8875 55.9824 56.7475 56.2199 57.1075 56.7024C57.4275 57.1424 57.585 57.8824 56.8875 58.5799C55.4875 59.8824 53.81 60.1424 52.1475 60.1424C47.3124 60.1424 45.1324 56.8399 45.1324 52.9824Z" fill="white"/>
<path d="M62.5 67.5H15V70H62.5C63.875 70 65 68.875 65 67.5V65C65 66.375 63.875 67.5 62.5 67.5Z" fill="#CAD1D8"/>
</svg>
