<svg width="80" height="80" viewBox="0 0 80 80" fill="none" xmlns="http://www.w3.org/2000/svg">
<path d="M56.2331 42.6553C56.642 42.5615 57.0715 42.6576 57.4013 42.917C57.7311 43.1763 57.9258 43.571 57.931 43.9905V60.6898C57.9043 62.9426 56.5289 64.9596 54.4414 65.807C53.1283 66.3822 55.3834 66.207 5.51724 66.207C2.47829 66.1875 0.019563 63.7288 0 60.6898V40.0002C0 36.9531 2.47015 34.4829 5.51724 34.4829H48.4234C48.843 34.4881 49.2376 34.6829 49.497 35.0127C49.7563 35.3425 49.8525 35.7719 49.7586 36.1808C49.3963 37.9851 49.9604 39.851 51.2617 41.1523C52.5629 42.4535 54.4289 43.0177 56.2331 42.6553V42.6553Z" fill="#E64C3C"/>
<path d="M19.3103 60.6897C18.5486 60.6897 17.931 60.0721 17.931 59.3103V41.3793C17.931 40.6175 18.5486 40 19.3103 40C20.0721 40 20.6897 40.6175 20.6897 41.3793V59.3103C20.6897 60.0721 20.0721 60.6897 19.3103 60.6897Z" fill="white"/>
<path d="M30.3449 60.6898H28.9656C28.323 60.6903 27.7653 60.2469 27.6207 59.6209L23.4828 41.6898C23.3114 40.9471 23.7745 40.2061 24.5173 40.0347C25.26 39.8633 26.0011 40.3264 26.1724 41.0692L29.6552 56.1643L33.138 41.0692C33.2488 40.5887 33.6076 40.2039 34.0791 40.0597C34.5507 39.9155 35.0633 40.0338 35.424 40.37C35.7846 40.7063 35.9385 41.2094 35.8276 41.6898L31.6897 59.6209C31.5451 60.2469 30.9874 60.6903 30.3449 60.6898V60.6898Z" fill="white"/>
<path d="M46.8966 60.6897H40C39.2383 60.6897 38.6207 60.0721 38.6207 59.3103V41.3793C38.6207 40.6175 39.2383 40 40 40C40.7618 40 41.3794 40.6175 41.3794 41.3793V57.931H46.8966C47.6584 57.931 48.2759 58.5486 48.2759 59.3103C48.2759 60.0721 47.6584 60.6897 46.8966 60.6897Z" fill="white"/>
<path d="M13.7931 60.6892H6.89652C6.13475 60.6892 5.51721 60.0716 5.51721 59.3099V41.3788C5.51721 40.6171 6.13475 39.9995 6.89652 39.9995C7.65829 39.9995 8.27583 40.6171 8.27583 41.3788V57.9305H13.7931C14.5548 57.9305 15.1724 58.5481 15.1724 59.3099C15.1724 60.0716 14.5548 60.6892 13.7931 60.6892Z" fill="white"/>
<path d="M46.8966 52.4139H40C39.2383 52.4139 38.6207 51.7963 38.6207 51.0346C38.6207 50.2728 39.2383 49.6553 40 49.6553H46.8966C47.6584 49.6553 48.2759 50.2728 48.2759 51.0346C48.2759 51.7963 47.6584 52.4139 46.8966 52.4139Z" fill="white"/>
<path d="M46.8966 42.7586H40C39.2383 42.7586 38.6207 42.1411 38.6207 41.3793C38.6207 40.6175 39.2383 40 40 40H46.8966C47.6584 40 48.2759 40.6175 48.2759 41.3793C48.2759 42.1411 47.6584 42.7586 46.8966 42.7586Z" fill="white"/>
<path d="M40.4647 24.7448C45.1242 19.2427 52.4618 16.7964 59.4908 18.4017C66.5198 20.007 72.068 25.3961 73.8769 32.3755C75.6859 39.3548 73.4539 46.7605 68.0896 51.5779C67.2907 52.2148 66.9092 53.241 67.0981 54.2451C67.287 55.2491 68.0153 56.0665 68.991 56.3695C69.9667 56.6725 71.03 56.4115 71.7544 55.691C78.6551 49.5005 81.5289 39.9792 79.2057 31.0046C76.8824 22.0299 69.7496 15.0991 60.7119 13.0345C51.6742 10.9699 42.2394 14.1161 36.2496 21.1917C35.5674 21.9388 35.349 22.9993 35.6802 23.9551C36.0115 24.911 36.8394 25.6089 37.8375 25.7736C38.8356 25.9383 39.8439 25.5435 40.4647 24.7448V24.7448Z" fill="#84B5CB"/>
<path d="M50.3365 30.523C53.6427 28.1527 58.1813 28.5367 61.0422 31.4288C63.903 34.321 64.2378 38.8634 61.8317 42.1436C61.2041 43.0169 61.1553 44.1795 61.7076 45.1023C62.1692 45.9011 62.9996 46.4162 63.9204 46.475C64.8411 46.5337 65.7302 46.1283 66.2897 45.3947C70.3057 39.9299 69.7508 32.356 64.9812 27.5349C60.2117 22.7138 52.6441 22.0776 47.1365 26.0347C46.3761 26.609 45.9682 27.5368 46.059 28.4854C46.1499 29.434 46.7265 30.2675 47.5821 30.6871C48.4597 31.1468 49.5197 31.0837 50.3365 30.523V30.523Z" fill="#3B97D3"/>
<path d="M55.1725 40.0002C56.696 40.0002 57.9311 38.7651 57.9311 37.2415C57.9311 35.718 56.696 34.4829 55.1725 34.4829C53.6489 34.4829 52.4138 35.718 52.4138 37.2415C52.4138 38.7651 53.6489 40.0002 55.1725 40.0002Z" fill="#2980BA"/>
</svg>
