<svg width="80" height="80" viewBox="0 0 80 80" fill="none" xmlns="http://www.w3.org/2000/svg">
<path d="M20 0C17.25 0 15 2.25 15 5V75C15 77.75 17.25 80 20 80H70C72.75 80 75 77.75 75 75V20L55 0H20Z" fill="#E2E5E7"/>
<path d="M60 20H75L55 0V15C55 17.75 57.25 20 60 20Z" fill="#B0B7BD"/>
<path d="M75 35L60 20H75V35Z" fill="#CAD1D8"/>
<path d="M65 65C65 66.375 63.875 67.5 62.5 67.5H7.5C6.125 67.5 5 66.375 5 65V40C5 38.625 6.125 37.5 7.5 37.5H62.5C63.875 37.5 65 38.625 65 40V65Z" fill="#F15642"/>
<path d="M15.8975 47.3675C15.8975 46.7075 16.4175 45.9875 17.255 45.9875H21.8725C24.4725 45.9875 26.8125 47.7275 26.8125 51.0625C26.8125 54.2225 24.4725 55.9825 21.8725 55.9825H18.535V58.6225C18.535 59.5025 17.975 60 17.255 60C16.595 60 15.8975 59.5025 15.8975 58.6225V47.3675ZM18.535 48.505V53.485H21.8725C23.2125 53.485 24.2725 52.3025 24.2725 51.0625C24.2725 49.665 23.2125 48.505 21.8725 48.505H18.535Z" fill="white"/>
<path d="M30.7275 60.0002C30.0675 60.0002 29.3475 59.6402 29.3475 58.7627V47.4077C29.3475 46.6902 30.0675 46.1677 30.7275 46.1677H35.305C44.44 46.1677 44.24 60.0002 35.485 60.0002H30.7275ZM31.9875 48.6077V57.5627H35.305C40.7025 57.5627 40.9425 48.6077 35.305 48.6077H31.9875Z" fill="white"/>
<path d="M47.48 48.7673V51.9448H52.5775C53.2975 51.9448 54.0175 52.6648 54.0175 53.3623C54.0175 54.0223 53.2975 54.5623 52.5775 54.5623H47.48V58.7598C47.48 59.4598 46.9825 59.9973 46.2825 59.9973C45.4025 59.9973 44.865 59.4598 44.865 58.7598V47.4048C44.865 46.6873 45.405 46.1648 46.2825 46.1648H53.3C54.18 46.1648 54.7 46.6873 54.7 47.4048C54.7 48.0448 54.18 48.7648 53.3 48.7648H47.48V48.7673Z" fill="white"/>
<path d="M62.5 67.5H15V70H62.5C63.875 70 65 68.875 65 67.5V65C65 66.375 63.875 67.5 62.5 67.5Z" fill="#CAD1D8"/>
</svg>
