<svg width="169" height="70" viewBox="0 0 169 70" fill="none" xmlns="http://www.w3.org/2000/svg">
<g clip-path="url(#clip0)">
<path d="M76.2103 14.1262C69.0878 14.1262 65.0072 17.1856 65.0072 22.5217C65.0072 27.8025 69.0878 30.8607 76.2103 30.8607C83.3248 30.8607 87.3974 27.8025 87.3974 22.5217C87.3974 17.1856 83.3248 14.1262 76.2103 14.1262ZM76.2103 26.9863C72.3144 26.9863 70.347 25.4944 70.347 22.5217C70.347 19.5174 72.3144 18.0123 76.2103 18.0123C80.0978 18.0123 82.0842 19.5174 82.0842 22.5217C82.0842 25.4944 80.0978 26.9863 76.2103 26.9863Z" fill="#C3072C"/>
<path d="M108.286 14.5349H88.8544V18.1033H95.6001V29.1843C95.6001 30.2409 97.2134 30.6231 98.5775 30.6231C99.9387 30.6231 101.552 30.2602 101.552 29.1843V18.1033H108.286V14.5349Z" fill="#C3072C"/>
<path d="M144.18 26.7659C142.532 26.7659 141.399 26.4893 140.78 25.9778C139.976 25.2943 139.883 24.28 139.861 23.5097V15.6892C139.861 14.6461 138.33 14.3062 137.025 14.3062C135.7 14.3062 134.16 14.6461 134.16 15.6717V23.2471C134.16 26.1363 135.088 28.1638 136.937 29.2758C139.218 30.5991 143.366 30.5514 147.354 30.5014H152.34V26.7659H144.18Z" fill="#C3072C"/>
<path d="M67.4751 9.69653H43.9158V13.6314H52.0398V25.5803C52.0398 28.4032 54.4142 30.3233 58.4406 30.6559V13.6314H67.4751V9.69653Z" fill="#C3072C"/>
<path d="M121.412 14.7282C120.91 14.3843 120.383 14.3063 119.695 14.2852C118.99 14.3063 118.441 14.3843 117.954 14.7282C116.415 15.8365 108.974 23.3157 107.663 29.8578L107.513 30.5045H112.777L112.874 30.036C113.094 29.112 113.432 28.1064 113.894 27.072H125.468C125.929 28.1064 126.278 29.112 126.471 30.036L126.583 30.5045H131.856L131.716 29.8578C130.387 23.3157 122.953 15.8365 121.412 14.7282ZM115.751 23.7066C116.859 22.0256 118.199 20.3864 119.695 18.9254C121.165 20.3864 122.498 22.0256 123.611 23.7066H115.751Z" fill="#C3072C"/>
<path d="M104.99 38.2358H98.6511L92.9426 46.2626C95.8813 46.2626 98.1935 46.2626 100.463 42.8546L100.755 42.4323H100.848L102.193 47.5149H92.0518L87.2938 54.2056H92.9149L94.8517 51.2913H103.18L103.974 54.2056H109.826L104.99 38.2358Z" fill="#A8844E"/>
<path d="M131.175 43.5749C131.556 41.7098 131.239 40.427 130.235 39.5653C128.9 38.3994 126.597 38.2358 123.497 38.2358H114.845L114.069 42.0359H122.629C124.896 42.0359 126.177 42.1059 125.849 43.7144C125.558 45.1368 124.673 45.5099 121.989 45.5099H118.588L119.042 43.2871C115.444 43.2871 113.401 45.1565 112.78 48.3481L111.584 54.2053H116.813L117.855 49.0998H120.723L123.592 54.2053H129.884L126.464 48.5168C129.47 47.7699 130.699 45.9056 131.175 43.5749Z" fill="#A8844E"/>
<path d="M133.299 38.2358L132.5 42.1525H149.551L150.351 38.2358H133.299Z" fill="#A8844E"/>
<path d="M138.646 43.4038L136.44 54.2054H141.668L142.843 48.4554C143.674 44.3536 141.186 43.4038 138.646 43.4038Z" fill="#A8844E"/>
<path d="M54.0119 54.5149C53.8265 54.5175 54.2018 54.5149 54.0119 54.5149Z" fill="#A8844E"/>
<path d="M63.0092 50.5066C59.771 50.2877 55.6543 50.5066 54.461 50.5066C50.8016 50.5066 49.2852 49.2005 49.9279 46.0518C50.5805 42.8558 52.5872 41.8765 56.2234 41.8765C59.8817 41.8765 61.4028 43.1597 60.7605 46.3083C60.4807 47.6779 60.1076 48.5042 59.3133 49.1589C62.1078 49.1589 65.5931 48.494 66.2919 45.1129C66.6825 42.9721 66.2121 40.7554 64.4946 39.474C62.7833 38.2145 60.3255 37.8877 57.0373 37.8877C53.7484 37.8877 51.1576 38.2145 48.9325 39.474C46.3629 40.9431 45.1449 43.3932 44.5736 46.1917C43.9972 49.0139 44.2245 51.4164 46.1945 52.8854C47.8956 54.1916 50.7233 54.5148 54.0122 54.5148C58.072 54.5148 63.8942 54.0724 67.4094 56.9515C69.0664 52.767 68.1555 50.9766 63.0092 50.5066Z" fill="#A8844E"/>
<path d="M71.7988 38.2358L70.0288 46.9083C69.8543 47.763 69.7318 48.5511 69.6907 49.271H70.2649C72.5548 49.1373 74.9383 48.3485 75.7672 44.4096L77.0274 38.2358H71.7988Z" fill="#A8844E"/>
<path d="M84.7581 38.2358L83.0162 46.7687C82.4577 49.5045 81.0484 50.5222 78.2014 50.5222H69.7189C70.1575 54.3306 74.7424 54.5317 77.7489 54.5317C80.7332 54.5317 82.7327 54.2752 84.9574 52.7833C86.8389 51.5015 87.5898 49.5195 88.1232 46.9083L89.8938 38.2358H84.7581Z" fill="#A8844E"/>
<path d="M152.184 38.2358L151.385 42.1525H159.481L159.453 42.292L148.872 50.2656L148.068 54.2053H151.66L167.324 42.1525L168.123 38.2358H152.184Z" fill="#A8844E"/>
<path d="M155.486 54.2054H165.72L166.533 50.2742H161.099C157.802 50.2727 155.933 52.2445 155.486 54.2054Z" fill="#A8844E"/>
<path d="M34.9606 21.3147C34.9362 21.232 34.9048 21.1548 34.8746 21.0771C32.1406 24.1955 25.4312 26.2162 19.3941 25.7673C15.8385 25.5028 9.25235 23.6636 5.92957 21.6258C9.44181 24.9902 13.5465 27.5471 18.2024 28.9265C23.7291 30.5708 29.6223 30.4589 32.9439 28.7279C35.3828 27.0848 35.9348 24.1478 34.9606 21.3147Z" fill="#DD9216"/>
<path d="M27.3608 1.6866C38.2429 8.1132 31.7653 28.3366 23.1064 34.8354C15.049 40.878 6.47423 38.0922 4.61682 32.5182C6.24142 34.9327 9.46218 35.8155 12.3244 34.8525C20.2795 31.6634 24.3757 17.2468 24.9051 12.2415C25.2593 7.93358 24.6985 5.0378 23.2026 3.2161C21.4872 1.40496 18.8647 0.525446 15.0209 1.73178C17.6642 -0.438234 23.3242 -0.696187 27.3608 1.6866Z" fill="#274195"/>
<path d="M33.449 28.4423C33.4869 28.4161 33.5354 28.3862 33.5787 28.36C33.5849 28.3512 33.5959 28.3487 33.6002 28.3439C33.8232 28.1971 34.0447 28.0335 34.2517 27.8444C34.346 27.7584 34.4448 27.6652 34.5395 27.565C38.7735 23.2683 39.672 11.319 29.2373 5.65865C25.5254 3.64129 16.8909 0.819477 8.28295 5.17262C5.43308 6.60994 2.49577 9.59972 0.910889 13.6592C2.08042 11.7318 4.10032 10.4246 8.08147 9.86313C12.0513 9.36144 17.5277 9.97827 22.8813 11.8699C26.3346 13.144 29.1272 14.7165 31.3125 16.4989C33.1135 18.0422 34.2714 19.5138 34.8743 21.0761C34.9049 21.1548 34.9363 21.232 34.9603 21.3147C35.9349 24.1478 35.3826 27.084 32.9441 28.7287C32.9411 28.732 32.9495 28.728 32.9441 28.7287C33.0596 28.6686 33.1678 28.6095 33.2913 28.5352C33.3113 28.5265 33.3252 28.5181 33.3441 28.5057C33.3733 28.4849 33.4115 28.4627 33.449 28.4423Z" fill="#C3072C"/>
<path d="M2.25894 20.5346C2.45932 20.8526 2.91111 21.3937 3.20403 21.7344C5.29936 16.8143 16.7557 13.619 20.1338 13.6595C12.5424 11.2137 5.10116 12.381 2.11211 14.9747C1.02564 16.1862 0.686807 18.0028 2.25894 20.5346Z" fill="#DD9216"/>
<path d="M24.6018 31.6914C18.5005 31.3522 9.61682 28.9993 3.32284 21.8695C3.29041 21.8233 3.24997 21.7824 3.20406 21.7329C2.91077 21.3937 2.45935 20.8519 2.25896 20.5342C0.686835 18.0031 1.02567 16.1858 2.11177 14.9773H2.10922C1.91393 15.1533 1.67165 15.3799 1.40021 15.7329C-0.214543 17.8162 -0.407279 21.1973 0.690843 24.7817C3.0893 32.5651 13.5794 37.2483 22.0926 35.9629C27.5325 35.1424 30.9409 32.0794 32.3597 30.8287C29.2781 31.7067 27.0017 31.8284 24.6018 31.6914Z" fill="#7299CE"/>
<path d="M47.4405 61.3499H49.4757L50.3985 67.787H50.4226L54.0904 61.3499H56.185L54.4456 69.7985H53.0254L54.4926 63.0302H54.4693L50.647 69.7985H49.4877L48.4227 63.0302H48.399L47.1089 69.7985H45.6891L47.4405 61.3499Z" fill="#A8844E"/>
<path d="M56.9194 66.3077C56.9194 65.4246 57.0517 64.6573 57.3158 64.0062C57.58 63.3555 57.9272 62.8192 58.3571 62.3969C58.787 61.975 59.2723 61.6617 59.8127 61.4562C60.353 61.2511 60.8991 61.1487 61.4515 61.1487C62.0038 61.1487 62.5084 61.2394 62.966 61.4208C63.4236 61.6023 63.812 61.8566 64.1315 62.1841C64.4511 62.5113 64.6996 62.8997 64.8774 63.3497C65.0548 63.7993 65.1433 64.2962 65.1433 64.8405C65.1433 65.7321 65.0173 66.5012 64.7648 67.1483C64.5123 67.795 64.1771 68.3295 63.7588 68.7514C63.3406 69.1733 62.8636 69.4866 62.327 69.6921C61.7907 69.8969 61.2387 70 60.6707 70C60.063 70 59.5267 69.9049 59.0614 69.7154C58.5958 69.5263 58.2052 69.2658 57.89 68.935C57.5742 68.6035 57.3337 68.2125 57.1679 67.7633C57.0025 67.3137 56.9194 66.8288 56.9194 66.3077ZM58.3987 66.2604C58.3987 67.0495 58.5998 67.6686 59.002 68.1185C59.4046 68.5678 59.9762 68.7925 60.718 68.7925C61.207 68.7925 61.6347 68.6785 62.002 68.4493C62.3685 68.2209 62.6764 67.921 62.9249 67.5502C63.1733 67.1796 63.3584 66.7617 63.4808 66.2961C63.6033 65.8305 63.6645 65.3608 63.6645 64.8879C63.6645 64.0991 63.4728 63.4797 63.0903 63.0301C62.7077 62.5802 62.1455 62.3557 61.4045 62.3557C60.8991 62.3557 60.4594 62.4701 60.0848 62.699C59.7103 62.9278 59.3988 63.2272 59.1503 63.5978C58.9014 63.9687 58.7142 64.3869 58.5881 64.8522C58.4617 65.3178 58.3987 65.7871 58.3987 66.2604Z" fill="#A8844E"/>
<path d="M66.5607 61.3499H73.5185L73.2463 62.628H70.5604L69.0692 69.7985H67.5903L69.0812 62.628H66.3005L66.5607 61.3499Z" fill="#A8844E"/>
<path d="M73.5089 66.3077C73.5089 65.4246 73.6412 64.6573 73.9053 64.0062C74.1695 63.3555 74.5167 62.8192 74.9466 62.3969C75.3765 61.975 75.8618 61.6617 76.4021 61.4562C76.9425 61.2511 77.4886 61.1487 78.0409 61.1487C78.5933 61.1487 79.0979 61.2394 79.5555 61.4208C80.0131 61.6023 80.4015 61.8566 80.721 62.1841C81.0406 62.5113 81.289 62.8997 81.4665 63.3497C81.6443 63.7993 81.7328 64.2962 81.7328 64.8405C81.7328 65.7321 81.6067 66.5012 81.3543 67.1483C81.1014 67.795 80.7662 68.3295 80.3483 68.7514C79.9301 69.1733 79.4531 69.4866 78.9165 69.6921C78.3801 69.8969 77.8282 70 77.2602 70C76.6524 70 76.1161 69.9049 75.6505 69.7154C75.1852 69.5263 74.7947 69.2658 74.4791 68.935C74.1636 68.6035 73.9232 68.2125 73.7574 67.7633C73.5916 67.3137 73.5089 66.8288 73.5089 66.3077ZM74.9881 66.2604C74.9881 67.0495 75.1893 67.6686 75.5915 68.1185C75.9937 68.5678 76.5661 68.7925 77.3072 68.7925C77.7965 68.7925 78.2246 68.6785 78.5915 68.4493C78.958 68.2209 79.2655 67.921 79.5143 67.5502C79.7628 67.1796 79.9479 66.7617 80.07 66.2961C80.1924 65.8305 80.2536 65.3608 80.2536 64.8879C80.2536 64.0991 80.0623 63.4797 79.6797 63.0301C79.2972 62.5802 78.735 62.3557 77.9936 62.3557C77.4886 62.3557 77.0488 62.4701 76.6743 62.699C76.2994 62.9278 75.9879 63.2272 75.7394 63.5978C75.4909 63.9687 75.3033 64.3869 75.1772 64.8522C75.0512 65.3178 74.9881 65.7871 74.9881 66.2604Z" fill="#A8844E"/>
<path d="M84.2989 61.3503H87.6949C88.1369 61.3503 88.5078 61.3959 88.8076 61.4866C89.1071 61.5773 89.3556 61.6954 89.5531 61.8415C89.7502 61.9872 89.9021 62.153 90.0085 62.3384C90.1149 62.5239 90.1921 62.7112 90.2391 62.9002C90.2865 63.0897 90.3142 63.2752 90.3222 63.4566C90.3298 63.6384 90.3338 63.7958 90.3338 63.9299C90.3338 63.9379 90.328 64.0089 90.3164 64.143C90.304 64.2771 90.269 64.4407 90.21 64.6341C90.1506 64.8272 90.058 65.0364 89.9316 65.2612C89.8052 65.486 89.6281 65.6947 89.3989 65.8886C89.1701 66.0817 88.8801 66.2412 88.5293 66.3673C88.178 66.4937 87.7463 66.5568 87.234 66.5568H84.7015L84.0271 69.799H82.5479L84.2989 61.3503ZM84.95 65.3497H87.1863C87.5175 65.3497 87.7915 65.3005 88.009 65.2021C88.2254 65.1034 88.3952 64.9755 88.5176 64.8174C88.6397 64.6596 88.7264 64.4844 88.7777 64.2909C88.8288 64.0975 88.8546 63.9062 88.8546 63.7171C88.8546 63.5983 88.8368 63.4723 88.8014 63.3382C88.7661 63.2041 88.6987 63.078 88.6003 62.9596C88.5016 62.8412 88.3595 62.745 88.1744 62.6696C87.9889 62.5946 87.7463 62.557 87.4468 62.557H85.53L84.95 65.3497Z" fill="#A8844E"/>
<path d="M92.4157 61.3499H93.8949L93.1965 64.7105H97.1488L97.8469 61.3499H99.3254L97.5744 69.7985H96.0951L96.8879 65.9883H92.9363L92.1435 69.7985H90.6639L92.4157 61.3499Z" fill="#A8844E"/>
<path d="M106.677 66.8164C106.677 67.2267 106.614 67.6136 106.488 67.9765C106.361 68.339 106.166 68.6549 105.902 68.923C105.638 69.1912 105.3 69.4043 104.89 69.5621C104.48 69.7198 103.991 69.7985 103.423 69.7985H99.6954L101.447 61.3499H102.926L102.252 64.5921H103.991C104.386 64.5921 104.746 64.6337 105.074 64.7164C105.401 64.7991 105.683 64.9295 105.92 65.1066C106.156 65.284 106.342 65.515 106.476 65.7988C106.61 66.0834 106.677 66.4222 106.677 66.8164ZM105.245 66.9232C105.245 66.5286 105.127 66.2426 104.89 66.0651C104.653 65.8881 104.243 65.7988 103.66 65.7988H102.003L101.423 68.5795H103.316C103.908 68.5795 104.378 68.4457 104.725 68.1776C105.072 67.9091 105.245 67.4912 105.245 66.9232ZM108.819 61.3499H110.298L108.535 69.7985H107.056L108.819 61.3499Z" fill="#A8844E"/>
<path d="M112.43 61.3499H118.583L118.323 62.628H113.625L113.164 64.8406H117.518L117.27 66.0473H112.903L112.395 68.5204H117.128L116.868 69.7985H110.678L112.43 61.3499Z" fill="#A8844E"/>
<path d="M124.511 61.3499H126.547L127.47 67.787H127.493L131.161 61.3499H133.256L131.516 69.7985H130.096L131.564 63.0302H131.54L127.718 69.7985H126.558L125.493 63.0302H125.47L124.18 69.7985H122.76L124.511 61.3499Z" fill="#A8844E"/>
<path d="M138.016 61.3503H139.578L141.045 69.799H139.543L139.199 67.5623H135.839L134.537 69.799H132.951L138.016 61.3503ZM138.525 62.8412H138.501L136.466 66.4384H139.046L138.525 62.8412Z" fill="#A8844E"/>
<path d="M148.636 64.1662C148.636 63.5741 148.472 63.1249 148.145 62.817C147.818 62.5095 147.346 62.3557 146.731 62.3557C146.226 62.3557 145.786 62.4701 145.411 62.699C145.037 62.9278 144.725 63.2272 144.477 63.5978C144.228 63.9687 144.041 64.3869 143.915 64.8522C143.788 65.3178 143.725 65.7871 143.725 66.2604C143.725 67.0495 143.926 67.6686 144.329 68.1185C144.731 68.5678 145.303 68.7925 146.045 68.7925C146.424 68.7925 146.743 68.72 147.003 68.5739C147.263 68.4278 147.478 68.2504 147.648 68.0416C147.818 67.8325 147.948 67.6175 148.038 67.3964C148.129 67.1756 148.194 66.9942 148.234 66.8521H149.713C149.595 67.3887 149.417 67.854 149.18 68.2482C148.944 68.6428 148.661 68.9704 148.335 69.2305C148.007 69.4906 147.644 69.6845 147.246 69.8102C146.847 69.9362 146.431 70 145.998 70C145.39 70 144.854 69.9049 144.388 69.7154C143.922 69.5263 143.532 69.2658 143.217 68.935C142.901 68.6035 142.661 68.2125 142.495 67.7633C142.329 67.3137 142.246 66.8288 142.246 66.3077C142.246 65.4246 142.378 64.6573 142.643 64.0062C142.907 63.3555 143.254 62.8192 143.684 62.3973C144.114 61.975 144.599 61.6617 145.139 61.4565C145.68 61.2514 146.226 61.1487 146.778 61.1487C147.275 61.1487 147.733 61.2157 148.151 61.3498C148.569 61.4842 148.926 61.677 149.222 61.9298C149.518 62.1823 149.744 62.4975 149.902 62.876C150.06 63.2549 150.131 63.6849 150.115 64.1662H148.636V64.1662Z" fill="#A8844E"/>
<path d="M156.01 69.7985L157.489 62.628H154.72L153.549 67.4205C153.43 67.8858 153.288 68.2822 153.123 68.6093C152.957 68.9369 152.768 69.2032 152.555 69.408C152.342 69.6131 152.105 69.7628 151.845 69.8576C151.585 69.9527 151.308 70 151.017 70C150.686 70 150.385 69.9406 150.117 69.8222L150.378 68.6746C150.559 68.7536 150.737 68.7926 150.91 68.7926C151.06 68.7926 151.198 68.7675 151.324 68.7157C151.45 68.6647 151.567 68.5722 151.673 68.4381C151.78 68.3037 151.876 68.1222 151.963 67.8934C152.05 67.665 152.136 67.3728 152.223 67.0179L153.56 61.3499H159.24L157.489 69.7985H156.01Z" fill="#A8844E"/>
<path d="M163.984 61.3503H165.547L167.014 69.799H165.511L165.168 67.5623H161.807L160.506 69.799H158.92L163.984 61.3503ZM164.493 62.8412H164.47L162.434 66.4384H165.014L164.493 62.8412Z" fill="#A8844E"/>
</g>
<defs>
<clipPath id="clip0">
<rect width="168.123" height="70" fill="white"/>
</clipPath>
</defs>
</svg>
