<svg width="80" height="80" viewBox="0 0 80 80" fill="none" xmlns="http://www.w3.org/2000/svg">
<path d="M20 0C17.25 0 15 2.25 15 5V75C15 77.75 17.25 80 20 80H70C72.75 80 75 77.75 75 75V20L55 0H20Z" fill="#E2E5E7"/>
<path d="M60 20H75L55 0V15C55 17.75 57.25 20 60 20Z" fill="#B0B7BD"/>
<path d="M75 35L60 20H75V35Z" fill="#CAD1D8"/>
<path d="M65 65C65 66.375 63.875 67.5 62.5 67.5H7.5C6.125 67.5 5 66.375 5 65V40C5 38.625 6.125 37.5 7.5 37.5H62.5C63.875 37.5 65 38.625 65 40V65Z" fill="#84BD5A"/>
<path d="M22.5525 50.9676L26.03 46.6101C27.07 45.2501 29.09 46.9876 27.95 48.2876C26.7525 49.7076 25.4925 51.2476 24.2925 52.8251L28.37 57.9026C29.47 59.4026 27.2725 60.8401 26.1925 59.3601L22.5125 54.6426L18.895 59.4626C17.875 60.9201 15.615 59.2826 16.755 57.9226L20.7725 52.8251C19.5125 51.2451 18.2925 49.7076 17.075 48.2876C15.8175 46.7876 18.155 45.2501 19.075 46.6526L22.5525 50.9676Z" fill="white"/>
<path d="M30.8375 47.3677C30.8375 46.7077 31.3975 46.1477 32.0975 46.1477C32.7375 46.1477 33.2775 46.7102 33.2775 47.3677V57.3827H38.715C40.6725 57.3827 40.715 60.0002 38.715 60.0002H32.1C31.4 60.0002 30.84 59.5027 30.84 58.7827V47.3677H30.8375Z" fill="white"/>
<path d="M42.5051 49.1676C42.9651 45.2876 48.8201 44.5901 51.5801 46.7101C52.9401 47.8076 51.5001 49.5476 50.3001 48.6676C48.8201 47.7301 45.4626 47.2901 45.0426 49.3651C44.5026 52.6451 53.1976 50.7676 53.0576 56.0851C52.9176 61.1626 45.5626 61.2801 42.8026 59.0026C42.1401 58.4626 42.1626 57.5851 42.5226 57.0426C43.0426 56.5251 43.6201 56.3451 44.3026 56.9051C45.9401 58.0226 50.1601 58.8626 50.4576 56.0226C50.2001 53.0676 41.8851 54.8451 42.5051 49.1676Z" fill="white"/>
<path d="M62.5 67.5H15V70H62.5C63.875 70 65 68.875 65 67.5V65C65 66.375 63.875 67.5 62.5 67.5Z" fill="#CAD1D8"/>
</svg>
