<svg width="207" height="68" viewBox="0 0 207 68" fill="none" xmlns="http://www.w3.org/2000/svg">
<g filter="url(#filter0_d)">
<path d="M200.111 36.4549C200.692 41.769 198.001 47.055 192.926 51.3033C187.857 55.5462 180.496 58.6653 172.041 59.5901C163.585 60.5149 155.724 59.0605 149.858 56.0135C143.985 52.9626 140.214 48.3833 139.633 43.0692C139.052 37.7551 141.743 32.4691 146.818 28.2208C151.887 23.9779 159.248 20.8588 167.703 19.934C176.159 19.0092 184.02 20.4637 189.886 23.5106C195.759 26.5615 199.53 31.1408 200.111 36.4549Z" fill="white" stroke="#666666" stroke-width="2"/>
<path d="M158.713 33.9564L159.77 43.6188C159.819 44.0721 159.943 44.3784 160.142 44.5378C160.352 44.6958 160.612 44.7579 160.923 44.724C161.233 44.6901 161.468 44.5738 161.627 44.3753C161.798 44.1755 161.859 43.849 161.809 43.3957L160.753 33.7333L162.614 33.5298L163.657 43.0669C163.768 44.0809 163.603 44.8896 163.162 45.4931C162.731 46.0834 162.033 46.4314 161.067 46.5371C160.1 46.6427 159.337 46.4546 158.778 45.9726C158.229 45.4773 157.899 44.7227 157.788 43.7088L156.745 34.1717L158.713 33.9564ZM163.963 33.3822L165.932 33.1669L167.106 43.9029L170.345 43.5487L170.54 45.338L165.333 45.9075L163.963 33.3822ZM170.105 35.7525C169.994 34.7385 170.148 33.9371 170.567 33.3481C170.996 32.7459 171.693 32.3919 172.659 32.2862C173.626 32.1806 174.377 32.376 174.915 32.8725C175.462 33.3558 175.792 34.1045 175.903 35.1184L175.946 35.5121L174.085 35.7156L174.028 35.1967C173.978 34.7434 173.854 34.4371 173.656 34.2777C173.468 34.1051 173.219 34.0358 172.909 34.0697C172.599 34.1036 172.365 34.2258 172.207 34.4362C172.059 34.6334 172.01 34.9587 172.06 35.412C172.107 35.8414 172.244 36.2127 172.471 36.5258C172.697 36.827 172.97 37.1111 173.289 37.378C173.606 37.633 173.943 37.892 174.297 38.155C174.663 38.4047 175.007 38.6869 175.331 39.0016C175.656 39.3162 175.937 39.6837 176.176 40.1042C176.415 40.5247 176.568 41.0332 176.633 41.6296C176.744 42.6436 176.579 43.4523 176.138 44.0559C175.707 44.6461 175.009 44.9941 174.043 45.0998C173.077 45.2055 172.314 45.0173 171.754 44.5353C171.205 44.0401 170.875 43.2855 170.764 42.2715L170.68 41.5021L172.541 41.2986L172.638 42.1932C172.688 42.6465 172.812 42.9529 173.011 43.1122C173.221 43.2703 173.481 43.3324 173.791 43.2984C174.102 43.2645 174.336 43.1483 174.496 42.9498C174.667 42.75 174.728 42.4235 174.678 41.9702C174.631 41.5407 174.495 41.1754 174.269 40.8742C174.041 40.5611 173.769 40.277 173.451 40.022C173.132 39.7551 172.79 39.4968 172.425 39.247C172.07 38.984 171.731 38.6952 171.407 38.3806C171.083 38.0659 170.801 37.6984 170.562 37.2779C170.323 36.8574 170.17 36.3489 170.105 35.7525ZM180.12 39.2384L179.637 40.4501L180.058 44.2971L178.089 44.5124L176.719 31.9871L178.688 31.7718L179.285 37.2293L181.264 31.49L183.233 31.2747L181.106 37.1569L184.602 43.8001L182.581 44.0212L180.12 39.2384Z" fill="#666666"/>
</g>
<g filter="url(#filter1_d)">
<path d="M151.14 32.6814C150.421 37.9786 146.533 42.4585 140.582 45.3559C134.639 48.2497 126.744 49.4996 118.315 48.3557C109.885 47.2118 102.609 43.9027 97.6516 39.5297C92.6883 35.1512 90.1349 29.7971 90.8538 24.4999C91.5727 19.2026 95.4607 14.7227 101.411 11.8253C107.355 8.93156 115.25 7.68161 123.679 8.82552C132.108 9.96944 139.385 13.2785 144.342 17.6515C149.305 22.0301 151.859 27.3842 151.14 32.6814Z" fill="white" stroke="#666666" stroke-width="2"/>
<path d="M113.036 20.5943L119.1 21.4173L118.858 23.201L116.807 22.9226L115.354 33.6245L113.392 33.3582L114.845 22.6563L112.794 22.3779L113.036 20.5943ZM119.964 21.5346L121.926 21.8008L120.474 32.5027L123.702 32.9409L123.46 34.7245L118.27 34.0201L119.964 21.5346ZM124.549 22.1568L130.614 22.9798L130.372 24.7635L128.32 24.4851L126.868 35.187L124.906 34.9207L126.358 24.2188L124.307 23.9405L124.549 22.1568Z" fill="#666666"/>
</g>
<g filter="url(#filter2_d)">
<path d="M105.335 41.1584C105.335 46.5041 102.084 51.4662 96.5774 55.1376C91.0774 58.8042 83.4216 61.1046 74.9153 61.1046C66.4089 61.1046 58.7531 58.8042 53.2531 55.1376C47.7461 51.4662 44.4958 46.5041 44.4958 41.1584C44.4958 35.8126 47.7461 30.8505 53.2531 27.1792C58.7531 23.5125 66.4089 21.2121 74.9153 21.2121C83.4216 21.2121 91.0774 23.5125 96.5774 27.1792C102.084 30.8505 105.335 35.8126 105.335 41.1584Z" fill="white" stroke="#666666" stroke-width="2"/>
<path d="M69.4835 37.6538V46.7798H67.7015V34.1798H70.1855L72.2195 41.7218V34.1798H73.9835V46.7798H71.9495L69.4835 37.6538ZM77.1652 37.6538V46.7798H75.3832V34.1798H77.8672L79.9012 41.7218V34.1798H81.6652V46.7798H79.6312L77.1652 37.6538Z" fill="#666666"/>
</g>
<g filter="url(#filter3_d)">
<path d="M64.43 20.8282C65.3033 26.1022 62.9074 31.5286 58.0742 36.0503C53.2471 40.5662 46.0699 44.0864 37.6779 45.4761C29.2858 46.8657 21.357 45.847 15.3319 43.1281C9.29906 40.4058 5.28186 36.0413 4.40853 30.7674C3.5352 25.4934 5.9311 20.067 10.7643 15.5453C15.5915 11.0294 22.7686 7.50916 31.1607 6.11949C39.5527 4.72982 47.4815 5.74858 53.5066 8.46747C59.5394 11.1898 63.5567 15.5543 64.43 20.8282Z" fill="white" stroke="#666666" stroke-width="2"/>
<path d="M27.3794 28.7786L27.2498 19.7322L29.9668 19.2823L32.0252 31.713L30.1784 32.0188L28.7022 23.1042L28.8288 32.2423L26.9819 32.5481L24.0701 23.999L25.5258 32.7893L23.821 33.0716L21.7625 20.6408L24.4795 20.1909L27.3794 28.7786ZM31.6331 22.0715C31.4665 21.0652 31.5759 20.2565 31.9612 19.6453C32.3564 19.0204 33.0335 18.6285 33.9924 18.4697C34.9514 18.3109 35.7127 18.4646 36.2764 18.9308C36.85 19.3831 37.2202 20.1125 37.3868 21.1188L37.4515 21.5094L35.6046 21.8153L35.5194 21.3003C35.4449 20.8504 35.3041 20.5514 35.0971 20.4032C34.9 20.2412 34.6476 20.1857 34.3398 20.2367C34.0319 20.2877 33.8049 20.4226 33.6587 20.6414C33.5224 20.8464 33.4915 21.1739 33.566 21.6237C33.6365 22.0499 33.794 22.4131 34.0383 22.7132C34.2806 23.0015 34.5684 23.2701 34.9015 23.519C35.2327 23.7561 35.5826 23.9962 35.9513 24.2392C36.3298 24.4684 36.6896 24.7312 37.0306 25.0275C37.3716 25.3237 37.673 25.6752 37.935 26.0819C38.1969 26.4885 38.3769 26.9879 38.4749 27.5798C38.6416 28.5861 38.5214 29.4027 38.1143 30.0296C37.7172 30.6427 37.0391 31.0287 36.0802 31.1875C35.1212 31.3463 34.349 31.2005 33.7636 30.7501C33.188 30.2859 32.8169 29.5506 32.6503 28.5443L32.5238 27.7807L34.3707 27.4749L34.5177 28.3628C34.5922 28.8127 34.7329 29.1117 34.9399 29.2599C35.1588 29.4061 35.4221 29.4537 35.7299 29.4027C36.0377 29.3518 36.2657 29.2228 36.4139 29.0158C36.5739 28.8069 36.6166 28.4774 36.5421 28.0276C36.4716 27.6014 36.3151 27.2441 36.0727 26.9559C35.8284 26.6557 35.5407 26.3871 35.2095 26.1501C34.8764 25.9011 34.5205 25.6621 34.142 25.4328C33.7733 25.1898 33.4185 24.9201 33.0775 24.6238C32.7365 24.3276 32.4351 23.9761 32.1731 23.5694C31.9112 23.1628 31.7312 22.6635 31.6331 22.0715ZM41.8249 24.9999L41.4093 26.2364L42.0415 30.0544L40.0881 30.3778L38.0297 17.9471L39.9831 17.6236L40.88 23.0399L42.5403 17.2002L44.4937 16.8767L42.6942 22.8672L46.5521 29.3074L44.5455 29.6397L41.8249 24.9999Z" fill="#666666"/>
</g>
<defs>
<filter id="filter0_d" x="137.554" y="17.6584" width="68.6349" height="48.2073" filterUnits="userSpaceOnUse" color-interpolation-filters="sRGB">
<feFlood flood-opacity="0" result="BackgroundImageFix"/>
<feColorMatrix in="SourceAlpha" type="matrix" values="0 0 0 0 0 0 0 0 0 0 0 0 0 0 0 0 0 0 127 0"/>
<feOffset dx="2" dy="2"/>
<feGaussianBlur stdDeviation="1.5"/>
<feColorMatrix type="matrix" values="0 0 0 0 0 0 0 0 0 0 0 0 0 0 0 0 0 0 0.15 0"/>
<feBlend mode="normal" in2="BackgroundImageFix" result="effect1_dropShadow"/>
<feBlend mode="normal" in="SourceGraphic" in2="effect1_dropShadow" result="shape"/>
</filter>
<filter id="filter1_d" x="88.7336" y="6.40472" width="68.5263" height="48.3717" filterUnits="userSpaceOnUse" color-interpolation-filters="sRGB">
<feFlood flood-opacity="0" result="BackgroundImageFix"/>
<feColorMatrix in="SourceAlpha" type="matrix" values="0 0 0 0 0 0 0 0 0 0 0 0 0 0 0 0 0 0 127 0"/>
<feOffset dx="2" dy="2"/>
<feGaussianBlur stdDeviation="1.5"/>
<feColorMatrix type="matrix" values="0 0 0 0 0 0 0 0 0 0 0 0 0 0 0 0 0 0 0.15 0"/>
<feBlend mode="normal" in2="BackgroundImageFix" result="effect1_dropShadow"/>
<feBlend mode="normal" in="SourceGraphic" in2="effect1_dropShadow" result="shape"/>
</filter>
<filter id="filter2_d" x="42.4958" y="19.2121" width="68.8388" height="47.8925" filterUnits="userSpaceOnUse" color-interpolation-filters="sRGB">
<feFlood flood-opacity="0" result="BackgroundImageFix"/>
<feColorMatrix in="SourceAlpha" type="matrix" values="0 0 0 0 0 0 0 0 0 0 0 0 0 0 0 0 0 0 127 0"/>
<feOffset dx="2" dy="2"/>
<feGaussianBlur stdDeviation="1.5"/>
<feColorMatrix type="matrix" values="0 0 0 0 0 0 0 0 0 0 0 0 0 0 0 0 0 0 0.15 0"/>
<feBlend mode="normal" in2="BackgroundImageFix" result="effect1_dropShadow"/>
<feBlend mode="normal" in="SourceGraphic" in2="effect1_dropShadow" result="shape"/>
</filter>
<filter id="filter3_d" x="2.23096" y="3.49994" width="68.3767" height="48.5956" filterUnits="userSpaceOnUse" color-interpolation-filters="sRGB">
<feFlood flood-opacity="0" result="BackgroundImageFix"/>
<feColorMatrix in="SourceAlpha" type="matrix" values="0 0 0 0 0 0 0 0 0 0 0 0 0 0 0 0 0 0 127 0"/>
<feOffset dx="2" dy="2"/>
<feGaussianBlur stdDeviation="1.5"/>
<feColorMatrix type="matrix" values="0 0 0 0 0 0 0 0 0 0 0 0 0 0 0 0 0 0 0.15 0"/>
<feBlend mode="normal" in2="BackgroundImageFix" result="effect1_dropShadow"/>
<feBlend mode="normal" in="SourceGraphic" in2="effect1_dropShadow" result="shape"/>
</filter>
</defs>
</svg>
