<?xml version="1.0" encoding="utf-8"?>
<!-- Generator: Adobe Illustrator 17.0.0, SVG Export Plug-In . SVG Version: 6.00 Build 0)  -->
<!DOCTYPE svg PUBLIC "-//W3C//DTD SVG 1.1//EN" "http://www.w3.org/Graphics/SVG/1.1/DTD/svg11.dtd">
<svg version="1.1" id="Слой_1" xmlns="http://www.w3.org/2000/svg" xmlns:xlink="http://www.w3.org/1999/xlink" x="0px" y="0px"
	 width="994px" height="418px" viewBox="0 0 994 418" enable-background="new 0 0 994 418" xml:space="preserve">
<g>
	<g>
		<path d="M626.978,409.636c-1.164,0-2.214-0.213-3.12-0.632c-1.185-0.548-2.739-1.725-3.416-4.22
			c-1.655-6.095,8.946-17.996,11.861-20.01c2.693-1.859,5.704-2.803,8.948-2.803c3.91,0,8.086,1.369,12.412,4.068
			c2.131,1.33,3.231,1.474,3.606,1.474c0.141,0,0.215-0.02,0.24-0.027c0.016-0.005,0.18-0.118,0.362-0.586
			c1.246-3.19-2.375-5.46-5.632-6.803c-2.752-1.133-6.319-1.708-10.604-1.708c-4.011,0-8.109,0.504-10.844,0.882
			c-0.934,0.13-1.925,0.305-2.953,0.485c-2.623,0.461-5.545,0.974-8.452,0.974c-4.261,0.001-7.578-1.119-10.142-3.422
			c-1.334-1.199-3.967-2.412-6.418-2.412c-0.438,0-0.852,0.04-1.23,0.12c-1.188,0.251-1.968,0.873-2.454,1.955
			c-0.299,0.664-0.473,1.245-0.641,1.807c-0.745,2.485-1.67,4.458-6.172,5.48c-1.539,0.349-3.3,0.512-5.543,0.512
			c-0.928,0-1.841-0.026-2.714-0.053c-0.797-0.023-1.569-0.046-2.312-0.046l-0.398,0.003c-2.866,0.036-5.887,0.232-8.557,1.412
			c-0.794,0.35-1.567,0.729-2.337,1.106c-2.864,1.402-5.814,2.847-9.519,3.002c-0.303,0.012-0.602,0.018-0.901,0.018
			c-2.31,0-4.613-0.338-6.646-0.636c-2.022-0.297-3.93-0.577-5.778-0.577c-1.027,0.001-2.176,0.122-3.391,0.25
			c-1.413,0.148-2.838,0.297-4.261,0.297c-1.062,0-2-0.083-2.869-0.254c-2.642-0.521-4.686-2.009-6.489-3.32
			c-0.842-0.612-1.629-1.186-2.386-1.597c-0.761-0.415-1.515-0.8-2.26-1.181c-2.272-1.164-4.607-2.359-6.876-4.198
			c-5.603-4.542-10.767-8.017-16.253-10.934c-0.773-0.41-1.549-0.846-2.33-1.284c-2.176-1.221-4.427-2.483-6.655-3.173
			c-0.746-0.229-1.474-0.421-2.189-0.61c-2.183-0.575-4.588-1.21-6.95-2.72c-2.023-1.294-3.339-2.945-4.5-4.402
			c-0.708-0.89-1.371-1.721-2.126-2.396c-1.297-1.159-3.415-1.946-5.463-2.708c-0.596-0.223-1.182-0.441-1.747-0.666
			c-3.976-1.583-5.545-3.038-7.975-6.343c-4.013-5.463-8.62-10.287-12.323-12.906c-5.114-3.615-6.924-6.98-6.917-12.859
			c0-0.418,0.01-0.834,0.021-1.245c0.06-2.455-0.035-3.21-0.819-3.846c-1.117-0.905-4.153-2.422-6.444-3.39
			c-1.668-0.706-4.671-1.238-6.986-1.238c-0.536,0-0.997,0.029-1.372,0.087c-0.85,0.132-1.62,0.748-2.595,1.528
			c-1.411,1.129-3.167,2.534-5.788,2.771c-0.264,0.023-0.52,0.034-0.769,0.034c-4.056,0-6.468-2.861-8.229-4.951
			c-1.568-1.859-2.367-2.637-3.251-2.637c-0.353,0-0.771,0.104-1.277,0.32c-0.815,0.346-1.467,0.754-2.157,1.187
			c-1.463,0.919-3.117,1.956-5.881,2.127c-7.685,0.474-13.207,0.924-19.686,2.793l-1.203,0.35c-3.655,1.069-7.8,2.282-11.916,2.282
			c-3.025,0.001-5.672-0.636-8.092-1.945c-0.404-0.218-1.523-0.836-1.523-0.836c-3.537-1.954-7.543-4.168-11.416-4.168
			c-0.861,0-1.704,0.109-2.505,0.327c-0.859,0.233-1.509,0.62-2.198,1.03c-1.202,0.717-2.516,1.417-4.2,1.417
			c-1.41,0-2.854-0.483-4.543-1.521c-1.88-1.155-3.25-2.626-4.574-4.049c-0.836-0.898-1.623-1.744-2.472-2.424
			c-2.751-2.202-4.227-4.24-5.788-6.398c-0.342-0.472-0.698-0.964-1.085-1.483c-0.667-0.894-1.34-1.254-1.63-1.277
			c0,0-0.001,0-0.001,0c-0.19,0-0.42,0.197-0.543,0.315c-0.486,0.467-0.871,1.587-1.243,2.671c-0.585,1.701-1.312,3.813-3.016,5.437
			c-2.502,2.385-5.438,2.66-7.427,2.66c-0.804,0-1.586-0.05-2.277-0.095c-0.719-0.047-1.345-0.083-1.911-0.083
			c-1.442,0-1.973,0.252-2.4,0.687c-0.65,0.661-0.987,1.902-1.344,3.217c-0.342,1.257-0.729,2.679-1.484,4.009
			c-1.364,2.4-9.917,13.792-16.129,14.361c-0.109,0.01-0.217,0.019-0.324,0.025c2.048,0.736,2.831,2.158,3.125,3.033
			c1.035,3.083-1.318,6.17-2.813,7.735c-2.778,2.905-6.461,5.075-9.854,5.804c-1.474,0.316-2.853,0.316-3.961,0.316l-0.712-0.001
			c-1.448,0-2.549,0.047-3.529,0.652c-1.037,0.643-2.014,1.776-3.049,2.979c-0.888,1.03-1.894,2.199-3.07,3.168
			c-1.118,0.921-2.842,2.144-4.902,2.144c-0.383,0-0.765-0.043-1.134-0.128c-2.764-0.64-3.982-3.316-4.961-5.467
			c-0.557-1.223-1.13-2.481-1.821-3.198c-4.164-4.32-7.976-6.798-10.459-6.798c-0.127,0-0.252,0.007-0.374,0.021
			c-2.054,0.239-3.979,1.909-6.017,3.676c-2.688,2.33-5.73,4.968-9.953,5.02l-0.3,0.003c-4.601,0-6.32-2.314-6.935-3.695
			c-2.39-5.364,3.999-12.526,4.735-13.325c3.842-4.167,8.513-5.971,13.03-7.714c3.514-1.356,6.829-2.637,9.571-4.971
			c4.68-3.982,6.592-9.062,6.199-16.473c-0.136-2.563,0.322-4.739,0.765-6.844c0.204-0.969,0.396-1.88,0.518-2.787
			c0.026-0.193,0.041-0.354,0.048-0.485c-0.195-0.014-0.46-0.023-0.817-0.023c-0.527,0-1.097,0.021-1.644,0.04l-0.373,0.014
			c-5.746,0.205-10.058,3.093-13.861,6.182c-1.697,1.379-3.179,3.095-4.747,4.911c-1.854,2.146-3.771,4.364-6.179,6.151
			l-0.699,0.521c-2.619,1.954-5.88,4.388-9.141,5.381c-1.362,0.416-2.914,0.609-4.884,0.609c-1,0-2.002-0.047-2.972-0.094
			c-0.931-0.045-1.762-0.085-2.541-0.085c-0.258,0-0.51,0.004-0.755,0.015c-6.817,0.294-14.345,3.189-21.464,6.273
			c-0.341,0.148-0.688,0.306-1.035,0.464c-1.824,0.83-4.096,1.863-6.561,1.863c-1.667,0-3.235-0.478-4.66-1.421
			c-2.394-1.582-4.015-4.195-5.445-6.5c-0.499-0.804-0.969-1.562-1.414-2.178l-1.104-1.519c-1.512-2.074-3.071-4.214-4.49-6.446
			c-3.324-5.227-9.469-8.332-15.411-11.335c-2.265-1.146-4.559-2.306-6.673-3.563c-4.618-2.748-13.236-4.9-19.621-4.9
			c-1.139,0-2.163,0.071-3.042,0.211c-4.381,0.693-8.173,3.988-11.841,7.174c-1.698,1.475-3.425,2.974-5.226,4.252
			c-1.16,0.824-2.326,1.505-3.454,2.164c-1.633,0.955-3.172,1.855-4.517,3.085c-3.38,3.092-5.706,4.506-10.557,4.711
			c-0.278,0.012-0.55,0.017-0.814,0.017c-8.292,0.001-10.955-5.601-13.529-11.019c-0.213-0.448-0.996-2.09-0.996-2.09
			c-0.158-0.338-0.303-0.639-0.435-0.906c0.027,1.408,0.584,3.106,1.095,4.66c0.252,0.767,0.512,1.557,0.714,2.33
			c2.474,9.457-1.272,13.42-6.014,18.438c-0.423,0.447-0.847,0.896-1.284,1.365c-3.825,4.107-6.161,8.503-8.866,13.592l-0.065,0.122
			c-0.585,1.101-1.182,2.223-1.809,3.366l-0.412,0.76c-1.792,3.311-4.021,7.433-7.802,9.167c-1.005,0.461-2.06,0.685-3.226,0.685
			c-1.004,0-1.927-0.165-2.741-0.312c-0.688-0.124-1.243-0.219-1.672-0.219c-0.289,0-0.498,0.043-0.698,0.143
			c-3.141,1.548-2.88,8.781-2.725,13.103c0.037,1.029,0.07,1.979,0.07,2.8v1.5H9v-1.5c0-0.736-0.031-1.584-0.063-2.503
			c-0.224-6.228-0.559-15.517,6.063-18.781c1.038-0.512,2.135-0.76,3.355-0.76c0.993,0,1.908,0.164,2.715,0.309
			c0.626,0.113,1.206,0.218,1.677,0.218c0.305,0,0.542-0.043,0.746-0.136c1.955-0.897,3.728-4.175,5.023-6.568l0.424-0.781
			c0.64-1.168,1.246-2.308,1.84-3.427c2.784-5.238,5.413-10.184,9.773-14.865c0.454-0.486,0.893-0.951,1.314-1.397
			c4.639-4.908,6.202-6.562,4.57-12.8c-0.154-0.591-0.385-1.293-0.608-1.972c-0.992-3.019-2.35-7.152-0.414-10.923
			c1.469-2.866,3.359-3.475,4.685-3.48c3.312,0.059,4.98,3.622,6.199,6.223c0,0,0.765,1.604,0.984,2.064
			c2.567,5.401,3.782,7.593,8.146,7.593c0.172,0,0.349-0.004,0.53-0.011c3.14-0.132,4.145-0.753,6.755-3.141
			c1.816-1.663,3.709-2.769,5.54-3.839c1.063-0.622,2.065-1.207,3.008-1.877c1.57-1.114,3.12-2.461,4.761-3.887
			c4.31-3.743,8.763-7.609,14.84-8.572c1.214-0.192,2.572-0.29,4.035-0.29c7.273,0,17.216,2.525,22.635,5.749
			c1.944,1.156,4.053,2.223,6.286,3.352c6.691,3.382,13.583,6.865,17.792,13.484c1.321,2.077,2.757,4.047,4.277,6.133l1.114,1.533
			c0.568,0.785,1.092,1.63,1.647,2.523c1.11,1.789,2.362,3.809,3.662,4.668c0.445,0.294,0.868,0.426,1.367,0.426
			c1.052,0,2.463-0.602,4.064-1.328l0.123-0.056c0.338-0.152,0.674-0.305,1.008-0.449c7.647-3.313,15.798-6.428,23.589-6.764
			c0.328-0.013,0.658-0.019,0.994-0.019c0.903,0,1.816,0.041,2.831,0.09c0.897,0.043,1.808,0.088,2.689,0.088
			c1.371,0,2.371-0.11,3.148-0.348c2.258-0.688,5.052-2.773,7.297-4.448l0.715-0.533c1.876-1.392,3.496-3.267,5.211-5.251
			c1.678-1.942,3.403-3.94,5.508-5.649c4.614-3.748,9.918-7.253,17.428-7.521l0.337-0.013c0.683-0.024,1.315-0.047,1.911-0.047
			c1.96,0,3.976,0.222,5.438,1.833c1.739,1.915,1.381,4.594,1.263,5.475c-0.151,1.127-0.376,2.192-0.593,3.223
			c-0.397,1.885-0.74,3.513-0.645,5.295c0.494,9.331-2.145,16.118-8.303,21.359c-3.516,2.991-7.468,4.518-11.29,5.994
			c-4.062,1.568-7.893,3.048-10.789,6.187c-2.602,2.823-3.833,5.891-3.688,6.731c0.169,0.083,0.632,0.223,1.482,0.223l0.2-0.002
			c2.048-0.025,4.023-1.738,6.115-3.553c2.515-2.181,5.364-4.65,9.255-5.104c0.352-0.041,0.71-0.062,1.074-0.062
			c4.28,0,9.25,2.905,14.773,8.635c1.407,1.459,2.232,3.274,2.961,4.876c0.22,0.482,0.617,1.355,0.931,1.884
			c0.191-0.117,0.453-0.298,0.792-0.577c0.778-0.641,1.536-1.521,2.338-2.453c1.291-1.497,2.619-3.038,4.44-4.165
			c1.136-0.703,2.271-1.09,3.368-1.301c-1.078-0.225-2.019-0.661-2.81-1.307c-1.018-0.83-2.641-2.779-2.07-6.506
			c0.528-3.452,2.666-6.592,4.552-9.361c0.618-0.906,1.198-1.758,1.672-2.55c0.246-0.409,0.551-0.938,0.907-1.557l0.093-0.162
			c6.613-11.49,12.209-19.143,18.024-19.143c0.628,0,1.252,0.093,1.854,0.277c2.186,0.669,2.88,2.178,3.1,3.018
			c0.768,2.94-1.707,5.527-4.572,8.523c-0.825,0.863-2.207,2.308-2.451,2.807c-3.481,7.149-2.535,8.723-2.525,8.737
			c0.024,0.007,0.301,0.116,0.908,0.116c0.195,0,0.404-0.011,0.627-0.031c2.23-0.204,9.224-7.415,11.46-11.35
			c0.381-0.67,0.638-1.614,0.909-2.614c0.495-1.821,1.108-4.077,2.858-5.855c2.186-2.222,4.883-2.479,6.721-2.479
			c0.765,0,1.502,0.047,2.214,0.093c0.725,0.048,1.388,0.091,2.004,0.091c1.55,0,2.451-0.283,3.215-1.01
			c0.645-0.615,1.05-1.794,1.479-3.043c0.577-1.678,1.23-3.576,2.76-5.047c1.355-1.302,2.976-1.99,4.685-1.99
			c0.167,0,0.336,0.007,0.505,0.021c2.179,0.181,4.346,1.519,5.951,3.672c0.405,0.542,0.779,1.059,1.136,1.553
			c1.487,2.056,2.561,3.538,4.676,5.231c1.186,0.948,2.162,1.997,3.106,3.011c1.11,1.192,2.147,2.306,3.331,3.032
			c0.848,0.521,1.217,0.631,1.378,0.631c0.199,0,0.619-0.25,1.15-0.566c0.873-0.519,2.054-1.223,3.703-1.669
			c1.314-0.357,2.686-0.539,4.073-0.539c5.416,0,10.347,2.725,14.309,4.914l0.133,0.073c0.458,0.253,0.909,0.502,1.354,0.742
			c1.499,0.812,3.216,1.205,5.25,1.205c3.303,0,6.817-1.028,10.215-2.022l1.224-0.356c7.597-2.191,14.091-2.592,20.967-3.016
			c1.254-0.078,1.9-0.483,3.072-1.219c0.786-0.493,1.753-1.1,3.006-1.631c1.266-0.537,2.498-0.811,3.663-0.811
			c3.768,0,6.097,2.765,7.797,4.783c1.676,1.988,2.552,2.819,3.637,2.819c0.077,0,0.155-0.004,0.235-0.012
			c0.823-0.073,1.597-0.693,2.577-1.478c1.334-1.068,2.994-2.397,5.429-2.774c0.682-0.104,1.453-0.157,2.294-0.157
			c3.05,0,6.968,0.72,9.314,1.711c0.562,0.237,5.569,2.376,7.888,4.257c3.186,2.583,3.1,6.091,3.038,8.651
			c-0.009,0.366-0.018,0.736-0.019,1.107c-0.004,3.944,0.814,5.431,4.382,7.953c6.223,4.399,12.055,12.021,13.693,14.252
			c1.844,2.507,2.559,3.207,5.359,4.321c0.524,0.209,1.068,0.41,1.62,0.615c2.452,0.913,5.229,1.946,7.371,3.86
			c1.136,1.015,1.992,2.089,2.82,3.129c0.996,1.251,1.856,2.33,3.039,3.087c1.569,1.002,3.165,1.424,5.186,1.956
			c0.82,0.217,1.646,0.436,2.494,0.698c2.832,0.875,5.364,2.295,7.812,3.668c0.748,0.42,1.482,0.832,2.216,1.223
			c5.834,3.101,11.304,6.777,17.215,11.57c1.787,1.448,3.75,2.452,5.829,3.517c0.791,0.403,1.591,0.813,2.398,1.253
			c1.102,0.601,2.089,1.318,3.044,2.013c1.43,1.041,2.779,2.022,4.121,2.287c0.479,0.095,1.039,0.141,1.708,0.141
			c1.125,0,2.389-0.133,3.611-0.262c1.33-0.14,2.693-0.283,4.013-0.285c2.312,0,4.526,0.324,6.668,0.639
			c2.048,0.301,3.919,0.576,5.713,0.576c0.24,0,0.48-0.005,0.719-0.015c2.448-0.103,4.612-1.162,7.118-2.388
			c0.849-0.415,1.697-0.83,2.564-1.214c3.655-1.614,7.402-1.879,10.906-1.924l0.453-0.003c0.805,0,1.646,0.023,2.511,0.05
			c0.918,0.025,1.753,0.049,2.579,0.049c1.784,0,3.071-0.112,4.173-0.363c1.091-0.247,1.371-0.385,1.441-0.444
			c0.067-0.09,0.2-0.535,0.308-0.893c0.194-0.651,0.459-1.531,0.92-2.558c1.283-2.857,3.596-4.713,6.687-5.366
			c0.795-0.168,1.637-0.254,2.499-0.254c3.644,0,7.726,1.551,10.399,3.951c1.437,1.291,3.387,1.892,6.137,1.892
			c2.358,0,4.903-0.447,7.363-0.88c1.127-0.198,2.202-0.387,3.214-0.526c2.897-0.402,7.26-0.938,11.649-0.938
			c5.16,0,9.382,0.706,12.906,2.159c7.88,3.247,11.22,8.68,8.937,14.532c-1.021,2.614-2.773,3.671-4.063,4.098
			c-0.656,0.219-1.365,0.329-2.106,0.329c-1.984,0.001-4.273-0.801-6.805-2.38c-3.371-2.103-6.468-3.169-9.205-3.169
			c-2.043,0-3.865,0.573-5.569,1.751c-3.153,2.177-9.798,11.648-9.479,13.513c0.059,0.214,0.125,0.318,0.146,0.339
			c0.074,0.03,0.259,0.09,0.632,0.09c2.174,0,6.146-1.867,8.773-3.104c2.469-1.16,4.418-2.076,5.947-2.213
			c0.445-0.04,0.874-0.059,1.287-0.059c3.357,0,5.688,1.24,7.94,2.44c0.447,0.239,0.868,0.464,1.312,0.689
			c1.951,0.994,4.375,1.437,7.859,1.437c1.343,0,2.735-0.062,4.082-0.123l1.175-0.053c3.241-0.135,5.843-0.76,8.986-2.158
			c4.553-2.026,8.213-2.178,13.276-2.178c6.507,0,13.729-0.465,17.971-3.915c5.567-4.527,12.073-11.158,16.977-17.306
			c0.896-1.122,1.635-2.304,2.418-3.555c1.283-2.054,2.597-4.156,4.662-6.144c2.983-2.869,6.144-5.961,9.113-9.443
			c3.295-3.861,6.493-7.101,12.29-7.624c0.853-0.076,1.77-0.113,2.805-0.113c1.006,0,2.005,0.034,2.985,0.069
			c0.949,0.033,1.876,0.066,2.786,0.066c1.363,0,2.457-0.077,3.442-0.244c3.401-0.578,5.726-2.148,8.02-5.422
			c4.585-6.541,10.109-10.997,17.913-14.448c2.436-1.077,5.496-2.583,7.559-4.684c1.681-1.713,2.891-3.847,4.061-5.911
			c2.643-4.662,5.635-9.942,14-9.992c1.42,0,2.797,0.1,4.205,0.211c1.3,0.103,2.515,0.198,3.683,0.198
			c1.573,0,2.814-0.18,3.905-0.565c1.906-0.671,3.699-2.079,5.598-3.569c1.234-0.97,2.507-1.969,3.889-2.825
			c2.816-1.747,4.968-3.724,7.194-6.608c5.145-6.667,9.684-10.912,18.922-14.249c3.406-1.229,5.324-3.642,7.753-6.697
			c0.97-1.22,1.946-2.446,3.073-3.664c2.032-2.197,4.133-4.468,7.756-5.664c1.493-0.493,2.971-0.664,4.4-0.83
			c1.592-0.185,3.095-0.36,4.077-0.967c2.406-1.485,4.489-4.292,6.504-7.006c1.158-1.561,2.356-3.176,3.652-4.591
			c1.547-1.689,2.837-3.675,4.203-5.777c1.866-2.871,3.796-5.841,6.561-8.296c1.863-1.656,3.887-2.829,5.844-3.962
			c2.47-1.431,4.799-2.779,6.412-4.936c0.929-1.241,1.629-2.879,2.37-4.612c1.46-3.42,3.108-7.282,7.118-9.218
			c1.453-0.703,2.974-1.209,4.445-1.699c2.388-0.793,4.599-1.526,6.101-2.895c1.843-1.678,3.167-4.791,4.447-7.802
			c0.661-1.555,1.285-3.023,2.014-4.395c0.833-1.569,1.803-2.961,2.74-4.306c0.9-1.289,1.731-2.48,2.425-3.771
			c1.896-3.534,3.475-7.471,5.001-11.278c1.07-2.668,2.173-5.42,3.397-8.077c2.214-4.804,5.241-8.88,8.168-12.821l0.073-0.099
			c0.757-1.02,1.509-2.035,2.24-3.054c2.652-3.699,3.394-9.667,2.202-17.738c-0.312-2.108-1.224-4.135-2.19-6.281
			c-0.973-2.164-1.976-4.393-2.462-6.903c-1.305-6.727,0.791-13.448,2.64-19.377c0.253-0.81,0.479-1.498,0.698-2.167
			c1.467-4.464,2.428-7.388,0.564-10.977c-3.746-7.208-0.13-13.685,2.775-18.889c1.091-1.954,2.122-3.8,2.777-5.595
			c2.876-7.873,1.05-16.447-0.989-22.253c-0.275-0.783-0.551-1.546-0.821-2.294l-0.081-0.223c-1.933-5.343-3.602-9.958-3.602-16.145
			c0-3.749-0.092-8.031-1.187-11.408l-0.463-1.427l5.707-1.852l0.463,1.427c1.365,4.208,1.479,9.051,1.479,13.259
			c0,5.136,1.504,9.292,3.244,14.104l0.071,0.197c0.28,0.774,0.565,1.562,0.849,2.373c2.364,6.73,4.45,16.756,0.966,26.3
			c-0.819,2.241-2.018,4.387-3.176,6.462c-2.653,4.754-4.944,8.858-2.689,13.198c3.027,5.829,1.399,10.785-0.176,15.578
			c-0.216,0.655-0.436,1.325-0.651,2.015c-1.653,5.299-3.526,11.306-2.509,16.552c0.354,1.83,1.175,3.652,2.044,5.583
			c1.091,2.426,2.22,4.934,2.652,7.868c1.428,9.665,0.33,17.104-3.262,22.111c-0.773,1.079-1.57,2.153-2.372,3.233
			c-2.746,3.7-5.584,7.524-7.535,11.757c-1.156,2.506-2.228,5.179-3.264,7.764c-1.6,3.99-3.242,8.087-5.299,11.917
			c-0.857,1.599-1.829,2.992-2.77,4.34c-0.881,1.263-1.713,2.455-2.384,3.716c-0.607,1.144-1.181,2.494-1.788,3.924
			c-1.533,3.605-3.118,7.332-5.931,9.894c-2.441,2.222-5.369,3.194-8.201,4.136c-1.366,0.454-2.655,0.883-3.774,1.423
			c-1.983,0.957-3.012,3.366-4.203,6.155c-0.852,1.993-1.729,4.047-3.09,5.866c-2.347,3.139-5.326,4.863-8.207,6.531
			c-1.778,1.03-3.458,2.004-4.869,3.257c-2.158,1.918-3.788,4.426-5.514,7.082c-1.439,2.214-2.927,4.502-4.809,6.558
			c-1.087,1.188-2.144,2.61-3.262,4.117c-2.352,3.168-4.784,6.444-8.168,8.534c-2.117,1.308-4.466,1.581-6.537,1.821
			c-1.188,0.139-2.304,0.269-3.214,0.569c-2.148,0.708-3.507,2.177-5.227,4.035c-0.989,1.068-1.902,2.217-2.785,3.328
			c-2.534,3.188-5.406,6.799-10.41,8.607c-7.075,2.555-11.015,5.535-16.211,12.269c-2.656,3.443-5.365,5.924-8.783,8.043
			c-1.101,0.684-2.189,1.538-3.341,2.442c-2.198,1.727-4.472,3.512-7.31,4.513c-1.752,0.616-3.628,0.903-5.906,0.903
			c-1.41,0-2.797-0.108-4.139-0.214c-1.229-0.096-2.518-0.189-3.723-0.192c-4.877,0.029-6.438,2.779-8.799,6.943
			c-1.362,2.405-2.771,4.888-5.003,7.163c-2.771,2.824-6.486,4.673-9.413,5.969c-6.748,2.982-11.505,6.809-15.426,12.404
			c-3.229,4.606-6.908,7.04-11.93,7.892c-1.323,0.225-2.742,0.329-4.466,0.329c-1.002,0-1.997-0.034-2.979-0.069
			c-0.949-0.033-1.872-0.065-2.78-0.065c-0.846,0-1.585,0.029-2.26,0.09c-3.574,0.322-5.506,2.309-8.262,5.542
			c-3.153,3.695-6.432,6.903-9.52,9.873c-1.529,1.471-2.592,3.172-3.717,4.972c-0.845,1.351-1.713,2.741-2.832,4.145
			c-5.152,6.457-12.005,13.438-17.883,18.22c-5.698,4.634-14.195,5.259-21.756,5.259c-4.407,0-7.289,0.08-10.838,1.658
			c-3.883,1.729-7.12,2.504-11.171,2.674l-1.145,0.05c-1.396,0.063-2.84,0.129-4.321,0.129c-3.039,0-6.993-0.237-10.626-2.088
			c-0.474-0.241-0.922-0.48-1.357-0.713c-2.005-1.068-3.311-1.765-5.176-1.765c-0.24,0-0.489,0.012-0.75,0.035
			c-0.545,0.077-2.657,1.069-3.92,1.662C634.688,407.694,630.556,409.636,626.978,409.636z M273.88,331.816
			c-0.964,0.392-2.181,1.273-3.208,2.018c-1.427,1.033-2.769,2.004-4.281,2.563c-0.417,0.154-1.012,0.354-1.715,0.53
			c0.626-0.017,1.181-0.063,1.711-0.178c2.196-0.471,4.856-2.073,6.775-4.081C273.449,332.369,273.686,332.081,273.88,331.816z
			 M260.689,331.25c0.106,0.042,0.362,0.106,0.796,0.106c0.796,0,1.799-0.208,2.824-0.588c0.744-0.274,1.811-1.047,2.843-1.794
			c1.919-1.391,4.052-2.936,6.52-3.291c-1.616-0.52-2.597-1.473-3.179-2.314c-1.888-2.733-1.249-6.574,0.125-10.307
			c-1.034,1.626-2.171,3.504-3.417,5.67c-0.417,0.726-0.773,1.342-1.054,1.811c-0.569,0.948-1.224,1.91-1.857,2.839
			c-1.603,2.353-3.26,4.785-3.583,6.894C260.619,330.857,260.662,331.143,260.689,331.25z"/>
		<path fill="#F28633" d="M977.427,14.204c1.298,4,1.406,8.703,1.406,12.797c0,5.399,1.545,9.669,3.334,14.615
			c0.301,0.833,0.608,1.682,0.915,2.556c2.283,6.501,4.304,16.164,0.972,25.289c-0.776,2.125-1.945,4.22-3.076,6.245
			c-2.745,4.918-5.339,9.564-2.711,14.621c2.736,5.269,1.276,9.713-0.269,14.418c-0.218,0.661-0.44,1.338-0.658,2.036
			c-1.722,5.519-3.64,11.668-2.55,17.285c0.388,2,1.243,3.901,2.148,5.913c1.05,2.333,2.135,4.746,2.537,7.471
			c1.368,9.266,0.36,16.337-2.997,21.018c-0.769,1.072-1.56,2.14-2.357,3.212c-2.791,3.761-5.677,7.648-7.693,12.023
			c-1.176,2.55-2.258,5.25-3.305,7.861c-1.573,3.924-3.2,7.982-5.217,11.738c-0.813,1.516-1.762,2.876-2.679,4.19
			c-0.907,1.301-1.765,2.53-2.478,3.87c-0.632,1.189-1.222,2.575-1.845,4.042c-1.47,3.456-2.99,7.03-5.56,9.37
			c-2.206,2.008-4.98,2.93-7.664,3.821c-1.413,0.47-2.747,0.913-3.954,1.496c-2.49,1.202-3.676,3.979-4.932,6.92
			c-0.815,1.906-1.656,3.877-2.91,5.554c-2.163,2.893-5.007,4.539-7.758,6.132c-1.846,1.069-3.589,2.079-5.113,3.434
			c-2.309,2.051-3.993,4.643-5.775,7.386c-1.406,2.163-2.861,4.401-4.657,6.362c-1.136,1.241-2.216,2.695-3.359,4.235
			c-2.268,3.055-4.613,6.214-7.752,8.152c-1.832,1.132-3.911,1.374-5.922,1.608c-1.263,0.147-2.454,0.286-3.511,0.635
			c-2.518,0.83-4.067,2.506-5.861,4.445c-1.023,1.105-1.954,2.276-2.854,3.409c-2.528,3.18-5.143,6.467-9.746,8.13
			c-7.387,2.667-11.49,5.769-16.889,12.764c-2.542,3.295-5.129,5.665-8.386,7.685c-1.17,0.726-2.291,1.605-3.477,2.537
			c-2.103,1.651-4.278,3.359-6.882,4.277c-1.791,0.631-3.604,0.819-5.408,0.819c-1.354,0-2.703-0.106-4.032-0.21
			c-1.333-0.104-2.598-0.193-3.825-0.196c-5.76,0.034-7.679,3.421-10.109,7.707c-1.314,2.317-2.672,4.714-4.767,6.849
			c-2.594,2.643-6.146,4.406-8.95,5.647c-7.011,3.1-11.96,7.083-16.047,12.916c-2.98,4.251-6.358,6.494-10.952,7.273
			c-1.405,0.238-2.817,0.308-4.215,0.308c-0.984,0-1.961-0.034-2.925-0.069c-0.968-0.034-1.909-0.067-2.834-0.067
			c-0.807,0-1.603,0.025-2.394,0.096c-4.132,0.373-6.354,2.643-9.27,6.062c-3.106,3.641-6.355,6.82-9.418,9.766
			c-1.665,1.602-2.776,3.381-3.953,5.264c-0.819,1.311-1.667,2.667-2.729,3.998c-5.091,6.38-11.856,13.273-17.656,17.991
			c-5.334,4.338-13.513,4.923-20.81,4.923c-4.621,0-7.697,0.12-11.447,1.788c-3.698,1.647-6.776,2.384-10.624,2.545l-1.148,0.051
			c-1.375,0.062-2.807,0.127-4.254,0.127c-3.385,0-6.863-0.354-9.946-1.925c-0.471-0.24-0.918-0.479-1.353-0.71
			c-2.063-1.1-3.619-1.93-5.862-1.93c-0.283,0-0.576,0.013-0.884,0.041c-0.735,0.065-2.7,0.989-4.434,1.804
			c-3.411,1.603-7.477,3.513-10.721,3.513c-0.905,0-1.745-0.148-2.49-0.493c-0.896-0.414-2.073-1.314-2.599-3.251
			c-1.364-5.023,8.496-16.469,11.267-18.383c2.451-1.693,5.172-2.537,8.096-2.537c3.605,0,7.519,1.283,11.618,3.841
			c1.786,1.115,3.311,1.701,4.4,1.701c0.265,0,0.504-0.035,0.714-0.105c0.203-0.067,0.821-0.273,1.286-1.463
			c1.777-4.552-3.283-7.427-6.458-8.735c-3.296-1.358-7.209-1.821-11.175-1.821c-3.798,0-7.646,0.425-11.05,0.897
			c-0.964,0.134-1.989,0.314-3.052,0.501c-2.544,0.447-5.372,0.944-8.148,0.944c-3.307,0-6.541-0.705-9.138-3.039
			c-1.683-1.512-4.696-2.796-7.42-2.796c-0.528,0-1.046,0.048-1.541,0.152c-1.65,0.35-2.832,1.294-3.513,2.808
			c-0.342,0.761-0.539,1.422-0.714,2.005c-0.657,2.193-1.325,3.586-5.062,4.435c-1.671,0.379-3.467,0.474-5.211,0.474
			c-0.913,0-1.811-0.026-2.67-0.051c-0.811-0.024-1.599-0.046-2.356-0.046c-0.14,0-0.279,0.001-0.417,0.002
			c-3.027,0.038-6.229,0.252-9.144,1.54c-0.814,0.359-1.609,0.749-2.4,1.137c-2.715,1.329-5.521,2.703-8.911,2.845
			c-0.28,0.011-0.559,0.016-0.839,0.016c-2.173,0-4.333-0.312-6.429-0.62c-2.076-0.305-4.038-0.593-5.996-0.593
			c-0.008,0-0.015,0-0.023,0c-1.088,0.001-2.279,0.127-3.54,0.26c-1.355,0.142-2.739,0.288-4.089,0.288
			c-0.879,0-1.744-0.062-2.579-0.226c-2.315-0.457-4.135-1.78-5.896-3.061c-0.877-0.638-1.706-1.241-2.551-1.701
			c-0.773-0.421-1.538-0.812-2.295-1.199c-2.194-1.123-4.462-2.283-6.614-4.027c-5.681-4.605-10.921-8.13-16.494-11.093
			c-0.763-0.405-1.529-0.835-2.299-1.268c-2.245-1.26-4.567-2.562-6.946-3.298c-0.785-0.242-1.551-0.443-2.302-0.642
			c-2.117-0.558-4.306-1.135-6.472-2.519c-1.813-1.159-2.993-2.641-4.134-4.073c-0.745-0.934-1.447-1.817-2.3-2.579
			c-1.506-1.347-3.76-2.185-5.94-2.996c-0.584-0.218-1.16-0.433-1.715-0.653c-3.664-1.459-5.042-2.737-7.321-5.838
			c-4.103-5.585-8.837-10.535-12.665-13.242c-4.704-3.325-6.29-6.261-6.284-11.633c0-0.406,0.01-0.81,0.02-1.211
			c0.06-2.463,0.026-3.912-1.374-5.047c-1.385-1.123-4.828-2.771-6.805-3.606c-1.908-0.807-5.155-1.356-7.569-1.356
			c-0.594,0-1.138,0.033-1.599,0.104c-1.247,0.193-2.201,0.956-3.305,1.84c-1.319,1.056-2.814,2.252-4.985,2.447
			c-0.217,0.019-0.429,0.028-0.635,0.028c-3.355,0-5.41-2.435-7.082-4.418c-1.643-1.948-2.771-3.17-4.399-3.17
			c-0.551,0-1.159,0.14-1.864,0.439c-0.927,0.394-1.662,0.854-2.372,1.3c-1.371,0.86-2.789,1.75-5.172,1.897
			c-7.783,0.479-13.381,0.937-20.008,2.849l-1.206,0.351c-3.65,1.068-7.597,2.223-11.497,2.223c-2.509,0-4.999-0.478-7.379-1.765
			c-0.497-0.268-1.001-0.548-1.513-0.83c-3.739-2.066-7.885-4.355-12.139-4.355c-0.961,0-1.928,0.117-2.897,0.379
			c-1.057,0.287-1.828,0.746-2.574,1.19c-1.142,0.681-2.179,1.205-3.432,1.205c-1.042,0-2.233-0.362-3.758-1.299
			c-1.708-1.049-3.007-2.445-4.264-3.795c-0.874-0.939-1.699-1.825-2.629-2.57c-2.593-2.075-3.945-3.943-5.511-6.106
			c-0.345-0.478-0.706-0.976-1.097-1.501c-0.823-1.103-1.835-1.804-2.709-1.876c-0.05-0.004-0.099-0.006-0.149-0.006
			c-0.535,0-1.045,0.242-1.558,0.735c-0.747,0.718-1.172,1.955-1.623,3.266c-0.559,1.624-1.191,3.466-2.632,4.838
			c-1.964,1.871-4.263,2.246-6.393,2.246c-0.763,0-1.504-0.048-2.2-0.093c-0.734-0.048-1.393-0.085-1.987-0.085
			c-1.493,0-2.585,0.235-3.47,1.135c-0.925,0.94-1.312,2.366-1.722,3.876c-0.333,1.227-0.678,2.495-1.34,3.661
			c-1.505,2.647-9.702,13.126-14.961,13.607c-0.353,0.032-0.692,0.048-1.018,0.048c-2.134,0-3.687-0.69-4.631-2.057
			c-2.249-3.255,0.168-9.13,2.182-13.265c0.551-1.132,1.799-2.436,3.244-3.948c1.09-1.139,3.039-3.177,3.4-4.129
			c-0.181-0.054-0.371-0.081-0.57-0.081c-2.884-0.001-7.62,5.66-14.084,16.89c-0.412,0.717-0.763,1.325-1.04,1.788
			c-0.539,0.897-1.156,1.805-1.81,2.765c-1.697,2.491-3.452,5.068-3.826,7.512c-0.177,1.156-0.02,1.943,0.466,2.34
			c0.384,0.313,1.015,0.468,1.795,0.468c0.951,0,2.124-0.229,3.344-0.681c0.935-0.346,2.037-1.143,3.202-1.986
			c2.004-1.452,4.246-3.081,6.683-3.081c0.286,0,0.574,0.022,0.865,0.07c2.197,0.355,3.014,1.489,3.313,2.377
			c0.813,2.423-1.461,5.158-2.477,6.222c-2.577,2.696-5.973,4.705-9.085,5.373c-1.275,0.274-2.482,0.283-3.647,0.283
			c-0.085,0-0.17,0-0.255,0c-0.154-0.001-0.307-0.001-0.457-0.001c-1.601,0-3.004,0.065-4.317,0.876
			c-1.234,0.765-2.285,1.984-3.398,3.275c-0.892,1.036-1.815,2.107-2.887,2.99c-0.979,0.806-2.392,1.801-3.948,1.801
			c-0.262,0-0.528-0.028-0.797-0.09c-2.043-0.473-3.004-2.585-3.934-4.627c-0.607-1.334-1.235-2.714-2.106-3.617
			c-4.534-4.704-8.603-7.257-11.539-7.257c-0.188,0-0.37,0.01-0.549,0.031c-2.511,0.292-4.606,2.108-6.825,4.032
			c-2.612,2.265-5.313,4.607-8.989,4.652c-0.095,0.002-0.189,0.003-0.282,0.003c-3.559,0-4.998-1.534-5.565-2.806
			c-1.624-3.645,2.044-9.068,4.468-11.698c3.606-3.911,8.113-5.65,12.471-7.333c3.633-1.402,7.064-2.728,9.999-5.226
			c5.071-4.315,7.145-9.772,6.725-17.694c-0.125-2.369,0.312-4.448,0.736-6.46c0.21-0.994,0.407-1.934,0.536-2.893
			c0.185-1.378-0.056-1.767-0.134-1.853c-0.258-0.284-1.113-0.356-2.122-0.356c-0.555,0-1.156,0.022-1.73,0.042l-0.342,0.013
			c-6.186,0.221-10.746,3.263-14.751,6.517c-1.799,1.461-3.323,3.226-4.937,5.095c-1.8,2.084-3.662,4.239-5.937,5.927l-0.702,0.523
			c-2.527,1.886-5.671,4.232-8.682,5.149c-1.397,0.426-2.909,0.544-4.447,0.544c-0.97,0-1.951-0.047-2.919-0.093
			c-0.908-0.044-1.779-0.086-2.594-0.086c-0.28,0-0.554,0.005-0.821,0.017c-7.058,0.304-14.742,3.253-21.994,6.395
			c-0.351,0.152-0.704,0.312-1.059,0.474c-1.766,0.803-3.804,1.73-5.941,1.73c-1.255,0-2.544-0.32-3.832-1.172
			c-2.121-1.401-3.65-3.866-4.998-6.04c-0.513-0.827-0.998-1.609-1.472-2.265l-1.107-1.522c-1.496-2.053-3.042-4.175-4.437-6.369
			c-3.545-5.574-9.877-8.775-16-11.869c-2.211-1.118-4.499-2.273-6.583-3.514c-4.97-2.957-13.938-5.111-20.388-5.111
			c-1.192,0-2.298,0.074-3.277,0.229c-4.805,0.761-8.763,4.199-12.591,7.525c-1.651,1.434-3.358,2.917-5.109,4.159
			c-1.106,0.786-2.243,1.45-3.342,2.093c-1.702,0.995-3.309,1.935-4.772,3.273c-3.162,2.892-5.196,4.132-9.608,4.318
			c-0.256,0.011-0.507,0.016-0.751,0.016c-7.335,0-9.588-4.721-12.174-10.162c-0.215-0.452-0.434-0.914-0.662-1.384l-0.333-0.704
			c-0.41-0.875-1.462-3.12-2.138-3.583c-0.121,0.111-0.357,0.38-0.668,0.985c-1.077,2.099-0.14,4.949,0.686,7.464
			c0.257,0.782,0.5,1.521,0.687,2.238c2.263,8.653-0.887,11.985-5.654,17.03c-0.415,0.438-0.846,0.895-1.291,1.373
			c-3.958,4.249-6.337,8.726-9.092,13.909c-0.604,1.135-1.218,2.292-1.864,3.472l-0.415,0.765c-1.686,3.116-3.784,6.994-7.109,8.52
			c-0.897,0.412-1.768,0.548-2.601,0.548c-0.872,0-1.703-0.15-2.481-0.289c-0.762-0.138-1.382-0.241-1.932-0.241
			c-0.493,0-0.929,0.083-1.364,0.298c-4.009,1.977-3.738,9.514-3.558,14.501c0.036,1.01,0.069,1.94,0.069,2.746h-3
			c0-0.773-0.033-1.668-0.067-2.638c-0.208-5.761-0.521-14.466,5.23-17.301c0.926-0.457,1.828-0.606,2.692-0.606
			c0.863,0,1.688,0.149,2.462,0.287c0.691,0.125,1.33,0.24,1.931,0.24c0.479,0,0.933-0.073,1.369-0.272
			c2.414-1.107,4.247-4.497,5.721-7.221l0.422-0.777c0.64-1.169,1.249-2.315,1.847-3.44c2.736-5.147,5.32-10.008,9.547-14.546
			c0.451-0.483,0.887-0.945,1.306-1.389c4.651-4.922,6.774-7.168,4.932-14.211c-0.164-0.628-0.393-1.324-0.635-2.06
			c-0.96-2.921-2.153-6.557-0.504-9.77c0.919-1.792,2.049-2.659,3.357-2.665c2.342,0.042,3.724,2.99,4.834,5.359l0.317,0.67
			c0.23,0.477,0.453,0.944,0.671,1.402c2.487,5.234,4.028,8.448,9.501,8.448c0.192,0,0.388-0.004,0.589-0.012
			c3.684-0.155,5.04-1.092,7.709-3.533c1.699-1.555,3.521-2.62,5.284-3.65c1.091-0.638,2.122-1.24,3.119-1.948
			c1.631-1.158,3.208-2.528,4.878-3.979c4.147-3.602,8.435-7.326,14.089-8.222c1.171-0.186,2.451-0.272,3.801-0.272
			c7.414,0,16.921,2.595,21.868,5.538c1.996,1.188,4.136,2.269,6.402,3.414c6.484,3.277,13.19,6.667,17.178,12.938
			c1.344,2.113,2.795,4.104,4.331,6.212l1.113,1.531c0.537,0.742,1.049,1.567,1.591,2.44c1.187,1.913,2.531,4.08,4.104,5.12
			c0.716,0.473,1.43,0.675,2.195,0.675c1.324,0,2.797-0.606,4.684-1.462c0.371-0.168,0.74-0.336,1.106-0.494
			c7.517-3.258,15.513-6.316,23.058-6.642c0.304-0.012,0.613-0.018,0.927-0.018c0.905,0,1.844,0.044,2.76,0.088
			c0.922,0.044,1.856,0.09,2.761,0.09c1.299,0,2.536-0.093,3.586-0.413c2.51-0.765,5.422-2.939,7.762-4.685l0.71-0.528
			c2.008-1.489,3.682-3.427,5.453-5.477c1.628-1.885,3.311-3.834,5.316-5.462c4.411-3.583,9.467-6.934,16.536-7.186l0.339-0.013
			c0.653-0.024,1.272-0.046,1.856-0.046c1.837,0,3.313,0.223,4.328,1.341c1.139,1.255,1.052,3.036,0.887,4.268
			c-0.144,1.069-0.362,2.108-0.574,3.112c-0.401,1.906-0.78,3.706-0.675,5.684c0.467,8.825-2.004,15.225-7.777,20.138
			c-3.323,2.828-7.156,4.308-10.863,5.739c-4.224,1.631-8.213,3.171-11.346,6.567c-2.505,2.719-4.684,6.76-3.934,8.443
			c0.363,0.815,1.699,1.028,2.831,1.028c0.081,0,0.16-0.001,0.238-0.003c2.577-0.031,4.755-1.92,7.06-3.919
			c2.465-2.137,5.014-4.347,8.445-4.746c0.295-0.034,0.596-0.052,0.901-0.052c3.852,0,8.459,2.746,13.693,8.176
			c1.228,1.273,1.998,2.965,2.676,4.456c0.569,1.251,1.278,2.809,1.88,2.947c0.025,0.006,0.062,0.012,0.113,0.012
			c0.258,0,0.871-0.146,2.049-1.115c0.874-0.721,1.675-1.649,2.521-2.633c1.212-1.406,2.465-2.861,4.092-3.868
			c1.97-1.219,3.992-1.327,5.819-1.327c0.184,0,0.366,0.001,0.546,0.002c0.183,0.001,0.364,0.002,0.543,0.002
			c0.938,0,1.835-0.03,2.716-0.219c2.509-0.538,5.4-2.268,7.545-4.512c1.369-1.434,1.935-2.799,1.802-3.194
			c-0.025-0.075-0.29-0.265-0.948-0.371c-0.12-0.019-0.242-0.028-0.366-0.028c-1.471,0-3.235,1.27-4.943,2.507
			c-1.337,0.968-2.6,1.883-3.922,2.371c-0.922,0.341-2.636,0.869-4.398,0.869c-1.299,0-2.624-0.287-3.678-1.146
			c-0.94-0.767-1.97-2.277-1.535-5.117c0.477-3.117,2.515-6.108,4.312-8.748c0.629-0.923,1.223-1.795,1.716-2.618
			c0.27-0.45,0.611-1.044,1.013-1.741c5.54-9.625,11.359-18.392,16.724-18.392c0.476,0,0.947,0.069,1.415,0.212
			c1.415,0.433,1.916,1.306,2.087,1.962c0.556,2.13-1.65,4.437-4.204,7.107c-1.11,1.161-2.369,2.478-2.715,3.186
			c-3.414,7.011-2.976,9.43-2.411,10.247c0.35,0.507,1.068,0.763,2.142,0.763c0.238,0,0.493-0.013,0.765-0.038
			c3.194-0.292,10.521-8.397,12.626-12.102c0.475-0.836,0.756-1.87,1.053-2.965c0.471-1.731,1.003-3.694,2.479-5.193
			c1.657-1.684,3.673-2.031,5.652-2.031c0.725,0,1.444,0.047,2.139,0.091c0.722,0.048,1.416,0.093,2.079,0.093
			c1.608,0,3.035-0.268,4.249-1.424c0.911-0.867,1.374-2.215,1.864-3.642c0.547-1.589,1.111-3.232,2.381-4.453
			c1.078-1.036,2.33-1.571,3.645-1.571c0.129,0,0.258,0.005,0.387,0.015c1.744,0.145,3.518,1.264,4.867,3.073
			c0.401,0.537,0.77,1.047,1.123,1.535c1.497,2.068,2.679,3.702,4.955,5.523c1.103,0.882,2.042,1.892,2.951,2.868
			c1.171,1.258,2.278,2.447,3.638,3.282c0.981,0.603,1.611,0.853,2.163,0.853c0.613,0,1.129-0.308,1.921-0.779
			c0.833-0.496,1.87-1.114,3.324-1.508c1.244-0.338,2.473-0.487,3.681-0.487c5.032,0,9.696,2.579,13.592,4.731
			c0.504,0.278,1.001,0.553,1.49,0.817c1.857,1.005,3.878,1.386,5.964,1.386c3.519,0,7.224-1.084,10.642-2.084l1.217-0.355
			c7.44-2.146,13.859-2.541,20.655-2.96c1.62-0.1,2.519-0.664,3.762-1.444c0.772-0.484,1.648-1.034,2.794-1.521
			c1.141-0.484,2.16-0.691,3.078-0.691c3.069,0,5.014,2.307,6.65,4.25c1.737,2.06,2.96,3.352,4.784,3.352
			c0.121,0,0.245-0.006,0.372-0.017c1.271-0.114,2.247-0.895,3.378-1.801c1.257-1.007,2.682-2.147,4.721-2.463
			c0.626-0.096,1.326-0.14,2.064-0.14c3.009,0,6.676,0.725,8.73,1.593c1.972,0.832,5.776,2.62,7.527,4.04
			c2.613,2.118,2.544,4.951,2.483,7.45c-0.009,0.377-0.018,0.759-0.019,1.142c-0.005,4.419,1.074,6.393,5.016,9.18
			c6.042,4.272,11.746,11.73,13.351,13.915c2.02,2.748,2.939,3.604,6.013,4.827c0.535,0.213,1.089,0.419,1.652,0.628
			c2.327,0.866,4.965,1.849,6.893,3.572c1.042,0.931,1.857,1.955,2.647,2.946c1.034,1.298,2.011,2.524,3.403,3.415
			c1.77,1.131,3.554,1.601,5.621,2.146c0.791,0.209,1.597,0.422,2.423,0.678c2.683,0.829,5.146,2.211,7.528,3.547
			c0.751,0.422,1.496,0.84,2.24,1.235c5.747,3.055,11.141,6.681,16.974,11.411c1.908,1.546,3.94,2.586,6.091,3.686
			c0.779,0.398,1.568,0.802,2.364,1.235c1.017,0.554,1.964,1.243,2.881,1.91c1.566,1.14,3.045,2.216,4.711,2.544
			c0.618,0.122,1.293,0.169,1.999,0.169c1.206,0,2.504-0.137,3.775-0.27c1.282-0.135,2.607-0.275,3.851-0.276
			c0.008,0,0.017,0,0.026,0c2.178,0,4.34,0.317,6.432,0.624c2.05,0.302,4,0.591,5.922,0.591c0.262,0,0.524-0.005,0.785-0.017
			c2.761-0.115,5.168-1.294,7.717-2.541c0.826-0.404,1.657-0.81,2.507-1.186c3.408-1.506,6.974-1.753,10.318-1.796
			c0.143-0.002,0.288-0.002,0.433-0.002c0.791,0,1.617,0.023,2.466,0.048c0.87,0.024,1.751,0.049,2.624,0.049
			c1.568,0,3.108-0.082,4.506-0.4c2.299-0.523,2.384-0.804,2.853-2.369c0.191-0.639,0.429-1.433,0.852-2.373
			c1.079-2.403,3.025-3.964,5.628-4.514c0.716-0.152,1.451-0.221,2.19-0.221c3.574,0,7.245,1.635,9.397,3.567
			c1.922,1.727,4.438,2.276,7.139,2.276c2.488,0,5.135-0.465,7.623-0.902c1.101-0.193,2.161-0.38,3.159-0.518
			c3.51-0.488,7.479-0.924,11.444-0.924c4.315,0,8.625,0.517,12.335,2.046c7.133,2.939,10.088,7.532,8.11,12.6
			c-0.809,2.068-2.151,2.893-3.137,3.219c-0.508,0.169-1.054,0.253-1.636,0.253c-1.702,0-3.715-0.721-6.01-2.153
			c-3.629-2.263-6.971-3.396-9.999-3.396c-2.332,0-4.476,0.672-6.422,2.016c-3.034,2.095-10.843,12.308-10.077,15.128
			c0.242,0.891,0.666,1.177,0.964,1.315c0.349,0.162,0.777,0.233,1.264,0.233c2.508,0,6.568-1.909,9.412-3.246
			c2.334-1.097,4.179-1.963,5.442-2.076c0.4-0.036,0.784-0.053,1.153-0.053c2.998,0,5.076,1.115,7.271,2.283
			c0.418,0.224,0.849,0.453,1.302,0.684c2.54,1.294,5.499,1.6,8.539,1.6c1.381,0,2.779-0.063,4.164-0.125l1.159-0.052
			c3.441-0.143,6.202-0.807,9.529-2.287c4.282-1.905,7.796-2.048,12.667-2.048c6.77,0,14.312-0.505,18.917-4.251
			c5.646-4.591,12.237-11.31,17.203-17.534c0.955-1.196,1.72-2.421,2.53-3.717c1.222-1.955,2.485-3.978,4.417-5.836
			c3.009-2.894,6.198-6.014,9.215-9.551c3.187-3.735,6.04-6.63,11.283-7.103c0.891-0.08,1.784-0.107,2.669-0.107
			c0.989,0,1.97,0.034,2.933,0.068c0.967,0.034,1.912,0.068,2.838,0.068c1.26,0,2.488-0.062,3.694-0.266
			c3.79-0.644,6.481-2.449,8.997-6.039c4.419-6.305,9.752-10.603,17.291-13.938c2.56-1.132,5.784-2.725,8.022-5.005
			c1.819-1.855,3.079-4.077,4.298-6.227c2.558-4.515,5.205-9.183,12.701-9.228c0.012,0,0.025,0,0.037,0
			c1.345,0,2.716,0.102,4.041,0.206c1.3,0.102,2.569,0.203,3.801,0.203c1.529,0,3-0.154,4.405-0.651
			c2.139-0.753,4.027-2.236,6.027-3.807c1.199-0.941,2.438-1.914,3.749-2.727c2.978-1.848,5.248-3.931,7.592-6.968
			c4.972-6.442,9.352-10.542,18.244-13.754c3.805-1.373,5.942-4.061,8.417-7.175c0.936-1.176,1.901-2.392,3-3.579
			c1.99-2.151,3.87-4.184,7.125-5.258c1.346-0.444,2.747-0.607,4.104-0.765c1.763-0.205,3.428-0.399,4.692-1.181
			c2.648-1.636,4.82-4.56,6.92-7.388c1.138-1.533,2.315-3.118,3.555-4.473c1.629-1.779,2.953-3.816,4.354-5.973
			c1.812-2.789,3.688-5.673,6.299-7.992c1.751-1.557,3.709-2.69,5.603-3.787c2.604-1.508,5.062-2.933,6.858-5.333
			c1.039-1.389,1.774-3.111,2.554-4.935c1.417-3.319,2.883-6.752,6.386-8.443c1.381-0.668,2.872-1.162,4.312-1.642
			c2.497-0.829,4.855-1.613,6.591-3.193c2.085-1.898,3.475-5.166,4.818-8.325c0.649-1.528,1.264-2.972,1.957-4.276
			c0.797-1.5,1.747-2.861,2.665-4.179c0.908-1.301,1.766-2.53,2.497-3.892c1.938-3.61,3.532-7.589,5.075-11.438
			c1.06-2.645,2.157-5.381,3.364-8c2.147-4.657,5.127-8.673,8.01-12.555c0.786-1.06,1.568-2.114,2.328-3.173
			c2.888-4.026,3.718-10.362,2.468-18.831c-0.342-2.313-1.296-4.434-2.307-6.678c-0.935-2.08-1.903-4.23-2.357-6.573
			c-1.234-6.36,0.805-12.891,2.602-18.655c0.252-0.807,0.479-1.499,0.701-2.174c1.517-4.616,2.612-7.95,0.458-12.099
			c-3.373-6.492-0.118-12.322,2.754-17.466c1.123-2.011,2.183-3.911,2.877-5.812c3.028-8.29,1.137-17.227-0.983-23.265
			c-0.304-0.865-0.608-1.706-0.906-2.53c-1.885-5.211-3.513-9.711-3.513-15.635c0-3.864-0.098-8.287-1.26-11.871L977.427,14.204
			 M979.355,10.424l-2.854,0.926l-2.854,0.926l-2.853,0.926l0.925,2.853c1.028,3.169,1.114,7.311,1.114,10.945
			c0,6.45,1.793,11.407,3.691,16.655l0.081,0.223c0.269,0.744,0.543,1.502,0.816,2.28c1.958,5.576,3.72,13.787,0.996,21.242
			c-0.615,1.683-1.617,3.478-2.678,5.379c-2.918,5.227-6.915,12.386-2.797,20.312c1.509,2.906,0.892,5.098-0.646,9.779
			c-0.234,0.714-0.463,1.409-0.715,2.217c-1.905,6.109-4.06,13.021-2.683,20.12c0.52,2.681,1.605,5.095,2.563,7.224
			c0.966,2.146,1.797,3.991,2.078,5.894c1.117,7.564,0.446,13.32-1.938,16.644c-0.729,1.016-1.479,2.028-2.234,3.045l-0.066,0.089
			c-2.972,4.002-6.046,8.141-8.325,13.086c-1.241,2.692-2.351,5.461-3.424,8.139c-1.514,3.777-3.077,7.674-4.934,11.135
			c-0.65,1.211-1.458,2.368-2.314,3.593c-0.983,1.41-1.978,2.839-2.855,4.488c-0.759,1.428-1.425,2.995-2.069,4.511
			c-1.218,2.863-2.477,5.823-4.077,7.28c-1.267,1.153-3.236,1.807-5.516,2.564l-0.001,0l-0.047,0.016
			c-1.516,0.505-3.085,1.027-4.625,1.772c-4.514,2.18-6.357,6.497-7.838,9.966c-0.71,1.66-1.375,3.217-2.197,4.315
			c-1.429,1.91-3.529,3.126-5.96,4.534c-1.931,1.118-4.115,2.384-6.092,4.141c-2.915,2.589-4.99,5.782-6.821,8.6
			c-1.332,2.049-2.589,3.984-4.052,5.582c-1.348,1.472-2.57,3.118-3.751,4.71c-1.93,2.6-3.926,5.288-6.087,6.623
			c-0.699,0.431-2.041,0.588-3.463,0.753c-1.433,0.166-3.058,0.354-4.698,0.896c-3.99,1.317-6.325,3.841-8.386,6.069
			c-1.165,1.259-2.159,2.508-3.12,3.716c-2.396,3.015-4.108,5.169-7.114,6.254c-9.536,3.444-14.408,8.014-19.601,14.743
			c-2.11,2.734-4.143,4.604-6.799,6.251c-1.452,0.901-2.758,1.925-4.02,2.916c-1.88,1.476-3.501,2.749-5.171,3.337
			c-0.929,0.328-2.011,0.481-3.409,0.481c-1.109,0-2.296-0.093-3.552-0.192c-1.452-0.115-2.862-0.216-4.29-0.216h-0.009h-0.046
			c-9.233,0.055-12.593,5.984-15.293,10.749c-1.177,2.075-2.286,4.031-3.829,5.605c-1.883,1.919-4.781,3.339-7.094,4.362
			c-8.068,3.568-13.784,8.181-18.535,14.959c-2.066,2.947-4.04,4.293-7.043,4.803c-0.9,0.152-1.915,0.224-3.192,0.224
			c-0.883,0-1.823-0.033-2.732-0.066c-0.932-0.033-1.988-0.07-3.04-0.07c-1.08,0-2.04,0.039-2.937,0.119
			c-6.355,0.574-9.916,4.18-13.298,8.145c-2.926,3.43-6.056,6.493-9.012,9.336c-2.2,2.116-3.625,4.397-4.882,6.408
			c-0.805,1.287-1.489,2.38-2.331,3.435c-4.842,6.07-11.261,12.614-16.751,17.078c-3.877,3.153-10.781,3.579-17.024,3.579
			c-5.095,0-9.074,0.165-13.886,2.307c-2.996,1.333-5.361,1.902-8.435,2.031l-1.168,0.052c-1.347,0.061-2.722,0.122-4.03,0.122
			c-3.235,0-5.449-0.393-7.178-1.273c-0.435-0.221-0.848-0.441-1.248-0.656c-2.343-1.248-4.954-2.638-8.686-2.638
			c-0.464,0-0.942,0.022-1.422,0.065c-1.792,0.161-3.746,1.079-6.45,2.349c-1.828,0.86-4.962,2.333-7.025,2.809
			c1.406-3.084,6.185-9.496,8.443-11.054c1.446-1,2.989-1.485,4.717-1.485c2.452,0,5.282,0.99,8.411,2.942
			c2.812,1.754,5.297,2.607,7.598,2.607c0.903,0,1.772-0.137,2.583-0.407c2.25-0.745,4.022-2.511,4.984-4.973
			c2.619-6.713-1.03-12.868-9.761-16.467c-3.709-1.529-8.118-2.272-13.478-2.272c-4.481,0-8.913,0.544-11.857,0.953
			c-1.047,0.145-2.119,0.333-3.254,0.532c-2.409,0.424-4.888,0.859-7.115,0.859c-2.358,0-3.99-0.479-5.134-1.507
			c-2.934-2.634-7.409-4.335-11.402-4.335c-0.967,0-1.913,0.096-2.811,0.286c-3.527,0.745-6.277,2.954-7.744,6.22
			c-0.501,1.114-0.781,2.049-0.986,2.732c-0.016,0.055-0.034,0.112-0.051,0.169c-0.147,0.039-0.341,0.087-0.596,0.145
			c-0.975,0.222-2.196,0.325-3.841,0.325c-0.803,0-1.644-0.023-2.457-0.046l-0.083-0.002c-0.865-0.026-1.717-0.049-2.549-0.049
			c-0.157,0-0.313,0.001-0.467,0.003c-3.668,0.047-7.596,0.328-11.497,2.052c-0.911,0.403-1.776,0.826-2.613,1.236
			c-2.36,1.155-4.393,2.15-6.523,2.238c-0.224,0.01-0.442,0.014-0.66,0.014c-1.685,0-3.503-0.268-5.429-0.551l-0.056-0.008
			c-2.205-0.323-4.475-0.656-6.868-0.656c-1.428,0.002-2.83,0.15-4.185,0.292c-1.197,0.126-2.42,0.255-3.466,0.255
			c-0.563,0-1.041-0.038-1.418-0.112c-1.017-0.2-2.236-1.087-3.526-2.026c-0.952-0.692-2.025-1.473-3.212-2.119
			c-0.829-0.452-1.642-0.868-2.429-1.27c-2.098-1.073-3.906-1.999-5.572-3.348c-5.987-4.854-11.533-8.582-17.455-11.729
			c-0.723-0.384-1.448-0.791-2.178-1.202c-2.524-1.416-5.127-2.875-8.112-3.798c-0.881-0.273-1.721-0.495-2.533-0.709
			c-1.913-0.505-3.41-0.899-4.781-1.775c-0.973-0.622-1.76-1.611-2.672-2.756c-0.828-1.039-1.764-2.215-2.995-3.314
			c-2.352-2.102-5.398-3.236-7.846-4.147c-0.542-0.201-1.075-0.399-1.589-0.604c-2.487-0.99-2.991-1.484-4.705-3.817
			c-1.672-2.276-7.628-10.057-14.036-14.588c-3.31-2.341-3.751-3.472-3.747-6.727c0-0.359,0.009-0.717,0.018-1.071
			c0.066-2.711,0.166-6.807-3.593-9.854c-2.427-1.969-7.298-4.072-8.25-4.474c-2.548-1.077-6.618-1.829-9.897-1.829
			c-0.918,0-1.765,0.059-2.52,0.175c-2.834,0.438-4.745,1.969-6.141,3.086c-0.72,0.576-1.401,1.121-1.772,1.155
			c-0.037,0.003-0.07,0.005-0.103,0.005c-0.519,0-1.474-1.082-2.49-2.286c-1.783-2.116-4.479-5.316-8.944-5.316
			c-1.368,0-2.798,0.313-4.251,0.93c-1.361,0.577-2.385,1.219-3.207,1.735c-1.169,0.734-1.54,0.946-2.362,0.997
			c-6.974,0.43-13.549,0.835-21.301,3.072l-1.224,0.357c-3.306,0.967-6.715,1.965-9.803,1.965c-1.778,0-3.262-0.335-4.536-1.025
			c-0.442-0.239-0.889-0.486-1.343-0.736l-0.126-0.069c-4.119-2.276-9.238-5.104-15.041-5.104c-1.52,0-3.023,0.199-4.468,0.592
			c-1.844,0.499-3.128,1.263-4.065,1.821c-0.146,0.087-0.307,0.183-0.445,0.262c-0.126-0.065-0.301-0.163-0.539-0.309
			c-1.012-0.621-1.937-1.614-3.008-2.764c-0.947-1.017-2.007-2.156-3.279-3.173c-1.956-1.566-2.979-2.979-4.396-4.936
			c-0.363-0.503-0.741-1.025-1.153-1.576c-1.86-2.495-4.42-4.052-7.022-4.267c-0.22-0.017-0.428-0.026-0.635-0.026
			c-2.104,0-4.083,0.832-5.723,2.407c-1.793,1.723-2.539,3.894-3.139,5.638c-0.336,0.979-0.716,2.085-1.096,2.447
			c-0.397,0.378-0.881,0.597-2.18,0.597c-0.568,0-1.206-0.042-1.881-0.087c-0.727-0.047-1.523-0.097-2.337-0.097
			c-2.108,0-5.21,0.303-7.791,2.928c-2.024,2.056-2.723,4.628-3.234,6.505c-0.248,0.914-0.481,1.769-0.768,2.275
			c-2.021,3.556-8.234,9.941-10.261,10.579c0.149-1.019,0.681-3.025,2.424-6.613c0.291-0.465,1.534-1.765,2.206-2.468
			c2.91-3.042,5.919-6.188,4.939-9.939c-0.508-1.944-2.007-3.429-4.113-4.073c-0.743-0.228-1.515-0.343-2.292-0.343
			c-6.557,0-12.255,7.612-19.324,19.895l-0.092,0.16c-0.351,0.609-0.652,1.131-0.893,1.534c-0.453,0.756-1.021,1.589-1.623,2.472
			c-1.979,2.907-4.219,6.196-4.798,9.984c-0.675,4.408,1.288,6.802,2.556,7.856c-0.117,0.067-0.234,0.136-0.351,0.209
			c-2.017,1.248-3.485,2.951-4.781,4.454c-0.52,0.604-1.017,1.181-1.495,1.665c-0.025-0.054-0.048-0.106-0.07-0.154
			c-0.74-1.626-1.661-3.651-3.247-5.295c-5.898-6.119-11.084-9.094-15.853-9.094c-0.42,0-0.84,0.024-1.249,0.072
			c-4.349,0.506-7.384,3.137-10.062,5.459c-1.81,1.569-3.521,3.053-4.965,3.178c0.492-1.148,1.493-2.857,2.94-4.427
			c2.658-2.882,6.162-4.235,10.219-5.801c3.763-1.453,8.019-3.097,11.728-6.254c6.454-5.493,9.342-12.879,8.828-22.581
			c-0.084-1.586,0.24-3.125,0.615-4.907c0.212-1.007,0.453-2.149,0.612-3.331c0.141-1.053,0.568-4.251-1.639-6.683
			c-1.86-2.048-4.354-2.325-6.549-2.325c-0.629,0-1.264,0.023-1.936,0.047l-0.371,0.014c-7.968,0.285-13.73,4.131-18.315,7.856
			c-2.208,1.794-3.979,3.843-5.69,5.825c-1.666,1.929-3.233,3.743-4.974,5.033l-0.714,0.532c-2.045,1.526-4.837,3.609-6.844,4.221
			c-0.624,0.19-1.511,0.283-2.712,0.283c-0.835,0-1.741-0.044-2.617-0.086c-1.034-0.05-1.967-0.091-2.905-0.091
			c-0.355,0-0.705,0.006-1.048,0.02c-8.042,0.347-16.349,3.515-24.13,6.887c-0.339,0.146-0.683,0.302-1.029,0.459l-0.121,0.055
			c-1.334,0.605-2.697,1.195-3.447,1.195c-0.176,0-0.315-0.028-0.541-0.178c-1.024-0.677-2.235-2.629-3.208-4.198
			c-0.575-0.926-1.112-1.791-1.709-2.617l-1.117-1.537c-1.508-2.069-2.93-4.021-4.226-6.058
			c-4.431-6.967-11.51-10.545-18.356-14.005c-2.235-1.13-4.322-2.184-6.221-3.315c-5.712-3.398-15.773-5.96-23.402-5.96
			c-1.541,0-2.978,0.104-4.27,0.309c-6.502,1.03-11.327,5.221-15.585,8.918c-1.617,1.404-3.139,2.727-4.65,3.8
			c-0.888,0.63-1.862,1.2-2.894,1.803c-1.812,1.059-3.864,2.258-5.798,4.029c-2.399,2.195-3.105,2.635-5.809,2.749
			c-0.152,0.006-0.309,0.009-0.463,0.009c-3.448,0-4.254-1.397-6.791-6.736c-0.221-0.464-0.446-0.938-0.68-1.421l-0.306-0.647
			c-1.303-2.782-3.279-7.001-7.492-7.076l-0.034-0.001l-0.034,0c-1.742,0.008-4.2,0.759-6.013,4.296
			c-2.221,4.328-0.75,8.805,0.324,12.075c0.226,0.688,0.44,1.338,0.582,1.883c1.421,5.433,0.34,6.577-4.21,11.392
			c-0.423,0.447-0.864,0.915-1.32,1.404c-4.496,4.827-7.169,9.856-10,15.181c-0.593,1.117-1.196,2.252-1.83,3.409l-0.427,0.787
			c-1.128,2.085-2.827,5.224-4.327,5.921c0.001-0.001,0-0.001-0.004-0.001c-0.014,0-0.055,0.004-0.122,0.004
			c-0.337,0-0.852-0.093-1.397-0.192c-0.842-0.151-1.87-0.335-2.995-0.335c-1.456,0-2.77,0.299-4.019,0.915
			c-7.493,3.694-7.122,13.964-6.901,20.1l0.003,0.08c0.032,0.901,0.063,1.752,0.063,2.45v3h3h3h3v-3
			c0-0.861-0.035-1.829-0.071-2.853c-0.114-3.155-0.38-10.527,1.86-11.69c0.014-0.001,0.035-0.002,0.064-0.002
			c0.304,0,0.835,0.091,1.399,0.193c0.839,0.151,1.876,0.337,3.014,0.337c1.387,0,2.646-0.269,3.851-0.821
			c4.236-1.944,6.699-6.495,8.497-9.819l0.413-0.761c0.624-1.139,1.224-2.267,1.812-3.373l0.065-0.121
			c2.655-4.997,4.948-9.311,8.639-13.273c0.435-0.468,0.856-0.913,1.261-1.341c4.218-4.464,7.929-8.39,7.117-16.009
			c2.312,2.898,5.579,5.048,10.974,5.048c0.285,0,0.577-0.006,0.876-0.018c5.288-0.223,7.924-1.823,11.508-5.102
			c1.227-1.123,2.631-1.944,4.257-2.895c1.16-0.678,2.355-1.376,3.57-2.24c1.858-1.318,3.611-2.84,5.307-4.313
			c3.702-3.216,7.169-6.227,11.124-6.853c0.803-0.128,1.747-0.192,2.808-0.192c6.051,0,14.508,2.104,18.854,4.689
			c2.159,1.285,4.479,2.458,6.721,3.592c5.803,2.933,11.761,5.944,14.864,10.823c1.444,2.272,3.018,4.431,4.539,6.52l1.11,1.526
			c0.408,0.565,0.865,1.302,1.349,2.082c1.437,2.316,3.224,5.197,5.894,6.961c1.673,1.107,3.52,1.669,5.487,1.669
			c2.789,0,5.225-1.108,7.183-1.999c0.338-0.153,0.677-0.307,1.013-0.453c6.984-3.026,14.355-5.867,20.927-6.149
			c0.227-0.01,0.456-0.014,0.692-0.014c0.73,0,1.544,0.039,2.405,0.081h0.001l0.055,0.003c0.99,0.047,2.013,0.096,3.051,0.096
			c2.123,0,3.814-0.214,5.323-0.675c3.509-1.069,6.887-3.589,9.6-5.614l0.699-0.521c2.537-1.882,4.508-4.164,6.415-6.372
			c1.524-1.765,2.963-3.432,4.558-4.727c4.162-3.38,7.96-5.668,12.967-5.847l0.345-0.013c0.235-0.008,0.471-0.017,0.703-0.024
			c-0.09,0.476-0.193,0.963-0.299,1.466c-0.442,2.101-0.942,4.478-0.796,7.237c0.37,6.99-1.327,11.552-5.674,15.251
			c-2.548,2.169-5.601,3.347-9.136,4.712c-4.463,1.723-9.517,3.675-13.596,8.098c-1.314,1.425-7.726,8.842-5.003,14.953
			c0.763,1.712,2.857,4.585,8.305,4.585c0.114,0,0.231-0.001,0.349-0.004c4.742-0.058,8.147-3.01,10.883-5.382
			c1.862-1.615,3.617-3.137,5.21-3.322c0.069-0.008,0.134-0.011,0.202-0.011c1.581,0,4.875,1.665,9.379,6.339
			c0.513,0.532,1.055,1.723,1.534,2.774c1.059,2.326,2.506,5.505,5.99,6.311c0.482,0.111,0.977,0.167,1.473,0.167
			c2.543,0,4.56-1.418,5.855-2.485c1.277-1.052,2.327-2.272,3.254-3.349c0.957-1.111,1.861-2.16,2.704-2.683
			c0.586-0.362,1.35-0.426,2.737-0.426l0.445,0.001h0.267c1.117,0,2.648,0,4.277-0.35c3.675-0.789,7.646-3.119,10.623-6.233
			c1.73-1.811,4.438-5.419,3.152-9.249c-0.183-0.545-0.508-1.252-1.076-1.945c6.591-3.005,13.409-12.714,14.285-14.255
			c0.849-1.496,1.262-3.015,1.627-4.356c0.278-1.023,0.591-2.179,0.967-2.561c0.076-0.077,0.234-0.238,1.331-0.238
			c0.484,0,1.045,0.03,1.793,0.079c0.735,0.047,1.543,0.099,2.394,0.099c2.247,0,5.57-0.319,8.462-3.074
			c1.969-1.875,2.795-4.277,3.398-6.031c0.164-0.477,0.382-1.111,0.582-1.567c0.069,0.077,0.141,0.165,0.216,0.265
			c0.381,0.512,0.733,0.998,1.07,1.465c1.624,2.243,3.156,4.362,6.068,6.691c0.762,0.611,1.513,1.417,2.307,2.271
			c1.331,1.43,2.836,3.046,4.89,4.308c1.909,1.172,3.652,1.742,5.328,1.742c2.065,0,3.648-0.841,4.969-1.629
			c0.648-0.386,1.161-0.692,1.823-0.872c0.681-0.185,1.372-0.275,2.111-0.275c3.486,0,7.147,2.024,10.689,3.981l0.3,0.165
			c0.418,0.23,0.83,0.457,1.237,0.678c2.645,1.431,5.525,2.126,8.806,2.126c4.33,0,8.585-1.245,12.339-2.344l1.201-0.349
			c6.325-1.825,11.771-2.268,19.355-2.735c3.146-0.195,5.051-1.39,6.582-2.35c0.67-0.42,1.245-0.78,1.951-1.08
			c0.45-0.191,0.655-0.201,0.691-0.201c0.422,0.108,1.602,1.507,2.105,2.104c1.84,2.183,4.621,5.484,9.375,5.484
			c0.296,0,0.598-0.013,0.899-0.04c3.076-0.277,5.11-1.905,6.596-3.093c0.801-0.641,1.433-1.147,1.89-1.217
			c0.202-0.031,0.567-0.069,1.139-0.069c2.106,0,4.918,0.492,6.401,1.119c2.18,0.921,5.125,2.395,6.085,3.174
			c0.219,0.177,0.316,0.496,0.264,2.644c-0.01,0.423-0.02,0.851-0.021,1.28c-0.007,6.372,2.04,10.19,7.552,14.086
			c3.578,2.53,8.057,7.229,11.979,12.569c2.502,3.403,4.254,5.107,8.629,6.849c0.574,0.228,1.168,0.45,1.77,0.675
			c1.927,0.716,3.91,1.454,4.996,2.424c0.661,0.59,1.256,1.337,1.945,2.202c1.241,1.558,2.639,3.313,4.872,4.741
			c2.559,1.636,5.085,2.303,7.314,2.89l0.061,0.016c0.699,0.185,1.423,0.375,2.13,0.594c2.074,0.641,4.254,1.864,6.362,3.047
			c0.791,0.444,1.577,0.885,2.36,1.301c5.397,2.87,10.486,6.294,16.012,10.774c2.39,1.938,4.904,3.225,7.122,4.36
			c0.702,0.359,1.479,0.756,2.241,1.171c0.67,0.365,1.419,0.909,2.212,1.486c1.937,1.409,4.122,3,7.088,3.585
			c0.967,0.19,2,0.283,3.16,0.283c1.502,0,2.968-0.154,4.385-0.302c1.208-0.127,2.319-0.244,3.246-0.245
			c1.759,0,3.614,0.272,5.578,0.561c2.086,0.306,4.448,0.652,6.867,0.652c0.318,0,0.638-0.006,0.957-0.019
			c4.026-0.168,7.259-1.751,10.112-3.148c0.795-0.39,1.536-0.753,2.292-1.087c2.425-1.072,5.264-1.251,7.971-1.285l0.38-0.002
			c0.74,0,1.551,0.024,2.267,0.045c0.843,0.025,1.797,0.052,2.758,0.052c2.358,0,4.224-0.174,5.874-0.548
			c4.779-1.085,6.286-3.205,7.273-6.499c0.166-0.552,0.318-1.061,0.577-1.636c0.288-0.641,0.68-0.951,1.398-1.103
			c0.274-0.058,0.584-0.087,0.919-0.087c2.052,0,4.321,1.045,5.415,2.028c2.851,2.562,6.496,3.807,11.143,3.807
			c3.038,0,6.028-0.525,8.667-0.989l0.055-0.01c1.026-0.18,1.996-0.35,2.89-0.474c2.69-0.372,6.72-0.868,10.638-0.868
			c4.087,0,7.463,0.537,10.032,1.595c1.605,0.662,5.098,2.342,4.925,4.366c-0.455-0.158-1.154-0.47-2.136-1.083
			c-4.569-2.851-9.012-4.296-13.207-4.296c-3.555,0-6.853,1.032-9.801,3.068c-2.607,1.801-14.437,14.349-12.457,21.638
			c0.646,2.381,2.15,4.224,4.235,5.188c1.104,0.511,2.366,0.77,3.749,0.77c3.913,0,8.206-2.017,11.993-3.796
			c1.034-0.486,2.908-1.366,3.536-1.541c0.176-0.013,0.347-0.02,0.509-0.02c1.43,0,2.395,0.482,4.443,1.574
			c0.46,0.245,0.922,0.491,1.408,0.739c3.919,1.997,8.102,2.253,11.309,2.253c1.513,0,2.972-0.066,4.383-0.13l1.152-0.051
			c4.247-0.178,7.642-0.99,11.712-2.801c3.098-1.378,5.612-1.529,10.227-1.529c7.824,0,16.64-0.665,22.702-5.595
			c5.956-4.844,12.894-11.913,18.108-18.448c1.173-1.471,2.105-2.963,2.928-4.28c1.125-1.799,2.093-3.349,3.489-4.691
			c3.115-2.995,6.423-6.233,9.62-9.98c2.805-3.289,4.339-4.758,7.257-5.022c0.627-0.056,1.322-0.084,2.124-0.084
			c0.877,0,1.777,0.031,2.729,0.065c0.975,0.035,1.985,0.071,3.03,0.071c1.81,0,3.308-0.111,4.717-0.35
			c5.375-0.912,9.476-3.616,12.907-8.509c3.756-5.36,8.321-9.029,14.804-11.895c3.051-1.35,6.929-3.284,9.879-6.29
			c2.37-2.415,3.892-5.101,5.235-7.47c2.487-4.385,3.649-6.163,7.517-6.186c1.127,0.003,2.384,0.094,3.573,0.187
			c1.383,0.109,2.799,0.22,4.266,0.22c2.453,0,4.488-0.314,6.404-0.989c3.073-1.083,5.551-3.03,7.738-4.747
			c1.118-0.878,2.175-1.708,3.206-2.347c3.577-2.218,6.409-4.809,9.18-8.402c5.056-6.551,8.685-9.302,15.532-11.774
			c5.404-1.953,8.417-5.742,11.076-9.085c0.866-1.089,1.761-2.215,2.708-3.238c1.638-1.771,2.819-3.047,4.599-3.634
			c0.767-0.253,1.81-0.375,2.914-0.504c2.23-0.259,4.754-0.552,7.156-2.036c3.628-2.241,6.261-5.787,8.584-8.916
			c1.095-1.475,2.129-2.867,3.164-3.999c1.965-2.146,3.487-4.488,4.959-6.752c1.669-2.569,3.245-4.995,5.253-6.778
			c1.298-1.153,2.839-2.046,4.624-3.08c2.872-1.663,6.126-3.547,8.657-6.931c1.468-1.963,2.423-4.197,3.265-6.168
			c1.076-2.518,2.002-4.688,3.479-5.4c1.032-0.499,2.277-0.912,3.594-1.35c2.842-0.944,6.062-2.014,8.739-4.45
			c3.055-2.782,4.78-6.837,6.301-10.415c0.595-1.401,1.156-2.722,1.733-3.809c0.628-1.18,1.435-2.337,2.289-3.561
			c0.92-1.319,1.963-2.814,2.861-4.488c2.096-3.904,3.754-8.04,5.358-12.041c1.04-2.595,2.105-5.25,3.245-7.721
			c1.886-4.092,4.677-7.852,7.376-11.489c0.895-1.204,1.638-2.208,2.389-3.256c3.826-5.334,5.013-13.141,3.527-23.204
			c-0.464-3.14-1.688-5.862-2.769-8.264c-0.868-1.929-1.618-3.595-1.939-5.253c-0.946-4.875,0.868-10.69,2.469-15.82
			c0.213-0.682,0.431-1.344,0.644-1.991c1.594-4.853,3.401-10.351,0.083-16.74c-1.792-3.448-0.154-6.721,2.667-11.774
			c1.188-2.128,2.416-4.327,3.275-6.68c3.637-9.961,1.486-20.35-0.959-27.312c-0.285-0.813-0.572-1.607-0.853-2.385l-0.071-0.196
			c-1.763-4.874-3.155-8.722-3.155-13.596c0-4.323-0.12-9.306-1.553-13.722L979.355,10.424L979.355,10.424z M262.366,329.764
			c0.513-1.646,1.858-3.621,3.165-5.538c0.645-0.946,1.312-1.924,1.903-2.91c0.138-0.23,0.294-0.495,0.465-0.791
			c0.162,1.326,0.587,2.575,1.362,3.697c0.239,0.346,0.531,0.707,0.885,1.059c-1.435,0.713-2.718,1.643-3.859,2.47
			c-0.919,0.665-1.945,1.408-2.496,1.612C263.298,329.544,262.809,329.681,262.366,329.764L262.366,329.764z"/>
	</g>
</g>
<g>
	<circle cx="11.932" cy="361.432" r="6.309"/>
	<path fill="#F28633" d="M13.348,353.762c0,0.959,0.043,2.164,0.043,2.991c2.138,0.488,3.351,2.396,3.351,4.68
		c0,2.651-2.157,4.809-4.809,4.809s-4.809-2.157-4.809-4.809c0-1.963,1.53-3.812,3.22-4.558c0-1.14,0.004-2.091,0.004-3.247
		c-3.372,0.863-6.224,4.167-6.224,7.805c0,4.306,3.503,7.809,7.809,7.809s7.809-3.503,7.809-7.809
		C19.741,357.49,17.149,354.285,13.348,353.762z"/>
</g>
<g>
	<circle cx="976.667" cy="14.204" r="6.309"/>
	<path fill="#F28633" d="M984.476,14.204c0-4.306-3.503-7.809-7.809-7.809s-7.809,3.503-7.809,7.809
		c0,4.081,2.858,7.404,6.852,7.744c0-0.744-0.149-2.004-0.149-3.02c-2.334-0.328-3.702-2.301-3.702-4.724
		c0-2.651,2.157-4.809,4.809-4.809s4.809,2.157,4.809,4.809c0,2.258-0.966,3.953-3.068,4.467c0.096,1.089,0.215,1.964,0.308,3.277
		C981.805,20.907,984.476,17.64,984.476,14.204z"/>
</g>
</svg>
