<?xml version="1.0" encoding="utf-8"?>
<!-- Generator: Adobe Illustrator 17.0.0, SVG Export Plug-In . SVG Version: 6.00 Build 0)  -->
<!DOCTYPE svg PUBLIC "-//W3C//DTD SVG 1.1//EN" "http://www.w3.org/Graphics/SVG/1.1/DTD/svg11.dtd">
<svg version="1.1" id="Слой_1" xmlns="http://www.w3.org/2000/svg" xmlns:xlink="http://www.w3.org/1999/xlink" x="0px" y="0px"
	 width="598px" height="413.871px" viewBox="0 -0.648 598 413.871" enable-background="new 0 -0.648 598 413.871"
	 xml:space="preserve">
<g id="Слой_1_1_">
</g>
<g id="Слой_2">
	<g>
		<path d="M346.247,408.39c-7.774,0-14.467-1.146-19.893-3.407c-1.46-0.609-2.857-1.332-4.162-2.155
			c-1.609,0.823-3.387,1.255-5.194,1.255c-6.313,0-11.449-5.136-11.449-11.448c0-6.313,5.136-11.449,11.449-11.449
			s11.449,5.136,11.449,11.449c0,2.099-0.582,4.152-1.662,5.933c0.597,0.312,1.225,0.604,1.877,0.877
			c4.579,1.908,10.655,2.917,17.572,2.917c10.003,0,21.21-2.145,27.888-5.335c5.872-2.805,11.523-8.282,17.507-14.081
			c9.649-9.353,19.624-19.021,32.328-19.021c0.268,0,0.537,0.005,0.807,0.014c5.814,0.197,10.845,3.473,15.71,6.641
			c2.677,1.743,5.444,3.545,8.115,4.622c7.557,3.048,15.809,5.176,20.069,5.176c1.646-0.001,2.04-0.319,2.044-0.322
			c0.257-0.299,0.333-0.562,0.277-0.992c-0.644-4.998-14.19-14.307-20.701-18.78c-3.365-2.312-5.793-3.981-6.986-5.153
			c-3.617-3.554-6.447-8.879-9.443-14.516c-4.458-8.383-9.066-17.051-15.582-17.923c-0.295-0.038-0.603-0.059-0.913-0.059
			c-8.992,0-21.983,16.348-31.144,31.646c-0.794,1.326-1.494,2.688-2.17,4.006c-2.28,4.443-4.851,9.451-10.518,9.451
			c-1.806,0-3.749-0.515-5.941-1.574c-3.57-1.726-7.15-6.649-10.308-10.994c-1.356-1.865-2.634-3.623-3.603-4.686
			c-4.692-5.145-6.94-5.66-11.021-6.598c-2.155-0.495-4.585-1.054-7.834-2.296c-4.266-1.631-7.045-3.972-9.733-6.235
			c-3.169-2.67-5.904-4.975-10.9-5.698c-1.911-0.277-3.854-0.418-5.774-0.418c-8.858,0-16.75,2.924-25.104,6.019
			c-5.16,1.911-10.495,3.888-16.195,5.186l-1.054,0.24c-6.354,1.447-15.009,3.42-21.085,4.037c-0.801,0.082-1.648,0.123-2.52,0.123
			c-4.062,0-8.267-0.879-12.333-1.729c-2.606-0.546-5.284-1.106-7.873-1.427c-2.682-0.33-5.244-0.491-7.832-0.491
			c-10.04,0-18.285,2.463-27.832,5.315l-0.127,0.038c-2.263,0.676-4.585,1.368-7.002,2.049c-4.965,1.397-10.265,2.691-15.38,2.691
			c-9.107,0-15.64-4.253-19.97-13.002l-1.052-2.125l1.824-1.514c0.52-0.432,0.747-0.851,0.781-1.448
			c0.24-4.113-7.376-12.103-12.416-17.389c-3.712-3.895-6.911-7.25-8.091-9.782c-1.729-3.706-2.475-6.325-3.021-8.237
			c-1.044-3.661-1.153-4.044-9.335-7.263c-4.335-1.704-7.866-4.442-11.282-7.091c-3.509-2.721-6.822-5.289-10.824-6.668
			c-1.923-0.662-3.976-0.984-6.277-0.984c-4.842,0-9.988,1.464-14.964,2.881c-2.936,0.836-5.969,1.7-8.941,2.265
			c-1.871,0.354-3.904,0.774-6.037,1.215l-0.126,0.025c-7.905,1.632-17.703,3.654-25.589,3.654c-0.991,0-1.943-0.032-2.831-0.096
			c-20.39-1.451-19.963-27.572-19.621-48.56c0.116-7.056,0.225-13.716-0.579-17.828c-0.481-2.464-1.069-4.69-1.587-6.654
			c-2.009-7.611-3.595-13.622,3.422-22.535c3.943-5.009,7.698-9.154,13.719-9.154c2.215,0,4.621,0.556,7.354,1.697
			c12.287,5.135,21.33,15.099,30.074,24.734c7.43,8.187,14.444,15.915,23.165,20.727c4.817,2.658,12.233,4.31,19.354,4.31
			c5.695,0,10.643-1.078,13.933-3.036c1.543-0.918,3.688-3.645,5.761-6.28c4.257-5.411,9.554-12.145,16.248-12.145
			c1.646,0,3.296,0.414,4.908,1.23c4.146,2.104,6.424,8.286,8.836,14.832c1.987,5.39,4.042,10.964,6.755,13.376
			c4.331,3.851,9.956,5.886,16.268,5.886c4.433,0,9.11-1.056,13.527-3.052c9.156-4.136,17.577-12.043,25.72-19.69
			c3.469-3.259,6.738-6.329,10.077-9.141c8.875-7.473,17.971-8.56,26.767-9.611c7.676-0.917,14.934-1.783,22.001-6.84
			c-0.315-9.783,5.394-18.475,15.774-23.946c6.735-3.55,14.757-5.505,22.586-5.505c8.921,0,16.727,2.455,21.979,6.913
			c2.301,1.953,3.862,4.067,5.373,6.111c1.879,2.542,3.5,4.735,6.302,6.306c5.615,3.147,15.834,4.604,23.525,4.917
			c0.416,0.018,0.822,0.026,1.222,0.026c4.871,0,8.669-1.303,11.291-3.871c2.57-2.518,4.073-6.413,4.386-11.326
			c-1.077,0.288-1.932,1.324-3.543,3.73c-1.964,2.936-4.409,6.589-9.506,7.401c-0.487,0.078-1.001,0.118-1.525,0.118
			c-12.588,0-31.494-22.878-31.674-23.109c-2.978-3.809-3.985-8.661-4.958-13.354c-1.373-6.614-2.558-12.327-8.661-14.665
			c-1.542-0.591-3.497-0.89-5.811-0.89c-9.786,0-23.708,5.377-30.083,10.203c-3.125,2.366-6.006,5.087-8.792,7.72
			c-6.479,6.12-13.17,12.442-23.392,14.902c-2.452,0.591-5.09,0.865-8.304,0.865c-1.459,0-2.902-0.053-4.297-0.104
			c-1.4-0.052-2.715-0.101-4.032-0.101c-2.977,0-6.489,0.227-9.964,1.905c-0.958,0.463-2.553,1.592-4.243,2.786
			c-4.51,3.188-10.654,7.532-16.144,7.532c-0.793,0-1.562-0.09-2.286-0.269c-2.648-0.649-4.718-2.396-6.151-5.189
			c-1.26-2.457-1.201-5.206,0.175-8.171c3.581-7.717,16.289-15.699,21.541-16.917c1.204-0.279,2.446-0.415,3.797-0.415
			c2.685,0,5.28,0.543,7.789,1.068c2.319,0.484,4.508,0.943,6.584,0.943c2.397-0.001,4.337-0.632,6.105-1.985
			c1.173-0.898,1.823-2.55,2.575-4.461c0.85-2.162,1.814-4.612,3.84-6.578c4.307-4.176,9.61-4.907,14.289-5.553
			c2.069-0.286,4.187-0.579,6.089-1.146c3.559-1.062,6.348-3.531,9.301-6.145c2.316-2.05,4.71-4.169,7.709-5.903
			c2.755-1.594,5.38-2.179,7.917-2.745c2.028-0.452,3.943-0.879,5.845-1.825c2.707-1.345,4.009-3.106,5.517-5.145
			c1.421-1.921,3.032-4.098,5.855-5.943c3.076-2.011,6.863-2.989,11.575-2.989c6.054,0,12.498,1.625,18.184,3.058
			c2.349,0.592,4.531,1.143,6.43,1.514c3.883,0.761,6.954,1.267,9.321,1.267c5.324,0,7.11-2.42,11.384-12.039
			c1.04-2.342,2.023-5.176,3.065-8.176c2.954-8.51,6.301-18.153,13.108-23.254c3.18-2.383,6.533-3.542,10.252-3.542
			c3.476,0,6.758,0.995,9.932,1.957c2.504,0.758,5.091,1.542,7.636,1.768c1.389,0.124,2.792,0.186,4.171,0.186
			c9.77,0,18.053-3.087,26.823-6.355c5.954-2.218,12.1-4.508,19.101-6.021c5.006-1.082,10.113-1.41,15.053-1.727
			c5.56-0.356,10.811-0.693,15.812-2.023c4.959-1.318,9.303-3.65,13.901-6.118c1.786-0.958,3.629-1.947,5.537-2.89
			c1.968-0.97,3.709-1.91,5.245-2.739c4.807-2.594,8.6-4.64,13.922-4.64c2.589,0,5.483,0.489,8.85,1.497
			c1.779,0.532,3.736,1.21,5.809,1.929c5.535,1.918,12.424,4.306,17.721,4.305c1.021,0,1.958-0.09,2.784-0.267
			c9.016-1.937,8.579-7.481,7.976-15.154c-0.086-1.094-0.163-2.107-0.216-3.107c-3.935-1.885-6.515-5.914-6.515-10.32
			c0-6.313,5.136-11.449,11.448-11.449c6.313,0,11.449,5.136,11.449,11.449c0,5.927-4.527,10.816-10.305,11.393
			c0.036,0.517,0.077,1.039,0.118,1.564c0.613,7.787,1.453,18.451-12.695,21.491c-1.229,0.265-2.587,0.399-4.032,0.399
			c-6.328,0-13.728-2.565-19.674-4.626c-2.033-0.705-3.93-1.362-5.587-1.858c-2.893-0.865-5.159-1.268-7.136-1.268
			c-3.761,0-6.51,1.483-11.062,3.941c-1.586,0.855-3.379,1.823-5.443,2.842c-1.814,0.895-3.613,1.86-5.353,2.794
			c-4.698,2.522-9.558,5.131-15.199,6.632c-5.569,1.481-11.365,1.853-16.972,2.213c-4.719,0.302-9.599,0.615-14.169,1.604
			c-6.575,1.42-12.517,3.634-18.262,5.775c-9.302,3.465-18.089,6.737-28.891,6.737c-1.564,0-3.159-0.071-4.739-0.211
			c-3.162-0.281-6.051-1.156-8.845-2.002c-2.882-0.873-5.603-1.697-8.156-1.697c-2.433,0-4.559,0.744-6.69,2.341
			c-5.339,4.002-8.367,12.724-11.038,20.42c-1.083,3.122-2.107,6.071-3.251,8.646c-4.868,10.958-8.295,15.54-16.924,15.54
			c-2.593,0-5.708-0.394-10.417-1.316c-2.072-0.406-4.335-0.977-6.731-1.582c-5.352-1.35-11.416-2.879-16.732-2.879
			c-3.508,0-6.22,0.658-8.29,2.011c-1.921,1.256-3.029,2.752-4.311,4.485c-1.724,2.33-3.673,4.965-7.672,6.954
			c-2.553,1.269-4.919,1.797-7.208,2.308s-4.264,0.951-6.222,2.083c-2.477,1.432-4.641,3.348-6.733,5.201
			c-3.314,2.932-6.737,5.961-11.565,7.404c-2.352,0.701-4.707,1.026-6.984,1.341c-4.312,0.595-8.036,1.108-10.931,3.916
			c-1.096,1.062-1.716,2.641-2.434,4.467c-0.944,2.399-2.013,5.116-4.51,7.028c-2.825,2.163-6.013,3.214-9.745,3.214
			c-2.735,0-5.435-0.564-7.816-1.062c-2.32-0.485-4.507-0.943-6.558-0.943c-0.89,0-1.691,0.086-2.449,0.261
			c-3.52,0.817-14.69,7.644-17.453,13.6c-0.753,1.623-0.52,2.437-0.279,2.907c0.815,1.589,1.671,1.959,2.244,2.1
			c0.276,0.068,0.581,0.103,0.907,0.103c3.519,0,8.77-3.712,12.605-6.423c2.003-1.417,3.716-2.628,5.119-3.305
			c4.589-2.217,9.149-2.501,12.609-2.501c1.421,0,2.835,0.052,4.204,0.103c1.35,0.05,2.715,0.1,4.062,0.1
			c2.752,0,4.953-0.222,6.927-0.696c8.668-2.087,14.498-7.596,20.67-13.427c2.905-2.745,5.908-5.583,9.297-8.148
			c7.264-5.498,22.167-11.433,33.578-11.433c3.109,0,5.829,0.438,8.083,1.302c9.166,3.511,10.953,12.126,12.389,19.049
			c0.872,4.203,1.696,8.173,3.81,10.878c5.524,7.063,20.02,20.811,26.884,20.81c0.228,0,0.444-0.017,0.645-0.049
			c2.51-0.399,3.814-2.347,5.464-4.812c1.934-2.889,4.34-6.483,9.215-6.483c0.997,0,2.066,0.158,3.178,0.47l2.146,0.602l0.045,2.227
			c0.158,7.885-2,14.248-6.241,18.403c-3.782,3.706-9.003,5.585-15.521,5.585c-0.471,0-0.95-0.01-1.435-0.029
			c-8.387-0.343-19.677-2.014-26.215-5.679c-3.926-2.2-6.191-5.265-8.19-7.969c-1.371-1.856-2.663-3.604-4.434-5.108
			c-4.074-3.459-10.667-5.442-18.087-5.442c-6.932,0-13.962,1.693-19.797,4.769c-5.146,2.712-13.61,8.884-12.485,19.749l0.17,1.641
			l-1.295,1.022c-8.794,6.938-17.664,7.998-26.243,9.023c-8.29,0.989-16.117,1.924-23.621,8.243c-3.2,2.693-6.401,5.7-9.791,8.882
			c-8.54,8.021-17.332,16.278-27.401,20.828c-5.266,2.379-10.649,3.585-16.002,3.585c-7.798,0-14.801-2.561-20.25-7.403
			c-3.836-3.41-6.155-9.698-8.396-15.78c-1.729-4.691-3.878-10.523-5.923-11.561c-0.757-0.384-1.48-0.571-2.211-0.571
			c-3.486,0-7.277,4.458-11.514,9.844c-2.633,3.348-4.908,6.239-7.409,7.727c-5.392,3.207-12.25,3.881-17.055,3.881
			c-8.163,0-16.461-1.891-22.199-5.057c-9.597-5.296-17.28-13.762-24.71-21.949c-8.304-9.15-16.89-18.611-27.944-23.23
			c-1.999-0.835-3.632-1.24-4.995-1.24c-3.113,0-5.307,2.12-9.049,6.873c-5.167,6.563-4.221,10.149-2.335,17.293
			c0.544,2.064,1.158,4.39,1.675,7.036c0.923,4.729,0.815,11.372,0.69,19.065c-0.302,18.468-0.677,41.438,14.047,42.487
			c0.753,0.054,1.567,0.081,2.419,0.081c7.26,0,16.729-1.955,24.337-3.525c2.236-0.462,4.344-0.897,6.281-1.265
			c2.696-0.512,5.473-1.303,8.413-2.14c5.404-1.537,10.975-3.122,16.6-3.122c2.965,0,5.661,0.433,8.243,1.323
			c4.937,1.701,8.802,4.697,12.54,7.595c3.231,2.505,6.275,4.864,9.807,6.254c9.999,3.933,11.29,5.521,12.909,11.2
			c0.518,1.814,1.161,4.072,2.688,7.347c0.765,1.639,3.925,4.954,6.981,8.16c6.792,7.125,14.47,15.181,14.079,21.896
			c-0.083,1.407-0.496,2.687-1.231,3.816c3.227,5.54,7.321,7.92,13.527,7.919c3.551,0,7.833-0.76,13.884-2.465
			c2.431-0.684,4.765-1.381,7.038-2.061c10.03-2.995,18.661-5.572,29.48-5.572c2.85,0,5.675,0.178,8.636,0.545
			c2.819,0.348,5.624,0.934,8.336,1.501c3.984,0.833,7.702,1.61,11.093,1.61c0.679,0,1.336-0.031,1.954-0.095
			c5.734-0.583,14.188-2.512,20.36-3.92l1.056-0.24c5.323-1.211,10.468-3.117,15.443-4.96c8.479-3.141,17.238-6.384,27.267-6.384
			c2.189,0,4.396,0.158,6.557,0.472c6.688,0.97,10.52,4.196,13.9,7.043c2.414,2.033,4.692,3.953,8.015,5.223
			c2.865,1.096,5.08,1.604,7.035,2.054c4.556,1.046,8.155,1.873,14.11,8.402c1.193,1.308,2.566,3.197,4.02,5.197
			c2.472,3.4,5.854,8.053,8.068,9.123c1.389,0.671,2.468,0.997,3.299,0.997c1.833,0,2.992-1.886,5.2-6.189
			c0.722-1.408,1.469-2.863,2.371-4.37c17.1-28.562,29.235-34.557,36.405-34.557c0.543,0,1.08,0.035,1.598,0.105
			c9.569,1.278,14.913,11.33,20.081,21.052c2.778,5.225,5.397,10.15,8.35,13.051c0.818,0.805,3.422,2.593,6.178,4.486
			c12.186,8.373,22.346,15.88,23.257,22.961c0.274,2.123-0.314,4.093-1.702,5.698c-1.345,1.557-3.664,2.347-6.891,2.347
			c-7.583,0-18.749-4.266-21.99-5.572c-3.212-1.296-6.229-3.26-9.146-5.16c-4.369-2.845-8.496-5.531-12.638-5.673
			c-0.2-0.007-0.401-0.01-0.602-0.01c-10.278,0-19.365,8.808-28.153,17.326c-6.347,6.15-12.34,11.96-19.1,15.189
			C370.51,405.402,358.687,408.39,346.247,408.39z"/>
		<path fill="#F28633" d="M584.331,2.352c5.495,0,9.949,4.454,9.949,9.949s-4.454,9.949-9.949,9.949c-0.152,0-0.3-0.016-0.451-0.023
			c0.052,1.029,0.134,2.082,0.218,3.148c0.633,8.036,1.349,17.143-11.516,19.907c-1.176,0.253-2.421,0.366-3.716,0.366
			c-6.084,0-13.246-2.485-19.207-4.552c-2.025-0.702-3.938-1.365-5.624-1.87c-3.068-0.918-5.466-1.331-7.565-1.331
			c-4.14,0-7.118,1.607-11.776,4.121c-1.571,0.848-3.353,1.809-5.395,2.817c-1.834,0.905-3.646,1.877-5.397,2.817
			c-4.625,2.483-9.409,5.05-14.876,6.504c-5.426,1.443-11.147,1.811-16.682,2.165c-4.774,0.306-9.712,0.623-14.391,1.634
			c-6.68,1.443-12.673,3.676-18.468,5.835c-9.142,3.405-17.837,6.643-28.368,6.643c-1.496,0-3.031-0.065-4.607-0.205
			c-3.007-0.267-5.821-1.12-8.542-1.944c-3.017-0.914-5.816-1.762-8.591-1.762c-2.502,0-4.985,0.689-7.59,2.641
			c-5.707,4.277-8.814,13.229-11.556,21.128c-1.073,3.093-2.087,6.015-3.204,8.528c-4.821,10.854-7.915,14.649-15.554,14.649
			c-2.71,0-5.993-0.478-10.128-1.288c-2.024-0.396-4.272-0.963-6.653-1.564c-5.393-1.36-11.596-2.925-17.099-2.925
			c-3.432,0-6.592,0.609-9.111,2.256c-2.148,1.404-3.387,3.08-4.7,4.853c-1.699,2.296-3.455,4.67-7.131,6.498
			c-2.391,1.188-4.667,1.696-6.869,2.187c-2.308,0.515-4.488,1.001-6.645,2.248c-2.607,1.508-4.829,3.475-6.978,5.376
			c-3.189,2.822-6.487,5.741-10.999,7.089c-2.239,0.668-4.538,0.985-6.76,1.292c-4.383,0.604-8.522,1.176-11.77,4.326
			c-1.328,1.287-2.036,3.088-2.786,4.994c-0.915,2.324-1.86,4.728-4.026,6.387c-2.893,2.214-5.89,2.904-8.833,2.904
			c-2.582,0-5.123-0.531-7.514-1.031c-2.376-0.497-4.66-0.974-6.86-0.974c-0.944,0-1.873,0.088-2.788,0.3
			c-3.829,0.889-15.484,7.982-18.476,14.429c-0.773,1.666-0.855,3.047-0.253,4.223c0.822,1.604,1.876,2.543,3.221,2.873
			c0.402,0.099,0.825,0.146,1.265,0.146c4.002,0,9.424-3.838,13.492-6.713c1.928-1.363,3.593-2.541,4.884-3.164
			c4.035-1.949,8.036-2.352,11.956-2.352c1.396,0,2.781,0.051,4.154,0.102c1.357,0.05,2.73,0.1,4.112,0.1
			c2.413,0,4.853-0.155,7.278-0.738c9.057-2.181,15.028-7.822,21.35-13.795c2.875-2.717,5.848-5.526,9.171-8.042
			c7.065-5.348,21.595-11.129,32.672-11.129c2.793,0,5.368,0.368,7.547,1.203c8.4,3.217,10.024,11.045,11.457,17.953
			c0.909,4.38,1.767,8.517,4.097,11.497c4.943,6.32,20.086,21.386,28.065,21.386c0.304,0,0.599-0.022,0.882-0.067
			c3.156-0.503,4.768-2.911,6.474-5.46c1.845-2.757,3.895-5.818,7.968-5.818c0.834,0,1.754,0.129,2.773,0.414l1.073,0.301
			l0.022,1.113c0.15,7.46-1.852,13.443-5.791,17.302c-3.496,3.426-8.355,5.156-14.471,5.156c-0.451,0-0.91-0.009-1.374-0.028
			c-8.213-0.335-19.236-1.953-25.542-5.488c-3.647-2.044-5.718-4.847-7.721-7.557c-1.422-1.925-2.766-3.742-4.666-5.356
			c-4.538-3.852-11.537-5.799-19.057-5.799c-6.894,0-14.226,1.637-20.497,4.942c-5.481,2.889-14.494,9.488-13.278,21.23l0.085,0.82
			l-0.648,0.512c-8.463,6.676-17.122,7.71-25.495,8.711c-8.516,1.017-16.559,1.978-24.405,8.585c-3.242,2.73-6.47,5.762-9.888,8.971
			c-8.414,7.902-17.115,16.073-26.956,20.52c-5.122,2.314-10.367,3.452-15.385,3.452c-7.251,0-14.027-2.379-19.253-7.024
			c-3.557-3.161-5.809-9.273-7.988-15.184c-2.006-5.442-4.08-11.07-6.649-12.374c-0.986-0.5-1.945-0.733-2.89-0.733
			c-4.122,0-7.983,4.429-12.693,10.416c-2.541,3.23-4.736,6.02-6.997,7.365c-4.29,2.552-10.191,3.67-16.288,3.67
			c-7.836,0-15.996-1.847-21.474-4.87c-9.378-5.175-16.976-13.547-24.324-21.644c-8.414-9.271-17.114-18.858-28.477-23.606
			c-2.19-0.915-3.99-1.357-5.573-1.357c-3.864,0-6.438,2.632-10.228,7.446c-5.629,7.15-4.492,11.462-2.607,18.603
			c0.536,2.033,1.144,4.337,1.653,6.941c0.894,4.575,0.786,11.149,0.662,18.762c-0.312,19.091-0.701,42.85,15.44,43.999
			c0.81,0.058,1.653,0.085,2.526,0.085c7.421,0,16.893-1.957,24.665-3.561c2.204-0.455,4.304-0.889,6.233-1.255
			c2.763-0.524,5.572-1.324,8.546-2.171c5.322-1.514,10.766-3.065,16.186-3.064c2.595,0,5.187,0.356,7.755,1.241
			c4.705,1.621,8.472,4.542,12.115,7.366c3.311,2.566,6.439,4.991,10.172,6.46c9.876,3.885,10.589,5.213,12.016,10.216
			c0.532,1.865,1.194,4.188,2.771,7.569c0.87,1.864,3.978,5.124,7.269,8.576c6.565,6.888,14.007,14.693,13.653,20.759
			c-0.084,1.445-0.594,2.715-1.518,3.787c3.732,6.937,8.654,9.537,15.312,9.537c4.072,0,8.795-0.973,14.291-2.521
			c2.439-0.687,4.78-1.386,7.061-2.067c9.75-2.912,18.437-5.51,29.05-5.51c2.679,0,5.48,0.166,8.452,0.533
			c2.762,0.341,5.54,0.922,8.227,1.483c4.009,0.839,7.831,1.64,11.386,1.64c0.713,0,1.416-0.032,2.107-0.103
			c5.813-0.591,14.326-2.531,20.541-3.949l1.055-0.24c5.412-1.231,10.607-3.155,15.631-5.017c8.375-3.102,16.982-6.29,26.746-6.29
			c2.06,0,4.171,0.142,6.342,0.456c6.266,0.908,9.766,3.856,13.15,6.707c2.513,2.117,4.887,4.116,8.444,5.476
			c2.961,1.133,5.232,1.654,7.235,2.114c4.469,1.026,7.699,1.769,13.338,7.951c1.137,1.247,2.487,3.105,3.917,5.071
			c2.706,3.723,6.074,8.355,8.627,9.589c1.603,0.774,2.877,1.147,3.952,1.147c2.789,0,4.228-2.509,6.534-7.005
			c0.712-1.389,1.449-2.824,2.323-4.284c17.215-28.755,28.977-33.828,35.118-33.827c0.503,0,0.969,0.034,1.397,0.092
			c8.808,1.177,13.968,10.883,18.958,20.27c2.831,5.324,5.504,10.353,8.623,13.417c0.911,0.896,3.445,2.637,6.379,4.652
			c11.445,7.864,21.788,15.459,22.619,21.916c0.218,1.687-0.249,3.253-1.35,4.525c-1.14,1.32-3.222,1.828-5.756,1.828
			c-7.397,0-18.632-4.336-21.43-5.464c-3.073-1.239-6.03-3.164-8.889-5.025c-4.549-2.962-8.846-5.76-13.405-5.915
			c-0.218-0.007-0.435-0.011-0.652-0.011c-10.853,0-20.187,9.015-29.197,17.749c-6.256,6.063-12.166,11.79-18.702,14.913
			c-6.581,3.145-18.283,5.804-29.814,5.804c-6.872,0-13.682-0.944-19.316-3.292c-1.743-0.726-3.29-1.578-4.681-2.526
			c-1.526,0.952-3.322,1.511-5.252,1.511c-5.495,0-9.949-4.454-9.949-9.949s4.454-9.949,9.949-9.949s9.949,4.454,9.949,9.949
			c0,2.444-0.884,4.678-2.346,6.41c1.052,0.658,2.213,1.254,3.485,1.785c5.166,2.153,11.593,3.032,18.149,3.032
			c10.898,0,22.15-2.431,28.534-5.481c6.094-2.911,11.832-8.473,17.907-14.36c9.444-9.153,19.209-18.595,31.281-18.594
			c0.251,0,0.505,0.004,0.758,0.012c5.395,0.184,10.247,3.343,14.94,6.398c2.738,1.783,5.571,3.627,8.373,4.757
			c7.422,2.993,15.98,5.284,20.63,5.284c1.554,0,2.672-0.256,3.165-0.827c0.549-0.635,0.754-1.328,0.644-2.18
			c-0.729-5.663-13.633-14.529-21.343-19.827c-3.3-2.268-5.684-3.906-6.781-4.984c-3.449-3.389-6.228-8.615-9.17-14.149
			c-4.635-8.717-9.428-17.731-16.707-18.705c-0.368-0.049-0.738-0.072-1.113-0.072c-12.087,0-27.79,24.626-32.43,32.376
			c-0.824,1.376-1.538,2.768-2.228,4.113c-2.182,4.252-4.42,8.614-9.172,8.614c-1.49,0-3.228-0.429-5.288-1.425
			c-3.231-1.562-6.693-6.324-9.748-10.526c-1.379-1.897-2.682-3.689-3.707-4.813c-5.007-5.49-7.562-6.077-11.793-7.049
			c-2.099-0.482-4.478-1.028-7.635-2.235c-4.031-1.541-6.712-3.8-9.306-5.983c-3.204-2.699-6.23-5.248-11.648-6.033
			c-2.055-0.298-4.046-0.434-5.99-0.434c-9.125,0-17.183,2.985-25.626,6.112c-5.115,1.895-10.404,3.853-16.007,5.129l-1.054,0.24
			c-6.291,1.434-14.908,3.398-20.904,4.008c-0.779,0.079-1.569,0.115-2.368,0.115c-3.913,0-8.035-0.863-12.043-1.7
			c-2.626-0.55-5.342-1.117-7.98-1.443c-2.811-0.347-5.468-0.503-8.016-0.503c-10.256,0-18.738,2.533-28.261,5.378
			c-2.296,0.686-4.651,1.39-7.106,2.08c-5.06,1.425-10.171,2.636-14.974,2.636c-7.371,0-14.016-2.854-18.626-12.167l-0.526-1.063
			l0.912-0.757c0.842-0.698,1.261-1.497,1.321-2.515c0.278-4.765-7.298-12.711-12.83-18.514c-3.616-3.793-6.739-7.068-7.816-9.379
			c-1.678-3.598-2.406-6.15-2.937-8.015c-1.149-4.03-1.356-4.757-10.229-8.247c-4.133-1.625-7.579-4.297-10.911-6.881
			c-3.609-2.798-7.018-5.44-11.254-6.9c-2.202-0.759-4.466-1.067-6.765-1.067c-5.052,0-10.274,1.487-15.377,2.939
			c-2.907,0.828-5.913,1.684-8.808,2.233c-1.915,0.363-3.999,0.794-6.186,1.245c-7.909,1.632-17.543,3.623-25.286,3.623
			c-0.937,0-1.848-0.029-2.723-0.092c-18.974-1.351-18.56-26.684-18.228-47.04c0.117-7.134,0.227-13.871-0.606-18.139
			c-0.49-2.508-1.084-4.762-1.609-6.75c-1.976-7.488-3.404-12.899,3.15-21.225c3.937-5,7.269-8.582,12.54-8.582
			c1.95,0,4.166,0.49,6.776,1.581c11.978,5.006,20.907,14.844,29.541,24.358c7.513,8.278,14.61,16.099,23.551,21.032
			c5.033,2.778,12.743,4.496,20.079,4.496c5.557,0,10.901-0.987,14.7-3.247c1.782-1.06,3.915-3.771,6.173-6.643
			c4.141-5.263,9.107-11.572,15.068-11.571c1.358,0,2.767,0.327,4.23,1.069c3.62,1.837,5.799,7.751,8.107,14.013
			c2.051,5.563,4.171,11.316,7.166,13.978c4.663,4.145,10.733,6.264,17.264,6.264c4.598,0,9.424-1.051,14.145-3.184
			c9.386-4.24,17.902-12.238,26.137-19.972c3.448-3.238,6.705-6.297,10.009-9.079c8.533-7.185,17.403-8.244,25.982-9.27
			c8.102-0.968,15.767-1.883,23.358-7.598c-0.635-9.517,4.768-17.991,14.936-23.351c6.771-3.569,14.544-5.333,21.887-5.333
			c8.209,0,15.881,2.205,21.008,6.557c2.165,1.838,3.676,3.882,5.137,5.859c1.898,2.568,3.691,4.994,6.775,6.723
			c5.844,3.276,16.332,4.787,24.198,5.107c0.435,0.018,0.862,0.027,1.282,0.027c5.291,0,9.432-1.45,12.341-4.3
			c3.133-3.069,4.815-7.865,4.895-13.921c-0.296-0.043-0.575-0.064-0.84-0.064c-2.37,0-3.636,1.689-5.508,4.483
			c-1.896,2.834-4.046,6.046-8.496,6.755c-0.419,0.067-0.848,0.1-1.289,0.1c-10.593,0-27.474-18.673-30.493-22.533
			c-2.762-3.532-3.733-8.211-4.671-12.735c-1.401-6.752-2.724-13.13-9.593-15.761c-1.79-0.686-3.955-0.99-6.347-0.99
			c-10.144,0-24.339,5.473-30.988,10.507c-3.192,2.417-6.105,5.169-8.922,7.83c-6.329,5.979-12.874,12.163-22.708,14.53
			c-2.713,0.653-5.362,0.824-7.953,0.824c-1.434,0-2.851-0.052-4.25-0.104c-1.379-0.051-2.736-0.101-4.079-0.101
			c-3.614,0-7.117,0.364-10.616,2.054c-1.066,0.516-2.638,1.626-4.457,2.912c-4.409,3.117-10.256,7.257-15.277,7.257
			c-0.658,0-1.302-0.071-1.927-0.225c-2.208-0.542-3.95-2.028-5.175-4.418c-1.038-2.024-0.97-4.33,0.201-6.854
			c3.343-7.206,15.64-14.956,20.519-16.088c1.154-0.268,2.308-0.376,3.458-0.376c2.525,0,5.033,0.524,7.482,1.036
			c2.362,0.494,4.66,0.975,6.891,0.975c2.42,0,4.761-0.566,7.018-2.294c1.504-1.151,2.259-3.07,3.059-5.103
			c0.834-2.119,1.696-4.311,3.489-6.05c3.954-3.834,8.781-4.5,13.449-5.144c2.111-0.292,4.293-0.593,6.313-1.195
			c3.877-1.157,6.787-3.733,9.868-6.46c2.26-2,4.596-4.068,7.464-5.727c2.556-1.478,5.066-2.038,7.493-2.58
			c2.12-0.473,4.122-0.919,6.186-1.946c3.029-1.506,4.499-3.492,6.055-5.596c1.412-1.908,2.872-3.882,5.47-5.58
			c3.082-2.015,6.802-2.745,10.755-2.745c5.872,0,12.259,1.611,17.831,3.016c2.34,0.59,4.55,1.147,6.496,1.528
			c4.078,0.799,7.156,1.295,9.609,1.295c6.262,0,8.447-3.235,12.755-12.93c1.065-2.398,2.059-5.262,3.111-8.293
			c2.883-8.305,6.15-17.719,12.591-22.545c3.23-2.42,6.334-3.242,9.353-3.242c3.251,0,6.401,0.954,9.496,1.892
			c2.576,0.78,5.239,1.587,7.938,1.827c1.47,0.131,2.902,0.192,4.304,0.192c10.044,0,18.485-3.147,27.357-6.453
			c5.894-2.196,11.991-4.467,18.883-5.957c4.896-1.058,9.947-1.382,14.832-1.696c5.637-0.361,10.961-0.703,16.102-2.071
			c5.129-1.364,9.549-3.736,14.229-6.248c1.774-0.952,3.609-1.937,5.488-2.864c1.994-0.983,3.749-1.931,5.298-2.767
			c4.77-2.574,8.261-4.458,13.205-4.458c2.372,0,5.079,0.434,8.42,1.434c1.748,0.523,3.69,1.196,5.747,1.909
			c5.746,1.992,12.665,4.388,18.212,4.388c1.092,0,2.132-0.093,3.099-0.301c10.299-2.212,9.77-8.944,9.156-16.739
			c-0.105-1.331-0.207-2.672-0.255-3.998c-3.777-1.412-6.471-5.042-6.471-9.311C574.382,6.806,578.837,2.352,584.331,2.352
			 M584.331-0.648c-7.14,0-12.949,5.809-12.949,12.949c0,4.679,2.571,8.981,6.567,11.255c0.048,0.74,0.106,1.494,0.168,2.29
			c0.667,8.471,0.641,11.973-6.796,13.57c-0.722,0.155-1.553,0.234-2.469,0.234c-5.045,0-11.801-2.342-17.229-4.223
			c-2.094-0.726-4.063-1.408-5.87-1.949c-3.507-1.049-6.543-1.56-9.28-1.56c-5.701,0-9.64,2.125-14.627,4.817
			c-1.528,0.825-3.257,1.758-5.202,2.717c-1.932,0.954-3.786,1.949-5.58,2.911c-4.523,2.427-8.792,4.719-13.581,5.992
			c-4.858,1.292-10.038,1.625-15.523,1.976c-4.994,0.32-10.158,0.652-15.274,1.757c-7.107,1.536-13.304,3.845-19.297,6.078
			c-8.653,3.224-16.812,6.264-26.31,6.264c-1.335,0-2.693-0.061-4.038-0.18c-2.391-0.212-4.904-0.973-7.334-1.709
			c-3.278-0.993-6.668-2.021-10.366-2.021c-4.055,0-7.702,1.256-11.152,3.841c-7.175,5.376-10.602,15.25-13.625,23.96
			c-1.031,2.972-2.005,5.776-3.02,8.062c-4.467,10.052-5.977,11.147-10.013,11.147c-2.247,0-5.236-0.495-9.032-1.239
			c-1.86-0.364-4.023-0.909-6.313-1.487c-5.809-1.465-12.35-3.114-18.59-3.114c-5.013,0-9.068,1.058-12.397,3.234
			c-3.048,1.992-4.744,4.284-6.24,6.306c-1.45,1.96-2.596,3.509-4.979,4.693c-1.739,0.865-3.483,1.254-5.503,1.704
			c-2.526,0.563-5.388,1.202-8.342,2.911c-3.129,1.809-5.58,3.979-7.95,6.077c-2.95,2.611-5.496,4.865-8.738,5.833
			c-1.792,0.535-3.851,0.82-5.843,1.095c-4.928,0.679-10.49,1.446-15.149,5.965c-2.259,2.192-3.286,4.802-4.192,7.105
			c-0.642,1.632-1.248,3.174-2.09,3.818c-1.514,1.16-3.116,1.677-5.194,1.677c-1.921,0-4.037-0.443-6.276-0.912
			c-2.584-0.541-5.256-1.1-8.097-1.1c-1.466,0-2.819,0.148-4.136,0.454c-5.64,1.308-18.74,9.508-22.563,17.748
			c-1.968,4.241-1.168,7.499-0.15,9.485c1.617,3.153,4.083,5.215,7.13,5.963c0.838,0.207,1.728,0.312,2.642,0.312
			c5.966,0,12.336-4.503,16.987-7.792c1.66-1.174,3.207-2.268,4.053-2.677c3.201-1.547,6.503-1.755,9.31-1.755
			c1.29,0,2.591,0.048,3.968,0.099c1.414,0.052,2.873,0.106,4.361,0.106c3.335,0,6.085-0.288,8.655-0.907
			c10.61-2.554,17.45-9.016,24.064-15.264c2.765-2.612,5.615-5.305,8.674-7.621c6.184-4.682,19.688-9.899,29.178-9.899
			c2.129,0,3.904,0.266,5.274,0.791c5.08,1.946,6.246,6.424,7.729,13.569c0.961,4.635,2.051,9.889,5.246,13.974
			c0.185,0.237,19.365,23.685,32.856,23.685c0.604,0,1.198-0.046,1.766-0.138c5.738-0.914,8.498-5.038,10.512-8.048
			c0.022-0.033,0.043-0.064,0.065-0.096c-0.666,2.399-1.743,4.356-3.204,5.787c-2.332,2.285-5.777,3.443-10.242,3.443
			c-0.379,0-0.764-0.008-1.156-0.025c-7.178-0.292-17.467-1.706-22.857-4.727c-2.521-1.413-4.054-3.486-5.828-5.887
			c-1.49-2.016-3.177-4.3-5.609-6.365c-5.523-4.688-13.673-7.27-22.949-7.27c-8.068,0-16.338,2.016-23.286,5.679
			c-10.625,5.6-16.591,14.459-16.587,24.5c-6.532,4.436-13.112,5.222-20.66,6.123c-8.601,1.028-18.343,2.193-27.561,9.954
			c-3.37,2.837-6.654,5.922-10.13,9.187c-8.061,7.57-16.39,15.391-25.318,19.424c-4.225,1.909-8.689,2.918-12.91,2.918
			c-5.938,0-11.219-1.904-15.271-5.506c-2.433-2.163-4.511-7.8-6.344-12.774c-2.517-6.829-4.894-13.28-9.564-15.65
			c-1.825-0.925-3.704-1.393-5.588-1.393c-7.422,0-12.969,7.051-17.426,12.717c-1.896,2.411-4.045,5.144-5.348,5.919
			c-3.063,1.822-7.738,2.825-13.166,2.825c-6.883,0-14.022-1.58-18.63-4.122c-8.503-4.692-15.435-12.33-22.775-20.417
			c-8.859-9.762-18.015-19.851-30.611-25.115c-2.919-1.22-5.514-1.813-7.932-1.813c-6.694,0-10.707,4.405-14.897,9.726
			c-7.48,9.501-5.725,16.149-3.694,23.846c0.513,1.942,1.094,4.143,1.566,6.56c0.773,3.958,0.665,10.542,0.551,17.512
			c-0.168,10.31-0.359,21.992,1.96,31.416c2.878,11.692,9.289,17.973,19.054,18.668c0.923,0.066,1.911,0.099,2.936,0.099
			c8.039,0,17.92-2.039,25.859-3.678l0.188-0.039c2.128-0.439,4.138-0.854,5.984-1.204c3.038-0.577,6.105-1.451,9.071-2.296
			c4.879-1.389,9.922-2.824,14.555-2.824c2.132,0,4.025,0.295,5.788,0.903c3.767,1.298,6.837,3.678,10.392,6.434
			c3.5,2.714,7.118,5.52,11.653,7.303c7.492,2.947,7.528,3.072,8.442,6.278c0.559,1.961,1.325,4.646,3.104,8.46
			c1.284,2.755,4.405,6.029,8.357,10.174c3.97,4.165,12.214,12.813,12.013,16.276c-0.008,0.141-0.011,0.189-0.241,0.38l-0.913,0.757
			l-1.825,1.514l1.052,2.125l0.526,1.063c4.609,9.311,11.581,13.837,21.315,13.837c5.298,0,10.719-1.321,15.788-2.749
			c2.434-0.685,4.772-1.383,7.032-2.058l0.119-0.036c9.434-2.819,17.582-5.253,27.402-5.253c2.526,0,5.028,0.157,7.649,0.48
			c2.526,0.312,5.173,0.866,7.733,1.402c4.157,0.869,8.439,1.764,12.657,1.764c0.922,0,1.822-0.044,2.673-0.131
			c6.167-0.627,14.874-2.611,21.232-4.059l1.089-0.248c5.796-1.319,11.178-3.313,16.383-5.241
			c8.225-3.047,15.994-5.926,24.584-5.926c1.849,0,3.719,0.135,5.559,0.402c4.573,0.663,7.032,2.735,10.146,5.359
			c2.657,2.238,5.665,4.77,10.167,6.491c3.346,1.279,5.829,1.85,8.02,2.354c4.046,0.929,5.886,1.352,10.262,6.15
			c0.913,1.001,2.168,2.727,3.497,4.555c3.423,4.708,6.96,9.575,10.87,11.464c2.4,1.16,4.556,1.724,6.593,1.724
			c6.584,0,9.498-5.679,11.84-10.242c0.677-1.318,1.365-2.659,2.135-3.945c8.54-14.262,21.483-30.917,29.856-30.917
			c0.248,0,0.484,0.015,0.72,0.046c5.747,0.769,10.172,9.091,14.451,17.139c3.052,5.742,5.935,11.166,9.716,14.881
			c1.287,1.264,3.633,2.876,7.185,5.317c5.177,3.558,18.661,12.823,19.979,17.33c-0.192,0.018-0.437,0.031-0.746,0.031
			c-4.025,0-12.229-2.131-19.508-5.066c-2.535-1.022-5.241-2.785-7.858-4.489c-4.803-3.127-10.246-6.671-16.475-6.883
			c-0.29-0.01-0.576-0.014-0.86-0.014c-13.31-0.001-23.507,9.882-33.369,19.44c-5.896,5.714-11.462,11.108-17.113,13.808
			c-5.405,2.582-15.924,5.188-27.241,5.188c-6.721,0-12.598-0.969-16.995-2.801c-0.137-0.057-0.274-0.116-0.409-0.175
			c0.73-1.643,1.116-3.432,1.116-5.251c0-7.14-5.809-12.949-12.949-12.949s-12.949,5.809-12.949,12.949s5.809,12.949,12.949,12.949
			c1.759,0,3.493-0.361,5.102-1.055c1.17,0.691,2.401,1.307,3.678,1.839c5.61,2.338,12.497,3.523,20.47,3.523
			c10.975,0,23.476-2.45,31.107-6.097c6.98-3.335,13.06-9.227,19.497-15.466c8.574-8.31,17.439-16.903,27.11-16.903
			c0.184,0,0.367,0.003,0.552,0.009c3.723,0.127,7.68,2.703,11.869,5.431c2.978,1.939,6.057,3.944,9.404,5.294
			c3.305,1.333,14.699,5.682,22.552,5.682c3.683,0,6.383-0.965,8.026-2.867c1.65-1.907,2.38-4.348,2.055-6.87
			c-0.99-7.695-11.408-15.424-23.895-24.005c-2.462-1.692-5.251-3.608-5.975-4.319c-2.788-2.739-5.355-7.566-8.072-12.677
			c-5.102-9.597-10.879-20.463-21.215-21.844c-0.578-0.078-1.184-0.118-1.794-0.118c-13.692-0.001-28.054,19.189-37.692,35.286
			c-0.926,1.547-1.685,3.026-2.419,4.456c-1.868,3.641-2.922,5.374-3.865,5.374c-0.407,0-1.197-0.147-2.647-0.848
			c-1.876-0.906-5.4-5.755-7.506-8.652c-1.482-2.038-2.878-3.96-4.127-5.329c-6.271-6.876-10.262-7.792-14.883-8.854
			c-2-0.459-4.068-0.934-6.835-1.992c-3.086-1.179-5.17-2.935-7.583-4.968c-3.535-2.978-7.541-6.351-14.653-7.382
			c-2.233-0.323-4.511-0.487-6.772-0.487c-10.298,0-19.184,3.291-27.778,6.474c-4.939,1.83-10.037,3.719-15.265,4.908l-1.056,0.24
			c-6.135,1.4-14.535,3.316-20.178,3.89c-0.569,0.058-1.175,0.087-1.803,0.087c-3.235,0-6.88-0.762-10.739-1.569l-0.049-0.01
			c-2.742-0.573-5.577-1.166-8.458-1.521c-2.98-0.369-5.948-0.556-8.82-0.556c-11.038,0-20.186,2.732-29.872,5.624
			c-2.293,0.685-4.625,1.382-7.053,2.065c-5.915,1.666-10.071,2.409-13.478,2.409c-5.392,0-8.911-1.888-11.785-6.437
			c0.577-1.132,0.908-2.374,0.986-3.712c0.43-7.366-7.147-15.314-14.473-23.001c-2.71-2.843-6.064-6.361-6.724-7.777
			c-1.476-3.165-2.076-5.268-2.605-7.124c-1.97-6.908-4.374-8.477-13.803-12.185c-3.332-1.311-6.293-3.606-9.428-6.036
			c-3.843-2.979-7.808-6.053-12.98-7.835c-2.741-0.945-5.597-1.405-8.732-1.405c-5.834,0-11.506,1.614-16.991,3.174
			c-2.926,0.833-5.671,1.614-8.301,2.114c-1.958,0.372-4.057,0.805-6.28,1.264c-7.57,1.562-16.953,3.499-24.058,3.499
			c-0.817,0-1.595-0.026-2.312-0.077c-12.307-0.876-13.012-19.067-12.655-40.956c0.127-7.788,0.236-14.505-0.717-19.387
			c-0.526-2.692-1.145-5.041-1.691-7.113c-1.818-6.89-2.646-10.026,2.058-16.001c3.848-4.888,5.614-6.301,7.871-6.301
			c1.16,0,2.605,0.368,4.417,1.125c10.746,4.49,19.218,13.826,27.411,22.854c7.513,8.279,15.281,16.839,25.096,22.255
			c5.949,3.283,14.519,5.243,22.924,5.243c4.993,0,12.137-0.71,17.822-4.091c2.741-1.63,5.095-4.623,7.821-8.089
			c3.843-4.885,7.526-9.27,10.335-9.27c0.49,0,0.991,0.134,1.533,0.408c1.519,0.771,3.908,7.253,5.192,10.736
			c2.308,6.261,4.692,12.729,8.81,16.388c5.728,5.091,13.074,7.782,21.246,7.782c5.567,0,11.159-1.251,16.62-3.718
			c10.297-4.653,19.182-12.997,27.774-21.067c3.41-3.202,6.598-6.195,9.766-8.862c7.162-6.031,14.422-6.898,22.829-7.901
			c8.38-1.002,17.873-2.137,26.998-9.334l0.649-0.513l1.295-1.022l-0.17-1.641l-0.085-0.82c-0.982-9.487,5.817-15.17,11.693-18.267
			c5.623-2.964,12.405-4.596,19.098-4.596c7.07,0,13.309,1.854,17.116,5.086c1.638,1.391,2.823,2.995,4.194,4.851
			c2.093,2.831,4.46,6.033,8.668,8.391c8.519,4.775,22.733,5.699,26.887,5.869c0.506,0.021,1.005,0.031,1.496,0.031
			c6.923,0,12.499-2.023,16.57-6.014c4.544-4.451,6.858-11.196,6.691-19.505l-0.022-1.113l-0.045-2.227l-2.145-0.601l-1.073-0.301
			c-1.244-0.349-2.45-0.526-3.583-0.526c-5.675,0-8.441,4.132-10.461,7.149c-1.654,2.471-2.676,3.883-4.453,4.166
			c-0.124,0.02-0.262,0.03-0.41,0.03c-6.128,0-20.124-13.1-25.702-20.234c-1.898-2.428-2.687-6.232-3.523-10.258
			c-1.511-7.281-3.391-16.341-13.322-20.145c-2.426-0.929-5.326-1.401-8.62-1.401c-11.721-0.001-27.026,6.092-34.483,11.737
			c-3.453,2.614-6.487,5.48-9.42,8.252c-6.286,5.939-11.713,11.066-19.993,13.06c-1.856,0.447-3.945,0.655-6.576,0.655
			c-1.319,0-2.67-0.05-3.976-0.098c-1.408-0.052-2.838-0.104-4.29-0.104c-3.62,0-8.398,0.301-13.261,2.65
			c-1.515,0.732-3.274,1.976-5.311,3.416c-3.484,2.463-8.718,6.162-11.76,6.162c-0.206,0-0.39-0.02-0.546-0.058
			c-0.187-0.046-0.673-0.165-1.27-1.329c-0.198-0.386,0.106-1.163,0.305-1.591c2.443-5.264,13.134-12.003,16.433-12.769
			c0.644-0.149,1.335-0.222,2.109-0.222c1.895,0,4.008,0.442,6.246,0.911c2.459,0.514,5.239,1.095,8.129,1.095
			c4.074,0,7.56-1.152,10.656-3.522c2.829-2.166,3.979-5.09,4.994-7.669c0.655-1.667,1.221-3.104,2.083-3.94
			c2.544-2.467,6.042-2.95,10.092-3.508c2.334-0.322,4.747-0.655,7.208-1.389c5.145-1.537,8.854-4.819,12.127-7.714
			c2.042-1.808,4.148-3.672,6.494-5.029c1.759-1.017,3.63-1.434,5.796-1.917c2.269-0.506,4.836-1.079,7.551-2.429
			c4.323-2.15,6.387-4.939,8.207-7.4c1.249-1.688,2.233-3.018,3.929-4.126c1.819-1.189,4.262-1.767,7.47-1.767
			c5.13,0,11.098,1.505,16.364,2.833c2.418,0.61,4.702,1.186,6.811,1.599c4.809,0.942,8.01,1.344,10.705,1.344
			c9.409,0,13.248-5.069,18.295-16.431c1.169-2.631,2.203-5.609,3.297-8.762c2.601-7.492,5.548-15.985,10.521-19.711
			c1.884-1.412,3.67-2.042,5.791-2.042c2.332,0,4.829,0.757,7.721,1.633c2.867,0.868,5.831,1.766,9.146,2.061
			c1.625,0.144,3.264,0.217,4.872,0.217c11.073,0,19.982-3.318,29.415-6.832c5.696-2.122,11.585-4.317,18.054-5.714
			c4.462-0.964,9.285-1.274,13.949-1.573c5.678-0.364,11.549-0.741,17.261-2.26c5.811-1.546,10.749-4.196,15.524-6.76
			c1.726-0.927,3.511-1.885,5.306-2.77c2.092-1.033,3.898-2.007,5.492-2.867c4.494-2.425,6.969-3.761,10.351-3.761
			c1.826,0,3.957,0.383,6.706,1.205c1.626,0.487,3.508,1.139,5.501,1.83c6.076,2.106,13.609,4.717,20.19,4.717
			c1.552,0,3.015-0.146,4.349-0.433c15.43-3.315,14.494-15.206,13.875-23.075c-0.005-0.061-0.01-0.122-0.014-0.182
			c5.826-1.262,10.205-6.458,10.205-12.656C597.28,5.16,591.471-0.648,584.331-0.648L584.331-0.648z"/>
	</g>
</g>
</svg>
