<?xml version="1.0" encoding="utf-8"?>
<!-- Generator: Adobe Illustrator 17.0.0, SVG Export Plug-In . SVG Version: 6.00 Build 0)  -->
<!DOCTYPE svg PUBLIC "-//W3C//DTD SVG 1.1//EN" "http://www.w3.org/Graphics/SVG/1.1/DTD/svg11.dtd">
<svg version="1.1" id="Слой_1" xmlns="http://www.w3.org/2000/svg" xmlns:xlink="http://www.w3.org/1999/xlink" x="0px" y="0px"
	 width="182.991px" height="266.987px" viewBox="0 0 182.991 266.987" enable-background="new 0 0 182.991 266.987"
	 xml:space="preserve">
<g>
	<g>
		<path d="M9.549,254.698l0.686-1.334c0.825-1.605,2.102-2.845,3.228-3.938c0.798-0.776,1.551-1.508,1.985-2.205
			c0.681-1.091,0.755-2.433,0.849-4.132c0.076-1.386,0.163-2.953,0.631-4.587c0.866-3.021,2.258-5.61,3.604-8.114
			c1.236-2.3,2.404-4.472,3.08-6.816c1.875-6.501,4.725-11.071,9.835-15.775c1.82-1.677,3.32-3.717,4.909-5.878
			c1.662-2.26,3.379-4.596,5.571-6.631c2.146-1.992,3.921-4.396,5.799-6.941c1.661-2.25,3.375-4.573,5.426-6.695
			c2.891-2.99,5.808-3.079,8.382-3.158c0.572-0.018,1.169-0.035,1.814-0.083c2.059-0.151,2.792-0.708,4.562-2.053
			c0.405-0.309,0.836-0.636,1.312-0.979c1.153-0.833,2.544-1.401,4.017-2.003c1.244-0.509,3.311-1.354,3.724-1.996
			c0.25-0.387,0.118-0.885-0.671-2.538c-0.328-0.688-0.667-1.397-0.915-2.179c-2.281-7.176,3.027-12.146,6.902-15.773l0.8-0.751
			c4.463-4.226,5.569-5.843,6.171-12.025c0.553-5.669,3.103-7.728,5.353-9.543c1.124-0.908,2.184-1.764,3.167-3.197
			c0.685-0.997,0.713-1.903,0.71-3.696c-0.001-0.928-0.003-1.878,0.127-2.964c0.424-3.533,1.943-5.954,4.093-8.502
			c3.083-3.654,4.574-6.953,5.317-11.767l0.159-1.057c0.612-4.114,1.374-9.233,4.615-12.71c1.077-1.156,2.328-1.952,3.431-2.653
			c1.256-0.798,2.243-1.426,2.696-2.308c0.402-0.782,0.467-1.977,0.537-3.242c0.091-1.661,0.206-3.724,1.165-5.665
			c0.459-0.929,1.073-1.69,1.615-2.361c0.38-0.471,0.774-0.958,0.926-1.292c0.165-0.364,0.304-0.865,0.451-1.396
			c0.207-0.744,0.44-1.584,0.842-2.413c2.179-4.492,6.144-5.905,9.331-7.04c1.94-0.691,3.616-1.288,4.9-2.411
			c0.779-0.682,0.999-1.478,1.382-3.07c0.19-0.787,0.381-1.574,0.69-2.427c0.595-1.636,1.474-3.037,2.249-4.273
			c0.672-1.072,1.302-2.077,1.673-3.088c0.152-0.416,0.291-0.814,0.426-1.198c0.841-2.416,1.624-4.663,4.088-7.136
			c1.133-1.136,2.576-1.84,3.735-2.407c0.612-0.299,1.636-0.799,1.852-1.072c0.11-0.271,0.044-1.384,0.005-2.048
			c-0.099-1.662-0.22-3.725,0.825-5.59c1.325-2.361,3.498-3.513,5.244-4.438c0.723-0.382,1.399-0.741,1.861-1.104l1.18-0.926
			l3.707,4.718l-1.18,0.927c-0.879,0.691-1.827,1.193-2.743,1.679c-1.279,0.677-2.374,1.257-2.835,2.079
			c-0.187,0.333-0.113,1.564-0.07,2.299c0.1,1.669,0.222,3.742-0.89,5.557c-1.051,1.713-2.789,2.562-4.323,3.311
			c-0.797,0.39-1.699,0.831-2.118,1.251c-1.497,1.502-1.935,2.758-2.659,4.839c-0.148,0.425-0.303,0.866-0.472,1.326
			c-0.586,1.598-1.414,2.919-2.214,4.196c-0.687,1.093-1.325,2.112-1.7,3.146c-0.203,0.557-0.346,1.154-0.497,1.785
			c-0.453,1.878-1.017,4.213-3.267,6.181c-2.145,1.876-4.637,2.764-6.836,3.547c-2.81,1.001-4.839,1.725-5.946,4.007
			c-0.164,0.338-0.307,0.852-0.458,1.396c-0.193,0.694-0.412,1.481-0.77,2.271c-0.467,1.029-1.132,1.853-1.718,2.58
			c-0.367,0.454-0.743,0.919-0.908,1.253c-0.416,0.843-0.482,2.055-0.553,3.337c-0.097,1.753-0.206,3.738-1.192,5.655
			c-1.198,2.33-3.2,3.603-4.809,4.625c-0.881,0.56-1.711,1.087-2.266,1.683c-1.97,2.114-2.554,6.04-3.068,9.504l-0.163,1.082
			c-0.917,5.939-2.846,10.204-6.662,14.726c-1.608,1.907-2.471,3.257-2.722,5.349c-0.087,0.728-0.086,1.495-0.084,2.237
			c0.003,2.122,0.008,4.524-1.765,7.104c-1.481,2.157-3.069,3.439-4.345,4.469c-1.892,1.527-2.841,2.294-3.148,5.457
			c-0.76,7.796-2.578,10.649-8.023,15.804l-0.816,0.769c-3.305,3.094-6.421,6.012-5.288,9.579c0.123,0.387,0.359,0.882,0.609,1.406
			c0.909,1.903,2.425,5.081,0.303,8.377c-1.439,2.232-4.127,3.33-6.498,4.3c-1.09,0.446-2.207,0.903-2.774,1.312
			c-0.409,0.295-0.779,0.576-1.129,0.842c-2.082,1.582-3.985,3.028-7.816,3.312c-0.735,0.054-1.414,0.075-2.051,0.096
			c-2.307,0.07-3.077,0.094-4.272,1.331c-1.772,1.833-3.364,3.99-4.903,6.075c-1.968,2.668-3.994,5.413-6.554,7.79
			c-1.779,1.65-3.255,3.66-4.818,5.787c-1.69,2.299-3.434,4.67-5.679,6.737c-4.289,3.947-6.569,7.599-8.134,13.024
			c-0.853,2.956-2.229,5.515-3.559,7.99c-1.254,2.332-2.437,4.531-3.124,6.93c-0.282,0.985-0.343,2.091-0.408,3.262
			c-0.118,2.147-0.252,4.581-1.748,6.979c-0.821,1.316-1.875,2.34-2.893,3.33c-0.88,0.855-1.703,1.654-2.076,2.381l-0.686,1.334
			L9.549,254.698z"/>
		<path fill="#F28633" d="M165.643,17.223l1.854,2.359c-0.777,0.611-1.669,1.083-2.53,1.539c-1.416,0.75-2.753,1.458-3.43,2.665
			c-0.401,0.715-0.329,1.938-0.259,3.122c0.091,1.533,0.194,3.271-0.672,4.685c-0.821,1.339-2.285,2.055-3.702,2.747
			c-0.946,0.462-1.926,0.941-2.522,1.54c-1.738,1.744-2.273,3.279-3.014,5.404c-0.146,0.417-0.297,0.851-0.463,1.303
			c-0.534,1.456-1.323,2.713-2.085,3.929c-0.721,1.149-1.401,2.234-1.831,3.417c-0.228,0.626-0.383,1.268-0.546,1.947
			c-0.424,1.757-0.905,3.749-2.795,5.402c-1.929,1.687-4.177,2.488-6.352,3.263c-2.907,1.036-5.417,1.93-6.792,4.765
			c-0.223,0.46-0.384,1.038-0.554,1.65c-0.187,0.673-0.38,1.37-0.69,2.054c-0.389,0.856-0.965,1.57-1.522,2.26
			c-0.434,0.537-0.844,1.045-1.082,1.527c-0.552,1.117-0.627,2.479-0.706,3.919c-0.093,1.681-0.188,3.418-1.028,5.051
			c-1.012,1.968-2.748,3.072-4.279,4.045c-0.962,0.612-1.872,1.189-2.559,1.926c-2.288,2.455-2.908,6.626-3.455,10.307l-0.163,1.079
			c-0.87,5.639-2.703,9.689-6.325,13.982c-1.76,2.087-2.77,3.683-3.064,6.137c-0.098,0.818-0.097,1.632-0.095,2.419
			c0.003,1.994,0.007,4.056-1.501,6.251c-1.357,1.977-2.788,3.132-4.051,4.151c-2.006,1.62-3.331,2.689-3.7,6.479
			c-0.719,7.372-2.344,9.921-7.561,14.86l-0.813,0.765c-3.496,3.272-7.11,6.655-5.689,11.126c0.154,0.486,0.414,1.029,0.688,1.604
			c0.87,1.823,2.062,4.32,0.393,6.913c-1.182,1.834-3.532,2.795-5.804,3.724c-1.219,0.499-2.37,0.97-3.085,1.485
			c-0.444,0.32-0.846,0.626-1.224,0.913c-1.992,1.514-3.565,2.71-6.954,2.96c-0.719,0.053-1.383,0.073-2.006,0.093
			c-2.363,0.072-3.665,0.111-5.286,1.788c-1.845,1.908-3.47,4.11-5.041,6.239c-1.919,2.601-3.903,5.289-6.358,7.568
			c-1.88,1.745-3.399,3.811-5.006,5.998c-1.645,2.237-3.346,4.552-5.487,6.522c-4.511,4.152-6.911,7.997-8.559,13.712
			c-0.809,2.804-2.146,5.292-3.44,7.699c-1.291,2.402-2.511,4.672-3.243,7.224c-0.328,1.145-0.394,2.334-0.463,3.593
			c-0.114,2.063-0.231,4.196-1.523,6.269c-0.725,1.162-1.713,2.122-2.669,3.051c-0.964,0.937-1.875,1.82-2.361,2.768l-2.668-1.371
			c0.712-1.385,1.844-2.484,2.939-3.548c0.865-0.841,1.682-1.635,2.213-2.487c0.885-1.418,0.972-3.007,1.074-4.846
			c0.075-1.369,0.153-2.784,0.575-4.254c0.82-2.862,2.174-5.382,3.484-7.817c1.276-2.373,2.48-4.614,3.2-7.111
			c1.792-6.214,4.519-10.585,9.41-15.087c1.927-1.774,3.469-3.872,5.102-6.093c1.62-2.203,3.294-4.481,5.383-6.42
			c2.249-2.088,4.064-4.547,5.985-7.15c1.629-2.208,3.314-4.491,5.297-6.543c2.468-2.553,4.84-2.625,7.352-2.702
			c0.583-0.018,1.205-0.036,1.877-0.086c2.502-0.185,3.517-0.956,5.359-2.355c0.396-0.302,0.817-0.621,1.282-0.957
			c1.004-0.726,2.317-1.263,3.706-1.83c1.756-0.719,3.748-1.532,4.417-2.572c0.727-1.128,0.253-2.253-0.578-3.996
			c-0.306-0.641-0.622-1.304-0.839-1.987c-1.995-6.274,2.715-10.683,6.499-14.225l0.801-0.752c4.73-4.478,6.004-6.473,6.637-12.974
			c0.491-5.043,2.683-6.812,4.802-8.522c1.157-0.934,2.353-1.899,3.462-3.515c0.979-1.426,0.977-2.804,0.974-4.548
			c-0.001-0.877-0.003-1.783,0.117-2.782c0.381-3.173,1.717-5.304,3.75-7.714c3.279-3.886,4.864-7.392,5.653-12.506l0.16-1.062
			c0.582-3.909,1.305-8.773,4.229-11.91c0.948-1.018,2.064-1.727,3.144-2.413c1.385-0.88,2.581-1.641,3.221-2.885
			c0.547-1.065,0.622-2.415,0.701-3.845c0.088-1.601,0.188-3.416,1.012-5.083c0.385-0.78,0.92-1.443,1.438-2.083
			c0.46-0.569,0.894-1.107,1.125-1.615c0.214-0.472,0.368-1.028,0.532-1.617c0.198-0.714,0.403-1.452,0.745-2.157
			c1.911-3.939,5.403-5.184,8.484-6.281c1.998-0.712,3.885-1.384,5.384-2.695c1.172-1.025,1.473-2.27,1.853-3.847
			c0.177-0.729,0.358-1.483,0.643-2.268c0.539-1.483,1.337-2.756,2.109-3.987c0.712-1.135,1.385-2.207,1.811-3.369
			c0.16-0.437,0.306-0.854,0.446-1.257c0.805-2.311,1.501-4.306,3.722-6.535c0.953-0.956,2.216-1.573,3.331-2.117
			c1.03-0.503,2.097-1.024,2.46-1.618c0.374-0.61,0.304-1.794,0.235-2.94c-0.091-1.54-0.194-3.285,0.637-4.767
			c1.109-1.978,2.987-2.971,4.643-3.848C164.341,18.057,165.076,17.668,165.643,17.223 M166.149,13.011l-2.359,1.853
			c-0.356,0.28-0.976,0.608-1.632,0.955c-1.824,0.966-4.315,2.286-5.855,5.032c-1.261,2.249-1.119,4.653-1.015,6.408
			c0.019,0.324,0.047,0.787,0.05,1.146c-0.327,0.181-0.763,0.395-1.066,0.543c-1.26,0.615-2.828,1.381-4.139,2.694
			c-2.707,2.716-3.583,5.233-4.431,7.667c-0.142,0.407-0.279,0.8-0.43,1.21c-0.317,0.865-0.879,1.762-1.531,2.8
			c-0.82,1.307-1.744,2.78-2.392,4.564c-0.338,0.934-0.548,1.799-0.733,2.562c-0.351,1.458-0.498,1.952-0.918,2.319
			c-1.069,0.935-2.62,1.488-4.416,2.127c-3.262,1.162-7.73,2.754-10.177,7.798c-0.461,0.951-0.714,1.861-0.936,2.663
			c-0.132,0.475-0.256,0.922-0.373,1.181c-0.087,0.178-0.472,0.654-0.726,0.969c-0.562,0.697-1.261,1.562-1.794,2.64
			c-1.095,2.216-1.219,4.449-1.318,6.242c-0.058,1.057-0.118,2.145-0.374,2.643c-0.267,0.52-1.145,1.078-2.161,1.724
			c-1.186,0.754-2.522,1.604-3.731,2.901c-3.558,3.817-4.391,9.419-5,13.51l-0.16,1.062c-0.704,4.561-2.054,7.55-4.979,11.017
			c-2.324,2.755-3.967,5.389-4.436,9.291c-0.141,1.175-0.14,2.216-0.138,3.135c0.003,1.664-0.031,2.249-0.447,2.854
			c-0.861,1.253-1.792,2.006-2.871,2.877c-2.235,1.804-5.293,4.272-5.906,10.568c-0.56,5.751-1.446,7.044-5.714,11.086l-0.792,0.743
			c-3.93,3.679-9.872,9.242-7.304,17.32c0.28,0.88,0.657,1.671,0.99,2.369c0.132,0.276,0.39,0.818,0.538,1.206
			c-0.666,0.42-2.012,0.971-2.796,1.291c-1.498,0.612-3.038,1.241-4.336,2.179c-0.487,0.352-0.929,0.687-1.344,1.003
			c-1.691,1.285-2.147,1.631-3.762,1.75c-0.603,0.045-1.178,0.062-1.735,0.079c-2.733,0.084-6.116,0.188-9.43,3.616
			c-2.121,2.194-3.865,4.557-5.551,6.843c-1.838,2.491-3.572,4.84-5.616,6.737c-2.296,2.131-4.056,4.525-5.758,6.841
			c-1.545,2.101-3.003,4.085-4.717,5.664c-5.259,4.841-8.328,9.764-10.26,16.462c-0.632,2.192-1.763,4.295-2.96,6.522
			c-1.32,2.454-2.815,5.236-3.725,8.412c-0.515,1.796-0.606,3.454-0.686,4.916c-0.094,1.698-0.169,2.694-0.623,3.422
			c-0.339,0.543-1.027,1.213-1.757,1.922c-1.211,1.176-2.581,2.506-3.519,4.33l-1.372,2.668l2.669,1.371l2.668,1.371l2.668,1.371
			l1.371-2.668c0.261-0.508,1.032-1.257,1.777-1.981c1.042-1.013,2.213-2.151,3.13-3.621c1.699-2.727,1.851-5.48,1.973-7.691
			c0.062-1.132,0.116-2.109,0.352-2.932c0.643-2.243,1.788-4.373,3.001-6.629c1.37-2.549,2.784-5.179,3.681-8.288
			c1.5-5.201,3.589-8.545,7.708-12.336c2.352-2.166,4.14-4.597,5.868-6.947c1.524-2.074,2.959-4.027,4.634-5.581
			c2.663-2.473,4.731-5.276,6.731-7.986c1.519-2.058,3.081-4.174,4.784-5.935c0.73-0.755,0.91-0.804,3.217-0.875
			c0.652-0.02,1.363-0.043,2.138-0.099c4.276-0.315,6.447-1.966,8.548-3.562l0.067-0.051c0.341-0.258,0.701-0.533,1.098-0.819
			c0.424-0.306,1.55-0.767,2.455-1.138c2.586-1.057,5.506-2.25,7.201-4.88c2.576-4,0.766-7.793-0.206-9.83
			c-0.22-0.461-0.444-0.932-0.536-1.219c-0.79-2.487,1.316-4.692,4.878-8.027l0.82-0.771c5.671-5.369,7.691-8.541,8.492-16.755
			c0.247-2.537,0.792-2.977,2.598-4.436c1.352-1.091,3.034-2.449,4.64-4.787c2.036-2.964,2.031-5.73,2.028-7.953
			c-0.001-0.731-0.003-1.42,0.074-2.058c0.189-1.573,0.722-2.596,2.379-4.56c3.955-4.688,6.048-9.311,6.996-15.459l0.164-1.09
			c0.483-3.254,1.03-6.935,2.683-8.708c0.424-0.455,1.175-0.932,1.97-1.438c1.672-1.063,3.958-2.516,5.342-5.208
			c1.132-2.201,1.256-4.449,1.356-6.256c0.062-1.127,0.12-2.19,0.401-2.758c0.091-0.185,0.473-0.657,0.726-0.97
			c0.615-0.762,1.375-1.704,1.921-2.906c0.407-0.897,0.642-1.743,0.849-2.49c0.121-0.435,0.258-0.928,0.362-1.144
			c0.803-1.656,2.221-2.223,5.097-3.248c2.327-0.829,4.963-1.767,7.323-3.831c2.609-2.282,3.26-4.984,3.736-6.957
			c0.142-0.592,0.276-1.149,0.449-1.626c0.321-0.883,0.891-1.793,1.552-2.846c0.812-1.296,1.721-2.746,2.361-4.491
			c0.172-0.469,0.329-0.917,0.479-1.349c0.699-2.007,1.05-3.014,2.305-4.273c0.242-0.243,1.163-0.693,1.714-0.962
			c1.633-0.797,3.665-1.79,4.943-3.874c1.359-2.218,1.215-4.651,1.109-6.427c-0.028-0.476-0.073-1.233-0.036-1.599
			c0.347-0.416,1.291-0.916,2.133-1.362c0.942-0.499,1.995-1.057,2.98-1.832l2.359-1.853l-1.853-2.359l-1.854-2.359L166.149,13.011
			L166.149,13.011z"/>
	</g>
</g>
<g>
	<circle cx="14.403" cy="253.884" r="5.468"/>
	<path fill="#F28633" d="M19.607,249.005c-0.626,0.928-0.853,1.382-1.86,2.575c0.597,0.69,0.624,1.318,0.624,2.303
		c0,2.188-1.78,3.968-3.968,3.968c-2.188,0-3.967-1.78-3.967-3.968s1.78-3.968,3.967-3.968c0.191,0,0.879,0.132,1.062,0.158
		c0.63-1.214,1.225-1.688,1.5-2.63c-0.819-0.339-1.622-0.528-2.562-0.528c-3.842,0-6.967,3.126-6.967,6.968s3.125,6.968,6.967,6.968
		s6.968-3.126,6.968-6.968C21.37,251.823,21.035,250.281,19.607,249.005z"/>
</g>
<g>
	<circle cx="168.621" cy="16.886" r="5.468"/>
	<path fill="#F28633" d="M161.934,19.37c0.937-0.614,1.391-0.71,2.782-1.421c-0.284-0.868-0.134-1.69,0.247-2.598
		c0.847-2.017,3.177-2.969,5.195-2.122c2.017,0.847,2.968,3.178,2.121,5.194c-0.847,2.017-3.177,2.969-5.194,2.122
		c-0.176-0.074-0.6-0.367-0.759-0.462c-1.051,0.875-1.717,1.069-2.56,1.749c0.624,0.63,1.291,1.115,2.158,1.479
		c3.542,1.488,7.634-0.184,9.122-3.726c1.488-3.542-0.184-7.634-3.726-9.122s-7.635,0.184-9.122,3.726
		C161.398,16.089,161.111,17.64,161.934,19.37z"/>
</g>
</svg>
