<?xml version="1.0" encoding="utf-8"?>
<!-- Generator: Adobe Illustrator 17.0.0, SVG Export Plug-In . SVG Version: 6.00 Build 0)  -->
<!DOCTYPE svg PUBLIC "-//W3C//DTD SVG 1.1//EN" "http://www.w3.org/Graphics/SVG/1.1/DTD/svg11.dtd">
<svg version="1.1" id="Слой_1" xmlns="http://www.w3.org/2000/svg" xmlns:xlink="http://www.w3.org/1999/xlink" x="0px" y="0px"
	 width="724.504px" height="429.043px" viewBox="0 0 724.504 429.043" enable-background="new 0 0 724.504 429.043"
	 xml:space="preserve">
<g>
	<g>
		<path d="M694.37,408.07c-3.703-1.099-5.96-5.68-7.952-9.722c-0.532-1.08-1.012-2.053-1.418-2.745
			c-2.496-4.25-6.102-8.074-9.588-11.772l-1.488-1.584c-4.91-5.251-11.58-8.028-18.642-10.968
			c-3.814-1.589-7.746-3.227-11.401-5.291c-1.635-0.923-3.201-1.844-4.731-2.743c-7.345-4.319-13.686-8.047-22.724-8.954
			c-3.589-0.358-7.413-0.373-11.462-0.389c-6.229-0.024-12.671-0.051-18.523-1.396c-5.48-1.261-9.886-4.473-14.146-7.578
			l-0.091-0.066c-0.785-0.571-1.563-1.138-2.34-1.684c-3.649-2.562-7.575-4.458-11.731-6.466l-1.718-0.831
			c-4.017-1.953-8.029-4.04-11.91-6.059l0.571-1.393l-0.691,1.33c-5.004-2.602-10.179-5.292-15.398-7.718
			c-5.197-2.415-9.661-5.582-13.979-8.645c-3.964-2.812-8.062-5.719-12.549-7.857c-1.417-0.675-2.947-1.302-4.568-1.964
			c-3.646-1.491-7.381-3.019-10.479-5.346c-2.099-1.576-3.839-3.396-5.521-5.157c-1.764-1.846-3.423-3.581-5.378-4.94
			c-3.312-2.303-7.13-3.995-10.822-5.632c-5.114-2.267-10.391-4.605-14.639-8.628c-2.079-1.967-4.242-3.587-6.334-5.152
			c-4.998-3.745-9.718-7.281-12.412-14.473c-0.62-1.652-0.993-3.533-1.354-5.352c-0.518-2.608-1.052-5.302-2.193-6.727
			c-1.005-1.255-2.857-1.815-5.002-2.465c-2.581-0.78-5.507-1.666-7.738-4.092c-1.941-2.11-2.774-4.479-3.51-6.57
			c-0.513-1.46-0.998-2.838-1.802-3.904c-2.36-3.126-4.661-3.767-7.391-3.767c-1.118,0-2.33,0.11-3.613,0.227
			c-1.484,0.134-2.984,0.27-4.558,0.27c-1.465,0-2.804-0.119-4.093-0.364c-3.937-0.749-7.572-2.275-11.087-3.753
			c-3.783-1.589-7.354-3.088-11.08-3.577c-9.793-1.287-15.712-3.995-23.205-7.425c-1.825-0.835-3.665-1.677-5.68-2.559
			c-2.407-1.053-4.76-2.07-7.068-3.068l-0.161-0.069c-14.377-6.218-26.789-11.586-40.383-20.063c-2.7-1.684-5.281-3.335-7.798-4.946
			c-11-7.041-20.465-13.101-33.412-17.805l-0.944-0.345c-7.37-2.683-11.43-4.161-17.301-4.161c-1.366,0-2.803,0.081-4.396,0.248
			c-2.555,0.266-4.77,0.396-6.77,0.396c-6.223,0-10.97-1.276-17.553-3.631c-7.829-2.799-15.393-5.651-21.867-9.743
			c-2.001-1.266-3.204-2.39-4.169-3.292c-1.494-1.397-2.174-2.033-5.426-2.551c-0.708-0.113-1.462-0.168-2.306-0.168
			c-1.014,0-2.042,0.077-3.13,0.158c-1.161,0.087-2.349,0.176-3.596,0.176c-1.026,0-1.967-0.061-2.877-0.185
			c-8.669-1.181-13.89-4.847-19.936-9.091c-1.683-1.181-3.419-2.4-5.296-3.6c-2.847-1.823-6.288-3.115-9.931-4.482
			c-4.042-1.518-8.221-3.087-11.873-5.525c-6.135-4.097-8.716-9.129-11.705-14.957c-0.489-0.954-0.99-1.931-1.523-2.932
			c-2.503-4.704-5.315-7.224-8.572-10.142c-1.643-1.472-3.342-2.995-5.179-4.926c-4.148-4.363-6.379-9.891-8.537-15.237
			c-2.968-7.358-5.532-13.711-12.361-16.236c-5.994-2.215-11.424-3.022-16.675-3.802c-11.272-1.677-21.92-3.26-29.741-19.728
			l-0.644-1.355l5.42-2.574l0.644,1.355c6.448,13.578,13.91,14.688,25.204,16.366c5.295,0.788,11.297,1.68,17.872,4.11
			c9.319,3.445,12.637,11.666,15.845,19.617c1.947,4.825,3.96,9.814,7.321,13.349c1.663,1.749,3.268,3.187,4.819,4.578
			c3.546,3.177,6.88,6.163,9.882,11.806c0.531,0.998,1.032,1.973,1.519,2.922l0.046,0.089c2.822,5.501,4.86,9.474,9.698,12.705
			c3.072,2.052,6.918,3.497,10.638,4.894c3.789,1.423,7.69,2.888,11.067,5.049c1.996,1.278,3.782,2.532,5.509,3.745
			c5.406,3.794,10.074,7.072,17.299,8.056c0.641,0.087,1.318,0.129,2.069,0.129c1.023,0,2.055-0.077,3.146-0.158
			c1.147-0.086,2.333-0.175,3.579-0.175c1.166,0,2.229,0.08,3.25,0.242c5.063,0.808,6.77,2.403,8.576,4.092
			c0.862,0.807,1.754,1.641,3.28,2.605c5.954,3.764,13.18,6.484,20.682,9.167c6.087,2.178,10.158,3.284,15.512,3.284
			c1.785,0,3.802-0.12,6.166-0.368c1.795-0.186,3.433-0.276,5.008-0.276c6.947,0,11.887,1.799,19.365,4.521l0.94,0.341
			c13.573,4.933,23.297,11.158,34.558,18.366c2.511,1.607,5.085,3.255,7.779,4.936c13.213,8.238,25.435,13.524,39.586,19.645
			l0.263,0.113c2.284,0.988,4.61,1.995,6.992,3.037c2.083,0.911,3.981,1.778,5.772,2.6c7.313,3.346,12.595,5.763,21.489,6.931
			c4.531,0.595,8.644,2.323,12.622,3.995c3.382,1.42,6.572,2.76,9.885,3.39c0.91,0.173,1.888,0.257,2.989,0.257
			c1.336,0,2.686-0.123,3.99-0.242c1.35-0.123,2.746-0.251,4.165-0.251c3.508,0,8.062,0.699,12.178,6.152
			c1.366,1.809,2.061,3.784,2.673,5.527c0.622,1.769,1.16,3.296,2.266,4.498c1.121,1.219,2.945,1.771,5.057,2.411
			c2.713,0.821,5.782,1.75,7.951,4.458c2.056,2.566,2.736,5.988,3.394,9.298c0.33,1.663,0.64,3.227,1.089,4.426
			c2.079,5.548,5.747,8.296,10.392,11.774c2.23,1.67,4.538,3.398,6.861,5.6c3.497,3.311,8.08,5.342,12.933,7.492
			c3.96,1.756,8.045,3.566,11.829,6.197c2.456,1.707,4.403,3.746,6.288,5.719c1.587,1.66,3.084,3.227,4.789,4.508
			c2.482,1.864,5.854,3.242,9.116,4.575c1.668,0.683,3.346,1.369,4.91,2.116c4.956,2.362,9.269,5.421,13.438,8.379
			c4.113,2.917,8.347,5.919,13.034,8.097c5.345,2.483,10.58,5.205,15.644,7.838c3.912,2.035,7.91,4.114,11.88,6.046l1.695,0.82
			c4.385,2.117,8.527,4.117,12.58,6.963c0.835,0.587,1.673,1.197,2.517,1.812c3.776,2.752,7.677,5.595,11.956,6.578
			c5.197,1.195,11.294,1.22,17.189,1.244c4.042,0.016,8.19,0.032,12.05,0.42c10.351,1.036,17.217,5.075,25.168,9.751
			c1.533,0.902,3.054,1.796,4.64,2.692c3.348,1.89,7.114,3.458,10.757,4.975c7.341,3.056,14.928,6.215,20.716,12.406l1.476,1.57
			c3.717,3.942,7.558,8.017,10.394,12.848c0.527,0.896,1.06,1.979,1.624,3.125c0.846,1.717,3.092,6.277,4.281,6.631l1.438,0.427
			l-1.708,5.751L694.37,408.07z"/>
		<path fill="#F28633" d="M23.579,22.552c6.792,14.3,14.99,15.52,26.338,17.207c5.224,0.777,11.144,1.657,17.573,4.034
			c8.697,3.214,11.888,11.123,14.974,18.77c2,4.956,4.067,10.081,7.625,13.822c1.71,1.798,3.343,3.261,4.921,4.675
			c3.428,3.071,6.666,5.971,9.542,11.379c0.544,1.023,1.056,2.021,1.555,2.992c2.814,5.487,5.037,9.82,10.2,13.268
			c3.219,2.15,7.152,3.626,10.956,5.055c3.702,1.39,7.53,2.828,10.774,4.904c1.959,1.254,3.736,2.501,5.456,3.708
			c5.566,3.907,10.373,7.281,17.958,8.314c0.767,0.104,1.52,0.143,2.271,0.143c1.076,0,2.149-0.08,3.258-0.163
			c1.129-0.085,2.279-0.171,3.467-0.171c0.977,0,1.978,0.058,3.014,0.224c4.61,0.735,6.083,2.112,7.788,3.706
			c0.871,0.815,1.858,1.738,3.503,2.778c6.083,3.846,13.394,6.599,20.978,9.311c6.431,2.3,10.536,3.371,16.018,3.371
			c1.893,0,3.948-0.128,6.322-0.376c1.751-0.182,3.352-0.269,4.852-0.269c6.671,0,11.394,1.716,18.851,4.431l0.941,0.342
			c13.414,4.875,23.075,11.059,34.261,18.22c2.516,1.61,5.095,3.261,7.794,4.944c13.31,8.299,25.58,13.606,39.788,19.75
			c2.365,1.023,4.776,2.066,7.246,3.147c2.074,0.907,3.964,1.771,5.748,2.589c7.431,3.4,12.8,5.857,21.918,7.055
			c4.327,0.568,8.348,2.257,12.236,3.891c3.454,1.45,6.716,2.82,10.186,3.48c1.097,0.208,2.189,0.283,3.269,0.283
			c1.396,0,2.774-0.125,4.127-0.248c1.335-0.122,2.682-0.245,4.028-0.245c3.757,0,7.509,0.956,10.981,5.556
			c1.225,1.622,1.851,3.4,2.456,5.121c0.649,1.845,1.262,3.588,2.577,5.017c1.399,1.521,3.502,2.157,5.73,2.832
			c2.623,0.794,5.333,1.614,7.211,3.959c1.828,2.282,2.472,5.524,3.095,8.659c0.341,1.719,0.663,3.342,1.153,4.652
			c2.233,5.959,6.248,8.967,10.897,12.449c2.197,1.645,4.47,3.348,6.729,5.488c3.685,3.488,8.383,5.57,13.356,7.774
			c3.89,1.725,7.911,3.507,11.58,6.058c2.329,1.619,4.226,3.604,6.06,5.523c1.63,1.705,3.169,3.315,4.973,4.671
			c2.636,1.979,6.1,3.395,9.45,4.765c1.618,0.662,3.291,1.346,4.832,2.081c4.835,2.305,9.096,5.326,13.216,8.249
			c4.155,2.946,8.451,5.994,13.271,8.233c5.33,2.477,10.566,5.2,15.63,7.833c3.877,2.017,7.886,4.102,11.869,6.039l1.698,0.822
			c4.329,2.09,8.419,4.064,12.371,6.84c0.828,0.582,1.658,1.187,2.495,1.797c3.896,2.839,7.924,5.775,12.504,6.828
			c5.364,1.233,11.55,1.258,17.533,1.282c3.981,0.016,8.099,0.031,11.893,0.412c10.021,1.004,16.758,4.965,24.557,9.552
			c1.508,0.887,3.052,1.795,4.663,2.705c3.425,1.934,7.233,3.52,10.918,5.054c7.191,2.994,14.628,6.09,20.196,12.046l1.479,1.573
			c3.658,3.881,7.441,7.894,10.193,12.58c0.496,0.844,1.019,1.904,1.571,3.027c1.347,2.734,3.382,6.866,5.199,7.406l-0.854,2.875
			c-3.076-0.913-5.18-5.186-7.037-8.955c-0.528-1.072-1.026-2.085-1.467-2.834c-2.581-4.395-6.245-8.282-9.789-12.042l-1.487-1.582
			c-5.127-5.483-11.942-8.321-19.158-11.325c-3.766-1.568-7.659-3.189-11.239-5.212c-1.628-0.919-3.187-1.835-4.709-2.731
			c-7.495-4.407-13.968-8.214-23.335-9.153c-3.651-0.365-7.515-0.381-11.605-0.396c-6.147-0.024-12.504-0.05-18.193-1.358
			c-5.179-1.191-9.459-4.311-13.599-7.328c-0.823-0.6-1.639-1.194-2.453-1.766c-3.752-2.635-7.734-4.558-11.95-6.594l-1.707-0.826
			c-4.019-1.954-8.046-4.049-11.94-6.074c-5.035-2.618-10.241-5.326-15.51-7.774c-5.068-2.355-9.478-5.482-13.742-8.508
			c-4.017-2.849-8.17-5.794-12.771-7.987c-1.464-0.698-3.024-1.336-4.677-2.012c-3.525-1.441-7.171-2.932-10.116-5.144
			c-2.001-1.503-3.698-3.279-5.34-4.997c-1.812-1.896-3.522-3.687-5.604-5.133c-3.434-2.388-7.322-4.11-11.083-5.777
			c-4.986-2.21-10.144-4.496-14.203-8.34c-2.135-2.021-4.336-3.67-6.466-5.265c-4.816-3.608-9.366-7.017-11.907-13.798
			c-0.577-1.539-0.938-3.36-1.288-5.121c-0.552-2.781-1.123-5.658-2.493-7.368c-1.296-1.618-3.454-2.272-5.739-2.963
			c-2.515-0.761-5.115-1.548-7.068-3.672c-1.732-1.883-2.478-4.002-3.199-6.053c-0.553-1.573-1.076-3.059-2.02-4.31
			c-2.694-3.568-5.439-4.363-8.588-4.363c-1.188,0-2.434,0.113-3.755,0.233c-1.437,0.13-2.901,0.263-4.415,0.263
			c-1.233,0-2.499-0.088-3.813-0.338c-3.78-0.719-7.342-2.215-10.787-3.662c-3.876-1.628-7.538-3.166-11.465-3.682
			c-9.566-1.257-15.395-3.924-22.776-7.302c-1.77-0.81-3.645-1.668-5.702-2.568c-2.466-1.078-4.873-2.119-7.234-3.141
			c-14.318-6.192-26.685-11.54-40.185-19.959c-2.71-1.689-5.298-3.347-7.824-4.963c-11.036-7.064-20.567-13.165-33.668-17.926
			l-0.943-0.344c-7.323-2.666-11.68-4.251-17.815-4.251c-1.405,0-2.903,0.083-4.551,0.255c-2.465,0.257-4.622,0.387-6.614,0.387
			c-5.888,0-10.335-1.142-17.048-3.543c-7.748-2.771-15.228-5.59-21.57-9.599c-1.884-1.191-3.029-2.262-3.95-3.123
			c-1.563-1.462-2.507-2.344-6.211-2.935c-0.858-0.137-1.7-0.186-2.542-0.186c-1.069,0-2.139,0.08-3.243,0.162
			c-1.133,0.085-2.288,0.171-3.484,0.171c-0.868,0-1.757-0.046-2.675-0.171c-8.307-1.132-13.391-4.7-19.276-8.832
			c-1.693-1.188-3.444-2.417-5.349-3.636c-2.978-1.906-6.492-3.226-10.212-4.623c-3.962-1.488-8.06-3.026-11.567-5.368
			c-5.81-3.88-8.31-8.752-11.203-14.394c-0.492-0.958-0.997-1.943-1.534-2.952c-2.627-4.938-5.532-7.541-8.895-10.554
			c-1.623-1.454-3.3-2.957-5.093-4.842c-3.952-4.156-6.128-9.55-8.233-14.767c-2.972-7.367-5.78-14.325-13.231-17.08
			c-6.138-2.268-11.647-3.087-16.974-3.879c-11.337-1.686-21.129-3.142-28.606-18.887L23.579,22.552 M25.001,18.555l-2.71,1.287
			l-2.71,1.287l-2.71,1.287l1.287,2.71c8.164,17.19,19.195,18.831,30.875,20.568c5.176,0.77,10.528,1.565,16.376,3.726
			c6.206,2.294,8.655,8.362,11.489,15.388c2.21,5.478,4.496,11.141,8.841,15.711c1.879,1.976,3.601,3.518,5.266,5.009
			c3.28,2.939,5.871,5.26,8.249,9.729c0.525,0.986,1.018,1.947,1.498,2.883c2.971,5.792,5.762,11.235,12.221,15.548
			c3.794,2.534,8.056,4.134,12.178,5.682c3.567,1.339,6.936,2.604,9.65,4.342c1.85,1.183,3.573,2.393,5.239,3.562
			c5.951,4.178,11.569,8.122,20.599,9.352c0.978,0.133,1.985,0.198,3.08,0.198c1.303,0,2.519-0.091,3.696-0.179
			c1.072-0.08,2.073-0.155,3.031-0.155c0.764,0,1.441,0.049,2.07,0.149c2.798,0.446,3.261,0.879,4.634,2.163
			c0.961,0.898,2.274,2.126,4.396,3.467c6.603,4.174,14.251,7.059,22.163,9.888c6.742,2.411,11.616,3.718,18.058,3.718
			c2.052,0,4.317-0.132,6.924-0.404c1.541-0.161,2.927-0.239,4.24-0.239c5.607,0,9.579,1.446,16.789,4.071l0.942,0.343
			c12.793,4.649,22.194,10.666,33.079,17.634l0.08,0.051c2.496,1.598,5.078,3.25,7.774,4.931
			c13.688,8.536,26.147,13.924,40.573,20.163l0.266,0.115c2.275,0.984,4.593,1.987,6.965,3.024c1.992,0.872,3.801,1.699,5.55,2.499
			l0.106,0.048c7.607,3.482,13.615,6.232,23.633,7.548c3.527,0.463,7.007,1.924,10.691,3.472c3.59,1.508,7.299,3.067,11.391,3.845
			c1.382,0.263,2.812,0.391,4.373,0.391c1.641,0,3.175-0.139,4.66-0.273c1.284-0.116,2.462-0.223,3.511-0.223
			c2.407,0,4.192,0.519,6.193,3.17c0.664,0.88,1.09,2.093,1.584,3.497c0.783,2.227,1.671,4.751,3.821,7.089
			c2.508,2.728,5.643,3.676,8.408,4.512c1.826,0.553,3.551,1.075,4.266,1.967c0.913,1.139,1.433,3.762,1.892,6.077
			c0.374,1.884,0.759,3.824,1.422,5.591c2.849,7.602,7.967,11.436,12.916,15.145c2.06,1.542,4.188,3.136,6.204,5.044
			c4.435,4.199,9.831,6.591,15.05,8.904c3.641,1.614,7.392,3.276,10.586,5.498c1.832,1.273,3.44,2.955,5.142,4.737
			c1.733,1.814,3.516,3.679,5.712,5.329c3.253,2.443,7.079,4.008,10.779,5.52c1.63,0.667,3.144,1.286,4.524,1.944
			c4.37,2.083,8.416,4.952,12.327,7.727c4.372,3.102,8.893,6.309,14.213,8.781c5.189,2.411,10.348,5.094,15.336,7.688l0.054,0.028
			l0.061,0.031c3.892,2.024,7.917,4.117,11.952,6.079l1.712,0.828c4.109,1.985,7.983,3.855,11.533,6.348
			c0.776,0.545,1.552,1.11,2.335,1.68l0.076,0.055c4.382,3.194,8.914,6.497,14.692,7.827c6.016,1.384,12.542,1.41,18.854,1.435
			c4.013,0.015,7.803,0.03,11.319,0.382c8.711,0.874,14.624,4.351,22.11,8.752c1.441,0.848,3.072,1.807,4.758,2.759
			c3.732,2.108,7.706,3.763,11.549,5.364c6.92,2.881,13.445,5.597,18.132,10.61l1.493,1.588c3.432,3.641,6.978,7.403,9.388,11.506
			c0.379,0.644,0.846,1.592,1.341,2.596l2.717-1.274l-2.691,1.326c2.128,4.318,4.539,9.212,8.871,10.498l2.876,0.854l0.854-2.876
			l0.854-2.875l0.854-2.875l-2.709-0.805c-1.006-0.784-2.832-4.49-3.529-5.906c-0.576-1.171-1.121-2.278-1.676-3.222
			c-2.922-4.975-6.821-9.112-10.592-13.112l-1.48-1.575c-6.004-6.422-13.743-9.644-21.227-12.76
			c-3.604-1.501-7.329-3.052-10.598-4.897c-1.578-0.892-3.109-1.792-4.59-2.663c-7.793-4.583-15.128-8.897-25.806-9.967
			c-3.93-0.395-8.114-0.411-12.16-0.427c-5.847-0.024-11.859-0.048-16.893-1.206c-3.98-0.915-7.754-3.665-11.404-6.325
			c-0.855-0.624-1.7-1.239-2.542-1.831c-4.154-2.917-8.35-4.943-12.792-7.087l-1.695-0.821c-3.951-1.922-7.937-3.995-11.792-6
			l-0.049-0.026c-5.077-2.64-10.327-5.37-15.701-7.866c-4.564-2.121-8.741-5.082-12.78-7.946c-4.24-3.008-8.605-6.105-13.679-8.524
			c-1.605-0.766-3.305-1.462-4.95-2.134c-3.212-1.312-6.493-2.653-8.822-4.402c-1.606-1.207-3.062-2.73-4.603-4.342
			c-1.847-1.933-3.938-4.123-6.518-5.916c-3.9-2.712-8.051-4.552-12.066-6.332c-4.742-2.102-9.211-4.082-12.521-7.215
			c-2.387-2.261-4.729-4.015-6.994-5.711c-4.448-3.331-7.961-5.963-9.887-11.101c-0.405-1.083-0.704-2.589-1.02-4.183
			c-0.662-3.331-1.411-7.098-3.696-9.951c-2.459-3.07-5.91-4.115-8.682-4.954c-1.906-0.578-3.549-1.075-4.392-1.992
			c-0.897-0.975-1.387-2.368-1.954-3.981c-0.649-1.846-1.385-3.939-2.892-5.934c-4.565-6.048-9.819-6.747-13.374-6.747
			c-1.488,0-2.918,0.131-4.302,0.257c-1.27,0.116-2.585,0.236-3.853,0.236c-1.006,0-1.893-0.075-2.71-0.231
			c-3.158-0.601-6.278-1.911-9.581-3.298c-4.071-1.711-8.279-3.479-13.01-4.1c-8.67-1.138-13.599-3.394-21.058-6.807
			c-1.896-0.869-3.765-1.722-5.797-2.611c-2.4-1.05-4.745-2.064-7.047-3.06l-0.211-0.091c-14.099-6.098-26.273-11.363-39.392-19.542
			c-2.686-1.675-5.267-3.328-7.764-4.925c-11.335-7.256-21.124-13.523-34.854-18.512l-0.942-0.342
			c-7.625-2.776-12.664-4.611-19.875-4.611c-1.629,0-3.317,0.093-5.162,0.285c-2.314,0.242-4.28,0.36-6.012,0.36
			c-5.165,0-8.954-1.031-15.007-3.196c-7.419-2.654-14.561-5.341-20.385-9.022c-1.407-0.889-2.246-1.674-3.057-2.433
			c-1.892-1.769-3.848-3.598-9.364-4.478c-1.101-0.176-2.241-0.261-3.487-0.261c-1.3,0-2.516,0.091-3.691,0.179
			c-1.063,0.079-2.067,0.154-3.034,0.154c-0.682,0-1.293-0.038-1.868-0.116c-6.862-0.935-11.176-3.963-16.638-7.797
			c-1.741-1.222-3.54-2.486-5.562-3.78c-3.511-2.247-7.49-3.741-11.337-5.186c-3.652-1.372-7.416-2.786-10.345-4.742
			c-4.515-3.015-6.478-6.843-9.196-12.141l-0.04-0.078c-0.493-0.96-0.999-1.946-1.536-2.955c-3.126-5.877-6.716-9.093-10.188-12.203
			c-1.545-1.385-3.127-2.803-4.75-4.509c-3.164-3.327-5.123-8.182-7.017-12.877c-3.175-7.869-6.774-16.787-16.716-20.462
			c-6.72-2.484-12.803-3.389-18.17-4.187c-11.203-1.666-17.965-2.671-24.07-15.526L25.001,18.555L25.001,18.555z"/>
	</g>
</g>
<g>
	<circle cx="694.557" cy="406.529" r="5.167"/>
	<path fill="#F28633" d="M694.557,399.862c-0.637,0-1.501,0.183-2.084,0.352c0.578,1.023,1.001,1.729,1.592,2.703
		c0.163-0.023,0.323-0.054,0.492-0.054c2.022,0,3.667,1.645,3.667,3.666c0,2.022-1.645,3.667-3.667,3.667
		c-2.021,0-3.666-1.645-3.666-3.667c0-0.937,0.16-1.58,0.74-2.229c-0.699-0.903-1.236-1.717-1.727-2.521
		c-1.335,1.22-2.013,2.803-2.013,4.75c0,3.676,2.99,6.667,6.666,6.667s6.667-2.991,6.667-6.667
		C701.224,402.853,698.232,399.862,694.557,399.862z"/>
</g>
<g>
	<circle cx="21.085" cy="20.255" r="4.917"/>
	<path fill="#F28633" d="M27.502,20.255c0-3.538-2.878-6.417-6.417-6.417s-6.417,2.878-6.417,6.417s2.878,6.417,6.417,6.417
		c0.46,0,0.743-0.018,1.176-0.111c-0.506-1.163-0.934-1.567-1.46-2.892c-1.871-0.016-3.133-1.539-3.133-3.414
		c0-1.884,1.533-3.417,3.417-3.417s3.417,1.533,3.417,3.417c0,1.025-0.238,1.808-0.955,2.435c0.382,0.649,0.833,1.793,1.45,2.624
		C26.693,24.159,27.502,22.458,27.502,20.255z"/>
</g>
<g>
	<path d="M29.219,30.999c-0.739-0.493-1.467-0.992-1.467-1.977C27.752,30.007,28.48,30.506,29.219,30.999
		c1.781-2.048,2.867-4.717,2.867-7.644c0-6.443-5.223-11.667-11.667-11.667S8.752,16.911,8.752,23.355
		c0,6.443,5.223,11.667,11.667,11.667c2.262,0,4.366-0.653,6.152-1.77c-0.446-0.65-0.939-1.23-1.818-1.23
		c0.88,0,1.372,0.58,1.818,1.23C27.56,32.633,28.456,31.876,29.219,30.999z"/>
	<path fill="#F28633" d="M20.419,10.188c-7.26,0-13.167,5.907-13.167,13.167s5.906,13.167,13.167,13.167
		c2.595,0,5.55-0.873,7.588-2.177c-0.705-0.709-1.583-1.73-2.292-2.439c-1.485,0.854-3.463,1.616-5.296,1.616
		c-5.606,0-10.167-4.561-10.167-10.167s4.561-10.167,10.167-10.167s10.167,4.561,10.167,10.167c0,2.552-1.15,4.973-2.708,6.76
		c0.669,0.669,1.658,1.397,2.254,2.153c1.996-2.309,3.455-5.629,3.455-8.913C33.586,16.095,27.679,10.188,20.419,10.188z"/>
</g>
<g>
	<path d="M695.224,394.355c-1.807,0-3.511,0.422-5.035,1.159c0.081,0.534,0.158,1.103,0.563,1.508
		c-0.405-0.405-0.482-0.974-0.563-1.508c-1.043,0.504-2.005,1.15-2.849,1.926c0.379,0.778,0.894,1.546,1.412,2.582
		c-0.518-1.036-1.033-1.805-1.412-2.582c-2.32,2.132-3.783,5.183-3.783,8.582c0,6.443,5.223,11.667,11.667,11.667
		c6.443,0,11.667-5.223,11.667-11.667C706.891,399.578,701.667,394.355,695.224,394.355z"/>
	<path fill="#F28633" d="M695.224,392.854c-2.05,0-4.087,0.575-5.819,1.415c0.479,0.924,0.815,1.565,1.278,2.67
		c1.368-0.688,2.907-1.084,4.541-1.084c5.606,0,10.167,4.561,10.167,10.167s-4.561,10.167-10.167,10.167
		s-10.167-4.561-10.167-10.167c0-2.825,1.365-5.588,3.232-7.432c-0.398-1.017-0.929-1.723-1.46-2.702
		c-2.913,2.417-4.771,6.062-4.771,10.134c0,7.26,5.906,13.167,13.167,13.167s13.167-5.906,13.167-13.167
		S702.484,392.854,695.224,392.854z"/>
</g>
</svg>
