<?xml version="1.0" encoding="utf-8"?>
<!-- Generator: Adobe Illustrator 17.0.0, SVG Export Plug-In . SVG Version: 6.00 Build 0)  -->
<!DOCTYPE svg PUBLIC "-//W3C//DTD SVG 1.1//EN" "http://www.w3.org/Graphics/SVG/1.1/DTD/svg11.dtd">
<svg version="1.1" id="Слой_1" xmlns="http://www.w3.org/2000/svg" xmlns:xlink="http://www.w3.org/1999/xlink" x="0px" y="0px"
	 width="694px" height="754px" viewBox="0 0 694 754" enable-background="new 0 0 694 754" xml:space="preserve">
<g>
	<g>
		<path d="M9.872,733.415l2.19-1.021c10.56-4.932,18.901-8.827,31.443-9.858c1.747-0.143,3.593-0.215,5.487-0.215
			c6.448,0,12.809,0.813,18.96,1.601c6.069,0.776,12.346,1.579,18.536,1.579c1.706,0,3.45,0.083,5.296,0.171
			c1.829,0.086,3.719,0.176,5.522,0.176c3.378,0,5.852-0.324,7.786-1.021c5.963-2.149,10.217-3.02,16.257-3.322
			c2.319-0.116,4.89-0.173,7.86-0.173c2.521,0,5.04,0.039,7.518,0.078l0.101,0.001c2.5,0.04,5.033,0.081,7.572,0.081
			c4.893,0,8.804-0.16,12.309-0.503c3.345-0.327,6.957-0.486,11.043-0.486c3.691,0,7.344,0.127,10.877,0.249
			c4.548,0.156,8.026,0.233,11.275,0.249c5.5-0.014,5.955-0.316,10.305-3.214l0.238-0.158c4.807-3.201,9.539-3.205,13.714-3.209
			l0.976,0.002c2.06,0,4.253-0.044,6.446-0.57c3.199-0.766,4.964-3.017,7.406-6.133l0.289-0.367
			c1.831-2.335,3.908-4.982,6.876-6.466c1.33-0.665,2.703-1.124,4.03-1.568c1.505-0.503,2.916-0.976,4.055-1.674
			c1.458-0.895,3.056-2.567,3.885-4.068c0.728-1.319,0.945-3.067,1.175-4.918c0.291-2.337,0.62-4.983,2.107-7.285
			c1.508-2.333,3.88-3.66,5.786-4.728c0.432-0.241,0.849-0.475,1.245-0.713c3.646-2.206,5.803-4.806,8.452-8.238
			c2.693-3.491,7.707-9.989,13.51-11.305c1.652-0.374,3.277-0.488,4.849-0.598c2.025-0.142,3.92-0.274,5.482-0.944
			c1.175-0.504,2.123-1.56,3.221-2.782c0.922-1.027,1.872-2.085,3.114-3.025c2.06-1.558,4.306-2.768,6.479-3.938
			c3.456-1.861,6.721-3.618,8.759-6.516c2.165-3.077,2.157-6.599,2.148-10.677c-0.006-3.326-0.013-6.757,1.197-10.219
			c0.513-1.468,1.256-2.632,1.911-3.659c0.712-1.117,1.325-2.078,1.536-3.261c0.483-2.709,0.188-5.745-0.125-8.087
			c-0.328-2.469-1.414-4.796-2.564-7.26c-1.345-2.881-2.734-5.857-3.084-9.369c-0.089-0.878-0.112-1.781-0.133-2.579
			c-0.056-2.028-0.107-3.946-0.984-5.003c-0.384-0.464-0.892-0.861-1.479-1.32c-1.058-0.827-2.375-1.857-3.356-3.633
			c-2.854-5.161-1.884-10.588-0.721-14.738c1.025-3.66,1.192-7.474,1.354-11.161c0.179-4.042-0.136-8.071-0.934-11.975
			c-2.299-11.261,2.739-21.872,6.728-28.874c0.729-1.278,1.515-2.415,2.275-3.514c1.486-2.146,2.753-3.975,3.268-6.286
			c0.624-2.818,0.544-5.958,0.466-8.995l-0.003-0.123c-0.025-1.037-0.051-2.07-0.051-3.097c0-2.365,0.063-4.738,0.124-7.033
			l0.005-0.159c0.064-2.401,0.131-4.885,0.121-7.301c-0.02-5.392,2.949-8.23,5.568-10.735c0.729-0.696,1.483-1.415,2.171-2.191
			c1.338-1.507,2.778-2.974,4.172-4.393c2.393-2.438,4.851-4.942,6.69-7.535c1.272-1.792,2.435-3.552,2.682-5.373
			c0.086-0.634,0.067-1.366,0.047-2.143c-0.036-1.461-0.078-3.111,0.511-4.853c0.899-2.67,2.6-4.207,4.1-5.564
			c0.431-0.39,0.818-0.739,1.197-1.121c1.479-1.485,2.062-2.696,2.394-4.98c0.97-6.662-0.047-12.903-1.478-20.371
			c-0.438-2.288-0.469-4.465-0.499-6.569c-0.011-0.782-0.021-1.545-0.053-2.311c-0.123-3.017,0.447-5.546,0.998-7.992
			c0.29-1.282,0.588-2.6,0.776-3.984c0.997-7.333,0.134-15.73-0.755-23.027c-0.217-1.783-0.428-2.511-1.41-3.902
			c-2.172-3.079-2.718-5.93-2.87-9.262c-0.088-1.877,0.093-3.617,0.268-5.3c0.154-1.493,0.301-2.9,0.243-4.274
			c-0.041-0.997-0.286-2.016-0.545-3.096c-0.245-1.016-0.498-2.067-0.632-3.248c-0.795-7.009-0.165-13.051,1.871-17.958
			c0.512-1.23,0.955-2.671,1.424-4.198c1.26-4.1,2.688-8.748,6.2-11.697c2.61-2.193,5.88-2.858,8.765-3.445
			c0.584-0.119,1.159-0.236,1.719-0.364c1.5-0.345,2.945-1.228,4.476-2.162c1.638-1,3.319-2.027,5.358-2.644
			c3.602-1.089,7.286-1.218,10.85-1.343c1.479-0.051,2.875-0.1,4.256-0.216c1.292-0.109,2.581-0.165,3.831-0.165
			c5.499,0,10.875,1.026,17.431,3.328c2.568,0.903,4.945,2.17,7.243,3.395c2.79,1.488,5.419,2.891,8.205,3.581
			c1.088,0.271,2.181,0.402,3.341,0.402c3.279,0,6.542-1.075,9.997-2.212c1.938-0.637,3.917-1.289,5.966-1.771
			c1.026-0.242,2.197-0.36,3.577-0.36c1.359,0,2.749,0.112,4.093,0.22c1.29,0.104,2.595,0.209,3.777,0.209
			c1.911,0,3.199-0.285,3.939-0.872c0.919-0.727,1.632-1.68,2.457-2.782c1.232-1.647,2.763-3.691,5.343-5.142
			c4.491-2.524,10.899-3.972,17.584-3.972c2.081,0,4.075,0.139,5.925,0.413c1.12,0.166,2.152,0.362,3.14,0.55
			c1.773,0.338,3.301,0.629,4.873,0.629c0.953,0,1.893-0.107,2.872-0.327c3.828-0.86,6.352-2.882,9.548-5.442
			c0.996-0.797,2.001-1.602,3.099-2.415c0.738-0.547,1.469-1.189,2.241-1.87c1.178-1.037,2.367-2.083,3.784-3.004
			c2.998-1.947,6.183-2.857,9.262-3.738c2.741-0.783,5.328-1.522,7.548-2.939c2.564-1.637,3.913-3.919,5.475-6.561
			c1.176-1.989,2.39-4.043,4.214-5.987c3.494-3.726,8.325-4.858,12.588-5.857c1.015-0.238,1.956-0.458,2.858-0.707
			c4.467-1.231,9.174-2.641,13.312-5.112c2.22-1.326,4.545-2.384,6.792-3.407c2.797-1.272,5.425-2.468,7.747-4.088
			c8.754-6.106,14.286-12.065,18.499-19.927c1.054-1.964,2.035-4.081,2.984-6.127c1.147-2.473,2.311-4.979,3.653-7.389
			c0.409-0.734,0.779-1.516,1.172-2.344c0.635-1.338,1.282-2.704,2.163-4.032c1.222-1.844,2.676-2.955,3.958-3.936
			c0.512-0.391,1.04-0.795,1.53-1.231c3.794-3.376,6.591-8.758,9.06-13.507l1.146-2.191c1.429-2.706,2.659-5.038,3.135-7.837
			c0.193-1.145,0.303-2.334,0.417-3.593c0.133-1.434,0.267-2.898,0.532-4.375c0.949-5.271,2.512-10.379,3.655-13.736
			c1.542-4.527,4.791-7.708,7.933-10.783c1.238-1.211,2.406-2.355,3.423-3.54c3.713-4.326,6.051-9.625,6.764-15.325
			c0.493-3.948,1.089-7.942,1.664-11.804c1.169-7.846,2.379-15.959,2.762-23.931c0.221-4.614,1.111-9.096,2.004-13.291
			c0.456-2.149,1.232-4.102,1.983-5.99c0.737-1.856,1.431-3.6,1.746-5.335c0.517-2.857,0.767-5.873,0.763-9.218
			c-0.004-3.019-0.003-5.999-0.001-8.995l0.001-4.528c0-0.509,0.026-1.091,0.057-1.702c0.038-0.805,0.128-2.676-0.064-3.16
			l-0.54-1.357l1.328-0.611l4.136-1.774l0.592,1.378c0.739,1.725,0.634,3.896,0.541,5.812c-0.026,0.56-0.049,1.013-0.049,1.414
			l-0.001,4.531c-0.002,2.993-0.003,5.969,0.001,8.984c0.004,3.713-0.277,7.081-0.86,10.296c-0.421,2.327-1.26,4.436-2.071,6.475
			c-0.688,1.733-1.34,3.37-1.693,5.029c-0.841,3.955-1.678,8.164-1.879,12.33c-0.396,8.265-1.629,16.532-2.82,24.528
			c-0.571,3.839-1.16,7.792-1.645,11.664c-0.858,6.873-3.682,13.266-8.162,18.487c-1.188,1.383-2.505,2.673-3.778,3.92
			c-2.763,2.704-5.371,5.257-6.452,8.431c-1.077,3.161-2.546,7.958-3.429,12.863c-0.221,1.223-0.344,2.558-0.463,3.85
			c-0.115,1.264-0.245,2.685-0.479,4.058c-0.635,3.749-2.144,6.606-3.741,9.631l-1.131,2.162
			c-2.707,5.208-5.774,11.111-10.394,15.221c-0.65,0.578-1.266,1.049-1.86,1.505c-1.095,0.837-1.949,1.49-2.616,2.496
			c-0.647,0.977-1.178,2.098-1.74,3.285c-0.428,0.903-0.854,1.802-1.353,2.696c-1.238,2.221-2.356,4.631-3.438,6.962
			c-0.988,2.132-2.008,4.329-3.153,6.468c-4.689,8.749-10.776,15.332-20.354,22.014c-2.769,1.931-5.771,3.297-8.673,4.618
			c-2.113,0.962-4.287,1.951-6.224,3.107c-4.781,2.856-10.143,4.463-14.794,5.746c-0.994,0.274-2.031,0.518-3.085,0.765
			c-3.602,0.844-7.325,1.717-9.581,4.121c-1.374,1.465-2.368,3.148-3.421,4.931c-1.707,2.888-3.641,6.161-7.416,8.57
			c-2.958,1.887-6.093,2.783-9.124,3.649c-2.776,0.793-5.398,1.542-7.643,3c-1.051,0.683-2.027,1.542-3.062,2.452
			c-0.854,0.751-1.717,1.512-2.663,2.213c-1.013,0.75-1.979,1.523-2.911,2.271c-3.508,2.809-6.812,5.456-11.991,6.618
			c-1.409,0.317-2.777,0.471-4.182,0.471c-2.161,0-4.114-0.373-6.002-0.733c-0.92-0.176-1.866-0.356-2.895-0.509
			c-1.572-0.233-3.343-0.355-5.12-0.355c-5.63,0-10.939,1.169-14.568,3.209c-1.476,0.829-2.402,2.068-3.477,3.502
			c-0.941,1.257-2.008,2.681-3.538,3.895c-2.458,1.947-5.532,2.172-7.631,2.172c-1.423,0-2.871-0.117-4.271-0.23
			c-1.302-0.105-2.532-0.204-3.643-0.204c-0.897,0-1.615,0.066-2.194,0.202c-1.793,0.422-3.647,1.033-5.44,1.623
			c-3.771,1.242-7.651,2.52-11.904,2.52c-1.648,0-3.211-0.188-4.777-0.576c-3.511-0.871-6.596-2.517-9.578-4.108
			c-2.196-1.171-4.271-2.278-6.414-3.03c-5.884-2.066-10.657-2.988-15.477-2.988c-1.074,0-2.183,0.048-3.294,0.141
			c-1.511,0.127-3.041,0.181-4.522,0.233c-3.205,0.112-6.491,0.227-9.35,1.091c-1.311,0.396-2.6,1.184-3.964,2.018
			c-1.786,1.091-3.81,2.328-6.263,2.892c-0.606,0.14-1.232,0.267-1.864,0.396c-2.292,0.466-4.661,0.948-6.104,2.16
			c-2.157,1.812-3.259,5.398-4.325,8.866c-0.513,1.668-0.996,3.245-1.617,4.737c-1.641,3.953-2.129,8.994-1.451,14.981
			c0.093,0.814,0.292,1.643,0.503,2.52c0.302,1.249,0.643,2.664,0.709,4.252c0.074,1.821-0.109,3.584-0.271,5.141
			c-0.159,1.534-0.308,2.979-0.243,4.407c0.116,2.52,0.423,4.152,1.78,6.078c1.691,2.395,2.157,4.114,2.465,6.636
			c0.933,7.671,1.836,16.527,0.743,24.561c-0.223,1.637-0.55,3.087-0.867,4.489c-0.487,2.161-0.948,4.202-0.856,6.433
			c0.032,0.792,0.044,1.58,0.055,2.367c0.029,2.028,0.055,3.855,0.396,5.63c1.537,8.029,2.626,14.774,1.521,22.363
			c-0.516,3.538-1.697,5.958-4.078,8.351c-0.474,0.477-0.954,0.912-1.426,1.338c-1.229,1.111-2.039,1.845-2.44,3.033
			c-0.248,0.736-0.223,1.729-0.195,2.782c0.023,0.933,0.05,1.989-0.101,3.102c-0.431,3.169-2.08,5.708-3.732,8.038
			c-2.125,2.992-4.758,5.673-7.304,8.266c-1.435,1.462-2.751,2.804-3.965,4.172c-0.848,0.955-1.693,1.764-2.513,2.546
			c-2.243,2.145-3.726,3.562-3.715,6.375c0.01,2.542-0.059,5.092-0.126,7.558c-0.061,2.28-0.124,4.637-0.124,6.959
			c0,1.013,0.026,2.034,0.052,3.059c0.088,3.405,0.178,6.919-0.606,10.457c-0.768,3.452-2.572,6.061-4.165,8.362
			c-0.699,1.009-1.413,2.039-2.021,3.105c-5.578,9.792-7.505,17.642-6.063,24.704c0.896,4.386,1.249,8.907,1.05,13.438
			c-0.176,4.024-0.357,8.188-1.571,12.519c-0.854,3.047-1.604,6.962,0.194,10.216c0.388,0.701,0.98,1.166,1.801,1.808
			c0.717,0.562,1.604,1.257,2.401,2.216c2.2,2.651,2.291,5.989,2.364,8.671c0.021,0.771,0.041,1.498,0.105,2.146
			c0.249,2.493,1.364,4.884,2.545,7.415c1.297,2.776,2.632,5.634,3.083,9.018c0.368,2.775,0.711,6.412,0.082,9.935
			c-0.421,2.356-1.509,4.062-2.384,5.433c-0.525,0.823-1.021,1.6-1.306,2.412c-0.872,2.496-0.867,5.278-0.861,8.224
			c0.009,4.461,0.019,9.51-3.242,14.146c-2.851,4.053-6.9,6.234-10.817,8.344c-2.07,1.115-4.018,2.163-5.705,3.441
			c-0.786,0.595-1.506,1.396-2.269,2.246c-1.373,1.53-2.929,3.264-5.321,4.291c-2.502,1.072-5.113,1.254-7.417,1.413
			c-1.428,0.101-2.754,0.194-3.954,0.466c-3.695,0.837-8.173,6.64-10.085,9.117c-2.951,3.825-5.568,6.968-10.099,9.708
			c-0.451,0.273-0.928,0.541-1.415,0.812c-1.465,0.82-2.98,1.668-3.681,2.752c-0.743,1.148-0.961,2.906-1.192,4.767
			c-0.277,2.227-0.591,4.747-1.876,7.078c-1.321,2.392-3.677,4.858-6.002,6.284c-1.728,1.059-3.537,1.664-5.288,2.249
			c-1.182,0.396-2.299,0.769-3.252,1.245c-1.761,0.88-3.396,2.964-4.837,4.802l-0.288,0.366c-2.702,3.447-5.496,7.013-10.729,8.267
			c-2.829,0.678-5.512,0.734-7.806,0.734l-1.395-0.002c-4.047,0-6.93,0.153-10.007,2.202l-0.237,0.157
			c-5.002,3.333-6.601,4.205-13.629,4.222h-0.177c-3.958,0-7.863-0.135-11.309-0.253c-3.732-0.129-7.212-0.248-10.727-0.248
			c-3.883,0-7.188,0.146-10.402,0.462c-3.704,0.361-7.801,0.529-12.895,0.529c-2.552,0-5.094-0.04-7.604-0.079
			c-2.533-0.042-5.046-0.081-7.553-0.081c-2.876,0-5.359,0.054-7.589,0.166c-5.449,0.273-9.114,1.024-14.524,2.975
			c-2.608,0.94-5.722,1.378-9.799,1.378c-1.943,0-3.917-0.094-5.826-0.185c-1.685-0.08-3.427-0.164-5.013-0.164
			c-6.566,0-13.033-0.827-19.288-1.626c-6.271-0.803-12.187-1.56-18.129-1.56c-1.77,0-3.43,0.065-5.074,0.201
			c-11.465,0.941-19.377,4.636-29.393,9.312l-2.195,1.025L9.872,733.415z"/>
		<path fill="#F28633" d="M675.629,18.409c0.603,1.405,0.507,3.394,0.422,5.148c-0.025,0.534-0.051,1.042-0.051,1.486l-0.001,4.53
			c-0.002,2.993-0.003,5.97,0.001,8.986c0.004,3.622-0.27,6.901-0.836,10.027c-0.395,2.18-1.205,4.217-1.989,6.188
			c-0.714,1.795-1.388,3.491-1.767,5.271c-0.854,4.015-1.704,8.293-1.91,12.57c-0.393,8.186-1.619,16.418-2.806,24.379
			c-0.571,3.837-1.162,7.804-1.649,11.699c-0.822,6.579-3.523,12.699-7.812,17.697c-1.143,1.331-2.438,2.599-3.69,3.825
			c-2.893,2.833-5.626,5.507-6.822,9.019c-1.093,3.208-2.585,8.081-3.485,13.081c-0.232,1.289-0.358,2.662-0.481,3.989
			c-0.118,1.292-0.241,2.628-0.463,3.934c-0.595,3.512-2.049,6.266-3.589,9.182l-1.134,2.167
			c-2.648,5.094-5.648,10.868-10.062,14.796c-0.613,0.545-1.211,1.002-1.788,1.444c-1.146,0.876-2.136,1.633-2.941,2.848
			c-0.706,1.065-1.26,2.234-1.846,3.472c-0.407,0.858-0.827,1.746-1.308,2.608c-1.267,2.271-2.398,4.71-3.491,7.068
			c-0.979,2.112-1.993,4.296-3.111,6.383c-4.57,8.527-10.52,14.955-19.891,21.492c-2.658,1.854-5.6,3.192-8.443,4.487
			c-2.141,0.974-4.354,1.982-6.363,3.181c-4.621,2.76-9.868,4.331-14.424,5.588c-0.976,0.268-1.994,0.508-3.028,0.75
			c-3.819,0.895-7.768,1.82-10.333,4.555c-1.483,1.582-2.521,3.336-3.619,5.195c-1.7,2.877-3.458,5.852-6.931,8.068
			c-2.773,1.769-5.801,2.635-8.729,3.472c-2.889,0.825-5.616,1.605-8.048,3.185c-1.146,0.745-2.166,1.643-3.246,2.594
			c-0.815,0.717-1.656,1.459-2.554,2.124c-1.038,0.769-2.017,1.553-2.963,2.311c-3.36,2.691-6.534,5.234-11.375,6.32
			c-1.392,0.313-2.658,0.435-3.854,0.435c-2.02,0-3.838-0.347-5.721-0.707c-0.929-0.177-1.9-0.363-2.955-0.519
			c-1.619-0.24-3.436-0.372-5.34-0.372c-5.164,0-10.978,0.971-15.303,3.402c-1.751,0.984-2.815,2.406-3.942,3.912
			c-0.93,1.242-1.892,2.526-3.268,3.617c-1.852,1.467-4.205,1.848-6.699,1.848c-1.361,0-2.764-0.113-4.151-0.226
			c-1.318-0.106-2.595-0.209-3.764-0.209c-0.924,0-1.781,0.064-2.537,0.242c-1.864,0.44-3.756,1.062-5.586,1.665
			c-3.657,1.204-7.405,2.438-11.416,2.438c-1.436,0-2.906-0.158-4.417-0.533c-3.326-0.825-6.329-2.426-9.232-3.975
			c-2.25-1.2-4.376-2.333-6.623-3.122c-5.987-2.102-10.952-3.072-15.973-3.072c-1.133,0-2.269,0.049-3.421,0.146
			c-1.482,0.125-3.004,0.178-4.475,0.229c-3.275,0.114-6.663,0.233-9.706,1.153c-1.491,0.451-2.861,1.288-4.312,2.174
			c-1.771,1.082-3.602,2.2-5.816,2.71c-0.595,0.137-1.208,0.262-1.827,0.388c-2.475,0.503-5.034,1.024-6.77,2.481
			c-2.495,2.096-3.664,5.898-4.794,9.574c-0.502,1.634-0.977,3.178-1.568,4.602c-1.74,4.192-2.264,9.483-1.557,15.726
			c0.103,0.903,0.312,1.777,0.535,2.702c0.3,1.243,0.608,2.529,0.668,3.963c0.069,1.7-0.1,3.339-0.265,4.923
			c-0.164,1.588-0.319,3.088-0.249,4.63c0.126,2.749,0.491,4.659,2.053,6.874c1.517,2.148,1.918,3.631,2.201,5.953
			c0.921,7.575,1.815,16.314,0.746,24.177c-0.213,1.565-0.533,2.986-0.844,4.361c-0.511,2.263-0.992,4.399-0.893,6.824
			c0.033,0.808,0.044,1.611,0.056,2.414c0.028,2.004,0.055,3.897,0.42,5.804c1.511,7.889,2.581,14.508,1.51,21.865
			c-0.471,3.232-1.496,5.337-3.657,7.509c-0.454,0.456-0.915,0.874-1.367,1.282c-1.302,1.178-2.33,2.107-2.857,3.667
			c-0.333,0.987-0.305,2.11-0.274,3.3c0.023,0.921,0.047,1.874-0.087,2.862c-0.385,2.83-1.925,5.193-3.47,7.371
			c-2.052,2.89-4.644,5.53-7.15,8.083c-1.422,1.449-2.766,2.817-4.017,4.228c-0.805,0.906-1.629,1.694-2.427,2.457
			c-2.342,2.238-4.191,4.007-4.179,7.465c0.01,2.511-0.059,5.053-0.125,7.512c-0.061,2.293-0.125,4.664-0.125,6.999
			c0,1.028,0.026,2.065,0.053,3.105c0.085,3.309,0.172,6.73-0.572,10.085c-0.704,3.17-2.351,5.546-3.941,7.845
			c-0.712,1.027-1.447,2.09-2.083,3.206c-5.769,10.126-7.748,18.307-6.229,25.746c0.871,4.265,1.215,8.663,1.02,13.072
			c-0.172,3.942-0.351,8.02-1.517,12.18c-0.932,3.323-1.736,7.616,0.326,11.347c0.536,0.97,1.304,1.57,2.191,2.266
			c0.692,0.542,1.477,1.156,2.169,1.99c1.87,2.253,1.949,5.177,2.02,7.757c0.021,0.798,0.042,1.552,0.111,2.251
			c0.275,2.752,1.446,5.259,2.685,7.914c1.244,2.663,2.529,5.418,2.949,8.568c0.354,2.667,0.686,6.152,0.093,9.473
			c-0.368,2.062-1.326,3.564-2.172,4.89c-0.575,0.9-1.117,1.751-1.457,2.724c-0.957,2.739-0.951,5.648-0.945,8.726
			c0.009,4.439,0.019,9.028-2.969,13.275c-2.647,3.765-6.54,5.86-10.305,7.888c-2.116,1.14-4.115,2.216-5.897,3.564
			c-0.899,0.681-1.667,1.535-2.479,2.44c-1.332,1.484-2.71,3.019-4.796,3.914c-2.264,0.971-4.636,1.137-6.93,1.296
			c-1.472,0.104-2.862,0.2-4.181,0.499c-4.222,0.956-8.761,6.838-10.942,9.664c-2.854,3.699-5.379,6.735-9.687,9.341
			c-0.437,0.265-0.899,0.523-1.371,0.787c-1.625,0.909-3.306,1.85-4.208,3.246c-0.929,1.436-1.168,3.36-1.421,5.396
			c-0.273,2.193-0.555,4.46-1.701,6.538c-1.204,2.181-3.352,4.43-5.473,5.729c-1.58,0.969-3.308,1.547-4.98,2.106
			c-1.234,0.413-2.401,0.804-3.447,1.326c-2.063,1.031-3.808,3.256-5.348,5.219l-0.286,0.364c-2.661,3.395-5.174,6.603-9.899,7.734
			c-2.619,0.628-5.075,0.694-7.454,0.694c-0.3,0-0.599-0.001-0.897-0.002c-0.165,0-0.33,0-0.493,0c-3.887,0-7.279,0.08-10.844,2.453
			l-0.237,0.158c-4.897,3.263-6.165,3.954-12.8,3.97c-0.058,0-0.115,0-0.173,0c-3.811,0-7.595-0.126-11.258-0.252
			c-3.662-0.126-7.222-0.249-10.779-0.249c-3.488,0-6.973,0.119-10.548,0.469c-4.214,0.411-8.496,0.523-12.749,0.523
			c-2.565,0-5.119-0.041-7.641-0.08c-2.479-0.041-5-0.081-7.516-0.081c-2.576,0-5.147,0.042-7.664,0.168
			c-5.616,0.282-9.39,1.055-14.957,3.061c-2.822,1.017-6.012,1.289-9.291,1.289c-1.906,0-3.842-0.092-5.754-0.183
			C89.781,730.08,88.088,730,86.488,730c-6.474,0-12.896-0.821-19.106-1.615c-6.272-0.802-12.276-1.57-18.31-1.57
			c-1.728,0-3.458,0.063-5.198,0.206c-11.735,0.964-19.754,4.709-29.908,9.45l-0.832,0.389l-1.269-2.719l0.831-0.388
			c10.426-4.869,18.661-8.714,30.932-9.723c1.789-0.146,3.578-0.21,5.364-0.21c6.334,0,12.633,0.804,18.77,1.589
			C73.88,726.191,80.206,727,86.488,727c1.671,0,3.398,0.082,5.227,0.169c1.864,0.088,3.753,0.178,5.592,0.178
			c3.003,0,5.875-0.238,8.293-1.109c5.808-2.094,9.949-2.94,15.824-3.235c2.568-0.129,5.178-0.171,7.785-0.171
			c2.547,0,5.091,0.04,7.594,0.079c2.508,0.04,5.049,0.081,7.595,0.081c4.175,0,8.364-0.109,12.455-0.51
			c3.672-0.359,7.308-0.479,10.897-0.479c3.662,0,7.274,0.125,10.826,0.248c3.692,0.127,7.512,0.231,11.32,0.25
			c5.963-0.015,6.653-0.475,11.145-3.466l0.237-0.158c4.474-2.979,8.816-2.953,13.009-2.957c0.283,0.001,0.566,0.002,0.851,0.002
			c2.214,0,4.488-0.058,6.793-0.611c3.708-0.888,5.707-3.438,8.237-6.667l0.287-0.365c1.735-2.212,3.702-4.719,6.368-6.051
			c1.235-0.617,2.557-1.06,3.836-1.487c1.581-0.529,3.075-1.028,4.363-1.818c1.684-1.032,3.458-2.89,4.414-4.621
			c0.867-1.572,1.102-3.46,1.351-5.459c0.284-2.282,0.577-4.642,1.878-6.655c1.307-2.021,3.409-3.197,5.263-4.235
			c0.441-0.246,0.874-0.488,1.283-0.735c3.871-2.342,6.116-5.045,8.865-8.606c2.579-3.343,7.379-9.563,12.654-10.758
			c1.544-0.35,3.115-0.459,4.635-0.565c2.139-0.149,4.159-0.29,5.956-1.062c1.479-0.634,2.581-1.861,3.747-3.16
			c0.872-0.971,1.772-1.975,2.901-2.829c1.966-1.487,4.161-2.67,6.284-3.813c3.617-1.947,7.033-3.787,9.274-6.973
			c2.439-3.467,2.431-7.39,2.422-11.543c-0.006-3.194-0.013-6.498,1.113-9.722c0.455-1.301,1.118-2.341,1.76-3.347
			c0.763-1.196,1.484-2.327,1.748-3.804c0.52-2.912,0.212-6.099-0.114-8.549c-0.358-2.695-1.492-5.125-2.692-7.696
			c-1.291-2.766-2.626-5.625-2.951-8.884c-0.081-0.808-0.104-1.652-0.126-2.469c-0.062-2.297-0.122-4.467-1.329-5.922
			c-0.486-0.587-1.08-1.052-1.709-1.544c-1.002-0.783-2.137-1.672-2.968-3.177c-2.591-4.685-1.676-9.733-0.59-13.608
			c1.072-3.826,1.243-7.728,1.408-11.5c0.184-4.165-0.141-8.317-0.963-12.341c-2.197-10.765,2.692-21.039,6.561-27.831
			c0.701-1.232,1.476-2.349,2.224-3.43c1.493-2.155,2.902-4.191,3.479-6.787c0.664-2.995,0.582-6.229,0.502-9.358
			c-0.026-1.065-0.054-2.128-0.054-3.182c0-2.375,0.065-4.767,0.126-7.079c0.065-2.436,0.134-4.956,0.124-7.42
			c-0.018-4.747,2.587-7.237,5.105-9.646c0.754-0.72,1.533-1.465,2.256-2.279c1.302-1.467,2.734-2.927,4.12-4.338
			c2.424-2.47,4.931-5.023,6.844-7.718c1.385-1.951,2.651-3.881,2.944-6.039c0.102-0.749,0.082-1.543,0.061-2.383
			c-0.035-1.397-0.072-2.843,0.432-4.334c0.775-2.301,2.255-3.639,3.687-4.934c0.413-0.374,0.837-0.756,1.253-1.174
			c1.7-1.708,2.438-3.233,2.814-5.823c1.004-6.895-0.031-13.262-1.488-20.869c-0.414-2.165-0.443-4.281-0.473-6.326
			c-0.011-0.775-0.022-1.553-0.054-2.333c-0.115-2.821,0.434-5.254,0.964-7.607c0.297-1.312,0.603-2.669,0.798-4.105
			c1.021-7.509,0.147-16.021-0.752-23.41c-0.24-1.975-0.529-2.965-1.674-4.586c-1.969-2.792-2.453-5.309-2.598-8.466
			c-0.082-1.766,0.093-3.449,0.262-5.077c0.16-1.546,0.311-3.007,0.25-4.491c-0.047-1.141-0.309-2.231-0.586-3.384
			c-0.234-0.973-0.477-1.979-0.6-3.066c-0.766-6.755-0.171-12.546,1.767-17.214c0.537-1.292,0.991-2.769,1.472-4.333
			c1.199-3.902,2.559-8.324,5.732-10.989c2.319-1.949,5.392-2.573,8.102-3.125c0.594-0.121,1.182-0.24,1.753-0.372
			c1.739-0.4,3.286-1.345,4.924-2.346c1.549-0.946,3.149-1.924,5.008-2.486c3.416-1.033,7.002-1.158,10.47-1.28
			c1.501-0.052,2.919-0.102,4.327-0.22c1.249-0.105,2.48-0.159,3.706-0.159c5.358,0,10.618,1.026,16.934,3.243
			c2.463,0.865,4.79,2.107,7.041,3.307c2.868,1.53,5.577,2.975,8.543,3.71c1.256,0.312,2.486,0.446,3.703,0.446
			c3.521,0,6.923-1.121,10.47-2.289c1.891-0.622,3.845-1.266,5.836-1.735c1.007-0.237,2.102-0.32,3.233-0.32
			c1.307,0,2.665,0.11,3.997,0.217c1.305,0.105,2.629,0.212,3.873,0.212c1.943,0,3.691-0.261,4.871-1.196
			c1.072-0.849,1.877-1.925,2.729-3.064c1.205-1.61,2.571-3.434,4.874-4.729c4.803-2.7,11.205-3.78,16.849-3.78
			c2.038,0,3.976,0.141,5.705,0.397c1.099,0.163,2.11,0.355,3.078,0.54c1.841,0.351,3.439,0.656,5.154,0.656
			c1.003,0,2.045-0.104,3.201-0.364c4.164-0.935,6.941-3.159,10.156-5.735c0.969-0.775,1.97-1.577,3.054-2.38
			c0.795-0.588,1.553-1.256,2.356-1.964c1.113-0.98,2.264-1.994,3.594-2.858c2.81-1.825,5.885-2.704,8.858-3.554
			c2.847-0.813,5.536-1.582,7.94-3.116c2.868-1.831,4.37-4.373,5.961-7.065c1.133-1.917,2.305-3.898,4.015-5.721
			c3.185-3.396,7.781-4.473,11.836-5.423c0.996-0.233,1.977-0.462,2.916-0.722c4.565-1.259,9.383-2.703,13.683-5.271
			c2.152-1.285,4.443-2.328,6.658-3.336c2.848-1.296,5.536-2.52,7.97-4.217c8.959-6.249,14.631-12.364,18.963-20.448
			c1.078-2.01,2.072-4.155,3.034-6.228c1.117-2.408,2.272-4.897,3.592-7.266c0.433-0.776,0.813-1.58,1.217-2.432
			c0.606-1.279,1.232-2.601,2.058-3.845c1.083-1.634,2.372-2.62,3.619-3.573c0.534-0.408,1.087-0.831,1.616-1.302
			c4.001-3.56,6.866-9.074,9.395-13.939l1.142-2.184c1.485-2.814,2.769-5.245,3.284-8.282c0.202-1.193,0.314-2.415,0.433-3.707
			c0.128-1.39,0.26-2.828,0.515-4.246c0.934-5.185,2.473-10.212,3.599-13.517c1.427-4.188,4.546-7.242,7.562-10.195
			c1.263-1.236,2.455-2.403,3.512-3.635c3.904-4.55,6.364-10.122,7.113-16.115c0.491-3.93,1.085-7.915,1.659-11.769
			c1.176-7.888,2.391-16.044,2.776-24.08c0.216-4.501,1.093-8.915,1.973-13.05c0.431-2.028,1.185-3.923,1.913-5.755
			c0.763-1.918,1.483-3.73,1.825-5.614c0.533-2.945,0.791-6.049,0.787-9.488c-0.004-3.018-0.003-5.997-0.001-8.992L673,25.043
			c0-0.488,0.026-1.045,0.055-1.63c0.062-1.288,0.146-3.053-0.184-3.822L675.629,18.409 M677.204,14.469l-2.757,1.182l-2.758,1.183
			l-2.758,1.183l1.136,2.646c0.091,0.523,0.022,1.969-0.008,2.599c-0.028,0.57-0.058,1.209-0.058,1.781l-0.001,4.528
			c-0.002,2.996-0.003,5.976,0.001,8.996c0.004,3.254-0.238,6.182-0.739,8.95c-0.288,1.588-0.924,3.187-1.66,5.038
			c-0.778,1.957-1.578,3.969-2.061,6.243c-0.905,4.254-1.808,8.803-2.035,13.53c-0.379,7.896-1.583,15.972-2.747,23.781
			c-0.577,3.873-1.173,7.875-1.669,11.839c-0.676,5.406-2.893,10.432-6.413,14.534c-0.974,1.136-2.12,2.257-3.333,3.445
			c-3.115,3.05-6.646,6.506-8.304,11.372c-1.16,3.405-2.745,8.59-3.711,13.953c-0.277,1.539-0.414,3.035-0.548,4.482
			c-0.114,1.251-0.22,2.412-0.405,3.501c-0.435,2.562-1.557,4.689-2.979,7.381l-1.148,2.195c-2.414,4.644-5.143,9.896-8.731,13.088
			c-0.45,0.4-0.955,0.786-1.443,1.16c-1.309,1.001-2.937,2.246-4.298,4.299c-0.94,1.417-1.641,2.896-2.26,4.201
			c-0.392,0.828-0.751,1.586-1.134,2.273c-1.37,2.459-2.546,4.992-3.682,7.441c-0.961,2.073-1.934,4.17-2.968,6.097
			c-4.094,7.64-9.488,13.444-18.035,19.406c-2.21,1.542-4.778,2.71-7.496,3.947c-2.298,1.046-4.662,2.122-6.954,3.491
			c-3.978,2.375-8.575,3.75-12.942,4.954c-0.866,0.239-1.781,0.453-2.748,0.68l-0.055,0.013c-4.248,0.996-9.535,2.234-13.34,6.291
			c-1.937,2.065-3.25,4.287-4.409,6.247c-1.465,2.48-2.729,4.618-4.992,6.063c-2.035,1.299-4.406,1.976-7.15,2.76
			c-3.04,0.869-6.483,1.853-9.669,3.922c-1.51,0.981-2.797,2.114-3.932,3.113c-0.777,0.684-1.483,1.305-2.169,1.813
			c-1.119,0.829-2.134,1.641-3.115,2.426c-3.074,2.463-5.479,4.39-8.968,5.173c-0.871,0.196-1.703,0.291-2.544,0.291
			c-1.431,0-2.825-0.266-4.589-0.602c-0.958-0.183-2.04-0.389-3.205-0.561c-1.923-0.285-3.99-0.429-6.144-0.429
			c-4.075,0-11.873,0.541-18.319,4.165c-2.856,1.606-4.492,3.791-5.806,5.546c-0.766,1.024-1.425,1.904-2.19,2.509
			c-0.259,0.205-0.992,0.548-3.008,0.548c-1.122,0-2.396-0.103-3.628-0.202c-1.404-0.113-2.823-0.227-4.242-0.227
			c-1.498,0-2.781,0.131-3.922,0.4c-2.111,0.497-4.122,1.159-6.067,1.799c-3.362,1.107-6.514,2.145-9.551,2.145
			c-1.037,0-2.012-0.117-2.979-0.357c-2.605-0.646-5.154-2.005-7.853-3.445c-2.354-1.255-4.783-2.55-7.459-3.491
			c-6.723-2.36-12.252-3.413-17.928-3.413c-1.291,0-2.622,0.057-3.958,0.17c-1.342,0.113-2.72,0.161-4.18,0.211
			c-3.661,0.128-7.445,0.261-11.233,1.406c-2.223,0.672-4.067,1.798-5.695,2.792c-1.496,0.914-2.778,1.697-4.041,1.988
			c-0.546,0.126-1.109,0.24-1.678,0.355c-2.912,0.592-6.531,1.329-9.434,3.768c-3.851,3.234-5.414,8.319-6.669,12.405
			c-0.458,1.491-0.891,2.9-1.374,4.062c-2.136,5.146-2.801,11.438-1.978,18.704c0.144,1.273,0.42,2.42,0.664,3.431
			c0.252,1.048,0.47,1.955,0.505,2.805c0.052,1.266-0.081,2.559-0.236,4.056c-0.172,1.66-0.367,3.538-0.275,5.528
			c0.164,3.593,0.762,6.68,3.143,10.056c0.777,1.1,0.948,1.581,1.147,3.219c0.877,7.204,1.731,15.488,0.757,22.644
			c-0.179,1.319-0.47,2.605-0.751,3.848c-0.548,2.431-1.167,5.177-1.035,8.392c0.031,0.754,0.041,1.504,0.052,2.252
			c0.03,2.086,0.063,4.431,0.526,6.848c1.403,7.328,2.402,13.443,1.466,19.873c-0.285,1.961-0.727,2.889-1.972,4.139
			c-0.343,0.344-0.704,0.671-1.086,1.017l-0.054,0.049c-1.555,1.406-3.49,3.157-4.516,6.199c-0.673,1.991-0.626,3.86-0.588,5.362
			c0.019,0.72,0.036,1.394-0.034,1.909c-0.201,1.483-1.259,3.072-2.418,4.706c-1.771,2.495-4.187,4.957-6.524,7.338
			c-1.354,1.379-2.874,2.926-4.237,4.462c-0.647,0.729-1.377,1.426-2.083,2.101c-2.699,2.581-6.056,5.791-6.034,11.827
			c0.01,2.394-0.057,4.865-0.121,7.255l-0.002,0.073l-0.003,0.096c-0.061,2.301-0.125,4.681-0.125,7.063
			c0,1.047,0.026,2.103,0.051,3.124l0.003,0.132c0.076,2.949,0.153,5.995-0.432,8.635c-0.45,2.023-1.639,3.74-3.017,5.728
			c-0.798,1.154-1.604,2.318-2.365,3.654c-4.108,7.212-9.293,18.16-6.894,29.915c0.773,3.784,1.078,7.69,0.905,11.609
			c-0.158,3.603-0.321,7.328-1.3,10.823c-1.144,4.082-2.3,10.168,0.853,15.87c1.128,2.042,2.641,3.225,3.745,4.088
			c0.518,0.405,0.966,0.756,1.247,1.094c0.547,0.659,0.594,2.403,0.64,4.089c0.022,0.82,0.046,1.753,0.14,2.687
			c0.376,3.765,1.885,6.999,3.217,9.852c1.148,2.46,2.139,4.583,2.437,6.823c0.297,2.235,0.582,5.121,0.135,7.627
			c-0.159,0.89-0.672,1.695-1.322,2.715c-0.701,1.099-1.493,2.341-2.064,3.972c-1.294,3.706-1.288,7.427-1.282,10.71
			c0.008,3.83,0.015,7.131-1.876,9.819c-1.834,2.607-4.804,4.206-8.243,6.057c-2.223,1.197-4.521,2.435-6.672,4.062
			c-1.357,1.027-2.399,2.188-3.319,3.212c-0.985,1.097-1.831,2.039-2.701,2.412c-1.331,0.571-3.021,0.689-4.979,0.826
			c-1.572,0.11-3.331,0.233-5.094,0.633c-6.329,1.434-11.558,8.211-14.366,11.851c-2.629,3.407-4.609,5.795-8.042,7.872
			c-0.379,0.229-0.782,0.454-1.192,0.683c-2.057,1.152-4.609,2.581-6.32,5.226c-1.674,2.59-2.026,5.418-2.336,7.912
			c-0.221,1.78-0.412,3.315-1.001,4.382c-0.704,1.274-2.116,2.752-3.355,3.512c-0.993,0.609-2.264,1.035-3.735,1.527
			c-1.326,0.443-2.814,0.941-4.237,1.653c-3.27,1.634-5.553,4.544-7.387,6.883l-0.285,0.363c-2.555,3.26-4.007,4.988-6.577,5.603
			c-2.035,0.488-4.127,0.529-6.095,0.529l-0.84-0.002l-0.139,0c-4.387,0.004-9.36,0.008-14.544,3.46l-0.239,0.159
			c-4.262,2.839-4.429,2.95-9.488,2.962c-3.21-0.016-6.673-0.092-11.209-0.248c-3.545-0.123-7.212-0.249-10.929-0.249
			c-4.135,0-7.795,0.161-11.189,0.493c-3.455,0.338-7.32,0.496-12.163,0.496c-2.524,0-5.078-0.041-7.547-0.081l-0.102-0.002
			c-2.46-0.038-5.004-0.078-7.541-0.078c-2.994,0-5.589,0.057-7.935,0.175c-6.205,0.311-10.573,1.204-16.691,3.409
			c-1.765,0.635-4.077,0.931-7.276,0.931c-1.769,0-3.64-0.089-5.45-0.174c-1.864-0.089-3.626-0.172-5.369-0.172
			c-6.094,0-12.322-0.796-18.346-1.567c-6.198-0.793-12.607-1.613-19.15-1.613c-1.935,0-3.822,0.074-5.609,0.22
			c-12.811,1.053-21.26,4.999-31.957,9.995l-0.83,0.387l-2.719,1.268l1.269,2.719l1.269,2.719l1.269,2.72l2.719-1.271l0.832-0.389
			c9.883-4.615,17.686-8.258,28.884-9.178c1.604-0.132,3.223-0.196,4.952-0.196c5.846,0,11.716,0.751,17.929,1.546
			c6.309,0.807,12.825,1.64,19.487,1.64c1.554,0,3.276,0.083,4.941,0.163c1.929,0.091,3.921,0.186,5.898,0.186
			c4.256,0,7.531-0.466,10.308-1.467c5.319-1.917,8.743-2.619,14.091-2.888c2.205-0.111,4.663-0.165,7.514-0.165
			c2.558,0,5.166,0.043,7.467,0.08l0.058,0.001c2.489,0.039,5.063,0.08,7.632,0.08c5.144,0,9.288-0.171,13.041-0.537
			c3.165-0.31,6.424-0.455,10.257-0.455c3.489,0,6.957,0.12,10.628,0.246c3.506,0.121,7.427,0.255,11.408,0.255l0.178,0
			c7.441-0.018,9.269-1.015,14.458-4.473l0.238-0.159c2.731-1.818,5.29-1.95,9.18-1.95l0.325,0l0.167,0l0.899,0.002
			c2.378,0,5.165-0.06,8.153-0.776c5.742-1.375,8.833-5.32,11.561-8.801l0.285-0.362c1.347-1.717,2.871-3.659,4.33-4.389
			c0.859-0.429,1.927-0.786,3.057-1.164c1.744-0.583,3.722-1.244,5.596-2.393c2.569-1.575,5.072-4.195,6.531-6.837
			c1.425-2.584,1.758-5.257,2.052-7.615c0.21-1.689,0.408-3.281,0.964-4.141c0.498-0.771,1.909-1.56,3.153-2.257
			c0.502-0.281,0.994-0.557,1.46-0.839c4.743-2.869,7.565-6.26,10.508-10.074c1.658-2.148,6.061-7.853,9.229-8.571
			c1.089-0.247,2.302-0.332,3.706-0.431c2.443-0.17,5.189-0.36,7.925-1.533c2.697-1.157,4.444-3.104,5.847-4.668
			c0.743-0.828,1.386-1.544,2.057-2.052c1.595-1.208,3.493-2.23,5.503-3.312c3.889-2.094,8.287-4.463,11.342-8.806
			c3.535-5.025,3.524-10.327,3.515-15.004c-0.006-2.943-0.01-5.478,0.777-7.733c0.226-0.647,0.656-1.319,1.153-2.098
			c0.897-1.405,2.124-3.329,2.597-5.978c0.665-3.726,0.311-7.512-0.072-10.395c-0.482-3.614-1.929-6.711-3.205-9.443
			c-1.18-2.53-2.193-4.703-2.417-6.943c-0.059-0.592-0.078-1.292-0.098-2.033c-0.075-2.763-0.178-6.542-2.71-9.592
			c-0.899-1.083-1.857-1.833-2.628-2.436c-0.773-0.605-1.186-0.94-1.415-1.355c-1.535-2.777-0.84-6.314-0.063-9.085
			c1.261-4.498,1.446-8.748,1.625-12.859c0.205-4.652-0.158-9.297-1.078-13.803c-1.365-6.685,0.509-14.203,5.897-23.661
			c0.574-1.009,1.27-2.012,1.942-2.982c1.68-2.427,3.574-5.164,4.404-8.903c0.825-3.718,0.732-7.325,0.643-10.812
			c-0.027-1.053-0.052-2.041-0.052-3.029c0-2.298,0.063-4.647,0.124-6.919c0.067-2.477,0.136-5.039,0.126-7.604
			c-0.008-2.086,0.933-3.068,3.252-5.284c0.841-0.804,1.71-1.635,2.597-2.634c1.19-1.341,2.494-2.67,3.875-4.077l0.04-0.041
			c2.586-2.634,5.262-5.358,7.455-8.447c1.684-2.374,3.52-5.199,3.996-8.704c0.167-1.234,0.138-2.355,0.113-3.343
			c-0.023-0.915-0.045-1.78,0.118-2.264c0.265-0.784,0.812-1.302,2.024-2.399c0.425-0.384,0.955-0.862,1.483-1.392
			c2.63-2.644,3.934-5.307,4.5-9.193c1.139-7.821,0.033-14.692-1.532-22.862c-0.315-1.646-0.339-3.328-0.367-5.276l-0.001-0.102
			c-0.012-0.798-0.023-1.596-0.056-2.399c-0.083-2.031,0.336-3.889,0.822-6.041c0.309-1.366,0.658-2.915,0.89-4.617
			c1.117-8.21,0.203-17.18-0.741-24.943c-0.331-2.71-0.863-4.679-2.729-7.321c-1.049-1.488-1.387-2.673-1.507-5.281
			c-0.06-1.317,0.077-2.644,0.236-4.18c0.168-1.609,0.357-3.43,0.279-5.359c-0.072-1.737-0.432-3.228-0.749-4.544
			c-0.208-0.866-0.389-1.614-0.471-2.337c-0.649-5.731-0.196-10.521,1.347-14.237c0.648-1.559,1.142-3.168,1.665-4.871
			c1.002-3.259,2.038-6.63,3.856-8.158c1.151-0.966,3.329-1.41,5.436-1.838c0.646-0.132,1.284-0.262,1.902-0.404
			c2.69-0.619,4.825-1.923,6.708-3.073c1.337-0.817,2.49-1.523,3.616-1.863c2.672-0.808,5.86-0.919,8.943-1.026
			c1.524-0.054,3.074-0.108,4.621-0.238c1.071-0.09,2.137-0.136,3.169-0.136c4.643,0,9.262,0.895,14.979,2.903
			c2.035,0.715,4.061,1.795,6.205,2.939c3.063,1.634,6.231,3.324,9.922,4.24c1.664,0.412,3.392,0.621,5.14,0.621
			c4.492,0,8.489-1.316,12.354-2.589c1.782-0.586,3.605-1.186,5.336-1.594c0.463-0.109,1.068-0.162,1.848-0.162
			c1.049,0,2.251,0.097,3.523,0.199c1.43,0.116,2.909,0.235,4.392,0.235c2.322,0,5.737-0.259,8.562-2.496
			c1.684-1.335,2.812-2.842,3.808-4.171c1.013-1.352,1.812-2.42,3.011-3.095c3.411-1.917,8.453-3.017,13.833-3.017
			c1.706,0,3.401,0.117,4.901,0.34c0.985,0.146,1.913,0.323,2.81,0.494c1.979,0.378,4.002,0.764,6.306,0.764
			c1.517,0,2.992-0.166,4.512-0.508c5.516-1.238,9.112-4.119,12.591-6.904c0.924-0.74,1.878-1.505,2.875-2.243
			c0.996-0.738,1.885-1.52,2.744-2.276c1.052-0.926,1.945-1.712,2.904-2.335c2.056-1.336,4.457-2.022,7.238-2.816
			c2.99-0.854,6.377-1.823,9.519-3.827c4.077-2.602,6.108-6.038,7.899-9.07c1.054-1.784,1.964-3.324,3.225-4.669
			c1.945-2.073,5.289-2.857,8.829-3.686c0.979-0.229,2.09-0.489,3.14-0.778c4.747-1.309,10.224-2.953,15.166-5.905
			c1.863-1.112,3.997-2.084,6.062-3.023c2.976-1.355,6.042-2.75,8.923-4.759c9.785-6.826,16.011-13.565,20.819-22.535
			c1.166-2.176,2.194-4.394,3.189-6.538c1.073-2.312,2.179-4.697,3.39-6.869c0.523-0.938,0.959-1.859,1.382-2.75
			c0.555-1.173,1.063-2.246,1.652-3.133c0.528-0.796,1.256-1.352,2.263-2.122c0.604-0.463,1.269-0.972,1.96-1.586
			c4.826-4.295,7.961-10.327,10.727-15.649l1.132-2.164c1.577-2.986,3.213-6.084,3.889-10.071c0.243-1.432,0.375-2.882,0.492-4.162
			c0.117-1.269,0.237-2.572,0.445-3.73c0.867-4.814,2.313-9.534,3.373-12.646c0.966-2.836,3.336-5.156,6.081-7.843
			c1.297-1.27,2.638-2.583,3.867-4.015c4.674-5.447,7.618-12.113,8.513-19.279c0.482-3.856,1.07-7.802,1.638-11.619
			c1.199-8.042,2.437-16.348,2.837-24.687c0.195-4.052,1.02-8.194,1.848-12.09c0.326-1.533,0.955-3.113,1.62-4.786
			c0.799-2.008,1.705-4.286,2.154-6.761c0.599-3.304,0.888-6.76,0.884-10.565c-0.004-3.015-0.003-5.99-0.001-8.981L679,25.044
			c0-0.351,0.021-0.793,0.043-1.26l0.004-0.084c0.096-1.972,0.215-4.431-0.661-6.473L677.204,14.469L677.204,14.469z"/>
	</g>
</g>
<g>
	<circle cx="674.375" cy="17.438" r="4.75"/>
	<path fill="#F28633" d="M674.375,11.188c-3.446,0-6.25,2.804-6.25,6.25c0,2.973,2.089,5.464,4.875,6.093
		c0-0.93,0.219-2.26,0.219-3.159c-1.104-0.52-2.094-1.635-2.094-2.934c0-1.792,1.458-3.25,3.25-3.25s3.25,1.458,3.25,3.25
		c0,1.197-0.545,2.234-1.511,2.798c0,0.876,0,2.221,0,3.198c2.66-0.718,4.511-3.113,4.511-5.996
		C680.625,13.991,677.821,11.188,674.375,11.188z"/>
</g>
<circle cx="12.625" cy="736.542" r="4.125"/>
<path fill="#F28633" d="M15.286,735.698c0.042,0.207,0.005,0.353,0.005,0.573c0,1.792-1.458,3.25-3.25,3.25s-3.25-1.458-3.25-3.25
	s1.458-3.25,3.25-3.25c0.52,0,1.005,0.134,1.441,0.352c1.494-0.683,1.198-0.408,3.194-1.469c-1.147-1.373-2.71-1.884-4.635-1.884
	c-3.446,0-6.25,2.804-6.25,6.25s2.804,6.25,6.25,6.25s6.25-2.804,6.25-6.25c0-0.629-0.081-1.117-0.255-1.689
	C16.875,734.968,16.55,735.153,15.286,735.698z"/>
</svg>
