<?xml version="1.0" encoding="utf-8"?>
<!-- Generator: Adobe Illustrator 17.0.0, SVG Export Plug-In . SVG Version: 6.00 Build 0)  -->
<!DOCTYPE svg PUBLIC "-//W3C//DTD SVG 1.1//EN" "http://www.w3.org/Graphics/SVG/1.1/DTD/svg11.dtd">
<svg version="1.1"
	 id="Слой_1" xmlns:cc="http://creativecommons.org/ns#" xmlns:rdf="http://www.w3.org/1999/02/22-rdf-syntax-ns#" xmlns:svg="http://www.w3.org/2000/svg" xmlns:dc="http://purl.org/dc/elements/1.1/" xmlns:inkscape="http://www.inkscape.org/namespaces/inkscape" xmlns:sodipodi="http://sodipodi.sourceforge.net/DTD/sodipodi-0.dtd"
	 xmlns="http://www.w3.org/2000/svg" xmlns:xlink="http://www.w3.org/1999/xlink" x="0px" y="0px" width="123.36px" height="40px"
	 viewBox="-375.376 221.093 123.36 40" enable-background="new -375.376 221.093 123.36 40" xml:space="preserve">
<g transform="translate(0,-952.36218)">
	<path fill="#F28633" d="M-260.122,1213.451c0.499-0.052,0.865-0.518,0.816-1.042c-0.003-0.027-0.006-0.054-0.011-0.08l-2.395-13.35
		l9.412-9.326c0.365-0.362,0.381-0.965,0.036-1.347c-0.142-0.158-0.331-0.26-0.536-0.289l-12.846-1.74l-5.545-12.28
		c-0.217-0.475-0.76-0.675-1.212-0.448c-0.187,0.094-0.337,0.252-0.427,0.448l-5.545,12.27l-12.846,1.75
		c-0.498,0.067-0.85,0.544-0.786,1.066c0.027,0.218,0.124,0.419,0.276,0.57l9.412,9.315l-2.385,13.361
		c-0.089,0.518,0.239,1.014,0.733,1.107c0.202,0.038,0.411,0.004,0.592-0.099l11.365-6.505l11.365,6.505
		C-260.49,1213.431-260.305,1213.47-260.122,1213.451L-260.122,1213.451z M-261.456,1210.702l-10.118-5.795
		c-0.272-0.156-0.601-0.156-0.873,0l-10.118,5.785l2.12-11.878c0.057-0.317-0.043-0.642-0.265-0.865l-8.381-8.307l11.433-1.554
		c0.307-0.041,0.573-0.242,0.707-0.535l4.946-10.921l4.936,10.921c0.131,0.29,0.393,0.491,0.697,0.535l11.433,1.554l-8.371,8.307
		c-0.226,0.221-0.329,0.546-0.275,0.865L-261.456,1210.702z"/>
</g>
<g transform="translate(0,-952.36218)">
	<path fill="#F28633" d="M-301.574,1213.451c0.499-0.052,0.865-0.518,0.816-1.042c-0.003-0.027-0.006-0.054-0.011-0.08l-2.395-13.35
		l9.412-9.326c0.365-0.362,0.381-0.965,0.036-1.347c-0.142-0.158-0.331-0.26-0.536-0.289l-12.846-1.74l-5.545-12.28
		c-0.217-0.475-0.76-0.675-1.212-0.448c-0.187,0.094-0.337,0.252-0.427,0.448l-5.545,12.27l-12.846,1.75
		c-0.498,0.067-0.85,0.544-0.786,1.066c0.027,0.218,0.124,0.419,0.276,0.57l9.412,9.315l-2.385,13.361
		c-0.089,0.518,0.239,1.014,0.733,1.107c0.202,0.038,0.411,0.004,0.592-0.099l11.365-6.505l11.365,6.505
		C-301.942,1213.431-301.757,1213.47-301.574,1213.451L-301.574,1213.451z M-313.459,1176.632l4.936,10.921
		c0.131,0.29,0.393,0.491,0.697,0.535l11.433,1.554l-8.371,8.307c-0.226,0.221-0.329,0.546-0.275,0.865l2.13,11.889l-10.118-5.795
		c-0.224-0.062-0.095-0.027-0.441-0.109"/>
</g>
<g transform="translate(0,-952.36218)">
	<path fill="#F28633" d="M-343.482,1213.451c0.499-0.052,0.865-0.518,0.816-1.042c-0.003-0.027-0.006-0.054-0.011-0.08l-2.395-13.35
		l9.412-9.326c0.365-0.362,0.381-0.965,0.036-1.347c-0.142-0.158-0.331-0.26-0.536-0.289l-12.846-1.74l-5.545-12.28
		c-0.217-0.475-0.76-0.675-1.212-0.448c-0.187,0.094-0.337,0.252-0.427,0.448l-5.545,12.27l-12.846,1.75
		c-0.498,0.067-0.85,0.544-0.786,1.066c0.027,0.218,0.124,0.419,0.276,0.57l9.412,9.315l-2.385,13.361
		c-0.089,0.518,0.239,1.014,0.733,1.107c0.202,0.038,0.411,0.004,0.592-0.099l11.365-6.505l11.365,6.505
		C-343.85,1213.431-343.665,1213.47-343.482,1213.451L-343.482,1213.451z"/>
</g>
</svg>
