<?xml version="1.0" encoding="utf-8"?>
<!-- Generator: Adobe Illustrator 17.0.0, SVG Export Plug-In . SVG Version: 6.00 Build 0)  -->
<!DOCTYPE svg PUBLIC "-//W3C//DTD SVG 1.1//EN" "http://www.w3.org/Graphics/SVG/1.1/DTD/svg11.dtd">
<svg version="1.1" id="Слой_1" xmlns="http://www.w3.org/2000/svg" xmlns:xlink="http://www.w3.org/1999/xlink" x="0px" y="0px"
	 width="20px" height="20px" viewBox="0 0 20 20" enable-background="new 0 0 20 20" xml:space="preserve">
<path fill="#FFFFFF" d="M10,0c5.517,0,10,4.483,10,10c0,2.094-0.662,4.026-1.763,5.632l1.719,3.691
	c0.041,0.088,0.054,0.188,0.037,0.284c-0.017,0.096-0.063,0.185-0.132,0.254s-0.157,0.115-0.254,0.132
	c-0.096,0.017-0.195,0.004-0.284-0.037l-3.691-1.719C14.027,19.336,12.091,20,10,20C4.483,20,0,15.517,0,10C0,4.483,4.483,0,10,0z
	 M10,0.952c-5.003,0-9.048,4.045-9.048,9.048c0,5.002,4.045,9.048,9.048,9.048c1.992,0,3.826-0.645,5.32-1.734
	c0.069-0.05,0.151-0.081,0.236-0.089c0.085-0.008,0.171,0.007,0.248,0.044l2.738,1.272l-1.272-2.738
	c-0.037-0.077-0.052-0.163-0.044-0.248c0.008-0.085,0.038-0.167,0.089-0.236c1.089-1.494,1.734-3.328,1.734-5.32
	C19.048,4.997,15.002,0.952,10,0.952z M10,2.857c2.623,0,4.762,2.119,4.762,4.725c0,1.516-0.569,2.353-1.049,2.999
	c-0.48,0.646-0.856,1.089-0.856,2.277c0,0.126-0.05,0.247-0.139,0.337s-0.21,0.139-0.337,0.139H7.619
	c-0.126,0-0.247-0.05-0.337-0.139s-0.139-0.21-0.139-0.337c0-1.188-0.376-1.631-0.856-2.277c-0.48-0.646-1.049-1.483-1.049-2.999
	C5.238,4.976,7.377,2.857,10,2.857z M10,3.81c-2.113,0-3.81,1.686-3.81,3.772c0,1.301,0.383,1.797,0.856,2.433
	c0.413,0.556,0.888,1.255,1.004,2.366h1.473V8.728C8.972,8.529,8.571,7.997,8.571,7.381c0-0.783,0.645-1.429,1.429-1.429
	c0.783,0,1.429,0.645,1.429,1.429c0,0.616-0.401,1.148-0.952,1.347v3.653h1.473c0.116-1.111,0.591-1.81,1.005-2.366
	c0.472-0.636,0.856-1.132,0.856-2.433C13.809,5.496,12.113,3.81,10,3.81z M10,6.905c-0.269,0-0.476,0.208-0.476,0.476
	c0,0.269,0.208,0.476,0.476,0.476c0.269,0,0.476-0.208,0.476-0.476C10.476,7.112,10.269,6.905,10,6.905z M12.068,14.286
	c0.062,0.003,0.124,0.018,0.181,0.045c0.057,0.027,0.108,0.064,0.15,0.11s0.075,0.101,0.096,0.159
	c0.021,0.059,0.031,0.121,0.028,0.184c-0.003,0.063-0.018,0.124-0.045,0.181c-0.027,0.057-0.064,0.108-0.111,0.15
	c-0.046,0.042-0.1,0.075-0.159,0.096c-0.059,0.021-0.121,0.031-0.184,0.028H7.976c-0.063,0.001-0.126-0.011-0.184-0.034
	c-0.059-0.024-0.112-0.059-0.157-0.103c-0.045-0.044-0.081-0.097-0.105-0.155c-0.024-0.058-0.037-0.121-0.037-0.184
	s0.013-0.126,0.037-0.184c0.024-0.058,0.06-0.111,0.105-0.155c0.045-0.044,0.098-0.079,0.157-0.103
	c0.059-0.023,0.121-0.035,0.184-0.034h4.048C12.039,14.285,12.054,14.285,12.068,14.286z M11.116,16.191
	c0.062,0.003,0.124,0.018,0.181,0.045c0.057,0.027,0.108,0.064,0.15,0.11c0.042,0.046,0.075,0.1,0.096,0.159
	c0.021,0.059,0.031,0.121,0.028,0.184c-0.003,0.062-0.018,0.124-0.045,0.181c-0.027,0.057-0.064,0.108-0.111,0.15
	c-0.046,0.042-0.1,0.075-0.159,0.096s-0.121,0.031-0.184,0.028H8.929c-0.063,0.001-0.126-0.011-0.184-0.034
	c-0.059-0.024-0.112-0.059-0.157-0.103c-0.045-0.044-0.081-0.097-0.105-0.155s-0.037-0.121-0.037-0.184
	c0-0.063,0.013-0.126,0.037-0.184c0.024-0.058,0.06-0.111,0.105-0.155c0.045-0.044,0.098-0.079,0.157-0.103
	c0.059-0.024,0.121-0.035,0.184-0.034h2.143C11.086,16.19,11.101,16.19,11.116,16.191z"/>
</svg>
