<svg width="232" height="32" viewBox="0 0 232 32" fill="none" xmlns="http://www.w3.org/2000/svg">
<path d="M28.8821 24.819H31.7961C32.3706 24.819 33.3221 24.7924 33.3221 25.2058C33.3221 25.3728 33.3414 25.5133 33.2422 25.7159L32.6277 26.9987C32.529 27.2184 32.2511 27.6673 30.8835 27.711L30.844 27.7722C31.6766 27.7551 32.1722 28.0365 31.9935 28.4233L31.1806 30.1193C31.0424 30.4093 30.6456 30.9721 28.8219 30.9721H25.9287L28.8821 24.819ZM28.3866 30.3832C28.7829 30.3832 29.1393 30.2683 29.239 30.0676L30.0316 28.3967C30.1703 28.1253 29.8342 28.028 29.5563 28.028H29.2987L28.1694 30.3837L28.3866 30.3832ZM29.7735 27.4647C30.2893 27.4647 30.5469 27.3418 30.6259 27.1833L31.3193 25.7155C31.3988 25.5299 31.1407 25.4075 30.7843 25.4075H30.5657L29.5751 27.4642L29.7735 27.4647Z" fill="white"/>
<path d="M35.938 24.819H38.9906C39.4856 24.819 40.457 24.7924 40.457 25.2589C40.457 25.4079 40.4175 25.5399 40.338 25.7159L39.3272 27.8339C39.1495 28.2036 38.8317 28.7749 37.0875 28.7749H35.9967L34.9469 30.9721H32.9846L35.938 24.819ZM36.513 28.2121C36.8895 28.2121 37.2266 28.1153 37.3254 27.9136L38.3959 25.6979C38.5346 25.4265 38.118 25.3814 37.8811 25.3814H37.623L36.2751 28.2121H36.513Z" fill="white"/>
<path d="M44.9962 29.9789C44.8175 30.3476 44.4207 30.9721 42.7757 30.9721H41.4278C40.9727 30.9721 40.0207 30.936 40.0207 30.4349C40.0207 30.2859 40.0799 30.1459 40.1593 29.9789L42.1612 25.8127C42.3399 25.4431 42.7362 24.819 44.3812 24.819H45.7291C46.1851 24.819 47.1155 24.8546 47.1155 25.3553C47.1155 25.5048 47.076 25.6452 46.997 25.8127L44.9962 29.9789ZM42.023 30.181C42.0032 30.2247 42.0032 30.2603 42.0032 30.2944C42.0032 30.3566 42.2012 30.4093 42.3803 30.4093C42.6182 30.4093 42.8754 30.2944 42.9346 30.181L45.1344 25.6101C45.1946 25.5048 45.0356 25.3814 44.778 25.3814C44.3615 25.3814 44.2623 25.5399 44.2228 25.6101L42.023 30.181Z" fill="white"/>
<path d="M54.4097 24.819L53.0816 27.571H53.1215L55.3613 24.819H57.3237L54.5094 27.7627L54.5884 30.9721H52.626L52.8244 28.2202H52.7849L51.4568 30.9721H49.4949L50.8226 28.2202H50.7826L48.3252 30.9721H46.3638L49.5344 27.7627V24.819H51.4958L51.0792 27.571H51.1192L52.4469 24.819H54.4097Z" fill="white"/>
<path d="M56.4318 30.3832H56.5705C57.4426 30.3832 57.6603 30.1108 57.7604 29.8906L60.1976 24.819H65.0142L62.3381 30.3832H62.8337L62.0608 32H60.0989L60.5944 30.9721H58.1173L57.6213 32H55.6589L56.4318 30.3832ZM59.7218 29.8906C59.6428 30.0401 59.4637 30.2949 59.0674 30.3832H60.3758L62.7735 25.4084H61.8821L59.7218 29.8906Z" fill="white"/>
<path d="M67.1543 24.819H71.7532L71.4758 25.4079H68.8392L67.8679 27.4296H70.504L70.2069 28.019H67.5713L66.4411 30.3827H69.1166L68.8392 30.9716H64.2008L67.1543 24.819Z" fill="white"/>
<path d="M73.6553 24.819H75.6172L74.369 27.4296H75.2613L76.5095 24.819H78.4724L75.518 30.9721H73.5566L74.9637 28.019H74.0714L72.6643 30.9721H70.7019L73.6553 24.819Z" fill="white"/>
<path d="M80.6914 24.819H82.6538L81.4056 27.4296H82.297L83.5461 24.819H85.5085L82.5555 30.9721H80.5927L81.9998 28.019H81.108L79.7009 30.9721H77.7385L80.6914 24.819Z" fill="white"/>
<path d="M90.0867 29.9789C89.908 30.3476 89.5117 30.9721 87.8677 30.9721H86.5193C86.0637 30.9721 85.1122 30.936 85.1122 30.4349C85.1122 30.2859 85.1714 30.1459 85.2504 29.9789L87.2527 25.8127C87.4314 25.4431 87.8277 24.819 89.4727 24.819H90.8206C91.2761 24.819 92.2075 24.8546 92.2075 25.3553C92.2075 25.5048 92.1685 25.6452 92.0885 25.8127L90.0867 29.9789ZM87.1131 30.181C87.0938 30.2247 87.0938 30.2603 87.0938 30.2944C87.0938 30.3566 87.2917 30.4093 87.4708 30.4093C87.7083 30.4093 87.9659 30.2944 88.0251 30.181L90.2254 25.6101C90.2851 25.5048 90.1262 25.3814 89.8685 25.3814C89.4525 25.3814 89.3533 25.5399 89.3138 25.6101L87.1131 30.181Z" fill="white"/>
<path d="M94.7641 24.819H99.3625L99.0856 25.4079H96.4491L95.4778 27.4296H98.1143L97.8172 28.019H95.1806L94.0514 30.3827H96.7269L96.4496 30.9716H91.8116L94.7641 24.819Z" fill="white"/>
<path d="M109.411 28.8181L108.817 30.0576C108.679 30.3391 108.48 30.9721 106.617 30.9721H105.269C104.536 30.9721 103.842 30.9987 103.842 30.5241C103.842 30.3566 103.881 30.2247 103.961 30.0491L106.042 25.7259C106.22 25.3391 106.458 24.8195 108.222 24.8195H109.569C110.125 24.8195 111.037 24.8195 111.037 25.2594C111.037 25.4084 110.977 25.5403 110.898 25.7164L110.383 26.7889H108.42L108.995 25.585C109.055 25.453 108.757 25.3818 108.599 25.3818C108.42 25.3818 108.103 25.4886 108.064 25.585L105.843 30.2171C105.784 30.3315 105.983 30.4102 106.201 30.4102C106.419 30.4102 106.716 30.3215 106.775 30.2171L107.449 28.8191H109.411V28.8181Z" fill="white"/>
<path d="M113.316 24.819H115.278L112.602 30.3832H113.514L116.19 24.819H118.152L115.476 30.3832H115.971L115.198 32H113.236L113.732 30.9721H110.361L113.316 24.819Z" fill="white"/>
<path d="M120.293 24.819H124.89L124.614 25.4079H121.977L121.006 27.4296H123.642L123.345 28.019H120.708L119.578 30.3827H122.255L121.977 30.9716H117.34L120.293 24.819Z" fill="white"/>
<path d="M126.793 24.819H131.63L128.678 30.9721H126.715L129.391 25.4079H128.478L125.802 30.9721H123.84L126.793 24.819Z" fill="white"/>
<path d="M133.612 30.023C133.175 30.9104 131.906 30.9721 131.293 30.9721H130.281L130.559 30.3832C131.134 30.3922 131.551 30.2076 131.67 29.9703L134.147 24.819H138.964L136.01 30.9721H134.047L136.724 25.4079H135.832L133.612 30.023Z" fill="white"/>
<path d="M141.183 24.819H145.783L145.504 25.4079H142.869L141.896 27.4296H144.533L144.236 28.019H141.599L140.471 30.3827H143.146L142.869 30.9716H138.23L141.183 24.819Z" fill="white"/>
<path d="M147.684 24.819H149.647L148.397 27.4296H149.289L150.538 24.819H152.501L149.548 30.9721H147.586L148.993 28.019H148.1L146.693 30.9721H144.73L147.684 24.819Z" fill="white"/>
<path d="M154.72 24.819H156.682L154.958 28.3877L157.813 24.819H159.774L156.822 30.9721H154.86L156.524 27.5093L153.729 30.9721H151.766L154.72 24.819Z" fill="white"/>
<path d="M161.995 24.819H166.594L166.316 25.4079H163.679L162.708 27.4296H165.344L165.047 28.019H162.411L161.282 30.3827H163.957L163.679 30.9716H159.041L161.995 24.819Z" fill="white"/>
<path d="M176.642 28.8181L176.048 30.0576C175.909 30.3391 175.711 30.9721 173.847 30.9721H172.5C171.766 30.9721 171.071 30.9987 171.071 30.5241C171.071 30.3566 171.111 30.2247 171.191 30.0491L173.272 25.7259C173.451 25.3391 173.688 24.8195 175.452 24.8195H176.8C177.355 24.8195 178.266 24.8195 178.266 25.2594C178.266 25.4084 178.208 25.5403 178.128 25.7164L177.613 26.7889H175.651L176.226 25.585C176.285 25.453 175.989 25.3818 175.83 25.3818C175.651 25.3818 175.334 25.4886 175.294 25.585L173.074 30.2171C173.015 30.3315 173.213 30.4102 173.432 30.4102C173.649 30.4102 173.946 30.3215 174.006 30.2171L174.678 28.8191H176.642V28.8181Z" fill="white"/>
<path d="M182.785 30.3832H182.925C183.796 30.3832 184.014 30.1108 184.114 29.8906L186.551 24.819H191.368L188.692 30.3832H189.187L188.415 32H186.452L186.948 30.9721H184.47L183.975 32H182.013L182.785 30.3832ZM186.075 29.8906C185.996 30.0401 185.819 30.2949 185.421 30.3832H186.73L189.128 25.4084H188.236L186.075 29.8906Z" fill="white"/>
<path d="M195.867 29.9789C195.688 30.3476 195.292 30.9721 193.647 30.9721H192.299C191.843 30.9721 190.892 30.936 190.892 30.4349C190.892 30.2859 190.951 30.1459 191.031 29.9789L193.032 25.8127C193.21 25.4431 193.607 24.819 195.252 24.819H196.6C197.056 24.819 197.987 24.8546 197.987 25.3553C197.987 25.5048 197.947 25.6452 197.869 25.8127L195.867 29.9789ZM192.894 30.181C192.874 30.2247 192.874 30.2603 192.874 30.2944C192.874 30.3566 193.073 30.4093 193.251 30.4093C193.489 30.4093 193.746 30.2944 193.805 30.181L196.006 25.6101C196.065 25.5048 195.907 25.3814 195.648 25.3814C195.233 25.3814 195.134 25.5399 195.095 25.6101L192.894 30.181Z" fill="white"/>
<path d="M200.544 24.819H203.596C204.092 24.819 205.064 24.7924 205.064 25.2589C205.064 25.4079 205.025 25.5399 204.945 25.7159L203.935 27.8339C203.757 28.2036 203.439 28.7749 201.693 28.7749H200.603L199.553 30.9721H197.591L200.544 24.819ZM201.12 28.2121C201.496 28.2121 201.832 28.1153 201.933 27.9136L203.003 25.6979C203.142 25.4265 202.725 25.3814 202.487 25.3814H202.23L200.882 28.2121H201.12Z" fill="white"/>
<path d="M209.603 29.9789C209.424 30.3476 209.029 30.9721 207.383 30.9721H206.034C205.58 30.9721 204.628 30.936 204.628 30.4349C204.628 30.2859 204.687 30.1459 204.767 29.9789L206.769 25.8127C206.946 25.4431 207.343 24.819 208.988 24.819H210.336C210.793 24.819 211.723 24.8546 211.723 25.3553C211.723 25.5048 211.684 25.6452 211.604 25.8127L209.603 29.9789ZM206.629 30.181C206.611 30.2247 206.611 30.2603 206.611 30.2944C206.611 30.3566 206.808 30.4093 206.986 30.4093C207.224 30.4093 207.482 30.2944 207.542 30.181L209.74 25.6101C209.8 25.5048 209.642 25.3814 209.384 25.3814C208.967 25.3814 208.87 25.5399 208.829 25.6101L206.629 30.181Z" fill="white"/>
<path d="M214.282 24.819H218.265L217.988 25.4079H215.966L213.289 30.9721H211.327L214.282 24.819Z" fill="white"/>
<path d="M222.267 29.9789C222.089 30.3476 221.695 30.9721 220.049 30.9721H218.701C218.245 30.9721 217.294 30.936 217.294 30.4349C217.294 30.2859 217.353 30.1459 217.433 29.9789L219.434 25.8127C219.612 25.4431 220.009 24.819 221.653 24.819H223.002C223.458 24.819 224.389 24.8546 224.389 25.3553C224.389 25.5048 224.349 25.6452 224.27 25.8127L222.267 29.9789ZM219.295 30.181C219.275 30.2247 219.275 30.2603 219.275 30.2944C219.275 30.3566 219.474 30.4093 219.651 30.4093C219.889 30.4093 220.148 30.2944 220.206 30.181L222.406 25.6101C222.465 25.5048 222.307 25.3814 222.049 25.3814C221.633 25.3814 221.534 25.5399 221.494 25.6101L219.295 30.181Z" fill="white"/>
<path d="M226.946 24.819H228.908L227.184 28.3877L230.038 24.819H232L229.047 30.9721H227.085L228.75 27.5093L225.954 30.9721H223.992L226.946 24.819ZM229.541 23.7119L229.403 23.9838C229.383 24.0185 229.383 24.054 229.403 24.0896C229.482 24.195 229.662 24.204 229.8 24.204C230.096 24.204 230.355 24.0721 230.393 23.9838L230.533 23.7119H231.96L231.842 23.9582C231.663 24.3449 231.008 24.5115 230.216 24.5115H229.087C228.809 24.5115 228.214 24.494 227.996 24.2301C227.937 24.1513 227.937 24.0635 227.996 23.9582L228.115 23.7119H229.541Z" fill="white"/>
<path d="M130.905 3.53236L132.135 0.936543H124.109L123.117 2.99896L123.115 3.00133C123.026 3.20587 122.9 3.34254 122.738 3.43318C122.574 3.52335 122.367 3.56653 122.119 3.56653H122.059L121.043 5.70108H121.824L120.632 8.23521L120.63 8.23995C120.597 8.33771 120.562 8.43405 120.521 8.53038L120.513 8.54841L120.503 8.57167L117.98 13.9232L117.98 13.9256C117.834 14.2744 117.759 14.6085 117.759 14.9241C117.758 15.2292 117.83 15.5158 117.978 15.774C118.095 16.008 118.285 16.24 118.55 16.4317C119.271 16.9903 120.187 17.2551 121.243 17.2546H124.484L124.49 17.2537C124.82 17.2214 125.459 17.1825 126.392 17.0719L126.445 17.0648L127.647 14.5008H127.498C126.985 14.5012 126.605 14.45 126.369 14.3527C126.251 14.3048 126.17 14.2464 126.119 14.1828C126.068 14.1178 126.044 14.048 126.043 13.9564C126.042 13.8777 126.064 13.7837 126.108 13.6746L129.891 5.70061H131.786L132.839 3.53189L130.905 3.53236ZM13.3075 10.2383L13.282 10.2924L11.7987 13.4852L11.7968 13.4933C11.7872 13.5312 11.754 13.5773 11.6803 13.6276C11.608 13.6769 11.5007 13.7282 11.3653 13.7775C11.0509 13.8772 10.7826 13.9446 10.448 13.9446C10.0675 13.946 9.7757 13.8706 9.63605 13.731L9.62883 13.723L9.62016 13.7173C9.56959 13.6845 9.55707 13.6556 9.55659 13.6281C9.55659 13.6119 9.56141 13.592 9.57778 13.5664L9.58115 13.5611L13.7707 4.4046C13.8256 4.29735 13.9788 4.16732 14.2465 4.07241L14.2513 4.07003C14.4777 3.97465 14.7849 3.93906 15.1259 3.93953C15.5313 3.93953 15.7919 4.00454 15.9816 4.12223C16.009 4.15166 16.0288 4.17538 16.0394 4.19294C16.0519 4.21382 16.0538 4.22284 16.0538 4.22948C16.0538 4.2366 16.0519 4.24847 16.0341 4.27409L16.0297 4.28169L14.9486 6.67534H25.0412L25.699 5.27066L26.7796 2.88175L26.7233 2.83571C26.3732 2.5543 26.0183 2.31133 25.6672 2.07026L25.6639 2.06741L25.6605 2.06504C24.8101 1.57577 23.923 1.16006 22.9994 0.8758H22.9984C21.1227 0.319621 18.9331 0.0415316 16.4651 0.0410571H15.6585C13.0075 0.0415316 10.6714 0.388906 8.65463 1.11972C6.63881 1.81637 5.38242 2.72752 4.87244 3.80666L0.189255 14.0011L0.188774 14.0025C0.0650122 14.2972 1.37328e-06 14.581 1.37328e-06 14.8519C-0.000480188 15.2278 0.125689 15.5799 0.377546 15.896C0.628921 16.213 1.00213 16.4958 1.50103 16.7521C2.82966 17.4985 4.88496 17.8407 7.56148 17.8416H8.37339C10.1715 17.8416 12.2163 17.6675 14.5085 17.3206H14.5095C17.1176 16.902 19.1955 16.4531 20.7476 16.0018L20.79 15.9899L21.4473 14.5392L21.4488 14.533C21.4907 14.403 21.5374 14.2777 21.5918 14.161L22.1056 13.0885L23.4005 10.2378L13.3075 10.2383ZM42.3533 9.11693L42.467 8.88582L43.0661 7.61971L43.0675 7.61544C43.1137 7.48873 43.1378 7.36297 43.1378 7.23912C43.1378 7.03031 43.0689 6.83005 42.9384 6.64355C42.8084 6.458 42.6182 6.28478 42.3702 6.11916C42.2055 5.99625 41.9686 5.88141 41.7032 5.77132C40.4998 5.26639 38.9126 5.00016 36.9035 5.00016H35.1314C34.4374 5.00016 33.8201 5.0405 33.169 5.07514L33.1666 5.07562H33.1651C31.8842 5.19283 30.7212 5.42109 29.5915 5.76847L29.59 5.76894C28.7748 6.03517 28.1097 6.32132 27.6041 6.63453C27.0994 6.94726 26.7507 7.28894 26.5793 7.67381L23.6577 13.7643L23.0292 15.1485L23.0273 15.1585C23.0095 15.2373 23.0008 15.3165 23.0008 15.3944C22.9999 15.6639 23.1082 15.9206 23.3143 16.1513C23.5204 16.3824 23.8229 16.5917 24.223 16.782C24.2702 16.8071 24.3145 16.818 24.3511 16.8285C24.3882 16.8384 24.4171 16.847 24.4436 16.8607L24.446 16.8622L24.4484 16.8631C25.621 17.4017 27.2415 17.6267 29.212 17.6271H31.0232C31.6766 17.6267 32.3711 17.6276 32.9942 17.5526C34.2727 17.4373 35.4372 17.2086 36.5621 16.8674L36.564 16.8669C38.1565 16.3549 39.1274 15.7778 39.5497 15.0655L39.5516 15.0617L41.6479 10.6217L42.3533 9.11693ZM35.4319 7.96566L35.429 7.97041L35.4266 7.97563L32.9586 13.1725L32.3267 14.5696C32.2844 14.6379 32.2015 14.7001 32.0542 14.7466C31.9039 14.7945 31.6906 14.8225 31.4084 14.822C31.1566 14.822 30.9784 14.7902 30.8334 14.7537C30.7978 14.7281 30.7679 14.7043 30.7506 14.6844C30.7405 14.6735 30.7347 14.6645 30.7318 14.6593C30.7313 14.6569 30.7309 14.6559 30.7304 14.6555L30.7309 14.6545L33.195 9.45766L33.8673 8.05345V8.0525C33.8904 7.99793 33.9703 7.93054 34.1316 7.88309C34.2915 7.83516 34.5236 7.80621 34.8236 7.80621C35.0456 7.80621 35.218 7.82804 35.325 7.86031C35.3784 7.87692 35.414 7.8959 35.4304 7.91014C35.4473 7.9258 35.4444 7.92722 35.4453 7.93102C35.4453 7.93481 35.4439 7.94668 35.4319 7.96566ZM101.113 7.13993C101.113 6.69907 100.842 6.30994 100.36 5.98487L100.351 5.9787L100.341 5.97442C100.232 5.93314 100.101 5.85341 99.9789 5.77416L99.9756 5.77132L99.9712 5.76942C98.9821 5.255 97.4859 5.00159 95.5235 5.00111H94.9249C93.4364 5.00111 91.9826 5.13067 90.574 5.38313C89.3716 5.59098 88.2202 5.92555 87.1049 6.30709C86.7143 6.43095 86.1971 6.6464 85.5147 6.97811L85.4849 6.99282L84.3913 9.24981H91.8242L92.3804 8.14599L92.3823 8.13935C92.3914 8.10945 92.4247 8.07006 92.4916 8.02878C92.5566 7.98796 92.6491 7.94905 92.7541 7.90966L92.7545 7.90919L92.7565 7.90824C92.9491 7.82994 93.1364 7.82851 93.4013 7.82899C93.5289 7.82899 93.631 7.82946 93.7076 7.84275C93.7851 7.85699 93.8352 7.87834 93.8838 7.9258L93.8997 7.94193L93.9209 7.94905C93.9584 7.96091 93.9782 7.97515 93.9873 7.98559C93.9955 7.99603 93.9984 8.00173 93.9994 8.02118C93.9994 8.03352 93.9965 8.05155 93.9888 8.07481L93.3926 9.36702L90.4994 9.98489L86.2376 10.9079C85.4189 11.0759 84.5555 11.4152 83.6545 11.8755L83.6525 11.8769L83.6497 11.8784C83.0029 12.2585 82.479 12.5935 82.1274 12.9836C81.8164 13.2807 81.5948 13.5844 81.4195 13.881L81.4167 13.8853L81.4147 13.8895C81.2414 14.2659 81.1508 14.6251 81.1508 14.9635C81.1494 15.5766 81.4533 16.1138 82.047 16.53V16.5689L82.088 16.5974C83.0381 17.2465 84.5386 17.5821 86.6281 17.5825C87.0663 17.5825 87.6664 17.4943 88.4773 17.3685C88.8611 17.3059 89.1833 17.2323 89.44 17.1521C89.5642 17.1137 89.673 17.0743 89.766 17.0325L89.6807 17.2461H96.465L100.962 7.72696C101.061 7.52907 101.113 7.33213 101.113 7.13993ZM91.2285 13.9683C91.2111 13.9916 91.1485 14.0381 91.0623 14.0756C90.9237 14.1396 90.731 14.1966 90.5716 14.2364C90.4917 14.2564 90.4199 14.272 90.367 14.2834C90.3405 14.2891 90.3188 14.2934 90.3039 14.2953C90.2957 14.2967 90.2894 14.2977 90.2851 14.2986C90.2846 14.2986 90.2841 14.2986 90.2841 14.2986C89.7361 14.3 89.3239 14.2492 89.1111 14.1017L89.1096 14.1002L89.1086 14.0993C88.9873 14.0224 88.93 13.9337 88.929 13.8255C88.929 13.7718 88.9435 13.7092 88.9796 13.6385C89.1342 13.3428 89.5425 13.0548 90.2528 12.8484H90.2548L90.5057 12.7663C90.9574 12.688 91.4466 12.5826 91.932 12.4749L91.2285 13.9683ZM86.4398 0.943187H79.0676L78.9332 1.23029L78.6703 1.78315L77.4327 4.40982H84.8353L86.4398 0.943187ZM75.4198 3.80001H75.4275L76.7855 0.943187H69.4614L67.3266 5.45716C66.3602 5.24835 65.2309 5.16531 63.8488 5.12497H63.229C61.936 5.12497 60.6816 5.39025 59.5571 5.87287C58.3893 6.35644 57.6526 6.97669 57.2692 7.7037L57.2678 7.70608L53.894 14.8477C53.7847 15.0707 53.7283 15.2885 53.7283 15.4997C53.7273 15.9334 53.9734 16.3174 54.4271 16.6163C54.6028 16.7483 54.7492 16.8417 54.9707 16.9333C55.603 17.2005 56.4983 17.3334 57.5673 17.3339C58.4982 17.3339 59.3424 17.2916 60.0878 17.2446H60.0907L60.0926 17.2442C60.8501 17.1583 61.4237 17.0729 61.8643 17.0278C61.9274 17.0292 62.0877 17.0667 62.2818 17.2238L62.3083 17.2446H69.0728L75.4198 3.80001ZM66.0101 8.23521L63.1409 14.236C63.0586 14.3911 62.942 14.5027 62.7706 14.5829C62.5982 14.6621 62.367 14.7053 62.0651 14.7048C61.8344 14.7058 61.6659 14.6778 61.5676 14.6341C61.5185 14.6123 61.4887 14.5886 61.4709 14.5653C61.4535 14.5425 61.4453 14.5193 61.4453 14.4851C61.4449 14.4457 61.4588 14.3892 61.4954 14.3204L61.4964 14.3185L64.3723 8.18348C64.457 8.06721 64.5731 7.95 64.8172 7.83278C65.0315 7.74784 65.2372 7.70893 65.4447 7.70845C65.5723 7.70845 65.6734 7.71889 65.7495 7.74547C65.8261 7.77299 65.881 7.81143 65.934 7.88309L65.9393 7.89021L65.945 7.89637C66.0149 7.96566 66.0308 8.01454 66.0327 8.08572C66.0337 8.12748 66.0255 8.17731 66.0101 8.23521ZM76.6463 6.06744L71.3626 17.2437H78.7753L84.0441 6.06696L76.6463 6.06744ZM119.035 7.6553C119.078 7.51341 119.101 7.37626 119.101 7.24196C119.102 6.99662 119.022 6.76646 118.863 6.5605C118.772 6.39251 118.642 6.25821 118.441 6.13862C117.789 5.6503 116.774 5.42157 115.334 5.42109C114.179 5.42109 113.103 5.49939 112.141 5.61614C111.225 5.71532 110.499 5.79314 109.967 5.84629C109.436 5.89802 109.097 5.92697 108.968 5.92649C108.876 5.92649 108.793 5.91748 108.729 5.90039C108.664 5.88521 108.62 5.86101 108.6 5.8406L108.594 5.83491L108.586 5.82969C108.517 5.78223 108.494 5.72813 108.495 5.69918C108.495 5.68827 108.498 5.6802 108.501 5.67403L108.572 5.53688H103.901L98.3527 17.2427H105.68L109.853 8.4516C109.927 8.29405 110.05 8.17351 110.229 8.08809C110.408 8.00268 110.643 7.95569 110.929 7.95569C111.135 7.95474 111.283 7.98512 111.366 8.02878C111.408 8.05108 111.434 8.07576 111.451 8.10043C111.467 8.12511 111.475 8.15311 111.476 8.19155C111.476 8.23805 111.462 8.29832 111.427 8.37188L107.22 17.2423H114.548L116.411 13.2835L116.412 13.2816C116.426 13.247 116.437 13.2157 116.449 13.1877L116.453 13.1777L116.463 13.1208L116.467 13.1117L119.034 7.66052L119.035 7.6553ZM55.5298 9.05571L57.3044 5.29866H57.1541C56.7583 5.29913 56.36 5.29866 55.9979 5.33899C55.3377 5.3874 54.8003 5.42869 54.3047 5.51648L54.2999 5.51695L54.2951 5.51885C54.0028 5.60047 53.5545 5.72291 53.0508 5.92365L52.9299 5.56014H45.9102L44.6846 8.15501L44.6831 8.1588C44.6427 8.2746 44.6022 8.38517 44.5531 8.48625L43.9984 9.60667L43.2211 11.251L41.1384 15.6919C41.122 15.7237 41.0941 15.7626 41.0666 15.812L41.0652 15.8143L40.3905 17.2442H47.8037L50.9805 10.5306C51.1958 10.0594 51.6711 9.69162 52.4228 9.43915C53.1731 9.18811 54.1935 9.05619 55.4692 9.05619L55.5298 9.05571Z" fill="white"/>
<path d="M141.601 15.6938C140.154 15.8347 137.824 16.0635 135.475 16.297C132.385 16.6049 129.255 16.9253 128.099 17.0657L141.255 17.6309C141.226 17.4701 141.216 17.3002 141.211 17.1331C141.198 16.7008 141.349 16.1551 141.601 15.6938Z" fill="white"/>
<path d="M145.945 9.59386C145.93 9.48519 145.927 9.36607 145.977 9.21611C146.111 8.80847 146.371 8.42503 146.674 8.01264C146.676 8.01027 146.679 8.01122 146.682 8.01027C146.687 8.0022 146.693 7.99461 146.697 7.98796C146.704 7.97657 146.711 7.96424 146.718 7.95332C145.853 8.02166 143.064 8.24233 140.24 8.47438C137.523 8.696 134.763 8.93043 133.701 9.04338L145.89 9.78321L145.956 9.6622C145.952 9.64226 145.949 9.62138 145.946 9.60003C145.946 9.59813 145.945 9.59623 145.945 9.59386Z" fill="white"/>
<path d="M148.387 1.11498C148.468 1.02718 148.558 0.940814 148.658 0.856818C147.315 0.925629 139.936 1.30575 139.78 1.36032L147.928 1.81922C147.949 1.77983 147.969 1.74044 147.989 1.70295C148.097 1.4951 148.21 1.30907 148.387 1.11498Z" fill="white"/>
<path d="M166.171 7.98986C165.788 7.82377 165.3 7.74499 164.81 7.6852C164.675 7.66811 164.039 7.62825 164.021 7.6273C163.697 7.60974 163.264 7.61829 163.194 7.61923C162.607 7.63062 161.987 7.65672 161.335 7.77489C161.052 7.82661 160.735 7.88736 160.475 7.96708C160.174 8.05677 160.05 8.06342 159.815 8.13223C159.366 8.26226 159.151 8.42883 158.809 8.59824L158.485 8.78379C158.316 8.86447 158.152 8.90528 158.048 8.94799C158.048 8.94799 157.752 8.97741 157.503 9.20093C157.489 9.21422 157.476 9.22655 157.463 9.23842C157.452 9.24791 157.092 9.56823 157.092 9.56823L157.629 8.9627C157.629 8.9627 157.348 8.99022 157.119 9.15869C156.887 9.32811 156.493 9.66789 156.493 9.66647C156.494 9.66647 156.494 9.66552 156.494 9.66457C156.499 9.6342 156.603 9.45244 156.603 9.45244C156.633 9.40688 156.666 9.36133 156.707 9.31767C156.812 9.20093 157.084 8.96792 157.084 8.96792C156.917 8.97741 156.769 8.99402 156.669 9.00921C156.314 9.05998 156.557 9.02107 156.338 9.06853C156.276 9.05998 156.218 9.05097 156.159 9.04005C156 9.01016 155.855 8.97267 155.771 8.88013C155.687 8.79091 155.64 8.68366 155.57 8.58543C155.535 8.53228 155.475 8.50001 155.46 8.44259C155.459 8.43642 155.456 8.42883 155.455 8.42076C155.456 8.407 155.49 8.15643 155.538 8.02973C155.542 8.01596 155.549 7.9984 155.556 7.98037C155.546 7.97942 155.508 7.98654 155.444 7.96756C155.364 7.94525 155.266 7.87455 155.266 7.87455C155.266 7.87455 155.28 7.85224 155.283 7.84797C155.323 7.78343 155.413 7.66242 155.49 7.66242C155.5 7.66242 155.508 7.66289 155.516 7.66669C155.539 7.67666 155.531 7.67998 155.579 7.67998C155.627 7.6795 155.725 7.63395 155.725 7.63395C155.725 7.63395 155.874 7.41945 155.878 7.40853C155.885 7.39667 155.868 7.38907 155.868 7.38907L155.57 7.3345L155.569 7.33355C155.569 7.33355 155.403 7.18549 155.419 7.13281C155.421 7.12759 155.435 7.12475 155.45 7.12475C155.468 7.12475 155.494 7.12902 155.527 7.13756C155.632 7.16698 155.732 7.17552 155.816 7.17552C155.926 7.17552 156.008 7.16034 156.038 7.15322C156.067 7.12854 156.141 7.06922 156.142 7.06733C156.152 7.0398 156.138 7.00611 156.08 6.95723C155.937 6.84239 155.816 6.67297 155.808 6.65446C155.814 6.65826 155.822 6.663 155.834 6.67345C155.957 6.77785 156.347 6.85045 156.347 6.85045L156.617 6.78212C156.643 6.76788 156.67 6.75317 156.695 6.73846C156.714 6.73039 156.762 6.6986 156.764 6.69765C156.774 6.67012 156.772 6.64592 156.72 6.62836C156.645 6.60274 156.628 6.57758 156.549 6.52871C156.47 6.4803 156.319 6.30661 156.306 6.29427C156.347 6.32275 156.397 6.35502 156.459 6.38681C156.65 6.48552 156.92 6.52349 156.92 6.52349L156.997 6.46322C156.997 6.46322 157.062 6.40959 157.208 6.37637L157.355 6.37068C157.364 6.36926 157.456 6.35597 157.498 6.3498C157.553 6.34885 157.598 6.34837 157.631 6.34837C157.663 6.34837 157.688 6.34885 157.707 6.34885C157.761 6.33082 157.812 6.31563 157.859 6.30044C157.859 6.30044 158.377 6.21882 158.652 6.17184C158.911 6.12676 159.168 6.08025 159.392 6.02995C159.61 5.98154 159.794 5.93409 159.921 5.87999C160.257 5.77796 160.523 5.71769 160.996 5.4937C161.474 5.26734 161.829 5.02816 162.251 4.78044C162.677 4.53225 162.904 4.41361 163.194 4.19674C163.338 4.08759 163.519 3.94048 163.682 3.79099C163.847 3.64056 163.991 3.4925 164.071 3.36105C164.302 2.97903 164.374 2.61315 164.374 2.30374C164.374 2.21073 164.367 2.12341 164.357 2.04131C164.344 1.94877 164.29 1.75088 164.181 1.5212C164.071 1.29578 163.911 1.04806 163.669 0.899528C163.425 0.747196 163.246 0.682656 162.929 0.640895C162.804 0.623337 162.647 0.608151 162.474 0.606727C162.161 0.603405 161.582 0.757636 161.582 0.757636C161.223 0.86014 160.899 1.00488 160.582 1.14535C160.056 1.37978 159.456 1.8102 159.21 2.00714C158.575 2.44421 158.02 2.98567 157.544 3.51433C157.05 4.03159 156.568 4.69218 156.334 5.08084L156.29 5.15249C156.29 5.15249 156.152 5.27778 156.152 5.27825L156.151 5.27873C156.15 5.2792 156.148 5.28062 156.148 5.28062C156.125 5.29344 156.003 5.34801 155.931 5.46997C155.926 5.47709 155.921 5.48279 155.919 5.48943L155.917 5.4899C155.801 5.5497 155.695 5.63322 155.603 5.72861C155.601 5.72908 155.542 5.79552 155.515 5.82731C155.353 5.91938 155.219 6.02378 155.091 6.1296C154.976 6.15096 154.822 6.28478 154.709 6.33271C154.685 6.34458 154.63 6.35454 154.591 6.36925C154.5 6.40152 154.414 6.46417 154.292 6.49739C154.092 6.55291 153.88 6.57996 153.64 6.65778C153.342 6.75507 152.96 6.95343 152.836 6.96482C152.712 6.97574 152.58 6.98048 152.506 6.98238C152.448 6.98428 152.446 6.98048 152.349 6.98048C152.251 6.98048 152.037 7.06021 151.859 7.10339C151.859 7.10339 151.742 7.12807 151.698 7.13139C151.654 7.13424 151.552 7.1238 151.552 7.1238C151.456 7.09153 151.371 7.04312 151.283 7.01607C151.137 6.96909 151.043 6.92021 151.009 6.81913C151.009 6.81913 151.021 6.72802 150.994 6.68151C150.967 6.63548 150.95 6.63026 150.95 6.63026C150.949 6.63026 150.949 6.63026 150.949 6.63026C150.949 6.63026 151.004 6.5567 151.01 6.5102C151.017 6.46464 150.987 6.36925 150.987 6.36925C150.987 6.36925 150.789 6.59325 150.415 6.8533C150.243 6.97147 150.096 7.00943 149.991 7.02319C149.925 7.03221 149.787 7.00801 149.787 7.00801L149.846 7.16651H149.845C149.842 7.16793 149.716 7.21064 149.487 7.20922C149.487 7.20922 149.343 7.21539 149.234 7.18122C149.127 7.14705 149.15 7.10149 149.15 7.10149L149.679 6.97858L149.754 6.84903L149.624 6.73656L149.13 6.62789L149.523 6.47128L148.662 6.16709C148.666 6.17279 148.682 6.48078 148.746 6.60891C148.729 6.62551 148.714 6.6407 148.7 6.65684C148.673 6.68673 148.608 6.77073 148.601 6.78259C148.54 6.87323 148.451 7.07444 148.444 7.08726C148.436 7.09817 148.359 7.21112 148.35 7.23057C148.302 7.32738 148.254 7.40141 148.204 7.47782C148.194 7.493 148.075 7.66384 148.072 7.66527C147.917 7.86648 147.782 8.04966 147.66 8.2428C147.537 8.43594 147.436 8.62814 147.366 8.8265C147.313 8.97124 147.313 9.08419 147.326 9.18906V9.19618C147.351 9.38885 147.417 9.5483 147.298 9.7908C147.296 9.79128 147.296 9.79175 147.295 9.7927C147.268 9.80931 147.241 9.82544 147.215 9.84253C147.21 9.84537 147.207 9.84727 147.203 9.85059C147.175 9.8672 147.149 9.88524 147.123 9.90185C147.119 9.90517 147.114 9.90754 147.112 9.91039C147.057 9.94598 147.002 9.983 146.949 10.0205C146.946 10.0233 146.942 10.0257 146.939 10.0281C146.912 10.0475 146.886 10.0665 146.86 10.0845C146.858 10.0864 146.856 10.0879 146.853 10.0898C146.8 10.1292 146.748 10.17 146.696 10.2108C146.694 10.2127 146.691 10.2151 146.688 10.217C146.636 10.2592 146.586 10.3014 146.537 10.3441L146.536 10.3451C146.511 10.366 146.487 10.3878 146.465 10.4106C146.464 10.412 146.462 10.4134 146.46 10.4148C146.413 10.458 146.368 10.5036 146.325 10.5477C146.325 10.5477 146.325 10.5487 146.325 10.5496C146.304 10.5719 146.282 10.5942 146.263 10.618C146.262 10.6184 146.262 10.6184 146.26 10.6194C146.221 10.6649 146.185 10.71 146.15 10.7565C146.15 10.7575 146.149 10.7589 146.148 10.7603C146.12 10.7964 146.095 10.8334 146.072 10.8714C146.024 10.9444 145.986 11.0194 145.957 11.0944C145.901 11.2396 145.826 11.438 145.83 11.569C145.831 11.6226 145.862 11.6662 145.864 11.7289C145.869 11.9064 145.849 12.1299 145.81 12.3183C145.786 12.4355 145.809 12.5546 145.731 12.6903C145.725 12.6998 145.716 12.7093 145.706 12.7198C145.7 12.725 145.695 12.7297 145.689 12.7345L145.688 12.7354C145.683 12.7406 145.678 12.7454 145.673 12.7501C145.649 12.7705 145.629 12.789 145.627 12.7966C145.618 12.8042 145.616 12.8094 145.618 12.8113C145.839 12.7497 146.019 12.7278 146.17 12.7278C146.279 12.7278 146.374 12.7387 146.46 12.7549C146.726 12.8047 146.903 12.8944 146.929 13.0942C146.928 13.0942 146.927 13.0947 146.925 13.0942C146.923 13.0942 146.921 13.0942 146.918 13.0942C146.913 13.0937 146.908 13.0937 146.902 13.0932C146.901 13.0932 146.9 13.0928 146.898 13.0928C146.895 13.0928 146.894 13.0932 146.89 13.0937C146.886 13.0942 146.88 13.0942 146.874 13.0961C146.874 13.0999 146.874 13.1037 146.875 13.106C146.875 13.106 146.875 13.106 146.875 13.107C146.871 13.1075 146.87 13.1079 146.867 13.1084C146.871 13.1592 146.91 13.2788 146.969 13.2997C146.993 13.2536 147.147 13.181 147.166 13.1592C147.187 13.1464 147.2 13.1298 147.211 13.1127C147.224 13.0951 147.235 13.0761 147.244 13.0562C147.244 13.0553 147.245 13.0553 147.245 13.0543C147.248 13.0477 147.251 13.042 147.253 13.0368V13.0358C147.26 13.0339 147.263 13.0334 147.266 13.0334C147.274 13.0334 147.274 13.0382 147.276 13.0406C147.276 13.0453 147.276 13.05 147.283 13.05C147.285 13.05 147.287 13.0496 147.29 13.0486C147.334 13.0154 147.367 12.9741 147.442 12.9509C147.573 12.8033 147.82 12.7084 148.024 12.594C148.05 12.5935 148.076 12.5907 148.11 12.5855C148.18 12.4958 148.275 12.482 148.379 12.4421C148.377 12.4421 148.387 12.436 148.404 12.4289C148.423 12.4222 148.449 12.417 148.479 12.417C148.52 12.417 148.57 12.4279 148.621 12.4659C148.642 12.5352 148.762 12.4953 148.823 12.5181C148.885 12.5413 148.919 12.6106 148.975 12.6576C149.125 12.7843 149.31 12.8797 149.446 13.0069L149.444 13.0073C149.463 13.0254 149.487 13.0486 149.509 13.069C149.59 13.1582 149.668 13.2522 149.783 13.3357C149.835 13.3699 149.884 13.4249 149.927 13.4833C149.948 13.5137 150.026 13.5445 150.096 13.5797C150.103 13.5839 150.11 13.5891 150.115 13.5944C150.148 13.6323 150.143 13.6181 150.177 13.666L150.176 13.7624C150.148 13.8274 150.122 13.899 150.172 13.9403C150.167 13.9754 150.162 14.0134 150.145 14.0585C150.14 14.0684 150.133 14.1268 150.125 14.2056C150.122 14.2326 150.121 14.2583 150.117 14.2858C150.114 14.3389 150.11 14.3945 150.109 14.4486C150.109 14.4704 150.106 14.4913 150.106 14.5098C150.105 14.5819 150.106 14.6484 150.112 14.7001H150.122C150.135 14.8106 150.154 14.9212 150.189 15.0185C150.356 15.5016 150.693 15.8751 150.996 16.2533C151.291 16.6211 151.69 16.8911 152.107 17.1896C152.505 17.4734 152.95 17.6865 153.502 17.8554C153.807 17.9465 154.172 18.0172 154.587 18.0172C154.882 18.0172 155.202 17.9826 155.542 17.8929C155.79 17.8302 155.911 17.7614 156.099 17.6675C156.217 17.6072 156.346 17.5541 156.446 17.4976C156.749 17.3277 156.998 17.1184 157.175 16.8868C157.214 16.8389 157.248 16.79 157.278 16.7407C157.28 16.7388 157.282 16.7369 157.283 16.7345C157.298 16.7084 157.314 16.6818 157.328 16.6552C157.33 16.6519 157.332 16.6486 157.334 16.6467C157.347 16.6206 157.36 16.5955 157.371 16.5689C157.373 16.5651 157.375 16.5603 157.377 16.557C157.389 16.5304 157.4 16.5053 157.409 16.4797C157.411 16.4759 157.413 16.4711 157.415 16.4668C157.423 16.4407 157.433 16.4142 157.44 16.3876C157.441 16.3843 157.443 16.38 157.443 16.3762C157.451 16.3492 157.458 16.3226 157.464 16.2951C157.464 16.2913 157.465 16.2884 157.466 16.2846C157.472 16.2571 157.476 16.2291 157.48 16.2006C157.48 16.1982 157.48 16.1964 157.48 16.1945C157.485 16.165 157.487 16.1351 157.488 16.1052C157.514 15.485 157.07 15.1737 156.673 14.9383C156.286 14.7115 155.895 14.5207 155.483 14.3261C155.482 14.3261 155.481 14.3257 155.48 14.3257C155.454 14.3119 155.151 14.1615 154.667 13.9346C154.439 13.8079 154.085 13.6532 153.806 13.5441C153.804 13.5431 153.803 13.5422 153.802 13.5417C153.792 13.5379 153.781 13.5336 153.771 13.5303C153.769 13.5303 153.766 13.5284 153.764 13.5279C153.755 13.5237 153.746 13.5194 153.737 13.517C153.732 13.5156 153.729 13.5142 153.725 13.5123C153.717 13.5099 153.709 13.5061 153.701 13.5032C153.698 13.5018 153.692 13.4999 153.688 13.498C153.681 13.4952 153.674 13.4928 153.667 13.4895C153.662 13.4881 153.657 13.4866 153.653 13.4843C153.646 13.4824 153.64 13.4795 153.633 13.4776C153.628 13.4757 153.624 13.4738 153.618 13.4719C153.612 13.47 153.607 13.4681 153.601 13.4662C153.596 13.4648 153.591 13.462 153.585 13.461C153.582 13.4591 153.576 13.4572 153.571 13.4553C153.566 13.4534 153.561 13.4515 153.557 13.4496C153.552 13.4482 153.547 13.4473 153.543 13.4449C153.537 13.4439 153.531 13.442 153.526 13.4401C153.523 13.4392 153.519 13.4378 153.516 13.4363C153.508 13.4344 153.5 13.4316 153.492 13.4287C153.409 13.3803 153.167 13.2968 153.046 13.2859C152.996 13.2721 152.928 13.2593 152.835 13.2052C152.798 13.1639 152.788 13.1179 152.748 13.0742C152.568 13.0904 152.234 13.1559 152.025 13.172C152.014 13.172 152.004 13.1744 151.994 13.1753C151.985 13.1758 151.978 13.1772 151.969 13.1796C151.966 13.1801 151.964 13.1801 151.961 13.1806C151.955 13.181 151.951 13.1824 151.945 13.1829C151.94 13.1848 151.936 13.1853 151.934 13.1867C151.929 13.1877 151.924 13.1886 151.918 13.19C151.914 13.191 151.909 13.1919 151.907 13.1934C151.901 13.1943 151.896 13.1957 151.89 13.1976C151.886 13.1986 151.881 13.1995 151.878 13.2014C151.872 13.2024 151.867 13.2038 151.863 13.2052C151.858 13.2062 151.853 13.2071 151.849 13.209C151.843 13.21 151.838 13.2123 151.834 13.2138C151.828 13.2157 151.824 13.2166 151.819 13.2185C151.815 13.2199 151.809 13.2218 151.804 13.2237C151.799 13.2247 151.794 13.2271 151.79 13.228C151.784 13.2299 151.779 13.2323 151.773 13.2332C151.768 13.2356 151.765 13.2375 151.759 13.238C151.754 13.2403 151.748 13.2427 151.742 13.2446C151.738 13.246 151.733 13.2479 151.729 13.2503C151.72 13.2527 151.713 13.2555 151.704 13.2589C151.697 13.2612 151.692 13.2631 151.685 13.2664C151.679 13.2688 151.675 13.2707 151.669 13.2731C151.663 13.2745 151.658 13.2774 151.653 13.2788C151.649 13.2807 151.644 13.2821 151.638 13.2845C151.633 13.2859 151.628 13.2883 151.623 13.2902C151.618 13.2925 151.612 13.2944 151.608 13.2963C151.603 13.2992 151.598 13.3011 151.593 13.303C151.588 13.3044 151.583 13.3073 151.578 13.3092C151.572 13.3115 151.568 13.313 151.563 13.3158C151.557 13.3177 151.553 13.3201 151.548 13.322C151.543 13.3243 151.538 13.3267 151.534 13.3281C151.528 13.33 151.523 13.3319 151.518 13.3343C151.514 13.3367 151.508 13.3381 151.504 13.3405C151.499 13.3428 151.494 13.3447 151.49 13.3466C151.484 13.349 151.48 13.3509 151.476 13.3523C151.471 13.3542 151.466 13.3571 151.461 13.3595C151.456 13.3614 151.454 13.3633 151.449 13.3647C151.443 13.3675 151.437 13.3704 151.432 13.3727C151.429 13.3737 151.427 13.3746 151.423 13.3765C151.414 13.3799 151.407 13.3841 151.397 13.3875C151.395 13.3879 151.394 13.3889 151.392 13.3894C151.385 13.3927 151.379 13.3955 151.373 13.3988C151.371 13.4003 151.368 13.4007 151.366 13.4012C151.36 13.4041 151.355 13.4069 151.349 13.4093C151.346 13.4102 151.345 13.4121 151.342 13.4126C151.337 13.415 151.333 13.4178 151.328 13.4197C151.325 13.4207 151.324 13.4226 151.321 13.4235C151.316 13.4249 151.311 13.4268 151.308 13.4287C151.306 13.4297 151.304 13.4316 151.302 13.4316C151.297 13.434 151.293 13.4363 151.288 13.4392C151.286 13.4392 151.286 13.4401 151.285 13.4401C151.28 13.442 151.276 13.4449 151.271 13.4468C151.27 13.4473 151.27 13.4477 151.269 13.4482C151.254 13.4548 151.241 13.4601 151.233 13.4643C151.313 13.3965 151.617 13.1488 151.852 13.1041C151.919 13.0923 151.94 13.0809 151.927 13.0747C151.927 13.0747 151.927 13.0747 151.928 13.0747C151.931 13.0743 151.932 13.0728 151.934 13.0719C151.934 13.0719 151.935 13.0714 151.935 13.0709C151.937 13.07 151.938 13.069 151.938 13.0686C151.938 13.0681 151.939 13.0681 151.939 13.0681C151.939 13.0667 151.939 13.0662 151.938 13.0662C151.938 13.0657 151.938 13.0648 151.937 13.0643C151.937 13.0643 151.936 13.0638 151.935 13.0629C151.934 13.0624 151.933 13.0624 151.932 13.0624C151.931 13.061 151.929 13.061 151.927 13.0605C151.927 13.06 151.926 13.06 151.925 13.0595C151.924 13.0595 151.92 13.0595 151.917 13.0591C151.916 13.0591 151.916 13.0591 151.916 13.0591C151.904 13.0572 151.885 13.0572 151.862 13.0581C151.855 13.0586 151.846 13.0591 151.839 13.0595C151.836 13.0595 151.832 13.0595 151.829 13.0595C151.824 13.0605 151.818 13.061 151.813 13.0619C151.808 13.0624 151.804 13.0629 151.799 13.0633C151.789 13.0643 151.779 13.0662 151.768 13.0671C151.63 13.0871 151.436 13.1359 151.272 13.2361C151.188 13.2864 151.141 13.3077 151.116 13.3115C151.115 13.312 151.113 13.3115 151.11 13.3115C151.108 13.3106 151.106 13.3106 151.103 13.3101C151.103 13.3096 151.102 13.3082 151.102 13.3077C151.101 13.3063 151.1 13.3049 151.1 13.3025C151.1 13.302 151.099 13.302 151.099 13.3011C151.1 13.2973 151.101 13.2949 151.102 13.2911C151.103 13.2911 151.103 13.2902 151.103 13.2897C151.105 13.2854 151.108 13.2807 151.111 13.2769C151.147 13.2223 151.225 13.1431 151.225 13.1431C151.225 13.1431 151.584 12.8664 151.937 12.7985C152.237 12.7387 152.347 12.5997 152.371 12.5608C152.381 12.5475 152.385 12.539 152.385 12.539C152.385 12.539 152.384 12.539 152.383 12.539C152.382 12.539 152.267 12.528 152.178 12.528L151.932 12.5413C151.837 12.5522 151.732 12.5736 151.667 12.6006C151.659 12.604 151.374 12.7164 151.373 12.7169C151.183 12.7876 150.972 12.8607 150.865 12.8991C150.863 12.8996 150.807 12.9186 150.799 12.9214C150.848 12.874 151.033 12.705 151.442 12.5081C151.829 12.3221 151.949 12.2808 152.033 12.2708C152.096 12.2618 152.143 12.2789 152.143 12.2789L152.147 12.2015C152.147 12.2015 152.082 12.0919 152.164 11.9851C152.229 11.9002 152.255 11.8703 152.34 11.8039C152.492 11.6843 152.795 11.5908 153.037 11.4921C153.211 11.4199 153.387 11.3488 153.556 11.2852C153.739 11.2159 153.922 11.1566 154.088 11.0844C154.269 11.0052 154.42 10.9193 154.576 10.8595C154.784 10.7309 154.967 10.6915 155.134 10.6716C155.368 10.6583 155.872 10.6346 156.206 10.5971C156.334 10.5824 156.56 10.551 156.56 10.551C156.56 10.551 156.939 10.4666 157.064 10.4685C157.182 10.4694 157.257 10.4974 157.4 10.5055C157.548 10.5145 157.709 10.5112 157.804 10.552C158.005 10.6407 158.12 10.6346 158.286 10.7375C158.446 10.8343 158.699 10.99 158.955 11.0607C160.028 11.3502 160.828 11.3065 161.898 11.3203C161.913 11.3203 161.928 11.3203 161.944 11.3203C162.299 11.3203 162.797 11.2728 163.211 11.223C163.716 11.1599 164.235 11.0811 164.853 10.8984C165.7 10.6497 166.242 10.3014 166.553 9.86103C166.553 9.86103 166.786 9.58817 166.874 9.08229C166.968 8.44876 166.584 8.1664 166.171 7.98986ZM162.248 4.04725C162.236 4.03397 162.223 4.02068 162.212 4.00739C162.279 3.95187 162.345 3.8954 162.411 3.8394C162.439 3.8674 162.424 3.85411 162.452 3.88211C162.465 3.89492 162.468 3.90252 162.489 3.89872C162.493 3.89824 162.496 3.89824 162.5 3.89777C162.424 3.94523 162.342 3.99268 162.248 4.04725ZM162.647 3.80096C162.597 3.80808 162.554 3.81282 162.537 3.81425C162.517 3.79242 162.515 3.78957 162.496 3.76822C162.535 3.73452 162.603 3.68137 162.642 3.64958C162.666 3.67378 162.7 3.70605 162.735 3.73879C162.705 3.76062 162.676 3.78103 162.647 3.80096ZM162.953 3.57033C162.92 3.52762 162.892 3.48633 162.873 3.45975C162.925 3.41942 162.975 3.37955 163.025 3.33874C163.045 3.36295 163.039 3.35583 163.062 3.38098C163.069 3.39094 163.103 3.39901 163.103 3.39901C163.106 3.39806 163.131 3.39664 163.163 3.39427C163.098 3.45074 163.027 3.51101 162.953 3.57033ZM163.249 3.31549C163.204 3.31786 163.154 3.32213 163.139 3.32356L163.096 3.2818C163.118 3.26329 163.181 3.21441 163.204 3.19638C163.222 3.21868 163.255 3.2519 163.283 3.28369C163.272 3.29366 163.26 3.30458 163.249 3.31549ZM163.5 3.04737C163.488 3.0673 163.466 3.0953 163.435 3.12804C163.414 3.10004 163.394 3.07537 163.38 3.05638C163.426 3.02079 163.47 2.9852 163.515 2.95151C163.526 2.9629 163.531 2.97144 163.538 2.97998C163.527 3.00276 163.514 3.02459 163.5 3.04737ZM163.673 2.03087C163.533 2.02043 163.411 2.05365 163.365 2.06599C163.324 2.0731 163.282 2.09398 163.284 2.12436C163.286 2.16469 163.366 2.14191 163.403 2.14713C163.469 2.14571 163.597 2.159 163.709 2.22116C163.717 2.34455 163.708 2.46366 163.686 2.5804C163.376 2.21832 162.946 2.37824 162.851 2.41146C162.804 2.4219 162.764 2.44658 162.769 2.47885C162.774 2.52061 162.856 2.4817 162.896 2.48359C163.018 2.47363 163.345 2.49214 163.452 2.76311C163.339 2.84568 163.216 2.93774 163.17 2.97191C162.812 2.60508 162.339 2.79206 162.23 2.83287C162.178 2.84663 162.131 2.87605 162.138 2.91212C162.146 2.95815 162.239 2.91212 162.285 2.91212C162.418 2.89646 162.772 2.905 162.909 3.17265C162.785 3.27088 162.645 3.38003 162.593 3.42084C162.176 3.04547 161.651 3.29556 161.534 3.34871C161.479 3.36722 161.43 3.40186 161.439 3.43698C161.45 3.48253 161.549 3.42749 161.596 3.42227C161.747 3.39094 162.156 3.35915 162.31 3.65195C162.136 3.79384 161.933 3.95899 161.904 3.98366L161.9 3.98461C161.437 3.62443 160.892 3.91723 160.769 3.97844C160.712 4.00122 160.663 4.03871 160.674 4.07336C160.687 4.12034 160.789 4.05675 160.84 4.04773C160.998 4.00597 161.427 3.9476 161.608 4.23328C161.499 4.32345 161.352 4.43307 161.21 4.55503C161.199 4.54317 161.195 4.54317 161.183 4.5332C160.573 4.20671 159.976 4.61293 159.845 4.69977C159.819 4.71306 159.797 4.72919 159.778 4.74628C159.703 4.73773 159.629 4.72729 159.555 4.71543C160.888 3.60165 162.235 2.62406 163.573 1.79169C163.617 1.87664 163.651 1.96158 163.673 2.03087ZM162.983 1.52642C162.993 1.53353 163.018 1.55204 163.058 1.53259L163.06 1.53116H163.062C163.09 1.5136 163.096 1.49177 163.096 1.47611C163.098 1.46093 163.093 1.44337 163.088 1.42913C163.079 1.4054 163.069 1.3831 163.059 1.36222C163.07 1.35558 163.081 1.34988 163.092 1.34276C163.166 1.36839 163.228 1.40256 163.317 1.45618C163.334 1.4671 163.353 1.48228 163.371 1.49889C163.367 1.51028 163.367 1.52309 163.366 1.53448C163.369 1.5658 163.375 1.59523 163.383 1.62038C163.386 1.62797 163.387 1.63319 163.39 1.64078C163.292 1.69963 163.192 1.76227 163.095 1.82349C163.075 1.79407 163.051 1.7561 163.017 1.73617C162.999 1.7262 162.985 1.71956 162.962 1.73C162.933 1.74471 162.931 1.76417 162.927 1.78078C162.921 1.82539 162.937 1.8866 162.943 1.91792C162.822 1.99623 162.699 2.07405 162.579 2.15378C162.554 2.12483 162.53 2.08687 162.493 2.06504C162.477 2.05697 162.462 2.04938 162.438 2.05792C162.411 2.07358 162.408 2.09304 162.405 2.10822C162.399 2.1552 162.417 2.22164 162.427 2.25581C162.271 2.35736 162.116 2.46176 161.961 2.56807C161.961 2.56712 161.96 2.56712 161.959 2.56522H161.957L161.952 2.56379C161.922 2.55905 161.884 2.50922 161.846 2.48549C161.835 2.47695 161.813 2.47458 161.797 2.48217C161.77 2.49688 161.756 2.51871 161.75 2.53817C161.747 2.5581 161.748 2.57566 161.753 2.59132C161.763 2.62691 161.783 2.65443 161.8 2.68053C161.617 2.80914 161.434 2.93964 161.249 3.07109C161.198 3.05733 161.138 3.0431 161.108 3.01177C161.108 3.01177 161.048 2.97903 161.028 2.9871C160.997 3.00513 160.987 3.02933 160.979 3.04879C160.978 3.06113 160.987 3.10858 160.991 3.11428C161.009 3.14607 161.034 3.18214 161.062 3.20824C160.807 3.39522 160.552 3.58836 160.297 3.78483C160.234 3.76679 160.163 3.72029 160.091 3.71459C160.082 3.71174 160.067 3.71079 160.05 3.71791C160.025 3.72883 160.014 3.74923 160.01 3.76774C160.004 3.78862 160.006 3.79906 160.007 3.81377C160.008 3.81804 160.008 3.82089 160.009 3.82374C160.011 3.83608 160.017 3.84272 160.019 3.84794C160.034 3.87547 160.065 3.91723 160.087 3.94807C159.82 4.15783 159.528 4.40412 159.246 4.64425C159.025 4.57876 158.836 4.48669 158.719 4.36189C158.911 4.2086 159.106 4.05675 159.297 3.91011C159.305 3.93811 159.316 3.97797 159.327 4.0036C159.33 4.01024 159.334 4.01641 159.344 4.02827C159.355 4.03634 159.368 4.04631 159.388 4.04963C159.399 4.04963 159.407 4.04915 159.418 4.04346C159.437 4.03587 159.451 4.01878 159.457 4.00502C159.467 3.98319 159.469 3.96705 159.47 3.95329C159.472 3.88923 159.48 3.82611 159.489 3.76489C159.765 3.55372 160.042 3.34681 160.319 3.1475C160.319 3.14987 160.321 3.15319 160.321 3.15509C160.327 3.18309 160.335 3.21583 160.346 3.24004C160.349 3.24431 160.354 3.25427 160.364 3.26329C160.374 3.27183 160.388 3.27753 160.402 3.28085L160.403 3.2818H160.404C160.413 3.28322 160.426 3.2818 160.44 3.27515C160.465 3.26661 160.479 3.24098 160.481 3.2201C160.5 3.15509 160.498 3.07252 160.509 3.0132C160.71 2.86941 160.909 2.72941 161.112 2.59464C161.119 2.62264 161.131 2.66203 161.144 2.68765C161.146 2.69382 161.168 2.7223 161.189 2.72799C161.193 2.72799 161.209 2.74555 161.236 2.73131C161.28 2.70758 161.281 2.63355 161.281 2.63355C161.281 2.63355 161.286 2.52203 161.292 2.47078C161.461 2.35879 161.629 2.24679 161.796 2.13812C161.81 2.16991 161.826 2.20645 161.855 2.22828C161.863 2.23445 161.872 2.24015 161.88 2.24347C161.897 2.24679 161.912 2.24442 161.929 2.23872C161.953 2.22733 161.973 2.20076 161.97 2.17703C161.971 2.13764 161.971 2.07643 161.961 2.03182C162.106 1.94023 162.252 1.84816 162.399 1.75847C162.423 1.79264 162.454 1.83915 162.501 1.85386C162.515 1.85718 162.531 1.85671 162.548 1.84911C162.573 1.8401 162.59 1.81257 162.589 1.79074C162.589 1.76844 162.586 1.74708 162.578 1.7262C162.572 1.70295 162.563 1.68254 162.554 1.66261C162.671 1.59143 162.79 1.52167 162.907 1.45239C162.931 1.47754 162.952 1.50506 162.983 1.52642ZM158.537 3.93621C158.668 3.79242 159.042 3.39284 159.135 2.88459C159.277 2.76073 159.424 2.64542 159.573 2.54339L159.59 2.53105L159.605 2.51919C159.685 2.45512 159.796 2.37255 159.923 2.28286C159.892 2.53959 159.773 2.80344 159.698 2.93964C159.66 3.0075 159.521 3.14797 159.57 3.1698C159.609 3.18546 159.688 3.11523 159.75 3.03835C159.855 2.90547 160.152 2.53722 160.213 2.08829C160.373 1.98673 160.542 1.8866 160.702 1.8064C160.681 2.02138 160.602 2.23066 160.548 2.3474C160.516 2.41383 160.395 2.5524 160.445 2.56901C160.485 2.58183 160.554 2.51159 160.608 2.43661C160.687 2.32652 160.882 2.03894 160.949 1.69204C161.1 1.6256 161.252 1.55963 161.409 1.50032C161.39 1.63841 161.353 1.76274 161.323 1.84105C161.297 1.90653 161.193 2.04273 161.244 2.0546C161.282 2.06456 161.344 1.99575 161.391 1.9222C161.441 1.83772 161.551 1.65597 161.614 1.42771C161.768 1.36791 161.917 1.34276 161.997 1.33232C161.997 1.33232 161.979 1.39829 161.969 1.42391C161.945 1.4894 161.842 1.62323 161.893 1.63604C161.933 1.646 161.994 1.57672 162.038 1.50269C162.064 1.45903 162.107 1.38642 162.149 1.29436C162.173 1.28819 162.193 1.28392 162.202 1.28107C162.279 1.26731 162.367 1.26019 162.46 1.26019C162.461 1.26019 162.463 1.26019 162.464 1.26019C162.463 1.27917 162.468 1.29246 162.483 1.29626C162.504 1.30243 162.528 1.28771 162.553 1.26209C162.612 1.26541 162.675 1.27063 162.743 1.27917C161.35 2.07453 159.947 3.02554 158.55 4.12366C158.525 4.07763 158.505 4.03207 158.487 3.98604C158.505 3.9699 158.521 3.95282 158.537 3.93621ZM156.589 15.5092C156.655 15.5543 156.711 15.5965 156.757 15.6402C156.756 15.6402 156.756 15.6406 156.756 15.6406C156.681 15.6188 156.606 15.596 156.529 15.5714C156.549 15.551 156.569 15.5301 156.589 15.5092ZM156.388 15.3811C156.412 15.3944 156.433 15.4076 156.455 15.4219C156.421 15.4579 156.386 15.495 156.362 15.5192C156.313 15.5025 156.224 15.4783 156.173 15.4608C156.187 15.448 156.225 15.4067 156.238 15.3939C156.273 15.3868 156.318 15.3777 156.365 15.3678C156.372 15.372 156.379 15.3768 156.388 15.3811ZM156.087 15.2116C156.15 15.2453 156.213 15.2809 156.275 15.316C156.262 15.3198 156.25 15.3222 156.236 15.3246C156.229 15.3265 156.221 15.3289 156.213 15.3327C156.195 15.3393 156.178 15.3516 156.165 15.3654C156.144 15.3863 156.123 15.4067 156.104 15.4285C156.051 15.4086 155.999 15.3896 155.944 15.3673C155.989 15.3156 156.037 15.2638 156.087 15.2116ZM155.932 15.1295C155.884 15.1846 155.816 15.2563 155.775 15.2985C155.735 15.2809 155.656 15.2525 155.613 15.2335C155.672 15.1708 155.68 15.1609 155.72 15.1466C155.754 15.1405 155.824 15.1248 155.894 15.1106C155.907 15.1172 155.92 15.1239 155.932 15.1295ZM155.551 14.9397C155.633 14.9791 155.715 15.0199 155.797 15.0607C155.768 15.0679 155.739 15.0726 155.711 15.0797C155.7 15.0821 155.691 15.0849 155.682 15.0897C155.666 15.0959 155.648 15.1077 155.636 15.1201C155.608 15.1476 155.582 15.1751 155.556 15.2012C155.492 15.1737 155.433 15.1433 155.372 15.112C155.43 15.0546 155.49 14.9976 155.551 14.9397ZM155.381 14.8576C155.32 14.9169 155.243 14.9872 155.204 15.0242C155.155 14.9971 155.076 14.9506 155.032 14.9217C155.05 14.9032 155.079 14.8723 155.123 14.8505C155.159 14.8439 155.224 14.8306 155.296 14.8173C155.324 14.8306 155.354 14.8443 155.381 14.8576ZM154.932 14.6455C155.019 14.6863 155.106 14.7267 155.184 14.7632C155.168 14.767 155.156 14.7698 155.147 14.7722C155.137 14.7732 155.125 14.7755 155.112 14.7831C155.096 14.7898 155.064 14.8073 155.054 14.8187C155.024 14.8472 155.005 14.8624 154.974 14.889C154.912 14.85 154.857 14.8125 154.796 14.7717C154.821 14.748 154.877 14.6949 154.932 14.6455ZM154.669 14.5212C154.7 14.5368 154.736 14.5525 154.772 14.57C154.707 14.6185 154.644 14.6664 154.628 14.6797C154.586 14.6365 154.548 14.6142 154.507 14.5682C154.507 14.5682 154.581 14.5468 154.669 14.5212ZM154.317 14.3427C154.369 14.3698 154.418 14.3959 154.455 14.4196L154.482 14.4348L154.509 14.4481C154.509 14.4481 154.522 14.4538 154.543 14.4633C154.515 14.4723 154.495 14.4775 154.49 14.4799C154.473 14.487 154.456 14.4993 154.441 14.5112C154.405 14.542 154.478 14.4794 154.438 14.5112C154.394 14.4737 154.326 14.4025 154.271 14.347C154.287 14.3461 154.302 14.3442 154.317 14.3427ZM153.222 14.5924C153.252 14.5843 153.283 14.5753 153.315 14.5629C153.473 14.5136 153.626 14.4675 153.706 14.4429C153.724 14.4604 153.753 14.4471 153.781 14.4248C153.813 14.4187 153.846 14.4115 153.877 14.4059C153.905 14.4576 153.961 14.5349 153.963 14.5373L154.019 14.5947C154.073 14.6517 154.131 14.7048 154.185 14.7513L154.24 14.795C153.852 15.037 153.473 15.0669 153.34 15.0626C153.289 15.0664 153.227 15.0289 153.175 15.0731C153.133 15.1068 153.158 15.1305 153.203 15.1405C153.287 15.1708 153.65 15.3179 154.411 14.9293C154.452 14.9582 154.489 14.9839 154.522 15.0076L154.598 15.0569C154.643 15.0849 154.687 15.1139 154.736 15.1419L154.78 15.1689C154.429 15.4005 154.046 15.4693 153.9 15.4831C153.844 15.4921 153.764 15.4679 153.718 15.5125C153.681 15.5491 153.716 15.5661 153.769 15.5685C153.87 15.5842 154.294 15.6596 154.978 15.2786C155.019 15.299 155.06 15.3222 155.107 15.3431L155.2 15.3887C155.243 15.4076 155.288 15.4285 155.337 15.4499L155.343 15.4518C155.043 15.6592 154.694 15.7593 154.551 15.7887C154.49 15.8058 154.388 15.7977 154.353 15.8447C154.323 15.8793 154.37 15.8888 154.433 15.8827C154.545 15.8817 154.983 15.8827 155.554 15.5377C155.6 15.5566 155.647 15.5747 155.695 15.5918L155.801 15.6307C155.834 15.6435 155.87 15.6558 155.907 15.6663L155.915 15.6701C155.658 15.8604 155.349 15.9743 155.214 16.0132C155.15 16.0355 155.037 16.0397 155.011 16.0858C154.988 16.1214 155.043 16.1247 155.112 16.1119C155.223 16.0976 155.651 16.053 156.133 15.7427C156.174 15.7541 156.214 15.7669 156.252 15.7778L156.371 15.8115C156.407 15.8224 156.443 15.8333 156.48 15.8428L156.548 15.8604C156.305 16.0507 156.009 16.175 155.873 16.2196C155.811 16.2457 155.69 16.258 155.668 16.3027C155.653 16.3378 155.712 16.3373 155.782 16.3216C155.896 16.3008 156.327 16.2324 156.777 15.9197C156.808 15.9273 156.836 15.9344 156.866 15.9415L156.947 15.96C156.953 16.0008 156.955 16.0426 156.953 16.0886C156.952 16.1223 156.947 16.157 156.94 16.1926C156.811 16.287 156.684 16.3586 156.606 16.3966C156.546 16.4308 156.415 16.4635 156.412 16.5067C156.408 16.539 156.477 16.5257 156.548 16.4977C156.603 16.4797 156.728 16.4398 156.882 16.3681C156.834 16.4697 156.765 16.5703 156.677 16.6657C154.984 16.38 153.385 15.69 152.779 14.8685C152.914 14.7537 153.06 14.665 153.222 14.5924ZM152.402 15.2795C152.414 15.2786 152.429 15.2738 152.438 15.2705C152.496 15.2496 152.549 15.2321 152.604 15.215C152.617 15.2283 152.631 15.243 152.644 15.2572C152.773 15.401 152.928 15.532 153.1 15.6549C153.072 15.6715 153.034 15.6943 153.007 15.7152C153 15.7208 152.986 15.7318 152.978 15.7436C152.968 15.7536 152.964 15.7621 152.959 15.7716C152.96 15.7716 152.958 15.7749 152.957 15.7778C152.955 15.7954 152.96 15.8134 153.006 15.801C153.075 15.7897 153.161 15.7536 153.221 15.7365C153.373 15.8347 153.539 15.9292 153.721 16.0151C153.689 16.0355 153.649 16.0606 153.621 16.0834C153.614 16.0896 153.599 16.1005 153.59 16.1138C153.584 16.1218 153.583 16.1261 153.58 16.1313C153.579 16.1347 153.579 16.1351 153.579 16.138C153.577 16.1432 153.57 16.157 153.587 16.1669C153.601 16.1731 153.622 16.1726 153.648 16.1631C153.65 16.1622 153.655 16.1608 153.661 16.1579C153.663 16.157 153.664 16.1551 153.67 16.1541H153.669L153.676 16.1517L153.685 16.1498L153.697 16.1441C153.698 16.1441 153.701 16.1427 153.701 16.1404C153.721 16.1328 153.74 16.1247 153.76 16.1185C153.793 16.1057 153.829 16.0962 153.866 16.0844C154.026 16.1574 154.197 16.2281 154.375 16.2932C154.342 16.3188 154.302 16.3515 154.284 16.3833C154.282 16.3866 154.278 16.3914 154.277 16.3961C154.275 16.3999 154.274 16.4037 154.274 16.4075C154.278 16.4256 154.291 16.4469 154.35 16.4313C154.355 16.4298 154.36 16.4275 154.366 16.4241C154.409 16.4066 154.475 16.3795 154.528 16.3482C154.691 16.4056 154.862 16.4588 155.038 16.51C155.015 16.5385 154.975 16.5779 154.966 16.6116C154.963 16.6206 154.962 16.6268 154.962 16.6334C154.968 16.6533 154.993 16.6685 155.046 16.6548C155.051 16.6533 155.059 16.651 155.064 16.6486C155.124 16.6225 155.169 16.5864 155.205 16.5584C155.352 16.5992 155.503 16.6382 155.659 16.6742C155.639 16.7036 155.613 16.7388 155.603 16.7701C155.6 16.7815 155.594 16.8066 155.631 16.8171C155.65 16.8223 155.672 16.818 155.694 16.8118C155.699 16.8099 155.705 16.8066 155.713 16.8052C155.769 16.7786 155.807 16.7435 155.837 16.7174C156.015 16.7577 156.201 16.7967 156.389 16.8332C156.379 16.8512 156.357 16.8854 156.35 16.9167C156.348 16.9262 156.347 16.9348 156.349 16.9447C156.297 16.9798 156.242 17.0135 156.184 17.0458C156.133 17.0738 156.076 17.0999 156.016 17.1289C156.004 17.1336 155.993 17.1388 155.982 17.1445C155.95 17.1379 155.919 17.1326 155.889 17.126C155.915 17.1028 155.96 17.0605 155.969 17.0273C155.973 17.0178 155.97 17.0097 155.966 17.0017C155.951 16.9822 155.915 16.9803 155.875 16.9927C155.806 17.0145 155.736 17.0586 155.697 17.088C155.552 17.0586 155.411 17.0278 155.273 16.995C155.299 16.968 155.338 16.931 155.349 16.8968C155.351 16.8939 155.351 16.893 155.351 16.8906C155.355 16.8754 155.352 16.8626 155.338 16.8569C155.323 16.8522 155.301 16.8565 155.279 16.8631C155.213 16.8845 155.136 16.9276 155.096 16.9523C154.929 16.9115 154.77 16.8693 154.614 16.8256C154.643 16.7948 154.682 16.7563 154.695 16.7184C154.695 16.7184 154.696 16.7184 154.695 16.7174C154.695 16.7165 154.697 16.7165 154.698 16.715C154.702 16.698 154.701 16.687 154.688 16.6832C154.676 16.6771 154.654 16.6818 154.632 16.6894C154.568 16.7117 154.492 16.7525 154.45 16.7782C154.262 16.7217 154.079 16.6628 153.907 16.6002C153.91 16.5983 153.911 16.594 153.912 16.5921L153.915 16.5893V16.5869C153.914 16.5826 153.916 16.5779 153.918 16.5741C153.928 16.5461 153.968 16.5086 153.984 16.4749C153.984 16.474 153.986 16.4711 153.987 16.4697C153.994 16.4403 153.957 16.4346 153.914 16.4436C153.908 16.4436 153.903 16.4474 153.899 16.4479C153.828 16.474 153.784 16.5115 153.751 16.5409C153.557 16.4687 153.374 16.3914 153.207 16.3083C153.216 16.2846 153.223 16.2533 153.235 16.2243C153.244 16.2058 153.253 16.1878 153.265 16.175L153.276 16.165H153.273L153.275 16.1636L153.276 16.1617C153.277 16.1584 153.278 16.1565 153.277 16.156C153.28 16.1503 153.281 16.1451 153.286 16.1441C153.288 16.1399 153.29 16.1347 153.293 16.1332C153.3 16.1038 153.263 16.1029 153.23 16.1086L153.229 16.1105H153.226C153.221 16.1114 153.216 16.1133 153.212 16.1152C153.203 16.1185 153.196 16.1218 153.187 16.1247C153.159 16.1356 153.142 16.1498 153.136 16.1541C153.107 16.1783 153.075 16.2054 153.047 16.2329C152.83 16.1218 152.636 16.0027 152.465 15.8718C152.465 15.8708 152.467 15.8694 152.467 15.8675C152.488 15.8215 152.531 15.7621 152.555 15.7123C152.561 15.7004 152.565 15.6886 152.568 15.6781C152.579 15.6558 152.569 15.6425 152.536 15.6463C152.524 15.6497 152.512 15.6525 152.5 15.6573C152.492 15.6596 152.487 15.6625 152.483 15.6653L152.48 15.6667H152.479C152.453 15.6781 152.434 15.6938 152.434 15.6947C152.404 15.7156 152.37 15.7441 152.339 15.7716C152.285 15.718 152.259 15.6193 152.25 15.5049C152.295 15.4314 152.345 15.3564 152.402 15.2795ZM152.051 15.9126C152.76 16.575 154.036 17.0202 155.647 17.3073C155.575 17.3405 155.504 17.3657 155.401 17.3927C155.357 17.4046 155.314 17.4136 155.27 17.424C155.242 17.3704 155.207 17.3348 155.186 17.3163C155.159 17.2897 155.117 17.2726 155.078 17.2959C155.028 17.322 155.075 17.3913 155.086 17.4193C155.089 17.4302 155.092 17.443 155.094 17.4582C154.937 17.4843 154.78 17.4976 154.623 17.5C154.661 17.2902 154.564 17.1554 154.519 17.1156C154.486 17.0866 154.438 17.0695 154.393 17.0947C154.335 17.126 154.408 17.1939 154.419 17.2252C154.435 17.2712 154.434 17.3732 154.399 17.4943C154.23 17.4843 154.059 17.4606 153.889 17.4235C153.981 17.1469 153.845 16.958 153.79 16.9115C153.756 16.8821 153.7 16.8626 153.65 16.8916C153.586 16.9272 153.675 16.9722 153.688 17.0064C153.71 17.061 153.739 17.1967 153.671 17.3671C153.662 17.3647 153.655 17.3628 153.647 17.3604C153.463 17.3049 153.294 17.2427 153.135 17.1754C153.272 16.8807 153.123 16.6999 153.073 16.6486C153.041 16.6154 152.989 16.5955 152.937 16.623C152.868 16.659 152.955 16.7089 152.962 16.744C152.976 16.8005 152.985 16.9295 152.926 17.0795C152.749 16.9931 152.586 16.8968 152.432 16.79C152.602 16.4759 152.448 16.3207 152.396 16.2647C152.368 16.2334 152.317 16.2134 152.263 16.2419C152.197 16.2775 152.279 16.3245 152.287 16.3591C152.299 16.4165 152.3 16.5252 152.245 16.6562C152.142 16.5826 152.044 16.511 151.95 16.4403C151.951 16.286 151.981 16.1081 152.051 15.9126ZM165.336 10.1704C165.307 10.1353 165.264 10.1111 165.223 10.141C165.196 10.1605 165.202 10.1923 165.214 10.2245C165.095 10.2744 164.963 10.3233 164.815 10.3702C164.771 10.2416 164.683 10.1714 164.643 10.1401C164.605 10.1092 164.55 10.0926 164.511 10.1244C164.461 10.1657 164.553 10.2079 164.57 10.2454C164.591 10.2829 164.614 10.346 164.622 10.4281C164.48 10.4685 164.343 10.5036 164.208 10.5344C164.194 10.2639 164.002 10.15 163.931 10.1088C163.884 10.0793 163.821 10.0679 163.78 10.1045C163.726 10.1491 163.836 10.1842 163.86 10.2207C163.907 10.2829 163.964 10.4144 163.957 10.5871C163.758 10.627 163.561 10.6569 163.355 10.6863C163.373 10.2995 163.108 10.1866 163.015 10.1405C162.958 10.1125 162.882 10.1002 162.835 10.142C162.776 10.1937 162.908 10.2293 162.938 10.2668C162.995 10.3327 163.061 10.5093 163.049 10.7238C162.726 10.7613 162.437 10.7869 162.205 10.7983C162.192 10.3755 161.819 10.2782 161.694 10.2426C161.622 10.2207 161.53 10.2193 161.483 10.2668C161.421 10.3247 161.583 10.3418 161.626 10.3745C161.71 10.439 161.837 10.5881 161.85 10.8049C161.711 10.803 161.577 10.8026 161.444 10.8021C161.422 10.8021 161.402 10.8007 161.38 10.8007C161.267 10.7651 161.168 10.7162 161.071 10.6474C160.873 10.5045 160.772 10.3342 160.738 10.1553C162.588 9.94835 164.224 9.90707 165.597 10.0333C165.518 10.0793 165.431 10.1254 165.336 10.1704ZM166.138 9.55068C166.131 9.55495 166.125 9.55922 166.119 9.56349C166.066 9.60762 165.99 9.68592 165.955 9.72674C165.829 9.71297 165.705 9.69826 165.577 9.68972C165.609 9.63989 165.644 9.57962 165.66 9.52837C165.667 9.50654 165.672 9.48803 165.655 9.47902C165.629 9.47285 165.605 9.49325 165.587 9.50607C165.529 9.5502 165.452 9.6361 165.415 9.67643C165.251 9.66504 165.081 9.65603 164.908 9.64748C164.909 9.64654 164.909 9.64653 164.91 9.64321C164.91 9.64226 164.911 9.64037 164.911 9.63942C164.911 9.63942 164.911 9.63847 164.911 9.63562C164.906 9.60905 164.955 9.52837 164.971 9.47569C164.975 9.45766 164.971 9.44058 164.956 9.43726C164.932 9.43014 164.903 9.442 164.876 9.45861C164.852 9.47759 164.832 9.49658 164.816 9.51698C164.779 9.55732 164.751 9.60288 164.727 9.64084C164.52 9.63467 164.307 9.6323 164.091 9.6323C164.091 9.58057 164.083 9.52505 164.109 9.47237C164.111 9.46383 164.118 9.45339 164.122 9.4458C164.119 9.4458 164.116 9.4458 164.113 9.44627C164.114 9.4401 164.114 9.43631 164.119 9.43109C164.126 9.414 164.123 9.39692 164.104 9.3917C164.074 9.38553 164.043 9.40451 164.018 9.41827C164.004 9.43014 163.991 9.43868 163.982 9.4496C163.976 9.45529 163.973 9.45861 163.969 9.46383C163.958 9.47522 163.952 9.48329 163.947 9.49088C163.917 9.53691 163.888 9.58769 163.87 9.6342C163.563 9.63942 163.249 9.64891 162.922 9.66647C162.918 9.60762 162.933 9.51793 162.911 9.46431C162.91 9.45481 162.905 9.4458 162.888 9.4401C162.863 9.43536 162.836 9.44817 162.815 9.46098C162.791 9.47759 162.778 9.49041 162.765 9.50274C162.76 9.50797 162.758 9.50986 162.755 9.51413C162.743 9.52647 162.738 9.53454 162.734 9.54213C162.71 9.57725 162.68 9.63752 162.658 9.68118C162.174 9.71297 161.67 9.75853 161.149 9.8169C161.148 9.79365 161.149 9.75853 161.147 9.72294C161.142 9.68165 161.142 9.64321 161.108 9.6266C161.105 9.62328 161.098 9.62091 161.091 9.61901C161.065 9.61474 161.037 9.62803 161.016 9.63989L161.015 9.64037C161.014 9.64037 161.013 9.64179 161.012 9.64226C160.993 9.65698 160.975 9.67169 160.958 9.68925C160.958 9.68925 160.958 9.69019 160.956 9.69257C160.942 9.70443 160.937 9.71535 160.935 9.72104C160.911 9.76043 160.887 9.81026 160.877 9.8487C160.829 9.85534 160.78 9.86151 160.732 9.86768C160.758 9.68165 160.833 9.49468 160.927 9.32194C160.929 9.31719 160.932 9.31292 160.934 9.30913C161.407 9.24411 161.87 9.19144 162.314 9.1511C162.287 9.18337 162.252 9.22703 162.231 9.25787C162.227 9.26452 162.22 9.27496 162.215 9.28872C162.213 9.30343 162.206 9.31957 162.213 9.33712C162.217 9.34472 162.225 9.34851 162.236 9.35041C162.255 9.35468 162.279 9.34709 162.296 9.33712C162.324 9.32621 162.341 9.30913 162.359 9.29584C162.429 9.23984 162.496 9.18337 162.567 9.12927C162.933 9.09985 163.287 9.07754 163.632 9.06426C163.628 9.06758 163.627 9.07043 163.624 9.07375C163.596 9.10507 163.564 9.14351 163.545 9.17198C163.541 9.18005 163.532 9.19239 163.527 9.20947C163.521 9.22228 163.519 9.23699 163.521 9.25028C163.521 9.25028 163.521 9.25076 163.521 9.25171C163.521 9.25171 163.522 9.25313 163.523 9.25313C163.527 9.2612 163.532 9.26784 163.545 9.27164C163.567 9.27591 163.6 9.26357 163.624 9.24411C163.705 9.19428 163.794 9.11266 163.866 9.05761C164.111 9.05002 164.351 9.0486 164.585 9.05002C164.556 9.08609 164.517 9.13402 164.492 9.16866C164.486 9.17957 164.476 9.19286 164.47 9.21184C164.466 9.22228 164.463 9.2332 164.464 9.24174C164.465 9.24506 164.459 9.26926 164.484 9.27496C164.486 9.27496 164.489 9.27496 164.493 9.27733C164.528 9.27733 164.553 9.25835 164.574 9.23937C164.581 9.23272 164.588 9.2275 164.594 9.21944H164.596C164.599 9.21801 164.6 9.21754 164.601 9.21611C164.601 9.21516 164.602 9.21516 164.605 9.21422C164.606 9.21232 164.607 9.21089 164.608 9.21089C164.611 9.20757 164.614 9.2033 164.616 9.20188C164.616 9.20188 164.616 9.20093 164.618 9.20093C164.673 9.14968 164.734 9.09985 164.795 9.05381C164.988 9.05856 165.177 9.06426 165.361 9.0747C165.33 9.11835 165.292 9.16866 165.275 9.21516C165.272 9.22608 165.268 9.23699 165.268 9.24791C165.268 9.26357 165.277 9.27448 165.292 9.27733C165.309 9.28635 165.347 9.27259 165.373 9.24506C165.419 9.20378 165.49 9.14161 165.541 9.08466C165.698 9.09653 165.852 9.10839 166.005 9.12358C165.97 9.18147 165.924 9.25313 165.918 9.30818C165.921 9.32289 165.927 9.33475 165.938 9.3376C165.959 9.34709 165.993 9.33428 166.021 9.30628C166.047 9.28303 166.072 9.2574 166.095 9.22845C166.12 9.19808 166.144 9.16866 166.165 9.14066C166.217 9.14588 166.268 9.15205 166.319 9.15917C166.284 9.28635 166.229 9.4178 166.138 9.55068ZM161.144 9.00256C161.314 8.79328 161.52 8.59729 161.711 8.407C161.797 8.3491 161.882 8.28409 161.969 8.21243C162.254 8.18063 162.534 8.16307 162.803 8.15169C162.533 8.35005 162.252 8.50523 162.107 8.57024C162.024 8.60726 161.844 8.64522 161.831 8.69553C161.822 8.73491 161.912 8.7202 162.007 8.69125C162.172 8.63905 162.636 8.50665 163.134 8.14219C163.155 8.14172 163.177 8.14125 163.199 8.14125C163.288 8.13982 163.377 8.13887 163.463 8.13887C163.672 8.13887 163.88 8.14314 164.089 8.15406C163.873 8.30259 163.654 8.41174 163.532 8.46632C163.456 8.49953 163.296 8.52943 163.286 8.57784C163.276 8.6158 163.357 8.60489 163.444 8.58021C163.578 8.53845 163.938 8.43974 164.343 8.16924C164.476 8.17874 164.612 8.1906 164.748 8.20484C164.817 8.21243 164.882 8.21955 164.947 8.22761C164.794 8.32395 164.653 8.39466 164.565 8.43405C164.496 8.46489 164.346 8.49194 164.336 8.5375C164.327 8.57214 164.404 8.56407 164.484 8.54177C164.591 8.5095 164.853 8.43784 165.158 8.25846C165.333 8.28598 165.489 8.31968 165.629 8.35764C165.574 8.38849 165.524 8.41411 165.486 8.4331C165.42 8.46584 165.275 8.49716 165.271 8.54177C165.264 8.57309 165.34 8.56407 165.416 8.54082C165.483 8.51662 165.611 8.47581 165.771 8.39988C165.838 8.42171 165.9 8.44449 165.958 8.46916C166.002 8.48815 166.043 8.5076 166.079 8.52658C166.027 8.54889 165.982 8.57309 165.98 8.59682C165.98 8.63004 166.055 8.61438 166.132 8.58496C166.141 8.58163 166.149 8.57784 166.16 8.57357C166.293 8.65993 166.346 8.74156 166.361 8.8284C164.91 8.67512 163.155 8.73444 161.144 9.00256Z" fill="white"/>
<path d="M148.597 4.87298C148.693 5.23791 148.759 5.33235 148.85 5.45289C148.941 5.57343 149.095 5.74616 149.405 5.86765C149.725 5.99341 149.91 6.001 150.306 6.001C150.341 6.001 150.426 5.99009 150.426 5.99009C150.426 5.99009 150.273 5.92697 150.02 5.84819C149.831 5.7903 149.71 5.72955 149.667 5.70583L150.402 5.68447C150.402 5.68447 149.91 5.61803 149.716 5.53499C149.685 5.52265 149.613 5.48706 149.571 5.4657C149.704 5.47662 150.157 5.50699 150.157 5.50699C150.157 5.50699 150.09 5.31384 150.087 5.26449C150.198 5.28774 150.303 5.29723 150.405 5.29723C150.628 5.29723 150.827 5.24883 151.01 5.19948C151.644 5.02769 151.927 4.69597 152.272 4.24752C152.663 3.81852 153.034 3.30552 153.248 2.86182C153.305 2.74175 153.359 2.63118 153.403 2.50685C153.555 2.07453 153.649 1.6275 153.648 1.2991C153.645 1.00156 153.576 0.787058 153.41 0.544086C153.268 0.336231 153.112 0.184847 152.797 0.074276C152.668 0.0291932 152.393 0.00119442 152.314 0.000245309C152.011 -0.0049748 151.582 0.0747505 151.55 0.0837671C150.842 0.261251 150.265 0.625709 149.898 1.01532C149.806 1.11165 149.731 1.20609 149.665 1.30243C149.6 1.39639 149.542 1.49177 149.487 1.59143C149.296 1.9388 149.084 2.39248 148.955 2.73511C148.888 2.91022 148.776 3.26044 148.776 3.26376C148.773 3.26424 148.702 3.52999 148.696 3.55087C148.586 3.96895 148.533 4.21335 148.563 4.54839C148.568 4.65753 148.572 4.77665 148.597 4.87298ZM152.571 0.54551C152.617 0.549781 152.662 0.559746 152.743 0.590592C152.857 0.631879 152.914 0.6893 152.968 0.783736C152.847 0.921832 152.767 1.0324 152.724 1.0922C152.667 1.17572 152.639 1.25544 152.707 1.245C152.795 1.23551 152.87 1.08081 152.941 1.01152C152.965 0.985423 153.004 0.949356 153.038 0.914714C153.095 1.02718 153.128 1.12731 153.138 1.23362C152.766 1.54445 152.588 1.80166 152.511 1.91033C152.454 1.99195 152.425 2.06978 152.493 2.06219C152.58 2.05365 152.656 1.89942 152.726 1.83108C152.808 1.74803 152.954 1.61563 153.134 1.46994C153.12 1.6199 153.087 1.79217 153.038 1.97629C152.436 2.38204 152.177 2.74887 152.081 2.8808C152.027 2.95957 151.994 3.03598 152.063 3.02981C152.153 3.02364 152.228 2.87368 152.297 2.80582C152.416 2.68908 152.647 2.48075 152.95 2.27479C152.942 2.29662 152.937 2.31655 152.929 2.33743C152.893 2.43804 152.848 2.53437 152.797 2.64115C152.738 2.75931 152.665 2.88839 152.581 3.02032C152.354 3.17407 152.181 3.32024 152.05 3.44931C151.964 3.40898 151.869 3.36579 151.759 3.32261C152.28 2.31703 152.545 1.37978 152.571 0.54551ZM151.397 2.25913C151.355 2.25818 151.327 2.25771 151.266 2.26435C151.258 2.26625 151.219 2.26672 151.212 2.26767C151.276 2.07975 151.327 1.89752 151.369 1.71766C151.44 1.68587 151.543 1.64458 151.611 1.58526C151.625 1.57435 151.634 1.56248 151.64 1.55252C151.655 1.52831 151.658 1.49984 151.607 1.49984C151.599 1.49984 151.586 1.50174 151.573 1.50364C151.519 1.51123 151.456 1.53116 151.404 1.54682C151.433 1.40398 151.453 1.26304 151.468 1.12494C151.527 1.09362 151.59 1.06325 151.651 1.02244C151.669 1.01105 151.7 0.991592 151.713 0.968339C151.72 0.958373 151.721 0.951255 151.724 0.942713C151.724 0.917087 151.703 0.90807 151.675 0.909019C151.67 0.909019 151.663 0.910917 151.653 0.911866C151.599 0.921832 151.535 0.946034 151.482 0.965017C151.489 0.85492 151.488 0.750992 151.488 0.643743C151.558 0.621913 151.625 0.595338 151.697 0.576356C151.772 0.557373 151.847 0.544086 151.921 0.533171C152.059 0.512291 152.176 0.526527 152.176 0.526527C152.176 0.64137 152.171 0.760009 152.161 0.881495C152.101 0.907121 152.02 0.94034 151.954 0.986372C151.93 1.00298 151.911 1.02007 151.902 1.03383C151.886 1.05898 151.91 1.07084 151.934 1.07227C151.961 1.07511 151.993 1.07084 152.029 1.06515C152.07 1.05993 152.115 1.05233 152.144 1.04474C152.125 1.19518 152.1 1.34893 152.068 1.50506C152.003 1.53401 151.92 1.56865 151.85 1.61468C151.823 1.63177 151.802 1.6498 151.793 1.66499C151.777 1.68919 151.8 1.69963 151.825 1.70343C151.85 1.70437 151.884 1.70248 151.917 1.69726C151.958 1.69251 152 1.68444 152.029 1.6778C151.98 1.87711 151.919 2.07975 151.85 2.28713C151.842 2.28998 151.838 2.2933 151.832 2.29614L151.828 2.29947L151.824 2.30231C151.776 2.34313 151.673 2.38441 151.593 2.43329C151.569 2.44705 151.552 2.46319 151.544 2.4779C151.531 2.50115 151.533 2.52014 151.55 2.5301C151.569 2.53674 151.589 2.53722 151.611 2.53437C151.664 2.5263 151.726 2.50353 151.778 2.48502C151.685 2.72799 151.633 2.86656 151.507 3.11902C151.492 3.15794 151.476 3.18689 151.46 3.21631C151.33 3.17407 151.19 3.14085 151.046 3.11475C151.066 3.10431 151.088 3.0934 151.105 3.08343C151.138 3.05781 151.162 3.02838 151.163 3.02744C151.173 3.00371 151.166 2.98805 151.132 2.98615C151.126 2.98615 151.093 2.9833 151.09 2.9833C151.038 2.9814 150.991 2.96764 150.948 2.95483C151.055 2.73084 151.069 2.66915 151.148 2.45322C151.204 2.43661 151.274 2.41573 151.339 2.38062C151.356 2.37065 151.373 2.36068 151.387 2.3493C151.405 2.33458 151.417 2.3213 151.428 2.30706C151.437 2.28713 151.443 2.25818 151.397 2.25913ZM149.466 2.90168C149.473 2.88175 149.483 2.85612 149.492 2.83477C149.872 2.81294 150.198 2.87653 150.253 2.94249C150.285 2.96669 150.277 3.05021 150.36 3.02127C150.424 2.99849 150.436 2.9534 150.423 2.91497C150.414 2.83192 150.312 2.56807 149.593 2.59084C149.647 2.46651 149.706 2.33743 149.769 2.20978C150.155 2.16232 150.437 2.19886 150.515 2.24489C150.558 2.26245 150.577 2.33838 150.658 2.30042C150.722 2.27194 150.72 2.22876 150.693 2.19696C150.657 2.13385 150.478 1.94545 149.88 1.98816C149.91 1.93169 149.938 1.87474 149.967 1.82301C150.013 1.74234 150.057 1.66688 150.108 1.5938C150.357 1.55299 150.559 1.56438 150.645 1.57814C150.703 1.58099 150.763 1.63034 150.83 1.58668C150.883 1.55347 150.857 1.52309 150.811 1.50459C150.758 1.47659 150.596 1.385 150.265 1.39734C150.276 1.385 150.282 1.37313 150.294 1.35985C150.445 1.20087 150.633 1.05945 150.84 0.936069C150.92 0.878173 151.028 0.832141 151.066 0.813633C151.043 1.48513 150.864 2.25343 150.509 3.04879C150.183 3.02364 149.881 3.02886 149.684 3.04689C149.579 3.05638 149.487 3.06872 149.4 3.08153C149.421 3.02269 149.441 2.9629 149.466 2.90168Z" fill="white"/>
<path d="M146.516 13.5768C146.473 13.5635 146.487 13.4605 146.505 13.4221C146.335 13.3073 146.109 13.2204 145.875 13.191C145.69 13.1658 145.503 13.1749 145.334 13.2304C145.303 13.2427 145.247 13.2683 145.18 13.302C145.281 13.2845 145.461 13.2626 145.621 13.2807C145.633 13.2816 145.644 13.2831 145.656 13.2845C146.106 13.3443 146.192 13.6133 146.192 13.6133C146.192 13.6133 145.848 13.4923 145.607 13.4605C145.591 13.4586 145.575 13.4572 145.559 13.4548C145.319 13.4359 144.974 13.5018 144.974 13.5018L144.539 13.629C144.539 13.629 145.102 13.563 145.408 13.6039C145.452 13.611 145.493 13.6176 145.524 13.6285C145.768 13.7173 145.946 13.9237 145.946 13.9237C145.946 13.9237 145.765 13.787 145.411 13.7391C145.358 13.7329 145.303 13.7282 145.241 13.7258C144.881 13.7111 144.543 13.7937 144.323 13.8668L144.315 13.8658C144.037 13.9479 143.821 14.0665 143.643 14.2061C143.623 14.2203 143.589 14.2526 143.589 14.2526C143.332 14.4709 143.16 14.7262 143.017 14.9606C142.731 15.4238 142.55 15.9909 142.553 16.4336C142.555 16.6733 142.565 16.9186 142.637 17.1331C142.765 17.5251 142.965 17.9987 143.777 18.0201C144.753 18.0471 145.257 17.5977 145.534 16.9765C145.668 16.6733 145.76 16.4037 145.878 16.1166C145.878 16.1166 145.988 15.8732 146.04 15.7446C146.09 15.6326 146.143 15.5187 146.178 15.4238C146.287 15.1443 146.408 14.842 146.419 14.6033C146.427 14.552 146.43 14.5041 146.427 14.4642C146.412 14.3968 146.363 14.2099 146.297 14.1577C146.283 14.0912 146.322 13.8715 146.337 13.852C146.37 13.7657 146.478 13.6655 146.516 13.5768ZM143.776 14.7907C143.84 14.7641 143.906 14.7404 143.976 14.7172C143.958 14.7447 143.941 14.7703 143.923 14.7898C143.845 14.8685 143.704 14.9986 143.514 15.1357C143.589 15.0209 143.673 14.9018 143.776 14.7907ZM143.554 17.4938C143.468 17.4743 143.402 17.4444 143.349 17.4046C143.377 17.3685 143.395 17.3396 143.408 17.3196C143.438 17.275 143.45 17.2318 143.406 17.2356C143.357 17.238 143.323 17.3059 143.289 17.3471C143.236 17.2869 143.199 17.2119 143.163 17.1198C143.285 17.0002 143.347 16.9034 143.378 16.855C143.414 16.8019 143.427 16.7506 143.376 16.7563C143.311 16.7596 143.27 16.8598 143.226 16.9044C143.199 16.93 143.164 16.9628 143.121 16.9993C143.119 16.9936 143.116 16.9879 143.114 16.9822C143.094 16.9186 143.081 16.8441 143.072 16.7639C143.304 16.5689 143.407 16.4071 143.454 16.3359C143.494 16.2756 143.509 16.2172 143.451 16.2215C143.376 16.2281 143.329 16.3411 143.279 16.3909C143.231 16.4393 143.157 16.5072 143.061 16.5836C143.058 16.5376 143.058 16.4911 143.058 16.4455C143.057 16.3938 143.061 16.3401 143.067 16.2841C143.459 16.0013 143.617 15.7531 143.68 15.6544C143.722 15.5851 143.74 15.5215 143.674 15.5253C143.593 15.532 143.541 15.6587 143.483 15.7189C143.41 15.7911 143.282 15.9059 143.113 16.0303C143.157 15.8561 143.223 15.6724 143.307 15.4978C143.849 15.1575 144.043 14.8405 144.116 14.7243C144.128 14.7039 144.138 14.6844 144.144 14.6659C144.188 14.6545 144.232 14.6422 144.275 14.6327C144.209 14.7423 144.147 14.85 144.089 14.9563C143.554 15.9178 143.391 16.7744 143.554 17.4938ZM144.183 16.1024C144.183 16.1024 144.213 16.1024 144.216 16.1024C144.246 16.1 144.278 16.1076 144.312 16.1124C144.282 16.2462 144.26 16.3772 144.246 16.5039C144.213 16.5162 144.17 16.5295 144.129 16.5518C144.118 16.5599 144.108 16.5656 144.1 16.5717C144.089 16.5817 144.086 16.5879 144.081 16.5959C144.072 16.6106 144.068 16.6348 144.115 16.6348C144.135 16.6339 144.165 16.6334 144.198 16.632C144.21 16.6301 144.224 16.6296 144.236 16.6282C144.229 16.7364 144.231 16.8417 144.236 16.9443C144.192 16.9651 144.129 16.9898 144.088 17.0263C144.083 17.033 144.079 17.0373 144.076 17.0444C144.066 17.0596 144.066 17.0857 144.116 17.0847C144.119 17.0847 144.122 17.0833 144.126 17.0823C144.168 17.0804 144.21 17.0691 144.246 17.0572C144.254 17.1383 144.268 17.2181 144.284 17.2949C144.249 17.312 144.213 17.3315 144.177 17.3543C144.167 17.3604 144.149 17.3718 144.141 17.3875C144.137 17.3946 144.134 17.4008 144.134 17.4088C144.139 17.4254 144.161 17.4321 144.185 17.4292C144.187 17.4292 144.187 17.4292 144.189 17.4292C144.233 17.425 144.276 17.4122 144.311 17.4003C144.315 17.4188 144.322 17.4373 144.327 17.4568C144.194 17.4957 144.042 17.5156 143.872 17.518C143.866 17.4938 143.859 17.4691 143.854 17.4449C143.891 17.4297 143.941 17.4117 143.979 17.3842C143.992 17.3751 144.004 17.3647 144.008 17.3562C144.018 17.3396 144.008 17.3291 143.989 17.3272C143.972 17.3244 143.956 17.3244 143.935 17.3263C143.9 17.3286 143.86 17.3362 143.831 17.341C143.815 17.257 143.803 17.1711 143.798 17.0823C143.837 17.0662 143.887 17.0458 143.928 17.0169C143.942 17.0059 143.957 16.9969 143.963 16.9851C143.972 16.9722 143.96 16.9604 143.942 16.9575C143.928 16.9547 143.909 16.9556 143.891 16.9566C143.855 16.9604 143.819 16.9656 143.79 16.9713C143.786 16.8603 143.789 16.743 143.801 16.6239C143.802 16.6216 143.814 16.6154 143.814 16.6154C143.836 16.5931 143.901 16.566 143.951 16.5342C143.968 16.5262 143.976 16.5162 143.98 16.5067C143.99 16.4873 143.984 16.473 143.962 16.4664C143.95 16.4635 143.937 16.4631 143.925 16.4635C143.885 16.4687 143.848 16.4806 143.815 16.4934C143.834 16.3515 143.864 16.2073 143.902 16.0611C143.955 16.0198 144.018 15.969 144.061 15.951L144.087 15.9344C144.092 15.9311 144.098 15.9287 144.103 15.9244C144.122 15.9159 144.135 15.9031 144.139 15.8917C144.149 15.8751 144.141 15.8618 144.128 15.8532H144.126C144.126 15.8532 144.103 15.8499 144.094 15.8513C144.089 15.8499 144.049 15.8594 144.045 15.8604C144.015 15.8699 143.982 15.8822 143.95 15.896C144.015 15.6895 144.099 15.4755 144.203 15.2539C144.272 15.2055 144.35 15.1936 144.419 15.1367C144.435 15.1267 144.447 15.1158 144.454 15.103C144.46 15.0935 144.458 15.083 144.451 15.0755C144.438 15.0679 144.371 15.074 144.371 15.074C144.346 15.0811 144.301 15.0911 144.268 15.1025C144.291 15.0598 144.343 14.9758 144.365 14.934C144.406 14.8591 144.45 14.7812 144.494 14.7053C144.494 14.7053 144.928 14.5814 144.957 14.5909C144.897 14.6944 144.836 14.7955 144.783 14.8984C144.707 15.0432 144.637 15.1851 144.578 15.3217C144.552 15.326 144.522 15.3317 144.493 15.3412C144.486 15.3422 144.469 15.3464 144.454 15.3554C144.438 15.3645 144.423 15.3744 144.408 15.3844C144.398 15.3953 144.388 15.4038 144.384 15.4129C144.376 15.4233 144.376 15.439 144.395 15.4437C144.424 15.4655 144.481 15.4674 144.511 15.4746C144.444 15.6435 144.388 15.812 144.346 15.9728C144.318 15.9795 144.282 15.9875 144.253 15.9961C144.243 15.998 144.225 16.0046 144.208 16.0151C144.197 16.0212 144.186 16.0274 144.178 16.0341C144.176 16.0364 144.156 16.0483 144.148 16.0644C144.147 16.0668 144.146 16.0696 144.146 16.0725C144.145 16.0905 144.151 16.1024 144.183 16.1024ZM145.779 14.9896L145.774 15.0009C145.426 15.0546 145.304 14.8685 145.279 14.7931C145.266 14.7684 145.284 14.7048 145.235 14.7172C145.197 14.7295 145.182 14.7637 145.184 14.7945C145.174 14.8681 145.121 15.2031 145.676 15.2154C145.65 15.2795 145.628 15.3327 145.609 15.3787L145.573 15.4769C145.556 15.5196 145.541 15.5633 145.526 15.6046L145.526 15.6074C145.52 15.6217 145.513 15.6369 145.507 15.653C145.154 15.7403 145.011 15.5718 144.978 15.5045C144.963 15.485 144.974 15.429 144.929 15.4442C144.896 15.4551 144.886 15.4831 144.889 15.5101C144.889 15.5728 144.872 15.8656 145.402 15.8518C145.408 15.8504 145.413 15.8499 145.421 15.849C145.4 15.895 145.385 15.9278 145.383 15.9339C145.346 16.025 145.312 16.1133 145.277 16.2016C145.008 16.2467 144.853 16.1342 144.806 16.0844C144.784 16.0701 144.782 16.0165 144.737 16.0345C144.703 16.0464 144.702 16.0744 144.713 16.0991C144.729 16.1503 144.783 16.3767 145.212 16.371C145.178 16.4569 145.145 16.5414 145.108 16.6277C144.919 16.6405 144.786 16.5798 144.739 16.548C144.712 16.5361 144.698 16.4934 144.658 16.5105C144.628 16.5243 144.629 16.5485 144.648 16.5684C144.672 16.6049 144.755 16.7506 145.05 16.7634C145.049 16.7682 145.047 16.7734 145.044 16.7786C145.008 16.8598 144.968 16.9333 144.925 17.0007C144.845 16.9922 144.784 16.9746 144.755 16.9613C144.726 16.9547 144.703 16.9182 144.664 16.9376C144.634 16.9528 144.642 16.9713 144.662 16.9865C144.683 17.0059 144.736 17.0619 144.86 17.0937C144.781 17.1948 144.69 17.2788 144.587 17.3434C144.379 16.6363 144.569 15.783 145.058 14.8733C145.108 14.7798 145.16 14.6887 145.218 14.5933C145.226 14.5767 145.237 14.5639 145.247 14.5525C145.437 14.5876 145.665 14.6877 145.835 14.8216C145.819 14.8742 145.8 14.9321 145.779 14.9896Z" fill="white"/>
</svg>
